<svg xmlns="http://www.w3.org/2000/svg">
<defs>
<font id="TTForsTrial-Regular" horiz-adv-x="540" >
  <font-face 
    font-family="TT Fors Trial"
    font-weight="400"
    font-stretch="normal"
    units-per-em="1000"
    panose-1="2 11 0 3 3 0 1 2 0 0"
    ascent="800"
    descent="-200"
    x-height="490"
    cap-height="700"
    bbox="-350 -255.002 1438 936"
    underline-thickness="50"
    underline-position="-180"
    unicode-range="U+000D-U+FB04"
  />
<missing-glyph horiz-adv-x="900" 
d="M100 0l-0.000976562 283.999h45v-139h33v139h50v31h-128v126l19 -61h23l34 106l33 -106h23l54 170h-32l-34 -110l-35 110h-19l-35 -110l-31 103v157h700v-150h-110v-170h110v-91c-4 8.66699 -10.5 15.334 -19.5 20.001s-19.167 7 -30.5 7
c-18 0 -32.5 -4.83301 -43.5 -14.5s-16.5 -21.167 -16.5 -34.5c0 -14.667 4.83301 -25.5 14.5 -32.5s22.834 -12.833 39.501 -17.5c11.333 -3.33301 19.833 -6.5 25.5 -9.5s8.5 -7.5 8.5 -13.5c0 -14 -9.33301 -21 -28 -21c-9.33301 0 -16.333 2.33301 -21 7
s-7 10.667 -7 18h-33c0 -16 5.66699 -29.167 17 -39.5s26 -15.5 44 -15.5c11.333 0 21.5 2.16699 30.5 6.5s15.5 8.83301 19.5 13.5v-163h-700zM310.999 379.999h33.001v62h24l35 -62h37l-40 67c24 11.333 36 28 36 50c0 14.667 -5.33301 27.167 -16 37.5
s-24.334 15.5 -41.001 15.5h-68v-170zM469 549.999v-170h33v170h-33zM580 518.999v-139h32v139h50v31h-132v-31h50zM344 472.999l-0.000976562 46h35c6.66699 0 12.334 -2.16699 17.001 -6.5s7 -9.83301 7 -16.5c0 -8 -2.5 -13.833 -7.5 -17.5s-10.5 -5.5 -16.5 -5.5h-35z
M799.999 482.999h-78v36h78v-36zM799.999 410.999h-78v41h78v-41zM387.499 167.499c15 16.333 22.5 36.833 22.5 61.5s-7.66699 45.334 -23 62.001s-35 25 -59 25s-43.667 -8.33301 -59 -25s-23 -37.334 -23 -62.001s7.5 -45.167 22.5 -61.5s34.833 -24.5 59.5 -24.5
s44.5 8.16699 59.5 24.5zM632.999 161.999c12.667 12.667 18.999 28.334 18.999 47.001v106h-32v-106c0 -10 -3.16699 -18.333 -9.5 -25s-14.833 -10 -25.5 -10c-11.333 0 -20.166 3.5 -26.499 10.5s-9.5 15.167 -9.5 24.5v106h-32v-106c0 -18.667 6.5 -34.334 19.5 -47.001

<glyph glyph-name="f_f_l.liga.ss04" unicode="ff&#xe02c;" horiz-adv-x="890" 
d="M870 70l-0.000976562 -70h-50c-44.667 0 -80.834 13.5 -108.501 40.5s-41.5 61.833 -41.5 104.5v505h-125c-24.667 0 -44.167 -7 -58.5 -21s-21.5 -33.667 -21.5 -59v-80h125v-68h-125v-422h-75v422h-205v-422h-75v422h-80v68h80v85c0 42.667 13.833 77.5 41.5 104.5
s63.834 40.5 108.501 40.5h50v-70h-45c-24.667 0 -44.167 -7 -58.5 -21s-21.5 -33.667 -21.5 -59v-80h205v85c0 42.667 13.833 77.5 41.5 104.5s63.834 40.5 108.501 40.5h205v-570c0 -24.667 7.16699 -44.167 21.5 -58.5s33.833 -21.5 58.5 -21.5h45z" />
    <glyph glyph-name="f_l.liga.ss04" unicode="f&#xe02c;" horiz-adv-x="610" 
d="M590 70v-70h-50c-44.667 0 -80.834 13.5 -108.501 40.5s-41.5 61.833 -41.5 104.5v505h-125c-24.667 0 -44.167 -7 -58.5 -21s-21.5 -33.667 -21.5 -59v-80h125v-68h-125v-422h-75v422h-80v68h80v85c0 42.667 13.833 77.5 41.5 104.5s63.834 40.5 108.501 40.5h205v-570
c0 -24.667 7.16699 -44.167 21.5 -58.5s33.833 -21.5 58.5 -21.5h45z" />
    <glyph glyph-name="f_f_i.liga.ss07" unicode="ff&#xe117;" horiz-adv-x="820" 
d="M465 490h279.998v-490h-75v422h-205v-422h-75v422h-205v-422h-75v422h-80v68h80v85c0 42.667 13.833 77.5 41.5 104.5s63.834 40.5 108.501 40.5h50v-70h-45c-24.667 0 -44.167 -7 -58.5 -21s-21.5 -33.667 -21.5 -59v-80h205v85c0 42.667 13.833 77.5 41.5 104.5
s63.834 40.5 108.501 40.5h50v-70h-45c-24.667 0 -44.167 -7 -58.5 -21s-21.5 -33.667 -21.5 -59v-80zM673.498 595.5c-9.66699 9.66699 -14.5 21.167 -14.5 34.5s4.83301 24.666 14.5 33.999s21.167 14 34.5 14s24.666 -4.66699 33.999 -14s14 -20.666 14 -33.999
s-4.66699 -24.833 -14 -34.5s-20.666 -14.5 -33.999 -14.5s-24.833 4.83301 -34.5 14.5z" />
    <glyph glyph-name="fi.liga.ss07" unicode="f&#xe117;" 
d="M185 490h279.999v-490h-75v422h-205v-422h-75v422h-80v68h80v85c0 42.667 13.833 77.5 41.5 104.5s63.834 40.5 108.501 40.5h50v-70h-45c-24.667 0 -44.167 -7 -58.5 -21s-21.5 -33.667 -21.5 -59v-80zM393.499 595.5c-9.66699 9.66699 -14.5 21.167 -14.5 34.5
s4.83301 24.666 14.5 33.999s21.167 14 34.5 14s24.666 -4.66699 33.999 -14s14 -20.666 14 -33.999s-4.66699 -24.833 -14 -34.5s-20.666 -14.5 -33.999 -14.5s-24.833 4.83301 -34.5 14.5z" />
    <glyph glyph-name="f_f.liga" unicode="ff" horiz-adv-x="610" 
d="M545 650c-24.667 0 -44.1689 -7 -58.502 -21s-21.5 -33.667 -21.5 -59v-80h125v-68h-125v-422h-75v422h-205v-422h-75v422h-80v68h80v85c0 42.667 13.833 77.5 41.5 104.5s63.834 40.5 108.501 40.5h50v-70h-45c-24.667 0 -44.167 -7 -58.5 -21s-21.5 -33.667 -21.5 -59
v-80h205v85c0 42.667 13.833 77.5 41.5 104.5s63.834 40.5 108.501 40.5h50v-70h-45z" />
    <glyph glyph-name="fi.liga" unicode="fi" horiz-adv-x="539" 
d="M185 490h279.999v-490h-75v422h-205v-422h-75v422h-80v68h80v85c0 42.667 13.833 77.5 41.5 104.5s63.834 40.5 108.501 40.5h50v-70h-45c-24.667 0 -44.167 -7 -58.5 -21s-21.5 -33.667 -21.5 -59v-80zM384.999 585v90h85v-90h-85z" />
    <glyph glyph-name="f_l.liga" unicode="fl" horiz-adv-x="545" 
d="M465 720l-0.000976562 -720h-75v650h-125c-24.667 0 -44.167 -7 -58.5 -21s-21.5 -33.667 -21.5 -59v-80h125v-68h-125v-422h-75v422h-80v68h80v85c0 42.667 13.833 77.5 41.5 104.5s63.834 40.5 108.501 40.5h205z" />
    <glyph glyph-name="f_f_i.liga" unicode="ffi" horiz-adv-x="819" 
d="M465 490h279.998v-490h-75v422h-205v-422h-75v422h-205v-422h-75v422h-80v68h80v85c0 42.667 13.833 77.5 41.5 104.5s63.834 40.5 108.501 40.5h50v-70h-45c-24.667 0 -44.167 -7 -58.5 -21s-21.5 -33.667 -21.5 -59v-80h205v85c0 42.667 13.833 77.5 41.5 104.5
s63.834 40.5 108.501 40.5h50v-70h-45c-24.667 0 -44.167 -7 -58.5 -21s-21.5 -33.667 -21.5 -59v-80zM664.998 585v90h85v-90h-85z" />
    <glyph glyph-name="f_f_l.liga" unicode="ffl" horiz-adv-x="825" 
d="M745 720l-0.00195312 -720h-75v650h-125c-24.667 0 -44.167 -7 -58.5 -21s-21.5 -33.667 -21.5 -59v-80h125v-68h-125v-422h-75v422h-205v-422h-75v422h-80v68h80v85c0 42.667 13.833 77.5 41.5 104.5s63.834 40.5 108.501 40.5h50v-70h-45
c-24.667 0 -44.167 -7 -58.5 -21s-21.5 -33.667 -21.5 -59v-80h205v85c0 42.667 13.833 77.5 41.5 104.5s63.834 40.5 108.501 40.5h205z" />
    <glyph glyph-name=".notdef" horiz-adv-x="900" 
d="M100 0l-0.000976562 283.999h45v-139h33v139h50v31h-128v126l19 -61h23l34 106l33 -106h23l54 170h-32l-34 -110l-35 110h-19l-35 -110l-31 103v157h700v-150h-110v-170h110v-91c-4 8.66699 -10.5 15.334 -19.5 20.001s-19.167 7 -30.5 7
c-18 0 -32.5 -4.83301 -43.5 -14.5s-16.5 -21.167 -16.5 -34.5c0 -14.667 4.83301 -25.5 14.5 -32.5s22.834 -12.833 39.501 -17.5c11.333 -3.33301 19.833 -6.5 25.5 -9.5s8.5 -7.5 8.5 -13.5c0 -14 -9.33301 -21 -28 -21c-9.33301 0 -16.333 2.33301 -21 7
s-7 10.667 -7 18h-33c0 -16 5.66699 -29.167 17 -39.5s26 -15.5 44 -15.5c11.333 0 21.5 2.16699 30.5 6.5s15.5 8.83301 19.5 13.5v-163h-700zM310.999 379.999h33.001v62h24l35 -62h37l-40 67c24 11.333 36 28 36 50c0 14.667 -5.33301 27.167 -16 37.5
s-24.334 15.5 -41.001 15.5h-68v-170zM469 549.999v-170h33v170h-33zM580 518.999v-139h32v139h50v31h-132v-31h50zM344 472.999l-0.000976562 46h35c6.66699 0 12.334 -2.16699 17.001 -6.5s7 -9.83301 7 -16.5c0 -8 -2.5 -13.833 -7.5 -17.5s-10.5 -5.5 -16.5 -5.5h-35z
M799.999 482.999h-78v36h78v-36zM799.999 410.999h-78v41h78v-41zM387.499 167.499c15 16.333 22.5 36.833 22.5 61.5s-7.66699 45.334 -23 62.001s-35 25 -59 25s-43.667 -8.33301 -59 -25s-23 -37.334 -23 -62.001s7.5 -45.167 22.5 -61.5s34.833 -24.5 59.5 -24.5
s44.5 8.16699 59.5 24.5zM632.999 161.999c12.667 12.667 18.999 28.334 18.999 47.001v106h-32v-106c0 -10 -3.16699 -18.333 -9.5 -25s-14.833 -10 -25.5 -10c-11.333 0 -20.166 3.5 -26.499 10.5s-9.5 15.167 -9.5 24.5v106h-32v-106c0 -18.667 6.5 -34.334 19.5 -47.001
s29.167 -19 48.5 -19s35.333 6.33301 48 19zM799.998 223.999c-10 9.33301 -25.332 16.667 -45.999 22c-10.667 3.33301 -18.334 6.33301 -23.001 9s-7 6.66699 -7 12c0 6 2.5 10.833 7.5 14.5s11.167 5.5 18.5 5.5c6.66699 0 12.667 -2.33301 18 -7s8 -10.667 8 -18h24v-38
zM291.499 190c-9.66699 10.667 -14.4971 23.667 -14.4971 39c0 16.667 4.66699 30.167 14 40.5s21.666 15.5 36.999 15.5c16 0 28.5 -5.16699 37.5 -15.5s13.5 -23.833 13.5 -40.5c0 -15.333 -4.83301 -28.333 -14.5 -39s-21.834 -16 -36.501 -16
s-26.834 5.33301 -36.501 16z" />
    <glyph glyph-name="nonmarkingreturn" unicode="&#xd;" horiz-adv-x="600" 
 />
    <glyph glyph-name="space" unicode=" " horiz-adv-x="280" 
 />
    <glyph glyph-name="exclam" unicode="!" horiz-adv-x="293" 
d="M184 185h-75l-5 515h85zM191 0h-89v97h89v-97z" />
    <glyph glyph-name="quotedbl" unicode="&#x22;" horiz-adv-x="360" 
d="M130 480h-60l-10 220h80zM290 480h-60l-10 220h80z" />
    <glyph glyph-name="numbersign" unicode="#" horiz-adv-x="682" 
d="M672 523l-18 -68h-127l-56 -210h128l-18 -68h-127l-47 -177h-72l47 177h-172l-47 -177h-72l47 177h-128l18 68h127l56 210h-128l18 68h127l47 177h72l-47 -177h172l47 177h72l-47 -177h128zM227 245h172l56 210h-172z" />
    <glyph glyph-name="dollar" unicode="$" horiz-adv-x="562" 
d="M458 53c-36 -34.667 -82.001 -55.001 -138.001 -61.001v-97h-75v98c-59.333 7.33301 -106.333 29.833 -141 67.5s-52.667 84.167 -54 139.5h80c1.33301 -39.333 15.666 -71.666 42.999 -96.999s65.333 -38 114 -38c43.333 0 77.833 10.333 103.5 31s38.5 48.667 38.5 84
c0 27.333 -7.16699 49.833 -21.5 67.5s-32.166 31.5 -53.499 41.5s-50 20.667 -86 32c-44 15.333 -79 29.5 -105 42.5s-48.333 32.5 -67 58.5s-28 60.333 -28 103c0 46.667 16.333 86.834 49 120.501s75.334 54.167 128.001 61.5v98h75v-97
c51.333 -7.33301 93.833 -29 127.5 -65s51.167 -78.667 52.5 -128h-80c-1.33301 35.333 -15 64.166 -41 86.499s-58.333 33.5 -97 33.5c-38 0 -69.333 -9.33301 -94 -28s-37 -46 -37 -82c0 -25.333 6.83301 -46.333 20.5 -63s30.667 -29.667 51 -39s48.5 -20.333 84.5 -33
c43.333 -14 78.833 -28 106.5 -42s51 -34.5 70 -61.5s28.5 -62.5 28.5 -106.5c0 -50 -18 -92.333 -54 -127z" />
    <glyph glyph-name="percent" unicode="%" horiz-adv-x="831" 
d="M131 393c-26.667 15.333 -47.667 36 -63 62s-23 54.333 -23 85s7.66699 59 23 85s36.333 46.667 63 62s55.667 23 87 23s60.333 -7.66699 87 -23s47.667 -36 63 -62s23 -54.333 23 -85s-7.66699 -59 -23 -85s-36.333 -46.667 -63 -62s-55.667 -23 -87 -23
s-60.333 7.66699 -87 23zM217 0h-83l480 700h83zM292.5 462.5c19.667 20.333 29.5 46.166 29.5 77.499s-9.83301 57.166 -29.5 77.499s-44.5 30.5 -74.5 30.5s-54.833 -10.167 -74.5 -30.5s-29.5 -46.166 -29.5 -77.499s9.83301 -57.166 29.5 -77.499s44.5 -30.5 74.5 -30.5
s54.833 10.167 74.5 30.5zM526 13c-26.667 15.333 -47.667 36 -63 62s-23 54.333 -23 85s7.66699 59 23 85s36.333 46.667 63 62s55.667 23 87 23s60.333 -7.66699 87 -23s47.667 -36 63 -62s23 -54.333 23 -85s-7.66699 -59 -23 -85s-36.333 -46.667 -63 -62
s-55.667 -23 -87 -23s-60.333 7.66699 -87 23zM687.5 82.5c19.667 20.333 29.5 46.166 29.5 77.499s-9.83301 57.166 -29.5 77.499s-44.5 30.5 -74.5 30.5s-54.833 -10.167 -74.5 -30.5s-29.5 -46.166 -29.5 -77.499s9.83301 -57.166 29.5 -77.499s44.5 -30.5 74.5 -30.5
s54.833 10.167 74.5 30.5z" />
    <glyph glyph-name="ampersand" unicode="&#x26;" horiz-adv-x="640" 
d="M635 300l-132 -153.001l132 -147h-100l-81 92c-33.333 -35.333 -65.833 -61.166 -97.5 -77.499s-68.834 -24.5 -111.501 -24.5c-40 0 -74.667 7.66699 -104 23s-51.833 35.833 -67.5 61.5s-23.5 54.167 -23.5 85.5c0 30 6.83301 59.167 20.5 87.5
s32.834 52.833 57.501 73.5l70 59l-39 45c-19.333 22 -34 42.167 -44 60.5s-15 39.833 -15 64.5c0 30 6.83301 57.167 20.5 81.5s33 43.5 58 57.5s53.5 21 85.5 21s60.5 -6.66699 85.5 -20s44.333 -31.5 58 -54.5s20.5 -48.5 20.5 -76.5c0 -27.333 -6.16699 -52 -18.5 -74
s-33.5 -45.667 -63.5 -71l-46 -39l156 -175l86 100h93zM253 426.999l30 24.9961c23.333 19.333 40.833 36.833 52.5 52.5s17.5 33.834 17.5 54.501c0 22.667 -8.33301 41.834 -25 57.501s-38 23.5 -64 23.5s-47.333 -8.66699 -64 -26s-25 -38.666 -25 -63.999
c0 -16 3.83301 -30.167 11.5 -42.5s20.167 -28.166 37.5 -47.499zM326 76.9951c22.667 11.333 49.668 33.667 81.001 67l-162 184l-65 -55c-19.333 -16 -33.333 -32.667 -42 -50s-13 -37 -13 -59c0 -27.333 10.167 -51.5 30.5 -72.5s50.166 -31.5 89.499 -31.5
c31.333 0 58.333 5.66699 81 17z" />
    <glyph glyph-name="quotesingle" unicode="'" horiz-adv-x="200" 
d="M130 480h-60l-10 220h80z" />
    <glyph glyph-name="parenleft" unicode="(" horiz-adv-x="272" 
d="M197 -200c-32.667 48 -62 114.167 -88 198.5s-39 173.166 -39 266.499s13 182.166 39 266.499s55.333 150.5 88 198.5h75c-32.667 -49.333 -62 -116.166 -88 -200.499s-39 -172.5 -39 -264.5s13 -180.167 39 -264.5s55.333 -151.166 88 -200.499h-75z" />
    <glyph glyph-name="parenright" unicode=")" horiz-adv-x="272" 
d="M0 -200c32.667 49.333 62 116.166 88 200.499s39 172.5 39 264.5s-13 180.167 -39 264.5s-55.333 151.166 -88 200.499h75c32.667 -48 62 -114.167 88 -198.5s39 -173.166 39 -266.499s-13 -182.166 -39 -266.499s-55.333 -150.5 -88 -198.5h-75z" />
    <glyph glyph-name="asterisk" unicode="*" horiz-adv-x="450" 
d="M395 605l20 -75l-140 -30l95 -115l-65 -45l-80 125l-80 -125l-65 45l95 115l-140 30l20 75l140 -50l-10 145h80l-10 -145z" />
    <glyph glyph-name="plus" unicode="+" 
d="M306 376h204v-72h-204v-204h-72v204h-204v72h204v204h72v-204z" />
    <glyph glyph-name="comma" unicode="," horiz-adv-x="245" 
d="M105 -133h-70l55 230h90z" />
    <glyph glyph-name="hyphen" unicode="-" horiz-adv-x="360" 
d="M310 219h-260v72h260v-72z" />
    <glyph glyph-name="period" unicode="." horiz-adv-x="239" 
d="M164 0h-89v97h89v-97z" />
    <glyph glyph-name="slash" unicode="/" horiz-adv-x="360" 
d="M76 -200h-76l284 930h76z" />
    <glyph glyph-name="zero" unicode="0" horiz-adv-x="632" 
d="M181 34c-38.667 29.333 -68.5 71.166 -89.5 125.499s-31.5 117.833 -31.5 190.5s10.5 136.167 31.5 190.5s50.833 96.166 89.5 125.499s83.667 44 135 44s96.333 -14.667 135 -44s68.5 -71.166 89.5 -125.499s31.5 -117.833 31.5 -190.5s-10.5 -136.167 -31.5 -190.5
s-50.833 -96.166 -89.5 -125.499s-83.667 -44 -135 -44s-96.333 14.667 -135 44zM407 100c26 23.333 46.167 56.5 60.5 99.5s21.5 93.167 21.5 150.5s-7.16699 107.5 -21.5 150.5s-34.5 76.167 -60.5 99.5s-56.333 35 -91 35s-65 -11.667 -91 -35s-46.167 -56.5 -60.5 -99.5
s-21.5 -93.167 -21.5 -150.5s7.16699 -107.5 21.5 -150.5s34.5 -76.167 60.5 -99.5s56.333 -35 91 -35s65 11.667 91 35z" />
    <glyph glyph-name="one" unicode="1" horiz-adv-x="355" 
d="M20 620l175 80h55v-700h-80v611l-150 -69v78z" />
    <glyph glyph-name="two" unicode="2" horiz-adv-x="529" 
d="M161 80l328.001 -0.000976562v-80h-457v50l272 298c32 34.667 53.667 63.834 65 87.501s17 46.5 17 68.5c0 39.333 -12.5 71 -37.5 95s-57.5 36 -97.5 36c-39.333 0 -71.833 -12 -97.5 -36s-40.167 -57 -43.5 -99h-80c1.33301 41.333 12.166 78 32.499 110
s47 56.667 80 74s69.167 26 108.5 26c40 0 76.5 -8.5 109.5 -25.5s59.333 -41.167 79 -72.5s29.5 -67.333 29.5 -108c0 -30.667 -7.5 -61 -22.5 -91s-42.167 -66.333 -81.5 -109z" />
    <glyph glyph-name="three" unicode="3" horiz-adv-x="546" 
d="M461.5 298.5c23 -31 34.5029 -66.8359 34.5029 -107.503c0 -36.667 -9.83301 -70.334 -29.5 -101.001s-46.834 -55 -81.501 -73s-73.334 -27 -116.001 -27c-43.333 0 -82.333 9.33301 -117 28s-61.834 44.334 -81.501 77.001s-29.834 69.334 -30.501 110.001h80
c1.33301 -40.667 15.666 -74.167 42.999 -100.5s62.666 -39.5 105.999 -39.5c41.333 0 75.666 12.333 102.999 37s41 56.334 41 95.001c0 37.333 -13.167 67.666 -39.5 90.999s-62.5 35 -108.5 35h-53v75h53c38.667 0 69.667 11.167 93 33.5s35 49.833 35 82.5
c0 35.333 -12 64.333 -36 87s-54 34 -90 34c-37.333 0 -68.166 -11.833 -92.499 -35.5s-37.833 -54.167 -40.5 -91.5h-80c1.33301 38.667 11.333 73.334 30 104.001s43.834 54.667 75.501 72s67.5 26 107.5 26c38.667 0 73.834 -8.5 105.501 -25.5
s56.834 -40.167 75.501 -69.5s28 -61.666 28 -96.999s-9.33301 -66 -28 -92s-44 -46 -76 -60c36.667 -14 66.5 -36.5 89.5 -67.5z" />
    <glyph glyph-name="four" unicode="4" horiz-adv-x="555" 
d="M425 232h105v-72h-105v-160h-77v160h-328v50l350 490h55v-468zM348 552l-224 -320h224v320z" />
    <glyph glyph-name="five" unicode="5" horiz-adv-x="560" 
d="M392.5 428.5c36.333 -21 65 -49.5 86 -85.5s31.5 -75.333 31.5 -118c0 -43.333 -10 -82.833 -30 -118.5s-48.333 -64 -85 -85s-78.334 -31.5 -125.001 -31.5c-38.667 0 -74.667 7.83301 -108 23.5s-60.833 37.5 -82.5 65.5s-34.834 60 -39.501 96h80
c7.33301 -32.667 24 -59.167 50 -79.5s58.333 -30.5 97 -30.5c48.667 0 87.5 15.167 116.5 45.5s43.5 68.5 43.5 114.5c0 29.333 -6.66699 56.333 -20 81s-32.166 44 -56.499 58s-52.166 21 -83.499 21c-26 0 -50 -4.5 -72 -13.5s-40.667 -21.167 -56 -36.5l-55 25l85 340
h320v-75h-260l-45 -185c17.333 7.33301 32.5 12.5 45.5 15.5s27.167 4.5 42.5 4.5c44 0 84.167 -10.5 120.5 -31.5z" />
    <glyph glyph-name="six" unicode="6" horiz-adv-x="560" 
d="M407 424.5c34 -20.333 61.334 -48.001 82.001 -83.001s31 -73.833 31 -116.5s-10.667 -82 -32 -118s-50.5 -64.5 -87.5 -85.5s-77.167 -31.5 -120.5 -31.5s-83.5 10.5 -120.5 31.5s-66.167 49.5 -87.5 85.5s-32 75.333 -32 118c0 26 4.5 51.833 13.5 77.5
s24.833 55.834 47.5 90.501l199 307h93l-170 -257c25.333 8 50.666 12 75.999 12c38 0 74 -10.167 108 -30.5zM359.001 85.999c24 14 43 33.333 57 58s21 51.667 21 81s-7 56.333 -21 81s-33 44 -57 58s-50.333 21 -79 21s-55 -7 -79 -21s-43 -33.333 -57 -58
s-21 -51.667 -21 -81s7 -56.333 21 -81s33 -44 57 -58s50.333 -21 79 -21s55 7 79 21z" />
    <glyph glyph-name="seven" unicode="7" horiz-adv-x="495" 
d="M15 625v75h450v-50l-305 -650h-87l294 625h-352z" />
    <glyph glyph-name="eight" unicode="8" horiz-adv-x="562" 
d="M478.5 309c22.333 -33.333 33.498 -69.666 33.498 -108.999c0 -38 -10.333 -73 -31 -105s-48.667 -57.5 -84 -76.5s-74 -28.5 -116 -28.5s-80.667 9.5 -116 28.5s-63.333 44.5 -84 76.5s-31 67 -31 105c0 39.333 11.167 75.666 33.5 108.999s50.833 57.666 85.5 72.999
c-27.333 15.333 -49 36 -65 62s-24 54.667 -24 86c0 34.667 8.83301 65.667 26.5 93s41.834 48.666 72.501 63.999s64.667 23 102 23s71.333 -7.66699 102 -23s54.834 -36.666 72.501 -63.999s26.5 -58.333 26.5 -93c0 -31.333 -8 -60 -24 -86s-37.667 -46.667 -65 -62
c34.667 -15.333 63.167 -39.666 85.5 -72.999zM196.498 603c-22.333 -21.333 -33.5 -47.333 -33.5 -78s11.167 -56.667 33.5 -78s50.5 -32 84.5 -32s62.167 10.667 84.5 32s33.5 47.333 33.5 78s-11.167 56.667 -33.5 78s-50.5 32 -84.5 32s-62.167 -10.667 -84.5 -32z
M355.998 83.5c22.667 12.333 40.5 29.166 53.5 50.499s19.5 45 19.5 71s-6.5 49.667 -19.5 71s-30.833 38.166 -53.5 50.499s-47.667 18.5 -75 18.5s-52.333 -6.16699 -75 -18.5s-40.5 -29.166 -53.5 -50.499s-19.5 -45 -19.5 -71s6.5 -49.667 19.5 -71
s30.833 -38.166 53.5 -50.499s47.667 -18.5 75 -18.5s52.333 6.16699 75 18.5z" />
    <glyph glyph-name="nine" unicode="9" horiz-adv-x="560" 
d="M400.5 678.5c37 -21 66.166 -49.499 87.499 -85.499s32 -75.333 32 -118c0 -26 -4.5 -51.833 -13.5 -77.5s-24.833 -55.834 -47.5 -90.501l-199 -307h-93l170 257c-25.333 -8 -50.666 -12 -75.999 -12c-38 0 -74 10.167 -108 30.5s-61.333 48 -82 83
s-31 73.833 -31 116.5s10.667 82 32 118s50.5 64.5 87.5 85.5s77.167 31.5 120.5 31.5s83.5 -10.5 120.5 -31.5zM358.999 336.001c24 14 43 33.333 57 58s21 51.667 21 81s-7 56.333 -21 81s-33 44 -57 58s-50.333 21 -79 21s-55 -7 -79 -21s-43 -33.333 -57 -58
s-21 -51.667 -21 -81s7 -56.333 21 -81s33 -44 57 -58s50.333 -21 79 -21s55 7 79 21z" />
    <glyph glyph-name="colon" unicode=":" horiz-adv-x="239" 
d="M164 388h-89v97h89v-97zM164 0h-89v97h89v-97z" />
    <glyph glyph-name="semicolon" unicode=";" horiz-adv-x="255" 
d="M179 388h-89v97h89v-97zM105 -133h-70l55 230h90z" />
    <glyph glyph-name="less" unicode="&#x3c;" 
d="M35 381l460 190v-79l-385 -151l385 -151v-79l-460 190v80z" />
    <glyph glyph-name="equal" unicode="=" 
d="M505 397h-470v72h470v-72zM505 213h-470v72h470v-72z" />
    <glyph glyph-name="greater" unicode="&#x3e;" 
d="M45 492v79l460 -190v-80l-460 -190v79l385 151z" />
    <glyph glyph-name="question" unicode="?" horiz-adv-x="507" 
d="M197 220c0 30.667 4.66797 56.666 14.001 77.999s20.666 38.833 33.999 52.5s30.666 28.834 51.999 45.501c26.667 21.333 46.167 40 58.5 56s18.5 37 18.5 63c0 34.667 -12.167 63.334 -36.5 86.001s-55.166 34 -92.499 34s-68.166 -11.667 -92.499 -35
s-36.833 -51.666 -37.5 -84.999h-80c0.666992 36 10.5 68.833 29.5 98.5s44.333 53.167 76 70.5s66.5 26 104.5 26c38.667 0 74.167 -8.33301 106.5 -25s58 -39.834 77 -69.501s28.5 -63.167 28.5 -100.5c0 -25.333 -4.16699 -47.5 -12.5 -66.5s-18.833 -35 -31.5 -48
s-29 -27.5 -49 -43.5c-19.333 -16 -34.833 -29.833 -46.5 -41.5s-21.334 -25.834 -29.001 -42.501s-11.5 -36 -11.5 -58v-30h-80v35zM282.001 -0.000976562h-89v97h89v-97z" />
    <glyph glyph-name="at" unicode="@" horiz-adv-x="895" 
d="M658 601.5c60 -32.333 107.003 -76.667 141.003 -133s51 -119.166 51 -188.499c0 -42.667 -6.66699 -80.334 -20 -113.001s-31.666 -57.834 -54.999 -75.501s-50 -26.5 -80 -26.5c-24.667 0 -46.834 6 -66.501 18s-35.834 29.333 -48.501 52
c-16 -21.333 -36.333 -38.333 -61 -51s-52.334 -19 -83.001 -19c-34 0 -65.667 8.5 -95 25.5s-52.666 40.5 -69.999 70.5s-26 63 -26 99s8.66699 69 26 99s40.666 53.5 69.999 70.5s61 25.5 95 25.5c25.333 0 49.166 -5.16699 71.499 -15.5s39.833 -23.5 52.5 -39.5v45h70
v-240c0 -21.333 5.5 -39.166 16.5 -53.499s27.167 -21.5 48.5 -21.5c28 0 49.167 12.667 63.5 38s21.5 62.666 21.5 111.999c0 59.333 -13.833 112.166 -41.5 158.499s-66.167 82.333 -115.5 108s-105.333 38.5 -168 38.5c-66 0 -124.333 -13.833 -175 -41.5
s-90 -66.167 -118 -115.5s-42 -105.333 -42 -168c0 -57.333 14.5 -109.166 43.5 -155.499s68.333 -82.833 118 -109.5s104.167 -40 163.5 -40c56.667 0 105 8 145 24v-68c-37.333 -14 -85.666 -21 -144.999 -21c-72.667 0 -139.167 16.167 -199.5 48.5
s-108 76.833 -143 133.5s-52.5 119.334 -52.5 188.001c0 74.667 17.167 141.5 51.5 200.5s82.166 105.333 143.499 139s131.333 50.5 210 50.5c75.333 0 143 -16.167 203 -48.5zM529.503 167.499c23.667 25 35.5 55.833 35.5 92.5s-11.833 67.5 -35.5 92.5
s-53.5 37.5 -89.5 37.5s-65.833 -12.5 -89.5 -37.5s-35.5 -55.833 -35.5 -92.5s11.833 -67.5 35.5 -92.5s53.5 -37.5 89.5 -37.5s65.833 12.5 89.5 37.5z" />
    <glyph glyph-name="A" unicode="A" horiz-adv-x="670" 
d="M650 0h-86l-75 190h-310l-75 -190h-84l285 700h60zM459 265l-125 316l-125 -316h250z" />
    <glyph glyph-name="B" unicode="B" horiz-adv-x="577" 
d="M493 310.5c22.667 -30.333 33.998 -65.502 33.998 -105.502c0 -38.667 -10 -73.667 -30 -105s-48 -55.833 -84 -73.5s-77 -26.5 -123 -26.5h-195v700h185c44.667 0 83.334 -7.83301 116.001 -23.5s57.667 -37.5 75 -65.5s26 -60 26 -96
c0 -29.333 -8.5 -56.666 -25.5 -81.999s-39.5 -44.666 -67.5 -57.999c36.667 -12.667 66.334 -34.167 89.001 -64.5zM174.998 624.998v-220h105c41.333 0 74 10.333 98 31s36 47 36 79s-12 58.333 -36 79s-56.667 31 -98 31h-105zM289.998 74.998
c46 0 83.167 12.5 111.5 37.5s42.5 55.833 42.5 92.5s-14.167 67.5 -42.5 92.5s-65.5 37.5 -111.5 37.5h-115v-260h115z" />
    <glyph glyph-name="C" unicode="C" horiz-adv-x="776" 
d="M232 38c-54.667 32 -97.833 75.665 -129.5 130.998s-47.5 115.666 -47.5 180.999s15.833 125.666 47.5 180.999s74.834 99 129.501 131s114.334 48 179.001 48c74 0 139 -20.167 195 -60.5s98 -95.166 126 -164.499h-85c-23.333 46 -55.5 82.5 -96.5 109.5
s-87.5 40.5 -139.5 40.5c-49.333 0 -95 -12.667 -137 -38s-75.167 -59.666 -99.5 -102.999s-36.5 -91.333 -36.5 -144s12.167 -100.667 36.5 -144s57.5 -77.666 99.5 -102.999s87.667 -38 137 -38c54 0 101.667 13.5 143 40.5s73.666 63.5 96.999 109.5h85
c-28 -69.333 -70.167 -124.166 -126.5 -164.499s-122.5 -60.5 -198.5 -60.5c-64.667 0 -124.334 16 -179.001 48z" />
    <glyph glyph-name="D" unicode="D" horiz-adv-x="721" 
d="M95 0v700h185c78 0 146 -14.5 204 -43.5s102.833 -70 134.5 -123s47.5 -114.167 47.5 -183.5s-15.833 -130.5 -47.5 -183.5s-76.5 -94 -134.5 -123s-126 -43.5 -204 -43.5h-185zM280 75c62 0 115.833 11.3291 161.5 33.9961s80.667 54.834 105 96.501
s36.5 89.834 36.5 144.501s-12.167 102.834 -36.5 144.501s-59.333 73.834 -105 96.501s-99.5 34 -161.5 34h-105v-550h105z" />
    <glyph glyph-name="E" unicode="E" 
d="M175 325v-250h300v-75h-380v700h370v-75h-290v-225h280v-75h-280z" />
    <glyph glyph-name="F" unicode="F" horiz-adv-x="475" 
d="M425 700v-75h-250v-225h240v-75h-240v-325h-80v700h330z" />
    <glyph glyph-name="G" unicode="G" horiz-adv-x="801" 
d="M391 370h369.997v-30c0 -63.333 -14.667 -121.666 -44 -174.999s-70.166 -95.833 -122.499 -127.5s-111.833 -47.5 -178.5 -47.5c-66 0 -126.667 16 -182 48s-99 75.667 -131 131s-48 115.666 -48 180.999s16 125.666 48 180.999s75.667 99 131 131s116 48 182 48
c76 0 143 -20.333 201 -61s101 -95.334 129 -164.001h-85c-22.667 46 -55.667 82.5 -99 109.5s-92 40.5 -146 40.5c-50.667 0 -97.167 -12.667 -139.5 -38s-76 -59.666 -101 -102.999s-37.5 -91.333 -37.5 -144s12.5 -100.667 37.5 -144s58.667 -77.666 101 -102.999
s88.833 -38 139.5 -38c46 0 87.833 9.5 125.5 28.5s68.334 45.833 92.001 80.5s37.834 75 42.501 121h-285v75z" />
    <glyph glyph-name="H" unicode="H" horiz-adv-x="720" 
d="M545 400v300h80v-700h-80v325h-370v-325h-80v700h80v-300h370z" />
    <glyph glyph-name="I" unicode="I" horiz-adv-x="280" 
d="M180 0h-80v700h80v-700z" />
    <glyph glyph-name="J" unicode="J" horiz-adv-x="510" 
d="M108 17.5c-32 18.333 -57.168 43.5 -75.501 75.5s-27.5 67.667 -27.5 107h80c0 -40 12.333 -72.5 37 -97.5s56 -37.5 94 -37.5c38.667 0 69.834 13 93.501 39s35.5 61.333 35.5 106v490h80v-490c0 -42.667 -9 -80.667 -27 -114s-42.833 -59.333 -74.5 -78
s-67.5 -28 -107.5 -28s-76 9.16699 -108 27.5z" />
    <glyph glyph-name="K" unicode="K" horiz-adv-x="595" 
d="M260 361l330 -361h-106l-309 339v-339h-80v700h80v-325l294 325h98z" />
    <glyph glyph-name="L" unicode="L" horiz-adv-x="480" 
d="M445 0h-350v700h80v-625h270v-75z" />
    <glyph glyph-name="M" unicode="M" horiz-adv-x="910" 
d="M760 700l85 -700h-80l-60 516l-230 -516h-40l-232 519l-60 -519h-78l85 700h56l250 -561l250 561h54z" />
    <glyph glyph-name="N" unicode="N" horiz-adv-x="790" 
d="M617 148v552h78v-700h-50l-472 552v-552h-78v700h50z" />
    <glyph glyph-name="O" unicode="O" horiz-adv-x="832" 
d="M234 38c-55.333 32 -99 75.667 -131 131s-48 115.666 -48 180.999s16 125.666 48 180.999s75.667 99 131 131s116 48 182 48s126.667 -16 182 -48s99 -75.667 131 -131s48 -115.666 48 -180.999s-16 -125.666 -48 -180.999s-75.667 -99 -131 -131s-116 -48 -182 -48
s-126.667 16 -182 48zM555.5 103c42.333 25.333 76 59.666 101 102.999s37.5 91.333 37.5 144s-12.5 100.667 -37.5 144s-58.667 77.666 -101 102.999s-88.833 38 -139.5 38s-97.167 -12.667 -139.5 -38s-76 -59.666 -101 -102.999s-37.5 -91.333 -37.5 -144
s12.5 -100.667 37.5 -144s58.667 -77.666 101 -102.999s88.833 -38 139.5 -38s97.167 12.667 139.5 38z" />
    <glyph glyph-name="P" unicode="P" horiz-adv-x="562" 
d="M300 700c44.667 0 84.167 -8.66895 118.5 -26.002s61 -41.166 80 -71.499s28.5 -64.5 28.5 -102.5s-9.5 -72.167 -28.5 -102.5s-45.667 -54.166 -80 -71.499s-73.833 -26 -118.5 -26h-125v-300h-80v700h205zM300 374.998c44 0 79 11.333 105 34s39 53 39 91
s-13 68.333 -39 91s-61 34 -105 34h-125v-250h125z" />
    <glyph glyph-name="Q" unicode="Q" horiz-adv-x="832" 
d="M742 194.5c-23.333 -48.333 -55.333 -89.5 -96 -123.5l125 -146h-95l-91 106c-52.667 -27.333 -109 -41 -169 -41c-66 0 -126.667 16 -182 48s-99 75.667 -131 131s-48 115.666 -48 180.999s16 125.666 48 180.999s75.667 99 131 131s116 48 182 48s126.667 -16 182 -48
s99 -75.667 131 -131s48 -115.666 48 -180.999c0 -55.333 -11.667 -107.166 -35 -155.499zM534 91l-152.999 178.998h95l119 -139c31.333 26.667 55.666 58.834 72.999 96.501s26 78.5 26 122.5c0 52.667 -12.5 100.667 -37.5 144s-58.667 77.666 -101 102.999
s-88.833 38 -139.5 38s-97.167 -12.667 -139.5 -38s-76 -59.666 -101 -102.999s-37.5 -91.333 -37.5 -144s12.5 -100.667 37.5 -144s58.667 -77.666 101 -102.999s88.833 -38 139.5 -38c42 0 81.333 8.66699 118 26z" />
    <glyph glyph-name="R" unicode="R" horiz-adv-x="610" 
d="M505 0l-248 299.999h-82v-300h-80v700h205c44.667 0 84.167 -8.66699 118.5 -26s61 -41.166 80 -71.499s28.5 -64.5 28.5 -102.5c0 -50 -15.833 -92.833 -47.5 -128.5s-74.167 -58.167 -127.5 -67.5l253 -304h-100zM175 624.999v-250h125c44 0 79 11.333 105 34
s39 53 39 91s-13 68.333 -39 91s-61 34 -105 34h-125z" />
    <glyph glyph-name="S" unicode="S" horiz-adv-x="562" 
d="M162 17c-35.333 18 -62.498 43 -81.498 75s-29.167 68 -30.5 108h80c1.33301 -39.333 15.666 -71.666 42.999 -96.999s65.333 -38 114 -38c43.333 0 77.833 10.333 103.5 31s38.5 48.667 38.5 84c0 27.333 -7.16699 49.833 -21.5 67.5s-32.166 31.5 -53.499 41.5
s-50 20.667 -86 32c-44 15.333 -79 29.5 -105 42.5s-48.333 32.5 -67 58.5s-28 60.333 -28 103c0 34.667 9.33301 66 28 94s44.5 50.167 77.5 66.5s70.167 24.5 111.5 24.5c39.333 0 75.166 -8.5 107.499 -25.5s58.166 -40.5 77.499 -70.5s29.333 -63 30 -99h-80
c-1.33301 35.333 -15 64.166 -41 86.499s-58.333 33.5 -97 33.5c-38 0 -69.333 -9.33301 -94 -28s-37 -46 -37 -82c0 -25.333 6.83301 -46.333 20.5 -63s30.667 -29.667 51 -39s48.5 -20.333 84.5 -33c43.333 -14 78.833 -28 106.5 -42s51 -34.5 70 -61.5
s28.5 -62.5 28.5 -106.5c0 -36 -9.83301 -68.5 -29.5 -97.5s-46.5 -51.667 -80.5 -68s-72.333 -24.5 -115 -24.5c-48 0 -89.667 9 -125 27z" />
    <glyph glyph-name="T" unicode="T" horiz-adv-x="490" 
d="M285 0h-80v625h-180v75h440v-75h-180v-625z" />
    <glyph glyph-name="U" unicode="U" horiz-adv-x="694" 
d="M209.5 23.5c-39.667 22.333 -70.332 53.833 -91.999 94.5s-32.5 87.334 -32.5 140.001v442h80v-442c0 -58 16.333 -104.667 49 -140s77 -53 133 -53s100.333 17.667 133 53s49 82 49 140v442h80v-442c0 -52.667 -10.833 -99.334 -32.5 -140.001
s-52.334 -72.167 -92.001 -94.5s-85.5 -33.5 -137.5 -33.5s-97.833 11.167 -137.5 33.5z" />
    <glyph glyph-name="V" unicode="V" horiz-adv-x="610" 
d="M306 154l195 546h84l-255 -700h-50l-255 700h86z" />
    <glyph glyph-name="W" unicode="W" horiz-adv-x="980" 
d="M696 152l176 548h83l-235 -700h-51l-180 546l-180 -546h-49l-235 700h85l175 -545l180 545h50z" />
    <glyph glyph-name="X" unicode="X" horiz-adv-x="580" 
d="M339 363l216 -363h-90l-175 298l-176 -298h-89l216 363l-196 337h90l156 -272l155 272h89z" />
    <glyph glyph-name="Y" unicode="Y" horiz-adv-x="560" 
d="M281 384l175 316h89l-225 -395v-305h-80v305l-225 395h91z" />
    <glyph glyph-name="Z" unicode="Z" horiz-adv-x="570" 
d="M505 650l-345 -575h365v-75h-470v50l345 575h-325v75h430v-50z" />
    <glyph glyph-name="bracketleft" unicode="[" horiz-adv-x="305" 
d="M295 -200h-200v930h200v-70h-125v-790h125v-70z" />
    <glyph glyph-name="backslash" unicode="\" horiz-adv-x="360" 
d="M360 -200h-76l-284 930h76z" />
    <glyph glyph-name="bracketright" unicode="]" horiz-adv-x="305" 
d="M210 -200h-200v70h125v790h-125v70h200v-930z" />
    <glyph glyph-name="asciicircum" unicode="^" horiz-adv-x="390" 
d="M233 700l137 -302h-77l-99 230l-99 -230h-75l137 302h76z" />
    <glyph glyph-name="underscore" unicode="_" horiz-adv-x="350" 
d="M370 -170h-390v65h390v-65z" />
    <glyph glyph-name="grave" unicode="`" horiz-adv-x="236" 
d="M206 560h-76l-100 140h86z" />
    <glyph glyph-name="a" unicode="a" horiz-adv-x="621" 
d="M471 490h75v-490h-75v75c-20.667 -26 -46.667 -46.667 -78 -62s-65.333 -23 -102 -23c-44.667 0 -86.334 11.167 -125.001 33.5s-69.334 53 -92.001 92s-34 82.167 -34 129.5s11.333 90.5 34 129.5s53.334 69.667 92.001 92s80.334 33.5 125.001 33.5
c36.667 0 70.667 -7.66699 102 -23s57.333 -36 78 -62v75zM387 84.5c27.333 16.333 49 38.5 65 66.5s24 59.333 24 94s-8 66 -24 94s-37.667 50.167 -65 66.5s-57.333 24.5 -90 24.5s-62.667 -8.16699 -90 -24.5s-49 -38.5 -65 -66.5s-24 -59.333 -24 -94s8 -66 24 -94
s37.667 -50.167 65 -66.5s57.333 -24.5 90 -24.5s62.667 8.16699 90 24.5z" />
    <glyph glyph-name="b" unicode="b" horiz-adv-x="626" 
d="M460 466.5c38.667 -22.333 69.334 -53 92.001 -92s34 -82.167 34 -129.5s-11.333 -90.5 -34 -129.5s-53.334 -69.667 -92.001 -92s-80.334 -33.5 -125.001 -33.5c-36.667 0 -70.667 7.66699 -102 23s-57.333 36 -78 62v-75h-75v720h75v-305
c20.667 26 46.667 46.667 78 62s65.333 23 102 23c44.667 0 86.334 -11.167 125.001 -33.5zM419.5 84.5c27 16.333 48.5 38.5 64.5 66.5s24 59.333 24 94s-8 66 -24 94s-37.5 50.167 -64.5 66.5s-56.833 24.5 -89.5 24.5s-62.834 -8.16699 -90.501 -24.5
s-49.5 -38.5 -65.5 -66.5s-24 -59.333 -24 -94s8 -66 24 -94s37.833 -50.167 65.5 -66.5s57.834 -24.5 90.501 -24.5s62.5 8.16699 89.5 24.5z" />
    <glyph glyph-name="c" unicode="c" horiz-adv-x="556" 
d="M165.5 23.5c-38.333 22.333 -68.833 52.998 -91.5 91.998s-34 82.167 -34 129.5s11.333 90.5 34 129.5s53.167 69.667 91.5 92s80.166 33.5 125.499 33.5c53.333 0 101.5 -14.667 144.5 -44s73.167 -69.666 90.5 -120.999h-80c-14.667 30 -36 53.333 -64 70
s-58.333 25 -91 25c-31.333 0 -60.333 -8.16699 -87 -24.5s-47.667 -38.5 -63 -66.5s-23 -59.333 -23 -94s7.66699 -66 23 -94s36.333 -50.167 63 -66.5s55.667 -24.5 87 -24.5c32.667 0 63 8.33301 91 25s49.333 40 64 70h80c-17.333 -51.333 -47.5 -91.666 -90.5 -120.999
s-91.167 -44 -144.5 -44c-45.333 0 -87.166 11.167 -125.499 33.5z" />
    <glyph glyph-name="d" unicode="d" horiz-adv-x="626" 
d="M471 720h75v-720h-75v75c-20.667 -26 -46.667 -46.667 -78 -62s-65.333 -23 -102 -23c-44.667 0 -86.334 11.167 -125.001 33.5s-69.334 53 -92.001 92s-34 82.167 -34 129.5s11.333 90.5 34 129.5s53.334 69.667 92.001 92s80.334 33.5 125.001 33.5
c36.667 0 70.667 -7.66699 102 -23s57.333 -36 78 -62v305zM387 84.5c27.333 16.333 49 38.5 65 66.5s24 59.333 24 94s-8 66 -24 94s-37.667 50.167 -65 66.5s-57.333 24.5 -90 24.5s-62.667 -8.16699 -90 -24.5s-49 -38.5 -65 -66.5s-24 -59.333 -24 -94s8 -66 24 -94
s37.667 -50.167 65 -66.5s57.333 -24.5 90 -24.5s62.667 8.16699 90 24.5z" />
    <glyph glyph-name="e" unicode="e" horiz-adv-x="563" 
d="M408.5 469.5c37 -20.333 66.166 -49 87.499 -86s32 -79.167 32 -126.5c0 -16 -0.666992 -28.333 -2 -37h-407c4.66699 -48.667 21.834 -87.5 51.501 -116.5s68.167 -43.5 115.5 -43.5c69.333 0 119.333 28.333 150 85h80c-20 -50 -49.667 -88.333 -89 -115
s-86.333 -40 -141 -40c-46 0 -87.833 11.167 -125.5 33.5s-67.167 52.833 -88.5 91.5s-32 82 -32 130s10.667 91.333 32 130s50.833 69.167 88.5 91.5s79.5 33.5 125.5 33.5c44.667 0 85.5 -10.167 122.5 -30.5zM176.499 392c-29 -25.333 -47.168 -60 -54.501 -104h327
c-4.66699 42.667 -22.167 77 -52.5 103s-67.166 39 -110.499 39c-44 0 -80.5 -12.667 -109.5 -38z" />
    <glyph glyph-name="f" unicode="f" horiz-adv-x="330" 
d="M265 650c-24.667 0 -44.168 -7 -58.501 -21s-21.5 -33.667 -21.5 -59v-80h125v-68h-125v-422h-75v422h-80v68h80v85c0 42.667 13.833 77.5 41.5 104.5s63.834 40.5 108.501 40.5h50v-70h-45z" />
    <glyph glyph-name="g" unicode="g" horiz-adv-x="611" 
d="M461 490l75 0.00195312v-460c0 -46 -10.333 -87.333 -31 -124s-49.5 -65.167 -86.5 -85.5s-79.5 -30.5 -127.5 -30.5c-57.333 0 -107 15.167 -149 45.5s-70.667 71.833 -86 124.5h75c12 -30.667 32.167 -55 60.5 -73s61.5 -27 99.5 -27c52 0 93.333 15.667 124 47
s46 72.333 46 123v64c-21.333 -26 -46.833 -46.5 -76.5 -61.5s-62.5 -22.5 -98.5 -22.5c-45.333 0 -86.666 10.333 -123.999 31s-67 49.667 -89 87s-33 79.666 -33 126.999s11 89.666 33 126.999s51.667 66.333 89 87s78.666 31 123.999 31c36 0 68.833 -7.5 98.5 -22.5
s55.167 -35.5 76.5 -61.5v74zM381 103.002c26.667 15.333 47.5 36.333 62.5 63s22.5 56.334 22.5 89.001s-7.5 62.334 -22.5 89.001s-35.833 47.667 -62.5 63s-56.334 23 -89.001 23s-62.334 -7.66699 -89.001 -23s-47.5 -36.333 -62.5 -63s-22.5 -56.334 -22.5 -89.001
s7.5 -62.334 22.5 -89.001s35.833 -47.667 62.5 -63s56.334 -23 89.001 -23s62.334 7.66699 89.001 23z" />
    <glyph glyph-name="h" unicode="h" horiz-adv-x="580" 
d="M414.5 471.5c30.333 -19 53.834 -44.834 70.501 -77.501s25 -69 25 -109v-285h-75v285c0 43.333 -12 78.333 -36 105s-57 40 -99 40c-26.667 0 -51 -6.16699 -73 -18.5s-39.5 -29.5 -52.5 -51.5s-19.5 -47 -19.5 -75v-285h-75v720h75v-295
c20 24.667 43.167 43.334 69.5 56.001s54.833 19 85.5 19c39.333 0 74.166 -9.5 104.499 -28.5z" />
    <glyph glyph-name="i" unicode="i" horiz-adv-x="225" 
d="M150 0h-75v490h75v-490zM156 584h-87v92h87v-92z" />
    <glyph glyph-name="j" unicode="j" horiz-adv-x="225" 
d="M-50 -200l0.000976562 70h45c25.333 0 45 7 59 21s21 33.667 21 59v540h75v-545c0 -42.667 -13.833 -77.5 -41.5 -104.5s-63.834 -40.5 -108.501 -40.5h-50zM156.001 584h-87v92h87v-92z" />
    <glyph glyph-name="k" unicode="k" horiz-adv-x="489" 
d="M235 253l249 -253h-102l-227 234v-234h-75v720h75v-453l216 223h96z" />
    <glyph glyph-name="l" unicode="l" horiz-adv-x="235" 
d="M155 0h-75v720h75v-720z" />
    <glyph glyph-name="m" unicode="m" horiz-adv-x="870" 
d="M711 472.5c28 -18.333 49.835 -43.3359 65.502 -75.0029s23.5 -67.5 23.5 -107.5v-290h-75v290c0 40.667 -10.833 74.167 -32.5 100.5s-50.834 39.5 -87.501 39.5c-23.333 0 -44.833 -6.16699 -64.5 -18.5s-35.5 -29.166 -47.5 -50.499s-18 -45 -18 -71v-290h-75v290
c0 40.667 -10.833 74.167 -32.5 100.5s-50.834 39.5 -87.501 39.5c-23.333 0 -44.833 -6.16699 -64.5 -18.5s-35.5 -29.166 -47.5 -50.499s-18 -45 -18 -71v-290h-75v490h75v-65c17.333 24.667 38 43.334 62 56.001s50 19 78 19c34 0 65.5 -9.16699 94.5 -27.5
s50.833 -42.5 65.5 -72.5c17.333 32 40.333 56.667 69 74s60.667 26 96 26c36 0 68 -9.16699 96 -27.5z" />
    <glyph glyph-name="n" unicode="n" horiz-adv-x="575" 
d="M409.5 471.5c30.333 -19 53.834 -44.834 70.501 -77.501s25 -69 25 -109v-285h-75v285c0 43.333 -12 78.333 -36 105s-57 40 -99 40c-26.667 0 -51 -6.16699 -73 -18.5s-39.5 -29.5 -52.5 -51.5s-19.5 -47 -19.5 -75v-285h-75v490h75v-65
c20 24.667 43.167 43.334 69.5 56.001s54.833 19 85.5 19c39.333 0 74.166 -9.5 104.499 -28.5z" />
    <glyph glyph-name="o" unicode="o" horiz-adv-x="592" 
d="M167.5 23.5c-39 22.333 -70 53 -93 92s-34.5 82.167 -34.5 129.5s11.5 90.5 34.5 129.5s54 69.667 93 92s81.833 33.5 128.5 33.5s89.5 -11.167 128.5 -33.5s70 -53 93 -92s34.5 -82.167 34.5 -129.5s-11.5 -90.5 -34.5 -129.5s-54 -69.667 -93 -92
s-81.833 -33.5 -128.5 -33.5s-89.5 11.167 -128.5 33.5zM385.5 84.5c27 16.333 48.5 38.5 64.5 66.5s24 59.333 24 94s-8 66 -24 94s-37.5 50.167 -64.5 66.5s-56.833 24.5 -89.5 24.5s-62.5 -8.16699 -89.5 -24.5s-48.5 -38.5 -64.5 -66.5s-24 -59.333 -24 -94
s8 -66 24 -94s37.5 -50.167 64.5 -66.5s56.833 -24.5 89.5 -24.5s62.5 8.16699 89.5 24.5z" />
    <glyph glyph-name="p" unicode="p" horiz-adv-x="621" 
d="M455 466.5c38.667 -22.333 69.334 -53 92.001 -92s34 -82.167 34 -129.5s-11.333 -90.5 -34 -129.5s-53.334 -69.667 -92.001 -92s-80.334 -33.5 -125.001 -33.5c-36.667 0 -70.667 7.66699 -102 23s-57.333 36 -78 62v-275h-75v690h75v-75
c20.667 26 46.667 46.667 78 62s65.333 23 102 23c44.667 0 86.334 -11.167 125.001 -33.5zM414.5 84.5c27 16.333 48.5 38.5 64.5 66.5s24 59.333 24 94s-8 66 -24 94s-37.5 50.167 -64.5 66.5s-56.833 24.5 -89.5 24.5s-62.834 -8.16699 -90.501 -24.5
s-49.5 -38.5 -65.5 -66.5s-24 -59.333 -24 -94s8 -66 24 -94s37.833 -50.167 65.5 -66.5s57.834 -24.5 90.501 -24.5s62.5 8.16699 89.5 24.5z" />
    <glyph glyph-name="q" unicode="q" horiz-adv-x="621" 
d="M471 490h75v-690h-75v275c-20.667 -26 -46.667 -46.667 -78 -62s-65.333 -23 -102 -23c-44.667 0 -86.334 11.167 -125.001 33.5s-69.334 53 -92.001 92s-34 82.167 -34 129.5s11.333 90.5 34 129.5s53.334 69.667 92.001 92s80.334 33.5 125.001 33.5
c36.667 0 70.667 -7.66699 102 -23s57.333 -36 78 -62v75zM387 84.5c27.333 16.333 49 38.5 65 66.5s24 59.333 24 94s-8 66 -24 94s-37.667 50.167 -65 66.5s-57.333 24.5 -90 24.5s-62.667 -8.16699 -90 -24.5s-49 -38.5 -65 -66.5s-24 -59.333 -24 -94s8 -66 24 -94
s37.667 -50.167 65 -66.5s57.333 -24.5 90 -24.5s62.667 8.16699 90 24.5z" />
    <glyph glyph-name="r" unicode="r" horiz-adv-x="355" 
d="M345 495v-70.001h-50c-26.667 0 -51 -6.16699 -73 -18.5s-39.5 -29.5 -52.5 -51.5s-19.5 -47 -19.5 -75v-280h-75v490h75v-70c20 24.667 43.167 43.334 69.5 56.001s54.833 19 85.5 19h40z" />
    <glyph glyph-name="s" unicode="s" horiz-adv-x="483" 
d="M145.5 10c-29 13.333 -51.833 31.667 -68.5 55s-25.667 50 -27 80h75c2 -25.333 13.667 -45.833 35 -61.5s50 -23.5 86 -23.5c30 0 54.833 6.33301 74.5 19s29.5 30.667 29.5 54c0 18 -5.33301 32.5 -16 43.5s-23.834 19.167 -39.501 24.5s-37.834 11.333 -66.501 18
c-36 8 -64.667 16.167 -86 24.5s-39.666 21.833 -54.999 40.5s-23 44 -23 76c0 26 8 49.667 24 71s37.5 38.166 64.5 50.499s56.5 18.5 88.5 18.5c31.333 0 60.166 -6.66699 86.499 -20s47.5 -31.333 63.5 -54s24.333 -48 25 -76h-75
c-1.33301 22.667 -11.666 41.667 -30.999 57s-43.666 23 -72.999 23c-26.667 0 -49.167 -6.33301 -67.5 -19s-27.5 -29.667 -27.5 -51c0 -16 5.16699 -29 15.5 -39s23 -17.667 38 -23s36.167 -11.333 63.5 -18c36 -8 65.167 -16.5 87.5 -25.5s41.5 -23.167 57.5 -42.5
s24 -45.666 24 -78.999c0 -42.667 -17.667 -77.167 -53 -103.5s-79 -39.5 -131 -39.5c-36.667 0 -69.5 6.66699 -98.5 20z" />
    <glyph glyph-name="t" unicode="t" horiz-adv-x="350" 
d="M310 422h-124.999v-272c0 -24.667 7.16699 -44.167 21.5 -58.5s33.833 -21.5 58.5 -21.5h45v-70h-50c-44.667 0 -80.834 13.5 -108.501 40.5s-41.5 61.833 -41.5 104.5v277h-80v68h80v130h75v-130h125v-68z" />
    <glyph glyph-name="u" unicode="u" horiz-adv-x="566" 
d="M171.5 17.5c-32.333 18.333 -57.3311 43.833 -74.998 76.5s-26.5 69.667 -26.5 111v285h75v-285c0 -42.667 12.667 -77.5 38 -104.5s58.666 -40.5 99.999 -40.5s74.666 13.5 99.999 40.5s38 61.833 38 104.5v285h75v-285c0 -41.333 -8.83301 -78.333 -26.5 -111
s-42.667 -58.167 -75 -76.5s-69.5 -27.5 -111.5 -27.5s-79.167 9.16699 -111.5 27.5z" />
    <glyph glyph-name="v" unicode="v" horiz-adv-x="510" 
d="M256 116l165 374h79l-220 -490h-50l-220 490h81z" />
    <glyph glyph-name="w" unicode="w" horiz-adv-x="800" 
d="M571 117l141 373h78l-195 -490h-51l-145 364l-145 -364h-49l-195 490h80l140 -370l145 370h50z" />
    <glyph glyph-name="x" unicode="x" horiz-adv-x="529" 
d="M312 257l187 -257h-93l-142 202l-145 -202h-89l186 254l-172 236h93l128 -184l132 184h90z" />
    <glyph glyph-name="y" unicode="y" horiz-adv-x="515" 
d="M262 119l163 371h80l-310 -690h-80l105 235l-215 455h84z" />
    <glyph glyph-name="z" unicode="z" horiz-adv-x="470" 
d="M420 445l-275 -377h285v-68h-390v45l275 377h-265v68h370v-45z" />
    <glyph glyph-name="braceleft" unicode="{" horiz-adv-x="340" 
d="M205 410c0 -34.667 -7.33301 -64.3301 -22 -88.9971s-36 -43.334 -64 -56.001c28 -12.667 49.333 -31.334 64 -56.001s22 -54.334 22 -89.001v-130c0 -38 9.83301 -67.5 29.5 -88.5s48.167 -31.5 85.5 -31.5h10v-70h-10c-61.333 0 -108.333 17 -141 51
s-49 80.333 -49 139v130c0 35.333 -8.33301 62.5 -25 81.5s-41.667 28.5 -75 28.5v70c33.333 0 58.333 9.5 75 28.5s25 46.167 25 81.5v130c0 58.667 16.333 105 49 139s79.667 51 141 51h10v-70h-10c-37.333 0 -65.833 -10.5 -85.5 -31.5s-29.5 -50.5 -29.5 -88.5v-130z
" />
    <glyph glyph-name="bar" unicode="|" horiz-adv-x="315" 
d="M195 -200h-75v930h75v-930z" />
    <glyph glyph-name="braceright" unicode="}" horiz-adv-x="340" 
d="M210 410c0 -35.333 8.33301 -62.5039 25 -81.5039s41.667 -28.5 75 -28.5v-70c-33.333 0 -58.333 -9.5 -75 -28.5s-25 -46.167 -25 -81.5v-130c0 -58.667 -16.333 -105 -49 -139s-79.667 -51 -141 -51h-10v70h10c37.333 0 65.833 10.5 85.5 31.5s29.5 50.5 29.5 88.5v130
c0 34.667 7.33301 64.334 22 89.001s36 43.334 64 56.001c-28 12.667 -49.333 31.334 -64 56.001s-22 54.334 -22 89.001v130c0 38 -9.83301 67.5 -29.5 88.5s-48.167 31.5 -85.5 31.5h-10v70h10c61.333 0 108.333 -17 141 -51s49 -80.333 49 -139v-130z" />
    <glyph glyph-name="asciitilde" unicode="~" 
d="M30 289c0 41.333 11.5 74.833 34.5 100.5s54.5 38.5 94.5 38.5c28 0 51.5 -5.16699 70.5 -15.5s40.5 -25.166 64.5 -44.499c17.333 -14.667 32 -25.5 44 -32.5s25.333 -10.5 40 -10.5c18 0 32.5 6.83301 43.5 20.5s16.5 30.834 16.5 51.501v31h72v-36
c0 -41.333 -11.5 -74.833 -34.5 -100.5s-54.5 -38.5 -94.5 -38.5c-28 0 -51.5 5.16699 -70.5 15.5s-40.5 25.166 -64.5 44.499c-17.333 14.667 -32 25.5 -44 32.5s-25.333 10.5 -40 10.5c-18 0 -32.5 -6.83301 -43.5 -20.5s-16.5 -30.834 -16.5 -51.501v-31h-72v36z" />
    <glyph glyph-name="uni00A0" unicode="&#xa0;" horiz-adv-x="280" 
 />
    <glyph glyph-name="exclamdown" unicode="&#xa1;" horiz-adv-x="293" 
d="M191 393h-89v97h89v-97zM189 -200h-85l5 505h75z" />
    <glyph glyph-name="cent" unicode="&#xa2;" horiz-adv-x="556" 
d="M382 85c28 16.667 49.335 40 64.002 70h80c-15.333 -46 -41 -83.167 -77 -111.5s-77.333 -45.5 -124 -51.5v-97h-75v98c-39.333 6.66699 -75 21.667 -107 45s-57.167 53 -75.5 89s-27.5 75.333 -27.5 118s9.16699 82 27.5 118s43.5 65.667 75.5 89s67.667 38.333 107 45
v98h75v-97c46.667 -6 88 -23.167 124 -51.5s61.667 -65.5 77 -111.5h-80c-14.667 30 -36 53.333 -64 70s-58.333 25 -91 25c-31.333 0 -60.333 -8.16699 -87 -24.5s-47.667 -38.5 -63 -66.5s-23 -59.333 -23 -94s7.66699 -66 23 -94s36.166 -50.167 62.499 -66.5
s55.166 -24.5 86.499 -24.5c33.333 0 64 8.33301 92 25z" />
    <glyph glyph-name="sterling" unicode="&#xa3;" horiz-adv-x="538" 
d="M498 80v-80.001h-458v56c34 13.333 62.833 34 86.5 62s35.5 60 35.5 96c0 18.667 -2.66699 37 -8 55h-114v75h79c-17.333 30.667 -30.333 57.334 -39 80.001s-13 49.667 -13 81c0 42 9.83301 78.5 29.5 109.5s45.667 54.667 78 71s67.5 24.5 105.5 24.5
c40 0 75.833 -7.83301 107.5 -23.5s56.5 -38.334 74.5 -68.001s27 -64.167 27 -103.5h-80c0 38 -12.167 67.5 -36.5 88.5s-56.166 31.5 -95.499 31.5c-34 0 -63.667 -10.333 -89 -31s-38 -53.667 -38 -99c0 -27.333 3.66699 -50.666 11 -69.999s18.666 -42.333 33.999 -69
l12 -22h237v-75h-209c3.33301 -16.667 5 -32.667 5 -48c0 -57.333 -18.333 -104.333 -55 -141h313z" />
    <glyph glyph-name="currency" unicode="&#xa4;" horiz-adv-x="496" 
d="M396 262l60 -59l-48 -48l-59 58c-30 -21.333 -63.667 -32 -101 -32s-71 10.667 -101 32l-59 -58l-48 48l60 59c-16.667 27.333 -25 57 -25 89s8.33301 61.667 25 89l-60 59l48 48l59 -58c30 21.333 63.667 32 101 32s71 -10.667 101 -32l59 58l48 -48l-60 -59
c16.667 -27.333 25 -57 25 -89s-8.33301 -61.667 -25 -89zM324 272.5c20.667 21 31 47.167 31 78.5s-10.333 57.5 -31 78.5s-46 31.5 -76 31.5s-55.333 -10.5 -76 -31.5s-31 -47.167 -31 -78.5s10.333 -57.5 31 -78.5s46 -31.5 76 -31.5s55.333 10.5 76 31.5z" />
    <glyph glyph-name="yen" unicode="&#xa5;" horiz-adv-x="560" 
d="M456 700h89l-185 -325h118v-75h-158v-85h158v-75h-158v-140h-80v140h-158v75h158v85h-158v75h118l-185 325h91l175 -316z" />
    <glyph glyph-name="brokenbar" unicode="&#xa6;" horiz-adv-x="315" 
d="M195 350h-75v380h75v-380zM195 -200h-75v380h75v-380z" />
    <glyph glyph-name="section" unicode="&#xa7;" horiz-adv-x="640" 
d="M545 177c-10 -21.333 -24 -41.0059 -42 -59.0059c28 -28 42 -64 42 -108c0 -33.333 -8.83301 -63.666 -26.5 -90.999s-43 -49 -76 -65s-72.167 -24 -117.5 -24c-46 0 -86.833 8.66699 -122.5 26s-63.334 41.666 -83.001 72.999s-29.5 66.666 -29.5 105.999h80
c2.66699 -38 18 -69.167 46 -93.5s64.333 -36.5 109 -36.5c42.667 0 76.667 9.33301 102 28s38 44.334 38 77.001c0 20.667 -7 39.334 -21 56.001s-35.333 28.667 -64 36l-130 33c-60 15.333 -103.333 36.333 -130 63s-40 62.334 -40 107.001c0 21.333 5.33301 43.333 16 66
s25.667 42.667 45 60c-24 26.667 -36 61.334 -36 104.001c0 31.333 8.83301 60.5 26.5 87.5s42.5 48.333 74.5 64s68.333 23.5 109 23.5c44.667 0 84.334 -8.66699 119.001 -26s61.834 -41.666 81.501 -72.999s29.5 -66.666 29.5 -105.999h-80
c0 38 -13.833 69.167 -41.5 93.5s-63.834 36.5 -108.501 36.5c-37.333 0 -68.333 -9.66699 -93 -29s-37 -43 -37 -71c0 -21.333 7 -40.666 21 -57.999s35.333 -29.666 64 -36.999l120 -30c60 -14.667 103.333 -35.334 130 -62.001s40 -62.667 40 -108
c0 -20.667 -5 -41.667 -15 -63zM396 172.994c22.667 -6 39.334 -11.667 50.001 -17c22.667 23.333 34 51.333 34 84c0 24.667 -7.5 44.834 -22.5 60.501s-37.5 27.167 -67.5 34.5l-136 34c-22.667 6 -42.334 13 -59.001 21c-23.333 -24.667 -35 -53 -35 -85
c0 -24.667 7.5 -44.834 22.5 -60.501s37.5 -27.167 67.5 -34.5z" />
    <glyph glyph-name="dieresis" unicode="&#xa8;" horiz-adv-x="332" 
d="M117 584h-87v92h87v-92zM302 584h-87v92h87v-92z" />
    <glyph glyph-name="copyright" unicode="&#xa9;" horiz-adv-x="830" 
d="M234 38c-55.333 32 -99 75.667 -131 131s-48 115.666 -48 180.999s16 125.666 48 180.999s75.667 99 131 131s115.666 48 180.999 48s125.666 -16 180.999 -48s99 -75.667 131 -131s48 -115.666 48 -180.999s-16 -125.666 -48 -180.999s-75.667 -99 -131 -131
s-115.666 -48 -180.999 -48s-125.666 16 -180.999 48zM560.5 94.5c44.333 26.333 79.5 62 105.5 107s39 94.5 39 148.5s-13 103.5 -39 148.5s-61.167 80.667 -105.5 107s-92.833 39.5 -145.5 39.5s-101.167 -13.167 -145.5 -39.5s-79.5 -62 -105.5 -107
s-39 -94.5 -39 -148.5s13 -103.5 39 -148.5s61.167 -80.667 105.5 -107s92.833 -39.5 145.5 -39.5s101.167 13.167 145.5 39.5zM321.5 184.5c-29 16.333 -52 39 -69 68s-25.5 61.5 -25.5 97.5s8.5 68.5 25.5 97.5s40 51.667 69 68s60.833 24.5 95.5 24.5
c40.667 0 77 -11 109 -33s54 -52.667 66 -92h-75c-20 40 -53.333 60 -100 60c-34.667 0 -63.334 -12 -86.001 -36s-34 -53.667 -34 -89s11.333 -65 34 -89s51.334 -36 86.001 -36c46.667 0 80 20 100 60h75c-12 -39.333 -34 -70 -66 -92s-68.333 -33 -109 -33
c-34.667 0 -66.5 8.16699 -95.5 24.5z" />
    <glyph glyph-name="ordfeminine" unicode="&#xaa;" horiz-adv-x="410" 
d="M290 705l65 -0.00195312v-310h-65v40c-10.667 -13.333 -24.667 -24.166 -42 -32.499s-36.666 -12.5 -57.999 -12.5c-29.333 0 -56.333 7 -81 21s-44 33.333 -58 58s-21 51.667 -21 81s7 56.333 21 81s33.333 44 58 58s51.667 21 81 21
c21.333 0 40.666 -4.16699 57.999 -12.5s31.333 -19.166 42 -32.499v40zM265.5 479.498c19.667 19.667 29.5 43.167 29.5 70.5s-9.83301 50.833 -29.5 70.5s-43.167 29.5 -70.5 29.5s-50.833 -9.83301 -70.5 -29.5s-29.5 -43.167 -29.5 -70.5s9.83301 -50.833 29.5 -70.5
s43.167 -29.5 70.5 -29.5s50.833 9.83301 70.5 29.5z" />
    <glyph glyph-name="guillemotleft" unicode="&#xab;" horiz-adv-x="500" 
d="M255 75h-85l-145 180l145 180h85l-145 -180zM450 75h-85l-145 180l145 180h85l-145 -180z" />
    <glyph glyph-name="logicalnot" unicode="&#xac;" 
d="M510 223h-72v143h-408v72h480v-215z" />
    <glyph glyph-name="uni00AD" unicode="&#xad;" horiz-adv-x="360" 
d="M310 219h-260v72h260v-72z" />
    <glyph glyph-name="registered" unicode="&#xae;" horiz-adv-x="388" 
d="M282 687c26.667 -15.333 47.667 -36.333 63 -63s23 -56 23 -88s-7.66699 -61.333 -23 -88s-36.333 -47.667 -63 -63s-56 -23 -88 -23s-61.333 7.66699 -88 23s-47.667 36.333 -63 63s-23 56 -23 88s7.66699 61.333 23 88s36.333 47.667 63 63s56 23 88 23
s61.333 -7.66699 88 -23zM285 443c23.333 24 35 55 35 93s-11.667 69 -35 93s-53.666 36 -90.999 36s-67.666 -12 -90.999 -36s-35 -55 -35 -93s11.667 -69 35 -93s53.666 -36 90.999 -36s67.666 12 90.999 36zM255.5 537.5
c-6.33301 -9.66699 -15.167 -16.499 -26.5 -20.499l49 -67h-48l-44 63h-14v-63h-41v180h74c18 0 32.5 -5.33301 43.5 -16s16.5 -25 16.5 -43c0 -12.667 -3.16699 -23.834 -9.5 -33.501zM171.999 594.001v-45h21c11.333 0 19.666 1.66699 24.999 5s8 9 8 17
s-2.66699 13.833 -8 17.5s-13.666 5.5 -24.999 5.5h-21z" />
    <glyph glyph-name="macron" unicode="&#xaf;" horiz-adv-x="344" 
d="M314 594h-284v66h284v-66z" />
    <glyph glyph-name="degree" unicode="&#xb0;" horiz-adv-x="318" 
d="M70 524.5c-23.333 23 -35 51.5 -35 85.5s11.667 62.5 35 85.5s53 34.5 89 34.5s65.667 -11.5 89 -34.5s35 -51.5 35 -85.5s-11.667 -62.5 -35 -85.5s-53 -34.5 -89 -34.5s-65.667 11.5 -89 34.5zM208 561.5c13.333 13 20 29.167 20 48.5s-6.66699 35.5 -20 48.5
s-29.666 19.5 -48.999 19.5s-35.666 -6.5 -48.999 -19.5s-20 -29.167 -20 -48.5s6.66699 -35.5 20 -48.5s29.666 -19.5 48.999 -19.5s35.666 6.5 48.999 19.5z" />
    <glyph glyph-name="plusminus" unicode="&#xb1;" 
d="M306 677v-204h204v-72h-204v-204h-72v204h-204v72h204v204h72zM510 53h-480v72h480v-72z" />
    <glyph glyph-name="uni00B2" unicode="&#xb2;" horiz-adv-x="311" 
d="M136 546l150 -0.00195312v-58h-249v42l135 139c14.667 14.667 24.834 27.334 30.501 38.001s8.5 22 8.5 34c0 13.333 -5 24.333 -15 33s-22.333 13 -37 13c-18 0 -32.167 -5.16699 -42.5 -15.5s-15.833 -24.166 -16.5 -41.499h-65c0.666992 38 12.667 66.667 36 86
s52.666 29 87.999 29c34 0 62.333 -9.16699 85 -27.5s34 -42.833 34 -73.5c0 -20 -4.5 -38 -13.5 -54s-23.5 -34.667 -43.5 -56z" />
    <glyph glyph-name="uni00B3" unicode="&#xb3;" horiz-adv-x="322" 
d="M271 638.5c10.667 -15 15.998 -32.167 15.998 -51.5c0 -30.667 -11.167 -55.667 -33.5 -75s-53.166 -29 -92.499 -29c-38.667 0 -70 10.333 -94 31s-36.333 49.334 -37 86.001h68c0.666992 -17.333 6.5 -31.5 17.5 -42.5s26.167 -16.5 45.5 -16.5
c18 0 32.333 4.83301 43 14.5s16 22.167 16 37.5c0 16 -5.66699 28.5 -17 37.5s-26.333 13.5 -45 13.5h-30v49h28c16 0 29.167 4.66699 39.5 14s15.5 21.666 15.5 36.999c0 12.667 -5 23.167 -15 31.5s-22.667 12.5 -38 12.5c-17.333 0 -30.833 -5.16699 -40.5 -15.5
s-14.834 -22.833 -15.501 -37.5h-65c0.666992 34.667 12.834 61.667 36.501 81s52.167 29 85.5 29c34 0 62.167 -9 84.5 -27s33.5 -41.333 33.5 -70c0 -18 -4.5 -33.5 -13.5 -46.5s-21.167 -22.833 -36.5 -29.5c18.667 -7.33301 33.334 -18.5 44.001 -33.5z" />
    <glyph glyph-name="acute" unicode="&#xb4;" horiz-adv-x="233" 
d="M103 560h-73l90 140h83z" />
    <glyph glyph-name="uni00B5" unicode="&#xb5;" horiz-adv-x="580" 
d="M430 490l74.998 0.000976562v-490h-75v65c-19.333 -24.667 -42.166 -43.334 -68.499 -56.001s-53.833 -19 -82.5 -19c-27.333 0 -52.166 4.33301 -74.499 13s-40.5 21 -54.5 37v-240h-75v690h75v-285c0 -43.333 12 -78.333 36 -105s57 -40 99 -40
c26.667 0 51 6.16699 73 18.5s39.5 29.5 52.5 51.5s19.5 47 19.5 75v285z" />
    <glyph glyph-name="paragraph" unicode="&#xb6;" horiz-adv-x="562" 
d="M272 -80v400h-37c-35.333 0 -67.833 8.33301 -97.5 25s-53.334 39.5 -71.001 68.5s-26.5 61.167 -26.5 96.5s8.83301 67.5 26.5 96.5s41.334 51.833 71.001 68.5s62.167 25 97.5 25h102v-780h-65zM477 -80h-65v780h65v-780z" />
    <glyph glyph-name="periodcentered" unicode="&#xb7;" horiz-adv-x="280" 
d="M184 206h-89v97h89v-97z" />
    <glyph glyph-name="cedilla" unicode="&#xb8;" horiz-adv-x="210" 
d="M103 -39c25.333 -2.66699 44.5 -11.332 57.5 -25.999s19.5 -31.334 19.5 -50.001c0 -28 -9 -49.167 -27 -63.5s-40.667 -21.5 -68 -21.5h-55v50h45c14.667 0 25.834 3.16699 33.501 9.5s11.5 14.833 11.5 25.5s-3.83301 19.167 -11.5 25.5s-18.834 9.5 -33.501 9.5h-32
v35l34 76l46 -22v-5z" />
    <glyph glyph-name="uni00B9" unicode="&#xb9;" horiz-adv-x="245" 
d="M30 799l89 41h61v-352h-63v288l-87 -37v60z" />
    <glyph glyph-name="ordmasculine" unicode="&#xba;" horiz-adv-x="380" 
d="M109 411c-24.667 14 -44 33.333 -58 58s-21 51.667 -21 81s7 56.333 21 81s33.333 44 58 58s51.667 21 81 21s56.333 -7 81 -21s44 -33.333 58 -58s21 -51.667 21 -81s-7 -56.333 -21 -81s-33.333 -44 -58 -58s-51.667 -21 -81 -21s-56.333 7 -81 21zM258 479
c18 19.333 27 43 27 71s-9 51.667 -27 71s-40.667 29 -68 29s-50 -9.66699 -68 -29s-27 -43 -27 -71s9 -51.667 27 -71s40.667 -29 68 -29s50 9.66699 68 29z" />
    <glyph glyph-name="guillemotright" unicode="&#xbb;" horiz-adv-x="500" 
d="M135 75h-85l145 180l-145 180h85l145 -180zM330 75h-85l145 180l-145 180h85l145 -180z" />
    <glyph glyph-name="onequarter" unicode="&#xbc;" horiz-adv-x="658" 
d="M30 659l89 41h61v-352h-63v288l-87 -37v60zM118 0h-83l480 700h83zM587 128h51v-53h-51v-75h-62v75h-167v44l169 233h60v-224zM525 265l-98 -137h98v137z" />
    <glyph glyph-name="onehalf" unicode="&#xbd;" horiz-adv-x="699" 
d="M30 659l89 41h61v-352h-63v288l-87 -37v60zM118 0h-83l480 700h83zM524 58l150 -0.00195312v-58h-249v42l135 139c14.667 14.667 24.834 27.334 30.501 38.001s8.5 22 8.5 34c0 13.333 -5 24.333 -15 33s-22.333 13 -37 13c-18 0 -32.167 -5.16699 -42.5 -15.5
s-15.833 -24.166 -16.5 -41.499h-65c0.666992 38 12.667 66.667 36 86s52.666 29 87.999 29c34 0 62.333 -9.16699 85 -27.5s34 -42.833 34 -73.5c0 -20 -4.5 -38 -13.5 -54s-23.5 -34.667 -43.5 -56z" />
    <glyph glyph-name="threequarters" unicode="&#xbe;" horiz-adv-x="735" 
d="M271 498.5c10.667 -15 15.998 -32.167 15.998 -51.5c0 -30.667 -11.167 -55.667 -33.5 -75s-53.166 -29 -92.499 -29c-38.667 0 -70 10.333 -94 31s-36.333 49.334 -37 86.001h68c0.666992 -17.333 6.5 -31.5 17.5 -42.5s26.167 -16.5 45.5 -16.5
c18 0 32.333 4.83301 43 14.5s16 22.167 16 37.5c0 16 -5.66699 28.5 -17 37.5s-26.333 13.5 -45 13.5h-30v49h28c16 0 29.167 4.66699 39.5 14s15.5 21.666 15.5 36.999c0 12.667 -5 23.167 -15 31.5s-22.667 12.5 -38 12.5c-17.333 0 -30.833 -5.16699 -40.5 -15.5
s-14.834 -22.833 -15.501 -37.5h-65c0.666992 34.667 12.834 61.667 36.501 81s52.167 29 85.5 29c34 0 62.167 -9 84.5 -27s33.5 -41.333 33.5 -70c0 -18 -4.5 -33.5 -13.5 -46.5s-21.167 -22.833 -36.5 -29.5c18.667 -7.33301 33.334 -18.5 44.001 -33.5zM194.998 0h-83
l480 700h83zM663.998 128h51v-53h-51v-75h-62v75h-167v44l169 233h60v-224zM601.998 265l-98 -137h98v137z" />
    <glyph glyph-name="questiondown" unicode="&#xbf;" horiz-adv-x="492" 
d="M309 393h-89v97h89v-97zM150.5 -185c-32.333 16.667 -58.001 39.835 -77.001 69.502s-28.5 63.167 -28.5 100.5c0 25.333 4.16699 47.5 12.5 66.5s18.833 35 31.5 48s29 27.5 49 43.5c19.333 16 34.833 29.833 46.5 41.5s21.334 25.834 29.001 42.501s11.5 36 11.5 58v20
h80v-25c0 -30.667 -4.66699 -56.667 -14 -78s-20.666 -38.833 -33.999 -52.5s-30.666 -28.834 -51.999 -45.501c-26.667 -21.333 -46.167 -40 -58.5 -56s-18.5 -37 -18.5 -63c0 -34.667 12.167 -63.334 36.5 -86.001s55.166 -34 92.499 -34c36.667 0 67.167 11.667 91.5 35
s37.166 51.666 38.499 84.999h80c-0.666992 -36 -10.5 -68.833 -29.5 -98.5s-44.333 -53.167 -76 -70.5s-66.5 -26 -104.5 -26c-38.667 0 -74.167 8.33301 -106.5 25z" />
    <glyph glyph-name="Agrave" unicode="&#xc0;" horiz-adv-x="670" 
d="M650 0h-86l-75 190h-310l-75 -190h-84l285 700h60zM459 265l-125 316l-125 -316h250zM377 765h-76l-100 140h86z" />
    <glyph glyph-name="Aacute" unicode="&#xc1;" horiz-adv-x="670" 
d="M650 0h-86l-75 190h-310l-75 -190h-84l285 700h60zM459 265l-125 316l-125 -316h250zM358 765h-73l90 140h83z" />
    <glyph glyph-name="Acircumflex" unicode="&#xc2;" horiz-adv-x="670" 
d="M650 0h-86l-75 190h-310l-75 -190h-84l285 700h60zM459 265l-125 316l-125 -316h250zM259 765h-81l124 135h65l124 -135h-80l-76 84z" />
    <glyph glyph-name="Atilde" unicode="&#xc3;" horiz-adv-x="670" 
d="M650 0h-86l-75 190h-310l-75 -190h-84l285 700h60zM459 265l-125 316l-125 -316h250zM182 795c0 28.667 7.33301 51.667 22 69s35 26 61 26c14 0 27.5 -3 40.5 -9s27.5 -14.333 43.5 -25c8.66699 -5.33301 17 -10.166 25 -14.499s15 -6.5 21 -6.5
c11.333 0 19.5 3.83301 24.5 11.5s7.5 19.167 7.5 34.5v9h60v-20c0 -28.667 -7.33301 -51.667 -22 -69s-35 -26 -61 -26c-14 0 -27.5 3 -40.5 9s-27.5 14.333 -43.5 25c-8.66699 5.33301 -17 10.166 -25 14.499s-15 6.5 -21 6.5c-11.333 0 -19.5 -3.83301 -24.5 -11.5
s-7.5 -19.167 -7.5 -34.5v-9h-60v20z" />
    <glyph glyph-name="Adieresis" unicode="&#xc4;" horiz-adv-x="670" 
d="M650 0h-86l-75 190h-310l-75 -190h-84l285 700h60zM459 265l-125 316l-125 -316h250zM286 789h-87v92h87v-92zM471 789h-87v92h87v-92z" />
    <glyph glyph-name="Aring" unicode="&#xc5;" horiz-adv-x="670" 
d="M650 0h-86l-75 190h-310l-75 -190h-84l285 700h60zM459 265l-125 316l-125 -316h250zM266 777c-18 18 -27 40 -27 66s9 48 27 66s41 27 69 27s51 -9 69 -27s27 -40 27 -66s-9 -48 -27 -66s-41 -27 -69 -27s-51 9 -69 27zM366 812c8 8 12 18.333 12 31s-4 23 -12 31
s-18.333 12 -31 12s-23 -4 -31 -12s-12 -18.333 -12 -31s4 -23 12 -31s18.333 -12 31 -12s23 4 31 12z" />
    <glyph glyph-name="AE" unicode="&#xc6;" horiz-adv-x="885" 
d="M520 325v-250h300v-75h-380v210h-261l-129 -210h-90l430 700h420v-75h-290v-225h280v-75h-280zM440 635l-215 -350h215v350z" />
    <glyph glyph-name="Ccedilla" unicode="&#xc7;" horiz-adv-x="776" 
d="M736 215c-26.667 -65.333 -66.001 -117.832 -118.001 -157.499s-113 -61.834 -183 -66.501l-14 -30c25.333 -2.66699 44.5 -11.334 57.5 -26.001s19.5 -31.334 19.5 -50.001c0 -28 -9 -49.167 -27 -63.5s-40.667 -21.5 -68 -21.5h-55v50h45
c14.667 0 25.834 3.16699 33.501 9.5s11.5 14.833 11.5 25.5s-3.83301 19.167 -11.5 25.5s-18.834 9.5 -33.501 9.5h-32v35l16 37c-60 5.33301 -114.5 24.5 -163.5 57.5s-87.667 75.833 -116 128.5s-42.5 110 -42.5 172c0 65.333 15.833 125.666 47.5 180.999
s74.834 99 129.501 131s114.334 48 179.001 48c74 0 139 -20.167 195 -60.5s98 -95.166 126 -164.499h-85c-23.333 46 -55.5 82.5 -96.5 109.5s-87.5 40.5 -139.5 40.5c-49.333 0 -95 -12.667 -137 -38s-75.167 -59.666 -99.5 -102.999s-36.5 -91.333 -36.5 -144
s12.167 -100.667 36.5 -144s57.5 -77.666 99.5 -102.999s87.667 -38 137 -38c54 0 101.667 13.5 143 40.5s73.666 63.5 96.999 109.5h85z" />
    <glyph glyph-name="Egrave" unicode="&#xc8;" 
d="M175 325v-250h300v-75h-380v700h370v-75h-290v-225h280v-75h-280zM325 765h-76l-100 140h86z" />
    <glyph glyph-name="Eacute" unicode="&#xc9;" 
d="M175 325v-250h300v-75h-380v700h370v-75h-290v-225h280v-75h-280zM306 765h-73l90 140h83z" />
    <glyph glyph-name="Ecircumflex" unicode="&#xca;" 
d="M175 325v-250h300v-75h-380v700h370v-75h-290v-225h280v-75h-280zM207 765h-81l124 135h65l124 -135h-80l-76 84z" />
    <glyph glyph-name="Edieresis" unicode="&#xcb;" 
d="M175 325v-250h300v-75h-380v700h370v-75h-290v-225h280v-75h-280zM234 789h-87v92h87v-92zM419 789h-87v92h87v-92z" />
    <glyph glyph-name="Igrave" unicode="&#xcc;" horiz-adv-x="280" 
d="M180 0h-80v700h80v-700zM182 765h-76l-100 140h86z" />
    <glyph glyph-name="Iacute" unicode="&#xcd;" horiz-adv-x="280" 
d="M180 0h-80v700h80v-700zM163 765h-73l90 140h83z" />
    <glyph glyph-name="Icircumflex" unicode="&#xce;" horiz-adv-x="280" 
d="M180 0h-80v700h80v-700zM64 765h-81l124 135h65l124 -135h-80l-76 84z" />
    <glyph glyph-name="Idieresis" unicode="&#xcf;" horiz-adv-x="280" 
d="M180 0h-80v700h80v-700zM91 789h-87v92h87v-92zM276 789h-87v92h87v-92z" />
    <glyph glyph-name="Eth" unicode="&#xd0;" horiz-adv-x="726" 
d="M285 700c78 0 146 -14.5 204 -43.5s102.833 -70 134.5 -123s47.5 -114.167 47.5 -183.5s-15.833 -130.5 -47.5 -183.5s-76.5 -94 -134.5 -123s-126 -43.5 -204 -43.5h-185v317h-90v70h90v313h185zM285 75c62 0 115.833 11.3291 161.5 33.9961s80.667 54.834 105 96.501
s36.5 89.834 36.5 144.501s-12.167 102.834 -36.5 144.501s-59.333 73.834 -105 96.501s-99.5 34 -161.5 34h-105v-238h215v-70h-215v-242h105z" />
    <glyph glyph-name="Ntilde" unicode="&#xd1;" horiz-adv-x="790" 
d="M617 148v552h78v-700h-50l-472 552v-552h-78v700h50zM242 795c0 28.667 7.33301 51.667 22 69s35 26 61 26c14 0 27.5 -3 40.5 -9s27.5 -14.333 43.5 -25c8.66699 -5.33301 17 -10.166 25 -14.499s15 -6.5 21 -6.5c11.333 0 19.5 3.83301 24.5 11.5s7.5 19.167 7.5 34.5
v9h60v-20c0 -28.667 -7.33301 -51.667 -22 -69s-35 -26 -61 -26c-14 0 -27.5 3 -40.5 9s-27.5 14.333 -43.5 25c-8.66699 5.33301 -17 10.166 -25 14.499s-15 6.5 -21 6.5c-11.333 0 -19.5 -3.83301 -24.5 -11.5s-7.5 -19.167 -7.5 -34.5v-9h-60v20z" />
    <glyph glyph-name="Ograve" unicode="&#xd2;" horiz-adv-x="832" 
d="M234 38c-55.333 32 -99 75.667 -131 131s-48 115.666 -48 180.999s16 125.666 48 180.999s75.667 99 131 131s116 48 182 48s126.667 -16 182 -48s99 -75.667 131 -131s48 -115.666 48 -180.999s-16 -125.666 -48 -180.999s-75.667 -99 -131 -131s-116 -48 -182 -48
s-126.667 16 -182 48zM555.5 103c42.333 25.333 76 59.666 101 102.999s37.5 91.333 37.5 144s-12.5 100.667 -37.5 144s-58.667 77.666 -101 102.999s-88.833 38 -139.5 38s-97.167 -12.667 -139.5 -38s-76 -59.666 -101 -102.999s-37.5 -91.333 -37.5 -144
s12.5 -100.667 37.5 -144s58.667 -77.666 101 -102.999s88.833 -38 139.5 -38s97.167 12.667 139.5 38zM458 765h-76l-100 140h86z" />
    <glyph glyph-name="Oacute" unicode="&#xd3;" horiz-adv-x="832" 
d="M234 38c-55.333 32 -99 75.667 -131 131s-48 115.666 -48 180.999s16 125.666 48 180.999s75.667 99 131 131s116 48 182 48s126.667 -16 182 -48s99 -75.667 131 -131s48 -115.666 48 -180.999s-16 -125.666 -48 -180.999s-75.667 -99 -131 -131s-116 -48 -182 -48
s-126.667 16 -182 48zM555.5 103c42.333 25.333 76 59.666 101 102.999s37.5 91.333 37.5 144s-12.5 100.667 -37.5 144s-58.667 77.666 -101 102.999s-88.833 38 -139.5 38s-97.167 -12.667 -139.5 -38s-76 -59.666 -101 -102.999s-37.5 -91.333 -37.5 -144
s12.5 -100.667 37.5 -144s58.667 -77.666 101 -102.999s88.833 -38 139.5 -38s97.167 12.667 139.5 38zM439 765h-73l90 140h83z" />
    <glyph glyph-name="Ocircumflex" unicode="&#xd4;" horiz-adv-x="832" 
d="M234 38c-55.333 32 -99 75.667 -131 131s-48 115.666 -48 180.999s16 125.666 48 180.999s75.667 99 131 131s116 48 182 48s126.667 -16 182 -48s99 -75.667 131 -131s48 -115.666 48 -180.999s-16 -125.666 -48 -180.999s-75.667 -99 -131 -131s-116 -48 -182 -48
s-126.667 16 -182 48zM555.5 103c42.333 25.333 76 59.666 101 102.999s37.5 91.333 37.5 144s-12.5 100.667 -37.5 144s-58.667 77.666 -101 102.999s-88.833 38 -139.5 38s-97.167 -12.667 -139.5 -38s-76 -59.666 -101 -102.999s-37.5 -91.333 -37.5 -144
s12.5 -100.667 37.5 -144s58.667 -77.666 101 -102.999s88.833 -38 139.5 -38s97.167 12.667 139.5 38zM340 765h-81l124 135h65l124 -135h-80l-76 84z" />
    <glyph glyph-name="Otilde" unicode="&#xd5;" horiz-adv-x="832" 
d="M234 38c-55.333 32 -99 75.667 -131 131s-48 115.666 -48 180.999s16 125.666 48 180.999s75.667 99 131 131s116 48 182 48s126.667 -16 182 -48s99 -75.667 131 -131s48 -115.666 48 -180.999s-16 -125.666 -48 -180.999s-75.667 -99 -131 -131s-116 -48 -182 -48
s-126.667 16 -182 48zM555.5 103c42.333 25.333 76 59.666 101 102.999s37.5 91.333 37.5 144s-12.5 100.667 -37.5 144s-58.667 77.666 -101 102.999s-88.833 38 -139.5 38s-97.167 -12.667 -139.5 -38s-76 -59.666 -101 -102.999s-37.5 -91.333 -37.5 -144
s12.5 -100.667 37.5 -144s58.667 -77.666 101 -102.999s88.833 -38 139.5 -38s97.167 12.667 139.5 38zM263 795c0 28.667 7.33301 51.667 22 69s35 26 61 26c14 0 27.5 -3 40.5 -9s27.5 -14.333 43.5 -25c8.66699 -5.33301 17 -10.166 25 -14.499s15 -6.5 21 -6.5
c11.333 0 19.5 3.83301 24.5 11.5s7.5 19.167 7.5 34.5v9h60v-20c0 -28.667 -7.33301 -51.667 -22 -69s-35 -26 -61 -26c-14 0 -27.5 3 -40.5 9s-27.5 14.333 -43.5 25c-8.66699 5.33301 -17 10.166 -25 14.499s-15 6.5 -21 6.5c-11.333 0 -19.5 -3.83301 -24.5 -11.5
s-7.5 -19.167 -7.5 -34.5v-9h-60v20z" />
    <glyph glyph-name="Odieresis" unicode="&#xd6;" horiz-adv-x="832" 
d="M234 38c-55.333 32 -99 75.667 -131 131s-48 115.666 -48 180.999s16 125.666 48 180.999s75.667 99 131 131s116 48 182 48s126.667 -16 182 -48s99 -75.667 131 -131s48 -115.666 48 -180.999s-16 -125.666 -48 -180.999s-75.667 -99 -131 -131s-116 -48 -182 -48
s-126.667 16 -182 48zM555.5 103c42.333 25.333 76 59.666 101 102.999s37.5 91.333 37.5 144s-12.5 100.667 -37.5 144s-58.667 77.666 -101 102.999s-88.833 38 -139.5 38s-97.167 -12.667 -139.5 -38s-76 -59.666 -101 -102.999s-37.5 -91.333 -37.5 -144
s12.5 -100.667 37.5 -144s58.667 -77.666 101 -102.999s88.833 -38 139.5 -38s97.167 12.667 139.5 38zM367 789h-87v92h87v-92zM552 789h-87v92h87v-92z" />
    <glyph glyph-name="multiply" unicode="&#xd7;" 
d="M435 554l48 -48l-165 -165l165 -165l-48 -48l-165 165l-165 -165l-48 48l165 165l-165 165l48 48l165 -165z" />
    <glyph glyph-name="Oslash" unicode="&#xd8;" horiz-adv-x="832" 
d="M664 613c35.333 -33.333 63 -72.666 83 -117.999s30 -93.666 30 -144.999c0 -65.333 -16 -125.666 -48 -180.999s-75.667 -99 -131 -131s-116 -48 -182 -48c-69.333 0 -133 18 -191 54l-42 -54h-90l75 97c-35.333 33.333 -63 72.666 -83 117.999s-30 93.666 -30 144.999
c0 65.333 16 125.666 48 180.999s75.667 99 131 131s116 48 182 48c69.333 0 133 -18 191 -54l42 54h90zM158.5 240.5c13.667 -34.333 33.167 -64.501 58.5 -90.501l343 445c-44.667 26.667 -92.667 40 -144 40c-50.667 0 -97.167 -12.667 -139.5 -38
s-76 -59.666 -101 -102.999s-37.5 -91.333 -37.5 -144c0 -38.667 6.83301 -75.167 20.5 -109.5zM555.5 102.999c42.333 25.333 76 59.667 101 103s37.5 91.333 37.5 144c0 38.667 -6.83301 75.167 -20.5 109.5s-33.167 64.5 -58.5 90.5l-343 -445
c44.667 -26.667 92.667 -40 144 -40c50.667 0 97.167 12.667 139.5 38z" />
    <glyph glyph-name="Ugrave" unicode="&#xd9;" horiz-adv-x="694" 
d="M209.5 23.5c-39.667 22.333 -70.332 53.833 -91.999 94.5s-32.5 87.334 -32.5 140.001v442h80v-442c0 -58 16.333 -104.667 49 -140s77 -53 133 -53s100.333 17.667 133 53s49 82 49 140v442h80v-442c0 -52.667 -10.833 -99.334 -32.5 -140.001
s-52.334 -72.167 -92.001 -94.5s-85.5 -33.5 -137.5 -33.5s-97.833 11.167 -137.5 33.5zM389.002 765h-76l-100 140h86z" />
    <glyph glyph-name="Uacute" unicode="&#xda;" horiz-adv-x="694" 
d="M209.5 23.5c-39.667 22.333 -70.332 53.833 -91.999 94.5s-32.5 87.334 -32.5 140.001v442h80v-442c0 -58 16.333 -104.667 49 -140s77 -53 133 -53s100.333 17.667 133 53s49 82 49 140v442h80v-442c0 -52.667 -10.833 -99.334 -32.5 -140.001
s-52.334 -72.167 -92.001 -94.5s-85.5 -33.5 -137.5 -33.5s-97.833 11.167 -137.5 33.5zM370.002 765h-73l90 140h83z" />
    <glyph glyph-name="Ucircumflex" unicode="&#xdb;" horiz-adv-x="694" 
d="M209.5 23.5c-39.667 22.333 -70.332 53.833 -91.999 94.5s-32.5 87.334 -32.5 140.001v442h80v-442c0 -58 16.333 -104.667 49 -140s77 -53 133 -53s100.333 17.667 133 53s49 82 49 140v442h80v-442c0 -52.667 -10.833 -99.334 -32.5 -140.001
s-52.334 -72.167 -92.001 -94.5s-85.5 -33.5 -137.5 -33.5s-97.833 11.167 -137.5 33.5zM271.002 765h-81l124 135h65l124 -135h-80l-76 84z" />
    <glyph glyph-name="Udieresis" unicode="&#xdc;" horiz-adv-x="694" 
d="M209.5 23.5c-39.667 22.333 -70.332 53.833 -91.999 94.5s-32.5 87.334 -32.5 140.001v442h80v-442c0 -58 16.333 -104.667 49 -140s77 -53 133 -53s100.333 17.667 133 53s49 82 49 140v442h80v-442c0 -52.667 -10.833 -99.334 -32.5 -140.001
s-52.334 -72.167 -92.001 -94.5s-85.5 -33.5 -137.5 -33.5s-97.833 11.167 -137.5 33.5zM298.002 789h-87v92h87v-92zM483.002 789h-87v92h87v-92z" />
    <glyph glyph-name="Yacute" unicode="&#xdd;" horiz-adv-x="560" 
d="M281 384l175 316h89l-225 -395v-305h-80v305l-225 395h91zM303 765h-73l90 140h83z" />
    <glyph glyph-name="Thorn" unicode="&#xde;" horiz-adv-x="677" 
d="M420 545c44.667 0 83.667 -8.33105 117 -24.998s59.166 -39.834 77.499 -69.501s27.5 -63.167 27.5 -100.5s-9.16699 -70.833 -27.5 -100.5s-44.166 -52.834 -77.499 -69.501s-72.333 -25 -117 -25h-245v-155h-80v700h80v-155h245zM420 230.002
c44 0 78.167 10.8311 102.5 32.498s36.5 50.834 36.5 87.501s-12.167 65.834 -36.5 87.501s-58.5 32.5 -102.5 32.5h-245v-240h245z" />
    <glyph glyph-name="germandbls" unicode="&#xdf;" horiz-adv-x="563" 
d="M485.5 309c21.667 -29.333 32.502 -65.6689 32.502 -109.002c0 -40 -9.16699 -75.167 -27.5 -105.5s-43.833 -53.666 -76.5 -69.999s-69.334 -24.5 -110.001 -24.5h-58v70h58c40 0 72.667 11.833 98 35.5s38 55.167 38 94.5s-12.667 70.833 -38 94.5s-58 35.5 -98 35.5
h-58v68h36c38 0 69 10.667 93 32s36 51 36 89c0 38.667 -11.833 68.5 -35.5 89.5s-53.167 31.5 -88.5 31.5c-41.333 0 -73.666 -13.333 -96.999 -40s-35 -61.667 -35 -105v-495h-75v495c0 41.333 8.66699 78.333 26 111s41.666 58.167 72.999 76.5s67.333 27.5 108 27.5
c37.333 0 71.166 -7.66699 101.499 -23s54.5 -37 72.5 -65s27 -60.667 27 -98c0 -36 -8.16699 -67.167 -24.5 -93.5s-37.833 -46.166 -64.5 -59.499c36 -12 64.833 -32.667 86.5 -62z" />
    <glyph glyph-name="agrave" unicode="&#xe0;" horiz-adv-x="621" 
d="M471 490h75v-490h-75v75c-20.667 -26 -46.667 -46.667 -78 -62s-65.333 -23 -102 -23c-44.667 0 -86.334 11.167 -125.001 33.5s-69.334 53 -92.001 92s-34 82.167 -34 129.5s11.333 90.5 34 129.5s53.334 69.667 92.001 92s80.334 33.5 125.001 33.5
c36.667 0 70.667 -7.66699 102 -23s57.333 -36 78 -62v75zM387 84.5c27.333 16.333 49 38.5 65 66.5s24 59.333 24 94s-8 66 -24 94s-37.667 50.167 -65 66.5s-57.333 24.5 -90 24.5s-62.667 -8.16699 -90 -24.5s-49 -38.5 -65 -66.5s-24 -59.333 -24 -94s8 -66 24 -94
s37.667 -50.167 65 -66.5s57.333 -24.5 90 -24.5s62.667 8.16699 90 24.5zM352 560h-76l-100 140h86z" />
    <glyph glyph-name="aacute" unicode="&#xe1;" horiz-adv-x="621" 
d="M471 490h75v-490h-75v75c-20.667 -26 -46.667 -46.667 -78 -62s-65.333 -23 -102 -23c-44.667 0 -86.334 11.167 -125.001 33.5s-69.334 53 -92.001 92s-34 82.167 -34 129.5s11.333 90.5 34 129.5s53.334 69.667 92.001 92s80.334 33.5 125.001 33.5
c36.667 0 70.667 -7.66699 102 -23s57.333 -36 78 -62v75zM387 84.5c27.333 16.333 49 38.5 65 66.5s24 59.333 24 94s-8 66 -24 94s-37.667 50.167 -65 66.5s-57.333 24.5 -90 24.5s-62.667 -8.16699 -90 -24.5s-49 -38.5 -65 -66.5s-24 -59.333 -24 -94s8 -66 24 -94
s37.667 -50.167 65 -66.5s57.333 -24.5 90 -24.5s62.667 8.16699 90 24.5zM334 560h-73l90 140h83z" />
    <glyph glyph-name="acircumflex" unicode="&#xe2;" horiz-adv-x="621" 
d="M471 490h75v-490h-75v75c-20.667 -26 -46.667 -46.667 -78 -62s-65.333 -23 -102 -23c-44.667 0 -86.334 11.167 -125.001 33.5s-69.334 53 -92.001 92s-34 82.167 -34 129.5s11.333 90.5 34 129.5s53.334 69.667 92.001 92s80.334 33.5 125.001 33.5
c36.667 0 70.667 -7.66699 102 -23s57.333 -36 78 -62v75zM387 84.5c27.333 16.333 49 38.5 65 66.5s24 59.333 24 94s-8 66 -24 94s-37.667 50.167 -65 66.5s-57.333 24.5 -90 24.5s-62.667 -8.16699 -90 -24.5s-49 -38.5 -65 -66.5s-24 -59.333 -24 -94s8 -66 24 -94
s37.667 -50.167 65 -66.5s57.333 -24.5 90 -24.5s62.667 8.16699 90 24.5zM235 560h-81l124 135h65l124 -135h-80l-76 84z" />
    <glyph glyph-name="atilde" unicode="&#xe3;" horiz-adv-x="621" 
d="M471 490h75v-490h-75v75c-20.667 -26 -46.667 -46.667 -78 -62s-65.333 -23 -102 -23c-44.667 0 -86.334 11.167 -125.001 33.5s-69.334 53 -92.001 92s-34 82.167 -34 129.5s11.333 90.5 34 129.5s53.334 69.667 92.001 92s80.334 33.5 125.001 33.5
c36.667 0 70.667 -7.66699 102 -23s57.333 -36 78 -62v75zM387 84.5c27.333 16.333 49 38.5 65 66.5s24 59.333 24 94s-8 66 -24 94s-37.667 50.167 -65 66.5s-57.333 24.5 -90 24.5s-62.667 -8.16699 -90 -24.5s-49 -38.5 -65 -66.5s-24 -59.333 -24 -94s8 -66 24 -94
s37.667 -50.167 65 -66.5s57.333 -24.5 90 -24.5s62.667 8.16699 90 24.5zM158 590c0 28.667 7.33301 51.667 22 69s35 26 61 26c14 0 27.5 -3 40.5 -9s27.5 -14.333 43.5 -25c8.66699 -5.33301 17 -10.166 25 -14.499s15 -6.5 21 -6.5c11.333 0 19.5 3.83301 24.5 11.5
s7.5 19.167 7.5 34.5v9h60v-20c0 -28.667 -7.33301 -51.667 -22 -69s-35 -26 -61 -26c-14 0 -27.5 3 -40.5 9s-27.5 14.333 -43.5 25c-8.66699 5.33301 -17 10.166 -25 14.499s-15 6.5 -21 6.5c-11.333 0 -19.5 -3.83301 -24.5 -11.5s-7.5 -19.167 -7.5 -34.5v-9h-60v20z
" />
    <glyph glyph-name="adieresis" unicode="&#xe4;" horiz-adv-x="621" 
d="M471 490h75v-490h-75v75c-20.667 -26 -46.667 -46.667 -78 -62s-65.333 -23 -102 -23c-44.667 0 -86.334 11.167 -125.001 33.5s-69.334 53 -92.001 92s-34 82.167 -34 129.5s11.333 90.5 34 129.5s53.334 69.667 92.001 92s80.334 33.5 125.001 33.5
c36.667 0 70.667 -7.66699 102 -23s57.333 -36 78 -62v75zM387 84.5c27.333 16.333 49 38.5 65 66.5s24 59.333 24 94s-8 66 -24 94s-37.667 50.167 -65 66.5s-57.333 24.5 -90 24.5s-62.667 -8.16699 -90 -24.5s-49 -38.5 -65 -66.5s-24 -59.333 -24 -94s8 -66 24 -94
s37.667 -50.167 65 -66.5s57.333 -24.5 90 -24.5s62.667 8.16699 90 24.5zM262 584h-87v92h87v-92zM447 584h-87v92h87v-92z" />
    <glyph glyph-name="aring" unicode="&#xe5;" horiz-adv-x="621" 
d="M471 490h75v-490h-75v75c-20.667 -26 -46.667 -46.667 -78 -62s-65.333 -23 -102 -23c-44.667 0 -86.334 11.167 -125.001 33.5s-69.334 53 -92.001 92s-34 82.167 -34 129.5s11.333 90.5 34 129.5s53.334 69.667 92.001 92s80.334 33.5 125.001 33.5
c36.667 0 70.667 -7.66699 102 -23s57.333 -36 78 -62v75zM387 84.5c27.333 16.333 49 38.5 65 66.5s24 59.333 24 94s-8 66 -24 94s-37.667 50.167 -65 66.5s-57.333 24.5 -90 24.5s-62.667 -8.16699 -90 -24.5s-49 -38.5 -65 -66.5s-24 -59.333 -24 -94s8 -66 24 -94
s37.667 -50.167 65 -66.5s57.333 -24.5 90 -24.5s62.667 8.16699 90 24.5zM242 572c-18 18 -27 40 -27 66s9 48 27 66s41 27 69 27s51 -9 69 -27s27 -40 27 -66s-9 -48 -27 -66s-41 -27 -69 -27s-51 9 -69 27zM342 607c8 8 12 18.333 12 31s-4 23 -12 31s-18.333 12 -31 12
s-23 -4 -31 -12s-12 -18.333 -12 -31s4 -23 12 -31s18.333 -12 31 -12s23 4 31 12z" />
    <glyph glyph-name="ae" unicode="&#xe6;" horiz-adv-x="923" 
d="M769.5 469c36.333 -20.667 65.1641 -49.334 86.4971 -86.001s32 -78.667 32 -126c0 -16 -0.666992 -28.333 -2 -37h-397c4.66699 -48.667 21.5 -87.5 50.5 -116.5s65.833 -43.5 110.5 -43.5c32.667 0 61.334 7.33301 86.001 22s44.667 35.667 60 63h80
c-20 -50 -49.5 -88.333 -88.5 -115s-84.833 -40 -137.5 -40c-40.667 0 -78.667 9.33301 -114 28s-64 46 -86 82c-19.333 -32 -47 -58.333 -83 -79s-76.667 -31 -122 -31c-36.667 0 -69.334 6.33301 -98.001 19s-51.167 30.334 -67.5 53.001s-24.5 48.667 -24.5 78
c0 46.667 16.833 83 50.5 109s78.5 39 134.5 39h170v32c0 31.333 -12.167 57.5 -36.5 78.5s-57.166 31.5 -98.499 31.5c-35.333 0 -63.833 -7 -85.5 -21s-36.5 -32 -44.5 -54h-75c8.66699 43.333 31.334 78.333 68.001 105s82.334 40 137.001 40
c43.333 0 80.333 -8.83301 111 -26.5s54.667 -42.167 72 -73.5c23.333 33.333 51.833 58.333 85.5 75s69.5 25 107.5 25c42.667 0 82.167 -10.333 118.5 -31zM545.498 392c-28.333 -25.333 -46.167 -60 -53.5 -104h317c-4.66699 42 -22 76.167 -52 102.5
s-65.333 39.5 -106 39.5c-42 0 -77.167 -12.667 -105.5 -38zM330.997 79c25.333 12.667 44.833 29.333 58.5 50s20.5 42.667 20.5 66v25h-170c-71.333 0 -107 -26.667 -107 -80c0 -23.333 9.66699 -42.5 29 -57.5s47 -22.5 83 -22.5c32 0 60.667 6.33301 86 19z" />
    <glyph glyph-name="ccedilla" unicode="&#xe7;" horiz-adv-x="556" 
d="M382 85c28 16.667 49.333 40.0029 64 70.0029h80c-15.333 -47.333 -42.166 -85.333 -80.499 -114s-81.833 -45.334 -130.5 -50.001l-14 -30c25.333 -2.66699 44.5 -11.334 57.5 -26.001s19.5 -31.334 19.5 -50.001c0 -28 -9 -49.167 -27 -63.5s-40.667 -21.5 -68 -21.5
h-55v50h45c14.667 0 25.834 3.16699 33.501 9.5s11.5 14.833 11.5 25.5s-3.83301 19.167 -11.5 25.5s-18.834 9.5 -33.501 9.5h-32v35l17 37c-40.667 5.33301 -77.667 19.666 -111 42.999s-59.5 53.333 -78.5 90s-28.5 76.667 -28.5 120c0 47.333 11.333 90.5 34 129.5
s53.167 69.667 91.5 92s80.166 33.5 125.499 33.5c53.333 0 101.5 -14.667 144.5 -44s73.167 -69.666 90.5 -120.999h-80c-14.667 30 -36 53.333 -64 70s-58.333 25 -91 25c-31.333 0 -60.333 -8.16699 -87 -24.5s-47.667 -38.5 -63 -66.5s-23 -59.333 -23 -94
s7.66699 -66 23 -94s36.333 -50.167 63 -66.5s55.667 -24.5 87 -24.5c32.667 0 63 8.33301 91 25z" />
    <glyph glyph-name="egrave" unicode="&#xe8;" horiz-adv-x="563" 
d="M408.5 469.5c37 -20.333 66.166 -49 87.499 -86s32 -79.167 32 -126.5c0 -16 -0.666992 -28.333 -2 -37h-407c4.66699 -48.667 21.834 -87.5 51.501 -116.5s68.167 -43.5 115.5 -43.5c69.333 0 119.333 28.333 150 85h80c-20 -50 -49.667 -88.333 -89 -115
s-86.333 -40 -141 -40c-46 0 -87.833 11.167 -125.5 33.5s-67.167 52.833 -88.5 91.5s-32 82 -32 130s10.667 91.333 32 130s50.833 69.167 88.5 91.5s79.5 33.5 125.5 33.5c44.667 0 85.5 -10.167 122.5 -30.5zM176.499 392c-29 -25.333 -47.168 -60 -54.501 -104h327
c-4.66699 42.667 -22.167 77 -52.5 103s-67.166 39 -110.499 39c-44 0 -80.5 -12.667 -109.5 -38zM325.998 560h-76l-100 140h86z" />
    <glyph glyph-name="eacute" unicode="&#xe9;" horiz-adv-x="563" 
d="M408.5 469.5c37 -20.333 66.166 -49 87.499 -86s32 -79.167 32 -126.5c0 -16 -0.666992 -28.333 -2 -37h-407c4.66699 -48.667 21.834 -87.5 51.501 -116.5s68.167 -43.5 115.5 -43.5c69.333 0 119.333 28.333 150 85h80c-20 -50 -49.667 -88.333 -89 -115
s-86.333 -40 -141 -40c-46 0 -87.833 11.167 -125.5 33.5s-67.167 52.833 -88.5 91.5s-32 82 -32 130s10.667 91.333 32 130s50.833 69.167 88.5 91.5s79.5 33.5 125.5 33.5c44.667 0 85.5 -10.167 122.5 -30.5zM176.499 392c-29 -25.333 -47.168 -60 -54.501 -104h327
c-4.66699 42.667 -22.167 77 -52.5 103s-67.166 39 -110.499 39c-44 0 -80.5 -12.667 -109.5 -38zM307.998 560h-73l90 140h83z" />
    <glyph glyph-name="ecircumflex" unicode="&#xea;" horiz-adv-x="563" 
d="M408.5 469.5c37 -20.333 66.166 -49 87.499 -86s32 -79.167 32 -126.5c0 -16 -0.666992 -28.333 -2 -37h-407c4.66699 -48.667 21.834 -87.5 51.501 -116.5s68.167 -43.5 115.5 -43.5c69.333 0 119.333 28.333 150 85h80c-20 -50 -49.667 -88.333 -89 -115
s-86.333 -40 -141 -40c-46 0 -87.833 11.167 -125.5 33.5s-67.167 52.833 -88.5 91.5s-32 82 -32 130s10.667 91.333 32 130s50.833 69.167 88.5 91.5s79.5 33.5 125.5 33.5c44.667 0 85.5 -10.167 122.5 -30.5zM176.499 392c-29 -25.333 -47.168 -60 -54.501 -104h327
c-4.66699 42.667 -22.167 77 -52.5 103s-67.166 39 -110.499 39c-44 0 -80.5 -12.667 -109.5 -38zM208.998 560h-81l124 135h65l124 -135h-80l-76 84z" />
    <glyph glyph-name="edieresis" unicode="&#xeb;" horiz-adv-x="563" 
d="M408.5 469.5c37 -20.333 66.166 -49 87.499 -86s32 -79.167 32 -126.5c0 -16 -0.666992 -28.333 -2 -37h-407c4.66699 -48.667 21.834 -87.5 51.501 -116.5s68.167 -43.5 115.5 -43.5c69.333 0 119.333 28.333 150 85h80c-20 -50 -49.667 -88.333 -89 -115
s-86.333 -40 -141 -40c-46 0 -87.833 11.167 -125.5 33.5s-67.167 52.833 -88.5 91.5s-32 82 -32 130s10.667 91.333 32 130s50.833 69.167 88.5 91.5s79.5 33.5 125.5 33.5c44.667 0 85.5 -10.167 122.5 -30.5zM176.499 392c-29 -25.333 -47.168 -60 -54.501 -104h327
c-4.66699 42.667 -22.167 77 -52.5 103s-67.166 39 -110.499 39c-44 0 -80.5 -12.667 -109.5 -38zM235.998 584h-87v92h87v-92zM420.998 584h-87v92h87v-92z" />
    <glyph glyph-name="igrave" unicode="&#xec;" horiz-adv-x="225" 
d="M150 0h-75v490h75v-490zM154 560h-76l-100 140h86z" />
    <glyph glyph-name="iacute" unicode="&#xed;" horiz-adv-x="225" 
d="M150 0h-75v490h75v-490zM136 560h-73l90 140h83z" />
    <glyph glyph-name="icircumflex" unicode="&#xee;" horiz-adv-x="225" 
d="M150 0h-75v490h75v-490zM37 560h-81l124 135h65l124 -135h-80l-76 84z" />
    <glyph glyph-name="idieresis" unicode="&#xef;" horiz-adv-x="225" 
d="M150 0h-75v490h75v-490zM89 584h-87v92h87v-92zM224 584h-87v92h87v-92z" />
    <glyph glyph-name="eth" unicode="&#xf0;" horiz-adv-x="545" 
d="M366 595c46.667 -48.667 81.502 -102.666 104.502 -161.999s34.5 -122 34.5 -188c0 -52 -10.333 -97.167 -31 -135.5s-48.834 -67.833 -84.501 -88.5s-75.5 -31 -119.5 -31c-42.667 0 -82 10.167 -118 30.5s-64.5 48 -85.5 83s-31.5 73.833 -31.5 116.5
s10.5 81.5 31.5 116.5s49.5 62.667 85.5 83s75.333 30.5 118 30.5c26.667 0 52 -4.33301 76 -13s45 -20.667 63 -36c-8 25.333 -21.333 52 -40 80s-41.334 54.667 -68.001 80l-131 -66l-35 60l109 55c-31.333 23.333 -66 43.333 -104 60l60 45
c40 -20.667 77 -44.334 111 -71.001l109 56l35 -60zM351.002 81.001c24.667 14 44 33.333 58 58s21 51.667 21 81s-7 56.333 -21 81s-33.333 44 -58 58s-51.667 21 -81 21s-56.333 -7 -81 -21s-44 -33.333 -58 -58s-21 -51.667 -21 -81s7 -56.333 21 -81s33.333 -44 58 -58
s51.667 -21 81 -21s56.333 7 81 21z" />
    <glyph glyph-name="ntilde" unicode="&#xf1;" horiz-adv-x="575" 
d="M409.5 471.5c30.333 -19 53.834 -44.834 70.501 -77.501s25 -69 25 -109v-285h-75v285c0 43.333 -12 78.333 -36 105s-57 40 -99 40c-26.667 0 -51 -6.16699 -73 -18.5s-39.5 -29.5 -52.5 -51.5s-19.5 -47 -19.5 -75v-285h-75v490h75v-65
c20 24.667 43.167 43.334 69.5 56.001s54.833 19 85.5 19c39.333 0 74.166 -9.5 104.499 -28.5zM137.001 589.999c0 28.667 7.33301 51.667 22 69s35 26 61 26c14 0 27.5 -3 40.5 -9s27.5 -14.333 43.5 -25c8.66699 -5.33301 17 -10.166 25 -14.499s15 -6.5 21 -6.5
c11.333 0 19.5 3.83301 24.5 11.5s7.5 19.167 7.5 34.5v9h60v-20c0 -28.667 -7.33301 -51.667 -22 -69s-35 -26 -61 -26c-14 0 -27.5 3 -40.5 9s-27.5 14.333 -43.5 25c-8.66699 5.33301 -17 10.166 -25 14.499s-15 6.5 -21 6.5c-11.333 0 -19.5 -3.83301 -24.5 -11.5
s-7.5 -19.167 -7.5 -34.5v-9h-60v20z" />
    <glyph glyph-name="ograve" unicode="&#xf2;" horiz-adv-x="592" 
d="M167.5 23.5c-39 22.333 -70 53 -93 92s-34.5 82.167 -34.5 129.5s11.5 90.5 34.5 129.5s54 69.667 93 92s81.833 33.5 128.5 33.5s89.5 -11.167 128.5 -33.5s70 -53 93 -92s34.5 -82.167 34.5 -129.5s-11.5 -90.5 -34.5 -129.5s-54 -69.667 -93 -92
s-81.833 -33.5 -128.5 -33.5s-89.5 11.167 -128.5 33.5zM385.5 84.5c27 16.333 48.5 38.5 64.5 66.5s24 59.333 24 94s-8 66 -24 94s-37.5 50.167 -64.5 66.5s-56.833 24.5 -89.5 24.5s-62.5 -8.16699 -89.5 -24.5s-48.5 -38.5 -64.5 -66.5s-24 -59.333 -24 -94
s8 -66 24 -94s37.5 -50.167 64.5 -66.5s56.833 -24.5 89.5 -24.5s62.5 8.16699 89.5 24.5zM337 560h-76l-100 140h86z" />
    <glyph glyph-name="oacute" unicode="&#xf3;" horiz-adv-x="592" 
d="M167.5 23.5c-39 22.333 -70 53 -93 92s-34.5 82.167 -34.5 129.5s11.5 90.5 34.5 129.5s54 69.667 93 92s81.833 33.5 128.5 33.5s89.5 -11.167 128.5 -33.5s70 -53 93 -92s34.5 -82.167 34.5 -129.5s-11.5 -90.5 -34.5 -129.5s-54 -69.667 -93 -92
s-81.833 -33.5 -128.5 -33.5s-89.5 11.167 -128.5 33.5zM385.5 84.5c27 16.333 48.5 38.5 64.5 66.5s24 59.333 24 94s-8 66 -24 94s-37.5 50.167 -64.5 66.5s-56.833 24.5 -89.5 24.5s-62.5 -8.16699 -89.5 -24.5s-48.5 -38.5 -64.5 -66.5s-24 -59.333 -24 -94
s8 -66 24 -94s37.5 -50.167 64.5 -66.5s56.833 -24.5 89.5 -24.5s62.5 8.16699 89.5 24.5zM319 560h-73l90 140h83z" />
    <glyph glyph-name="ocircumflex" unicode="&#xf4;" horiz-adv-x="592" 
d="M167.5 23.5c-39 22.333 -70 53 -93 92s-34.5 82.167 -34.5 129.5s11.5 90.5 34.5 129.5s54 69.667 93 92s81.833 33.5 128.5 33.5s89.5 -11.167 128.5 -33.5s70 -53 93 -92s34.5 -82.167 34.5 -129.5s-11.5 -90.5 -34.5 -129.5s-54 -69.667 -93 -92
s-81.833 -33.5 -128.5 -33.5s-89.5 11.167 -128.5 33.5zM385.5 84.5c27 16.333 48.5 38.5 64.5 66.5s24 59.333 24 94s-8 66 -24 94s-37.5 50.167 -64.5 66.5s-56.833 24.5 -89.5 24.5s-62.5 -8.16699 -89.5 -24.5s-48.5 -38.5 -64.5 -66.5s-24 -59.333 -24 -94
s8 -66 24 -94s37.5 -50.167 64.5 -66.5s56.833 -24.5 89.5 -24.5s62.5 8.16699 89.5 24.5zM220 560h-81l124 135h65l124 -135h-80l-76 84z" />
    <glyph glyph-name="otilde" unicode="&#xf5;" horiz-adv-x="592" 
d="M167.5 23.5c-39 22.333 -70 53 -93 92s-34.5 82.167 -34.5 129.5s11.5 90.5 34.5 129.5s54 69.667 93 92s81.833 33.5 128.5 33.5s89.5 -11.167 128.5 -33.5s70 -53 93 -92s34.5 -82.167 34.5 -129.5s-11.5 -90.5 -34.5 -129.5s-54 -69.667 -93 -92
s-81.833 -33.5 -128.5 -33.5s-89.5 11.167 -128.5 33.5zM385.5 84.5c27 16.333 48.5 38.5 64.5 66.5s24 59.333 24 94s-8 66 -24 94s-37.5 50.167 -64.5 66.5s-56.833 24.5 -89.5 24.5s-62.5 -8.16699 -89.5 -24.5s-48.5 -38.5 -64.5 -66.5s-24 -59.333 -24 -94
s8 -66 24 -94s37.5 -50.167 64.5 -66.5s56.833 -24.5 89.5 -24.5s62.5 8.16699 89.5 24.5zM143 590c0 28.667 7.33301 51.667 22 69s35 26 61 26c14 0 27.5 -3 40.5 -9s27.5 -14.333 43.5 -25c8.66699 -5.33301 17 -10.166 25 -14.499s15 -6.5 21 -6.5
c11.333 0 19.5 3.83301 24.5 11.5s7.5 19.167 7.5 34.5v9h60v-20c0 -28.667 -7.33301 -51.667 -22 -69s-35 -26 -61 -26c-14 0 -27.5 3 -40.5 9s-27.5 14.333 -43.5 25c-8.66699 5.33301 -17 10.166 -25 14.499s-15 6.5 -21 6.5c-11.333 0 -19.5 -3.83301 -24.5 -11.5
s-7.5 -19.167 -7.5 -34.5v-9h-60v20z" />
    <glyph glyph-name="odieresis" unicode="&#xf6;" horiz-adv-x="592" 
d="M167.5 23.5c-39 22.333 -70 53 -93 92s-34.5 82.167 -34.5 129.5s11.5 90.5 34.5 129.5s54 69.667 93 92s81.833 33.5 128.5 33.5s89.5 -11.167 128.5 -33.5s70 -53 93 -92s34.5 -82.167 34.5 -129.5s-11.5 -90.5 -34.5 -129.5s-54 -69.667 -93 -92
s-81.833 -33.5 -128.5 -33.5s-89.5 11.167 -128.5 33.5zM385.5 84.5c27 16.333 48.5 38.5 64.5 66.5s24 59.333 24 94s-8 66 -24 94s-37.5 50.167 -64.5 66.5s-56.833 24.5 -89.5 24.5s-62.5 -8.16699 -89.5 -24.5s-48.5 -38.5 -64.5 -66.5s-24 -59.333 -24 -94
s8 -66 24 -94s37.5 -50.167 64.5 -66.5s56.833 -24.5 89.5 -24.5s62.5 8.16699 89.5 24.5zM247 584h-87v92h87v-92zM432 584h-87v92h87v-92z" />
    <glyph glyph-name="divide" unicode="&#xf7;" 
d="M314 463h-88v97h88v-97zM510 304h-480v72h480v-72zM314 121h-88v97h88v-97z" />
    <glyph glyph-name="oslash" unicode="&#xf8;" horiz-adv-x="592" 
d="M478 425c23.333 -22.667 41.5 -49.5 54.5 -80.5s19.5 -64.167 19.5 -99.5c0 -47.333 -11.5 -90.5 -34.5 -129.5s-54 -69.667 -93 -92s-81.833 -33.5 -128.5 -33.5c-47.333 0 -91.333 12 -132 36l-28 -36h-80l58 74c-23.333 23.333 -41.5 50.5 -54.5 81.5
s-19.5 64.167 -19.5 99.5c0 47.333 11.5 90.5 34.5 129.5s54 69.667 93 92s81.833 33.5 128.5 33.5c48 0 92.333 -12 133 -36l28 36h80zM129 178.5c7.33301 -21 18 -39.5 32 -55.5l223 284c-26.667 15.333 -56 23 -88 23c-32.667 0 -62.5 -8.16699 -89.5 -24.5
s-48.5 -38.5 -64.5 -66.5s-24 -59.333 -24 -94c0 -23.333 3.66699 -45.5 11 -66.5zM385.5 84.5c27 16.333 48.5 38.5 64.5 66.5s24 59.333 24 94c0 46 -14 86.333 -42 121l-223 -283c26.667 -15.333 55.667 -23 87 -23c32.667 0 62.5 8.16699 89.5 24.5z" />
    <glyph glyph-name="ugrave" unicode="&#xf9;" horiz-adv-x="566" 
d="M171.5 17.5c-32.333 18.333 -57.3311 43.833 -74.998 76.5s-26.5 69.667 -26.5 111v285h75v-285c0 -42.667 12.667 -77.5 38 -104.5s58.666 -40.5 99.999 -40.5s74.666 13.5 99.999 40.5s38 61.833 38 104.5v285h75v-285c0 -41.333 -8.83301 -78.333 -26.5 -111
s-42.667 -58.167 -75 -76.5s-69.5 -27.5 -111.5 -27.5s-79.167 9.16699 -111.5 27.5zM324.002 560h-76l-100 140h86z" />
    <glyph glyph-name="uacute" unicode="&#xfa;" horiz-adv-x="566" 
d="M171.5 17.5c-32.333 18.333 -57.3311 43.833 -74.998 76.5s-26.5 69.667 -26.5 111v285h75v-285c0 -42.667 12.667 -77.5 38 -104.5s58.666 -40.5 99.999 -40.5s74.666 13.5 99.999 40.5s38 61.833 38 104.5v285h75v-285c0 -41.333 -8.83301 -78.333 -26.5 -111
s-42.667 -58.167 -75 -76.5s-69.5 -27.5 -111.5 -27.5s-79.167 9.16699 -111.5 27.5zM306.002 560h-73l90 140h83z" />
    <glyph glyph-name="ucircumflex" unicode="&#xfb;" horiz-adv-x="566" 
d="M171.5 17.5c-32.333 18.333 -57.3311 43.833 -74.998 76.5s-26.5 69.667 -26.5 111v285h75v-285c0 -42.667 12.667 -77.5 38 -104.5s58.666 -40.5 99.999 -40.5s74.666 13.5 99.999 40.5s38 61.833 38 104.5v285h75v-285c0 -41.333 -8.83301 -78.333 -26.5 -111
s-42.667 -58.167 -75 -76.5s-69.5 -27.5 -111.5 -27.5s-79.167 9.16699 -111.5 27.5zM207.002 560h-81l124 135h65l124 -135h-80l-76 84z" />
    <glyph glyph-name="udieresis" unicode="&#xfc;" horiz-adv-x="566" 
d="M171.5 17.5c-32.333 18.333 -57.3311 43.833 -74.998 76.5s-26.5 69.667 -26.5 111v285h75v-285c0 -42.667 12.667 -77.5 38 -104.5s58.666 -40.5 99.999 -40.5s74.666 13.5 99.999 40.5s38 61.833 38 104.5v285h75v-285c0 -41.333 -8.83301 -78.333 -26.5 -111
s-42.667 -58.167 -75 -76.5s-69.5 -27.5 -111.5 -27.5s-79.167 9.16699 -111.5 27.5zM234.002 584h-87v92h87v-92zM419.002 584h-87v92h87v-92z" />
    <glyph glyph-name="yacute" unicode="&#xfd;" horiz-adv-x="515" 
d="M262 119l163 371h80l-310 -690h-80l105 235l-215 455h84zM278 560h-73l90 140h83z" />
    <glyph glyph-name="thorn" unicode="&#xfe;" horiz-adv-x="626" 
d="M460 466.5c38.667 -22.333 69.334 -53 92.001 -92s34 -82.167 34 -129.5s-11.333 -90.5 -34 -129.5s-53.334 -69.667 -92.001 -92s-80.334 -33.5 -125.001 -33.5c-36.667 0 -70.667 7.66699 -102 23s-57.333 36 -78 62v-275h-75v920h75v-305
c20.667 26 46.667 46.667 78 62s65.333 23 102 23c44.667 0 86.334 -11.167 125.001 -33.5zM419 84.5c27.333 16.333 49 38.5 65 66.5s24 59.333 24 94s-8 66 -24 94s-37.667 50.167 -65 66.5s-57.333 24.5 -90 24.5s-62.667 -8.16699 -90 -24.5s-49 -38.5 -65 -66.5
s-24 -59.333 -24 -94s8 -66 24 -94s37.667 -50.167 65 -66.5s57.333 -24.5 90 -24.5s62.667 8.16699 90 24.5z" />
    <glyph glyph-name="ydieresis" unicode="&#xff;" horiz-adv-x="515" 
d="M262 119l163 371h80l-310 -690h-80l105 235l-215 455h84zM206 584h-87v92h87v-92zM391 584h-87v92h87v-92z" />
    <glyph glyph-name="Amacron" unicode="&#x100;" horiz-adv-x="670" 
d="M650 0h-86l-75 190h-310l-75 -190h-84l285 700h60zM459 265l-125 316l-125 -316h250zM477 799h-284v66h284v-66z" />
    <glyph glyph-name="amacron" unicode="&#x101;" horiz-adv-x="621" 
d="M471 490h75v-490h-75v75c-20.667 -26 -46.667 -46.667 -78 -62s-65.333 -23 -102 -23c-44.667 0 -86.334 11.167 -125.001 33.5s-69.334 53 -92.001 92s-34 82.167 -34 129.5s11.333 90.5 34 129.5s53.334 69.667 92.001 92s80.334 33.5 125.001 33.5
c36.667 0 70.667 -7.66699 102 -23s57.333 -36 78 -62v75zM387 84.5c27.333 16.333 49 38.5 65 66.5s24 59.333 24 94s-8 66 -24 94s-37.667 50.167 -65 66.5s-57.333 24.5 -90 24.5s-62.667 -8.16699 -90 -24.5s-49 -38.5 -65 -66.5s-24 -59.333 -24 -94s8 -66 24 -94
s37.667 -50.167 65 -66.5s57.333 -24.5 90 -24.5s62.667 8.16699 90 24.5zM453 594h-284v66h284v-66z" />
    <glyph glyph-name="Abreve" unicode="&#x102;" horiz-adv-x="670" 
d="M650 0h-86l-75 190h-310l-75 -190h-84l285 700h60zM459 265l-125 316l-125 -316h250zM226 795.5c-28 25.667 -43.333 58.834 -46 99.501h68c2.66699 -24.667 11.667 -43.334 27 -56.001s35.333 -19 60 -19s44.667 6.33301 60 19s24.333 31.334 27 56.001h68
c-2.66699 -40.667 -18 -73.834 -46 -99.501s-64.333 -38.5 -109 -38.5s-81 12.833 -109 38.5z" />
    <glyph glyph-name="abreve" unicode="&#x103;" horiz-adv-x="621" 
d="M471 490h75v-490h-75v75c-20.667 -26 -46.667 -46.667 -78 -62s-65.333 -23 -102 -23c-44.667 0 -86.334 11.167 -125.001 33.5s-69.334 53 -92.001 92s-34 82.167 -34 129.5s11.333 90.5 34 129.5s53.334 69.667 92.001 92s80.334 33.5 125.001 33.5
c36.667 0 70.667 -7.66699 102 -23s57.333 -36 78 -62v75zM387 84.5c27.333 16.333 49 38.5 65 66.5s24 59.333 24 94s-8 66 -24 94s-37.667 50.167 -65 66.5s-57.333 24.5 -90 24.5s-62.667 -8.16699 -90 -24.5s-49 -38.5 -65 -66.5s-24 -59.333 -24 -94s8 -66 24 -94
s37.667 -50.167 65 -66.5s57.333 -24.5 90 -24.5s62.667 8.16699 90 24.5zM202 590.5c-28 25.667 -43.333 58.834 -46 99.501h68c2.66699 -24.667 11.667 -43.334 27 -56.001s35.333 -19 60 -19s44.667 6.33301 60 19s24.333 31.334 27 56.001h68
c-2.66699 -40.667 -18 -73.834 -46 -99.501s-64.333 -38.5 -109 -38.5s-81 12.833 -109 38.5z" />
    <glyph glyph-name="Aogonek" unicode="&#x104;" horiz-adv-x="670" 
d="M583.5 -127c11 -9.33301 27.834 -14 50.501 -14h16v-59h-31c-32.667 0 -59.834 9.16699 -81.501 27.5s-32.5 43.833 -32.5 76.5c0 40.667 19.667 73 59 97l-75 189h-310l-75 -190h-84l285 700h60l285 -700c-25.333 -7.33301 -45.5 -18.833 -60.5 -34.5
s-22.5 -33.5 -22.5 -53.5c0 -16.667 5.5 -29.667 16.5 -39zM459.001 265l-125 316l-125 -316h250z" />
    <glyph glyph-name="aogonek" unicode="&#x105;" horiz-adv-x="621" 
d="M546 0c-25.333 -7.33301 -45.499 -18.833 -60.499 -34.5s-22.5 -33.5 -22.5 -53.5c0 -16.667 5.5 -29.667 16.5 -39s27.833 -14 50.5 -14h16v-59h-31c-32.667 0 -59.834 9.16699 -81.501 27.5s-32.5 43.833 -32.5 76.5c0 43.333 23.333 78 70 104v67
c-20.667 -26 -46.667 -46.667 -78 -62s-65.333 -23 -102 -23c-44.667 0 -86.334 11.167 -125.001 33.5s-69.334 53 -92.001 92s-34 82.167 -34 129.5s11.333 90.5 34 129.5s53.334 69.667 92.001 92s80.334 33.5 125.001 33.5c36.667 0 70.667 -7.66699 102 -23
s57.333 -36 78 -62v75h75v-490zM387.001 84.5c27.333 16.333 49 38.5 65 66.5s24 59.333 24 94s-8 66 -24 94s-37.667 50.167 -65 66.5s-57.333 24.5 -90 24.5s-62.667 -8.16699 -90 -24.5s-49 -38.5 -65 -66.5s-24 -59.333 -24 -94s8 -66 24 -94s37.667 -50.167 65 -66.5
s57.333 -24.5 90 -24.5s62.667 8.16699 90 24.5z" />
    <glyph glyph-name="Cacute" unicode="&#x106;" horiz-adv-x="776" 
d="M232 38c-54.667 32 -97.833 75.665 -129.5 130.998s-47.5 115.666 -47.5 180.999s15.833 125.666 47.5 180.999s74.834 99 129.501 131s114.334 48 179.001 48c74 0 139 -20.167 195 -60.5s98 -95.166 126 -164.499h-85c-23.333 46 -55.5 82.5 -96.5 109.5
s-87.5 40.5 -139.5 40.5c-49.333 0 -95 -12.667 -137 -38s-75.167 -59.666 -99.5 -102.999s-36.5 -91.333 -36.5 -144s12.167 -100.667 36.5 -144s57.5 -77.666 99.5 -102.999s87.667 -38 137 -38c54 0 101.667 13.5 143 40.5s73.666 63.5 96.999 109.5h85
c-28 -69.333 -70.167 -124.166 -126.5 -164.499s-122.5 -60.5 -198.5 -60.5c-64.667 0 -124.334 16 -179.001 48zM432.001 764.998h-73l90 140h83z" />
    <glyph glyph-name="cacute" unicode="&#x107;" horiz-adv-x="556" 
d="M165.5 23.5c-38.333 22.333 -68.833 52.998 -91.5 91.998s-34 82.167 -34 129.5s11.333 90.5 34 129.5s53.167 69.667 91.5 92s80.166 33.5 125.499 33.5c53.333 0 101.5 -14.667 144.5 -44s73.167 -69.666 90.5 -120.999h-80c-14.667 30 -36 53.333 -64 70
s-58.333 25 -91 25c-31.333 0 -60.333 -8.16699 -87 -24.5s-47.667 -38.5 -63 -66.5s-23 -59.333 -23 -94s7.66699 -66 23 -94s36.333 -50.167 63 -66.5s55.667 -24.5 87 -24.5c32.667 0 63 8.33301 91 25s49.333 40 64 70h80c-17.333 -51.333 -47.5 -91.666 -90.5 -120.999
s-91.167 -44 -144.5 -44c-45.333 0 -87.166 11.167 -125.499 33.5zM319 559.998h-73l90 140h83z" />
    <glyph glyph-name="Ccircumflex" unicode="&#x108;" horiz-adv-x="776" 
d="M232 38c-54.667 32 -97.833 75.665 -129.5 130.998s-47.5 115.666 -47.5 180.999s15.833 125.666 47.5 180.999s74.834 99 129.501 131s114.334 48 179.001 48c74 0 139 -20.167 195 -60.5s98 -95.166 126 -164.499h-85c-23.333 46 -55.5 82.5 -96.5 109.5
s-87.5 40.5 -139.5 40.5c-49.333 0 -95 -12.667 -137 -38s-75.167 -59.666 -99.5 -102.999s-36.5 -91.333 -36.5 -144s12.167 -100.667 36.5 -144s57.5 -77.666 99.5 -102.999s87.667 -38 137 -38c54 0 101.667 13.5 143 40.5s73.666 63.5 96.999 109.5h85
c-28 -69.333 -70.167 -124.166 -126.5 -164.499s-122.5 -60.5 -198.5 -60.5c-64.667 0 -124.334 16 -179.001 48zM333.001 764.998h-81l124 135h65l124 -135h-80l-76 84z" />
    <glyph glyph-name="ccircumflex" unicode="&#x109;" horiz-adv-x="556" 
d="M165.5 23.5c-38.333 22.333 -68.833 52.998 -91.5 91.998s-34 82.167 -34 129.5s11.333 90.5 34 129.5s53.167 69.667 91.5 92s80.166 33.5 125.499 33.5c53.333 0 101.5 -14.667 144.5 -44s73.167 -69.666 90.5 -120.999h-80c-14.667 30 -36 53.333 -64 70
s-58.333 25 -91 25c-31.333 0 -60.333 -8.16699 -87 -24.5s-47.667 -38.5 -63 -66.5s-23 -59.333 -23 -94s7.66699 -66 23 -94s36.333 -50.167 63 -66.5s55.667 -24.5 87 -24.5c32.667 0 63 8.33301 91 25s49.333 40 64 70h80c-17.333 -51.333 -47.5 -91.666 -90.5 -120.999
s-91.167 -44 -144.5 -44c-45.333 0 -87.166 11.167 -125.499 33.5zM220 559.998h-81l124 135h65l124 -135h-80l-76 84z" />
    <glyph glyph-name="Cdotaccent" unicode="&#x10a;" horiz-adv-x="776" 
d="M232 38c-54.667 32 -97.833 75.665 -129.5 130.998s-47.5 115.666 -47.5 180.999s15.833 125.666 47.5 180.999s74.834 99 129.501 131s114.334 48 179.001 48c74 0 139 -20.167 195 -60.5s98 -95.166 126 -164.499h-85c-23.333 46 -55.5 82.5 -96.5 109.5
s-87.5 40.5 -139.5 40.5c-49.333 0 -95 -12.667 -137 -38s-75.167 -59.666 -99.5 -102.999s-36.5 -91.333 -36.5 -144s12.167 -100.667 36.5 -144s57.5 -77.666 99.5 -102.999s87.667 -38 137 -38c54 0 101.667 13.5 143 40.5s73.666 63.5 96.999 109.5h85
c-28 -69.333 -70.167 -124.166 -126.5 -164.499s-122.5 -60.5 -198.5 -60.5c-64.667 0 -124.334 16 -179.001 48zM452.001 788.998h-87v92h87v-92z" />
    <glyph glyph-name="cdotaccent" unicode="&#x10b;" horiz-adv-x="556" 
d="M165.5 23.5c-38.333 22.333 -68.833 52.998 -91.5 91.998s-34 82.167 -34 129.5s11.333 90.5 34 129.5s53.167 69.667 91.5 92s80.166 33.5 125.499 33.5c53.333 0 101.5 -14.667 144.5 -44s73.167 -69.666 90.5 -120.999h-80c-14.667 30 -36 53.333 -64 70
s-58.333 25 -91 25c-31.333 0 -60.333 -8.16699 -87 -24.5s-47.667 -38.5 -63 -66.5s-23 -59.333 -23 -94s7.66699 -66 23 -94s36.333 -50.167 63 -66.5s55.667 -24.5 87 -24.5c32.667 0 63 8.33301 91 25s49.333 40 64 70h80c-17.333 -51.333 -47.5 -91.666 -90.5 -120.999
s-91.167 -44 -144.5 -44c-45.333 0 -87.166 11.167 -125.499 33.5zM339 583.998h-87v92h87v-92z" />
    <glyph glyph-name="Ccaron" unicode="&#x10c;" horiz-adv-x="776" 
d="M232 38c-54.667 32 -97.833 75.665 -129.5 130.998s-47.5 115.666 -47.5 180.999s15.833 125.666 47.5 180.999s74.834 99 129.501 131s114.334 48 179.001 48c74 0 139 -20.167 195 -60.5s98 -95.166 126 -164.499h-85c-23.333 46 -55.5 82.5 -96.5 109.5
s-87.5 40.5 -139.5 40.5c-49.333 0 -95 -12.667 -137 -38s-75.167 -59.666 -99.5 -102.999s-36.5 -91.333 -36.5 -144s12.167 -100.667 36.5 -144s57.5 -77.666 99.5 -102.999s87.667 -38 137 -38c54 0 101.667 13.5 143 40.5s73.666 63.5 96.999 109.5h85
c-28 -69.333 -70.167 -124.166 -126.5 -164.499s-122.5 -60.5 -198.5 -60.5c-64.667 0 -124.334 16 -179.001 48zM441.001 764.998h-65l-124 135h80l76 -84l76 84h81z" />
    <glyph glyph-name="ccaron" unicode="&#x10d;" horiz-adv-x="556" 
d="M165.5 23.5c-38.333 22.333 -68.833 52.998 -91.5 91.998s-34 82.167 -34 129.5s11.333 90.5 34 129.5s53.167 69.667 91.5 92s80.166 33.5 125.499 33.5c53.333 0 101.5 -14.667 144.5 -44s73.167 -69.666 90.5 -120.999h-80c-14.667 30 -36 53.333 -64 70
s-58.333 25 -91 25c-31.333 0 -60.333 -8.16699 -87 -24.5s-47.667 -38.5 -63 -66.5s-23 -59.333 -23 -94s7.66699 -66 23 -94s36.333 -50.167 63 -66.5s55.667 -24.5 87 -24.5c32.667 0 63 8.33301 91 25s49.333 40 64 70h80c-17.333 -51.333 -47.5 -91.666 -90.5 -120.999
s-91.167 -44 -144.5 -44c-45.333 0 -87.166 11.167 -125.499 33.5zM328 559.998h-65l-124 135h80l76 -84l76 84h81z" />
    <glyph glyph-name="Dcaron" unicode="&#x10e;" horiz-adv-x="721" 
d="M95 0v700h185c78 0 146 -14.5 204 -43.5s102.833 -70 134.5 -123s47.5 -114.167 47.5 -183.5s-15.833 -130.5 -47.5 -183.5s-76.5 -94 -134.5 -123s-126 -43.5 -204 -43.5h-185zM280 75c62 0 115.833 11.3291 161.5 33.9961s80.667 54.834 105 96.501
s36.5 89.834 36.5 144.501s-12.167 102.834 -36.5 144.501s-59.333 73.834 -105 96.501s-99.5 34 -161.5 34h-105v-550h105zM393 764.996h-65l-124 135h80l76 -84l76 84h81z" />
    <glyph glyph-name="dcaron" unicode="&#x10f;" horiz-adv-x="626" 
d="M471 720h75v-720h-75v75c-20.667 -26 -46.667 -46.667 -78 -62s-65.333 -23 -102 -23c-44.667 0 -86.334 11.167 -125.001 33.5s-69.334 53 -92.001 92s-34 82.167 -34 129.5s11.333 90.5 34 129.5s53.334 69.667 92.001 92s80.334 33.5 125.001 33.5
c36.667 0 70.667 -7.66699 102 -23s57.333 -36 78 -62v305zM387 84.5c27.333 16.333 49 38.5 65 66.5s24 59.333 24 94s-8 66 -24 94s-37.667 50.167 -65 66.5s-57.333 24.5 -90 24.5s-62.667 -8.16699 -90 -24.5s-49 -38.5 -65 -66.5s-24 -59.333 -24 -94s8 -66 24 -94
s37.667 -50.167 65 -66.5s57.333 -24.5 90 -24.5s62.667 8.16699 90 24.5zM668 560h-61l20 160h74z" />
    <glyph glyph-name="Dcroat" unicode="&#x110;" horiz-adv-x="726" 
d="M285 700c78 0 146 -14.5 204 -43.5s102.833 -70 134.5 -123s47.5 -114.167 47.5 -183.5s-15.833 -130.5 -47.5 -183.5s-76.5 -94 -134.5 -123s-126 -43.5 -204 -43.5h-185v317h-90v70h90v313h185zM285 75c62 0 115.833 11.3291 161.5 33.9961s80.667 54.834 105 96.501
s36.5 89.834 36.5 144.501s-12.167 102.834 -36.5 144.501s-59.333 73.834 -105 96.501s-99.5 34 -161.5 34h-105v-238h215v-70h-215v-242h105z" />
    <glyph glyph-name="dcroat" unicode="&#x111;" horiz-adv-x="606" 
d="M601 626v-65.002h-75v-561h-75v67c-18 -22.667 -42.167 -41.167 -72.5 -55.5s-62.833 -21.5 -97.5 -21.5c-43.333 0 -83.333 10 -120 30s-66 48.333 -88 85s-33 78.334 -33 125.001s11 88.334 33 125.001s51.333 65 88 85s76.667 30 120 30
c34.667 0 67.167 -7.16699 97.5 -21.5s54.5 -32.833 72.5 -55.5v168h-165v65h165v94h75v-94h75zM372.5 81.498c25.667 14.333 46 34.5 61 60.5s22.5 55.333 22.5 88s-7.5 62 -22.5 88s-35.333 46.167 -61 60.5s-54.167 21.5 -85.5 21.5s-59.833 -7.16699 -85.5 -21.5
s-46 -34.5 -61 -60.5s-22.5 -55.333 -22.5 -88s7.5 -62 22.5 -88s35.333 -46.167 61 -60.5s54.167 -21.5 85.5 -21.5s59.833 7.16699 85.5 21.5z" />
    <glyph glyph-name="Emacron" unicode="&#x112;" 
d="M175 325v-250h300v-75h-380v700h370v-75h-290v-225h280v-75h-280zM425 799h-284v66h284v-66z" />
    <glyph glyph-name="emacron" unicode="&#x113;" horiz-adv-x="563" 
d="M408.5 469.5c37 -20.333 66.166 -49 87.499 -86s32 -79.167 32 -126.5c0 -16 -0.666992 -28.333 -2 -37h-407c4.66699 -48.667 21.834 -87.5 51.501 -116.5s68.167 -43.5 115.5 -43.5c69.333 0 119.333 28.333 150 85h80c-20 -50 -49.667 -88.333 -89 -115
s-86.333 -40 -141 -40c-46 0 -87.833 11.167 -125.5 33.5s-67.167 52.833 -88.5 91.5s-32 82 -32 130s10.667 91.333 32 130s50.833 69.167 88.5 91.5s79.5 33.5 125.5 33.5c44.667 0 85.5 -10.167 122.5 -30.5zM176.499 392c-29 -25.333 -47.168 -60 -54.501 -104h327
c-4.66699 42.667 -22.167 77 -52.5 103s-67.166 39 -110.499 39c-44 0 -80.5 -12.667 -109.5 -38zM426.998 594h-284v66h284v-66z" />
    <glyph glyph-name="Ebreve" unicode="&#x114;" 
d="M175 325v-250h300v-75h-380v700h370v-75h-290v-225h280v-75h-280zM174 795.5c-28 25.667 -43.333 58.834 -46 99.501h68c2.66699 -24.667 11.667 -43.334 27 -56.001s35.333 -19 60 -19s44.667 6.33301 60 19s24.333 31.334 27 56.001h68
c-2.66699 -40.667 -18 -73.834 -46 -99.501s-64.333 -38.5 -109 -38.5s-81 12.833 -109 38.5z" />
    <glyph glyph-name="ebreve" unicode="&#x115;" horiz-adv-x="563" 
d="M408.5 469.5c37 -20.333 66.166 -49 87.499 -86s32 -79.167 32 -126.5c0 -16 -0.666992 -28.333 -2 -37h-407c4.66699 -48.667 21.834 -87.5 51.501 -116.5s68.167 -43.5 115.5 -43.5c69.333 0 119.333 28.333 150 85h80c-20 -50 -49.667 -88.333 -89 -115
s-86.333 -40 -141 -40c-46 0 -87.833 11.167 -125.5 33.5s-67.167 52.833 -88.5 91.5s-32 82 -32 130s10.667 91.333 32 130s50.833 69.167 88.5 91.5s79.5 33.5 125.5 33.5c44.667 0 85.5 -10.167 122.5 -30.5zM176.499 392c-29 -25.333 -47.168 -60 -54.501 -104h327
c-4.66699 42.667 -22.167 77 -52.5 103s-67.166 39 -110.499 39c-44 0 -80.5 -12.667 -109.5 -38zM175.998 590.5c-28 25.667 -43.333 58.834 -46 99.501h68c2.66699 -24.667 11.667 -43.334 27 -56.001s35.333 -19 60 -19s44.667 6.33301 60 19s24.333 31.334 27 56.001h68
c-2.66699 -40.667 -18 -73.834 -46 -99.501s-64.333 -38.5 -109 -38.5s-81 12.833 -109 38.5z" />
    <glyph glyph-name="Edotaccent" unicode="&#x116;" 
d="M175 325v-250h300v-75h-380v700h370v-75h-290v-225h280v-75h-280zM326 789h-87v92h87v-92z" />
    <glyph glyph-name="edotaccent" unicode="&#x117;" horiz-adv-x="563" 
d="M408.5 469.5c37 -20.333 66.166 -49 87.499 -86s32 -79.167 32 -126.5c0 -16 -0.666992 -28.333 -2 -37h-407c4.66699 -48.667 21.834 -87.5 51.501 -116.5s68.167 -43.5 115.5 -43.5c69.333 0 119.333 28.333 150 85h80c-20 -50 -49.667 -88.333 -89 -115
s-86.333 -40 -141 -40c-46 0 -87.833 11.167 -125.5 33.5s-67.167 52.833 -88.5 91.5s-32 82 -32 130s10.667 91.333 32 130s50.833 69.167 88.5 91.5s79.5 33.5 125.5 33.5c44.667 0 85.5 -10.167 122.5 -30.5zM176.499 392c-29 -25.333 -47.168 -60 -54.501 -104h327
c-4.66699 42.667 -22.167 77 -52.5 103s-67.166 39 -110.499 39c-44 0 -80.5 -12.667 -109.5 -38zM327.998 584h-87v92h87v-92z" />
    <glyph glyph-name="Eogonek" unicode="&#x118;" 
d="M475 0c-25.333 -7.33301 -45.499 -18.833 -60.499 -34.5s-22.5 -33.5 -22.5 -53.5c0 -16.667 5.5 -29.667 16.5 -39s27.833 -14 50.5 -14h16v-59h-31c-32.667 0 -59.834 9.16699 -81.501 27.5s-32.5 43.833 -32.5 76.5c0 40 19 72 57 96h-292v700h370v-75h-290v-225h280
v-75h-280v-250h300v-75z" />
    <glyph glyph-name="eogonek" unicode="&#x119;" horiz-adv-x="563" 
d="M408.5 469.5c37 -20.333 66.168 -49 87.501 -86s32 -79.167 32 -126.5c0 -16 -0.666992 -28.333 -2 -37h-407c4.66699 -48.667 21.834 -87.5 51.501 -116.5s68.167 -43.5 115.5 -43.5c69.333 0 119.333 28.333 150 85h80c-7.33301 -22.667 -17.333 -43 -30 -61
s-29.334 -39 -50.001 -63c-20.667 -23.333 -35.834 -42.5 -45.501 -57.5s-14.5 -30.833 -14.5 -47.5c0 -38.667 22.333 -58 67 -58h21v-59h-25c-36 0 -65.833 9.83301 -89.5 29.5s-35.5 47.167 -35.5 82.5c0 33.333 12.667 62 38 86c-18.667 -4.66699 -40.667 -7 -66 -7
c-46 0 -87.833 11.167 -125.5 33.5s-67.167 52.833 -88.5 91.5s-32 82 -32 130s10.667 91.333 32 130s50.833 69.167 88.5 91.5s79.5 33.5 125.5 33.5c44.667 0 85.5 -10.167 122.5 -30.5zM176.501 392c-29 -25.333 -47.168 -60 -54.501 -104h327
c-4.66699 42.667 -22.167 77 -52.5 103s-67.166 39 -110.499 39c-44 0 -80.5 -12.667 -109.5 -38z" />
    <glyph glyph-name="Ecaron" unicode="&#x11a;" 
d="M175 325v-250h300v-75h-380v700h370v-75h-290v-225h280v-75h-280zM315 765h-65l-124 135h80l76 -84l76 84h81z" />
    <glyph glyph-name="ecaron" unicode="&#x11b;" horiz-adv-x="563" 
d="M408.5 469.5c37 -20.333 66.166 -49 87.499 -86s32 -79.167 32 -126.5c0 -16 -0.666992 -28.333 -2 -37h-407c4.66699 -48.667 21.834 -87.5 51.501 -116.5s68.167 -43.5 115.5 -43.5c69.333 0 119.333 28.333 150 85h80c-20 -50 -49.667 -88.333 -89 -115
s-86.333 -40 -141 -40c-46 0 -87.833 11.167 -125.5 33.5s-67.167 52.833 -88.5 91.5s-32 82 -32 130s10.667 91.333 32 130s50.833 69.167 88.5 91.5s79.5 33.5 125.5 33.5c44.667 0 85.5 -10.167 122.5 -30.5zM176.499 392c-29 -25.333 -47.168 -60 -54.501 -104h327
c-4.66699 42.667 -22.167 77 -52.5 103s-67.166 39 -110.499 39c-44 0 -80.5 -12.667 -109.5 -38zM316.998 560h-65l-124 135h80l76 -84l76 84h81z" />
    <glyph glyph-name="Gcircumflex" unicode="&#x11c;" horiz-adv-x="801" 
d="M391 370h369.997v-30c0 -63.333 -14.667 -121.666 -44 -174.999s-70.166 -95.833 -122.499 -127.5s-111.833 -47.5 -178.5 -47.5c-66 0 -126.667 16 -182 48s-99 75.667 -131 131s-48 115.666 -48 180.999s16 125.666 48 180.999s75.667 99 131 131s116 48 182 48
c76 0 143 -20.333 201 -61s101 -95.334 129 -164.001h-85c-22.667 46 -55.667 82.5 -99 109.5s-92 40.5 -146 40.5c-50.667 0 -97.167 -12.667 -139.5 -38s-76 -59.666 -101 -102.999s-37.5 -91.333 -37.5 -144s12.5 -100.667 37.5 -144s58.667 -77.666 101 -102.999
s88.833 -38 139.5 -38c46 0 87.833 9.5 125.5 28.5s68.334 45.833 92.001 80.5s37.834 75 42.501 121h-285v75zM339.997 765h-81l124 135h65l124 -135h-80l-76 84z" />
    <glyph glyph-name="gcircumflex" unicode="&#x11d;" horiz-adv-x="611" 
d="M461 490l75 0.00195312v-460c0 -46 -10.333 -87.333 -31 -124s-49.5 -65.167 -86.5 -85.5s-79.5 -30.5 -127.5 -30.5c-57.333 0 -107 15.167 -149 45.5s-70.667 71.833 -86 124.5h75c12 -30.667 32.167 -55 60.5 -73s61.5 -27 99.5 -27c52 0 93.333 15.667 124 47
s46 72.333 46 123v64c-21.333 -26 -46.833 -46.5 -76.5 -61.5s-62.5 -22.5 -98.5 -22.5c-45.333 0 -86.666 10.333 -123.999 31s-67 49.667 -89 87s-33 79.666 -33 126.999s11 89.666 33 126.999s51.667 66.333 89 87s78.666 31 123.999 31c36 0 68.833 -7.5 98.5 -22.5
s55.167 -35.5 76.5 -61.5v74zM381 103.002c26.667 15.333 47.5 36.333 62.5 63s22.5 56.334 22.5 89.001s-7.5 62.334 -22.5 89.001s-35.833 47.667 -62.5 63s-56.334 23 -89.001 23s-62.334 -7.66699 -89.001 -23s-47.5 -36.333 -62.5 -63s-22.5 -56.334 -22.5 -89.001
s7.5 -62.334 22.5 -89.001s35.833 -47.667 62.5 -63s56.334 -23 89.001 -23s62.334 7.66699 89.001 23zM230 560.002h-81l124 135h65l124 -135h-80l-76 84z" />
    <glyph glyph-name="Gbreve" unicode="&#x11e;" horiz-adv-x="801" 
d="M391 370h369.997v-30c0 -63.333 -14.667 -121.666 -44 -174.999s-70.166 -95.833 -122.499 -127.5s-111.833 -47.5 -178.5 -47.5c-66 0 -126.667 16 -182 48s-99 75.667 -131 131s-48 115.666 -48 180.999s16 125.666 48 180.999s75.667 99 131 131s116 48 182 48
c76 0 143 -20.333 201 -61s101 -95.334 129 -164.001h-85c-22.667 46 -55.667 82.5 -99 109.5s-92 40.5 -146 40.5c-50.667 0 -97.167 -12.667 -139.5 -38s-76 -59.666 -101 -102.999s-37.5 -91.333 -37.5 -144s12.5 -100.667 37.5 -144s58.667 -77.666 101 -102.999
s88.833 -38 139.5 -38c46 0 87.833 9.5 125.5 28.5s68.334 45.833 92.001 80.5s37.834 75 42.501 121h-285v75zM306.997 795.5c-28 25.667 -43.333 58.834 -46 99.501h68c2.66699 -24.667 11.667 -43.334 27 -56.001s35.333 -19 60 -19s44.667 6.33301 60 19
s24.333 31.334 27 56.001h68c-2.66699 -40.667 -18 -73.834 -46 -99.501s-64.333 -38.5 -109 -38.5s-81 12.833 -109 38.5z" />
    <glyph glyph-name="gbreve" unicode="&#x11f;" horiz-adv-x="611" 
d="M461 490l75 0.00195312v-460c0 -46 -10.333 -87.333 -31 -124s-49.5 -65.167 -86.5 -85.5s-79.5 -30.5 -127.5 -30.5c-57.333 0 -107 15.167 -149 45.5s-70.667 71.833 -86 124.5h75c12 -30.667 32.167 -55 60.5 -73s61.5 -27 99.5 -27c52 0 93.333 15.667 124 47
s46 72.333 46 123v64c-21.333 -26 -46.833 -46.5 -76.5 -61.5s-62.5 -22.5 -98.5 -22.5c-45.333 0 -86.666 10.333 -123.999 31s-67 49.667 -89 87s-33 79.666 -33 126.999s11 89.666 33 126.999s51.667 66.333 89 87s78.666 31 123.999 31c36 0 68.833 -7.5 98.5 -22.5
s55.167 -35.5 76.5 -61.5v74zM381 103.002c26.667 15.333 47.5 36.333 62.5 63s22.5 56.334 22.5 89.001s-7.5 62.334 -22.5 89.001s-35.833 47.667 -62.5 63s-56.334 23 -89.001 23s-62.334 -7.66699 -89.001 -23s-47.5 -36.333 -62.5 -63s-22.5 -56.334 -22.5 -89.001
s7.5 -62.334 22.5 -89.001s35.833 -47.667 62.5 -63s56.334 -23 89.001 -23s62.334 7.66699 89.001 23zM197 590.502c-28 25.667 -43.333 58.834 -46 99.501h68c2.66699 -24.667 11.667 -43.334 27 -56.001s35.333 -19 60 -19s44.667 6.33301 60 19s24.333 31.334 27 56.001
h68c-2.66699 -40.667 -18 -73.834 -46 -99.501s-64.333 -38.5 -109 -38.5s-81 12.833 -109 38.5z" />
    <glyph glyph-name="Gdotaccent" unicode="&#x120;" horiz-adv-x="801" 
d="M391 370h369.997v-30c0 -63.333 -14.667 -121.666 -44 -174.999s-70.166 -95.833 -122.499 -127.5s-111.833 -47.5 -178.5 -47.5c-66 0 -126.667 16 -182 48s-99 75.667 -131 131s-48 115.666 -48 180.999s16 125.666 48 180.999s75.667 99 131 131s116 48 182 48
c76 0 143 -20.333 201 -61s101 -95.334 129 -164.001h-85c-22.667 46 -55.667 82.5 -99 109.5s-92 40.5 -146 40.5c-50.667 0 -97.167 -12.667 -139.5 -38s-76 -59.666 -101 -102.999s-37.5 -91.333 -37.5 -144s12.5 -100.667 37.5 -144s58.667 -77.666 101 -102.999
s88.833 -38 139.5 -38c46 0 87.833 9.5 125.5 28.5s68.334 45.833 92.001 80.5s37.834 75 42.501 121h-285v75zM458.997 789h-87v92h87v-92z" />
    <glyph glyph-name="gdotaccent" unicode="&#x121;" horiz-adv-x="611" 
d="M461 490l75 0.00195312v-460c0 -46 -10.333 -87.333 -31 -124s-49.5 -65.167 -86.5 -85.5s-79.5 -30.5 -127.5 -30.5c-57.333 0 -107 15.167 -149 45.5s-70.667 71.833 -86 124.5h75c12 -30.667 32.167 -55 60.5 -73s61.5 -27 99.5 -27c52 0 93.333 15.667 124 47
s46 72.333 46 123v64c-21.333 -26 -46.833 -46.5 -76.5 -61.5s-62.5 -22.5 -98.5 -22.5c-45.333 0 -86.666 10.333 -123.999 31s-67 49.667 -89 87s-33 79.666 -33 126.999s11 89.666 33 126.999s51.667 66.333 89 87s78.666 31 123.999 31c36 0 68.833 -7.5 98.5 -22.5
s55.167 -35.5 76.5 -61.5v74zM381 103.002c26.667 15.333 47.5 36.333 62.5 63s22.5 56.334 22.5 89.001s-7.5 62.334 -22.5 89.001s-35.833 47.667 -62.5 63s-56.334 23 -89.001 23s-62.334 -7.66699 -89.001 -23s-47.5 -36.333 -62.5 -63s-22.5 -56.334 -22.5 -89.001
s7.5 -62.334 22.5 -89.001s35.833 -47.667 62.5 -63s56.334 -23 89.001 -23s62.334 7.66699 89.001 23zM349 584.002h-87v92h87v-92z" />
    <glyph glyph-name="uni0122" unicode="&#x122;" horiz-adv-x="801" 
d="M391 370h369.997v-30c0 -63.333 -14.667 -121.666 -44 -174.999s-70.166 -95.833 -122.499 -127.5s-111.833 -47.5 -178.5 -47.5c-66 0 -126.667 16 -182 48s-99 75.667 -131 131s-48 115.666 -48 180.999s16 125.666 48 180.999s75.667 99 131 131s116 48 182 48
c76 0 143 -20.333 201 -61s101 -95.334 129 -164.001h-85c-22.667 46 -55.667 82.5 -99 109.5s-92 40.5 -146 40.5c-50.667 0 -97.167 -12.667 -139.5 -38s-76 -59.666 -101 -102.999s-37.5 -91.333 -37.5 -144s12.5 -100.667 37.5 -144s58.667 -77.666 101 -102.999
s88.833 -38 139.5 -38c46 0 87.833 9.5 125.5 28.5s68.334 45.833 92.001 80.5s37.834 75 42.501 121h-285v75zM383.997 -255h-69l47 170h84z" />
    <glyph glyph-name="uni0123" unicode="&#x123;" horiz-adv-x="611" 
d="M461 490l75 0.00195312v-460c0 -46 -10.333 -87.333 -31 -124s-49.5 -65.167 -86.5 -85.5s-79.5 -30.5 -127.5 -30.5c-57.333 0 -107 15.167 -149 45.5s-70.667 71.833 -86 124.5h75c12 -30.667 32.167 -55 60.5 -73s61.5 -27 99.5 -27c52 0 93.333 15.667 124 47
s46 72.333 46 123v64c-21.333 -26 -46.833 -46.5 -76.5 -61.5s-62.5 -22.5 -98.5 -22.5c-45.333 0 -86.666 10.333 -123.999 31s-67 49.667 -89 87s-33 79.666 -33 126.999s11 89.666 33 126.999s51.667 66.333 89 87s78.666 31 123.999 31c36 0 68.833 -7.5 98.5 -22.5
s55.167 -35.5 76.5 -61.5v74zM381 103.002c26.667 15.333 47.5 36.333 62.5 63s22.5 56.334 22.5 89.001s-7.5 62.334 -22.5 89.001s-35.833 47.667 -62.5 63s-56.334 23 -89.001 23s-62.334 -7.66699 -89.001 -23s-47.5 -36.333 -62.5 -63s-22.5 -56.334 -22.5 -89.001
s7.5 -62.334 22.5 -89.001s35.833 -47.667 62.5 -63s56.334 -23 89.001 -23s62.334 7.66699 89.001 23zM346 560.002h-83l77 170h70z" />
    <glyph glyph-name="Hcircumflex" unicode="&#x124;" horiz-adv-x="720" 
d="M545 400v300h80v-700h-80v325h-370v-325h-80v700h80v-300h370zM284 765h-81l124 135h65l124 -135h-80l-76 84z" />
    <glyph glyph-name="hcircumflex" unicode="&#x125;" horiz-adv-x="580" 
d="M414.5 471.5c30.333 -19 53.834 -44.834 70.501 -77.501s25 -69 25 -109v-285h-75v285c0 43.333 -12 78.333 -36 105s-57 40 -99 40c-26.667 0 -51 -6.16699 -73 -18.5s-39.5 -29.5 -52.5 -51.5s-19.5 -47 -19.5 -75v-285h-75v720h75v-295
c20 24.667 43.167 43.334 69.5 56.001s54.833 19 85.5 19c39.333 0 74.166 -9.5 104.499 -28.5zM219.001 789.999h-81l124 135h65l124 -135h-80l-76 84z" />
    <glyph glyph-name="Hbar" unicode="&#x126;" horiz-adv-x="730" 
d="M630 585h90v-70h-90v-515h-80v325h-370v-325h-80v515h-90v70h90v115h80v-115h370v115h80v-115zM180 515v-115h370v115h-370z" />
    <glyph glyph-name="hbar" unicode="&#x127;" horiz-adv-x="580" 
d="M414.5 441.5c30.333 -19 53.834 -44.834 70.501 -77.501s25 -69 25 -109v-255h-75v255c0 43.333 -12 78.333 -36 105s-57 40 -99 40c-26.667 0 -51 -6.16699 -73 -18.5s-39.5 -29.5 -52.5 -51.5s-19.5 -47 -19.5 -75v-255h-75v561h-75v65h75v94h75v-94h165v-65h-165v-166
c20 24.667 43.167 43.334 69.5 56.001s54.833 19 85.5 19c39.333 0 74.166 -9.5 104.499 -28.5z" />
    <glyph glyph-name="Imacron" unicode="&#x12a;" horiz-adv-x="280" 
d="M180 0h-80v700h80v-700zM282 799h-284v66h284v-66z" />
    <glyph glyph-name="imacron" unicode="&#x12b;" horiz-adv-x="225" 
d="M150 0h-75v490h75v-490zM255 594h-284v66h284v-66z" />
    <glyph glyph-name="Ibreve" unicode="&#x12c;" horiz-adv-x="280" 
d="M180 0h-80v700h80v-700zM31 795.5c-28 25.667 -43.333 58.834 -46 99.501h68c2.66699 -24.667 11.667 -43.334 27 -56.001s35.333 -19 60 -19s44.667 6.33301 60 19s24.333 31.334 27 56.001h68c-2.66699 -40.667 -18 -73.834 -46 -99.501s-64.333 -38.5 -109 -38.5
s-81 12.833 -109 38.5z" />
    <glyph glyph-name="ibreve" unicode="&#x12d;" horiz-adv-x="225" 
d="M150 0h-75v490h75v-490zM4 590.5c-28 25.667 -43.333 58.834 -46 99.501h68c2.66699 -24.667 11.667 -43.334 27 -56.001s35.333 -19 60 -19s44.667 6.33301 60 19s24.333 31.334 27 56.001h68c-2.66699 -40.667 -18 -73.834 -46 -99.501s-64.333 -38.5 -109 -38.5
s-81 12.833 -109 38.5z" />
    <glyph glyph-name="Iogonek" unicode="&#x12e;" horiz-adv-x="280" 
d="M180 0c-25.333 -7.33301 -45.499 -18.834 -60.499 -34.501s-22.5 -33.5 -22.5 -53.5c0 -16.667 5.5 -29.667 16.5 -39s27.833 -14 50.5 -14h16v-59h-31c-32.667 0 -59.834 9.16699 -81.501 27.5s-32.5 43.833 -32.5 76.5c0 42.667 21.667 76.334 65 101.001v695h80v-700z
" />
    <glyph glyph-name="iogonek" unicode="&#x12f;" horiz-adv-x="225" 
d="M69 584v92h87v-92h-87zM75 490h75.001v-490c-25.333 -7.33301 -45.5 -18.833 -60.5 -34.5s-22.5 -33.5 -22.5 -53.5c0 -16.667 5.5 -29.667 16.5 -39s27.833 -14 50.5 -14h16v-59h-31c-32.667 0 -59.834 9.16699 -81.501 27.5s-32.5 43.833 -32.5 76.5
c0 43.333 23.333 78 70 104v482z" />
    <glyph glyph-name="Idotaccent" unicode="&#x130;" horiz-adv-x="280" 
d="M180 0h-80v700h80v-700zM183 789h-87v92h87v-92z" />
    <glyph glyph-name="dotlessi" unicode="&#x131;" horiz-adv-x="225" 
d="M150 0h-75v490h75v-490z" />
    <glyph glyph-name="IJ" unicode="&#x132;" horiz-adv-x="790" 
d="M180 0h-80v700h80v-700zM388 17.5c-32 18.333 -57.168 43.5 -75.501 75.5s-27.5 67.667 -27.5 107h80c0 -40 12.333 -72.5 37 -97.5s56 -37.5 94 -37.5c38.667 0 69.834 13 93.501 39s35.5 61.333 35.5 106v490h80v-490c0 -42.667 -9 -80.667 -27 -114
s-42.833 -59.333 -74.5 -78s-67.5 -28 -107.5 -28s-76 9.16699 -108 27.5z" />
    <glyph glyph-name="ij" unicode="&#x133;" horiz-adv-x="450" 
d="M150 0h-75v490h75v-490zM156 584h-87v92h87v-92zM175 -200l0.000976562 70h45c25.333 0 45 7 59 21s21 33.667 21 59v540h75v-545c0 -42.667 -13.833 -77.5 -41.5 -104.5s-63.834 -40.5 -108.501 -40.5h-50zM381.001 584h-87v92h87v-92z" />
    <glyph glyph-name="Jcircumflex" unicode="&#x134;" horiz-adv-x="510" 
d="M108 17.5c-32 18.333 -57.168 43.5 -75.501 75.5s-27.5 67.667 -27.5 107h80c0 -40 12.333 -72.5 37 -97.5s56 -37.5 94 -37.5c38.667 0 69.834 13 93.501 39s35.5 61.333 35.5 106v490h80v-490c0 -42.667 -9 -80.667 -27 -114s-42.833 -59.333 -74.5 -78
s-67.5 -28 -107.5 -28s-76 9.16699 -108 27.5zM308.999 765h-81l124 135h65l124 -135h-80l-76 84z" />
    <glyph glyph-name="jcircumflex" unicode="&#x135;" horiz-adv-x="225" 
d="M-50 -200l0.000976562 70h45c25.333 0 45 7 59 21s21 33.667 21 59v540h75v-545c0 -42.667 -13.833 -77.5 -41.5 -104.5s-63.834 -40.5 -108.501 -40.5h-50zM37.001 560h-81l124 135h65l124 -135h-80l-76 84z" />
    <glyph glyph-name="uni0136" unicode="&#x136;" horiz-adv-x="595" 
d="M260 361l330 -361h-106l-309 339v-339h-80v700h80v-325l294 325h98zM296 -255h-69l47 170h84z" />
    <glyph glyph-name="uni0137" unicode="&#x137;" horiz-adv-x="489" 
d="M235 253l249 -253h-102l-227 234v-234h-75v720h75v-453l216 223h96zM243 -255h-69l47 170h84z" />
    <glyph glyph-name="Lacute" unicode="&#x139;" horiz-adv-x="480" 
d="M445 0h-350v700h80v-625h270v-75zM158 765h-73l90 140h83z" />
    <glyph glyph-name="lacute" unicode="&#x13a;" horiz-adv-x="235" 
d="M155 0h-75v720h75v-720zM142 790h-73l90 140h83z" />
    <glyph glyph-name="uni013B" unicode="&#x13b;" horiz-adv-x="480" 
d="M445 0h-350v700h80v-625h270v-75zM248 -255h-69l47 170h84z" />
    <glyph glyph-name="uni013C" unicode="&#x13c;" horiz-adv-x="235" 
d="M155 0h-75v720h75v-720zM96 -255h-69l47 170h84z" />
    <glyph glyph-name="Lcaron" unicode="&#x13d;" horiz-adv-x="480" 
d="M445 0h-350v700h80v-625h270v-75zM297 540h-61l20 160h74z" />
    <glyph glyph-name="lcaron" unicode="&#x13e;" horiz-adv-x="235" 
d="M155 0h-75v720h75v-720zM277 560h-61l20 160h74z" />
    <glyph glyph-name="Ldot" unicode="&#x13f;" horiz-adv-x="480" 
d="M445 0h-350v700h80v-625h270v-75zM420 336h-89v97h89v-97z" />
    <glyph glyph-name="ldot" unicode="&#x140;" horiz-adv-x="274" 
d="M155 0h-75v720h75v-720zM299 321h-89v97h89v-97z" />
    <glyph glyph-name="Lslash" unicode="&#x141;" horiz-adv-x="490" 
d="M185 323v-248h270v-75h-350v289l-95 -40v78l95 40v333h80v-299l201 86v-78z" />
    <glyph glyph-name="lslash" unicode="&#x142;" horiz-adv-x="275" 
d="M175 424l100 52v-79l-100 -52v-345h-75v307l-100 -52v79l100 52v334h75v-296z" />
    <glyph glyph-name="Nacute" unicode="&#x143;" horiz-adv-x="790" 
d="M617 148v552h78v-700h-50l-472 552v-552h-78v700h50zM418 765h-73l90 140h83z" />
    <glyph glyph-name="nacute" unicode="&#x144;" horiz-adv-x="575" 
d="M409.5 471.5c30.333 -19 53.834 -44.834 70.501 -77.501s25 -69 25 -109v-285h-75v285c0 43.333 -12 78.333 -36 105s-57 40 -99 40c-26.667 0 -51 -6.16699 -73 -18.5s-39.5 -29.5 -52.5 -51.5s-19.5 -47 -19.5 -75v-285h-75v490h75v-65
c20 24.667 43.167 43.334 69.5 56.001s54.833 19 85.5 19c39.333 0 74.166 -9.5 104.499 -28.5zM313.001 559.999h-73l90 140h83z" />
    <glyph glyph-name="uni0145" unicode="&#x145;" horiz-adv-x="790" 
d="M617 148v552h78v-700h-50l-472 552v-552h-78v700h50zM373 -255h-69l47 170h84z" />
    <glyph glyph-name="uni0146" unicode="&#x146;" horiz-adv-x="575" 
d="M409.5 471.5c30.333 -19 53.834 -44.834 70.501 -77.501s25 -69 25 -109v-285h-75v285c0 43.333 -12 78.333 -36 105s-57 40 -99 40c-26.667 0 -51 -6.16699 -73 -18.5s-39.5 -29.5 -52.5 -51.5s-19.5 -47 -19.5 -75v-285h-75v490h75v-65
c20 24.667 43.167 43.334 69.5 56.001s54.833 19 85.5 19c39.333 0 74.166 -9.5 104.499 -28.5zM268.001 -255.001h-69l47 170h84z" />
    <glyph glyph-name="Ncaron" unicode="&#x147;" horiz-adv-x="790" 
d="M617 148v552h78v-700h-50l-472 552v-552h-78v700h50zM427 765h-65l-124 135h80l76 -84l76 84h81z" />
    <glyph glyph-name="ncaron" unicode="&#x148;" horiz-adv-x="575" 
d="M409.5 471.5c30.333 -19 53.834 -44.834 70.501 -77.501s25 -69 25 -109v-285h-75v285c0 43.333 -12 78.333 -36 105s-57 40 -99 40c-26.667 0 -51 -6.16699 -73 -18.5s-39.5 -29.5 -52.5 -51.5s-19.5 -47 -19.5 -75v-285h-75v490h75v-65
c20 24.667 43.167 43.334 69.5 56.001s54.833 19 85.5 19c39.333 0 74.166 -9.5 104.499 -28.5zM322.001 559.999h-65l-124 135h80l76 -84l76 84h81z" />
    <glyph glyph-name="Eng" unicode="&#x14a;" horiz-adv-x="790" 
d="M617 700h78.001v-755c0 -42.667 -13.833 -77.5 -41.5 -104.5s-63.834 -40.5 -108.501 -40.5h-50v70h42c25.333 0 45 7 59 21s21 33.667 21 59v83l-444 519v-552h-78v700h50l472 -552v552z" />
    <glyph glyph-name="eng" unicode="&#x14b;" horiz-adv-x="575" 
d="M409.5 471.5c30.333 -19 53.835 -44.834 70.502 -77.501s25 -69 25 -109v-340c0 -42.667 -13.833 -77.5 -41.5 -104.5s-63.834 -40.5 -108.501 -40.5h-50v70h45c25.333 0 45 7 59 21s21 33.667 21 59v335c0 43.333 -12 78.333 -36 105s-57 40 -99 40
c-26.667 0 -51 -6.16699 -73 -18.5s-39.5 -29.5 -52.5 -51.5s-19.5 -47 -19.5 -75v-285h-75v490h75v-65c20 24.667 43.167 43.334 69.5 56.001s54.833 19 85.5 19c39.333 0 74.166 -9.5 104.499 -28.5z" />
    <glyph glyph-name="Omacron" unicode="&#x14c;" horiz-adv-x="832" 
d="M234 38c-55.333 32 -99 75.667 -131 131s-48 115.666 -48 180.999s16 125.666 48 180.999s75.667 99 131 131s116 48 182 48s126.667 -16 182 -48s99 -75.667 131 -131s48 -115.666 48 -180.999s-16 -125.666 -48 -180.999s-75.667 -99 -131 -131s-116 -48 -182 -48
s-126.667 16 -182 48zM555.5 103c42.333 25.333 76 59.666 101 102.999s37.5 91.333 37.5 144s-12.5 100.667 -37.5 144s-58.667 77.666 -101 102.999s-88.833 38 -139.5 38s-97.167 -12.667 -139.5 -38s-76 -59.666 -101 -102.999s-37.5 -91.333 -37.5 -144
s12.5 -100.667 37.5 -144s58.667 -77.666 101 -102.999s88.833 -38 139.5 -38s97.167 12.667 139.5 38zM558 799h-284v66h284v-66z" />
    <glyph glyph-name="omacron" unicode="&#x14d;" horiz-adv-x="592" 
d="M167.5 23.5c-39 22.333 -70 53 -93 92s-34.5 82.167 -34.5 129.5s11.5 90.5 34.5 129.5s54 69.667 93 92s81.833 33.5 128.5 33.5s89.5 -11.167 128.5 -33.5s70 -53 93 -92s34.5 -82.167 34.5 -129.5s-11.5 -90.5 -34.5 -129.5s-54 -69.667 -93 -92
s-81.833 -33.5 -128.5 -33.5s-89.5 11.167 -128.5 33.5zM385.5 84.5c27 16.333 48.5 38.5 64.5 66.5s24 59.333 24 94s-8 66 -24 94s-37.5 50.167 -64.5 66.5s-56.833 24.5 -89.5 24.5s-62.5 -8.16699 -89.5 -24.5s-48.5 -38.5 -64.5 -66.5s-24 -59.333 -24 -94
s8 -66 24 -94s37.5 -50.167 64.5 -66.5s56.833 -24.5 89.5 -24.5s62.5 8.16699 89.5 24.5zM438 594h-284v66h284v-66z" />
    <glyph glyph-name="Obreve" unicode="&#x14e;" horiz-adv-x="832" 
d="M234 38c-55.333 32 -99 75.667 -131 131s-48 115.666 -48 180.999s16 125.666 48 180.999s75.667 99 131 131s116 48 182 48s126.667 -16 182 -48s99 -75.667 131 -131s48 -115.666 48 -180.999s-16 -125.666 -48 -180.999s-75.667 -99 -131 -131s-116 -48 -182 -48
s-126.667 16 -182 48zM555.5 103c42.333 25.333 76 59.666 101 102.999s37.5 91.333 37.5 144s-12.5 100.667 -37.5 144s-58.667 77.666 -101 102.999s-88.833 38 -139.5 38s-97.167 -12.667 -139.5 -38s-76 -59.666 -101 -102.999s-37.5 -91.333 -37.5 -144
s12.5 -100.667 37.5 -144s58.667 -77.666 101 -102.999s88.833 -38 139.5 -38s97.167 12.667 139.5 38zM307 795.5c-28 25.667 -43.333 58.834 -46 99.501h68c2.66699 -24.667 11.667 -43.334 27 -56.001s35.333 -19 60 -19s44.667 6.33301 60 19s24.333 31.334 27 56.001
h68c-2.66699 -40.667 -18 -73.834 -46 -99.501s-64.333 -38.5 -109 -38.5s-81 12.833 -109 38.5z" />
    <glyph glyph-name="obreve" unicode="&#x14f;" horiz-adv-x="592" 
d="M167.5 23.5c-39 22.333 -70 53 -93 92s-34.5 82.167 -34.5 129.5s11.5 90.5 34.5 129.5s54 69.667 93 92s81.833 33.5 128.5 33.5s89.5 -11.167 128.5 -33.5s70 -53 93 -92s34.5 -82.167 34.5 -129.5s-11.5 -90.5 -34.5 -129.5s-54 -69.667 -93 -92
s-81.833 -33.5 -128.5 -33.5s-89.5 11.167 -128.5 33.5zM385.5 84.5c27 16.333 48.5 38.5 64.5 66.5s24 59.333 24 94s-8 66 -24 94s-37.5 50.167 -64.5 66.5s-56.833 24.5 -89.5 24.5s-62.5 -8.16699 -89.5 -24.5s-48.5 -38.5 -64.5 -66.5s-24 -59.333 -24 -94
s8 -66 24 -94s37.5 -50.167 64.5 -66.5s56.833 -24.5 89.5 -24.5s62.5 8.16699 89.5 24.5zM187 590.5c-28 25.667 -43.333 58.834 -46 99.501h68c2.66699 -24.667 11.667 -43.334 27 -56.001s35.333 -19 60 -19s44.667 6.33301 60 19s24.333 31.334 27 56.001h68
c-2.66699 -40.667 -18 -73.834 -46 -99.501s-64.333 -38.5 -109 -38.5s-81 12.833 -109 38.5z" />
    <glyph glyph-name="Ohungarumlaut" unicode="&#x150;" horiz-adv-x="832" 
d="M234 38c-55.333 32 -99 75.667 -131 131s-48 115.666 -48 180.999s16 125.666 48 180.999s75.667 99 131 131s116 48 182 48s126.667 -16 182 -48s99 -75.667 131 -131s48 -115.666 48 -180.999s-16 -125.666 -48 -180.999s-75.667 -99 -131 -131s-116 -48 -182 -48
s-126.667 16 -182 48zM555.5 103c42.333 25.333 76 59.666 101 102.999s37.5 91.333 37.5 144s-12.5 100.667 -37.5 144s-58.667 77.666 -101 102.999s-88.833 38 -139.5 38s-97.167 -12.667 -139.5 -38s-76 -59.666 -101 -102.999s-37.5 -91.333 -37.5 -144
s12.5 -100.667 37.5 -144s58.667 -77.666 101 -102.999s88.833 -38 139.5 -38s97.167 12.667 139.5 38zM378 765h-74l90 140h84zM514 765h-73l94 140h83z" />
    <glyph glyph-name="ohungarumlaut" unicode="&#x151;" horiz-adv-x="592" 
d="M167.5 23.5c-39 22.333 -70 53 -93 92s-34.5 82.167 -34.5 129.5s11.5 90.5 34.5 129.5s54 69.667 93 92s81.833 33.5 128.5 33.5s89.5 -11.167 128.5 -33.5s70 -53 93 -92s34.5 -82.167 34.5 -129.5s-11.5 -90.5 -34.5 -129.5s-54 -69.667 -93 -92
s-81.833 -33.5 -128.5 -33.5s-89.5 11.167 -128.5 33.5zM385.5 84.5c27 16.333 48.5 38.5 64.5 66.5s24 59.333 24 94s-8 66 -24 94s-37.5 50.167 -64.5 66.5s-56.833 24.5 -89.5 24.5s-62.5 -8.16699 -89.5 -24.5s-48.5 -38.5 -64.5 -66.5s-24 -59.333 -24 -94
s8 -66 24 -94s37.5 -50.167 64.5 -66.5s56.833 -24.5 89.5 -24.5s62.5 8.16699 89.5 24.5zM255 560h-74l90 140h84zM391 560h-73l94 140h83z" />
    <glyph glyph-name="OE" unicode="&#x152;" horiz-adv-x="1105" 
d="M740 75l300 0.00195312v-75h-380v117c-68 -84.667 -155.333 -127 -262 -127c-62.667 0 -120.167 16 -172.5 48s-93.833 75.667 -124.5 131s-46 115.666 -46 180.999s15.333 125.666 46 180.999s72.167 99 124.5 131s109.833 48 172.5 48c106.667 0 194 -42.333 262 -127
v117h370v-75h-290v-225h280v-75h-280v-250zM530 103.002c40 25.333 71.667 59.666 95 102.999s35 91.333 35 144s-11.667 100.667 -35 144s-55 77.666 -95 102.999s-83.667 38 -131 38s-91 -12.667 -131 -38s-71.667 -59.666 -95 -102.999s-35 -91.333 -35 -144
s11.667 -100.667 35 -144s55 -77.666 95 -102.999s83.667 -38 131 -38s91 12.667 131 38z" />
    <glyph glyph-name="oe" unicode="&#x153;" horiz-adv-x="967" 
d="M813.5 469c36.333 -20.667 65.168 -49.333 86.501 -86s32 -78.667 32 -126c0 -16 -0.666992 -28.333 -2 -37h-397c4.66699 -48.667 21.667 -87.5 51 -116.5s66.333 -43.5 111 -43.5c32.667 0 61.167 7.33301 85.5 22s44.166 35.667 59.499 63h80
c-20 -50 -49.333 -88.333 -88 -115s-84.334 -40 -137.001 -40c-43.333 0 -82.666 10.167 -117.999 30.5s-63.333 49.166 -84 86.499c-21.333 -37.333 -50.166 -66.166 -86.499 -86.499s-76.5 -30.5 -120.5 -30.5c-43.333 0 -83.833 10.833 -121.5 32.5
s-67.834 52 -90.501 91s-34 82.833 -34 131.5s11.333 92.5 34 131.5s52.834 69.333 90.501 91s78.167 32.5 121.5 32.5c44 0 84.167 -10.333 120.5 -31s65.166 -50 86.499 -88c20 36.667 48 65.667 84 87s75.333 32 118 32s82.167 -10.333 118.5 -31zM369.502 83.501
c25.667 15.667 46.167 37.667 61.5 66s23 60.166 23 95.499s-7.66699 67.166 -23 95.499s-35.833 50.333 -61.5 66s-53.5 23.5 -83.5 23.5s-57.833 -7.83301 -83.5 -23.5s-46.167 -37.667 -61.5 -66s-23 -60.166 -23 -95.499s7.66699 -67.166 23 -95.499
s35.833 -50.333 61.5 -66s53.5 -23.5 83.5 -23.5s57.833 7.83301 83.5 23.5zM589.502 392.001c-28.333 -25.333 -46.167 -60 -53.5 -104h317c-4.66699 42 -22 76.167 -52 102.5s-65.333 39.5 -106 39.5c-42 0 -77.167 -12.667 -105.5 -38z" />
    <glyph glyph-name="Racute" unicode="&#x154;" horiz-adv-x="610" 
d="M505 0l-248 299.999h-82v-300h-80v700h205c44.667 0 84.167 -8.66699 118.5 -26s61 -41.166 80 -71.499s28.5 -64.5 28.5 -102.5c0 -50 -15.833 -92.833 -47.5 -128.5s-74.167 -58.167 -127.5 -67.5l253 -304h-100zM175 624.999v-250h125c44 0 79 11.333 105 34
s39 53 39 91s-13 68.333 -39 91s-61 34 -105 34h-125zM323 764.999h-73l90 140h83z" />
    <glyph glyph-name="racute" unicode="&#x155;" horiz-adv-x="355" 
d="M345 495v-70.001h-50c-26.667 0 -51 -6.16699 -73 -18.5s-39.5 -29.5 -52.5 -51.5s-19.5 -47 -19.5 -75v-280h-75v490h75v-70c20 24.667 43.167 43.334 69.5 56.001s54.833 19 85.5 19h40zM241 559.999h-73l90 140h83z" />
    <glyph glyph-name="uni0156" unicode="&#x156;" horiz-adv-x="610" 
d="M505 0l-248 299.999h-82v-300h-80v700h205c44.667 0 84.167 -8.66699 118.5 -26s61 -41.166 80 -71.499s28.5 -64.5 28.5 -102.5c0 -50 -15.833 -92.833 -47.5 -128.5s-74.167 -58.167 -127.5 -67.5l253 -304h-100zM175 624.999v-250h125c44 0 79 11.333 105 34
s39 53 39 91s-13 68.333 -39 91s-61 34 -105 34h-125zM303 -255.001h-69l47 170h84z" />
    <glyph glyph-name="uni0157" unicode="&#x157;" horiz-adv-x="355" 
d="M345 495v-70.001h-50c-26.667 0 -51 -6.16699 -73 -18.5s-39.5 -29.5 -52.5 -51.5s-19.5 -47 -19.5 -75v-280h-75v490h75v-70c20 24.667 43.167 43.334 69.5 56.001s54.833 19 85.5 19h40zM90 -255.001h-69l47 170h84z" />
    <glyph glyph-name="Rcaron" unicode="&#x158;" horiz-adv-x="610" 
d="M505 0l-248 299.999h-82v-300h-80v700h205c44.667 0 84.167 -8.66699 118.5 -26s61 -41.166 80 -71.499s28.5 -64.5 28.5 -102.5c0 -50 -15.833 -92.833 -47.5 -128.5s-74.167 -58.167 -127.5 -67.5l253 -304h-100zM175 624.999v-250h125c44 0 79 11.333 105 34
s39 53 39 91s-13 68.333 -39 91s-61 34 -105 34h-125zM332 764.999h-65l-124 135h80l76 -84l76 84h81z" />
    <glyph glyph-name="rcaron" unicode="&#x159;" horiz-adv-x="355" 
d="M345 495v-70.001h-50c-26.667 0 -51 -6.16699 -73 -18.5s-39.5 -29.5 -52.5 -51.5s-19.5 -47 -19.5 -75v-280h-75v490h75v-70c20 24.667 43.167 43.334 69.5 56.001s54.833 19 85.5 19h40zM250 559.999h-65l-124 135h80l76 -84l76 84h81z" />
    <glyph glyph-name="Sacute" unicode="&#x15a;" horiz-adv-x="562" 
d="M162 17c-35.333 18 -62.498 43 -81.498 75s-29.167 68 -30.5 108h80c1.33301 -39.333 15.666 -71.666 42.999 -96.999s65.333 -38 114 -38c43.333 0 77.833 10.333 103.5 31s38.5 48.667 38.5 84c0 27.333 -7.16699 49.833 -21.5 67.5s-32.166 31.5 -53.499 41.5
s-50 20.667 -86 32c-44 15.333 -79 29.5 -105 42.5s-48.333 32.5 -67 58.5s-28 60.333 -28 103c0 34.667 9.33301 66 28 94s44.5 50.167 77.5 66.5s70.167 24.5 111.5 24.5c39.333 0 75.166 -8.5 107.499 -25.5s58.166 -40.5 77.499 -70.5s29.333 -63 30 -99h-80
c-1.33301 35.333 -15 64.166 -41 86.499s-58.333 33.5 -97 33.5c-38 0 -69.333 -9.33301 -94 -28s-37 -46 -37 -82c0 -25.333 6.83301 -46.333 20.5 -63s30.667 -29.667 51 -39s48.5 -20.333 84.5 -33c43.333 -14 78.833 -28 106.5 -42s51 -34.5 70 -61.5
s28.5 -62.5 28.5 -106.5c0 -36 -9.83301 -68.5 -29.5 -97.5s-46.5 -51.667 -80.5 -68s-72.333 -24.5 -115 -24.5c-48 0 -89.667 9 -125 27zM309.002 765h-73l90 140h83z" />
    <glyph glyph-name="sacute" unicode="&#x15b;" horiz-adv-x="483" 
d="M145.5 10c-29 13.333 -51.833 31.667 -68.5 55s-25.667 50 -27 80h75c2 -25.333 13.667 -45.833 35 -61.5s50 -23.5 86 -23.5c30 0 54.833 6.33301 74.5 19s29.5 30.667 29.5 54c0 18 -5.33301 32.5 -16 43.5s-23.834 19.167 -39.501 24.5s-37.834 11.333 -66.501 18
c-36 8 -64.667 16.167 -86 24.5s-39.666 21.833 -54.999 40.5s-23 44 -23 76c0 26 8 49.667 24 71s37.5 38.166 64.5 50.499s56.5 18.5 88.5 18.5c31.333 0 60.166 -6.66699 86.499 -20s47.5 -31.333 63.5 -54s24.333 -48 25 -76h-75
c-1.33301 22.667 -11.666 41.667 -30.999 57s-43.666 23 -72.999 23c-26.667 0 -49.167 -6.33301 -67.5 -19s-27.5 -29.667 -27.5 -51c0 -16 5.16699 -29 15.5 -39s23 -17.667 38 -23s36.167 -11.333 63.5 -18c36 -8 65.167 -16.5 87.5 -25.5s41.5 -23.167 57.5 -42.5
s24 -45.666 24 -78.999c0 -42.667 -17.667 -77.167 -53 -103.5s-79 -39.5 -131 -39.5c-36.667 0 -69.5 6.66699 -98.5 20zM270 560.001h-73l90 140h83z" />
    <glyph glyph-name="Scircumflex" unicode="&#x15c;" horiz-adv-x="562" 
d="M162 17c-35.333 18 -62.498 43 -81.498 75s-29.167 68 -30.5 108h80c1.33301 -39.333 15.666 -71.666 42.999 -96.999s65.333 -38 114 -38c43.333 0 77.833 10.333 103.5 31s38.5 48.667 38.5 84c0 27.333 -7.16699 49.833 -21.5 67.5s-32.166 31.5 -53.499 41.5
s-50 20.667 -86 32c-44 15.333 -79 29.5 -105 42.5s-48.333 32.5 -67 58.5s-28 60.333 -28 103c0 34.667 9.33301 66 28 94s44.5 50.167 77.5 66.5s70.167 24.5 111.5 24.5c39.333 0 75.166 -8.5 107.499 -25.5s58.166 -40.5 77.499 -70.5s29.333 -63 30 -99h-80
c-1.33301 35.333 -15 64.166 -41 86.499s-58.333 33.5 -97 33.5c-38 0 -69.333 -9.33301 -94 -28s-37 -46 -37 -82c0 -25.333 6.83301 -46.333 20.5 -63s30.667 -29.667 51 -39s48.5 -20.333 84.5 -33c43.333 -14 78.833 -28 106.5 -42s51 -34.5 70 -61.5
s28.5 -62.5 28.5 -106.5c0 -36 -9.83301 -68.5 -29.5 -97.5s-46.5 -51.667 -80.5 -68s-72.333 -24.5 -115 -24.5c-48 0 -89.667 9 -125 27zM210.002 765h-81l124 135h65l124 -135h-80l-76 84z" />
    <glyph glyph-name="scircumflex" unicode="&#x15d;" horiz-adv-x="483" 
d="M145.5 10c-29 13.333 -51.833 31.667 -68.5 55s-25.667 50 -27 80h75c2 -25.333 13.667 -45.833 35 -61.5s50 -23.5 86 -23.5c30 0 54.833 6.33301 74.5 19s29.5 30.667 29.5 54c0 18 -5.33301 32.5 -16 43.5s-23.834 19.167 -39.501 24.5s-37.834 11.333 -66.501 18
c-36 8 -64.667 16.167 -86 24.5s-39.666 21.833 -54.999 40.5s-23 44 -23 76c0 26 8 49.667 24 71s37.5 38.166 64.5 50.499s56.5 18.5 88.5 18.5c31.333 0 60.166 -6.66699 86.499 -20s47.5 -31.333 63.5 -54s24.333 -48 25 -76h-75
c-1.33301 22.667 -11.666 41.667 -30.999 57s-43.666 23 -72.999 23c-26.667 0 -49.167 -6.33301 -67.5 -19s-27.5 -29.667 -27.5 -51c0 -16 5.16699 -29 15.5 -39s23 -17.667 38 -23s36.167 -11.333 63.5 -18c36 -8 65.167 -16.5 87.5 -25.5s41.5 -23.167 57.5 -42.5
s24 -45.666 24 -78.999c0 -42.667 -17.667 -77.167 -53 -103.5s-79 -39.5 -131 -39.5c-36.667 0 -69.5 6.66699 -98.5 20zM171 560.001h-81l124 135h65l124 -135h-80l-76 84z" />
    <glyph glyph-name="Scedilla" unicode="&#x15e;" horiz-adv-x="562" 
d="M486 87.5c-17.333 -27.667 -41.3301 -49.998 -71.9971 -66.998s-65.334 -26.833 -104.001 -29.5l-14 -30c25.333 -2.66699 44.5 -11.334 57.5 -26.001s19.5 -31.334 19.5 -50.001c0 -28 -9 -49.167 -27 -63.5s-40.667 -21.5 -68 -21.5h-55v50h45
c14.667 0 25.834 3.16699 33.501 9.5s11.5 14.833 11.5 25.5s-3.83301 19.167 -11.5 25.5s-18.834 9.5 -33.501 9.5h-32v35l16 37c-62 6.66699 -110.833 29 -146.5 67s-54.167 85 -55.5 141h80c1.33301 -39.333 15.666 -71.666 42.999 -96.999s65.333 -38 114 -38
c43.333 0 77.833 10.333 103.5 31s38.5 48.667 38.5 84c0 27.333 -7.16699 49.833 -21.5 67.5s-32.166 31.5 -53.499 41.5s-50 20.667 -86 32c-44 15.333 -79 29.5 -105 42.5s-48.333 32.5 -67 58.5s-28 60.333 -28 103c0 34.667 9.33301 66 28 94s44.5 50.167 77.5 66.5
s70.167 24.5 111.5 24.5c39.333 0 75.166 -8.5 107.499 -25.5s58.166 -40.5 77.499 -70.5s29.333 -63 30 -99h-80c-1.33301 35.333 -15 64.166 -41 86.499s-58.333 33.5 -97 33.5c-38 0 -69.333 -9.33301 -94 -28s-37 -46 -37 -82c0 -25.333 6.83301 -46.333 20.5 -63
s30.667 -29.667 51 -39s48.5 -20.333 84.5 -33c43.333 -14 78.833 -28 106.5 -42s51 -34.5 70 -61.5s28.5 -62.5 28.5 -106.5c0 -34 -8.66699 -64.833 -26 -92.5z" />
    <glyph glyph-name="scedilla" unicode="&#x15f;" horiz-adv-x="483" 
d="M383.5 36.5c-29.667 -25.667 -67.167 -40.8301 -112.5 -45.4971l-14 -30c25.333 -2.66699 44.5 -11.334 57.5 -26.001s19.5 -31.334 19.5 -50.001c0 -28 -9 -49.167 -27 -63.5s-40.667 -21.5 -68 -21.5h-55v50h45c14.667 0 25.834 3.16699 33.501 9.5
s11.5 14.833 11.5 25.5s-3.83301 19.167 -11.5 25.5s-18.834 9.5 -33.501 9.5h-32v35l16 37c-47.333 4.66699 -85.833 21 -115.5 49s-45.5 62.667 -47.5 104h75c2 -25.333 13.667 -45.833 35 -61.5s50 -23.5 86 -23.5c30 0 54.833 6.33301 74.5 19s29.5 30.667 29.5 54
c0 18 -5.33301 32.5 -16 43.5s-23.834 19.167 -39.501 24.5s-37.834 11.333 -66.501 18c-36 8 -64.667 16.167 -86 24.5s-39.666 21.833 -54.999 40.5s-23 44 -23 76c0 26 8 49.667 24 71s37.5 38.166 64.5 50.499s56.5 18.5 88.5 18.5c31.333 0 60.166 -6.66699 86.499 -20
s47.5 -31.333 63.5 -54s24.333 -48 25 -76h-75c-1.33301 22.667 -11.666 41.667 -30.999 57s-43.666 23 -72.999 23c-26.667 0 -49.167 -6.33301 -67.5 -19s-27.5 -29.667 -27.5 -51c0 -16 5.16699 -29 15.5 -39s23 -17.667 38 -23s36.167 -11.333 63.5 -18
c36 -8 65.167 -16.5 87.5 -25.5s41.5 -23.167 57.5 -42.5s24 -45.666 24 -78.999c0 -38.667 -14.833 -70.834 -44.5 -96.501z" />
    <glyph glyph-name="Scaron" unicode="&#x160;" horiz-adv-x="562" 
d="M162 17c-35.333 18 -62.498 43 -81.498 75s-29.167 68 -30.5 108h80c1.33301 -39.333 15.666 -71.666 42.999 -96.999s65.333 -38 114 -38c43.333 0 77.833 10.333 103.5 31s38.5 48.667 38.5 84c0 27.333 -7.16699 49.833 -21.5 67.5s-32.166 31.5 -53.499 41.5
s-50 20.667 -86 32c-44 15.333 -79 29.5 -105 42.5s-48.333 32.5 -67 58.5s-28 60.333 -28 103c0 34.667 9.33301 66 28 94s44.5 50.167 77.5 66.5s70.167 24.5 111.5 24.5c39.333 0 75.166 -8.5 107.499 -25.5s58.166 -40.5 77.499 -70.5s29.333 -63 30 -99h-80
c-1.33301 35.333 -15 64.166 -41 86.499s-58.333 33.5 -97 33.5c-38 0 -69.333 -9.33301 -94 -28s-37 -46 -37 -82c0 -25.333 6.83301 -46.333 20.5 -63s30.667 -29.667 51 -39s48.5 -20.333 84.5 -33c43.333 -14 78.833 -28 106.5 -42s51 -34.5 70 -61.5
s28.5 -62.5 28.5 -106.5c0 -36 -9.83301 -68.5 -29.5 -97.5s-46.5 -51.667 -80.5 -68s-72.333 -24.5 -115 -24.5c-48 0 -89.667 9 -125 27zM318.002 765h-65l-124 135h80l76 -84l76 84h81z" />
    <glyph glyph-name="scaron" unicode="&#x161;" horiz-adv-x="483" 
d="M145.5 10c-29 13.333 -51.833 31.667 -68.5 55s-25.667 50 -27 80h75c2 -25.333 13.667 -45.833 35 -61.5s50 -23.5 86 -23.5c30 0 54.833 6.33301 74.5 19s29.5 30.667 29.5 54c0 18 -5.33301 32.5 -16 43.5s-23.834 19.167 -39.501 24.5s-37.834 11.333 -66.501 18
c-36 8 -64.667 16.167 -86 24.5s-39.666 21.833 -54.999 40.5s-23 44 -23 76c0 26 8 49.667 24 71s37.5 38.166 64.5 50.499s56.5 18.5 88.5 18.5c31.333 0 60.166 -6.66699 86.499 -20s47.5 -31.333 63.5 -54s24.333 -48 25 -76h-75
c-1.33301 22.667 -11.666 41.667 -30.999 57s-43.666 23 -72.999 23c-26.667 0 -49.167 -6.33301 -67.5 -19s-27.5 -29.667 -27.5 -51c0 -16 5.16699 -29 15.5 -39s23 -17.667 38 -23s36.167 -11.333 63.5 -18c36 -8 65.167 -16.5 87.5 -25.5s41.5 -23.167 57.5 -42.5
s24 -45.666 24 -78.999c0 -42.667 -17.667 -77.167 -53 -103.5s-79 -39.5 -131 -39.5c-36.667 0 -69.5 6.66699 -98.5 20zM279 560.001h-65l-124 135h80l76 -84l76 84h81z" />
    <glyph glyph-name="uni0162" unicode="&#x162;" horiz-adv-x="490" 
d="M285 0l-12 0.00195312l-18 -39c25.333 -2.66699 44.5 -11.334 57.5 -26.001s19.5 -31.334 19.5 -50.001c0 -28 -9 -49.167 -27 -63.5s-40.667 -21.5 -68 -21.5h-55v50h45c14.667 0 25.834 3.16699 33.501 9.5s11.5 14.833 11.5 25.5s-3.83301 19.167 -11.5 25.5
s-18.834 9.5 -33.501 9.5h-32v35l20 45h-10v625h-180v75h440v-75h-180v-625z" />
    <glyph glyph-name="uni0163" unicode="&#x163;" horiz-adv-x="350" 
d="M310 422l-125 0.00195312v-272c0 -24.667 7.16699 -44.167 21.5 -58.5s33.833 -21.5 58.5 -21.5h45v-70h-50c-9.33301 0 -16.333 0.333008 -21 1l-19 -40c25.333 -2.66699 44.5 -11.334 57.5 -26.001s19.5 -31.334 19.5 -50.001c0 -28 -9 -49.167 -27 -63.5
s-40.667 -21.5 -68 -21.5h-55v50h45c14.667 0 25.834 3.16699 33.501 9.5s11.5 14.833 11.5 25.5s-3.83301 19.167 -11.5 25.5s-18.834 9.5 -33.501 9.5h-32v35l27 61c-24 11.333 -42.833 28.333 -56.5 51s-20.5 48.667 -20.5 78v277h-80v68h80v130h75v-130h125v-68z" />
    <glyph glyph-name="Tcaron" unicode="&#x164;" horiz-adv-x="490" 
d="M285 0h-80v625h-180v75h440v-75h-180v-625zM277 765h-65l-124 135h80l76 -84l76 84h81z" />
    <glyph glyph-name="tcaron" unicode="&#x165;" horiz-adv-x="350" 
d="M310 422h-124.999v-272c0 -24.667 7.16699 -44.167 21.5 -58.5s33.833 -21.5 58.5 -21.5h45v-70h-50c-44.667 0 -80.834 13.5 -108.501 40.5s-41.5 61.833 -41.5 104.5v277h-80v68h80v130h75v-130h125v-68zM307.001 560h-61l20 160h74z" />
    <glyph glyph-name="Tbar" unicode="&#x166;" horiz-adv-x="490" 
d="M465 700v-75h-180v-252h155v-70h-155v-303h-80v303h-155v70h155v252h-180v75h440z" />
    <glyph glyph-name="tbar" unicode="&#x167;" horiz-adv-x="350" 
d="M310 422h-124.999v-107h115v-65h-115v-100c0 -24.667 7.16699 -44.167 21.5 -58.5s33.833 -21.5 58.5 -21.5h45v-70h-50c-44.667 0 -80.834 13.5 -108.501 40.5s-41.5 61.833 -41.5 104.5v105h-70v65h70v107h-80v68h80v130h75v-130h125v-68z" />
    <glyph glyph-name="Umacron" unicode="&#x16a;" horiz-adv-x="694" 
d="M209.5 23.5c-39.667 22.333 -70.332 53.833 -91.999 94.5s-32.5 87.334 -32.5 140.001v442h80v-442c0 -58 16.333 -104.667 49 -140s77 -53 133 -53s100.333 17.667 133 53s49 82 49 140v442h80v-442c0 -52.667 -10.833 -99.334 -32.5 -140.001
s-52.334 -72.167 -92.001 -94.5s-85.5 -33.5 -137.5 -33.5s-97.833 11.167 -137.5 33.5zM489.002 799h-284v66h284v-66z" />
    <glyph glyph-name="umacron" unicode="&#x16b;" horiz-adv-x="566" 
d="M171.5 17.5c-32.333 18.333 -57.3311 43.833 -74.998 76.5s-26.5 69.667 -26.5 111v285h75v-285c0 -42.667 12.667 -77.5 38 -104.5s58.666 -40.5 99.999 -40.5s74.666 13.5 99.999 40.5s38 61.833 38 104.5v285h75v-285c0 -41.333 -8.83301 -78.333 -26.5 -111
s-42.667 -58.167 -75 -76.5s-69.5 -27.5 -111.5 -27.5s-79.167 9.16699 -111.5 27.5zM425.002 594h-284v66h284v-66z" />
    <glyph glyph-name="Ubreve" unicode="&#x16c;" horiz-adv-x="694" 
d="M209.5 23.5c-39.667 22.333 -70.332 53.833 -91.999 94.5s-32.5 87.334 -32.5 140.001v442h80v-442c0 -58 16.333 -104.667 49 -140s77 -53 133 -53s100.333 17.667 133 53s49 82 49 140v442h80v-442c0 -52.667 -10.833 -99.334 -32.5 -140.001
s-52.334 -72.167 -92.001 -94.5s-85.5 -33.5 -137.5 -33.5s-97.833 11.167 -137.5 33.5zM238.002 795.5c-28 25.667 -43.333 58.834 -46 99.501h68c2.66699 -24.667 11.667 -43.334 27 -56.001s35.333 -19 60 -19s44.667 6.33301 60 19s24.333 31.334 27 56.001h68
c-2.66699 -40.667 -18 -73.834 -46 -99.501s-64.333 -38.5 -109 -38.5s-81 12.833 -109 38.5z" />
    <glyph glyph-name="ubreve" unicode="&#x16d;" horiz-adv-x="566" 
d="M171.5 17.5c-32.333 18.333 -57.3311 43.833 -74.998 76.5s-26.5 69.667 -26.5 111v285h75v-285c0 -42.667 12.667 -77.5 38 -104.5s58.666 -40.5 99.999 -40.5s74.666 13.5 99.999 40.5s38 61.833 38 104.5v285h75v-285c0 -41.333 -8.83301 -78.333 -26.5 -111
s-42.667 -58.167 -75 -76.5s-69.5 -27.5 -111.5 -27.5s-79.167 9.16699 -111.5 27.5zM174.002 590.5c-28 25.667 -43.333 58.834 -46 99.501h68c2.66699 -24.667 11.667 -43.334 27 -56.001s35.333 -19 60 -19s44.667 6.33301 60 19s24.333 31.334 27 56.001h68
c-2.66699 -40.667 -18 -73.834 -46 -99.501s-64.333 -38.5 -109 -38.5s-81 12.833 -109 38.5z" />
    <glyph glyph-name="Uring" unicode="&#x16e;" horiz-adv-x="694" 
d="M209.5 23.5c-39.667 22.333 -70.332 53.833 -91.999 94.5s-32.5 87.334 -32.5 140.001v442h80v-442c0 -58 16.333 -104.667 49 -140s77 -53 133 -53s100.333 17.667 133 53s49 82 49 140v442h80v-442c0 -52.667 -10.833 -99.334 -32.5 -140.001
s-52.334 -72.167 -92.001 -94.5s-85.5 -33.5 -137.5 -33.5s-97.833 11.167 -137.5 33.5zM278.002 777c-18 18 -27 40 -27 66s9 48 27 66s41 27 69 27s51 -9 69 -27s27 -40 27 -66s-9 -48 -27 -66s-41 -27 -69 -27s-51 9 -69 27zM378.002 812c8 8 12 18.333 12 31
s-4 23 -12 31s-18.333 12 -31 12s-23 -4 -31 -12s-12 -18.333 -12 -31s4 -23 12 -31s18.333 -12 31 -12s23 4 31 12z" />
    <glyph glyph-name="uring" unicode="&#x16f;" horiz-adv-x="566" 
d="M171.5 17.5c-32.333 18.333 -57.3311 43.833 -74.998 76.5s-26.5 69.667 -26.5 111v285h75v-285c0 -42.667 12.667 -77.5 38 -104.5s58.666 -40.5 99.999 -40.5s74.666 13.5 99.999 40.5s38 61.833 38 104.5v285h75v-285c0 -41.333 -8.83301 -78.333 -26.5 -111
s-42.667 -58.167 -75 -76.5s-69.5 -27.5 -111.5 -27.5s-79.167 9.16699 -111.5 27.5zM214.002 572c-18 18 -27 40 -27 66s9 48 27 66s41 27 69 27s51 -9 69 -27s27 -40 27 -66s-9 -48 -27 -66s-41 -27 -69 -27s-51 9 -69 27zM314.002 607c8 8 12 18.333 12 31s-4 23 -12 31
s-18.333 12 -31 12s-23 -4 -31 -12s-12 -18.333 -12 -31s4 -23 12 -31s18.333 -12 31 -12s23 4 31 12z" />
    <glyph glyph-name="Uhungarumlaut" unicode="&#x170;" horiz-adv-x="694" 
d="M209.5 23.5c-39.667 22.333 -70.332 53.833 -91.999 94.5s-32.5 87.334 -32.5 140.001v442h80v-442c0 -58 16.333 -104.667 49 -140s77 -53 133 -53s100.333 17.667 133 53s49 82 49 140v442h80v-442c0 -52.667 -10.833 -99.334 -32.5 -140.001
s-52.334 -72.167 -92.001 -94.5s-85.5 -33.5 -137.5 -33.5s-97.833 11.167 -137.5 33.5zM309.002 765h-74l90 140h84zM445.002 765h-73l94 140h83z" />
    <glyph glyph-name="uhungarumlaut" unicode="&#x171;" horiz-adv-x="566" 
d="M171.5 17.5c-32.333 18.333 -57.3311 43.833 -74.998 76.5s-26.5 69.667 -26.5 111v285h75v-285c0 -42.667 12.667 -77.5 38 -104.5s58.666 -40.5 99.999 -40.5s74.666 13.5 99.999 40.5s38 61.833 38 104.5v285h75v-285c0 -41.333 -8.83301 -78.333 -26.5 -111
s-42.667 -58.167 -75 -76.5s-69.5 -27.5 -111.5 -27.5s-79.167 9.16699 -111.5 27.5zM242.002 560h-74l90 140h84zM378.002 560h-73l94 140h83z" />
    <glyph glyph-name="Uogonek" unicode="&#x172;" horiz-adv-x="694" 
d="M529 700l80.0029 0.00195312v-442c0 -54.667 -10.333 -100.667 -31 -138s-48 -67.333 -82 -90c-40.667 -27.333 -68.5 -49 -83.5 -65s-22.5 -33.667 -22.5 -53c0 -16.667 5.5 -29.667 16.5 -39s27.833 -14 50.5 -14h16v-59h-31c-32.667 0 -59.834 9.16699 -81.501 27.5
s-32.5 43.833 -32.5 76.5s14.667 61.667 44 87c-4.66699 -0.666992 -12.667 -1 -24 -1c-52.667 0 -98.834 11.167 -138.501 33.5s-70.334 53.666 -92.001 93.999s-32.5 87.166 -32.5 140.499v442h80v-442c0 -58 16.333 -104.667 49 -140s77 -53 133 -53
s100.333 17.667 133 53s49 82 49 140v442z" />
    <glyph glyph-name="uogonek" unicode="&#x173;" horiz-adv-x="566" 
d="M421 490h75.0049v-285c0 -38 -5.83301 -69.667 -17.5 -95s-27.834 -47.666 -48.501 -66.999c-36.667 -35.333 -61.667 -61.333 -75 -78s-20 -34.334 -20 -53.001c0 -16.667 5.5 -29.667 16.5 -39s27.833 -14 50.5 -14h16v-59h-31c-32.667 0 -59.834 9.16699 -81.501 27.5
s-32.5 43.833 -32.5 76.5c0 18.667 4.16699 35.5 12.5 50.5s19.166 27.167 32.499 36.5l-35 -1c-42 0 -79.167 9.16699 -111.5 27.5s-57.333 43.833 -75 76.5s-26.5 69.667 -26.5 111v285h75v-285c0 -42.667 12.667 -77.5 38 -104.5s58.666 -40.5 99.999 -40.5
s74.666 13.5 99.999 40.5s38 61.833 38 104.5v285z" />
    <glyph glyph-name="Wcircumflex" unicode="&#x174;" horiz-adv-x="980" 
d="M696 152l176 548h83l-235 -700h-51l-180 546l-180 -546h-49l-235 700h85l175 -545l180 545h50zM414 765h-81l124 135h65l124 -135h-80l-76 84z" />
    <glyph glyph-name="wcircumflex" unicode="&#x175;" horiz-adv-x="800" 
d="M571 117l141 373h78l-195 -490h-51l-145 364l-145 -364h-49l-195 490h80l140 -370l145 370h50zM324 560h-81l124 135h65l124 -135h-80l-76 84z" />
    <glyph glyph-name="Ycircumflex" unicode="&#x176;" horiz-adv-x="560" 
d="M281 384l175 316h89l-225 -395v-305h-80v305l-225 395h91zM204 765h-81l124 135h65l124 -135h-80l-76 84z" />
    <glyph glyph-name="ycircumflex" unicode="&#x177;" horiz-adv-x="515" 
d="M262 119l163 371h80l-310 -690h-80l105 235l-215 455h84zM179 560h-81l124 135h65l124 -135h-80l-76 84z" />
    <glyph glyph-name="Ydieresis" unicode="&#x178;" horiz-adv-x="560" 
d="M281 384l175 316h89l-225 -395v-305h-80v305l-225 395h91zM231 789h-87v92h87v-92zM416 789h-87v92h87v-92z" />
    <glyph glyph-name="Zacute" unicode="&#x179;" horiz-adv-x="570" 
d="M505 650l-345 -575h365v-75h-470v50l345 575h-325v75h430v-50zM313 765h-73l90 140h83z" />
    <glyph glyph-name="zacute" unicode="&#x17a;" horiz-adv-x="470" 
d="M420 445l-275 -377h285v-68h-390v45l275 377h-265v68h370v-45zM258 560h-73l90 140h83z" />
    <glyph glyph-name="Zdotaccent" unicode="&#x17b;" horiz-adv-x="570" 
d="M505 650l-345 -575h365v-75h-470v50l345 575h-325v75h430v-50zM333 789h-87v92h87v-92z" />
    <glyph glyph-name="zdotaccent" unicode="&#x17c;" horiz-adv-x="470" 
d="M420 445l-275 -377h285v-68h-390v45l275 377h-265v68h370v-45zM278 584h-87v92h87v-92z" />
    <glyph glyph-name="Zcaron" unicode="&#x17d;" horiz-adv-x="570" 
d="M505 650l-345 -575h365v-75h-470v50l345 575h-325v75h430v-50zM322 765h-65l-124 135h80l76 -84l76 84h81z" />
    <glyph glyph-name="zcaron" unicode="&#x17e;" horiz-adv-x="470" 
d="M420 445l-275 -377h285v-68h-390v45l275 377h-265v68h370v-45zM267 560h-65l-124 135h80l76 -84l76 84h81z" />
    <glyph glyph-name="uni018F" unicode="&#x18f;" horiz-adv-x="807" 
d="M576 662.5c54 -31.667 96.834 -74.999 128.501 -129.999s47.5 -115.833 47.5 -182.5s-15.667 -127.5 -47 -182.5s-73.833 -98.333 -127.5 -130s-112.5 -47.5 -176.5 -47.5c-65.333 0 -124.833 16.167 -178.5 48.5s-95.834 76.166 -126.501 131.499s-46 116 -46 182
c0 8 0.666992 20 2 36h615c-5.33301 47.333 -20.666 89.833 -45.999 127.5s-57.5 67 -96.5 88s-81.5 31.5 -127.5 31.5c-58.667 0 -109 -14.667 -151 -44s-74.667 -68.666 -98 -117.999h-85c25.333 71.333 67.666 128.666 126.999 171.999s128.333 65 207 65
c65.333 0 125 -15.833 179 -47.5zM526.001 97.001c38.667 21.333 70.498 50.833 95.498 88.5s40.167 80.167 45.5 127.5h-532c5.33301 -47.333 20.5 -89.833 45.5 -127.5s56.833 -67.167 95.5 -88.5s80.334 -32 125.001 -32s86.334 10.667 125.001 32z" />
    <glyph glyph-name="florin" unicode="&#x192;" horiz-adv-x="390" 
d="M400 700l-10 -70h-20c-66.667 0 -105 -31.667 -115 -95l-20 -130h120l-10 -65h-120l-50 -330c-7.33301 -50.667 -27.333 -90 -60 -118s-76 -42 -130 -42h-30l10 70h20c66.667 0 105 31.667 115 95l50 325h-100l10 65h99l21 135c7.33301 50.667 27.333 90 60 118
s76 42 130 42h30z" />
    <glyph glyph-name="uni01F4" unicode="&#x1f4;" horiz-adv-x="801" 
d="M391 370h369.997v-30c0 -63.333 -14.667 -121.666 -44 -174.999s-70.166 -95.833 -122.499 -127.5s-111.833 -47.5 -178.5 -47.5c-66 0 -126.667 16 -182 48s-99 75.667 -131 131s-48 115.666 -48 180.999s16 125.666 48 180.999s75.667 99 131 131s116 48 182 48
c76 0 143 -20.333 201 -61s101 -95.334 129 -164.001h-85c-22.667 46 -55.667 82.5 -99 109.5s-92 40.5 -146 40.5c-50.667 0 -97.167 -12.667 -139.5 -38s-76 -59.666 -101 -102.999s-37.5 -91.333 -37.5 -144s12.5 -100.667 37.5 -144s58.667 -77.666 101 -102.999
s88.833 -38 139.5 -38c46 0 87.833 9.5 125.5 28.5s68.334 45.833 92.001 80.5s37.834 75 42.501 121h-285v75zM438.997 765h-73l90 140h83z" />
    <glyph glyph-name="uni01F5" unicode="&#x1f5;" horiz-adv-x="611" 
d="M461 490l75 0.00195312v-460c0 -46 -10.333 -87.333 -31 -124s-49.5 -65.167 -86.5 -85.5s-79.5 -30.5 -127.5 -30.5c-57.333 0 -107 15.167 -149 45.5s-70.667 71.833 -86 124.5h75c12 -30.667 32.167 -55 60.5 -73s61.5 -27 99.5 -27c52 0 93.333 15.667 124 47
s46 72.333 46 123v64c-21.333 -26 -46.833 -46.5 -76.5 -61.5s-62.5 -22.5 -98.5 -22.5c-45.333 0 -86.666 10.333 -123.999 31s-67 49.667 -89 87s-33 79.666 -33 126.999s11 89.666 33 126.999s51.667 66.333 89 87s78.666 31 123.999 31c36 0 68.833 -7.5 98.5 -22.5
s55.167 -35.5 76.5 -61.5v74zM381 103.002c26.667 15.333 47.5 36.333 62.5 63s22.5 56.334 22.5 89.001s-7.5 62.334 -22.5 89.001s-35.833 47.667 -62.5 63s-56.334 23 -89.001 23s-62.334 -7.66699 -89.001 -23s-47.5 -36.333 -62.5 -63s-22.5 -56.334 -22.5 -89.001
s7.5 -62.334 22.5 -89.001s35.833 -47.667 62.5 -63s56.334 -23 89.001 -23s62.334 7.66699 89.001 23zM329 560.002h-73l90 140h83z" />
    <glyph glyph-name="uni0218" unicode="&#x218;" horiz-adv-x="562" 
d="M162 17c-35.333 18 -62.498 43 -81.498 75s-29.167 68 -30.5 108h80c1.33301 -39.333 15.666 -71.666 42.999 -96.999s65.333 -38 114 -38c43.333 0 77.833 10.333 103.5 31s38.5 48.667 38.5 84c0 27.333 -7.16699 49.833 -21.5 67.5s-32.166 31.5 -53.499 41.5
s-50 20.667 -86 32c-44 15.333 -79 29.5 -105 42.5s-48.333 32.5 -67 58.5s-28 60.333 -28 103c0 34.667 9.33301 66 28 94s44.5 50.167 77.5 66.5s70.167 24.5 111.5 24.5c39.333 0 75.166 -8.5 107.499 -25.5s58.166 -40.5 77.499 -70.5s29.333 -63 30 -99h-80
c-1.33301 35.333 -15 64.166 -41 86.499s-58.333 33.5 -97 33.5c-38 0 -69.333 -9.33301 -94 -28s-37 -46 -37 -82c0 -25.333 6.83301 -46.333 20.5 -63s30.667 -29.667 51 -39s48.5 -20.333 84.5 -33c43.333 -14 78.833 -28 106.5 -42s51 -34.5 70 -61.5
s28.5 -62.5 28.5 -106.5c0 -36 -9.83301 -68.5 -29.5 -97.5s-46.5 -51.667 -80.5 -68s-72.333 -24.5 -115 -24.5c-48 0 -89.667 9 -125 27zM264.002 -255h-69l47 170h84z" />
    <glyph glyph-name="uni0219" unicode="&#x219;" horiz-adv-x="483" 
d="M145.5 10c-29 13.333 -51.833 31.667 -68.5 55s-25.667 50 -27 80h75c2 -25.333 13.667 -45.833 35 -61.5s50 -23.5 86 -23.5c30 0 54.833 6.33301 74.5 19s29.5 30.667 29.5 54c0 18 -5.33301 32.5 -16 43.5s-23.834 19.167 -39.501 24.5s-37.834 11.333 -66.501 18
c-36 8 -64.667 16.167 -86 24.5s-39.666 21.833 -54.999 40.5s-23 44 -23 76c0 26 8 49.667 24 71s37.5 38.166 64.5 50.499s56.5 18.5 88.5 18.5c31.333 0 60.166 -6.66699 86.499 -20s47.5 -31.333 63.5 -54s24.333 -48 25 -76h-75
c-1.33301 22.667 -11.666 41.667 -30.999 57s-43.666 23 -72.999 23c-26.667 0 -49.167 -6.33301 -67.5 -19s-27.5 -29.667 -27.5 -51c0 -16 5.16699 -29 15.5 -39s23 -17.667 38 -23s36.167 -11.333 63.5 -18c36 -8 65.167 -16.5 87.5 -25.5s41.5 -23.167 57.5 -42.5
s24 -45.666 24 -78.999c0 -42.667 -17.667 -77.167 -53 -103.5s-79 -39.5 -131 -39.5c-36.667 0 -69.5 6.66699 -98.5 20zM225 -254.999h-69l47 170h84z" />
    <glyph glyph-name="uni021A" unicode="&#x21a;" horiz-adv-x="490" 
d="M285 0h-80v625h-180v75h440v-75h-180v-625zM223 -255h-69l47 170h84z" />
    <glyph glyph-name="uni021B" unicode="&#x21b;" horiz-adv-x="350" 
d="M310 422h-124.999v-272c0 -24.667 7.16699 -44.167 21.5 -58.5s33.833 -21.5 58.5 -21.5h45v-70h-50c-44.667 0 -80.834 13.5 -108.501 40.5s-41.5 61.833 -41.5 104.5v277h-80v68h80v130h75v-130h125v-68zM188.001 -255h-69l47 170h84z" />
    <glyph glyph-name="uni0232" unicode="&#x232;" horiz-adv-x="560" 
d="M281 384l175 316h89l-225 -395v-305h-80v305l-225 395h91zM422 799h-284v66h284v-66z" />
    <glyph glyph-name="uni0233" unicode="&#x233;" horiz-adv-x="515" 
d="M262 119l163 371h80l-310 -690h-80l105 235l-215 455h84zM397 594h-284v66h284v-66z" />
    <glyph glyph-name="uni0237" unicode="&#x237;" horiz-adv-x="225" 
d="M-50 -200l0.000976562 70h45c25.333 0 45 7 59 21s21 33.667 21 59v540h75v-545c0 -42.667 -13.833 -77.5 -41.5 -104.5s-63.834 -40.5 -108.501 -40.5h-50z" />
    <glyph glyph-name="uni0244" unicode="&#x244;" horiz-adv-x="704" 
d="M704 458l0.00195312 -70h-90v-130c0 -52.667 -10.833 -99.334 -32.5 -140.001s-52.334 -72.167 -92.001 -94.5s-85.5 -33.5 -137.5 -33.5s-97.833 11.167 -137.5 33.5s-70.334 53.833 -92.001 94.5s-32.5 87.334 -32.5 140.001v130h-90v70h90v242h80v-242h364v242h80
v-242h90zM534.002 388h-364v-130c0 -58 16.333 -104.667 49 -140s77 -53 133 -53s100.333 17.667 133 53s49 82 49 140v130z" />
    <glyph glyph-name="uni0259" unicode="&#x259;" horiz-adv-x="563" 
d="M402.5 466.5c37.667 -22.333 67.168 -52.833 88.501 -91.5s32 -82 32 -130s-10.667 -91.333 -32 -130s-50.833 -69.167 -88.5 -91.5s-79.5 -33.5 -125.5 -33.5c-44.667 0 -85.5 10.167 -122.5 30.5s-66.167 49 -87.5 86s-32 79.167 -32 126.5c0 16 0.666992 28.333 2 37
h407c-4.66699 48.667 -21.834 87.5 -51.501 116.5s-68.167 43.5 -115.5 43.5c-69.333 0 -119.333 -28.333 -150 -85h-80c20 50 49.667 88.333 89 115s86.333 40 141 40c46 0 87.833 -11.167 125.5 -33.5zM386.501 98c29 25.333 47.168 60 54.501 104h-327
c4.66699 -42.667 22.167 -77 52.5 -103s67.166 -39 110.499 -39c44 0 80.5 12.667 109.5 38z" />
    <glyph glyph-name="uni0289" unicode="&#x289;" horiz-adv-x="576" 
d="M571 345v-65h-70v-75c0 -41.333 -8.83301 -78.333 -26.5 -111s-42.667 -58.167 -75 -76.5s-69.5 -27.5 -111.5 -27.5s-79.167 9.16699 -111.5 27.5s-57.333 43.833 -75 76.5s-26.5 69.667 -26.5 111v75h-70v65h70v145h75v-145h276v145h75v-145h70zM426 280h-275.998v-75
c0 -42.667 12.667 -77.5 38 -104.5s58.666 -40.5 99.999 -40.5s74.666 13.5 99.999 40.5s38 61.833 38 104.5v75z" />
    <glyph glyph-name="uni02BC" unicode="&#x2bc;" horiz-adv-x="215" 
d="M105 470h-70l55 230h90z" />
    <glyph glyph-name="circumflex" unicode="&#x2c6;" horiz-adv-x="373" 
d="M111 560h-81l124 135h65l124 -135h-80l-76 84z" />
    <glyph glyph-name="caron" unicode="&#x2c7;" horiz-adv-x="373" 
d="M219 560h-65l-124 135h80l76 -84l76 84h81z" />
    <glyph glyph-name="breve" unicode="&#x2d8;" horiz-adv-x="370" 
d="M76 590.5c-28 25.667 -43.333 58.834 -46 99.501h68c2.66699 -24.667 11.667 -43.334 27 -56.001s35.333 -19 60 -19s44.667 6.33301 60 19s24.333 31.334 27 56.001h68c-2.66699 -40.667 -18 -73.834 -46 -99.501s-64.333 -38.5 -109 -38.5s-81 12.833 -109 38.5z" />
    <glyph glyph-name="dotaccent" unicode="&#x2d9;" horiz-adv-x="147" 
d="M117 584h-87v92h87v-92z" />
    <glyph glyph-name="ring" unicode="&#x2da;" horiz-adv-x="252" 
d="M57 572c-18 18 -27 40 -27 66s9 48 27 66s41 27 69 27s51 -9 69 -27s27 -40 27 -66s-9 -48 -27 -66s-41 -27 -69 -27s-51 9 -69 27zM157 607c8 8 12 18.333 12 31s-4 23 -12 31s-18.333 12 -31 12s-23 -4 -31 -12s-12 -18.333 -12 -31s4 -23 12 -31s18.333 -12 31 -12
s23 4 31 12z" />
    <glyph glyph-name="ogonek" unicode="&#x2db;" horiz-adv-x="205" 
d="M144 -200c-32.667 0 -59.834 9.16699 -81.501 27.5s-32.5 43.833 -32.5 76.5c0 28 8.83301 51.333 26.5 70s38.834 33 63.501 43l55 -17c-25.333 -7.33301 -45.5 -18.833 -60.5 -34.5s-22.5 -33.5 -22.5 -53.5c0 -16.667 5.5 -29.667 16.5 -39s27.833 -14 50.5 -14h16
v-59h-31z" />
    <glyph glyph-name="tilde" unicode="&#x2dc;" horiz-adv-x="365" 
d="M30 590c0 28.667 7.33301 51.667 22 69s35 26 61 26c14 0 27.5 -3 40.5 -9s27.5 -14.333 43.5 -25c8.66699 -5.33301 17 -10.166 25 -14.499s15 -6.5 21 -6.5c11.333 0 19.5 3.83301 24.5 11.5s7.5 19.167 7.5 34.5v9h60v-20c0 -28.667 -7.33301 -51.667 -22 -69
s-35 -26 -61 -26c-14 0 -27.5 3 -40.5 9s-27.5 14.333 -43.5 25c-8.66699 5.33301 -17 10.166 -25 14.499s-15 6.5 -21 6.5c-11.333 0 -19.5 -3.83301 -24.5 -11.5s-7.5 -19.167 -7.5 -34.5v-9h-60v20z" />
    <glyph glyph-name="hungarumlaut" unicode="&#x2dd;" horiz-adv-x="374" 
d="M104 560h-74l90 140h84zM240 560h-73l94 140h83z" />
    <glyph glyph-name="gravecomb" unicode="&#x300;" horiz-adv-x="0" 
d="M-30 560h-76l-100 140h86z" />
    <glyph glyph-name="acutecomb" unicode="&#x301;" horiz-adv-x="0" 
d="M-130 560h-73l90 140h83z" />
    <glyph glyph-name="uni0302" unicode="&#x302;" horiz-adv-x="0" 
d="M-262 560h-81l124 135h65l124 -135h-80l-76 84z" />
    <glyph glyph-name="tildecomb" unicode="&#x303;" horiz-adv-x="0" 
d="M-335 590c0 28.667 7.33301 51.667 22 69s35 26 61 26c14 0 27.5 -3 40.5 -9s27.5 -14.333 43.5 -25c8.66699 -5.33301 17 -10.166 25 -14.499s15 -6.5 21 -6.5c11.333 0 19.5 3.83301 24.5 11.5s7.5 19.167 7.5 34.5v9h60v-20c0 -28.667 -7.33301 -51.667 -22 -69
s-35 -26 -61 -26c-14 0 -27.5 3 -40.5 9s-27.5 14.333 -43.5 25c-8.66699 5.33301 -17 10.166 -25 14.499s-15 6.5 -21 6.5c-11.333 0 -19.5 -3.83301 -24.5 -11.5s-7.5 -19.167 -7.5 -34.5v-9h-60v20z" />
    <glyph glyph-name="uni0304" unicode="&#x304;" horiz-adv-x="0" 
d="M-30 594h-284v66h284v-66z" />
    <glyph glyph-name="uni0306" unicode="&#x306;" horiz-adv-x="0" 
d="M-294 590.5c-28 25.667 -43.333 58.834 -46 99.501h68c2.66699 -24.667 11.667 -43.334 27 -56.001s35.333 -19 60 -19s44.667 6.33301 60 19s24.333 31.334 27 56.001h68c-2.66699 -40.667 -18 -73.834 -46 -99.501s-64.333 -38.5 -109 -38.5s-81 12.833 -109 38.5z" />
    <glyph glyph-name="uni0307" unicode="&#x307;" horiz-adv-x="0" 
d="M-30 584h-87v92h87v-92z" />
    <glyph glyph-name="uni0308" unicode="&#x308;" horiz-adv-x="0" 
d="M-215 584h-87v92h87v-92zM-30 584h-87v92h87v-92z" />
    <glyph glyph-name="uni030A" unicode="&#x30a;" horiz-adv-x="0" 
d="M-195 572c-18 18 -27 40 -27 66s9 48 27 66s41 27 69 27s51 -9 69 -27s27 -40 27 -66s-9 -48 -27 -66s-41 -27 -69 -27s-51 9 -69 27zM-95 607c8 8 12 18.333 12 31s-4 23 -12 31s-18.333 12 -31 12s-23 -4 -31 -12s-12 -18.333 -12 -31s4 -23 12 -31s18.333 -12 31 -12
s23 4 31 12z" />
    <glyph glyph-name="uni030B" unicode="&#x30b;" horiz-adv-x="0" 
d="M-270 560h-74l90 140h84zM-134 560h-73l94 140h83z" />
    <glyph glyph-name="uni030C" unicode="&#x30c;" horiz-adv-x="0" 
d="M-154 560h-65l-124 135h80l76 -84l76 84h81z" />
    <glyph glyph-name="uni0312" unicode="&#x312;" horiz-adv-x="0" 
d="M-94 560h-83l77 170h70z" />
    <glyph glyph-name="uni0326" unicode="&#x326;" horiz-adv-x="0" 
d="M-92 -255h-69l47 170h84z" />
    <glyph glyph-name="uni0327" unicode="&#x327;" horiz-adv-x="0" 
d="M-107 -39c25.333 -2.66699 44.5 -11.332 57.5 -25.999s19.5 -31.334 19.5 -50.001c0 -28 -9 -49.167 -27 -63.5s-40.667 -21.5 -68 -21.5h-55v50h45c14.667 0 25.834 3.16699 33.501 9.5s11.5 14.833 11.5 25.5s-3.83301 19.167 -11.5 25.5s-18.834 9.5 -33.501 9.5h-32
v35l34 76l46 -22v-5z" />
    <glyph glyph-name="uni0328" unicode="&#x328;" horiz-adv-x="0" 
d="M-61 -200c-32.667 0 -59.834 9.16699 -81.501 27.5s-32.5 43.833 -32.5 76.5c0 28 8.83301 51.333 26.5 70s38.834 33 63.501 43l55 -17c-25.333 -7.33301 -45.5 -18.833 -60.5 -34.5s-22.5 -33.5 -22.5 -53.5c0 -16.667 5.5 -29.667 16.5 -39s27.833 -14 50.5 -14h16
v-59h-31z" />
    <glyph glyph-name="uni0401" unicode="&#x401;" 
d="M175 325v-250h300v-75h-380v700h370v-75h-290v-225h280v-75h-280zM234 789h-87v92h87v-92zM419 789h-87v92h87v-92z" />
    <glyph glyph-name="uni0402" unicode="&#x402;" horiz-adv-x="674" 
d="M507.5 396.5c39 -22.333 69.835 -52.9971 92.502 -91.9971s34 -82.167 34 -129.5s-11.333 -90.5 -34 -129.5s-53.5 -69.667 -92.5 -92s-82.167 -33.5 -129.5 -33.5v75c32 0 61.167 7.66699 87.5 23s47.166 36.5 62.499 63.5s23 57.167 23 90.5
c0 55.333 -16.667 99.666 -50 132.999s-76.333 50 -129 50c-25.333 0 -48.5 -1.83301 -69.5 -5.5s-43.5 -9.83398 -67.5 -18.501v-331h-80v625h-150v75h435v-75h-205v-219c19.333 7.33301 41.666 13.166 66.999 17.499s50.333 6.5 75 6.5c48 0 91.5 -11.167 130.5 -33.5z
" />
    <glyph glyph-name="uni0403" unicode="&#x403;" horiz-adv-x="475" 
d="M175 0h-80v700h365v-75h-285v-625zM301 765h-73l90 140h83z" />
    <glyph glyph-name="uni0404" unicode="&#x404;" horiz-adv-x="776" 
d="M736 215c-28 -69.333 -70.1641 -124.167 -126.497 -164.5s-122.5 -60.5 -198.5 -60.5c-64.667 0 -124.334 16 -179.001 48s-97.834 75.667 -129.501 131s-47.5 115.666 -47.5 180.999s15.833 125.666 47.5 180.999s74.834 99 129.501 131s114.334 48 179.001 48
c74 0 139 -20.167 195 -60.5s98 -95.166 126 -164.499h-85c-23.333 46 -55.5 82.5 -96.5 109.5s-87.5 40.5 -139.5 40.5c-45.333 0 -87.5 -10.667 -126.5 -32s-71.167 -50.666 -96.5 -87.999s-41 -79 -47 -125h329v-75h-330c5.33301 -47.333 20.666 -90 45.999 -128
s57.666 -67.833 96.999 -89.5s82 -32.5 128 -32.5c54 0 101.667 13.5 143 40.5s73.666 63.5 96.999 109.5h85z" />
    <glyph glyph-name="uni0405" unicode="&#x405;" horiz-adv-x="562" 
d="M162 17c-35.333 18 -62.498 43 -81.498 75s-29.167 68 -30.5 108h80c1.33301 -39.333 15.666 -71.666 42.999 -96.999s65.333 -38 114 -38c43.333 0 77.833 10.333 103.5 31s38.5 48.667 38.5 84c0 27.333 -7.16699 49.833 -21.5 67.5s-32.166 31.5 -53.499 41.5
s-50 20.667 -86 32c-44 15.333 -79 29.5 -105 42.5s-48.333 32.5 -67 58.5s-28 60.333 -28 103c0 34.667 9.33301 66 28 94s44.5 50.167 77.5 66.5s70.167 24.5 111.5 24.5c39.333 0 75.166 -8.5 107.499 -25.5s58.166 -40.5 77.499 -70.5s29.333 -63 30 -99h-80
c-1.33301 35.333 -15 64.166 -41 86.499s-58.333 33.5 -97 33.5c-38 0 -69.333 -9.33301 -94 -28s-37 -46 -37 -82c0 -25.333 6.83301 -46.333 20.5 -63s30.667 -29.667 51 -39s48.5 -20.333 84.5 -33c43.333 -14 78.833 -28 106.5 -42s51 -34.5 70 -61.5
s28.5 -62.5 28.5 -106.5c0 -36 -9.83301 -68.5 -29.5 -97.5s-46.5 -51.667 -80.5 -68s-72.333 -24.5 -115 -24.5c-48 0 -89.667 9 -125 27z" />
    <glyph glyph-name="uni0406" unicode="&#x406;" horiz-adv-x="280" 
d="M180 0h-80v700h80v-700z" />
    <glyph glyph-name="uni0407" unicode="&#x407;" horiz-adv-x="280" 
d="M180 0h-80v700h80v-700zM91 789h-87v92h87v-92zM276 789h-87v92h87v-92z" />
    <glyph glyph-name="uni0408" unicode="&#x408;" horiz-adv-x="510" 
d="M108 17.5c-32 18.333 -57.168 43.5 -75.501 75.5s-27.5 67.667 -27.5 107h80c0 -40 12.333 -72.5 37 -97.5s56 -37.5 94 -37.5c38.667 0 69.834 13 93.501 39s35.5 61.333 35.5 106v490h80v-490c0 -42.667 -9 -80.667 -27 -114s-42.833 -59.333 -74.5 -78
s-67.5 -28 -107.5 -28s-76 9.16699 -108 27.5z" />
    <glyph glyph-name="uni0409" unicode="&#x409;" horiz-adv-x="976" 
d="M699 420c47.333 0 89.334 -9.16797 126.001 -27.501s65.167 -43.5 85.5 -75.5s30.5 -67.667 30.5 -107s-10.167 -75 -30.5 -107s-48.833 -57.167 -85.5 -75.5s-78.667 -27.5 -126 -27.5h-200v625h-245l-28 -390c-6 -88 -24.667 -150 -56 -186s-75 -54 -131 -54h-24v78h17
c37.333 0 64.666 12.333 81.999 37s28 66.334 32 125.001l33 465h400v-280h120zM699.001 74.999c48.667 0 87.334 12.5 116.001 37.5s43 57.5 43 97.5s-14.333 72.5 -43 97.5s-67.334 37.5 -116.001 37.5h-120v-270h120z" />
    <glyph glyph-name="uni040A" unicode="&#x40a;" horiz-adv-x="992" 
d="M713 410c48 0 90 -8.5 126 -25.5s63.833 -41 83.5 -72s29.5 -66.833 29.5 -107.5s-9.83301 -76.5 -29.5 -107.5s-47.5 -55 -83.5 -72s-78 -25.5 -126 -25.5h-203v335h-335v-335h-80v700h80v-290h335v290h80v-290h123zM713 75c49.333 0 87.666 11.167 114.999 33.5
s41 54.5 41 96.5s-13.667 74.167 -41 96.5s-65.666 33.5 -114.999 33.5h-123v-260h123z" />
    <glyph glyph-name="uni040B" unicode="&#x40b;" horiz-adv-x="685" 
d="M563.5 367c41 -42 61.5 -99.668 61.5 -173.001v-194h-80v194c0 50 -14 89.333 -42 118s-66.333 43 -115 43c-54 0 -105 -10 -153 -30v-325h-80v625h-150v75h435v-75h-205v-225c20.667 8.66699 45.667 15.834 75 21.501s57 8.5 83 8.5c72.667 0 129.5 -21 170.5 -63z" />
    <glyph glyph-name="uni040C" unicode="&#x40c;" horiz-adv-x="595" 
d="M260 361l330 -361h-106l-309 339v-339h-80v700h80v-325l294 325h98zM321 765h-73l90 140h83z" />
    <glyph glyph-name="uni040E" unicode="&#x40e;" horiz-adv-x="602" 
d="M307 293l186 407h84l-320 -700h-84l93 203l-246 497h89zM189.5 795.5c-29 25.667 -44.833 58.834 -47.5 99.501h71c2.66699 -25.333 12 -44.5 28 -57.5s36.333 -19.5 61 -19.5s45 6.5 61 19.5s25.333 32.167 28 57.5h71c-2.66699 -40.667 -18.5 -73.834 -47.5 -99.501
s-66.5 -38.5 -112.5 -38.5s-83.5 12.833 -112.5 38.5z" />
    <glyph glyph-name="uni040F" unicode="&#x40f;" horiz-adv-x="705" 
d="M393 -170h-80v170h-218v700h80v-625h355v625h80v-700h-217v-170z" />
    <glyph glyph-name="uni0410" unicode="&#x410;" horiz-adv-x="670" 
d="M650 0h-86l-75 190h-310l-75 -190h-84l285 700h60zM459 265l-125 316l-125 -316h250z" />
    <glyph glyph-name="uni0411" unicode="&#x411;" horiz-adv-x="567" 
d="M288 420c46.667 0 88.167 -9 124.5 -27s64.5 -43 84.5 -75s30 -68 30 -108s-10 -76 -30 -108s-48.167 -57 -84.5 -75s-77.833 -27 -124.5 -27h-193v700h375v-75h-295v-205h113zM288 75c48 0 86 12.3311 114 36.998s42 57.334 42 98.001s-14 73.334 -42 98.001
s-66 37 -114 37h-113v-270h113z" />
    <glyph glyph-name="uni0412" unicode="&#x412;" horiz-adv-x="577" 
d="M493 310.5c22.667 -30.333 33.998 -65.502 33.998 -105.502c0 -38.667 -10 -73.667 -30 -105s-48 -55.833 -84 -73.5s-77 -26.5 -123 -26.5h-195v700h185c44.667 0 83.334 -7.83301 116.001 -23.5s57.667 -37.5 75 -65.5s26 -60 26 -96
c0 -29.333 -8.5 -56.666 -25.5 -81.999s-39.5 -44.666 -67.5 -57.999c36.667 -12.667 66.334 -34.167 89.001 -64.5zM174.998 624.998v-220h105c41.333 0 74 10.333 98 31s36 47 36 79s-12 58.333 -36 79s-56.667 31 -98 31h-105zM289.998 74.998
c46 0 83.167 12.5 111.5 37.5s42.5 55.833 42.5 92.5s-14.167 67.5 -42.5 92.5s-65.5 37.5 -111.5 37.5h-115v-260h115z" />
    <glyph glyph-name="uni0413" unicode="&#x413;" horiz-adv-x="475" 
d="M175 0h-80v700h365v-75h-285v-625z" />
    <glyph glyph-name="uni0414" unicode="&#x414;" horiz-adv-x="720" 
d="M600 75l89.999 -0.00195312v-245h-80v170h-505v-170h-80v245c35.333 4.66699 63.333 21.834 84 51.501s33.334 70.834 38.001 123.501l39 450h414v-625zM519.999 74.998v550h-261l-33 -375c-4 -48 -10.5 -85.333 -19.5 -112s-22.833 -47.667 -41.5 -63h355z" />
    <glyph glyph-name="uni0415" unicode="&#x415;" 
d="M175 325v-250h300v-75h-380v700h370v-75h-290v-225h280v-75h-280z" />
    <glyph glyph-name="uni0416" unicode="&#x416;" horiz-adv-x="834" 
d="M539 359l290 -359h-100l-273 340v-340h-78v340l-273 -340h-100l290 359l-272 341h93l262 -330v330h78v-330l262 330h93z" />
    <glyph glyph-name="uni0417" unicode="&#x417;" horiz-adv-x="553" 
d="M471 297.5c21.333 -29.667 32.002 -64.4971 32.002 -104.497c0 -39.333 -9.83301 -74.333 -29.5 -105s-47.167 -54.667 -82.5 -72s-76 -26 -122 -26c-44.667 0 -84.667 8.5 -120 25.5s-63.333 41 -84 72s-32.334 66.833 -35.001 107.5h80
c3.33301 -39.333 19.333 -70.833 48 -94.5s65.667 -35.5 111 -35.5c44.667 0 81 11.833 109 35.5s42 55.167 42 94.5c0 38.667 -13.833 69.167 -41.5 91.5s-65.167 33.5 -112.5 33.5h-65v75h65c41.333 0 74 11.167 98 33.5s36 51.166 36 86.499s-12 64.166 -36 86.499
s-56.667 33.5 -98 33.5c-42 0 -75.5 -11.167 -100.5 -33.5s-39.5 -49.5 -43.5 -81.5h-80c2.66699 35.333 13.667 67.333 33 96s45.666 51.5 78.999 68.5s70.666 25.5 111.999 25.5s78.5 -8.16699 111.5 -24.5s58.833 -39 77.5 -68s28 -62.5 28 -100.5
c0 -34.667 -8.66699 -64.834 -26 -90.501s-42.666 -46.167 -75.999 -61.5c38.667 -15.333 68.667 -37.833 90 -67.5z" />
    <glyph glyph-name="uni0418" unicode="&#x418;" horiz-adv-x="780" 
d="M175 147l460 553h50v-700h-80v553l-460 -553h-50v700h80v-553z" />
    <glyph glyph-name="uni0419" unicode="&#x419;" horiz-adv-x="780" 
d="M175 147l460 553h50v-700h-80v553l-460 -553h-50v700h80v-553zM285.5 795.5c-29 25.667 -44.833 58.834 -47.5 99.501h71c2.66699 -25.333 12 -44.5 28 -57.5s36.333 -19.5 61 -19.5s45 6.5 61 19.5s25.333 32.167 28 57.5h71
c-2.66699 -40.667 -18.5 -73.834 -47.5 -99.501s-66.5 -38.5 -112.5 -38.5s-83.5 12.833 -112.5 38.5z" />
    <glyph glyph-name="uni041A" unicode="&#x41a;" horiz-adv-x="595" 
d="M260 361l330 -361h-106l-309 339v-339h-80v700h80v-325l294 325h98z" />
    <glyph glyph-name="uni041B" unicode="&#x41b;" horiz-adv-x="694" 
d="M179 700l420.001 -0.000976562v-700h-80v625h-265l-28 -390c-6 -88 -24.667 -150 -56 -186s-75 -54 -131 -54h-24v78h17c37.333 0 64.666 12.333 81.999 37s28 66.334 32 125.001z" />
    <glyph glyph-name="uni041C" unicode="&#x41c;" horiz-adv-x="910" 
d="M760 700l85 -700h-80l-60 516l-230 -516h-40l-232 519l-60 -519h-78l85 700h56l250 -561l250 561h54z" />
    <glyph glyph-name="uni041D" unicode="&#x41d;" horiz-adv-x="720" 
d="M545 400v300h80v-700h-80v325h-370v-325h-80v700h80v-300h370z" />
    <glyph glyph-name="uni041E" unicode="&#x41e;" horiz-adv-x="832" 
d="M234 38c-55.333 32 -99 75.667 -131 131s-48 115.666 -48 180.999s16 125.666 48 180.999s75.667 99 131 131s116 48 182 48s126.667 -16 182 -48s99 -75.667 131 -131s48 -115.666 48 -180.999s-16 -125.666 -48 -180.999s-75.667 -99 -131 -131s-116 -48 -182 -48
s-126.667 16 -182 48zM555.5 103c42.333 25.333 76 59.666 101 102.999s37.5 91.333 37.5 144s-12.5 100.667 -37.5 144s-58.667 77.666 -101 102.999s-88.833 38 -139.5 38s-97.167 -12.667 -139.5 -38s-76 -59.666 -101 -102.999s-37.5 -91.333 -37.5 -144
s12.5 -100.667 37.5 -144s58.667 -77.666 101 -102.999s88.833 -38 139.5 -38s97.167 12.667 139.5 38z" />
    <glyph glyph-name="uni041F" unicode="&#x41f;" horiz-adv-x="715" 
d="M175 0h-80v700h525v-700h-80v625h-365v-625z" />
    <glyph glyph-name="uni0420" unicode="&#x420;" horiz-adv-x="562" 
d="M300 700c44.667 0 84.167 -8.66895 118.5 -26.002s61 -41.166 80 -71.499s28.5 -64.5 28.5 -102.5s-9.5 -72.167 -28.5 -102.5s-45.667 -54.166 -80 -71.499s-73.833 -26 -118.5 -26h-125v-300h-80v700h205zM300 374.998c44 0 79 11.333 105 34s39 53 39 91
s-13 68.333 -39 91s-61 34 -105 34h-125v-250h125z" />
    <glyph glyph-name="uni0421" unicode="&#x421;" horiz-adv-x="776" 
d="M232 38c-54.667 32 -97.833 75.665 -129.5 130.998s-47.5 115.666 -47.5 180.999s15.833 125.666 47.5 180.999s74.834 99 129.501 131s114.334 48 179.001 48c74 0 139 -20.167 195 -60.5s98 -95.166 126 -164.499h-85c-23.333 46 -55.5 82.5 -96.5 109.5
s-87.5 40.5 -139.5 40.5c-49.333 0 -95 -12.667 -137 -38s-75.167 -59.666 -99.5 -102.999s-36.5 -91.333 -36.5 -144s12.167 -100.667 36.5 -144s57.5 -77.666 99.5 -102.999s87.667 -38 137 -38c54 0 101.667 13.5 143 40.5s73.666 63.5 96.999 109.5h85
c-28 -69.333 -70.167 -124.166 -126.5 -164.499s-122.5 -60.5 -198.5 -60.5c-64.667 0 -124.334 16 -179.001 48z" />
    <glyph glyph-name="uni0422" unicode="&#x422;" horiz-adv-x="490" 
d="M285 0h-80v625h-180v75h440v-75h-180v-625z" />
    <glyph glyph-name="uni0423" unicode="&#x423;" horiz-adv-x="602" 
d="M307 293l186 407h84l-320 -700h-84l93 203l-246 497h89z" />
    <glyph glyph-name="uni0424" unicode="&#x424;" horiz-adv-x="810" 
d="M459 650c55.333 0 106.333 -12.667 153 -38s83.834 -60.5 111.501 -105.5s41.5 -95.5 41.5 -151.5s-13.833 -106.5 -41.5 -151.5s-64.834 -80.167 -111.501 -105.5s-97.667 -38 -153 -38h-15v-85h-78v85h-15c-55.333 0 -106.333 12.667 -153 38
s-83.834 60.5 -111.501 105.5s-41.5 95.5 -41.5 151.5s13.833 106.5 41.5 151.5s64.834 80.167 111.501 105.5s97.667 38 153 38h15v75h78v-75h15zM366 132v446.002h-15c-41.333 0 -79 -9.33301 -113 -28s-60.833 -44.834 -80.5 -78.501s-29.5 -72.5 -29.5 -116.5
s9.83301 -82.833 29.5 -116.5s46.5 -59.834 80.5 -78.501s71.667 -28 113 -28h15zM459 132.002c41.333 0 79 9.33105 113 27.998s60.833 44.834 80.5 78.501s29.5 72.5 29.5 116.5s-9.83301 82.833 -29.5 116.5s-46.5 59.834 -80.5 78.501s-71.667 28 -113 28h-15v-446h15z
" />
    <glyph glyph-name="uni0425" unicode="&#x425;" horiz-adv-x="580" 
d="M339 363l216 -363h-90l-175 298l-176 -298h-89l216 363l-196 337h90l156 -272l155 272h89z" />
    <glyph glyph-name="uni0426" unicode="&#x426;" horiz-adv-x="730" 
d="M700 -170h-80v170h-525v700h80v-625h355v625h80v-625h90v-245z" />
    <glyph glyph-name="uni0427" unicode="&#x427;" horiz-adv-x="650" 
d="M475 700h79.999v-700h-80v295c-21.333 -10 -47.166 -18.333 -77.499 -25s-60.5 -10 -90.5 -10c-73.333 0 -130.333 21.167 -171 63.5s-61 102.833 -61 181.5v195h80v-195c0 -53.333 13.167 -95 39.5 -125s65.5 -45 117.5 -45c30 0 57.833 2.66699 83.5 8
s52.167 14.333 79.5 27v330z" />
    <glyph glyph-name="uni0428" unicode="&#x428;" horiz-adv-x="1020" 
d="M925 0h-830v700h80v-625h295v625h80v-625h295v625h80v-700z" />
    <glyph glyph-name="uni0429" unicode="&#x429;" horiz-adv-x="1045" 
d="M1015 -170h-80v170h-840v700h80v-625h295v625h80v-625h295v625h80v-625h90v-245z" />
    <glyph glyph-name="uni042A" unicode="&#x42a;" horiz-adv-x="657" 
d="M375 430c47.333 0 89.333 -9.16699 126 -27.5s65.167 -43.833 85.5 -76.5s30.5 -69.667 30.5 -111s-10.167 -78.333 -30.5 -111s-48.833 -58.167 -85.5 -76.5s-78.667 -27.5 -126 -27.5h-195v625h-170v75h250v-270h115zM375 75c48.667 0 87.334 12.833 116.001 38.5
s43 59.5 43 101.5s-14.333 75.833 -43 101.5s-67.334 38.5 -116.001 38.5h-115v-280h115z" />
    <glyph glyph-name="uni042B" unicode="&#x42b;" horiz-adv-x="800" 
d="M283 430c47.333 0 89.333 -9.16699 126 -27.5s65.167 -43.833 85.5 -76.5s30.5 -69.667 30.5 -111s-10.167 -78.333 -30.5 -111s-48.833 -58.167 -85.5 -76.5s-78.667 -27.5 -126 -27.5h-188v700h80v-270h108zM625 0v700h80v-700h-80zM283 75
c48.667 0 87.334 12.833 116.001 38.5s43 59.5 43 101.5s-14.333 75.833 -43 101.5s-67.334 38.5 -116.001 38.5h-108v-280h108z" />
    <glyph glyph-name="uni042C" unicode="&#x42c;" horiz-adv-x="577" 
d="M295 430c47.333 0 89.333 -9.16699 126 -27.5s65.167 -43.833 85.5 -76.5s30.5 -69.667 30.5 -111s-10.167 -78.333 -30.5 -111s-48.833 -58.167 -85.5 -76.5s-78.667 -27.5 -126 -27.5h-200v700h80v-270h120zM295 75c48.667 0 87.334 12.833 116.001 38.5
s43 59.5 43 101.5s-14.333 75.833 -43 101.5s-67.334 38.5 -116.001 38.5h-120v-280h120z" />
    <glyph glyph-name="uni042D" unicode="&#x42d;" horiz-adv-x="771" 
d="M539 662c54.667 -32 97.833 -75.667 129.5 -131s47.5 -115.666 47.5 -180.999s-15.833 -125.666 -47.5 -180.999s-74.834 -99 -129.501 -131s-114.334 -48 -179.001 -48c-76 0 -142.167 20.167 -198.5 60.5s-98.5 95.166 -126.5 164.499h85
c23.333 -46 55.666 -82.5 96.999 -109.5s89 -40.5 143 -40.5c47.333 0 90.833 10.833 130.5 32.5s71.834 51.5 96.501 89.5s39.334 80.667 44.001 128h-330v75h330c-6 46.667 -21.333 88.5 -46 125.5s-56.5 66.167 -95.5 87.5s-82.167 32 -129.5 32
c-52 0 -98.5 -13.5 -139.5 -40.5s-73.167 -63.5 -96.5 -109.5h-85c28 69.333 70 124.166 126 164.499s121 60.5 195 60.5c64.667 0 124.334 -16 179.001 -48z" />
    <glyph glyph-name="uni042E" unicode="&#x42e;" horiz-adv-x="1051" 
d="M820.5 662c54.333 -32 97.166 -75.499 128.499 -130.499s47 -115.5 47 -181.5s-15.667 -126.5 -47 -181.5s-74.166 -98.5 -128.499 -130.5s-114.5 -48 -180.5 -48c-61.333 0 -118 14.167 -170 42.5s-94.167 67.166 -126.5 116.499s-51.5 104 -57.5 164h-111v-313h-80v700
h80v-312h111c6 60 25.167 114.5 57.5 163.5s74.5 87.667 126.5 116s108.667 42.5 170 42.5c66 0 126.167 -16 180.5 -48zM778.5 103.001c41.667 25.333 74.5 59.666 98.5 102.999s36 91.333 36 144s-12 100.667 -36 144s-56.833 77.666 -98.5 102.999
s-87.834 38 -138.501 38s-96.834 -12.667 -138.501 -38s-74.5 -59.666 -98.5 -102.999s-36 -91.333 -36 -144s12 -100.667 36 -144s56.833 -77.666 98.5 -102.999s87.834 -38 138.501 -38s96.834 12.667 138.501 38z" />
    <glyph glyph-name="uni042F" unicode="&#x42f;" horiz-adv-x="605" 
d="M510 700v-699.999h-80v300h-95l-213 -300h-97l222 306c-51.333 10 -92.333 32.833 -123 68.5s-46 77.5 -46 125.5c0 37.333 9.5 71.166 28.5 101.499s45.5 54.333 79.5 72s73 26.5 117 26.5h207zM430 375.001v250h-127c-42.667 0 -77 -11.667 -103 -35
s-39 -53.333 -39 -90s13 -66.667 39 -90s60.333 -35 103 -35h127z" />
    <glyph glyph-name="uni0430" unicode="&#x430;" horiz-adv-x="621" 
d="M471 490h75v-490h-75v75c-20.667 -26 -46.667 -46.667 -78 -62s-65.333 -23 -102 -23c-44.667 0 -86.334 11.167 -125.001 33.5s-69.334 53 -92.001 92s-34 82.167 -34 129.5s11.333 90.5 34 129.5s53.334 69.667 92.001 92s80.334 33.5 125.001 33.5
c36.667 0 70.667 -7.66699 102 -23s57.333 -36 78 -62v75zM387 84.5c27.333 16.333 49 38.5 65 66.5s24 59.333 24 94s-8 66 -24 94s-37.667 50.167 -65 66.5s-57.333 24.5 -90 24.5s-62.667 -8.16699 -90 -24.5s-49 -38.5 -65 -66.5s-24 -59.333 -24 -94s8 -66 24 -94
s37.667 -50.167 65 -66.5s57.333 -24.5 90 -24.5s62.667 8.16699 90 24.5z" />
    <glyph glyph-name="uni0431" unicode="&#x431;" horiz-adv-x="591" 
d="M437.5 447.5c36.333 -21.667 65.1641 -51.3311 86.4971 -88.998s32 -78.834 32 -123.501s-11.167 -85.834 -33.5 -123.501s-52.5 -67.334 -90.5 -89.001s-79.333 -32.5 -124 -32.5c-45.333 0 -87 10 -125 30s-68.833 52.5 -92.5 97.5s-35.5 103.5 -35.5 175.5
c0 99.333 14.167 179.333 42.5 240s68.833 102 121.5 124c32 13.333 62.5 23.333 91.5 30s69.833 14.334 122.5 23.001c32.667 4.66699 59.334 9 80.001 13v-75c-33.333 -6 -60.666 -10.667 -81.999 -14c-47.333 -7.33301 -84.166 -13.833 -110.499 -19.5
s-50.166 -13.5 -71.499 -23.5c-32.667 -14.667 -58.667 -38.5 -78 -71.5s-31 -72.833 -35 -119.5c44 53.333 104.667 80 182 80c43.333 0 83.166 -10.833 119.499 -32.5zM392.998 83.5029c26 15.667 46.667 36.834 62 63.501s23 56 23 88s-7.66699 61.333 -23 88
s-36 47.834 -62 63.501s-54.333 23.5 -85 23.5s-59 -7.83301 -85 -23.5s-46.667 -36.834 -62 -63.501s-23 -56 -23 -88s7.66699 -61.333 23 -88s36 -47.834 62 -63.501s54.333 -23.5 85 -23.5s59 7.83301 85 23.5z" />
    <glyph glyph-name="uni0432" unicode="&#x432;" horiz-adv-x="504" 
d="M442 215c14.667 -21.333 21.998 -46.334 21.998 -75.001c0 -41.333 -15.667 -75 -47 -101s-73.666 -39 -126.999 -39h-215v490h200c50.667 0 90.667 -12 120 -36s44 -55.333 44 -94c0 -20 -5.5 -39 -16.5 -57s-25.167 -32 -42.5 -42
c26.667 -9.33301 47.334 -24.666 62.001 -45.999zM149.998 419.999v-130.999h122c28.667 0 50.667 6.16699 66 18.5s23 28.166 23 47.499c0 18.667 -7.5 34.167 -22.5 46.5s-36.167 18.5 -63.5 18.5h-125zM289.998 70c30 0 53.499 6.66797 70.499 20.001
s25.5 31.666 25.5 54.999c0 24 -8.66699 42.667 -26 56s-41.666 20 -72.999 20h-137v-151h140z" />
    <glyph glyph-name="uni0433" unicode="&#x433;" horiz-adv-x="395" 
d="M150 0h-75v490h310v-70h-235v-420z" />
    <glyph glyph-name="uni0434" unicode="&#x434;" horiz-adv-x="565" 
d="M470 70l75 0.000976562v-210h-75v140h-380v-140h-75v210c26 0 48.167 10.667 66.5 32s28.833 50.666 31.5 87.999l25 300h332v-420zM395 70.001v350h-188l-20 -230c-2.66699 -29.333 -7.66699 -53.5 -15 -72.5s-17.333 -34.833 -30 -47.5h253z" />
    <glyph glyph-name="uni0435" unicode="&#x435;" horiz-adv-x="563" 
d="M408.5 469.5c37 -20.333 66.166 -49 87.499 -86s32 -79.167 32 -126.5c0 -16 -0.666992 -28.333 -2 -37h-407c4.66699 -48.667 21.834 -87.5 51.501 -116.5s68.167 -43.5 115.5 -43.5c69.333 0 119.333 28.333 150 85h80c-20 -50 -49.667 -88.333 -89 -115
s-86.333 -40 -141 -40c-46 0 -87.833 11.167 -125.5 33.5s-67.167 52.833 -88.5 91.5s-32 82 -32 130s10.667 91.333 32 130s50.833 69.167 88.5 91.5s79.5 33.5 125.5 33.5c44.667 0 85.5 -10.167 122.5 -30.5zM176.499 392c-29 -25.333 -47.168 -60 -54.501 -104h327
c-4.66699 42.667 -22.167 77 -52.5 103s-67.166 39 -110.499 39c-44 0 -80.5 -12.667 -109.5 -38z" />
    <glyph glyph-name="uni0436" unicode="&#x436;" horiz-adv-x="669" 
d="M446 251l218 -251h-93l-200 231v-231h-73v231l-200 -231h-93l218 251l-201 239h88l188 -227v227h73v-227l188 227h88z" />
    <glyph glyph-name="uni0437" unicode="&#x437;" horiz-adv-x="453" 
d="M383 208.5c16.667 -21.667 25.0049 -46.1641 25.0049 -73.4971c0 -28 -8.16699 -53 -24.5 -75s-38.666 -39.167 -66.999 -51.5s-59.833 -18.5 -94.5 -18.5c-54 0 -98.833 13.833 -134.5 41.5s-54.834 63.834 -57.501 108.501h75c3.33301 -24 15.166 -43.333 35.499 -58
s47.5 -22 81.5 -22c31.333 0 57.166 7 77.499 21s30.5 33.667 30.5 59c0 23.333 -9 42.166 -27 56.499s-46 21.5 -84 21.5h-56v68h57c30 0 53.667 6.66699 71 20s26 31 26 53c0 21.333 -8.66699 38.5 -26 51.5s-40.333 19.5 -69 19.5c-31.333 0 -56.333 -7 -75 -21
s-29.334 -32 -32.001 -54h-75c5.33301 42.667 24.666 77.5 57.999 104.5s74.666 40.5 123.999 40.5c31.333 0 60.333 -5.83301 87 -17.5s47.667 -27.834 63 -48.501s23 -44.334 23 -71.001c0 -24.667 -6.83301 -46.334 -20.5 -65.001s-33.167 -33 -58.5 -43
c28 -9.33301 50.333 -24.833 67 -46.5z" />
    <glyph glyph-name="uni0438" unicode="&#x438;" horiz-adv-x="580" 
d="M150 121l295 369h60v-490h-75v369l-295 -369h-60v490h75v-369z" />
    <glyph glyph-name="uni0439" unicode="&#x439;" horiz-adv-x="580" 
d="M150 121l295 369h60v-490h-75v369l-295 -369h-60v490h75v-369zM185 590.5c-28 25.667 -43.333 58.834 -46 99.501h72c2.66699 -25.333 11.5 -44.5 26.5 -57.5s33.833 -19.5 56.5 -19.5s41.5 6.5 56.5 19.5s23.833 32.167 26.5 57.5h72
c-2.66699 -40.667 -18 -73.834 -46 -99.501s-64.333 -38.5 -109 -38.5s-81 12.833 -109 38.5z" />
    <glyph glyph-name="uni043A" unicode="&#x43a;" horiz-adv-x="484" 
d="M230 249l249 -249h-102l-227 230v-230h-75v490h75v-227l216 227h96z" />
    <glyph glyph-name="uni043B" unicode="&#x43b;" horiz-adv-x="553" 
d="M148 490h330.001v-490h-75v420h-185l-19 -250c-9.33301 -116.667 -63 -175 -161 -175h-18v73h18c28 0 48.667 9 62 27s21.666 48.333 24.999 91z" />
    <glyph glyph-name="uni043C" unicode="&#x43c;" horiz-adv-x="710" 
d="M605 490l40 -490h-75l-22 354l-175 -354h-36l-176 357l-23 -357h-73l40 490h64l187 -381l187 381h62z" />
    <glyph glyph-name="uni043D" unicode="&#x43d;" horiz-adv-x="575" 
d="M425 285v205h75v-490h-75v215h-275v-215h-75v490h75v-205h275z" />
    <glyph glyph-name="uni043E" unicode="&#x43e;" horiz-adv-x="592" 
d="M167.5 23.5c-39 22.333 -70 53 -93 92s-34.5 82.167 -34.5 129.5s11.5 90.5 34.5 129.5s54 69.667 93 92s81.833 33.5 128.5 33.5s89.5 -11.167 128.5 -33.5s70 -53 93 -92s34.5 -82.167 34.5 -129.5s-11.5 -90.5 -34.5 -129.5s-54 -69.667 -93 -92
s-81.833 -33.5 -128.5 -33.5s-89.5 11.167 -128.5 33.5zM385.5 84.5c27 16.333 48.5 38.5 64.5 66.5s24 59.333 24 94s-8 66 -24 94s-37.5 50.167 -64.5 66.5s-56.833 24.5 -89.5 24.5s-62.5 -8.16699 -89.5 -24.5s-48.5 -38.5 -64.5 -66.5s-24 -59.333 -24 -94
s8 -66 24 -94s37.5 -50.167 64.5 -66.5s56.833 -24.5 89.5 -24.5s62.5 8.16699 89.5 24.5z" />
    <glyph glyph-name="uni043F" unicode="&#x43f;" horiz-adv-x="568" 
d="M150 0h-75v490h418v-490h-75v420h-268v-420z" />
    <glyph glyph-name="uni0440" unicode="&#x440;" horiz-adv-x="621" 
d="M455 466.5c38.667 -22.333 69.334 -53 92.001 -92s34 -82.167 34 -129.5s-11.333 -90.5 -34 -129.5s-53.334 -69.667 -92.001 -92s-80.334 -33.5 -125.001 -33.5c-36.667 0 -70.667 7.66699 -102 23s-57.333 36 -78 62v-275h-75v690h75v-75
c20.667 26 46.667 46.667 78 62s65.333 23 102 23c44.667 0 86.334 -11.167 125.001 -33.5zM414.5 84.5c27 16.333 48.5 38.5 64.5 66.5s24 59.333 24 94s-8 66 -24 94s-37.5 50.167 -64.5 66.5s-56.833 24.5 -89.5 24.5s-62.834 -8.16699 -90.501 -24.5
s-49.5 -38.5 -65.5 -66.5s-24 -59.333 -24 -94s8 -66 24 -94s37.833 -50.167 65.5 -66.5s57.834 -24.5 90.501 -24.5s62.5 8.16699 89.5 24.5z" />
    <glyph glyph-name="uni0441" unicode="&#x441;" horiz-adv-x="556" 
d="M165.5 23.5c-38.333 22.333 -68.833 52.998 -91.5 91.998s-34 82.167 -34 129.5s11.333 90.5 34 129.5s53.167 69.667 91.5 92s80.166 33.5 125.499 33.5c53.333 0 101.5 -14.667 144.5 -44s73.167 -69.666 90.5 -120.999h-80c-14.667 30 -36 53.333 -64 70
s-58.333 25 -91 25c-31.333 0 -60.333 -8.16699 -87 -24.5s-47.667 -38.5 -63 -66.5s-23 -59.333 -23 -94s7.66699 -66 23 -94s36.333 -50.167 63 -66.5s55.667 -24.5 87 -24.5c32.667 0 63 8.33301 91 25s49.333 40 64 70h80c-17.333 -51.333 -47.5 -91.666 -90.5 -120.999
s-91.167 -44 -144.5 -44c-45.333 0 -87.166 11.167 -125.499 33.5z" />
    <glyph glyph-name="uni0442" unicode="&#x442;" horiz-adv-x="435" 
d="M255 0h-75v420h-170v70h415v-70h-170v-420z" />
    <glyph glyph-name="uni0443" unicode="&#x443;" horiz-adv-x="515" 
d="M262 119l163 371h80l-310 -690h-80l105 235l-215 455h84z" />
    <glyph glyph-name="uni0444" unicode="&#x444;" horiz-adv-x="691" 
d="M387 495c46 0 89.333 -10.833 130 -32.5s73.167 -51.667 97.5 -90s36.5 -80.833 36.5 -127.5s-12.167 -89.167 -36.5 -127.5s-56.833 -68.333 -97.5 -90s-84 -32.5 -130 -32.5h-5v-195h-73v195h-5c-46 0 -89.333 10.833 -130 32.5s-73.167 51.667 -97.5 90
s-36.5 80.833 -36.5 127.5s12.167 89.167 36.5 127.5s56.833 68.333 97.5 90s84 32.5 130 32.5h5v225h73v-225h5zM142.5 152c16.333 -27.333 38.666 -48.668 66.999 -64.001s59.833 -23 94.5 -23h5v360h-5c-34.667 0 -66.167 -7.66699 -94.5 -23
s-50.666 -36.666 -66.999 -63.999s-24.5 -58.333 -24.5 -93s8.16699 -65.667 24.5 -93zM387 64.998c34.667 0 66.167 7.66895 94.5 23.002s50.666 36.666 66.999 63.999s24.5 58.333 24.5 93s-8.16699 65.667 -24.5 93s-38.666 48.666 -66.999 63.999s-59.833 23 -94.5 23
h-5v-360h5z" />
    <glyph glyph-name="uni0445" unicode="&#x445;" horiz-adv-x="529" 
d="M312 257l187 -257h-93l-142 202l-145 -202h-89l186 254l-172 236h93l128 -184l132 184h90z" />
    <glyph glyph-name="uni0446" unicode="&#x446;" horiz-adv-x="580" 
d="M560 -140h-75v140h-410v490h75v-420h260v420h75v-420h75v-210z" />
    <glyph glyph-name="uni0447" unicode="&#x447;" horiz-adv-x="520" 
d="M370 490h74.999v-490h-75v195c-34.667 -16.667 -74 -25 -118 -25c-61.333 0 -109.5 17 -144.5 51s-52.5 82 -52.5 144v125h75v-125c0 -40 9.66699 -70.833 29 -92.5s52 -32.5 98 -32.5c36.667 0 74.334 8.33301 113.001 25v225z" />
    <glyph glyph-name="uni0448" unicode="&#x448;" horiz-adv-x="785" 
d="M710 0h-635v490h75v-420h205v420h75v-420h205v420h75v-490z" />
    <glyph glyph-name="uni0449" unicode="&#x449;" horiz-adv-x="805" 
d="M785 -140h-75v140h-635v490h75v-420h205v420h75v-420h205v420h75v-420h75v-210z" />
    <glyph glyph-name="uni044A" unicode="&#x44a;" horiz-adv-x="547" 
d="M328 320c58 0 104 -14.667 138 -44s51 -68 51 -116s-17 -86.667 -51 -116s-80 -44 -138 -44h-188v420h-135v70h210v-170h113zM328 70c36 0 63.5 7.5 82.5 22.5s28.5 37.5 28.5 67.5s-9.5 52.5 -28.5 67.5s-46.5 22.5 -82.5 22.5h-113v-180h113z" />
    <glyph glyph-name="uni044B" unicode="&#x44b;" horiz-adv-x="670" 
d="M256 320c58 0 104 -14.667 138 -44s51 -68 51 -116s-17 -86.667 -51 -116s-80 -44 -138 -44h-181v490h75v-170h106zM520 0v490h75v-490h-75zM256 70c36 0 63.5 7.5 82.5 22.5s28.5 37.5 28.5 67.5s-9.5 52.5 -28.5 67.5s-46.5 22.5 -82.5 22.5h-106v-180h106z" />
    <glyph glyph-name="uni044C" unicode="&#x44c;" horiz-adv-x="487" 
d="M268 320c58 0 104 -14.667 138 -44s51 -68 51 -116s-17 -86.667 -51 -116s-80 -44 -138 -44h-193v490h75v-170h118zM268 70c36 0 63.5 7.5 82.5 22.5s28.5 37.5 28.5 67.5s-9.5 52.5 -28.5 67.5s-46.5 22.5 -82.5 22.5h-118v-180h118z" />
    <glyph glyph-name="uni044D" unicode="&#x44d;" horiz-adv-x="566" 
d="M401.5 466.5c39 -22.333 69.499 -52.8311 91.499 -91.498s33 -82 33 -130s-11.167 -91.333 -33.5 -130s-53 -69.167 -92 -91.5s-82.5 -33.5 -130.5 -33.5c-53.333 0 -101.5 14.667 -144.5 44s-73.167 69.666 -90.5 120.999h80c14.667 -30 36 -53.333 64 -70
s58.667 -25 92 -25c44 0 82.333 14 115 42s52.334 64.333 59.001 109h-220v68h220c-6.66699 44.667 -26.167 81 -58.5 109s-70.5 42 -114.5 42c-32.667 0 -63 -8.33301 -91 -25s-49.333 -40 -64 -70h-80c17.333 51.333 47.5 91.666 90.5 120.999s91.167 44 144.5 44
c47.333 0 90.5 -11.167 129.5 -33.5z" />
    <glyph glyph-name="uni044E" unicode="&#x44e;" horiz-adv-x="766" 
d="M602.5 466.5c38.333 -22.333 68.5 -53 90.5 -92s33 -82.167 33 -129.5s-11 -90.5 -33 -129.5s-52.167 -69.667 -90.5 -92s-80.833 -33.5 -127.5 -33.5c-42.667 0 -82 9.5 -118 28.5s-65.5 45.167 -88.5 78.5s-37.167 71 -42.5 113h-76v-210h-75v490h75v-210h76
c5.33301 42 19.5 79.667 42.5 113s52.5 59.5 88.5 78.5s75.333 28.5 118 28.5c46.667 0 89.167 -11.167 127.5 -33.5zM563.5 84.5c26.333 16.333 47 38.5 62 66.5s22.5 59.333 22.5 94s-7.5 66 -22.5 94s-35.667 50.167 -62 66.5s-55.833 24.5 -88.5 24.5
s-62.167 -8.16699 -88.5 -24.5s-47 -38.5 -62 -66.5s-22.5 -59.333 -22.5 -94s7.5 -66 22.5 -94s35.667 -50.167 62 -66.5s55.833 -24.5 88.5 -24.5s62.167 8.16699 88.5 24.5z" />
    <glyph glyph-name="uni044F" unicode="&#x44f;" horiz-adv-x="515" 
d="M440 491l-0.000976562 -490.997h-75v183h-89l-151 -183h-90l155 186c-39.333 7.33301 -71.166 24.666 -95.499 51.999s-36.5 60.333 -36.5 99c0 29.333 7.16699 55.666 21.5 78.999s34.333 41.666 60 54.999s54.167 20 85.5 20h215zM364.999 253.003v168h-135
c-28 0 -50.667 -7.5 -68 -22.5s-26 -35.5 -26 -61.5s8.66699 -46.5 26 -61.5s40 -22.5 68 -22.5h135z" />
    <glyph glyph-name="uni0451" unicode="&#x451;" horiz-adv-x="563" 
d="M408.5 469.5c37 -20.333 66.166 -49 87.499 -86s32 -79.167 32 -126.5c0 -16 -0.666992 -28.333 -2 -37h-407c4.66699 -48.667 21.834 -87.5 51.501 -116.5s68.167 -43.5 115.5 -43.5c69.333 0 119.333 28.333 150 85h80c-20 -50 -49.667 -88.333 -89 -115
s-86.333 -40 -141 -40c-46 0 -87.833 11.167 -125.5 33.5s-67.167 52.833 -88.5 91.5s-32 82 -32 130s10.667 91.333 32 130s50.833 69.167 88.5 91.5s79.5 33.5 125.5 33.5c44.667 0 85.5 -10.167 122.5 -30.5zM176.499 392c-29 -25.333 -47.168 -60 -54.501 -104h327
c-4.66699 42.667 -22.167 77 -52.5 103s-67.166 39 -110.499 39c-44 0 -80.5 -12.667 -109.5 -38zM235.998 584h-87v92h87v-92zM420.998 584h-87v92h87v-92z" />
    <glyph glyph-name="uni0452" unicode="&#x452;" horiz-adv-x="580" 
d="M310 -200l0.00195312 69.999h45c25.333 0 45 7 59 21s21 33.667 21 59v305c0 43.333 -12 78.333 -36 105s-57 40 -99 40c-26.667 0 -51 -6.16699 -73 -18.5s-39.5 -29.5 -52.5 -51.5s-19.5 -47 -19.5 -75v-255h-75v561h-75v65h75v94h75v-94h165v-65h-165v-166
c20 24.667 43.167 43.334 69.5 56.001s54.833 19 85.5 19c39.333 0 74.166 -9.5 104.499 -28.5s53.833 -44.833 70.5 -77.5s25 -69 25 -109v-310c0 -42.667 -13.833 -77.5 -41.5 -104.5s-63.834 -40.5 -108.501 -40.5h-50z" />
    <glyph glyph-name="uni0453" unicode="&#x453;" horiz-adv-x="395" 
d="M150 0h-75v490h310v-70h-235v-420zM268 560h-73l90 140h83z" />
    <glyph glyph-name="uni0454" unicode="&#x454;" horiz-adv-x="556" 
d="M382 85c28 16.667 49.333 39.998 64 69.998h80c-17.333 -51.333 -47.5 -91.666 -90.5 -120.999s-91.167 -44 -144.5 -44c-45.333 0 -87.166 11.167 -125.499 33.5s-68.833 53 -91.5 92s-34 82.167 -34 129.5s11.333 90.5 34 129.5s53.167 69.667 91.5 92
s80.166 33.5 125.499 33.5c53.333 0 101.5 -14.667 144.5 -44s73.167 -69.666 90.5 -120.999h-80c-14.667 30 -36 53.333 -64 70s-58.333 25 -91 25c-42.667 0 -80 -14.167 -112 -42.5s-51.333 -64.5 -58 -108.5h218v-68h-218c6.66699 -44 26 -80.167 58 -108.5
s69.333 -42.5 112 -42.5c32.667 0 63 8.33301 91 25z" />
    <glyph glyph-name="uni0455" unicode="&#x455;" horiz-adv-x="483" 
d="M145.5 10c-29 13.333 -51.833 31.667 -68.5 55s-25.667 50 -27 80h75c2 -25.333 13.667 -45.833 35 -61.5s50 -23.5 86 -23.5c30 0 54.833 6.33301 74.5 19s29.5 30.667 29.5 54c0 18 -5.33301 32.5 -16 43.5s-23.834 19.167 -39.501 24.5s-37.834 11.333 -66.501 18
c-36 8 -64.667 16.167 -86 24.5s-39.666 21.833 -54.999 40.5s-23 44 -23 76c0 26 8 49.667 24 71s37.5 38.166 64.5 50.499s56.5 18.5 88.5 18.5c31.333 0 60.166 -6.66699 86.499 -20s47.5 -31.333 63.5 -54s24.333 -48 25 -76h-75
c-1.33301 22.667 -11.666 41.667 -30.999 57s-43.666 23 -72.999 23c-26.667 0 -49.167 -6.33301 -67.5 -19s-27.5 -29.667 -27.5 -51c0 -16 5.16699 -29 15.5 -39s23 -17.667 38 -23s36.167 -11.333 63.5 -18c36 -8 65.167 -16.5 87.5 -25.5s41.5 -23.167 57.5 -42.5
s24 -45.666 24 -78.999c0 -42.667 -17.667 -77.167 -53 -103.5s-79 -39.5 -131 -39.5c-36.667 0 -69.5 6.66699 -98.5 20z" />
    <glyph glyph-name="uni0456" unicode="&#x456;" horiz-adv-x="225" 
d="M150 0h-75v490h75v-490zM156 584h-87v92h87v-92z" />
    <glyph glyph-name="uni0457" unicode="&#x457;" horiz-adv-x="225" 
d="M150 0h-75v490h75v-490zM89 584h-87v92h87v-92zM224 584h-87v92h87v-92z" />
    <glyph glyph-name="uni0458" unicode="&#x458;" horiz-adv-x="225" 
d="M-50 -200l0.000976562 70h45c25.333 0 45 7 59 21s21 33.667 21 59v540h75v-545c0 -42.667 -13.833 -77.5 -41.5 -104.5s-63.834 -40.5 -108.501 -40.5h-50zM156.001 584h-87v92h87v-92z" />
    <glyph glyph-name="uni0459" unicode="&#x459;" horiz-adv-x="775" 
d="M566 310c58 0 104.001 -14.333 138.001 -43s51 -66 51 -112s-17 -83.333 -51 -112s-80 -43 -138 -43h-178v420h-170l-19 -250c-9.33301 -116.667 -63 -175 -161 -175h-18v73h18c28 0 48.667 9 62 27s21.666 48.333 24.999 91l23 304h315v-180h103zM566.001 70
c35.333 0 62.666 7.33301 81.999 22s29 35.667 29 63s-9.66699 48.333 -29 63s-46.666 22 -81.999 22h-103v-170h103z" />
    <glyph glyph-name="uni045A" unicode="&#x45a;" horiz-adv-x="787" 
d="M588 300c35.333 0 66.5 -6.5 93.5 -19.5s48 -31 63 -54s22.5 -48.5 22.5 -76.5s-7.5 -53.5 -22.5 -76.5s-36 -41 -63 -54s-58.167 -19.5 -93.5 -19.5h-188v230h-250v-230h-75v490h75v-190h250v190h75v-190h113zM588 70c30.667 0 55.167 7.16699 73.5 21.5
s27.5 33.833 27.5 58.5s-9.16699 44.167 -27.5 58.5s-42.833 21.5 -73.5 21.5h-113v-160h113z" />
    <glyph glyph-name="uni045B" unicode="&#x45b;" horiz-adv-x="580" 
d="M414.5 441.5c30.333 -19 53.834 -44.834 70.501 -77.501s25 -69 25 -109v-255h-75v255c0 43.333 -12 78.333 -36 105s-57 40 -99 40c-26.667 0 -51 -6.16699 -73 -18.5s-39.5 -29.5 -52.5 -51.5s-19.5 -47 -19.5 -75v-255h-75v561h-75v65h75v94h75v-94h165v-65h-165v-166
c20 24.667 43.167 43.334 69.5 56.001s54.833 19 85.5 19c39.333 0 74.166 -9.5 104.499 -28.5z" />
    <glyph glyph-name="uni045C" unicode="&#x45c;" horiz-adv-x="484" 
d="M230 249l249 -249h-102l-227 230v-230h-75v490h75v-227l216 227h96zM278 560h-73l90 140h83z" />
    <glyph glyph-name="uni045E" unicode="&#x45e;" horiz-adv-x="515" 
d="M262 119l163 371h80l-310 -690h-80l105 235l-215 455h84zM146 590.5c-28 25.667 -43.333 58.834 -46 99.501h72c2.66699 -25.333 11.5 -44.5 26.5 -57.5s33.833 -19.5 56.5 -19.5s41.5 6.5 56.5 19.5s23.833 32.167 26.5 57.5h72
c-2.66699 -40.667 -18 -73.834 -46 -99.501s-64.333 -38.5 -109 -38.5s-81 12.833 -109 38.5z" />
    <glyph glyph-name="uni045F" unicode="&#x45f;" horiz-adv-x="560" 
d="M317 -140h-75v140h-167v490h75v-420h260v420h75v-490h-168v-140z" />
    <glyph glyph-name="uni0490" unicode="&#x490;" horiz-adv-x="475" 
d="M175 0h-80v700h285v160h80v-235h-285v-625z" />
    <glyph glyph-name="uni0491" unicode="&#x491;" horiz-adv-x="395" 
d="M150 0h-75v490h235v145h75v-215h-235v-420z" />
    <glyph glyph-name="Wgrave" unicode="&#x1e80;" horiz-adv-x="980" 
d="M696 152l176 548h83l-235 -700h-51l-180 546l-180 -546h-49l-235 700h85l175 -545l180 545h50zM532 765h-76l-100 140h86z" />
    <glyph glyph-name="wgrave" unicode="&#x1e81;" horiz-adv-x="800" 
d="M571 117l141 373h78l-195 -490h-51l-145 364l-145 -364h-49l-195 490h80l140 -370l145 370h50zM441 560h-76l-100 140h86z" />
    <glyph glyph-name="Wacute" unicode="&#x1e82;" horiz-adv-x="980" 
d="M696 152l176 548h83l-235 -700h-51l-180 546l-180 -546h-49l-235 700h85l175 -545l180 545h50zM513 765h-73l90 140h83z" />
    <glyph glyph-name="wacute" unicode="&#x1e83;" horiz-adv-x="800" 
d="M571 117l141 373h78l-195 -490h-51l-145 364l-145 -364h-49l-195 490h80l140 -370l145 370h50zM423 560h-73l90 140h83z" />
    <glyph glyph-name="Wdieresis" unicode="&#x1e84;" horiz-adv-x="980" 
d="M696 152l176 548h83l-235 -700h-51l-180 546l-180 -546h-49l-235 700h85l175 -545l180 545h50zM441 789h-87v92h87v-92zM626 789h-87v92h87v-92z" />
    <glyph glyph-name="wdieresis" unicode="&#x1e85;" horiz-adv-x="800" 
d="M571 117l141 373h78l-195 -490h-51l-145 364l-145 -364h-49l-195 490h80l140 -370l145 370h50zM351 584h-87v92h87v-92zM536 584h-87v92h87v-92z" />
    <glyph glyph-name="uni1E9E" unicode="&#x1e9e;" horiz-adv-x="670" 
d="M422 418c38.667 -2.66699 73.502 -13.832 104.502 -33.499s55.167 -44.834 72.5 -75.501s26 -63.667 26 -99c0 -38 -9.83301 -73 -29.5 -105s-47 -57.5 -82 -76.5s-74.5 -28.5 -118.5 -28.5h-75v75h72c29.333 0 55.333 6 78 18s40.334 28.333 53.001 49
s19 43.334 19 68.001s-6.33301 47.334 -19 68.001s-30.334 37 -53.001 49s-48.667 18 -78 18h-72v55l150 225h-155c-40 0 -73.333 -13.667 -100 -41s-40 -62 -40 -104v-480h-80v480c0 41.333 9.66699 78.666 29 111.999s45.666 59.666 78.999 78.999s70.666 29 111.999 29
h255v-60z" />
    <glyph glyph-name="Ygrave" unicode="&#x1ef2;" horiz-adv-x="560" 
d="M281 384l175 316h89l-225 -395v-305h-80v305l-225 395h91zM322 765h-76l-100 140h86z" />
    <glyph glyph-name="ygrave" unicode="&#x1ef3;" horiz-adv-x="515" 
d="M262 119l163 371h80l-310 -690h-80l105 235l-215 455h84zM296 560h-76l-100 140h86z" />
    <glyph glyph-name="endash" unicode="&#x2013;" horiz-adv-x="600" 
d="M550 222h-500v65h500v-65z" />
    <glyph glyph-name="emdash" unicode="&#x2014;" horiz-adv-x="1000" 
d="M950 222h-900v65h900v-65z" />
    <glyph glyph-name="quoteleft" unicode="&#x2018;" horiz-adv-x="215" 
d="M125 470h-90l75 230h70z" />
    <glyph glyph-name="quoteright" unicode="&#x2019;" horiz-adv-x="215" 
d="M105 470h-70l55 230h90z" />
    <glyph glyph-name="quotesinglbase" unicode="&#x201a;" horiz-adv-x="215" 
d="M105 -133h-70l55 230h90z" />
    <glyph glyph-name="quotedblleft" unicode="&#x201c;" horiz-adv-x="385" 
d="M125 470h-90l75 230h70zM295 470h-90l75 230h70z" />
    <glyph glyph-name="quotedblright" unicode="&#x201d;" horiz-adv-x="385" 
d="M105 470h-70l55 230h90zM275 470h-70l55 230h90z" />
    <glyph glyph-name="quotedblbase" unicode="&#x201e;" horiz-adv-x="385" 
d="M105 -133h-70l55 230h90zM275 -133h-70l55 230h90z" />
    <glyph glyph-name="dagger" unicode="&#x2020;" horiz-adv-x="445" 
d="M260 530h135v-70h-135v-460h-75v460h-135v70h135v170h75v-170z" />
    <glyph glyph-name="daggerdbl" unicode="&#x2021;" horiz-adv-x="445" 
d="M395 530v-70h-135v-220h135v-70h-135v-170h-75v170h-135v70h135v220h-135v70h135v170h75v-170h135z" />
    <glyph glyph-name="bullet" unicode="&#x2022;" horiz-adv-x="381" 
d="M127 191c-18 18 -27 39.333 -27 64s9 45.834 27 63.501s39.333 26.5 64 26.5s45.834 -8.83301 63.501 -26.5s26.5 -38.834 26.5 -63.501s-8.83301 -46 -26.5 -64s-38.834 -27 -63.501 -27s-46 9 -64 27z" />
    <glyph glyph-name="ellipsis" unicode="&#x2026;" horiz-adv-x="737" 
d="M164 0h-89v97h89v-97zM413 0h-89v97h89v-97zM662 0h-89v97h89v-97z" />
    <glyph glyph-name="perthousand" unicode="&#x2030;" horiz-adv-x="1217" 
d="M131 393c-26.667 15.333 -47.667 36 -63 62s-23 54.333 -23 85s7.66699 59 23 85s36.333 46.667 63 62s55.667 23 87 23s60.333 -7.66699 87 -23s47.667 -36 63 -62s23 -54.333 23 -85s-7.66699 -59 -23 -85s-36.333 -46.667 -63 -62s-55.667 -23 -87 -23
s-60.333 7.66699 -87 23zM217 0h-83l480 700h83zM292.5 462.5c19.667 20.333 29.5 46.166 29.5 77.499s-9.83301 57.166 -29.5 77.499s-44.5 30.5 -74.5 30.5s-54.833 -10.167 -74.5 -30.5s-29.5 -46.166 -29.5 -77.499s9.83301 -57.166 29.5 -77.499s44.5 -30.5 74.5 -30.5
s54.833 10.167 74.5 30.5zM526 13c-26.667 15.333 -47.667 36 -63 62s-23 54.333 -23 85s7.66699 59 23 85s36.333 46.667 63 62s55.667 23 87 23s60.333 -7.66699 87 -23s47.667 -36 63 -62s23 -54.333 23 -85s-7.66699 -59 -23 -85s-36.333 -46.667 -63 -62
s-55.667 -23 -87 -23s-60.333 7.66699 -87 23zM912 13c-26.667 15.333 -47.667 36 -63 62s-23 54.333 -23 85s7.66699 59 23 85s36.333 46.667 63 62s55.667 23 87 23s60.333 -7.66699 87 -23s47.667 -36 63 -62s23 -54.333 23 -85s-7.66699 -59 -23 -85
s-36.333 -46.667 -63 -62s-55.667 -23 -87 -23s-60.333 7.66699 -87 23zM687.5 82.5c19.667 20.333 29.5 46.166 29.5 77.499s-9.83301 57.166 -29.5 77.499s-44.5 30.5 -74.5 30.5s-54.833 -10.167 -74.5 -30.5s-29.5 -46.166 -29.5 -77.499s9.83301 -57.166 29.5 -77.499
s44.5 -30.5 74.5 -30.5s54.833 10.167 74.5 30.5zM1073.5 82.5c19.667 20.333 29.5 46.166 29.5 77.499s-9.83301 57.166 -29.5 77.499s-44.5 30.5 -74.5 30.5s-54.833 -10.167 -74.5 -30.5s-29.5 -46.166 -29.5 -77.499s9.83301 -57.166 29.5 -77.499
s44.5 -30.5 74.5 -30.5s54.833 10.167 74.5 30.5z" />
    <glyph glyph-name="guilsinglleft" unicode="&#x2039;" horiz-adv-x="305" 
d="M255 75h-85l-145 180l145 180h85l-145 -180z" />
    <glyph glyph-name="guilsinglright" unicode="&#x203a;" horiz-adv-x="305" 
d="M135 75h-85l145 180l-145 180h85l145 -180z" />
    <glyph glyph-name="fraction" unicode="&#x2044;" horiz-adv-x="143" 
d="M-127 0h-83l480 700h83z" />
    <glyph glyph-name="uni2070" unicode="&#x2070;" horiz-adv-x="348" 
d="M74.5 532c-26.333 32.667 -39.5 76.667 -39.5 132s13.167 99.333 39.5 132s59.5 49 99.5 49s73.167 -16.333 99.5 -49s39.5 -76.667 39.5 -132s-13.167 -99.333 -39.5 -132s-59.5 -49 -99.5 -49s-73.167 16.333 -99.5 49zM227 575c14 22 21 51.667 21 89s-7 67 -21 89
s-31.667 33 -53 33s-39 -11 -53 -33s-21 -51.667 -21 -89s7 -67 21 -89s31.667 -33 53 -33s39 11 53 33z" />
    <glyph glyph-name="uni2074" unicode="&#x2074;" horiz-adv-x="310" 
d="M239 616h51v-53h-51v-75h-62v75h-167v44l169 233h60v-224zM177 753l-98 -137h98v137z" />
    <glyph glyph-name="uni2075" unicode="&#x2075;" horiz-adv-x="318" 
d="M248 690.5c23.333 -23 35.001 -51.833 35.001 -86.5s-11.833 -63.5 -35.5 -86.5s-54.834 -34.5 -93.501 -34.5c-35.333 0 -65 9.66699 -89 29s-37.333 44 -40 74h67c2 -12 8.83301 -22.5 20.5 -31.5s25.167 -13.5 40.5 -13.5c18.667 0 33.834 6 45.501 18
s17.5 27 17.5 45s-5.83301 33 -17.5 45s-26.834 18 -45.501 18c-22 0 -39.333 -7.66699 -52 -23l-55 22l43 174h180v-58h-136l-15 -64c12 4.66699 25.333 7 40 7c36.667 0 66.667 -11.5 90 -34.5z" />
    <glyph glyph-name="uni2076" unicode="&#x2076;" horiz-adv-x="333" 
d="M262 691.5c24 -23.667 36 -52.499 36 -86.499c0 -34.667 -12.333 -63.667 -37 -87s-56.334 -35 -95.001 -35c-38 0 -69.333 11.667 -94 35s-37 52.333 -37 87c0 16 2.66699 30.667 8 44s13.333 28.666 24 45.999l94 145h73l-75 -114c2.66699 0.666992 7.33398 1 14.001 1
c35.333 0 65 -11.833 89 -35.5zM212.5 560.001c12.333 12.667 18.5 27.667 18.5 45c0 18 -6 33.333 -18 46s-27.667 19 -47 19c-18.667 0 -34 -6.33301 -46 -19s-18 -28 -18 -46c0 -17.333 6 -32.333 18 -45s27.333 -19 46 -19s34.167 6.33301 46.5 19z" />
    <glyph glyph-name="uni2077" unicode="&#x2077;" horiz-adv-x="278" 
d="M25 782v58h243v-41l-145 -311h-71l137 294h-164z" />
    <glyph glyph-name="uni2078" unicode="&#x2078;" horiz-adv-x="324" 
d="M273 644c10.667 -15.333 15.998 -34 15.998 -56c0 -29.333 -11.333 -54.166 -34 -74.499s-53.667 -30.5 -93 -30.5s-70.333 10.167 -93 30.5s-34 45.166 -34 74.499c0 22 5.33301 40.667 16 56s25.334 27 44.001 35c-14 6.66699 -25.5 16.667 -34.5 30s-13.5 28 -13.5 44
c0 26.667 11 48.667 33 66s49.333 26 82 26s60 -8.66699 82 -26s33 -39.333 33 -66c0 -16 -4.5 -30.667 -13.5 -44s-20.5 -23.333 -34.5 -30c18.667 -8 33.334 -19.667 44.001 -35zM124.998 778c-9.33301 -8.66699 -14 -19.334 -14 -32.001s4.66699 -23.5 14 -32.5
s21.666 -13.5 36.999 -13.5s27.666 4.5 36.999 13.5s14 19.833 14 32.5s-4.66699 23.334 -14 32.001s-21.666 13 -36.999 13s-27.666 -4.33301 -36.999 -13zM205.498 552.5c11 10.333 16.5 23.166 16.5 38.499s-5.5 28.333 -16.5 39s-25.5 16 -43.5 16
s-32.5 -5.33301 -43.5 -16s-16.5 -23.667 -16.5 -39s5.5 -28.166 16.5 -38.499s25.5 -15.5 43.5 -15.5s32.5 5.16699 43.5 15.5z" />
    <glyph glyph-name="uni2079" unicode="&#x2079;" horiz-adv-x="333" 
d="M261 810c24.667 -23.333 37 -52.334 37 -87.001c0 -16 -2.66699 -30.667 -8 -44s-13.333 -28.666 -24 -45.999l-94 -145h-73l75 114c-2.66699 -0.666992 -7.33398 -1 -14.001 -1c-35.333 0 -65 11.833 -89 35.5s-36 52.5 -36 86.5c0 34.667 12.333 63.667 37 87
s56.334 35 95.001 35c38 0 69.333 -11.667 94 -35zM213 676.999c12 12.667 18 28 18 46c0 17.333 -6 32.333 -18 45s-27.333 19 -46 19s-34.167 -6.33301 -46.5 -19s-18.5 -27.667 -18.5 -45c0 -18 6 -33.333 18 -46s27.667 -19 47 -19c18.667 0 34 6.33301 46 19z" />
    </font>
</defs>
</svg>
