<svg xmlns="http://www.w3.org/2000/svg">
<defs>
<font id="TTForsTrial-Light" horiz-adv-x="532" >
  <font-face 
    font-family="TT Fors Trial Light"
    font-weight="300"
    font-stretch="normal"
    units-per-em="1000"
    panose-1="2 11 0 3 3 0 1 2 0 0"
    ascent="800"
    descent="-200"
    x-height="490"
    cap-height="700"
    bbox="-322 -240.002 1438 930.999"
    underline-thickness="42"
    underline-position="-176"
    unicode-range="U+000D-U+FB04"
  />
<missing-glyph horiz-adv-x="900" 
d="M100 0l-0.000976562 283.999h45v-139h33v139h50v31h-128v126l19 -61h23l34 106l33 -106h23l54 170h-32l-34 -110l-35 110h-19l-35 -110l-31 103v157h700v-150h-110v-170h110v-91c-4 8.66699 -10.5 15.334 -19.5 20.001s-19.167 7 -30.5 7
c-18 0 -32.5 -4.83301 -43.5 -14.5s-16.5 -21.167 -16.5 -34.5c0 -14.667 4.83301 -25.5 14.5 -32.5s22.834 -12.833 39.501 -17.5c11.333 -3.33301 19.833 -6.5 25.5 -9.5s8.5 -7.5 8.5 -13.5c0 -14 -9.33301 -21 -28 -21c-9.33301 0 -16.333 2.33301 -21 7
s-7 10.667 -7 18h-33c0 -16 5.66699 -29.167 17 -39.5s26 -15.5 44 -15.5c11.333 0 21.5 2.16699 30.5 6.5s15.5 8.83301 19.5 13.5v-163h-700zM310.999 379.999h33.001v62h24l35 -62h37l-40 67c24 11.333 36 28 36 50c0 14.667 -5.33301 27.167 -16 37.5
s-24.334 15.5 -41.001 15.5h-68v-170zM469 549.999v-170h33v170h-33zM580 518.999v-139h32v139h50v31h-132v-31h50zM344 472.999l-0.000976562 46h35c6.66699 0 12.334 -2.16699 17.001 -6.5s7 -9.83301 7 -16.5c0 -8 -2.5 -13.833 -7.5 -17.5s-10.5 -5.5 -16.5 -5.5h-35z
M799.999 482.999h-78v36h78v-36zM799.999 410.999h-78v41h78v-41zM387.499 167.499c15 16.333 22.5 36.833 22.5 61.5s-7.66699 45.334 -23 62.001s-35 25 -59 25s-43.667 -8.33301 -59 -25s-23 -37.334 -23 -62.001s7.5 -45.167 22.5 -61.5s34.833 -24.5 59.5 -24.5
s44.5 8.16699 59.5 24.5zM632.999 161.999c12.667 12.667 18.999 28.334 18.999 47.001v106h-32v-106c0 -10 -3.16699 -18.333 -9.5 -25s-14.833 -10 -25.5 -10c-11.333 0 -20.166 3.5 -26.499 10.5s-9.5 15.167 -9.5 24.5v106h-32v-106c0 -18.667 6.5 -34.334 19.5 -47.001

<glyph glyph-name="f_f_l.liga.ss04" unicode="ff&#xe02c;" horiz-adv-x="840" 
d="M818 54v-54h-49c-40.667 0 -73 12.167 -97 36.5s-36 56.5 -36 96.5v533h-126c-24.667 0 -44 -7.16699 -58 -21.5s-21 -34.5 -21 -60.5v-94h125v-53h-125v-437h-57v437h-205v-437h-57v437h-80v53h80v97c0 40 12 72.167 36 96.5s56.333 36.5 97 36.5h49v-54h-46
c-24.667 0 -44 -7.16699 -58 -21.5s-21 -34.5 -21 -60.5v-94h205v97c0 40 12 72.167 36 96.5s56.333 36.5 97 36.5h186v-584c0 -26 7 -46.167 21 -60.5s33.333 -21.5 58 -21.5h46z" />
    <glyph glyph-name="f_l.liga.ss04" unicode="f&#xe02c;" horiz-adv-x="578" 
d="M556 54v-54h-49c-40.667 0 -73 12.167 -97 36.5s-36 56.5 -36 96.5v533h-126c-24.667 0 -44 -7.16699 -58 -21.5s-21 -34.5 -21 -60.5v-94h125v-53h-125v-437h-57v437h-80v53h80v97c0 40 12 72.167 36 96.5s56.333 36.5 97 36.5h186v-584c0 -26 7 -46.167 21 -60.5
s33.333 -21.5 58 -21.5h46z" />
    <glyph glyph-name="f_f_i.liga.ss07" unicode="ff&#xe117;" horiz-adv-x="770" 
d="M431 490h262v-490h-57v437h-205v-437h-57v437h-205v-437h-57v437h-80v53h80v97c0 40 12 72.167 36 96.5s56.333 36.5 97 36.5h49v-54h-46c-24.667 0 -44 -7.16699 -58 -21.5s-21 -34.5 -21 -60.5v-94h205v97c0 40 12 72.167 36 96.5s56.333 36.5 97 36.5h49v-54h-46
c-24.667 0 -44 -7.16699 -58 -21.5s-21 -34.5 -21 -60.5v-94zM636.5 601.5c-7.66699 7.66699 -11.5 17.167 -11.5 28.5c0 10 4 19 12 27s17.333 12 28 12s19.834 -4 27.501 -12s11.5 -17 11.5 -27c0 -11.333 -3.83301 -20.833 -11.5 -28.5s-16.834 -11.5 -27.501 -11.5
c-11.333 0 -20.833 3.83301 -28.5 11.5z" />
    <glyph glyph-name="fi.liga.ss07" unicode="f&#xe117;" horiz-adv-x="508" 
d="M169 490h262v-490h-57v437h-205v-437h-57v437h-80v53h80v97c0 40 12 72.167 36 96.5s56.333 36.5 97 36.5h49v-54h-46c-24.667 0 -44 -7.16699 -58 -21.5s-21 -34.5 -21 -60.5v-94zM374.5 601.5c-7.66699 7.66699 -11.5 17.167 -11.5 28.5c0 10 4 19 12 27
s17.333 12 28 12s19.834 -4 27.501 -12s11.5 -17 11.5 -27c0 -11.333 -3.83301 -20.833 -11.5 -28.5s-16.834 -11.5 -27.501 -11.5c-11.333 0 -20.833 3.83301 -28.5 11.5z" />
    <glyph glyph-name="f_f.liga" unicode="ff" horiz-adv-x="578" 
d="M510 666c-24.667 0 -44 -7.16699 -58 -21.5s-21 -34.5 -21 -60.5v-94h125v-53h-125v-437h-57v437h-205v-437h-57v437h-80v53h80v97c0 40 12 72.167 36 96.5s56.333 36.5 97 36.5h49v-54h-46c-24.667 0 -44 -7.16699 -58 -21.5s-21 -34.5 -21 -60.5v-94h205v97
c0 40 12 72.167 36 96.5s56.333 36.5 97 36.5h49v-54h-46z" />
    <glyph glyph-name="fi.liga" unicode="fi" horiz-adv-x="507" 
d="M169 490h262v-490h-57v437h-205v-437h-57v437h-80v53h80v97c0 40 12 72.167 36 96.5s56.333 36.5 97 36.5h49v-54h-46c-24.667 0 -44 -7.16699 -58 -21.5s-21 -34.5 -21 -60.5v-94zM368 593v74h69v-74h-69z" />
    <glyph glyph-name="f_l.liga" unicode="fl" horiz-adv-x="513" 
d="M431 720v-720h-57v666h-126c-24.667 0 -44 -7.16699 -58 -21.5s-21 -34.5 -21 -60.5v-94h125v-53h-125v-437h-57v437h-80v53h80v97c0 40 12 72.167 36 96.5s56.333 36.5 97 36.5h186z" />
    <glyph glyph-name="f_f_i.liga" unicode="ffi" horiz-adv-x="769" 
d="M431 490h262v-490h-57v437h-205v-437h-57v437h-205v-437h-57v437h-80v53h80v97c0 40 12 72.167 36 96.5s56.333 36.5 97 36.5h49v-54h-46c-24.667 0 -44 -7.16699 -58 -21.5s-21 -34.5 -21 -60.5v-94h205v97c0 40 12 72.167 36 96.5s56.333 36.5 97 36.5h49v-54h-46
c-24.667 0 -44 -7.16699 -58 -21.5s-21 -34.5 -21 -60.5v-94zM630 593v74h69v-74h-69z" />
    <glyph glyph-name="f_f_l.liga" unicode="ffl" horiz-adv-x="775" 
d="M693 720v-720h-57v666h-126c-24.667 0 -44 -7.16699 -58 -21.5s-21 -34.5 -21 -60.5v-94h125v-53h-125v-437h-57v437h-205v-437h-57v437h-80v53h80v97c0 40 12 72.167 36 96.5s56.333 36.5 97 36.5h49v-54h-46c-24.667 0 -44 -7.16699 -58 -21.5s-21 -34.5 -21 -60.5v-94
h205v97c0 40 12 72.167 36 96.5s56.333 36.5 97 36.5h186z" />
    <glyph glyph-name=".notdef" horiz-adv-x="900" 
d="M100 0l-0.000976562 283.999h45v-139h33v139h50v31h-128v126l19 -61h23l34 106l33 -106h23l54 170h-32l-34 -110l-35 110h-19l-35 -110l-31 103v157h700v-150h-110v-170h110v-91c-4 8.66699 -10.5 15.334 -19.5 20.001s-19.167 7 -30.5 7
c-18 0 -32.5 -4.83301 -43.5 -14.5s-16.5 -21.167 -16.5 -34.5c0 -14.667 4.83301 -25.5 14.5 -32.5s22.834 -12.833 39.501 -17.5c11.333 -3.33301 19.833 -6.5 25.5 -9.5s8.5 -7.5 8.5 -13.5c0 -14 -9.33301 -21 -28 -21c-9.33301 0 -16.333 2.33301 -21 7
s-7 10.667 -7 18h-33c0 -16 5.66699 -29.167 17 -39.5s26 -15.5 44 -15.5c11.333 0 21.5 2.16699 30.5 6.5s15.5 8.83301 19.5 13.5v-163h-700zM310.999 379.999h33.001v62h24l35 -62h37l-40 67c24 11.333 36 28 36 50c0 14.667 -5.33301 27.167 -16 37.5
s-24.334 15.5 -41.001 15.5h-68v-170zM469 549.999v-170h33v170h-33zM580 518.999v-139h32v139h50v31h-132v-31h50zM344 472.999l-0.000976562 46h35c6.66699 0 12.334 -2.16699 17.001 -6.5s7 -9.83301 7 -16.5c0 -8 -2.5 -13.833 -7.5 -17.5s-10.5 -5.5 -16.5 -5.5h-35z
M799.999 482.999h-78v36h78v-36zM799.999 410.999h-78v41h78v-41zM387.499 167.499c15 16.333 22.5 36.833 22.5 61.5s-7.66699 45.334 -23 62.001s-35 25 -59 25s-43.667 -8.33301 -59 -25s-23 -37.334 -23 -62.001s7.5 -45.167 22.5 -61.5s34.833 -24.5 59.5 -24.5
s44.5 8.16699 59.5 24.5zM632.999 161.999c12.667 12.667 18.999 28.334 18.999 47.001v106h-32v-106c0 -10 -3.16699 -18.333 -9.5 -25s-14.833 -10 -25.5 -10c-11.333 0 -20.166 3.5 -26.499 10.5s-9.5 15.167 -9.5 24.5v106h-32v-106c0 -18.667 6.5 -34.334 19.5 -47.001
s29.167 -19 48.5 -19s35.333 6.33301 48 19zM799.998 223.999c-10 9.33301 -25.332 16.667 -45.999 22c-10.667 3.33301 -18.334 6.33301 -23.001 9s-7 6.66699 -7 12c0 6 2.5 10.833 7.5 14.5s11.167 5.5 18.5 5.5c6.66699 0 12.667 -2.33301 18 -7s8 -10.667 8 -18h24v-38
zM291.499 190c-9.66699 10.667 -14.4971 23.667 -14.4971 39c0 16.667 4.66699 30.167 14 40.5s21.666 15.5 36.999 15.5c16 0 28.5 -5.16699 37.5 -15.5s13.5 -23.833 13.5 -40.5c0 -15.333 -4.83301 -28.333 -14.5 -39s-21.834 -16 -36.501 -16
s-26.834 5.33301 -36.501 16z" />
    <glyph glyph-name="nonmarkingreturn" unicode="&#xd;" horiz-adv-x="600" 
 />
    <glyph glyph-name="space" unicode=" " horiz-adv-x="276" 
 />
    <glyph glyph-name="exclam" unicode="!" horiz-adv-x="280" 
d="M168 173h-56l-4 527h64zM175 0h-70v76h70v-76z" />
    <glyph glyph-name="quotedbl" unicode="&#x22;" horiz-adv-x="338" 
d="M117 486h-44l-9 214h62zM265 486h-44l-9 214h62z" />
    <glyph glyph-name="numbersign" unicode="#" horiz-adv-x="676" 
d="M664 513l-14 -53h-134l-58 -220h134l-14 -53h-134l-49 -187h-56l49 187h-186l-49 -187h-56l49 187h-134l14 53h134l58 220h-134l14 53h134l49 187h56l-49 -187h186l49 187h56l-49 -187h134zM216 240h186l58 220h-186z" />
    <glyph glyph-name="dollar" unicode="$" horiz-adv-x="562" 
d="M453 49c-36.667 -34 -83.666 -53.333 -140.999 -58v-96h-57v97c-60.667 6 -109 28 -145 66s-54.667 85.333 -56 142h60c1.33301 -43.333 17 -79.666 47 -108.999s72 -44 126 -44c49.333 0 88.166 12.333 116.499 37s42.5 55.334 42.5 92.001
c0 30.667 -7.66699 55.667 -23 75s-34.5 34.333 -57.5 45s-53.833 22 -92.5 34c-44 14 -79.333 27.667 -106 41s-49.167 32.666 -67.5 57.999s-27.5 58.666 -27.5 99.999c0 48 17 88.5 51 121.5s78 52.167 132 57.5v97h57v-97c34 -4 64.833 -14.833 92.5 -32.5
s49.667 -40.5 66 -68.5s24.833 -58.667 25.5 -92h-60c-1.33301 24.667 -8.33301 47.5 -21 68.5s-30.5 37.833 -53.5 50.5s-49.5 19 -79.5 19c-44 0 -79.667 -11.333 -107 -34s-41 -52.667 -41 -90c0 -28.667 7.5 -52 22.5 -70s33.5 -32.167 55.5 -42.5s52 -21.5 90 -33.5
c44.667 -14.667 80.667 -28.834 108 -42.501s50.5 -33.667 69.5 -60s28.5 -61.166 28.5 -104.499c0 -50.667 -18.333 -93 -55 -127z" />
    <glyph glyph-name="percent" unicode="%" horiz-adv-x="820" 
d="M131.5 399.5c-25.667 15 -45.834 35.167 -60.501 60.5s-22 53.333 -22 84c0 30 7.33301 57.833 22 83.5s34.834 45.834 60.501 60.501s53.834 22 84.501 22s58.834 -7.33301 84.501 -22s46 -34.834 61 -60.501s22.5 -53.5 22.5 -83.5c0 -30.667 -7.5 -58.667 -22.5 -84
s-35.333 -45.5 -61 -60.5s-53.834 -22.5 -84.501 -22.5s-58.834 7.5 -84.501 22.5zM202 0h-64l480 700h64zM297.5 459.5c21.667 22.333 32.5 50.5 32.5 84.5s-10.833 62 -32.5 84s-48.834 33 -81.501 33c-32 0 -59 -11 -81 -33s-33 -50 -33 -84s11 -62.167 33 -84.5
s49 -33.5 81 -33.5c32.667 0 59.834 11.167 81.501 33.5zM519.5 12c-25.667 14.667 -46 34.834 -61 60.501s-22.5 53.5 -22.5 83.5c0 30.667 7.5 58.667 22.5 84s35.333 45.5 61 60.5s53.834 22.5 84.501 22.5s58.834 -7.5 84.501 -22.5s45.834 -35.167 60.501 -60.5
s22 -53.333 22 -84c0 -30 -7.33301 -57.833 -22 -83.5s-34.834 -45.834 -60.501 -60.501s-53.834 -22 -84.501 -22s-58.834 7.33301 -84.501 22zM685 72c22 22 33 50 33 84s-11 62.167 -33 84.5s-49 33.5 -81 33.5c-32.667 0 -59.834 -11.167 -81.501 -33.5
s-32.5 -50.5 -32.5 -84.5s10.833 -62 32.5 -84s48.834 -33 81.501 -33c32 0 59 11 81 33z" />
    <glyph glyph-name="ampersand" unicode="&#x26;" horiz-adv-x="631" 
d="M624 293l-130.003 -148.001l130 -145h-77l-91 102c-37.333 -40 -71.666 -68.667 -102.999 -86s-68 -26 -110 -26c-39.333 0 -73.166 7.5 -101.499 22.5s-49.666 35.167 -63.999 60.5s-21.5 53 -21.5 83c0 64 26.333 118.333 79 163l74 62l-38 43
c-22 24.667 -38.167 46.334 -48.5 65.001s-15.5 41 -15.5 67c0 44 14.333 80.667 43 110s66 44 112 44s83.667 -13.833 113 -41.5s44 -62.5 44 -104.5c0 -28.667 -6.83301 -54 -20.5 -76s-37.167 -47.333 -70.5 -76l-41 -35l171 -191l94 107h72zM250.997 416.999
l30.001 25.001c27.333 23.333 47.666 43.666 60.999 60.999s20 37.666 20 60.999c0 26 -9.5 47.833 -28.5 65.5s-42.833 26.5 -71.5 26.5c-28 0 -51.333 -9.33301 -70 -28s-28 -42.667 -28 -72c0 -18.667 4.33301 -35.167 13 -49.5s22.667 -32.166 42 -53.499zM329.998 64.5
c25.333 13.667 55.333 39.832 90 78.499l-175 198l-72 -61c-22 -18.667 -37.5 -37.5 -46.5 -56.5s-13.5 -40.833 -13.5 -65.5c0 -31.333 11.167 -58.166 33.5 -80.499s54.5 -33.5 96.5 -33.5c32.667 0 61.667 6.83301 87 20.5z" />
    <glyph glyph-name="quotesingle" unicode="'" horiz-adv-x="190" 
d="M117 486h-44l-9 214h62z" />
    <glyph glyph-name="parenleft" unicode="(" horiz-adv-x="261" 
d="M201 -200c-32.667 48 -62 114.167 -88 198.5s-39 173.166 -39 266.499s13 182.166 39 266.499s55.333 150.5 88 198.5h58c-32.667 -49.333 -62.167 -116.166 -88.5 -200.499s-39.5 -172.5 -39.5 -264.5s13.167 -180.167 39.5 -264.5s55.833 -151.166 88.5 -200.499h-58z
" />
    <glyph glyph-name="parenright" unicode=")" horiz-adv-x="261" 
d="M2 -200c32.667 49.333 62.167 116.168 88.5 200.501s39.5 172.5 39.5 264.5s-13.167 180.167 -39.5 264.5s-55.833 151.166 -88.5 200.499h58c32 -48.667 61.167 -115 87.5 -199s39.5 -172.667 39.5 -266s-13.167 -182 -39.5 -266s-55.5 -150.333 -87.5 -199h-58z" />
    <glyph glyph-name="asterisk" unicode="*" horiz-adv-x="445" 
d="M393 599l15 -59l-146 -34l98 -121l-51 -36l-86 132l-87 -132l-51 36l99 121l-147 34l16 59l147 -51l-9 152h63l-9 -152z" />
    <glyph glyph-name="plus" unicode="+" 
d="M294 368h210v-56h-210v-210h-55v210h-211v56h211v210h55v-210z" />
    <glyph glyph-name="comma" unicode="," horiz-adv-x="229" 
d="M92 -133h-53l51 209h70z" />
    <glyph glyph-name="hyphen" unicode="-" horiz-adv-x="360" 
d="M308 227h-256v55h256v-55z" />
    <glyph glyph-name="period" unicode="." horiz-adv-x="223" 
d="M146 0h-69v76h69v-76z" />
    <glyph glyph-name="slash" unicode="/" horiz-adv-x="342" 
d="M58 -200h-58l284 930h58z" />
    <glyph glyph-name="zero" unicode="0" horiz-adv-x="622" 
d="M179.5 34c-37.667 29.333 -66.667 71.166 -87 125.499s-30.5 117.833 -30.5 190.5s10.167 136.167 30.5 190.5s49.333 96.166 87 125.499s81.5 44 131.5 44s93.667 -14.667 131 -44s66.333 -71.166 87 -125.499s31 -117.833 31 -190.5s-10.333 -136.167 -31 -190.5
s-49.667 -96.166 -87 -125.499s-81 -44 -131 -44s-93.833 14.667 -131.5 44zM408 83.5c28 24.333 50 59.333 66 105s24 99.5 24 161.5s-8 115.833 -24 161.5s-38 80.667 -66 105s-60.333 36.5 -97 36.5s-69.167 -12.167 -97.5 -36.5s-50.333 -59.333 -66 -105
s-23.5 -99.5 -23.5 -161.5s7.83301 -115.833 23.5 -161.5s37.667 -80.667 66 -105s60.833 -36.5 97.5 -36.5s69 12.167 97 36.5z" />
    <glyph glyph-name="one" unicode="1" horiz-adv-x="343" 
d="M24 622l171 78h41v-700h-60v630l-152 -69v61z" />
    <glyph glyph-name="two" unicode="2" horiz-adv-x="521" 
d="M132 60l347 -0.00292969v-60h-443v38l272 304c34 38 57 69.333 69 94s18 49.334 18 74.001c0 43.333 -13.667 78 -41 104s-63 39 -107 39c-42.667 0 -78.167 -12.667 -106.5 -38s-43.833 -61.333 -46.5 -108h-60c1.33301 40.667 11.666 76.334 30.999 107.001
s44.833 54.334 76.5 71.001s66.834 25 105.501 25s74 -8.16699 106 -24.5s57.333 -39.666 76 -69.999s28 -65.5 28 -105.5c0 -31.333 -7.5 -61.833 -22.5 -91.5s-42.5 -66.834 -82.5 -111.501z" />
    <glyph glyph-name="three" unicode="3" horiz-adv-x="538" 
d="M450.5 297.5c23.667 -31.667 35.498 -68.1689 35.498 -109.502c0 -36.667 -9.33301 -70.167 -28 -100.5s-44.667 -54.166 -78 -71.499s-70.333 -26 -111 -26c-44 0 -82.833 9.16699 -116.5 27.5s-59.834 43.5 -78.501 75.5s-28.667 67.333 -30 106h60
c1.33301 -28 8.83301 -53.5 22.5 -76.5s32.667 -41.333 57 -55s52.833 -20.5 85.5 -20.5c46 0 83.5 13.833 112.5 41.5s43.5 62.167 43.5 103.5c0 40 -14.5 73.333 -43.5 100s-68.167 40 -117.5 40h-51v57h51c42.667 0 76.834 12.667 102.501 38s38.5 56.666 38.5 93.999
c0 38.667 -13.333 70.334 -40 95.001s-60 37 -100 37c-41.333 0 -75.5 -13.167 -102.5 -39.5s-41.833 -59.833 -44.5 -100.5h-60c2 36.667 11.667 70 29 100s41.333 53.667 72 71s66 26 106 26c37.333 0 71.333 -8.16699 102 -24.5s54.834 -38.666 72.501 -66.999
s26.5 -59.833 26.5 -94.5c0 -37.333 -9.66699 -69.666 -29 -96.999s-45.666 -48.333 -78.999 -63c38 -12.667 68.833 -34.834 92.5 -66.501z" />
    <glyph glyph-name="four" unicode="4" horiz-adv-x="544" 
d="M412 224h107v-56h-107v-168h-58v168h-332v38l349 494h41v-476zM354 585l-253 -361h253v361z" />
    <glyph glyph-name="five" unicode="5" horiz-adv-x="550" 
d="M384.5 426.5c35 -21 62.6689 -49.3311 83.002 -84.998s30.5 -74.834 30.5 -117.501s-9.83301 -81.834 -29.5 -117.501s-47.334 -64 -83.001 -85s-75.834 -31.5 -120.501 -31.5c-36.667 0 -71.167 7.5 -103.5 22.5s-59 36 -80 63s-34.167 57.833 -39.5 92.5h60
c8 -35.333 26.333 -64.333 55 -87s64 -34 106 -34c34.667 0 65.167 7.83301 91.5 23.5s46.5 37 60.5 64s21 56.833 21 89.5c0 32 -7.16699 61.5 -21.5 88.5s-34.5 48.5 -60.5 64.5s-56 24 -90 24c-54 0 -99.333 -19 -136 -57l-40 18l85 338h307v-57h-263l-52 -211
c32.667 17.333 66.667 26 102 26c43.333 0 82.5 -10.5 117.5 -31.5z" />
    <glyph glyph-name="six" unicode="6" horiz-adv-x="550" 
d="M396.5 421.5c33.667 -20.333 60.668 -48 81.001 -83s30.5 -73.5 30.5 -115.5c0 -42.667 -10.333 -81.834 -31 -117.501s-48.834 -63.834 -84.501 -84.501s-74.834 -31 -117.501 -31c-43.333 0 -82.833 10.333 -118.5 31s-63.667 48.834 -84 84.501
s-30.5 74.834 -30.5 117.501c0 25.333 4.5 50.833 13.5 76.5s24.5 55.5 46.5 89.5l203 311h70l-174 -264c26.667 10.667 55.667 16 87 16c38.667 0 74.834 -10.167 108.501 -30.5zM362.501 71c26.333 16 46.833 37.333 61.5 64s22 56 22 88s-7.33301 61.333 -22 88
s-35.167 47.834 -61.5 63.501s-55.5 23.5 -87.5 23.5s-61.167 -7.83301 -87.5 -23.5s-46.833 -36.834 -61.5 -63.501s-22 -56 -22 -88s7.33301 -61.333 22 -88s35.167 -48 61.5 -64s55.5 -24 87.5 -24s61.167 8 87.5 24z" />
    <glyph glyph-name="seven" unicode="7" horiz-adv-x="485" 
d="M17 643v57h438v-38l-310 -662h-66l303 643h-365z" />
    <glyph glyph-name="eight" unicode="8" horiz-adv-x="553" 
d="M465.5 310.5c23.667 -33 35.499 -70.833 35.499 -113.5c0 -37.333 -9.66699 -71.833 -29 -103.5s-46.166 -56.834 -80.499 -75.501s-72.5 -28 -114.5 -28c-42.667 0 -81 9.33301 -115 28s-60.833 43.834 -80.5 75.501s-29.5 66.167 -29.5 103.5
c0 42.667 12 80.5 36 113.5s54.333 56.833 91 71.5c-30 14.667 -53.5 35.5 -70.5 62.5s-25.5 56.5 -25.5 88.5c0 34 8.66699 64.5 26 91.5s40.666 48 69.999 63s62 22.5 98 22.5c35.333 0 67.833 -7.5 97.5 -22.5s53 -36 70 -63s25.5 -57.5 25.5 -91.5
c0 -32 -8.5 -61.5 -25.5 -88.5s-40.167 -47.833 -69.5 -62.5c36.667 -14.667 66.834 -38.5 90.501 -71.5zM181.499 617c-24.333 -24 -36.5 -53 -36.5 -87s12.167 -63 36.5 -87s56.166 -36 95.499 -36s71.166 12 95.499 36s36.5 53 36.5 87s-12.167 63 -36.5 87
s-56.166 36 -95.499 36s-71.166 -12 -95.499 -36zM361.999 67.5c24.667 13.667 43.667 32.167 57 55.5s20 49 20 77s-6.66699 53.667 -20 77s-32.333 41.833 -57 55.5s-53 20.5 -85 20.5s-60.333 -6.83301 -85 -20.5s-43.834 -32 -57.501 -55s-20.5 -48.833 -20.5 -77.5
c0 -28 6.83301 -53.667 20.5 -77s32.834 -41.833 57.501 -55.5s53 -20.5 85 -20.5s60.333 6.83301 85 20.5z" />
    <glyph glyph-name="nine" unicode="9" horiz-adv-x="550" 
d="M392.5 679c35.667 -20.667 63.832 -48.834 84.499 -84.501s31 -74.834 31 -117.501c0 -26 -4.5 -51.667 -13.5 -77s-24.833 -55 -47.5 -89l-202 -311h-71l175 264c-26.667 -10.667 -56 -16 -88 -16c-38 0 -73.833 10.167 -107.5 30.5s-60.667 48 -81 83
s-30.5 73.5 -30.5 115.5c0 42.667 10.167 81.834 30.5 117.501s48.333 63.834 84 84.501s75.167 31 118.5 31c42.667 0 81.834 -10.333 117.501 -31zM362.498 325.5c26.333 15.667 46.833 36.834 61.5 63.501s22 56 22 88s-7.33301 61.333 -22 88s-35.167 48 -61.5 64
s-55.5 24 -87.5 24s-61.167 -8 -87.5 -24s-46.833 -37.333 -61.5 -64s-22 -56 -22 -88s7.33301 -61.333 22 -88s35.167 -47.834 61.5 -63.501s55.5 -23.5 87.5 -23.5s61.167 7.83301 87.5 23.5z" />
    <glyph glyph-name="colon" unicode=":" horiz-adv-x="223" 
d="M146 409h-69v76h69v-76zM146 0h-69v76h69v-76z" />
    <glyph glyph-name="semicolon" unicode=";" horiz-adv-x="239" 
d="M161 409h-69v76h69v-76zM92 -133h-53l51 209h70z" />
    <glyph glyph-name="less" unicode="&#x3c;" 
d="M33 373l456 189v-60l-400 -161l400 -161v-61l-456 190v64z" />
    <glyph glyph-name="equal" unicode="=" 
d="M497 405h-462v55h462v-55zM497 222h-462v55h462v-55z" />
    <glyph glyph-name="greater" unicode="&#x3e;" 
d="M43 502v60l456 -189v-64l-456 -190v61l400 161z" />
    <glyph glyph-name="question" unicode="?" horiz-adv-x="496" 
d="M200 212c0 30.667 4.66602 56.834 13.999 78.501s20.5 39.667 33.5 54s30.5 30.5 52.5 48.5c27.333 22 47.5 41.667 60.5 59s19.5 40 19.5 68c0 38.667 -13.167 70.5 -39.5 95.5s-59.833 37.5 -100.5 37.5c-41.333 0 -75.166 -12.5 -101.499 -37.5
s-40.166 -56.5 -41.499 -94.5h-60c1.33301 36 11 68.333 29 97s42.167 51.167 72.5 67.5s64.166 24.5 101.499 24.5s71.333 -8.16699 102 -24.5s55 -38.833 73 -67.5s27 -61.334 27 -98.001c0 -25.333 -4.16699 -47.5 -12.5 -66.5s-18.833 -35 -31.5 -48
s-29 -27.833 -49 -44.5c-29.333 -24.667 -51.5 -47.667 -66.5 -69s-22.5 -49 -22.5 -83v-36h-60v39zM264.999 0h-69v76h69v-76z" />
    <glyph glyph-name="at" unicode="@" horiz-adv-x="897" 
d="M656.5 600.5c59 -32.333 105.334 -76.6689 139.001 -133.002s50.5 -118.833 50.5 -187.5c0 -43.333 -6.5 -81.166 -19.5 -113.499s-30.833 -57.166 -53.5 -74.499s-48.334 -26 -77.001 -26c-24.667 0 -46.667 6.66699 -66 20s-33.666 32.333 -42.999 57
c-16 -22.667 -37 -41.167 -63 -55.5s-55 -21.5 -87 -21.5c-34 0 -65.5 8.66699 -94.5 26s-51.833 40.833 -68.5 70.5s-25 62.167 -25 97.5s8.33301 67.833 25 97.5s39.5 53.167 68.5 70.5s60.5 26 94.5 26c28.667 0 55.167 -6.5 79.5 -19.5s43.5 -29.167 57.5 -48.5v59h54
v-248c0 -24 6 -43.333 18 -58s28.667 -22 50 -22c28.667 0 51.834 13.833 69.501 41.5s26.5 68.5 26.5 122.5c0 59.333 -14.333 113.166 -43 161.499s-68.334 86.333 -119.001 114s-107.667 41.5 -171 41.5c-68 0 -128.5 -14.5 -181.5 -43.5s-94.167 -68.833 -123.5 -119.5
s-44 -107.667 -44 -171c0 -60 14.833 -114.5 44.5 -163.5s70.334 -87.667 122.001 -116s109.167 -42.5 172.5 -42.5c56 0 103.333 7.66699 142 23v-53c-37.333 -14 -85 -21 -143 -21c-72.667 0 -138.834 16.333 -198.501 49s-106.834 77.5 -141.501 134.5
s-52 120.167 -52 189.5c0 72.667 17 138.334 51 197.001s81.667 104.667 143 138s131 50 209 50c72.667 0 138.5 -16.167 197.5 -48.5zM538.501 157.997c25.667 27.333 38.5 61.333 38.5 102s-12.833 74.667 -38.5 102s-58.5 41 -98.5 41c-39.333 0 -72 -13.667 -98 -41
s-39 -61.333 -39 -102s13 -74.667 39 -102s58.667 -41 98 -41c40 0 72.833 13.667 98.5 41z" />
    <glyph glyph-name="A" unicode="A" horiz-adv-x="652" 
d="M632 0h-65l-79 200h-325l-80 -200h-63l283 700h45zM465 257l-140 353l-139 -353h279z" />
    <glyph glyph-name="B" unicode="B" horiz-adv-x="571" 
d="M479 309c24 -30.667 36 -67 36 -109c0 -38 -9.83301 -72.167 -29.5 -102.5s-47 -54.166 -82 -71.499s-74.833 -26 -119.5 -26h-187v700h177c42.667 0 80 -7.83301 112 -23.5s56.5 -37 73.5 -64s25.5 -57.833 25.5 -92.5c0 -32.667 -9.16699 -62 -27.5 -88
s-42.5 -45.333 -72.5 -58c38.667 -12.667 70 -34.334 94 -65.001zM157 643v-246h117c45.333 0 81.5 11.5 108.5 34.5s40.5 52.5 40.5 88.5s-13.5 65.5 -40.5 88.5s-63.167 34.5 -108.5 34.5h-117zM284 57c33.333 0 62.833 6.3291 88.5 18.9961s45.5 29.834 59.5 51.501
s21 45.834 21 72.501s-7 50.834 -21 72.501s-33.833 38.834 -59.5 51.501s-55.167 19 -88.5 19h-127v-286h127z" />
    <glyph glyph-name="C" unicode="C" horiz-adv-x="773" 
d="M230.5 38c-53.667 32 -96.3359 75.6699 -128.003 131.003s-47.5 115.666 -47.5 180.999s15.833 125.666 47.5 180.999s74.334 99 128.001 131s112.167 48 175.5 48c73.333 0 138 -20.333 194 -61s98 -95.334 126 -164.001h-64
c-25.333 52.667 -60.333 93.834 -105 123.501s-95 44.5 -151 44.5c-52 0 -100.167 -13.333 -144.5 -40s-79.5 -63.167 -105.5 -109.5s-39 -97.5 -39 -153.5s13 -107.167 39 -153.5s61.167 -82.833 105.5 -109.5s92.5 -40 144.5 -40c56.667 0 107.834 15 153.501 45
s80.834 71 105.501 123h64c-28 -68.667 -70.333 -123.334 -127 -164.001s-122 -61 -196 -61c-63.333 0 -121.833 16 -175.5 48z" />
    <glyph glyph-name="D" unicode="D" horiz-adv-x="715" 
d="M97 0v700h177c78 0 146 -14.5 204 -43.5s102.833 -70 134.5 -123s47.5 -114.167 47.5 -183.5s-15.833 -130.5 -47.5 -183.5s-76.5 -94 -134.5 -123s-126 -43.5 -204 -43.5h-177zM274 57c68 0 126.333 12.5 175 37.5s85.667 59.667 111 104s38 94.833 38 151.5
s-12.667 107.167 -38 151.5s-62.333 79 -111 104s-107 37.5 -175 37.5h-117v-586h117z" />
    <glyph glyph-name="E" unicode="E" horiz-adv-x="534" 
d="M157 335v-278h308v-57h-368v700h358v-57h-298v-251h288v-57h-288z" />
    <glyph glyph-name="F" unicode="F" horiz-adv-x="469" 
d="M415 700v-57h-258v-251h248v-57h-248v-335h-60v700h318z" />
    <glyph glyph-name="G" unicode="G" horiz-adv-x="792" 
d="M388 362l363.998 -0.00195312v-24c0 -61.333 -14.5 -118.666 -43.5 -171.999s-69.5 -96 -121.5 -128s-110.667 -48 -176 -48s-125.166 16 -179.499 48s-97.333 75.5 -129 130.5s-47.5 115.5 -47.5 181.5s15.833 126.5 47.5 181.5s74.667 98.5 129 130.5
s114.166 48 179.499 48c74 0 140 -20.5 198 -61.5s100.667 -95.5 128 -163.5h-64c-24 50.667 -58.833 91.334 -104.5 122.001s-98.167 46 -157.5 46c-54 0 -103.5 -13.333 -148.5 -40s-80.5 -63.167 -106.5 -109.5s-39 -97.5 -39 -153.5s13 -107.167 39 -153.5
s61.5 -82.833 106.5 -109.5s94.5 -40 148.5 -40c48 0 92.333 10.5 133 31.5s73.834 51 99.501 90s40.834 84.5 45.501 136.5h-301v57z" />
    <glyph glyph-name="H" unicode="H" horiz-adv-x="712" 
d="M555 392v308h60v-700h-60v335h-398v-335h-60v700h60v-308h398z" />
    <glyph glyph-name="I" unicode="I" horiz-adv-x="264" 
d="M162 0h-60v700h60v-700z" />
    <glyph glyph-name="J" unicode="J" horiz-adv-x="498" 
d="M105 17.5c-30.667 18.333 -54.333 43.001 -71 74.001s-25 64.167 -25 99.5h60c0 -40.667 13.167 -74.834 39.5 -102.501s60.5 -41.5 102.5 -41.5c41.333 0 75 14 101 42s39 66 39 114v497h60v-497c0 -42 -8.66699 -79.167 -26 -111.5s-41.333 -57.333 -72 -75
s-64.667 -26.5 -102 -26.5c-40 0 -75.333 9.16699 -106 27.5z" />
    <glyph glyph-name="K" unicode="K" horiz-adv-x="574" 
d="M219 360l348 -360h-82l-328 340v-340h-60v700h60v-326l311 326h76z" />
    <glyph glyph-name="L" unicode="L" horiz-adv-x="480" 
d="M445 0h-348v700h60v-643h288v-57z" />
    <glyph glyph-name="M" unicode="M" horiz-adv-x="898" 
d="M746 700l83 -700h-60l-65 562l-239 -562h-32l-240 562l-65 -562h-59l83 700h44l254 -595l254 595h42z" />
    <glyph glyph-name="N" unicode="N" horiz-adv-x="780" 
d="M624 110v590h59v-700h-39l-488 590v-590h-59v700h39z" />
    <glyph glyph-name="O" unicode="O" horiz-adv-x="822" 
d="M231.5 38c-54.333 32 -97.333 75.5 -129 130.5s-47.5 115.5 -47.5 181.5s15.833 126.5 47.5 181.5s74.667 98.5 129 130.5s114.166 48 179.499 48s125.166 -16 179.499 -48s97.333 -75.5 129 -130.5s47.5 -115.5 47.5 -181.5s-15.833 -126.5 -47.5 -181.5
s-74.667 -98.5 -129 -130.5s-114.166 -48 -179.499 -48s-125.166 16 -179.499 48zM560 87c45.333 26.667 81 63.167 107 109.5s39 97.5 39 153.5s-13 107.167 -39 153.5s-61.667 82.833 -107 109.5s-95 40 -149 40s-103.5 -13.333 -148.5 -40s-80.5 -63.167 -106.5 -109.5
s-39 -97.5 -39 -153.5s13 -107.167 39 -153.5s61.5 -82.833 106.5 -109.5s94.5 -40 148.5 -40s103.667 13.333 149 40z" />
    <glyph glyph-name="P" unicode="P" horiz-adv-x="553" 
d="M291 700c43.333 0 81.833 -8.5 115.5 -25.5s59.667 -40.333 78 -70s27.5 -63.167 27.5 -100.5s-9.16699 -70.833 -27.5 -100.5s-44.333 -53 -78 -70s-72.167 -25.5 -115.5 -25.5h-134v-308h-60v700h194zM291 365c49.333 0 88.166 13 116.499 39s42.5 59.333 42.5 100
s-14.167 74 -42.5 100s-67.166 39 -116.499 39h-134v-278h134z" />
    <glyph glyph-name="Q" unicode="Q" horiz-adv-x="822" 
d="M731 191c-24 -49.333 -56.999 -90.667 -98.999 -124l122 -142h-73l-95 111c-54 -30.667 -112.333 -46 -175 -46c-65.333 0 -125.166 16 -179.499 48s-97.333 75.5 -129 130.5s-47.5 115.5 -47.5 181.5s15.833 126.5 47.5 181.5s74.667 98.5 129 130.5
s114.166 48 179.499 48s125.166 -16 179.499 -48s97.333 -75.5 129 -130.5s47.5 -115.5 47.5 -181.5c0 -56.667 -12 -109.667 -36 -159zM548.001 79.999l-156.001 182h73l129 -151c35.333 28 62.833 62.833 82.5 104.5s29.5 86.5 29.5 134.5c0 56 -13 107.167 -39 153.5
s-61.667 82.833 -107 109.5s-95 40 -149 40s-103.5 -13.333 -148.5 -40s-80.5 -63.167 -106.5 -109.5s-39 -97.5 -39 -153.5s13 -107.167 39 -153.5s61.5 -82.833 106.5 -109.5s94.5 -40 148.5 -40c48.667 0 94.334 11 137.001 33z" />
    <glyph glyph-name="R" unicode="R" horiz-adv-x="594" 
d="M507 0l-257.001 308h-93v-308h-60v700h194c43.333 0 81.833 -8.5 115.5 -25.5s59.667 -40.333 78 -70s27.5 -63.167 27.5 -100.5c0 -52 -17.167 -95.833 -51.5 -131.5s-80.166 -56.5 -137.499 -62.5l260 -310h-76zM156.999 643v-278h134c49.333 0 88.166 13 116.499 39
s42.5 59.333 42.5 100s-14.167 74 -42.5 100s-67.166 39 -116.499 39h-134z" />
    <glyph glyph-name="S" unicode="S" horiz-adv-x="562" 
d="M165 17c-34.667 18 -61.498 43 -80.498 75s-29.167 68 -30.5 108h60c1.33301 -43.333 17 -79.666 47 -108.999s72 -44 126 -44c49.333 0 88.166 12.333 116.499 37s42.5 55.334 42.5 92.001c0 30.667 -7.66699 55.667 -23 75s-34.5 34.333 -57.5 45s-53.833 22 -92.5 34
c-44 14 -79.333 27.667 -106 41s-49.167 32.666 -67.5 57.999s-27.5 58.666 -27.5 99.999c0 34.667 9.16699 65.667 27.5 93s43.833 48.833 76.5 64.5s69 23.5 109 23.5c38 0 73 -8.66699 105 -26s57.5 -40.833 76.5 -70.5s28.833 -62.5 29.5 -98.5h-60
c-1.33301 24.667 -8.33301 47.5 -21 68.5s-30.5 37.833 -53.5 50.5s-49.5 19 -79.5 19c-44 0 -79.667 -11.333 -107 -34s-41 -52.667 -41 -90c0 -28.667 7.5 -52 22.5 -70s33.5 -32.167 55.5 -42.5s52 -21.5 90 -33.5c44.667 -14.667 80.667 -28.834 108 -42.501
s50.5 -33.667 69.5 -60s28.5 -61.166 28.5 -104.499c0 -36 -9.66699 -68.167 -29 -96.5s-45.833 -50.333 -79.5 -66s-71.167 -23.5 -112.5 -23.5c-46.667 0 -87.334 9 -122.001 27z" />
    <glyph glyph-name="T" unicode="T" horiz-adv-x="482" 
d="M271 0h-60v643h-184v57h428v-57h-184v-643z" />
    <glyph glyph-name="U" unicode="U" horiz-adv-x="683" 
d="M208.5 23c-38.333 22 -68.167 52.833 -89.5 92.5s-32 85.5 -32 137.5v447h60v-447c0 -62 17.5 -111.833 52.5 -149.5s82.167 -56.5 141.5 -56.5s106.666 18.833 141.999 56.5s53 87.5 53 149.5v447h60v-447c0 -52 -10.667 -97.833 -32 -137.5
s-51.166 -70.5 -89.499 -92.5s-82.833 -33 -133.5 -33c-50 0 -94.167 11 -132.5 33z" />
    <glyph glyph-name="V" unicode="V" horiz-adv-x="602" 
d="M302 115l210 585h63l-255 -700h-38l-255 700h64z" />
    <glyph glyph-name="W" unicode="W" horiz-adv-x="966" 
d="M690 117l186 583h63l-229 -700h-40l-188 582l-187 -582h-39l-229 700h63l186 -582l188 582h38z" />
    <glyph glyph-name="X" unicode="X" horiz-adv-x="572" 
d="M323 362l222 -362h-68l-191 314l-192 -314h-67l222 362l-202 338h68l172 -290l171 290h67z" />
    <glyph glyph-name="Y" unicode="Y" horiz-adv-x="543" 
d="M273 371l186 329h67l-224 -389v-311h-60v311l-225 389h69z" />
    <glyph glyph-name="Z" unicode="Z" horiz-adv-x="575" 
d="M504 662l-364 -605h384v-57h-463v38l363 605h-342v57h422v-38z" />
    <glyph glyph-name="bracketleft" unicode="[" horiz-adv-x="291" 
d="M281 -200h-184v930h184v-54h-127v-822h127v-54z" />
    <glyph glyph-name="backslash" unicode="\" horiz-adv-x="342" 
d="M342 -200h-58l-284 930h58z" />
    <glyph glyph-name="bracketright" unicode="]" horiz-adv-x="291" 
d="M194 -200h-184v54h127v822h-127v54h184v-930z" />
    <glyph glyph-name="asciicircum" unicode="^" horiz-adv-x="384" 
d="M223 700l137 -302h-59l-109 248l-110 -248h-58l138 302h61z" />
    <glyph glyph-name="underscore" unicode="_" horiz-adv-x="342" 
d="M362 -156h-382v51h382v-51z" />
    <glyph glyph-name="grave" unicode="`" horiz-adv-x="211" 
d="M181 564h-59l-92 127h68z" />
    <glyph glyph-name="a" unicode="a" horiz-adv-x="619" 
d="M485 490h57v-490h-57v93c-20 -31.333 -47.333 -56.333 -82 -75s-72.334 -28 -113.001 -28c-45.333 0 -87.166 11.167 -125.499 33.5s-68.666 53 -90.999 92s-33.5 82.167 -33.5 129.5s11.167 90.5 33.5 129.5s52.666 69.667 90.999 92s80.166 33.5 125.499 33.5
c40.667 0 78.334 -9.33301 113.001 -28s62 -43.667 82 -75v93zM391.5 70c29.667 17.333 53.167 41.333 70.5 72s26 65 26 103s-8.66699 72.333 -26 103s-40.833 54.667 -70.5 72s-62.5 26 -98.5 26c-35.333 0 -67.833 -8.66699 -97.5 -26s-53.167 -41.333 -70.5 -72
s-26 -65 -26 -103s8.66699 -72.333 26 -103s40.833 -54.667 70.5 -72s62.167 -26 97.5 -26c36 0 68.833 8.66699 98.5 26z" />
    <glyph glyph-name="b" unicode="b" horiz-adv-x="624" 
d="M459.5 466.5c38.333 -22.333 68.666 -53 90.999 -92s33.5 -82.167 33.5 -129.5s-11.167 -90.5 -33.5 -129.5s-52.666 -69.667 -90.999 -92s-80.166 -33.5 -125.499 -33.5c-40.667 0 -78.334 9.33301 -113.001 28s-62 43.667 -82 75v-93h-57v720h57v-323
c20 31.333 47.333 56.333 82 75s72.334 28 113.001 28c45.333 0 87.166 -11.167 125.499 -33.5zM428.5 70c29.667 17.333 53.167 41.333 70.5 72s26 65 26 103s-8.66699 72.333 -26 103s-40.833 54.667 -70.5 72s-62.167 26 -97.5 26c-36 0 -68.833 -8.66699 -98.5 -26
s-53.167 -41.333 -70.5 -72s-26 -65 -26 -103s8.66699 -72.333 26 -103s40.833 -54.667 70.5 -72s62.5 -26 98.5 -26c35.333 0 67.833 8.66699 97.5 26z" />
    <glyph glyph-name="c" unicode="c" horiz-adv-x="550" 
d="M164 23.5c-38 22.333 -68.167 53 -90.5 92s-33.5 82.167 -33.5 129.5s11.167 90.5 33.5 129.5s52.5 69.667 90.5 92s79.667 33.5 125 33.5c51.333 0 97.833 -13.833 139.5 -41.5s71.5 -65.5 89.5 -113.5h-62c-16 31.333 -39.167 56 -69.5 74s-62.833 27 -97.5 27
s-66.5 -8.66699 -95.5 -26s-52 -41.333 -69 -72s-25.5 -65 -25.5 -103s8.5 -72.333 25.5 -103s40 -54.667 69 -72s60.833 -26 95.5 -26s67.167 9 97.5 27s53.5 42.667 69.5 74h62c-18 -48 -47.833 -85.833 -89.5 -113.5s-88.167 -41.5 -139.5 -41.5
c-45.333 0 -87 11.167 -125 33.5z" />
    <glyph glyph-name="d" unicode="d" horiz-adv-x="624" 
d="M485 720h57v-720h-57v93c-20 -31.333 -47.333 -56.333 -82 -75s-72.334 -28 -113.001 -28c-45.333 0 -87.166 11.167 -125.499 33.5s-68.666 53 -90.999 92s-33.5 82.167 -33.5 129.5s11.167 90.5 33.5 129.5s52.666 69.667 90.999 92s80.166 33.5 125.499 33.5
c40.667 0 78.334 -9.33301 113.001 -28s62 -43.667 82 -75v323zM391.5 70c29.667 17.333 53.167 41.333 70.5 72s26 65 26 103s-8.66699 72.333 -26 103s-40.833 54.667 -70.5 72s-62.5 26 -98.5 26c-35.333 0 -67.833 -8.66699 -97.5 -26s-53.167 -41.333 -70.5 -72
s-26 -65 -26 -103s8.66699 -72.333 26 -103s40.833 -54.667 70.5 -72s62.167 -26 97.5 -26c36 0 68.833 8.66699 98.5 26z" />
    <glyph glyph-name="e" unicode="e" horiz-adv-x="564" 
d="M408.5 467.5c37 -21.667 66.002 -51.001 87.002 -88.001s31.5 -77.833 31.5 -122.5c0 -7.33301 -0.666992 -17.666 -2 -30.999h-425c3.33301 -54 22.166 -97.833 56.499 -131.5s76.833 -50.5 127.5 -50.5c39.333 0 73.333 9.16699 102 27.5s50.667 42.833 66 73.5h61
c-20 -50 -49.833 -88.333 -89.5 -115s-86.5 -40 -140.5 -40c-44.667 0 -85.5 11.167 -122.5 33.5s-66.333 53 -88 92s-32.5 82.167 -32.5 129.5s10.833 90.5 32.5 129.5s51.167 69.667 88.5 92s78.666 33.5 123.999 33.5s86.5 -10.833 123.5 -32.5zM161.502 400.499
c-33.667 -30.333 -53.832 -70.833 -60.499 -121.5h366c-2.66699 30.667 -12 58.667 -28 84s-37.333 45.5 -64 60.5s-56.667 22.5 -90 22.5c-48.667 0 -89.834 -15.167 -123.501 -45.5z" />
    <glyph glyph-name="f" unicode="f" horiz-adv-x="316" 
d="M248 666c-24.667 0 -44 -7.16699 -58 -21.5s-21 -34.5 -21 -60.5v-94h125v-53h-125v-437h-57v437h-80v53h80v97c0 40 12 72.167 36 96.5s56.333 36.5 97 36.5h49v-54h-46z" />
    <glyph glyph-name="g" unicode="g" horiz-adv-x="609" 
d="M475 490h57v-460c0 -46.667 -10.167 -88.167 -30.5 -124.5s-49 -64.666 -86 -84.999s-79.167 -30.5 -126.5 -30.5c-57.333 0 -106.833 15.167 -148.5 45.5s-69.834 71.833 -84.501 124.5h58c12 -32.667 32.833 -60.167 62.5 -82.5s67.167 -33.5 112.5 -33.5
c56.667 0 101.834 17.167 135.501 51.5s50.5 79.166 50.5 134.499v82c-21.333 -31.333 -48.5 -56.166 -81.5 -74.499s-69.167 -27.5 -108.5 -27.5c-44.667 0 -85.834 10.667 -123.501 32s-67.334 50.666 -89.001 87.999s-32.5 79 -32.5 125s10.833 87.667 32.5 125
s51.334 66.666 89.001 87.999s78.834 32 123.501 32c39.333 0 75.5 -9.16699 108.5 -27.5s60.167 -43.166 81.5 -74.499v92zM384.5 89c29 16.667 51.833 39.5 68.5 68.5s25 61.5 25 97.5s-8.33301 68.5 -25 97.5s-39.5 51.833 -68.5 68.5s-61.167 25 -96.5 25
c-34.667 0 -66.5 -8.33301 -95.5 -25s-51.833 -39.5 -68.5 -68.5s-25 -61.5 -25 -97.5s8.33301 -68.5 25 -97.5s39.5 -51.833 68.5 -68.5s60.833 -25 95.5 -25c35.333 0 67.5 8.33301 96.5 25z" />
    <glyph glyph-name="h" unicode="h" horiz-adv-x="570" 
d="M405.5 472.5c29.667 -18.333 52.502 -43.5 68.502 -75.5s24 -68 24 -108v-289h-57v285c0 47.333 -12.5 86 -37.5 116s-61.5 45 -109.5 45c-28.667 0 -54.834 -7 -78.501 -21s-42.334 -32.833 -56.001 -56.5s-20.5 -49.5 -20.5 -77.5v-291h-57v720h57v-306
c18 26.667 41.333 47.667 70 63s59.667 23 93 23c39.333 0 73.833 -9.16699 103.5 -27.5z" />
    <glyph glyph-name="i" unicode="i" horiz-adv-x="211" 
d="M134 0h-57v490h57v-490zM140 592h-70v75h70v-75z" />
    <glyph glyph-name="j" unicode="j" horiz-adv-x="211" 
d="M-48 -200v54h46c24.667 0 44 7.16699 58 21.5s21 34.5 21 60.5v554h57v-557c0 -40 -12 -72.167 -36 -96.5s-56.333 -36.5 -97 -36.5h-49zM140 592h-70v75h70v-75z" />
    <glyph glyph-name="k" unicode="k" horiz-adv-x="465" 
d="M199 252l259 -252h-78l-241 236v-236h-57v720h57v-456l230 226h74z" />
    <glyph glyph-name="l" unicode="l" horiz-adv-x="221" 
d="M139 0h-57v720h57v-720z" />
    <glyph glyph-name="m" unicode="m" horiz-adv-x="860" 
d="M703 473c27.333 -18 48.332 -42.6689 62.999 -74.002s22 -66.333 22 -105v-294h-57v294c0 43.333 -11.833 79.5 -35.5 108.5s-55.5 43.5 -95.5 43.5c-24.667 0 -47.667 -6.83301 -69 -20.5s-38.333 -32.167 -51 -55.5s-19 -48.666 -19 -75.999v-294h-57v294
c0 42.667 -11.5 78.667 -34.5 108s-55.167 44 -96.5 44c-24.667 0 -47.667 -7 -69 -21s-38.333 -32.667 -51 -56s-19 -48.333 -19 -75v-294h-57v490h57v-76c16 27.333 36.833 48.5 62.5 63.5s53.834 22.5 84.501 22.5c36 0 68.333 -10 97 -30s49.667 -46 63 -78
c16 34.667 38.833 61.334 68.5 80.001s62.5 28 98.5 28s67.667 -9 95 -27z" />
    <glyph glyph-name="n" unicode="n" horiz-adv-x="565" 
d="M400.5 472.5c29.667 -18.333 52.502 -43.5 68.502 -75.5s24 -68 24 -108v-289h-57v285c0 47.333 -12.5 86 -37.5 116s-61.5 45 -109.5 45c-28.667 0 -54.834 -7 -78.501 -21s-42.334 -32.833 -56.001 -56.5s-20.5 -49.5 -20.5 -77.5v-291h-57v490h57v-76
c18 26.667 41.333 47.667 70 63s59.667 23 93 23c39.333 0 73.833 -9.16699 103.5 -27.5z" />
    <glyph glyph-name="o" unicode="o" horiz-adv-x="586" 
d="M165 23.5c-38.667 22.333 -69.167 53 -91.5 92s-33.5 82.167 -33.5 129.5s11.167 90.5 33.5 129.5s52.833 69.667 91.5 92s81.334 33.5 128.001 33.5c46 0 88.333 -11.167 127 -33.5s69.334 -53 92.001 -92s34 -82.167 34 -129.5s-11.333 -90.5 -34 -129.5
s-53.334 -69.667 -92.001 -92s-81 -33.5 -127 -33.5c-46.667 0 -89.334 11.167 -128.001 33.5zM390.5 70c29.667 17.333 53.167 41.333 70.5 72s26 65 26 103s-8.66699 72.333 -26 103s-40.833 54.667 -70.5 72s-62.167 26 -97.5 26s-67.833 -8.66699 -97.5 -26
s-53.167 -41.333 -70.5 -72s-26 -65 -26 -103s8.66699 -72.333 26 -103s40.833 -54.667 70.5 -72s62.167 -26 97.5 -26s67.833 8.66699 97.5 26z" />
    <glyph glyph-name="p" unicode="p" horiz-adv-x="619" 
d="M454.5 466.5c38.333 -22.333 68.666 -53 90.999 -92s33.5 -82.167 33.5 -129.5s-11.167 -90.5 -33.5 -129.5s-52.666 -69.667 -90.999 -92s-80.166 -33.5 -125.499 -33.5c-40.667 0 -78.334 9.33301 -113.001 28s-62 43.667 -82 75v-293h-57v690h57v-93
c20 31.333 47.333 56.333 82 75s72.334 28 113.001 28c45.333 0 87.166 -11.167 125.499 -33.5zM423.5 70c29.667 17.333 53.167 41.333 70.5 72s26 65 26 103s-8.66699 72.333 -26 103s-40.833 54.667 -70.5 72s-62.167 26 -97.5 26c-36 0 -68.833 -8.66699 -98.5 -26
s-53.167 -41.333 -70.5 -72s-26 -65 -26 -103s8.66699 -72.333 26 -103s40.833 -54.667 70.5 -72s62.5 -26 98.5 -26c35.333 0 67.833 8.66699 97.5 26z" />
    <glyph glyph-name="q" unicode="q" horiz-adv-x="619" 
d="M485 490h57v-690h-57v293c-20 -31.333 -47.333 -56.333 -82 -75s-72.334 -28 -113.001 -28c-45.333 0 -87.166 11.167 -125.499 33.5s-68.666 53 -90.999 92s-33.5 82.167 -33.5 129.5s11.167 90.5 33.5 129.5s52.666 69.667 90.999 92s80.166 33.5 125.499 33.5
c40.667 0 78.334 -9.33301 113.001 -28s62 -43.667 82 -75v93zM391.5 70c29.667 17.333 53.167 41.333 70.5 72s26 65 26 103s-8.66699 72.333 -26 103s-40.833 54.667 -70.5 72s-62.5 26 -98.5 26c-35.333 0 -67.833 -8.66699 -97.5 -26s-53.167 -41.333 -70.5 -72
s-26 -65 -26 -103s8.66699 -72.333 26 -103s40.833 -54.667 70.5 -72s62.167 -26 97.5 -26c36 0 68.833 8.66699 98.5 26z" />
    <glyph glyph-name="r" unicode="r" horiz-adv-x="345" 
d="M331 495v-54h-48c-26.667 0 -51.5 -7 -74.5 -21s-41.167 -32.833 -54.5 -56.5s-20 -49.5 -20 -77.5v-286h-57v490h57v-80c17.333 26.667 39.833 47.5 67.5 62.5s57.5 22.5 89.5 22.5h40z" />
    <glyph glyph-name="s" unicode="s" horiz-adv-x="485" 
d="M149.5 10c-28.333 13.333 -50.668 31.833 -67.001 55.5s-25.166 50.167 -26.499 79.5h57c2 -30 15 -54.333 39 -73s56 -28 96 -28c36 0 64.833 7.66699 86.5 23s32.5 36 32.5 62c0 20.667 -5.83301 37.167 -17.5 49.5s-26.334 21.5 -44.001 27.5s-41.5 12.333 -71.5 19
c-35.333 8 -63.833 16.167 -85.5 24.5s-40.167 21.666 -55.5 39.999s-23 43.166 -23 74.499c0 25.333 7.5 48.5 22.5 69.5s35.667 37.333 62 49s55.166 17.5 86.499 17.5s60 -6.5 86 -19.5s46.833 -31 62.5 -54s23.834 -48.5 24.501 -76.5h-57
c-1.33301 26.667 -12.833 49.334 -34.5 68.001s-49.5 28 -83.5 28c-30.667 0 -56.667 -7.33301 -78 -22s-32 -34.667 -32 -60c0 -19.333 5.66699 -34.666 17 -45.999s25.166 -19.833 41.499 -25.5s39.5 -12.167 69.5 -19.5c36 -8 65.333 -16.333 88 -25
s41.834 -22.5 57.501 -41.5s23.5 -44.833 23.5 -77.5c0 -42.667 -17.167 -76.5 -51.5 -101.5s-77.166 -37.5 -128.499 -37.5c-36 0 -68.167 6.66699 -96.5 20z" />
    <glyph glyph-name="t" unicode="t" horiz-adv-x="336" 
d="M294 437h-125v-301c0 -26 7 -46.167 21 -60.5s33.333 -21.5 58 -21.5h46v-54h-49c-40.667 0 -73 12.167 -97 36.5s-36 56.5 -36 96.5v304h-80v53h80v130h57v-130h125v-53z" />
    <glyph glyph-name="u" unicode="u" horiz-adv-x="556" 
d="M169 17c-31.333 18 -55.335 43 -72.002 75s-25 68.333 -25 109v289h57v-285c0 -46.667 12.833 -85.167 38.5 -115.5s62.5 -45.5 110.5 -45.5s84.833 15.167 110.5 45.5s38.5 68.833 38.5 115.5v285h57v-289c0 -40.667 -8.33301 -77 -25 -109s-40.667 -57 -72 -75
s-67.666 -27 -108.999 -27s-77.666 9 -108.999 27z" />
    <glyph glyph-name="v" unicode="v" horiz-adv-x="496" 
d="M248 89l177 401h61l-220 -490h-36l-220 490h61z" />
    <glyph glyph-name="w" unicode="w" horiz-adv-x="787" 
d="M565 93l153 397h59l-194 -490h-37l-153 393l-153 -393h-36l-194 490h61l151 -396l153 396h37z" />
    <glyph glyph-name="x" unicode="x" horiz-adv-x="519" 
d="M295 256l194 -256h-70l-160 214l-161 -214h-68l193 254l-179 236h70l146 -196l149 196h68z" />
    <glyph glyph-name="y" unicode="y" horiz-adv-x="501" 
d="M257 100l172 390h62l-310 -690h-61l106 235l-221 455h64z" />
    <glyph glyph-name="z" unicode="z" horiz-adv-x="466" 
d="M414 455l-292 -402h302v-53h-382v35l291 402h-281v53h362v-35z" />
    <glyph glyph-name="braceleft" unicode="{" horiz-adv-x="326" 
d="M188 408c0 -72.667 -27.333 -120.332 -82 -142.999c54.667 -22.667 82 -70.334 82 -143.001v-146c0 -38 10.167 -67.833 30.5 -89.5s49.5 -32.5 87.5 -32.5h10v-54h-10c-56.667 0 -100 16 -130 48s-45 75.667 -45 131v147c0 35.333 -8.33301 62.5 -25 81.5
s-41.334 28.5 -74.001 28.5v58c32.667 0 57.334 9.5 74.001 28.5s25 46.167 25 81.5v147c0 55.333 15 99 45 131s73.333 48 130 48h10v-54h-10c-38 0 -67.167 -10.833 -87.5 -32.5s-30.5 -51.5 -30.5 -89.5v-146z" />
    <glyph glyph-name="bar" unicode="|" horiz-adv-x="297" 
d="M177 -200h-57v930h57v-930z" />
    <glyph glyph-name="braceright" unicode="}" horiz-adv-x="326" 
d="M195 404c0 -35.333 8.33301 -62.502 25 -81.502s41.334 -28.5 74.001 -28.5v-58c-32.667 0 -57.334 -9.5 -74.001 -28.5s-25 -46.167 -25 -81.5v-147c0 -55.333 -15 -99 -45 -131s-73.333 -48 -130 -48h-10v54h10c38 0 67.167 10.833 87.5 32.5s30.5 51.5 30.5 89.5v146
c0 72.667 27.333 120.334 82 143.001c-54.667 22.667 -82 70.334 -82 143.001v146c0 38 -10.167 67.833 -30.5 89.5s-49.5 32.5 -87.5 32.5h-10v54h10c56.667 0 100 -16 130 -48s45 -75.667 45 -131v-147z" />
    <glyph glyph-name="asciitilde" unicode="~" 
d="M32 292c0 39.333 11.167 71 33.5 95s52.166 36 89.499 36c26.667 0 49.5 -5.33301 68.5 -16s39.5 -26 61.5 -46c18 -16 33.5 -28 46.5 -36s27.5 -12 43.5 -12c22 0 39.167 7.33301 51.5 22s18.5 34.334 18.5 59.001v29h55v-34c0 -38.667 -11.167 -70.167 -33.5 -94.5
s-52.166 -36.5 -89.499 -36.5c-26.667 0 -49.334 5.33301 -68.001 16s-39 26 -61 46c-18 16 -33.5 28 -46.5 36s-27.833 12 -44.5 12c-21.333 0 -38.166 -7.33301 -50.499 -22s-18.5 -34.334 -18.5 -59.001v-29h-56v34z" />
    <glyph glyph-name="uni00A0" unicode="&#xa0;" horiz-adv-x="276" 
 />
    <glyph glyph-name="exclamdown" unicode="&#xa1;" horiz-adv-x="280" 
d="M175 414h-70v76h70v-76zM172 -200h-64l4 517h56z" />
    <glyph glyph-name="cent" unicode="&#xa2;" horiz-adv-x="550" 
d="M386.5 71c30.333 18 53.501 42.667 69.501 74h62c-16.667 -43.333 -43.167 -78.5 -79.5 -105.5s-77.166 -43.167 -122.499 -48.5v-96h-57v97c-40.667 4.66699 -77.834 18.667 -111.501 42s-60 53.5 -79 90.5s-28.5 77.167 -28.5 120.5s9.5 83.5 28.5 120.5
s45.333 67.167 79 90.5s70.834 37.333 111.501 42v97h57v-96c45.333 -5.33301 86.166 -21.5 122.499 -48.5s62.833 -62.167 79.5 -105.5h-62c-16 31.333 -39.167 56 -69.5 74s-62.833 27 -97.5 27s-66.5 -8.66699 -95.5 -26s-52 -41.333 -69 -72s-25.5 -65 -25.5 -103
s8.5 -72.333 25.5 -103s40 -54.667 69 -72s60.5 -26 94.5 -26c35.333 0 68.166 9 98.499 27z" />
    <glyph glyph-name="sterling" unicode="&#xa3;" horiz-adv-x="528" 
d="M486 60l0.000976562 -59.999h-444v42c34.667 14 64.834 35.833 90.501 65.5s38.5 62.834 38.5 99.501c0 22.667 -4 46 -12 70h-117v57h90l-22.5 40.5c-12.333 22.333 -21.833 44.833 -28.5 67.5s-10 45.667 -10 69c0 40.667 9.16699 76.167 27.5 106.5
s43.166 53.333 74.499 69s65.666 23.5 102.999 23.5c39.333 0 74.333 -7.83301 105 -23.5s54.667 -37.834 72 -66.501s26 -61.667 26 -99h-60c0 41.333 -13.5 73.666 -40.5 96.999s-61.833 35 -104.5 35c-38 0 -71.167 -11.333 -99.5 -34s-42.5 -58.667 -42.5 -108
c0 -27.333 4 -51.833 12 -73.5s20 -46.5 36 -74.5l16 -29h240v-57h-216c6.66699 -22 10 -44 10 -66c0 -60.667 -23 -111 -69 -151h325z" />
    <glyph glyph-name="currency" unicode="&#xa4;" horiz-adv-x="490" 
d="M385 257l59 -58l-38 -37l-57 56c-30 -23.333 -64.667 -35 -104 -35s-74 11.667 -104 35l-57 -56l-38 37l58 58c-18.667 28 -28 59.333 -28 94s9.33301 66 28 94l-58 58l38 37l57 -56c30 23.333 64.667 35 104 35s74 -11.667 104 -35l57 56l38 -37l-59 -58
c19.333 -26.667 29 -58 29 -94s-9.66699 -67.333 -29 -94zM328 265.5c22.667 23 34 51.5 34 85.5s-11.333 62.5 -34 85.5s-50.334 34.5 -83.001 34.5c-33.333 0 -61.333 -11.5 -84 -34.5s-34 -51.5 -34 -85.5s11.333 -62.5 34 -85.5s50.667 -34.5 84 -34.5
c32.667 0 60.334 11.5 83.001 34.5z" />
    <glyph glyph-name="yen" unicode="&#xa5;" horiz-adv-x="543" 
d="M459 700h67l-195 -339h139v-57h-168v-95h168v-57h-168v-152h-60v152h-168v57h168v95h-168v57h139l-196 339h69l187 -329z" />
    <glyph glyph-name="brokenbar" unicode="&#xa6;" horiz-adv-x="297" 
d="M177 351h-57v379h57v-379zM177 -200h-57v379h57v-379z" />
    <glyph glyph-name="section" unicode="&#xa7;" horiz-adv-x="636" 
d="M536 8c0 -33.333 -8.5 -63.4971 -25.5 -90.4971s-41.333 -48.333 -73 -64s-68.834 -23.5 -111.501 -23.5c-45.333 0 -85.333 8.83301 -120 26.5s-61.334 41.667 -80.001 72s-28 64.166 -28 101.499h60c0.666992 -26 8.33398 -50 23.001 -72s34.667 -39.333 60 -52
s54 -19 86 -19c44.667 0 80.667 11 108 33s41 51.333 41 88c0 52 -32 86.333 -96 103l-134 34c-56 14.667 -96.333 35 -121 61s-37 59.333 -37 100c0 21.333 5.16699 43.166 15.5 65.499s24.833 42.166 43.5 59.499c-26 26.667 -39 61.334 -39 104.001
c0 32 8.5 61.333 25.5 88s40.833 47.834 71.5 63.501s65.667 23.5 105 23.5c44 0 82.833 -8.83301 116.5 -26.5s59.834 -41.834 78.501 -72.501s28 -64.334 28 -101.001h-60c0 26 -7 50 -21 72s-33.5 39.333 -58.5 52s-52.833 19 -83.5 19c-41.333 0 -75.333 -11 -102 -33
s-40 -50.333 -40 -85c0 -52 31.333 -86 94 -102l128 -33c56 -14 96.333 -34.167 121 -60.5s37 -59.833 37 -100.5c0 -20 -4.83301 -41 -14.5 -63s-23.5 -41.667 -41.5 -59c29.333 -26.667 44 -63 44 -109zM396 164.003c16.667 -4.66699 33.666 -10.334 50.999 -17.001
c13.333 12.667 23.5 27 30.5 43s10.5 32.667 10.5 50c0 52 -33 86.333 -99 103l-143 36c-25.333 7.33301 -44 14.333 -56 21c-13.333 -13.333 -23.666 -28.166 -30.999 -44.499s-11 -32.833 -11 -49.5c0 -52 33 -86.667 99 -104z" />
    <glyph glyph-name="dieresis" unicode="&#xa8;" horiz-adv-x="303" 
d="M100 592h-70v75h70v-75zM273 592h-70v75h70v-75z" />
    <glyph glyph-name="copyright" unicode="&#xa9;" horiz-adv-x="832" 
d="M235.5 38c-55 32 -98.5 75.667 -130.5 131s-48 115.666 -48 180.999s16 125.666 48 180.999s75.5 99 130.5 131s115.167 48 180.5 48s125.5 -16 180.5 -48s98.5 -75.667 130.5 -131s48 -115.666 48 -180.999s-16 -125.666 -48 -180.999s-75.5 -99 -130.5 -131
s-115.167 -48 -180.5 -48s-125.5 16 -180.5 48zM568.5 82c47 27.333 84.167 64.666 111.5 111.999s41 99.333 41 156s-13.667 108.667 -41 156s-64.5 84.666 -111.5 111.999s-97.833 41 -152.5 41c-55.333 0 -106.333 -13.667 -153 -41s-83.667 -64.666 -111 -111.999
s-41 -99.333 -41 -156s13.667 -108.667 41 -156s64.333 -84.666 111 -111.999s97.667 -41 153 -41c54.667 0 105.5 13.667 152.5 41zM322.5 185c-29 16.667 -51.833 39.5 -68.5 68.5s-25 61.167 -25 96.5s8.33301 67.5 25 96.5s39.5 51.833 68.5 68.5s61.167 25 96.5 25
c40 0 75.667 -10.833 107 -32.5s53.333 -51.167 66 -88.5h-57c-10 21.333 -25.167 38.333 -45.5 51s-43.833 19 -70.5 19c-39.333 0 -71.833 -13 -97.5 -39s-38.5 -59.333 -38.5 -100s12.833 -74 38.5 -100s58.167 -39 97.5 -39c26.667 0 50.167 6.33301 70.5 19
s35.5 29.667 45.5 51h57c-12.667 -37.333 -34.667 -66.833 -66 -88.5s-67 -32.5 -107 -32.5c-35.333 0 -67.5 8.33301 -96.5 25z" />
    <glyph glyph-name="ordfeminine" unicode="&#xaa;" horiz-adv-x="411" 
d="M299 705l51 -0.00195312v-306h-51v46c-12 -15.333 -27.5 -27.666 -46.5 -36.999s-39.833 -14 -62.5 -14c-28.667 0 -55 7 -79 21s-42.833 33.167 -56.5 57.5s-20.5 50.833 -20.5 79.5s6.83301 55.167 20.5 79.5s32.5 43.5 56.5 57.5s50.333 21 79 21
c22.667 0 43.5 -4.66699 62.5 -14s34.5 -21.666 46.5 -36.999v46zM270.5 473.498c21 21.667 31.5 47.834 31.5 78.501s-10.5 56.834 -31.5 78.501s-46.833 32.5 -77.5 32.5c-30 0 -55.5 -10.833 -76.5 -32.5s-31.5 -47.834 -31.5 -78.501s10.5 -56.834 31.5 -78.501
s46.5 -32.5 76.5 -32.5c30.667 0 56.5 10.833 77.5 32.5z" />
    <glyph glyph-name="guillemotleft" unicode="&#xab;" horiz-adv-x="478" 
d="M233 79h-66l-142 176l142 176h66l-141 -176zM424 79h-66l-142 176l142 176h66l-141 -176z" />
    <glyph glyph-name="logicalnot" unicode="&#xac;" 
d="M503 231h-55v146h-419v55h474v-201z" />
    <glyph glyph-name="uni00AD" unicode="&#xad;" horiz-adv-x="360" 
d="M308 227h-256v55h256v-55z" />
    <glyph glyph-name="registered" unicode="&#xae;" horiz-adv-x="385" 
d="M278.5 687.5c26.333 -15 47 -35.5 62 -61.5s22.5 -55 22.5 -87c0 -31.333 -7.5 -60.166 -22.5 -86.499s-35.667 -47 -62 -62s-55.166 -22.5 -86.499 -22.5s-60 7.5 -86 22.5s-46.5 35.667 -61.5 62s-22.5 55.166 -22.5 86.499c0 32 7.5 61 22.5 87s35.5 46.5 61.5 61.5
s54.667 22.5 86 22.5s60.166 -7.5 86.499 -22.5zM285.5 444.5c24.333 25 36.5 56.5 36.5 94.5s-12.167 69.5 -36.5 94.5s-55.5 37.5 -93.5 37.5s-69 -12.5 -93 -37.5s-36 -56.5 -36 -94.5s12 -69.5 36 -94.5s55 -37.5 93 -37.5s69.167 12.5 93.5 37.5zM251.5 540
c-7 -9.33301 -16.167 -16.001 -27.5 -20.001l50 -67h-43l-45 63h-20v-63h-35v180h69c18 0 32.833 -5.16699 44.5 -15.5s17.5 -24.833 17.5 -43.5c0 -13.333 -3.5 -24.666 -10.5 -33.999zM166 599.999v-51h27c22 0 33 8.33301 33 25c0 17.333 -11 26 -33 26h-27z" />
    <glyph glyph-name="macron" unicode="&#xaf;" horiz-adv-x="324" 
d="M294 600h-264v51h264v-51z" />
    <glyph glyph-name="degree" unicode="&#xb0;" horiz-adv-x="315" 
d="M71 528.5c-22.667 23 -34 50.833 -34 83.5s11.333 60.5 34 83.5s51.334 34.5 86.001 34.5s63.5 -11.5 86.5 -34.5s34.5 -50.833 34.5 -83.5s-11.5 -60.5 -34.5 -83.5s-51.833 -34.5 -86.5 -34.5s-63.334 11.5 -86.001 34.5zM212 557.5c14.667 14.333 22 32.5 22 54.5
s-7.33301 40.167 -22 54.5s-33 21.5 -55 21.5c-21.333 0 -39.333 -7.16699 -54 -21.5s-22 -32.5 -22 -54.5s7.33301 -40.167 22 -54.5s32.667 -21.5 54 -21.5c22 0 40.333 7.16699 55 21.5z" />
    <glyph glyph-name="plusminus" unicode="&#xb1;" 
d="M294 673v-210h210v-55h-210v-211h-55v211h-211v55h211v210h55zM500 69h-468v55h468v-55z" />
    <glyph glyph-name="uni00B2" unicode="&#xb2;" horiz-adv-x="313" 
d="M121 535l159 -0.00292969v-47h-238v33l137 145c15.333 16.667 26.166 30.667 32.499 42s9.5 23.333 9.5 36c0 16 -5.66699 29.167 -17 39.5s-26.333 15.5 -45 15.5c-19.333 0 -35 -5.66699 -47 -17s-18.333 -26.666 -19 -45.999h-51
c0.666992 35.333 12.167 62.333 34.5 81s49.833 28 82.5 28s59.834 -9.16699 81.501 -27.5s32.5 -42.166 32.5 -71.499c0 -19.333 -4.33301 -36.666 -13 -51.999s-23 -34 -43 -56z" />
    <glyph glyph-name="uni00B3" unicode="&#xb3;" horiz-adv-x="323" 
d="M265.5 640c11 -15.333 16.499 -33.332 16.499 -53.999c0 -30.667 -10.833 -55.5 -32.5 -74.5s-50.834 -28.5 -87.501 -28.5s-66.167 10.333 -88.5 31s-34.166 48 -35.499 82h53c0.666992 -19.333 7.33398 -35.333 20.001 -48s29.667 -19 51 -19
c20.667 0 37.167 5.5 49.5 16.5s18.5 25.5 18.5 43.5s-6.33301 32.667 -19 44s-29.667 17 -51 17h-29v40h27c18 0 33 5.5 45 16.5s18 24.5 18 40.5c0 15.333 -5.83301 28 -17.5 38s-26.167 15 -43.5 15c-19.333 0 -34.5 -5.83301 -45.5 -17.5s-17.167 -25.834 -18.5 -42.501
h-51c0.666992 32 12 57.5 34 76.5s49.333 28.5 82 28.5c32 0 58.5 -9 79.5 -27s31.5 -40.667 31.5 -68c0 -18 -4.5 -33.667 -13.5 -47s-21.5 -23.333 -37.5 -30c18.667 -6.66699 33.5 -17.667 44.5 -33z" />
    <glyph glyph-name="acute" unicode="&#xb4;" horiz-adv-x="209" 
d="M88 564h-58l83 127h66z" />
    <glyph glyph-name="uni00B5" unicode="&#xb5;" horiz-adv-x="570" 
d="M436 490l56.999 -0.000976562v-490h-57v77c-18 -27.333 -41.167 -48.666 -69.5 -63.999s-58.5 -23 -90.5 -23c-31.333 0 -59.333 5.83301 -84 17.5s-44.334 27.5 -59.001 47.5v-255h-56v690h57v-285c0 -47.333 12.5 -86 37.5 -116s61.5 -45 109.5 -45
c28.667 0 54.834 7 78.501 21s42.334 32.833 56.001 56.5s20.5 49.5 20.5 77.5v291z" />
    <glyph glyph-name="paragraph" unicode="&#xb6;" horiz-adv-x="546" 
d="M276 -80v404.999h-37c-34.667 0 -67 8.16699 -97 24.5s-53.833 38.833 -71.5 67.5s-26.5 60.334 -26.5 95.001s8.83301 66.5 26.5 95.5s41.5 51.667 71.5 68s62.333 24.5 97 24.5h88v-780h-51zM459 -80.001h-51v780h51v-780z" />
    <glyph glyph-name="periodcentered" unicode="&#xb7;" horiz-adv-x="276" 
d="M172 216h-69v76h69v-76z" />
    <glyph glyph-name="cedilla" unicode="&#xb8;" horiz-adv-x="200" 
d="M89 -40c24.667 -0.666992 44.333 -7.83203 59 -21.499s22 -31.167 22 -52.5c0 -26.667 -8.5 -46.5 -25.5 -59.5s-37.5 -19.5 -61.5 -19.5h-53v40h47c14.667 0 26 3.66699 34 11s12 16.666 12 27.999c0 10.667 -4 19.667 -12 27s-19.333 11 -34 11h-34v29l32 73l35 -17v-5
z" />
    <glyph glyph-name="uni00B9" unicode="&#xb9;" horiz-adv-x="247" 
d="M36 799l90 41h44v-352h-49v300l-85 -38v49z" />
    <glyph glyph-name="ordmasculine" unicode="&#xba;" horiz-adv-x="381" 
d="M111 415c-24 14 -42.833 33.167 -56.5 57.5s-20.5 50.833 -20.5 79.5s6.83301 55.167 20.5 79.5s32.5 43.5 56.5 57.5s50.333 21 79 21c29.333 0 56 -7 80 -21s42.833 -33.167 56.5 -57.5s20.5 -50.833 20.5 -79.5s-6.83301 -55.167 -20.5 -79.5s-32.5 -43.5 -56.5 -57.5
s-50.667 -21 -80 -21c-28.667 0 -55 7 -79 21zM265.5 473.5c20.333 21.667 30.5 47.834 30.5 78.501s-10.167 56.834 -30.5 78.501s-45.5 32.5 -75.5 32.5s-55 -10.833 -75 -32.5s-30 -47.834 -30 -78.501s10 -56.834 30 -78.501s45 -32.5 75 -32.5s55.167 10.833 75.5 32.5
z" />
    <glyph glyph-name="guillemotright" unicode="&#xbb;" horiz-adv-x="478" 
d="M121 79h-67l142 176l-142 176h67l141 -176zM312 79h-67l142 176l-142 176h67l141 -176z" />
    <glyph glyph-name="onequarter" unicode="&#xbc;" horiz-adv-x="652" 
d="M36 659l90 41h44v-352h-49v300l-85 -38v49zM109 0h-64l480 700h64zM574 121h52v-43h-52v-78h-48v78h-167v34l171 240h44v-231zM526 277l-110 -156h110v156z" />
    <glyph glyph-name="onehalf" unicode="&#xbd;" horiz-adv-x="700" 
d="M36 659l90 41h44v-352h-49v300l-85 -38v49zM109 0h-64l480 700h64zM508 47l159 -0.00292969v-47h-238v33l137 145c15.333 16.667 26.166 30.667 32.499 42s9.5 23.333 9.5 36c0 16 -5.66699 29.167 -17 39.5s-26.333 15.5 -45 15.5c-19.333 0 -35 -5.66699 -47 -17
s-18.333 -26.666 -19 -45.999h-51c0.666992 35.333 12.167 62.333 34.5 81s49.833 28 82.5 28s59.834 -9.16699 81.501 -27.5s32.5 -42.166 32.5 -71.499c0 -19.333 -4.33301 -36.666 -13 -51.999s-23 -34 -43 -56z" />
    <glyph glyph-name="threequarters" unicode="&#xbe;" horiz-adv-x="728" 
d="M265.5 500c11 -15.333 16.499 -33.332 16.499 -53.999c0 -30.667 -10.833 -55.5 -32.5 -74.5s-50.834 -28.5 -87.501 -28.5s-66.167 10.333 -88.5 31s-34.166 48 -35.499 82h53c0.666992 -19.333 7.33398 -35.333 20.001 -48s29.667 -19 51 -19
c20.667 0 37.167 5.5 49.5 16.5s18.5 25.5 18.5 43.5s-6.33301 32.667 -19 44s-29.667 17 -51 17h-29v40h27c18 0 33 5.5 45 16.5s18 24.5 18 40.5c0 15.333 -5.83301 28 -17.5 38s-26.167 15 -43.5 15c-19.333 0 -34.5 -5.83301 -45.5 -17.5s-17.167 -25.834 -18.5 -42.501
h-51c0.666992 32 12 57.5 34 76.5s49.333 28.5 82 28.5c32 0 58.5 -9 79.5 -27s31.5 -40.667 31.5 -68c0 -18 -4.5 -33.667 -13.5 -47s-21.5 -23.333 -37.5 -30c18.667 -6.66699 33.5 -17.667 44.5 -33zM184.999 0.000976562h-64l480 700h64zM649.999 121.001h52v-43h-52
v-78h-48v78h-167v34l171 240h44v-231zM601.999 277.001l-110 -156h110v156z" />
    <glyph glyph-name="questiondown" unicode="&#xbf;" horiz-adv-x="483" 
d="M295 414h-69v76h69v-76zM149 -185.5c-30.667 16.333 -55.001 38.833 -73.001 67.5s-27 61.334 -27 98.001c0 25.333 4.16699 47.5 12.5 66.5s18.833 35 31.5 48s29 27.833 49 44.5c29.333 24.667 51.5 47.667 66.5 69s22.5 49 22.5 83v26h60v-29
c0 -30.667 -4.66699 -56.834 -14 -78.501s-20.5 -39.667 -33.5 -54s-30.5 -30.5 -52.5 -48.5c-27.333 -22 -47.5 -41.667 -60.5 -59s-19.5 -40 -19.5 -68c0 -38.667 13.167 -70.5 39.5 -95.5s59.833 -37.5 100.5 -37.5c41.333 0 75 12.5 101 37.5s40 56.5 42 94.5h60
c-1.33301 -36 -11 -68.333 -29 -97s-42.167 -51.167 -72.5 -67.5s-64.166 -24.5 -101.499 -24.5s-71.333 8.16699 -102 24.5z" />
    <glyph glyph-name="Agrave" unicode="&#xc0;" horiz-adv-x="652" 
d="M632 0h-65l-79 200h-325l-80 -200h-63l283 700h45zM465 257l-140 353l-139 -353h279zM361 769h-59l-92 127h68z" />
    <glyph glyph-name="Aacute" unicode="&#xc1;" horiz-adv-x="652" 
d="M632 0h-65l-79 200h-325l-80 -200h-63l283 700h45zM465 257l-140 353l-139 -353h279zM342 769h-58l83 127h66z" />
    <glyph glyph-name="Acircumflex" unicode="&#xc2;" horiz-adv-x="652" 
d="M632 0h-65l-79 200h-325l-80 -200h-63l283 700h45zM465 257l-140 353l-139 -353h279zM249 769h-65l115 122h52l115 -122h-65l-76 82z" />
    <glyph glyph-name="Atilde" unicode="&#xc3;" horiz-adv-x="652" 
d="M632 0h-65l-79 200h-325l-80 -200h-63l283 700h45zM465 257l-140 353l-139 -353h279zM187 795c0 26.667 6.5 47.668 19.5 63.001s30.833 23 53.5 23c14 0 26.833 -2.83301 38.5 -8.5s24.5 -13.834 38.5 -24.501c11.333 -8 20.333 -13.833 27 -17.5s13.667 -5.5 21 -5.5
c21.333 0 32 15.667 32 47v9h47v-17c0 -26 -6.5 -46.667 -19.5 -62s-30.833 -23 -53.5 -23c-14 0 -26.667 2.83301 -38 8.5s-24.333 13.5 -39 23.5c-11.333 8 -20.333 13.833 -27 17.5s-13.667 5.5 -21 5.5c-11.333 0 -19.5 -3.83301 -24.5 -11.5s-7.5 -19.167 -7.5 -34.5
v-10h-47v17z" />
    <glyph glyph-name="Adieresis" unicode="&#xc4;" horiz-adv-x="652" 
d="M632 0h-65l-79 200h-325l-80 -200h-63l283 700h45zM465 257l-140 353l-139 -353h279zM272 797h-70v75h70v-75zM449 797h-70v75h70v-75z" />
    <glyph glyph-name="Aring" unicode="&#xc5;" horiz-adv-x="652" 
d="M632 0h-65l-79 200h-325l-80 -200h-63l283 700h45zM465 257l-140 353l-139 -353h279zM260 777.5c-17.333 17 -26 38.167 -26 63.5s8.66699 46.666 26 63.999s39.333 26 66 26s48.667 -8.66699 66 -26s26 -38.666 26 -63.999s-8.66699 -46.5 -26 -63.5
s-39.333 -25.5 -66 -25.5s-48.667 8.5 -66 25.5zM361.5 805.5c9 9 13.5 20.833 13.5 35.5s-4.5 26.667 -13.5 36s-20.833 14 -35.5 14s-26.5 -4.66699 -35.5 -14s-13.5 -21.333 -13.5 -36s4.5 -26.5 13.5 -35.5s20.833 -13.5 35.5 -13.5s26.5 4.5 35.5 13.5z" />
    <glyph glyph-name="AE" unicode="&#xc6;" horiz-adv-x="873" 
d="M496 335v-278h308v-57h-368v221h-265l-137 -221h-68l435 700h393v-57h-298v-251h288v-57h-288zM436 649l-230 -371h230v371z" />
    <glyph glyph-name="Ccedilla" unicode="&#xc7;" horiz-adv-x="773" 
d="M729 215c-26.667 -66 -66.6709 -119.165 -120.004 -159.498s-115 -62.166 -185 -65.499l-15 -30c24.667 -0.666992 44.334 -7.83398 59.001 -21.501s22 -31.167 22 -52.5c0 -26.667 -8.5 -46.5 -25.5 -59.5s-37.5 -19.5 -61.5 -19.5h-53v40h47c14.667 0 26 3.66699 34 11
s12 16.666 12 27.999c0 10.667 -4 19.667 -12 27s-19.333 11 -34 11h-34v29l17 38c-59.333 4.66699 -113.833 23.5 -163.5 56.5s-89 76 -118 129s-43.5 110.833 -43.5 173.5c0 65.333 15.833 125.666 47.5 180.999s74.334 99 128.001 131s112.167 48 175.5 48
c73.333 0 138 -20.333 194 -61s98 -95.334 126 -164.001h-64c-25.333 52.667 -60.333 93.834 -105 123.501s-95 44.5 -151 44.5c-52 0 -100.167 -13.333 -144.5 -40s-79.5 -63.167 -105.5 -109.5s-39 -97.5 -39 -153.5s13 -107.167 39 -153.5s61.167 -82.833 105.5 -109.5
s92.5 -40 144.5 -40c56.667 0 107.834 15 153.501 45s80.834 71 105.501 123h64z" />
    <glyph glyph-name="Egrave" unicode="&#xc8;" horiz-adv-x="534" 
d="M157 335v-278h308v-57h-368v700h358v-57h-298v-251h288v-57h-288zM315 769h-59l-92 127h68z" />
    <glyph glyph-name="Eacute" unicode="&#xc9;" horiz-adv-x="534" 
d="M157 335v-278h308v-57h-368v700h358v-57h-298v-251h288v-57h-288zM296 769h-58l83 127h66z" />
    <glyph glyph-name="Ecircumflex" unicode="&#xca;" horiz-adv-x="534" 
d="M157 335v-278h308v-57h-368v700h358v-57h-298v-251h288v-57h-288zM203 769h-65l115 122h52l115 -122h-65l-76 82z" />
    <glyph glyph-name="Edieresis" unicode="&#xcb;" horiz-adv-x="534" 
d="M157 335v-278h308v-57h-368v700h358v-57h-298v-251h288v-57h-288zM226 797h-70v75h70v-75zM403 797h-70v75h70v-75z" />
    <glyph glyph-name="Igrave" unicode="&#xcc;" horiz-adv-x="264" 
d="M162 0h-60v700h60v-700zM167 769h-59l-92 127h68z" />
    <glyph glyph-name="Iacute" unicode="&#xcd;" horiz-adv-x="264" 
d="M162 0h-60v700h60v-700zM148 769h-58l83 127h66z" />
    <glyph glyph-name="Icircumflex" unicode="&#xce;" horiz-adv-x="264" 
d="M162 0h-60v700h60v-700zM56 769h-65l115 122h52l115 -122h-65l-76 82z" />
    <glyph glyph-name="Idieresis" unicode="&#xcf;" horiz-adv-x="264" 
d="M162 0h-60v700h60v-700zM78 797h-70v75h70v-75zM255 797h-70v75h70v-75z" />
    <glyph glyph-name="Eth" unicode="&#xd0;" horiz-adv-x="720" 
d="M279 700c78 0 146 -14.5 204 -43.5s102.833 -70 134.5 -123s47.5 -114.167 47.5 -183.5s-15.833 -130.5 -47.5 -183.5s-76.5 -94 -134.5 -123s-126 -43.5 -204 -43.5h-177v325h-92v54h92v321h177zM279 57c68 0 126.333 12.5 175 37.5s85.667 59.667 111 104
s38 94.833 38 151.5s-12.667 107.167 -38 151.5s-62.333 79 -111 104s-107 37.5 -175 37.5h-117v-264h228v-54h-228v-268h117z" />
    <glyph glyph-name="Ntilde" unicode="&#xd1;" horiz-adv-x="780" 
d="M624 110v590h59v-700h-39l-488 590v-590h-59v700h39zM251 795c0 26.667 6.5 47.668 19.5 63.001s30.833 23 53.5 23c14 0 26.833 -2.83301 38.5 -8.5s24.5 -13.834 38.5 -24.501c11.333 -8 20.333 -13.833 27 -17.5s13.667 -5.5 21 -5.5c21.333 0 32 15.667 32 47v9h47
v-17c0 -26 -6.5 -46.667 -19.5 -62s-30.833 -23 -53.5 -23c-14 0 -26.667 2.83301 -38 8.5s-24.333 13.5 -39 23.5c-11.333 8 -20.333 13.833 -27 17.5s-13.667 5.5 -21 5.5c-11.333 0 -19.5 -3.83301 -24.5 -11.5s-7.5 -19.167 -7.5 -34.5v-10h-47v17z" />
    <glyph glyph-name="Ograve" unicode="&#xd2;" horiz-adv-x="822" 
d="M231.5 38c-54.333 32 -97.333 75.5 -129 130.5s-47.5 115.5 -47.5 181.5s15.833 126.5 47.5 181.5s74.667 98.5 129 130.5s114.166 48 179.499 48s125.166 -16 179.499 -48s97.333 -75.5 129 -130.5s47.5 -115.5 47.5 -181.5s-15.833 -126.5 -47.5 -181.5
s-74.667 -98.5 -129 -130.5s-114.166 -48 -179.499 -48s-125.166 16 -179.499 48zM560 87c45.333 26.667 81 63.167 107 109.5s39 97.5 39 153.5s-13 107.167 -39 153.5s-61.667 82.833 -107 109.5s-95 40 -149 40s-103.5 -13.333 -148.5 -40s-80.5 -63.167 -106.5 -109.5
s-39 -97.5 -39 -153.5s13 -107.167 39 -153.5s61.5 -82.833 106.5 -109.5s94.5 -40 148.5 -40s103.667 13.333 149 40zM446 769h-59l-92 127h68z" />
    <glyph glyph-name="Oacute" unicode="&#xd3;" horiz-adv-x="822" 
d="M231.5 38c-54.333 32 -97.333 75.5 -129 130.5s-47.5 115.5 -47.5 181.5s15.833 126.5 47.5 181.5s74.667 98.5 129 130.5s114.166 48 179.499 48s125.166 -16 179.499 -48s97.333 -75.5 129 -130.5s47.5 -115.5 47.5 -181.5s-15.833 -126.5 -47.5 -181.5
s-74.667 -98.5 -129 -130.5s-114.166 -48 -179.499 -48s-125.166 16 -179.499 48zM560 87c45.333 26.667 81 63.167 107 109.5s39 97.5 39 153.5s-13 107.167 -39 153.5s-61.667 82.833 -107 109.5s-95 40 -149 40s-103.5 -13.333 -148.5 -40s-80.5 -63.167 -106.5 -109.5
s-39 -97.5 -39 -153.5s13 -107.167 39 -153.5s61.5 -82.833 106.5 -109.5s94.5 -40 148.5 -40s103.667 13.333 149 40zM427 769h-58l83 127h66z" />
    <glyph glyph-name="Ocircumflex" unicode="&#xd4;" horiz-adv-x="822" 
d="M231.5 38c-54.333 32 -97.333 75.5 -129 130.5s-47.5 115.5 -47.5 181.5s15.833 126.5 47.5 181.5s74.667 98.5 129 130.5s114.166 48 179.499 48s125.166 -16 179.499 -48s97.333 -75.5 129 -130.5s47.5 -115.5 47.5 -181.5s-15.833 -126.5 -47.5 -181.5
s-74.667 -98.5 -129 -130.5s-114.166 -48 -179.499 -48s-125.166 16 -179.499 48zM560 87c45.333 26.667 81 63.167 107 109.5s39 97.5 39 153.5s-13 107.167 -39 153.5s-61.667 82.833 -107 109.5s-95 40 -149 40s-103.5 -13.333 -148.5 -40s-80.5 -63.167 -106.5 -109.5
s-39 -97.5 -39 -153.5s13 -107.167 39 -153.5s61.5 -82.833 106.5 -109.5s94.5 -40 148.5 -40s103.667 13.333 149 40zM335 769h-65l115 122h52l115 -122h-65l-76 82z" />
    <glyph glyph-name="Otilde" unicode="&#xd5;" horiz-adv-x="822" 
d="M231.5 38c-54.333 32 -97.333 75.5 -129 130.5s-47.5 115.5 -47.5 181.5s15.833 126.5 47.5 181.5s74.667 98.5 129 130.5s114.166 48 179.499 48s125.166 -16 179.499 -48s97.333 -75.5 129 -130.5s47.5 -115.5 47.5 -181.5s-15.833 -126.5 -47.5 -181.5
s-74.667 -98.5 -129 -130.5s-114.166 -48 -179.499 -48s-125.166 16 -179.499 48zM560 87c45.333 26.667 81 63.167 107 109.5s39 97.5 39 153.5s-13 107.167 -39 153.5s-61.667 82.833 -107 109.5s-95 40 -149 40s-103.5 -13.333 -148.5 -40s-80.5 -63.167 -106.5 -109.5
s-39 -97.5 -39 -153.5s13 -107.167 39 -153.5s61.5 -82.833 106.5 -109.5s94.5 -40 148.5 -40s103.667 13.333 149 40zM272 795c0 26.667 6.5 47.668 19.5 63.001s30.833 23 53.5 23c14 0 26.833 -2.83301 38.5 -8.5s24.5 -13.834 38.5 -24.501
c11.333 -8 20.333 -13.833 27 -17.5s13.667 -5.5 21 -5.5c21.333 0 32 15.667 32 47v9h47v-17c0 -26 -6.5 -46.667 -19.5 -62s-30.833 -23 -53.5 -23c-14 0 -26.667 2.83301 -38 8.5s-24.333 13.5 -39 23.5c-11.333 8 -20.333 13.833 -27 17.5s-13.667 5.5 -21 5.5
c-11.333 0 -19.5 -3.83301 -24.5 -11.5s-7.5 -19.167 -7.5 -34.5v-10h-47v17z" />
    <glyph glyph-name="Odieresis" unicode="&#xd6;" horiz-adv-x="822" 
d="M231.5 38c-54.333 32 -97.333 75.5 -129 130.5s-47.5 115.5 -47.5 181.5s15.833 126.5 47.5 181.5s74.667 98.5 129 130.5s114.166 48 179.499 48s125.166 -16 179.499 -48s97.333 -75.5 129 -130.5s47.5 -115.5 47.5 -181.5s-15.833 -126.5 -47.5 -181.5
s-74.667 -98.5 -129 -130.5s-114.166 -48 -179.499 -48s-125.166 16 -179.499 48zM560 87c45.333 26.667 81 63.167 107 109.5s39 97.5 39 153.5s-13 107.167 -39 153.5s-61.667 82.833 -107 109.5s-95 40 -149 40s-103.5 -13.333 -148.5 -40s-80.5 -63.167 -106.5 -109.5
s-39 -97.5 -39 -153.5s13 -107.167 39 -153.5s61.5 -82.833 106.5 -109.5s94.5 -40 148.5 -40s103.667 13.333 149 40zM358 797h-70v75h70v-75zM535 797h-70v75h70v-75z" />
    <glyph glyph-name="multiply" unicode="&#xd7;" 
d="M435 547l37 -37l-169 -169l169 -169l-37 -37l-169 169l-169 -169l-37 37l169 169l-169 169l37 37l169 -169z" />
    <glyph glyph-name="Oslash" unicode="&#xd8;" horiz-adv-x="822" 
d="M652 616c36 -33.333 64.167 -72.999 84.5 -118.999s30.5 -95 30.5 -147c0 -66 -15.833 -126.5 -47.5 -181.5s-74.667 -98.5 -129 -130.5s-114.166 -48 -179.499 -48c-72 0 -137.667 19.667 -197 59l-46 -59h-69l72 93c-36.667 33.333 -65.167 73.166 -85.5 119.499
s-30.5 95.5 -30.5 147.5c0 66 15.833 126.5 47.5 181.5s74.667 98.5 129 130.5s114.166 48 179.499 48c73.333 0 139.333 -20 198 -60l46 60h70zM140.5 229.001c15.667 -38 37.833 -71 66.5 -99l366 474c-48.667 32.667 -102.667 49 -162 49
c-54 0 -103.5 -13.333 -148.5 -40s-80.5 -63.167 -106.5 -109.5s-39 -97.5 -39 -153.5c0 -42.667 7.83301 -83 23.5 -121zM559.999 87.001c45.333 26.667 81 63.167 107 109.5s39 97.5 39 153.5c0 42.667 -7.83301 83 -23.5 121s-37.834 70.667 -66.501 98l-366 -473
c48.667 -32.667 102.334 -49 161.001 -49c54 0 103.667 13.333 149 40z" />
    <glyph glyph-name="Ugrave" unicode="&#xd9;" horiz-adv-x="683" 
d="M208.5 23c-38.333 22 -68.167 52.833 -89.5 92.5s-32 85.5 -32 137.5v447h60v-447c0 -62 17.5 -111.833 52.5 -149.5s82.167 -56.5 141.5 -56.5s106.666 18.833 141.999 56.5s53 87.5 53 149.5v447h60v-447c0 -52 -10.667 -97.833 -32 -137.5
s-51.166 -70.5 -89.499 -92.5s-82.833 -33 -133.5 -33c-50 0 -94.167 11 -132.5 33zM375.999 769h-59l-92 127h68z" />
    <glyph glyph-name="Uacute" unicode="&#xda;" horiz-adv-x="683" 
d="M208.5 23c-38.333 22 -68.167 52.833 -89.5 92.5s-32 85.5 -32 137.5v447h60v-447c0 -62 17.5 -111.833 52.5 -149.5s82.167 -56.5 141.5 -56.5s106.666 18.833 141.999 56.5s53 87.5 53 149.5v447h60v-447c0 -52 -10.667 -97.833 -32 -137.5
s-51.166 -70.5 -89.499 -92.5s-82.833 -33 -133.5 -33c-50 0 -94.167 11 -132.5 33zM356.999 769h-58l83 127h66z" />
    <glyph glyph-name="Ucircumflex" unicode="&#xdb;" horiz-adv-x="683" 
d="M208.5 23c-38.333 22 -68.167 52.833 -89.5 92.5s-32 85.5 -32 137.5v447h60v-447c0 -62 17.5 -111.833 52.5 -149.5s82.167 -56.5 141.5 -56.5s106.666 18.833 141.999 56.5s53 87.5 53 149.5v447h60v-447c0 -52 -10.667 -97.833 -32 -137.5
s-51.166 -70.5 -89.499 -92.5s-82.833 -33 -133.5 -33c-50 0 -94.167 11 -132.5 33zM264.999 769h-65l115 122h52l115 -122h-65l-76 82z" />
    <glyph glyph-name="Udieresis" unicode="&#xdc;" horiz-adv-x="683" 
d="M208.5 23c-38.333 22 -68.167 52.833 -89.5 92.5s-32 85.5 -32 137.5v447h60v-447c0 -62 17.5 -111.833 52.5 -149.5s82.167 -56.5 141.5 -56.5s106.666 18.833 141.999 56.5s53 87.5 53 149.5v447h60v-447c0 -52 -10.667 -97.833 -32 -137.5
s-51.166 -70.5 -89.499 -92.5s-82.833 -33 -133.5 -33c-50 0 -94.167 11 -132.5 33zM287.999 797h-70v75h70v-75zM464.999 797h-70v75h70v-75z" />
    <glyph glyph-name="Yacute" unicode="&#xdd;" horiz-adv-x="543" 
d="M273 371l186 329h67l-224 -389v-311h-60v311l-225 389h69zM288 769h-58l83 127h66z" />
    <glyph glyph-name="Thorn" unicode="&#xde;" horiz-adv-x="664" 
d="M408 540c43.333 0 81.333 -8.16504 114 -24.498s57.667 -38.833 75 -67.5s26 -61.334 26 -98.001s-8.66699 -69.334 -26 -98.001s-42.333 -51.167 -75 -67.5s-70.667 -24.5 -114 -24.5h-251v-160h-60v700h60v-160h251zM408 217.002c48.667 0 86.334 12.333 113.001 37
s40 56.667 40 96s-13.333 71.333 -40 96s-64.334 37 -113.001 37h-251v-266h251z" />
    <glyph glyph-name="germandbls" unicode="&#xdf;" horiz-adv-x="552" 
d="M471 309c22.667 -29.333 34 -67 34 -113c0 -60 -19.5 -107.667 -58.5 -143s-89.833 -53 -152.5 -53h-57v54h59c44 0 80 12.833 108 38.5s42 60.167 42 103.5c0 44 -14 78.833 -42 104.5s-64 38.5 -108 38.5h-59v53h42c39.333 0 72.166 11.833 98.499 35.5
s39.5 55.834 39.5 96.501s-13 72.834 -39 96.501s-58 35.5 -96 35.5c-45.333 0 -80.5 -14.167 -105.5 -42.5s-37.5 -65.833 -37.5 -112.5v-501h-57v501c0 41.333 8.33301 77.833 25 109.5s40.167 56.167 70.5 73.5s65.166 26 104.499 26c34.667 0 66.834 -7.5 96.501 -22.5
s53.167 -36.333 70.5 -64s26 -59.834 26 -96.501s-8.5 -68.334 -25.5 -95.001s-39.5 -47 -67.5 -61c36.667 -12 66.334 -32.667 89.001 -62z" />
    <glyph glyph-name="agrave" unicode="&#xe0;" horiz-adv-x="619" 
d="M485 490h57v-490h-57v93c-20 -31.333 -47.333 -56.333 -82 -75s-72.334 -28 -113.001 -28c-45.333 0 -87.166 11.167 -125.499 33.5s-68.666 53 -90.999 92s-33.5 82.167 -33.5 129.5s11.167 90.5 33.5 129.5s52.666 69.667 90.999 92s80.166 33.5 125.499 33.5
c40.667 0 78.334 -9.33301 113.001 -28s62 -43.667 82 -75v93zM391.5 70c29.667 17.333 53.167 41.333 70.5 72s26 65 26 103s-8.66699 72.333 -26 103s-40.833 54.667 -70.5 72s-62.5 26 -98.5 26c-35.333 0 -67.833 -8.66699 -97.5 -26s-53.167 -41.333 -70.5 -72
s-26 -65 -26 -103s8.66699 -72.333 26 -103s40.833 -54.667 70.5 -72s62.167 -26 97.5 -26c36 0 68.833 8.66699 98.5 26zM343 564h-59l-92 127h68z" />
    <glyph glyph-name="aacute" unicode="&#xe1;" horiz-adv-x="619" 
d="M485 490h57v-490h-57v93c-20 -31.333 -47.333 -56.333 -82 -75s-72.334 -28 -113.001 -28c-45.333 0 -87.166 11.167 -125.499 33.5s-68.666 53 -90.999 92s-33.5 82.167 -33.5 129.5s11.167 90.5 33.5 129.5s52.666 69.667 90.999 92s80.166 33.5 125.499 33.5
c40.667 0 78.334 -9.33301 113.001 -28s62 -43.667 82 -75v93zM391.5 70c29.667 17.333 53.167 41.333 70.5 72s26 65 26 103s-8.66699 72.333 -26 103s-40.833 54.667 -70.5 72s-62.5 26 -98.5 26c-35.333 0 -67.833 -8.66699 -97.5 -26s-53.167 -41.333 -70.5 -72
s-26 -65 -26 -103s8.66699 -72.333 26 -103s40.833 -54.667 70.5 -72s62.167 -26 97.5 -26c36 0 68.833 8.66699 98.5 26zM325 564h-58l83 127h66z" />
    <glyph glyph-name="acircumflex" unicode="&#xe2;" horiz-adv-x="619" 
d="M485 490h57v-490h-57v93c-20 -31.333 -47.333 -56.333 -82 -75s-72.334 -28 -113.001 -28c-45.333 0 -87.166 11.167 -125.499 33.5s-68.666 53 -90.999 92s-33.5 82.167 -33.5 129.5s11.167 90.5 33.5 129.5s52.666 69.667 90.999 92s80.166 33.5 125.499 33.5
c40.667 0 78.334 -9.33301 113.001 -28s62 -43.667 82 -75v93zM391.5 70c29.667 17.333 53.167 41.333 70.5 72s26 65 26 103s-8.66699 72.333 -26 103s-40.833 54.667 -70.5 72s-62.5 26 -98.5 26c-35.333 0 -67.833 -8.66699 -97.5 -26s-53.167 -41.333 -70.5 -72
s-26 -65 -26 -103s8.66699 -72.333 26 -103s40.833 -54.667 70.5 -72s62.167 -26 97.5 -26c36 0 68.833 8.66699 98.5 26zM233 564h-65l115 122h52l115 -122h-65l-76 82z" />
    <glyph glyph-name="atilde" unicode="&#xe3;" horiz-adv-x="619" 
d="M485 490h57v-490h-57v93c-20 -31.333 -47.333 -56.333 -82 -75s-72.334 -28 -113.001 -28c-45.333 0 -87.166 11.167 -125.499 33.5s-68.666 53 -90.999 92s-33.5 82.167 -33.5 129.5s11.167 90.5 33.5 129.5s52.666 69.667 90.999 92s80.166 33.5 125.499 33.5
c40.667 0 78.334 -9.33301 113.001 -28s62 -43.667 82 -75v93zM391.5 70c29.667 17.333 53.167 41.333 70.5 72s26 65 26 103s-8.66699 72.333 -26 103s-40.833 54.667 -70.5 72s-62.5 26 -98.5 26c-35.333 0 -67.833 -8.66699 -97.5 -26s-53.167 -41.333 -70.5 -72
s-26 -65 -26 -103s8.66699 -72.333 26 -103s40.833 -54.667 70.5 -72s62.167 -26 97.5 -26c36 0 68.833 8.66699 98.5 26zM170 591c0 26 6.5 46.667 19.5 62s30.833 23 53.5 23c14 0 26.833 -2.83301 38.5 -8.5s24.5 -13.834 38.5 -24.501
c11.333 -8 20.333 -13.833 27 -17.5s13.667 -5.5 21 -5.5c21.333 0 32 15.667 32 47v10h47v-18c0 -26 -6.5 -46.667 -19.5 -62s-30.833 -23 -53.5 -23c-14 0 -26.833 2.83301 -38.5 8.5s-24.5 13.834 -38.5 24.501c-11.333 8 -20.333 13.833 -27 17.5s-13.667 5.5 -21 5.5
c-21.333 0 -32 -15.667 -32 -47v-9h-47v17z" />
    <glyph glyph-name="adieresis" unicode="&#xe4;" horiz-adv-x="619" 
d="M485 490h57v-490h-57v93c-20 -31.333 -47.333 -56.333 -82 -75s-72.334 -28 -113.001 -28c-45.333 0 -87.166 11.167 -125.499 33.5s-68.666 53 -90.999 92s-33.5 82.167 -33.5 129.5s11.167 90.5 33.5 129.5s52.666 69.667 90.999 92s80.166 33.5 125.499 33.5
c40.667 0 78.334 -9.33301 113.001 -28s62 -43.667 82 -75v93zM391.5 70c29.667 17.333 53.167 41.333 70.5 72s26 65 26 103s-8.66699 72.333 -26 103s-40.833 54.667 -70.5 72s-62.5 26 -98.5 26c-35.333 0 -67.833 -8.66699 -97.5 -26s-53.167 -41.333 -70.5 -72
s-26 -65 -26 -103s8.66699 -72.333 26 -103s40.833 -54.667 70.5 -72s62.167 -26 97.5 -26c36 0 68.833 8.66699 98.5 26zM257 592h-70v75h70v-75zM430 592h-70v75h70v-75z" />
    <glyph glyph-name="aring" unicode="&#xe5;" horiz-adv-x="619" 
d="M485 490h57v-490h-57v93c-20 -31.333 -47.333 -56.333 -82 -75s-72.334 -28 -113.001 -28c-45.333 0 -87.166 11.167 -125.499 33.5s-68.666 53 -90.999 92s-33.5 82.167 -33.5 129.5s11.167 90.5 33.5 129.5s52.666 69.667 90.999 92s80.166 33.5 125.499 33.5
c40.667 0 78.334 -9.33301 113.001 -28s62 -43.667 82 -75v93zM391.5 70c29.667 17.333 53.167 41.333 70.5 72s26 65 26 103s-8.66699 72.333 -26 103s-40.833 54.667 -70.5 72s-62.5 26 -98.5 26c-35.333 0 -67.833 -8.66699 -97.5 -26s-53.167 -41.333 -70.5 -72
s-26 -65 -26 -103s8.66699 -72.333 26 -103s40.833 -54.667 70.5 -72s62.167 -26 97.5 -26c36 0 68.833 8.66699 98.5 26zM243 573c-17.333 17.333 -26 38.666 -26 63.999s8.66699 46.666 26 63.999s39.333 26 66 26s48.667 -8.66699 66 -26s26 -38.666 26 -63.999
s-8.66699 -46.666 -26 -63.999s-39.333 -26 -66 -26s-48.667 8.66699 -66 26zM344.5 601c9 9.33301 13.5 21.333 13.5 36s-4.5 26.667 -13.5 36s-20.833 14 -35.5 14s-26.5 -4.66699 -35.5 -14s-13.5 -21.333 -13.5 -36s4.5 -26.667 13.5 -36s20.833 -14 35.5 -14
s26.5 4.66699 35.5 14z" />
    <glyph glyph-name="ae" unicode="&#xe6;" horiz-adv-x="918" 
d="M765.5 469c35 -20.667 63 -49.832 84 -87.499s31.5 -80.5 31.5 -128.5c0 -12 -0.333008 -21 -1 -27h-403c3.33301 -54.667 21.166 -98.667 53.499 -132s72.166 -50 119.499 -50c36 0 67.5 9.16699 94.5 27.5s47.833 42.833 62.5 73.5h61
c-18.667 -46.667 -46.667 -84.167 -84 -112.5s-81.666 -42.5 -132.999 -42.5c-44 0 -83.5 11.167 -118.5 33.5s-62.5 52.166 -82.5 89.499c-19.333 -36.667 -46.666 -66.334 -81.999 -89.001s-76.666 -34 -123.999 -34c-54.667 0 -99.5 13.5 -134.5 40.5
s-52.5 63.5 -52.5 109.5c0 44 16.333 78.167 49 102.5s76.334 36.5 131.001 36.5h180v43c0 36 -12.833 65.667 -38.5 89s-60.5 35 -104.5 35c-39.333 0 -70.333 -7.83301 -93 -23.5s-38.334 -36.167 -47.001 -61.5h-58c8.66699 40.667 30.167 74 64.5 100s78.5 39 132.5 39
c45.333 0 83.833 -10.167 115.5 -30.5s54.167 -48.166 67.5 -83.499c21.333 36 49.166 64 83.499 84s71.833 30 112.5 30s78.5 -10.333 113.5 -31zM535.5 400.502c-31.667 -30.333 -50.832 -70.832 -57.499 -121.499h343c-2.66699 33.333 -12.167 62.666 -28.5 87.999
s-37 44.833 -62 58.5s-51.833 20.5 -80.5 20.5c-44.667 0 -82.834 -15.167 -114.501 -45.5zM334.502 65.5029c26.333 14.333 46.667 32.832 61 55.499s21.5 46.334 21.5 71.001v34h-180c-80.667 0 -121 -29.333 -121 -88c0 -27.333 11.167 -49.833 33.5 -67.5
s53.833 -26.5 94.5 -26.5c34 0 64.167 7.16699 90.5 21.5z" />
    <glyph glyph-name="ccedilla" unicode="&#xe7;" horiz-adv-x="550" 
d="M386.5 71c30.333 18 53.5 42.6689 69.5 74.002h62c-17.333 -45.333 -45 -81.5 -83 -108.5s-81 -42.167 -129 -45.5l-15 -31c24.667 -0.666992 44.334 -7.83398 59.001 -21.501s22 -31.167 22 -52.5c0 -26.667 -8.5 -46.5 -25.5 -59.5s-37.5 -19.5 -61.5 -19.5h-53v40h47
c14.667 0 26 3.66699 34 11s12 16.666 12 27.999c0 10.667 -4 19.667 -12 27s-19.333 11 -34 11h-34v29l17 38c-41.333 4.66699 -78.833 18.667 -112.5 42s-60.334 53.5 -80.001 90.5s-29.5 77.5 -29.5 121.5c0 47.333 11.167 90.5 33.5 129.5s52.5 69.667 90.5 92
s79.667 33.5 125 33.5c51.333 0 97.833 -13.833 139.5 -41.5s71.5 -65.5 89.5 -113.5h-62c-16 31.333 -39.167 56 -69.5 74s-62.833 27 -97.5 27s-66.5 -8.66699 -95.5 -26s-52 -41.333 -69 -72s-25.5 -65 -25.5 -103s8.5 -72.333 25.5 -103s40 -54.667 69 -72
s60.833 -26 95.5 -26s67.167 9 97.5 27z" />
    <glyph glyph-name="egrave" unicode="&#xe8;" horiz-adv-x="564" 
d="M408.5 467.5c37 -21.667 66.002 -51.001 87.002 -88.001s31.5 -77.833 31.5 -122.5c0 -7.33301 -0.666992 -17.666 -2 -30.999h-425c3.33301 -54 22.166 -97.833 56.499 -131.5s76.833 -50.5 127.5 -50.5c39.333 0 73.333 9.16699 102 27.5s50.667 42.833 66 73.5h61
c-20 -50 -49.833 -88.333 -89.5 -115s-86.5 -40 -140.5 -40c-44.667 0 -85.5 11.167 -122.5 33.5s-66.333 53 -88 92s-32.5 82.167 -32.5 129.5s10.833 90.5 32.5 129.5s51.167 69.667 88.5 92s78.666 33.5 123.999 33.5s86.5 -10.833 123.5 -32.5zM161.502 400.499
c-33.667 -30.333 -53.832 -70.833 -60.499 -121.5h366c-2.66699 30.667 -12 58.667 -28 84s-37.333 45.5 -64 60.5s-56.667 22.5 -90 22.5c-48.667 0 -89.834 -15.167 -123.501 -45.5zM318.004 563.999h-59l-92 127h68z" />
    <glyph glyph-name="eacute" unicode="&#xe9;" horiz-adv-x="564" 
d="M408.5 467.5c37 -21.667 66.002 -51.001 87.002 -88.001s31.5 -77.833 31.5 -122.5c0 -7.33301 -0.666992 -17.666 -2 -30.999h-425c3.33301 -54 22.166 -97.833 56.499 -131.5s76.833 -50.5 127.5 -50.5c39.333 0 73.333 9.16699 102 27.5s50.667 42.833 66 73.5h61
c-20 -50 -49.833 -88.333 -89.5 -115s-86.5 -40 -140.5 -40c-44.667 0 -85.5 11.167 -122.5 33.5s-66.333 53 -88 92s-32.5 82.167 -32.5 129.5s10.833 90.5 32.5 129.5s51.167 69.667 88.5 92s78.666 33.5 123.999 33.5s86.5 -10.833 123.5 -32.5zM161.502 400.499
c-33.667 -30.333 -53.832 -70.833 -60.499 -121.5h366c-2.66699 30.667 -12 58.667 -28 84s-37.333 45.5 -64 60.5s-56.667 22.5 -90 22.5c-48.667 0 -89.834 -15.167 -123.501 -45.5zM300.004 563.999h-58l83 127h66z" />
    <glyph glyph-name="ecircumflex" unicode="&#xea;" horiz-adv-x="564" 
d="M408.5 467.5c37 -21.667 66.002 -51.001 87.002 -88.001s31.5 -77.833 31.5 -122.5c0 -7.33301 -0.666992 -17.666 -2 -30.999h-425c3.33301 -54 22.166 -97.833 56.499 -131.5s76.833 -50.5 127.5 -50.5c39.333 0 73.333 9.16699 102 27.5s50.667 42.833 66 73.5h61
c-20 -50 -49.833 -88.333 -89.5 -115s-86.5 -40 -140.5 -40c-44.667 0 -85.5 11.167 -122.5 33.5s-66.333 53 -88 92s-32.5 82.167 -32.5 129.5s10.833 90.5 32.5 129.5s51.167 69.667 88.5 92s78.666 33.5 123.999 33.5s86.5 -10.833 123.5 -32.5zM161.502 400.499
c-33.667 -30.333 -53.832 -70.833 -60.499 -121.5h366c-2.66699 30.667 -12 58.667 -28 84s-37.333 45.5 -64 60.5s-56.667 22.5 -90 22.5c-48.667 0 -89.834 -15.167 -123.501 -45.5zM207.004 563.999h-65l115 122h52l115 -122h-65l-76 82z" />
    <glyph glyph-name="edieresis" unicode="&#xeb;" horiz-adv-x="564" 
d="M408.5 467.5c37 -21.667 66.002 -51.001 87.002 -88.001s31.5 -77.833 31.5 -122.5c0 -7.33301 -0.666992 -17.666 -2 -30.999h-425c3.33301 -54 22.166 -97.833 56.499 -131.5s76.833 -50.5 127.5 -50.5c39.333 0 73.333 9.16699 102 27.5s50.667 42.833 66 73.5h61
c-20 -50 -49.833 -88.333 -89.5 -115s-86.5 -40 -140.5 -40c-44.667 0 -85.5 11.167 -122.5 33.5s-66.333 53 -88 92s-32.5 82.167 -32.5 129.5s10.833 90.5 32.5 129.5s51.167 69.667 88.5 92s78.666 33.5 123.999 33.5s86.5 -10.833 123.5 -32.5zM161.502 400.499
c-33.667 -30.333 -53.832 -70.833 -60.499 -121.5h366c-2.66699 30.667 -12 58.667 -28 84s-37.333 45.5 -64 60.5s-56.667 22.5 -90 22.5c-48.667 0 -89.834 -15.167 -123.501 -45.5zM232.004 591.999h-70v75h70v-75zM405.004 591.999h-70v75h70v-75z" />
    <glyph glyph-name="igrave" unicode="&#xec;" horiz-adv-x="211" 
d="M134 0h-57v490h57v-490zM140 564h-59l-92 127h68z" />
    <glyph glyph-name="iacute" unicode="&#xed;" horiz-adv-x="211" 
d="M134 0h-57v490h57v-490zM122 564h-58l83 127h66z" />
    <glyph glyph-name="icircumflex" unicode="&#xee;" horiz-adv-x="211" 
d="M134 0h-57v490h57v-490zM29 564h-65l115 122h52l115 -122h-65l-76 82z" />
    <glyph glyph-name="idieresis" unicode="&#xef;" horiz-adv-x="211" 
d="M134 0h-57v490h57v-490zM79 592h-70v75h70v-75zM202 592h-70v75h70v-75z" />
    <glyph glyph-name="eth" unicode="&#xf0;" horiz-adv-x="538" 
d="M350 603c48 -46.667 84.666 -100.332 109.999 -160.999s38 -127 38 -199c0 -51.333 -10.167 -96 -30.5 -134s-48.166 -67.333 -83.499 -88s-74.666 -31 -117.999 -31c-42.667 0 -81.667 10.167 -117 30.5s-63.166 48 -83.499 83s-30.5 73.833 -30.5 116.5
s10.167 81.5 30.5 116.5s48.166 62.667 83.499 83s74.333 30.5 117 30.5c31.333 0 61.166 -6.83301 89.499 -20.5s51.833 -31.5 70.5 -53.5c-9.33301 36 -24.833 71.167 -46.5 105.5s-48.167 66.166 -79.5 95.499l-136 -69l-27 47l118 60c-35.333 26 -71.333 47.667 -108 65
l45 35c42.667 -21.333 81 -46 115 -74l106 54l27 -46zM354.499 67.002c26.333 15.333 47.166 36.333 62.499 63s23 56.667 23 90s-7.66699 63.333 -23 90s-36.166 47.667 -62.499 63s-55.833 23 -88.5 23s-62.167 -7.66699 -88.5 -23s-47.166 -36.333 -62.499 -63
s-23 -56.667 -23 -90s7.66699 -63.333 23 -90s36.166 -47.667 62.499 -63s55.833 -23 88.5 -23s62.167 7.66699 88.5 23z" />
    <glyph glyph-name="ntilde" unicode="&#xf1;" horiz-adv-x="565" 
d="M400.5 472.5c29.667 -18.333 52.502 -43.5 68.502 -75.5s24 -68 24 -108v-289h-57v285c0 47.333 -12.5 86 -37.5 116s-61.5 45 -109.5 45c-28.667 0 -54.834 -7 -78.501 -21s-42.334 -32.833 -56.001 -56.5s-20.5 -49.5 -20.5 -77.5v-291h-57v490h57v-76
c18 26.667 41.333 47.667 70 63s59.667 23 93 23c39.333 0 73.833 -9.16699 103.5 -27.5zM146.002 591c0 26 6.5 46.667 19.5 62s30.833 23 53.5 23c14 0 26.833 -2.83301 38.5 -8.5s24.5 -13.834 38.5 -24.501c11.333 -8 20.333 -13.833 27 -17.5s13.667 -5.5 21 -5.5
c21.333 0 32 15.667 32 47v10h47v-18c0 -26 -6.5 -46.667 -19.5 -62s-30.833 -23 -53.5 -23c-14 0 -26.833 2.83301 -38.5 8.5s-24.5 13.834 -38.5 24.501c-11.333 8 -20.333 13.833 -27 17.5s-13.667 5.5 -21 5.5c-21.333 0 -32 -15.667 -32 -47v-9h-47v17z" />
    <glyph glyph-name="ograve" unicode="&#xf2;" horiz-adv-x="586" 
d="M165 23.5c-38.667 22.333 -69.167 53 -91.5 92s-33.5 82.167 -33.5 129.5s11.167 90.5 33.5 129.5s52.833 69.667 91.5 92s81.334 33.5 128.001 33.5c46 0 88.333 -11.167 127 -33.5s69.334 -53 92.001 -92s34 -82.167 34 -129.5s-11.333 -90.5 -34 -129.5
s-53.334 -69.667 -92.001 -92s-81 -33.5 -127 -33.5c-46.667 0 -89.334 11.167 -128.001 33.5zM390.5 70c29.667 17.333 53.167 41.333 70.5 72s26 65 26 103s-8.66699 72.333 -26 103s-40.833 54.667 -70.5 72s-62.167 26 -97.5 26s-67.833 -8.66699 -97.5 -26
s-53.167 -41.333 -70.5 -72s-26 -65 -26 -103s8.66699 -72.333 26 -103s40.833 -54.667 70.5 -72s62.167 -26 97.5 -26s67.833 8.66699 97.5 26zM327 564h-59l-92 127h68z" />
    <glyph glyph-name="oacute" unicode="&#xf3;" horiz-adv-x="586" 
d="M165 23.5c-38.667 22.333 -69.167 53 -91.5 92s-33.5 82.167 -33.5 129.5s11.167 90.5 33.5 129.5s52.833 69.667 91.5 92s81.334 33.5 128.001 33.5c46 0 88.333 -11.167 127 -33.5s69.334 -53 92.001 -92s34 -82.167 34 -129.5s-11.333 -90.5 -34 -129.5
s-53.334 -69.667 -92.001 -92s-81 -33.5 -127 -33.5c-46.667 0 -89.334 11.167 -128.001 33.5zM390.5 70c29.667 17.333 53.167 41.333 70.5 72s26 65 26 103s-8.66699 72.333 -26 103s-40.833 54.667 -70.5 72s-62.167 26 -97.5 26s-67.833 -8.66699 -97.5 -26
s-53.167 -41.333 -70.5 -72s-26 -65 -26 -103s8.66699 -72.333 26 -103s40.833 -54.667 70.5 -72s62.167 -26 97.5 -26s67.833 8.66699 97.5 26zM309 564h-58l83 127h66z" />
    <glyph glyph-name="ocircumflex" unicode="&#xf4;" horiz-adv-x="586" 
d="M165 23.5c-38.667 22.333 -69.167 53 -91.5 92s-33.5 82.167 -33.5 129.5s11.167 90.5 33.5 129.5s52.833 69.667 91.5 92s81.334 33.5 128.001 33.5c46 0 88.333 -11.167 127 -33.5s69.334 -53 92.001 -92s34 -82.167 34 -129.5s-11.333 -90.5 -34 -129.5
s-53.334 -69.667 -92.001 -92s-81 -33.5 -127 -33.5c-46.667 0 -89.334 11.167 -128.001 33.5zM390.5 70c29.667 17.333 53.167 41.333 70.5 72s26 65 26 103s-8.66699 72.333 -26 103s-40.833 54.667 -70.5 72s-62.167 26 -97.5 26s-67.833 -8.66699 -97.5 -26
s-53.167 -41.333 -70.5 -72s-26 -65 -26 -103s8.66699 -72.333 26 -103s40.833 -54.667 70.5 -72s62.167 -26 97.5 -26s67.833 8.66699 97.5 26zM216 564h-65l115 122h52l115 -122h-65l-76 82z" />
    <glyph glyph-name="otilde" unicode="&#xf5;" horiz-adv-x="586" 
d="M165 23.5c-38.667 22.333 -69.167 53 -91.5 92s-33.5 82.167 -33.5 129.5s11.167 90.5 33.5 129.5s52.833 69.667 91.5 92s81.334 33.5 128.001 33.5c46 0 88.333 -11.167 127 -33.5s69.334 -53 92.001 -92s34 -82.167 34 -129.5s-11.333 -90.5 -34 -129.5
s-53.334 -69.667 -92.001 -92s-81 -33.5 -127 -33.5c-46.667 0 -89.334 11.167 -128.001 33.5zM390.5 70c29.667 17.333 53.167 41.333 70.5 72s26 65 26 103s-8.66699 72.333 -26 103s-40.833 54.667 -70.5 72s-62.167 26 -97.5 26s-67.833 -8.66699 -97.5 -26
s-53.167 -41.333 -70.5 -72s-26 -65 -26 -103s8.66699 -72.333 26 -103s40.833 -54.667 70.5 -72s62.167 -26 97.5 -26s67.833 8.66699 97.5 26zM154 591c0 26 6.5 46.667 19.5 62s30.833 23 53.5 23c14 0 26.833 -2.83301 38.5 -8.5s24.5 -13.834 38.5 -24.501
c11.333 -8 20.333 -13.833 27 -17.5s13.667 -5.5 21 -5.5c21.333 0 32 15.667 32 47v10h47v-18c0 -26 -6.5 -46.667 -19.5 -62s-30.833 -23 -53.5 -23c-14 0 -26.833 2.83301 -38.5 8.5s-24.5 13.834 -38.5 24.501c-11.333 8 -20.333 13.833 -27 17.5s-13.667 5.5 -21 5.5
c-21.333 0 -32 -15.667 -32 -47v-9h-47v17z" />
    <glyph glyph-name="odieresis" unicode="&#xf6;" horiz-adv-x="586" 
d="M165 23.5c-38.667 22.333 -69.167 53 -91.5 92s-33.5 82.167 -33.5 129.5s11.167 90.5 33.5 129.5s52.833 69.667 91.5 92s81.334 33.5 128.001 33.5c46 0 88.333 -11.167 127 -33.5s69.334 -53 92.001 -92s34 -82.167 34 -129.5s-11.333 -90.5 -34 -129.5
s-53.334 -69.667 -92.001 -92s-81 -33.5 -127 -33.5c-46.667 0 -89.334 11.167 -128.001 33.5zM390.5 70c29.667 17.333 53.167 41.333 70.5 72s26 65 26 103s-8.66699 72.333 -26 103s-40.833 54.667 -70.5 72s-62.167 26 -97.5 26s-67.833 -8.66699 -97.5 -26
s-53.167 -41.333 -70.5 -72s-26 -65 -26 -103s8.66699 -72.333 26 -103s40.833 -54.667 70.5 -72s62.167 -26 97.5 -26s67.833 8.66699 97.5 26zM241 592h-70v75h70v-75zM414 592h-70v75h70v-75z" />
    <glyph glyph-name="divide" unicode="&#xf7;" 
d="M304 467h-76v87h76v-87zM504 312h-476v56h476v-56zM304 127h-76v87h76v-87z" />
    <glyph glyph-name="oslash" unicode="&#xf8;" horiz-adv-x="586" 
d="M469 429c24.667 -22.667 43.667 -49.833 57 -81.5s20 -65.834 20 -102.501c0 -47.333 -11.333 -90.5 -34 -129.5s-53.334 -69.667 -92.001 -92s-81 -33.5 -127 -33.5c-50.667 0 -96.667 13.333 -138 40l-31 -40h-62l55 70c-24.667 23.333 -43.667 50.833 -57 82.5
s-20 65.834 -20 102.501c0 47.333 11.167 90.5 33.5 129.5s52.833 69.667 91.5 92s81.334 33.5 128.001 33.5c49.333 0 95.333 -13.333 138 -40l31 40h63zM113 168.001c9.33301 -24 22.333 -45 39 -63l245 311c-31.333 20 -66 30 -104 30
c-35.333 0 -67.833 -8.66699 -97.5 -26s-53.167 -41.333 -70.5 -72s-26 -65 -26 -103c0 -27.333 4.66699 -53 14 -77zM390.5 70.001c29.667 17.333 53.168 41.332 70.501 71.999s26 65 26 103c0 54.667 -17.667 101.334 -53 140.001l-244 -312
c31.333 -19.333 65.666 -29 102.999 -29c35.333 0 67.833 8.66699 97.5 26z" />
    <glyph glyph-name="ugrave" unicode="&#xf9;" horiz-adv-x="556" 
d="M169 17c-31.333 18 -55.335 43 -72.002 75s-25 68.333 -25 109v289h57v-285c0 -46.667 12.833 -85.167 38.5 -115.5s62.5 -45.5 110.5 -45.5s84.833 15.167 110.5 45.5s38.5 68.833 38.5 115.5v285h57v-289c0 -40.667 -8.33301 -77 -25 -109s-40.667 -57 -72 -75
s-67.666 -27 -108.999 -27s-77.666 9 -108.999 27zM311.998 564h-59l-92 127h68z" />
    <glyph glyph-name="uacute" unicode="&#xfa;" horiz-adv-x="556" 
d="M169 17c-31.333 18 -55.335 43 -72.002 75s-25 68.333 -25 109v289h57v-285c0 -46.667 12.833 -85.167 38.5 -115.5s62.5 -45.5 110.5 -45.5s84.833 15.167 110.5 45.5s38.5 68.833 38.5 115.5v285h57v-289c0 -40.667 -8.33301 -77 -25 -109s-40.667 -57 -72 -75
s-67.666 -27 -108.999 -27s-77.666 9 -108.999 27zM293.998 564h-58l83 127h66z" />
    <glyph glyph-name="ucircumflex" unicode="&#xfb;" horiz-adv-x="556" 
d="M169 17c-31.333 18 -55.335 43 -72.002 75s-25 68.333 -25 109v289h57v-285c0 -46.667 12.833 -85.167 38.5 -115.5s62.5 -45.5 110.5 -45.5s84.833 15.167 110.5 45.5s38.5 68.833 38.5 115.5v285h57v-289c0 -40.667 -8.33301 -77 -25 -109s-40.667 -57 -72 -75
s-67.666 -27 -108.999 -27s-77.666 9 -108.999 27zM200.998 564h-65l115 122h52l115 -122h-65l-76 82z" />
    <glyph glyph-name="udieresis" unicode="&#xfc;" horiz-adv-x="556" 
d="M169 17c-31.333 18 -55.335 43 -72.002 75s-25 68.333 -25 109v289h57v-285c0 -46.667 12.833 -85.167 38.5 -115.5s62.5 -45.5 110.5 -45.5s84.833 15.167 110.5 45.5s38.5 68.833 38.5 115.5v285h57v-289c0 -40.667 -8.33301 -77 -25 -109s-40.667 -57 -72 -75
s-67.666 -27 -108.999 -27s-77.666 9 -108.999 27zM225.998 592h-70v75h70v-75zM398.998 592h-70v75h70v-75z" />
    <glyph glyph-name="yacute" unicode="&#xfd;" horiz-adv-x="501" 
d="M257 100l172 390h62l-310 -690h-61l106 235l-221 455h64zM265 564h-58l83 127h66z" />
    <glyph glyph-name="thorn" unicode="&#xfe;" horiz-adv-x="624" 
d="M459.5 466.5c38.333 -22.333 68.666 -53 90.999 -92s33.5 -82.167 33.5 -129.5s-11.167 -90.5 -33.5 -129.5s-52.666 -69.667 -90.999 -92s-80.166 -33.5 -125.499 -33.5c-40.667 0 -78.334 9.33301 -113.001 28s-62 43.667 -82 75v-293h-57v920h57v-323
c20 31.333 47.333 56.333 82 75s72.334 28 113.001 28c45.333 0 87.166 -11.167 125.499 -33.5zM428.5 70c29.667 17.333 53.167 41.333 70.5 72s26 65 26 103s-8.66699 72.333 -26 103s-40.833 54.667 -70.5 72s-62.167 26 -97.5 26c-36 0 -68.833 -8.66699 -98.5 -26
s-53.167 -41.333 -70.5 -72s-26 -65 -26 -103s8.66699 -72.333 26 -103s40.833 -54.667 70.5 -72s62.5 -26 98.5 -26c35.333 0 67.833 8.66699 97.5 26z" />
    <glyph glyph-name="ydieresis" unicode="&#xff;" horiz-adv-x="501" 
d="M257 100l172 390h62l-310 -690h-61l106 235l-221 455h64zM198 592h-70v75h70v-75zM371 592h-70v75h70v-75z" />
    <glyph glyph-name="Amacron" unicode="&#x100;" horiz-adv-x="652" 
d="M632 0h-65l-79 200h-325l-80 -200h-63l283 700h45zM465 257l-140 353l-139 -353h279zM458 804h-264v52h264v-52z" />
    <glyph glyph-name="amacron" unicode="&#x101;" horiz-adv-x="619" 
d="M485 490h57v-490h-57v93c-20 -31.333 -47.333 -56.333 -82 -75s-72.334 -28 -113.001 -28c-45.333 0 -87.166 11.167 -125.499 33.5s-68.666 53 -90.999 92s-33.5 82.167 -33.5 129.5s11.167 90.5 33.5 129.5s52.666 69.667 90.999 92s80.166 33.5 125.499 33.5
c40.667 0 78.334 -9.33301 113.001 -28s62 -43.667 82 -75v93zM391.5 70c29.667 17.333 53.167 41.333 70.5 72s26 65 26 103s-8.66699 72.333 -26 103s-40.833 54.667 -70.5 72s-62.5 26 -98.5 26c-35.333 0 -67.833 -8.66699 -97.5 -26s-53.167 -41.333 -70.5 -72
s-26 -65 -26 -103s8.66699 -72.333 26 -103s40.833 -54.667 70.5 -72s62.167 -26 97.5 -26c36 0 68.833 8.66699 98.5 26zM441 600h-264v51h264v-51z" />
    <glyph glyph-name="Abreve" unicode="&#x102;" horiz-adv-x="652" 
d="M632 0h-65l-79 200h-325l-80 -200h-63l283 700h45zM465 257l-140 353l-139 -353h279zM227 796c-25.333 23.333 -39.335 54 -42.002 92h52c2.66699 -26 11.834 -45.5 27.501 -58.5s36.167 -19.5 61.5 -19.5s45.833 6.5 61.5 19.5s24.834 32.5 27.501 58.5h52
c-2.66699 -38 -16.667 -68.667 -42 -92s-58.333 -35 -99 -35s-73.667 11.667 -99 35z" />
    <glyph glyph-name="abreve" unicode="&#x103;" horiz-adv-x="619" 
d="M485 490h57v-490h-57v93c-20 -31.333 -47.333 -56.333 -82 -75s-72.334 -28 -113.001 -28c-45.333 0 -87.166 11.167 -125.499 33.5s-68.666 53 -90.999 92s-33.5 82.167 -33.5 129.5s11.167 90.5 33.5 129.5s52.666 69.667 90.999 92s80.166 33.5 125.499 33.5
c40.667 0 78.334 -9.33301 113.001 -28s62 -43.667 82 -75v93zM391.5 70c29.667 17.333 53.167 41.333 70.5 72s26 65 26 103s-8.66699 72.333 -26 103s-40.833 54.667 -70.5 72s-62.5 26 -98.5 26c-35.333 0 -67.833 -8.66699 -97.5 -26s-53.167 -41.333 -70.5 -72
s-26 -65 -26 -103s8.66699 -72.333 26 -103s40.833 -54.667 70.5 -72s62.167 -26 97.5 -26c36 0 68.833 8.66699 98.5 26zM212 591c-25.333 23.333 -39.3369 54 -42.0039 92h52c2.66699 -25.333 11.834 -44.666 27.501 -57.999s35.5 -20 59.5 -20s43.833 6.66699 59.5 20
s24.834 32.666 27.501 57.999h52c-2.66699 -38 -16.667 -68.667 -42 -92s-57.666 -35 -96.999 -35s-71.666 11.667 -96.999 35z" />
    <glyph glyph-name="Aogonek" unicode="&#x104;" horiz-adv-x="652" 
d="M633 -147v-46.001h-26c-30.667 0 -56 8.66699 -76 26s-30 41.333 -30 72c0 22 6 41.333 18 58s27.333 30.334 46 41.001l-77 196h-325l-80 -200h-63l283 700h45l284 -700c-24.667 -7.33301 -44.667 -19 -60 -35s-23 -34.333 -23 -55c0 -18 5.66699 -32 17 -42
s28.333 -15 51 -15h16zM465 256.999l-140 353l-139 -353h279z" />
    <glyph glyph-name="aogonek" unicode="&#x105;" horiz-adv-x="619" 
d="M543 -147v-46h-26c-30.667 0 -56 8.66699 -76 26s-30 41.333 -30 72c0 24 7 44.667 21 62s31.667 31.333 53 42v84c-20 -31.333 -47.333 -56.333 -82 -75s-72.334 -28 -113.001 -28c-45.333 0 -87.166 11.167 -125.499 33.5s-68.666 53 -90.999 92
s-33.5 82.167 -33.5 129.5s11.167 90.5 33.5 129.5s52.666 69.667 90.999 92s80.166 33.5 125.499 33.5c40.667 0 78.334 -9.33301 113.001 -28s62 -43.667 82 -75v93h57v-490c-24.667 -7.33301 -44.667 -19 -60 -35s-23 -34.333 -23 -55c0 -18 5.66699 -32 17 -42
s28.333 -15 51 -15h16zM391.5 70c29.667 17.333 53.167 41.333 70.5 72s26 65 26 103s-8.66699 72.333 -26 103s-40.833 54.667 -70.5 72s-62.5 26 -98.5 26c-35.333 0 -67.833 -8.66699 -97.5 -26s-53.167 -41.333 -70.5 -72s-26 -65 -26 -103s8.66699 -72.333 26 -103
s40.833 -54.667 70.5 -72s62.167 -26 97.5 -26c36 0 68.833 8.66699 98.5 26z" />
    <glyph glyph-name="Cacute" unicode="&#x106;" horiz-adv-x="773" 
d="M230.5 38c-53.667 32 -96.3359 75.6699 -128.003 131.003s-47.5 115.666 -47.5 180.999s15.833 125.666 47.5 180.999s74.334 99 128.001 131s112.167 48 175.5 48c73.333 0 138 -20.333 194 -61s98 -95.334 126 -164.001h-64
c-25.333 52.667 -60.333 93.834 -105 123.501s-95 44.5 -151 44.5c-52 0 -100.167 -13.333 -144.5 -40s-79.5 -63.167 -105.5 -109.5s-39 -97.5 -39 -153.5s13 -107.167 39 -153.5s61.167 -82.833 105.5 -109.5s92.5 -40 144.5 -40c56.667 0 107.834 15 153.501 45
s80.834 71 105.501 123h64c-28 -68.667 -70.333 -123.334 -127 -164.001s-122 -61 -196 -61c-63.333 0 -121.833 16 -175.5 48zM419.998 769.003h-58l83 127h66z" />
    <glyph glyph-name="cacute" unicode="&#x107;" horiz-adv-x="550" 
d="M164 23.5c-38 22.333 -68.167 53 -90.5 92s-33.5 82.167 -33.5 129.5s11.167 90.5 33.5 129.5s52.5 69.667 90.5 92s79.667 33.5 125 33.5c51.333 0 97.833 -13.833 139.5 -41.5s71.5 -65.5 89.5 -113.5h-62c-16 31.333 -39.167 56 -69.5 74s-62.833 27 -97.5 27
s-66.5 -8.66699 -95.5 -26s-52 -41.333 -69 -72s-25.5 -65 -25.5 -103s8.5 -72.333 25.5 -103s40 -54.667 69 -72s60.833 -26 95.5 -26s67.167 9 97.5 27s53.5 42.667 69.5 74h62c-18 -48 -47.833 -85.833 -89.5 -113.5s-88.167 -41.5 -139.5 -41.5
c-45.333 0 -87 11.167 -125 33.5zM309 564h-58l83 127h66z" />
    <glyph glyph-name="Ccircumflex" unicode="&#x108;" horiz-adv-x="773" 
d="M230.5 38c-53.667 32 -96.3359 75.6699 -128.003 131.003s-47.5 115.666 -47.5 180.999s15.833 125.666 47.5 180.999s74.334 99 128.001 131s112.167 48 175.5 48c73.333 0 138 -20.333 194 -61s98 -95.334 126 -164.001h-64
c-25.333 52.667 -60.333 93.834 -105 123.501s-95 44.5 -151 44.5c-52 0 -100.167 -13.333 -144.5 -40s-79.5 -63.167 -105.5 -109.5s-39 -97.5 -39 -153.5s13 -107.167 39 -153.5s61.167 -82.833 105.5 -109.5s92.5 -40 144.5 -40c56.667 0 107.834 15 153.501 45
s80.834 71 105.501 123h64c-28 -68.667 -70.333 -123.334 -127 -164.001s-122 -61 -196 -61c-63.333 0 -121.833 16 -175.5 48zM327.998 769.003h-65l115 122h52l115 -122h-65l-76 82z" />
    <glyph glyph-name="ccircumflex" unicode="&#x109;" horiz-adv-x="550" 
d="M164 23.5c-38 22.333 -68.167 53 -90.5 92s-33.5 82.167 -33.5 129.5s11.167 90.5 33.5 129.5s52.5 69.667 90.5 92s79.667 33.5 125 33.5c51.333 0 97.833 -13.833 139.5 -41.5s71.5 -65.5 89.5 -113.5h-62c-16 31.333 -39.167 56 -69.5 74s-62.833 27 -97.5 27
s-66.5 -8.66699 -95.5 -26s-52 -41.333 -69 -72s-25.5 -65 -25.5 -103s8.5 -72.333 25.5 -103s40 -54.667 69 -72s60.833 -26 95.5 -26s67.167 9 97.5 27s53.5 42.667 69.5 74h62c-18 -48 -47.833 -85.833 -89.5 -113.5s-88.167 -41.5 -139.5 -41.5
c-45.333 0 -87 11.167 -125 33.5zM216 564h-65l115 122h52l115 -122h-65l-76 82z" />
    <glyph glyph-name="Cdotaccent" unicode="&#x10a;" horiz-adv-x="773" 
d="M230.5 38c-53.667 32 -96.3359 75.6699 -128.003 131.003s-47.5 115.666 -47.5 180.999s15.833 125.666 47.5 180.999s74.334 99 128.001 131s112.167 48 175.5 48c73.333 0 138 -20.333 194 -61s98 -95.334 126 -164.001h-64
c-25.333 52.667 -60.333 93.834 -105 123.501s-95 44.5 -151 44.5c-52 0 -100.167 -13.333 -144.5 -40s-79.5 -63.167 -105.5 -109.5s-39 -97.5 -39 -153.5s13 -107.167 39 -153.5s61.167 -82.833 105.5 -109.5s92.5 -40 144.5 -40c56.667 0 107.834 15 153.501 45
s80.834 71 105.501 123h64c-28 -68.667 -70.333 -123.334 -127 -164.001s-122 -61 -196 -61c-63.333 0 -121.833 16 -175.5 48zM438.998 797.003h-70v75h70v-75z" />
    <glyph glyph-name="cdotaccent" unicode="&#x10b;" horiz-adv-x="550" 
d="M164 23.5c-38 22.333 -68.167 53 -90.5 92s-33.5 82.167 -33.5 129.5s11.167 90.5 33.5 129.5s52.5 69.667 90.5 92s79.667 33.5 125 33.5c51.333 0 97.833 -13.833 139.5 -41.5s71.5 -65.5 89.5 -113.5h-62c-16 31.333 -39.167 56 -69.5 74s-62.833 27 -97.5 27
s-66.5 -8.66699 -95.5 -26s-52 -41.333 -69 -72s-25.5 -65 -25.5 -103s8.5 -72.333 25.5 -103s40 -54.667 69 -72s60.833 -26 95.5 -26s67.167 9 97.5 27s53.5 42.667 69.5 74h62c-18 -48 -47.833 -85.833 -89.5 -113.5s-88.167 -41.5 -139.5 -41.5
c-45.333 0 -87 11.167 -125 33.5zM327 592h-70v75h70v-75z" />
    <glyph glyph-name="Ccaron" unicode="&#x10c;" horiz-adv-x="773" 
d="M230.5 38c-53.667 32 -96.3359 75.6699 -128.003 131.003s-47.5 115.666 -47.5 180.999s15.833 125.666 47.5 180.999s74.334 99 128.001 131s112.167 48 175.5 48c73.333 0 138 -20.333 194 -61s98 -95.334 126 -164.001h-64
c-25.333 52.667 -60.333 93.834 -105 123.501s-95 44.5 -151 44.5c-52 0 -100.167 -13.333 -144.5 -40s-79.5 -63.167 -105.5 -109.5s-39 -97.5 -39 -153.5s13 -107.167 39 -153.5s61.167 -82.833 105.5 -109.5s92.5 -40 144.5 -40c56.667 0 107.834 15 153.501 45
s80.834 71 105.501 123h64c-28 -68.667 -70.333 -123.334 -127 -164.001s-122 -61 -196 -61c-63.333 0 -121.833 16 -175.5 48zM429.998 769.003h-52l-115 122h65l76 -82l77 82h64z" />
    <glyph glyph-name="ccaron" unicode="&#x10d;" horiz-adv-x="550" 
d="M164 23.5c-38 22.333 -68.167 53 -90.5 92s-33.5 82.167 -33.5 129.5s11.167 90.5 33.5 129.5s52.5 69.667 90.5 92s79.667 33.5 125 33.5c51.333 0 97.833 -13.833 139.5 -41.5s71.5 -65.5 89.5 -113.5h-62c-16 31.333 -39.167 56 -69.5 74s-62.833 27 -97.5 27
s-66.5 -8.66699 -95.5 -26s-52 -41.333 -69 -72s-25.5 -65 -25.5 -103s8.5 -72.333 25.5 -103s40 -54.667 69 -72s60.833 -26 95.5 -26s67.167 9 97.5 27s53.5 42.667 69.5 74h62c-18 -48 -47.833 -85.833 -89.5 -113.5s-88.167 -41.5 -139.5 -41.5
c-45.333 0 -87 11.167 -125 33.5zM318 564h-52l-115 122h65l76 -82l77 82h64z" />
    <glyph glyph-name="Dcaron" unicode="&#x10e;" horiz-adv-x="715" 
d="M97 0v700h177c78 0 146 -14.5 204 -43.5s102.833 -70 134.5 -123s47.5 -114.167 47.5 -183.5s-15.833 -130.5 -47.5 -183.5s-76.5 -94 -134.5 -123s-126 -43.5 -204 -43.5h-177zM274 57c68 0 126.333 12.5 175 37.5s85.667 59.667 111 104s38 94.833 38 151.5
s-12.667 107.167 -38 151.5s-62.333 79 -111 104s-107 37.5 -175 37.5h-117v-586h117zM384 769h-52l-115 122h65l76 -82l77 82h64z" />
    <glyph glyph-name="dcaron" unicode="&#x10f;" horiz-adv-x="624" 
d="M485 720h57v-720h-57v93c-20 -31.333 -47.333 -56.333 -82 -75s-72.334 -28 -113.001 -28c-45.333 0 -87.166 11.167 -125.499 33.5s-68.666 53 -90.999 92s-33.5 82.167 -33.5 129.5s11.167 90.5 33.5 129.5s52.666 69.667 90.999 92s80.166 33.5 125.499 33.5
c40.667 0 78.334 -9.33301 113.001 -28s62 -43.667 82 -75v323zM391.5 70c29.667 17.333 53.167 41.333 70.5 72s26 65 26 103s-8.66699 72.333 -26 103s-40.833 54.667 -70.5 72s-62.5 26 -98.5 26c-35.333 0 -67.833 -8.66699 -97.5 -26s-53.167 -41.333 -70.5 -72
s-26 -65 -26 -103s8.66699 -72.333 26 -103s40.833 -54.667 70.5 -72s62.167 -26 97.5 -26c36 0 68.833 8.66699 98.5 26zM659 560h-48l20 160h60z" />
    <glyph glyph-name="Dcroat" unicode="&#x110;" horiz-adv-x="720" 
d="M279 700c78 0 146 -14.5 204 -43.5s102.833 -70 134.5 -123s47.5 -114.167 47.5 -183.5s-15.833 -130.5 -47.5 -183.5s-76.5 -94 -134.5 -123s-126 -43.5 -204 -43.5h-177v325h-92v54h92v321h177zM279 57c68 0 126.333 12.5 175 37.5s85.667 59.667 111 104
s38 94.833 38 151.5s-12.667 107.167 -38 151.5s-62.333 79 -111 104s-107 37.5 -175 37.5h-117v-264h228v-54h-228v-268h117z" />
    <glyph glyph-name="dcroat" unicode="&#x111;" horiz-adv-x="603" 
d="M594 622v-51h-75v-571h-57v84c-18 -28 -43.667 -50.667 -77 -68s-69 -26 -107 -26c-43.333 0 -83.166 10.333 -119.499 31s-65.166 49.167 -86.499 85.5s-32 77.5 -32 123.5s10.667 87.167 32 123.5s50.166 64.833 86.499 85.5s76.166 31 119.499 31
c38 0 73.667 -8.66699 107 -26s59 -40 77 -68v195h-169v51h169v98h57v-98h75zM375 67.5c28 15.667 50 37.667 66 66s24 60.5 24 96.5s-8 68.167 -24 96.5s-38 50.333 -66 66s-59 23.5 -93 23.5s-65 -7.83301 -93 -23.5s-50 -37.667 -66 -66s-24 -60.5 -24 -96.5
s8 -68.167 24 -96.5s38 -50.333 66 -66s59 -23.5 93 -23.5s65 7.83301 93 23.5z" />
    <glyph glyph-name="Emacron" unicode="&#x112;" horiz-adv-x="534" 
d="M157 335v-278h308v-57h-368v700h358v-57h-298v-251h288v-57h-288zM412 804h-264v52h264v-52z" />
    <glyph glyph-name="emacron" unicode="&#x113;" horiz-adv-x="564" 
d="M408.5 467.5c37 -21.667 66.002 -51.001 87.002 -88.001s31.5 -77.833 31.5 -122.5c0 -7.33301 -0.666992 -17.666 -2 -30.999h-425c3.33301 -54 22.166 -97.833 56.499 -131.5s76.833 -50.5 127.5 -50.5c39.333 0 73.333 9.16699 102 27.5s50.667 42.833 66 73.5h61
c-20 -50 -49.833 -88.333 -89.5 -115s-86.5 -40 -140.5 -40c-44.667 0 -85.5 11.167 -122.5 33.5s-66.333 53 -88 92s-32.5 82.167 -32.5 129.5s10.833 90.5 32.5 129.5s51.167 69.667 88.5 92s78.666 33.5 123.999 33.5s86.5 -10.833 123.5 -32.5zM161.502 400.499
c-33.667 -30.333 -53.832 -70.833 -60.499 -121.5h366c-2.66699 30.667 -12 58.667 -28 84s-37.333 45.5 -64 60.5s-56.667 22.5 -90 22.5c-48.667 0 -89.834 -15.167 -123.501 -45.5zM416.004 599.999h-264v51h264v-51z" />
    <glyph glyph-name="Ebreve" unicode="&#x114;" horiz-adv-x="534" 
d="M157 335v-278h308v-57h-368v700h358v-57h-298v-251h288v-57h-288zM181 796c-25.333 23.333 -39.335 54 -42.002 92h52c2.66699 -26 11.834 -45.5 27.501 -58.5s36.167 -19.5 61.5 -19.5s45.833 6.5 61.5 19.5s24.834 32.5 27.501 58.5h52
c-2.66699 -38 -16.667 -68.667 -42 -92s-58.333 -35 -99 -35s-73.667 11.667 -99 35z" />
    <glyph glyph-name="ebreve" unicode="&#x115;" horiz-adv-x="564" 
d="M408.5 467.5c37 -21.667 66.002 -51.001 87.002 -88.001s31.5 -77.833 31.5 -122.5c0 -7.33301 -0.666992 -17.666 -2 -30.999h-425c3.33301 -54 22.166 -97.833 56.499 -131.5s76.833 -50.5 127.5 -50.5c39.333 0 73.333 9.16699 102 27.5s50.667 42.833 66 73.5h61
c-20 -50 -49.833 -88.333 -89.5 -115s-86.5 -40 -140.5 -40c-44.667 0 -85.5 11.167 -122.5 33.5s-66.333 53 -88 92s-32.5 82.167 -32.5 129.5s10.833 90.5 32.5 129.5s51.167 69.667 88.5 92s78.666 33.5 123.999 33.5s86.5 -10.833 123.5 -32.5zM161.502 400.499
c-33.667 -30.333 -53.832 -70.833 -60.499 -121.5h366c-2.66699 30.667 -12 58.667 -28 84s-37.333 45.5 -64 60.5s-56.667 22.5 -90 22.5c-48.667 0 -89.834 -15.167 -123.501 -45.5zM187.004 590.999c-25.333 23.333 -39.3369 54 -42.0039 92h52
c2.66699 -25.333 11.834 -44.666 27.501 -57.999s35.5 -20 59.5 -20s43.833 6.66699 59.5 20s24.834 32.666 27.501 57.999h52c-2.66699 -38 -16.667 -68.667 -42 -92s-57.666 -35 -96.999 -35s-71.666 11.667 -96.999 35z" />
    <glyph glyph-name="Edotaccent" unicode="&#x116;" horiz-adv-x="534" 
d="M157 335v-278h308v-57h-368v700h358v-57h-298v-251h288v-57h-288zM314 797h-70v75h70v-75z" />
    <glyph glyph-name="edotaccent" unicode="&#x117;" horiz-adv-x="564" 
d="M408.5 467.5c37 -21.667 66.002 -51.001 87.002 -88.001s31.5 -77.833 31.5 -122.5c0 -7.33301 -0.666992 -17.666 -2 -30.999h-425c3.33301 -54 22.166 -97.833 56.499 -131.5s76.833 -50.5 127.5 -50.5c39.333 0 73.333 9.16699 102 27.5s50.667 42.833 66 73.5h61
c-20 -50 -49.833 -88.333 -89.5 -115s-86.5 -40 -140.5 -40c-44.667 0 -85.5 11.167 -122.5 33.5s-66.333 53 -88 92s-32.5 82.167 -32.5 129.5s10.833 90.5 32.5 129.5s51.167 69.667 88.5 92s78.666 33.5 123.999 33.5s86.5 -10.833 123.5 -32.5zM161.502 400.499
c-33.667 -30.333 -53.832 -70.833 -60.499 -121.5h366c-2.66699 30.667 -12 58.667 -28 84s-37.333 45.5 -64 60.5s-56.667 22.5 -90 22.5c-48.667 0 -89.834 -15.167 -123.501 -45.5zM318.004 591.999h-70v75h70v-75z" />
    <glyph glyph-name="Eogonek" unicode="&#x118;" horiz-adv-x="534" 
d="M466 -147v-46.001h-26c-30.667 0 -56 8.66699 -76 26s-30 41.333 -30 72c0 38.667 19.333 70.334 58 95.001h-295v700h358v-57h-298v-251h288v-57h-288v-278h308v-57c-24.667 -7.33301 -44.667 -19 -60 -35s-23 -34.333 -23 -55c0 -18 5.66699 -32 17 -42
s28.333 -15 51 -15h16z" />
    <glyph glyph-name="eogonek" unicode="&#x119;" horiz-adv-x="564" 
d="M408.5 467.5c37 -21.667 66.002 -51.001 87.002 -88.001s31.5 -77.833 31.5 -122.5c0 -7.33301 -0.666992 -17.666 -2 -30.999h-425c3.33301 -54 22.166 -97.833 56.499 -131.5s76.833 -50.5 127.5 -50.5c39.333 0 73.333 9.16699 102 27.5s50.667 42.833 66 73.5h61
c-7.33301 -21.333 -17.333 -40.833 -30 -58.5s-29 -37.5 -49 -59.5c-22 -24 -38.167 -44 -48.5 -60s-15.5 -33.667 -15.5 -53c0 -20 5.66699 -35.333 17 -46s28.333 -16 51 -16h19v-45h-23c-32.667 0 -59.5 9 -80.5 27s-31.5 43.667 -31.5 77c0 34 13.667 64 41 90
c-25.333 -7.33301 -52 -11 -80 -11c-44.667 0 -85.5 11.167 -122.5 33.5s-66.333 53 -88 92s-32.5 82.167 -32.5 129.5s10.833 90.5 32.5 129.5s51.167 69.667 88.5 92s78.666 33.5 123.999 33.5s86.5 -10.833 123.5 -32.5zM161.502 400.499
c-33.667 -30.333 -53.832 -70.833 -60.499 -121.5h366c-2.66699 30.667 -12 58.667 -28 84s-37.333 45.5 -64 60.5s-56.667 22.5 -90 22.5c-48.667 0 -89.834 -15.167 -123.501 -45.5z" />
    <glyph glyph-name="Ecaron" unicode="&#x11a;" horiz-adv-x="534" 
d="M157 335v-278h308v-57h-368v700h358v-57h-298v-251h288v-57h-288zM305 769h-52l-115 122h65l76 -82l77 82h64z" />
    <glyph glyph-name="ecaron" unicode="&#x11b;" horiz-adv-x="564" 
d="M408.5 467.5c37 -21.667 66.002 -51.001 87.002 -88.001s31.5 -77.833 31.5 -122.5c0 -7.33301 -0.666992 -17.666 -2 -30.999h-425c3.33301 -54 22.166 -97.833 56.499 -131.5s76.833 -50.5 127.5 -50.5c39.333 0 73.333 9.16699 102 27.5s50.667 42.833 66 73.5h61
c-20 -50 -49.833 -88.333 -89.5 -115s-86.5 -40 -140.5 -40c-44.667 0 -85.5 11.167 -122.5 33.5s-66.333 53 -88 92s-32.5 82.167 -32.5 129.5s10.833 90.5 32.5 129.5s51.167 69.667 88.5 92s78.666 33.5 123.999 33.5s86.5 -10.833 123.5 -32.5zM161.502 400.499
c-33.667 -30.333 -53.832 -70.833 -60.499 -121.5h366c-2.66699 30.667 -12 58.667 -28 84s-37.333 45.5 -64 60.5s-56.667 22.5 -90 22.5c-48.667 0 -89.834 -15.167 -123.501 -45.5zM309.004 563.999h-52l-115 122h65l76 -82l77 82h64z" />
    <glyph glyph-name="Gcircumflex" unicode="&#x11c;" horiz-adv-x="792" 
d="M388 362l363.998 -0.00195312v-24c0 -61.333 -14.5 -118.666 -43.5 -171.999s-69.5 -96 -121.5 -128s-110.667 -48 -176 -48s-125.166 16 -179.499 48s-97.333 75.5 -129 130.5s-47.5 115.5 -47.5 181.5s15.833 126.5 47.5 181.5s74.667 98.5 129 130.5
s114.166 48 179.499 48c74 0 140 -20.5 198 -61.5s100.667 -95.5 128 -163.5h-64c-24 50.667 -58.833 91.334 -104.5 122.001s-98.167 46 -157.5 46c-54 0 -103.5 -13.333 -148.5 -40s-80.5 -63.167 -106.5 -109.5s-39 -97.5 -39 -153.5s13 -107.167 39 -153.5
s61.5 -82.833 106.5 -109.5s94.5 -40 148.5 -40c48 0 92.333 10.5 133 31.5s73.834 51 99.501 90s40.834 84.5 45.501 136.5h-301v57zM334.998 768.998h-65l115 122h52l115 -122h-65l-76 82z" />
    <glyph glyph-name="gcircumflex" unicode="&#x11d;" horiz-adv-x="609" 
d="M475 490h57v-460c0 -46.667 -10.167 -88.167 -30.5 -124.5s-49 -64.666 -86 -84.999s-79.167 -30.5 -126.5 -30.5c-57.333 0 -106.833 15.167 -148.5 45.5s-69.834 71.833 -84.501 124.5h58c12 -32.667 32.833 -60.167 62.5 -82.5s67.167 -33.5 112.5 -33.5
c56.667 0 101.834 17.167 135.501 51.5s50.5 79.166 50.5 134.499v82c-21.333 -31.333 -48.5 -56.166 -81.5 -74.499s-69.167 -27.5 -108.5 -27.5c-44.667 0 -85.834 10.667 -123.501 32s-67.334 50.666 -89.001 87.999s-32.5 79 -32.5 125s10.833 87.667 32.5 125
s51.334 66.666 89.001 87.999s78.834 32 123.501 32c39.333 0 75.5 -9.16699 108.5 -27.5s60.167 -43.166 81.5 -74.499v92zM384.5 89c29 16.667 51.833 39.5 68.5 68.5s25 61.5 25 97.5s-8.33301 68.5 -25 97.5s-39.5 51.833 -68.5 68.5s-61.167 25 -96.5 25
c-34.667 0 -66.5 -8.33301 -95.5 -25s-51.833 -39.5 -68.5 -68.5s-25 -61.5 -25 -97.5s8.33301 -68.5 25 -97.5s39.5 -51.833 68.5 -68.5s60.833 -25 95.5 -25c35.333 0 67.5 8.33301 96.5 25zM228 564h-65l115 122h52l115 -122h-65l-76 82z" />
    <glyph glyph-name="Gbreve" unicode="&#x11e;" horiz-adv-x="792" 
d="M388 362l363.998 -0.00195312v-24c0 -61.333 -14.5 -118.666 -43.5 -171.999s-69.5 -96 -121.5 -128s-110.667 -48 -176 -48s-125.166 16 -179.499 48s-97.333 75.5 -129 130.5s-47.5 115.5 -47.5 181.5s15.833 126.5 47.5 181.5s74.667 98.5 129 130.5
s114.166 48 179.499 48c74 0 140 -20.5 198 -61.5s100.667 -95.5 128 -163.5h-64c-24 50.667 -58.833 91.334 -104.5 122.001s-98.167 46 -157.5 46c-54 0 -103.5 -13.333 -148.5 -40s-80.5 -63.167 -106.5 -109.5s-39 -97.5 -39 -153.5s13 -107.167 39 -153.5
s61.5 -82.833 106.5 -109.5s94.5 -40 148.5 -40c48 0 92.333 10.5 133 31.5s73.834 51 99.501 90s40.834 84.5 45.501 136.5h-301v57zM311.998 795.998c-25.333 23.333 -39.335 54 -42.002 92h52c2.66699 -26 11.834 -45.5 27.501 -58.5s36.167 -19.5 61.5 -19.5
s45.833 6.5 61.5 19.5s24.834 32.5 27.501 58.5h52c-2.66699 -38 -16.667 -68.667 -42 -92s-58.333 -35 -99 -35s-73.667 11.667 -99 35z" />
    <glyph glyph-name="gbreve" unicode="&#x11f;" horiz-adv-x="609" 
d="M475 490h57v-460c0 -46.667 -10.167 -88.167 -30.5 -124.5s-49 -64.666 -86 -84.999s-79.167 -30.5 -126.5 -30.5c-57.333 0 -106.833 15.167 -148.5 45.5s-69.834 71.833 -84.501 124.5h58c12 -32.667 32.833 -60.167 62.5 -82.5s67.167 -33.5 112.5 -33.5
c56.667 0 101.834 17.167 135.501 51.5s50.5 79.166 50.5 134.499v82c-21.333 -31.333 -48.5 -56.166 -81.5 -74.499s-69.167 -27.5 -108.5 -27.5c-44.667 0 -85.834 10.667 -123.501 32s-67.334 50.666 -89.001 87.999s-32.5 79 -32.5 125s10.833 87.667 32.5 125
s51.334 66.666 89.001 87.999s78.834 32 123.501 32c39.333 0 75.5 -9.16699 108.5 -27.5s60.167 -43.166 81.5 -74.499v92zM384.5 89c29 16.667 51.833 39.5 68.5 68.5s25 61.5 25 97.5s-8.33301 68.5 -25 97.5s-39.5 51.833 -68.5 68.5s-61.167 25 -96.5 25
c-34.667 0 -66.5 -8.33301 -95.5 -25s-51.833 -39.5 -68.5 -68.5s-25 -61.5 -25 -97.5s8.33301 -68.5 25 -97.5s39.5 -51.833 68.5 -68.5s60.833 -25 95.5 -25c35.333 0 67.5 8.33301 96.5 25zM207 591c-25.333 23.333 -39.3369 54 -42.0039 92h52
c2.66699 -25.333 11.834 -44.666 27.501 -57.999s35.5 -20 59.5 -20s43.833 6.66699 59.5 20s24.834 32.666 27.501 57.999h52c-2.66699 -38 -16.667 -68.667 -42 -92s-57.666 -35 -96.999 -35s-71.666 11.667 -96.999 35z" />
    <glyph glyph-name="Gdotaccent" unicode="&#x120;" horiz-adv-x="792" 
d="M388 362l363.998 -0.00195312v-24c0 -61.333 -14.5 -118.666 -43.5 -171.999s-69.5 -96 -121.5 -128s-110.667 -48 -176 -48s-125.166 16 -179.499 48s-97.333 75.5 -129 130.5s-47.5 115.5 -47.5 181.5s15.833 126.5 47.5 181.5s74.667 98.5 129 130.5
s114.166 48 179.499 48c74 0 140 -20.5 198 -61.5s100.667 -95.5 128 -163.5h-64c-24 50.667 -58.833 91.334 -104.5 122.001s-98.167 46 -157.5 46c-54 0 -103.5 -13.333 -148.5 -40s-80.5 -63.167 -106.5 -109.5s-39 -97.5 -39 -153.5s13 -107.167 39 -153.5
s61.5 -82.833 106.5 -109.5s94.5 -40 148.5 -40c48 0 92.333 10.5 133 31.5s73.834 51 99.501 90s40.834 84.5 45.501 136.5h-301v57zM445.998 796.998h-70v75h70v-75z" />
    <glyph glyph-name="gdotaccent" unicode="&#x121;" horiz-adv-x="609" 
d="M475 490h57v-460c0 -46.667 -10.167 -88.167 -30.5 -124.5s-49 -64.666 -86 -84.999s-79.167 -30.5 -126.5 -30.5c-57.333 0 -106.833 15.167 -148.5 45.5s-69.834 71.833 -84.501 124.5h58c12 -32.667 32.833 -60.167 62.5 -82.5s67.167 -33.5 112.5 -33.5
c56.667 0 101.834 17.167 135.501 51.5s50.5 79.166 50.5 134.499v82c-21.333 -31.333 -48.5 -56.166 -81.5 -74.499s-69.167 -27.5 -108.5 -27.5c-44.667 0 -85.834 10.667 -123.501 32s-67.334 50.666 -89.001 87.999s-32.5 79 -32.5 125s10.833 87.667 32.5 125
s51.334 66.666 89.001 87.999s78.834 32 123.501 32c39.333 0 75.5 -9.16699 108.5 -27.5s60.167 -43.166 81.5 -74.499v92zM384.5 89c29 16.667 51.833 39.5 68.5 68.5s25 61.5 25 97.5s-8.33301 68.5 -25 97.5s-39.5 51.833 -68.5 68.5s-61.167 25 -96.5 25
c-34.667 0 -66.5 -8.33301 -95.5 -25s-51.833 -39.5 -68.5 -68.5s-25 -61.5 -25 -97.5s8.33301 -68.5 25 -97.5s39.5 -51.833 68.5 -68.5s60.833 -25 95.5 -25c35.333 0 67.5 8.33301 96.5 25zM338 592h-70v75h70v-75z" />
    <glyph glyph-name="uni0122" unicode="&#x122;" horiz-adv-x="792" 
d="M388 362l363.998 -0.00195312v-24c0 -61.333 -14.5 -118.666 -43.5 -171.999s-69.5 -96 -121.5 -128s-110.667 -48 -176 -48s-125.166 16 -179.499 48s-97.333 75.5 -129 130.5s-47.5 115.5 -47.5 181.5s15.833 126.5 47.5 181.5s74.667 98.5 129 130.5
s114.166 48 179.499 48c74 0 140 -20.5 198 -61.5s100.667 -95.5 128 -163.5h-64c-24 50.667 -58.833 91.334 -104.5 122.001s-98.167 46 -157.5 46c-54 0 -103.5 -13.333 -148.5 -40s-80.5 -63.167 -106.5 -109.5s-39 -97.5 -39 -153.5s13 -107.167 39 -153.5
s61.5 -82.833 106.5 -109.5s94.5 -40 148.5 -40c48 0 92.333 10.5 133 31.5s73.834 51 99.501 90s40.834 84.5 45.501 136.5h-301v57zM376.998 -240.002h-53l43 155h66z" />
    <glyph glyph-name="uni0123" unicode="&#x123;" horiz-adv-x="609" 
d="M475 490h57v-460c0 -46.667 -10.167 -88.167 -30.5 -124.5s-49 -64.666 -86 -84.999s-79.167 -30.5 -126.5 -30.5c-57.333 0 -106.833 15.167 -148.5 45.5s-69.834 71.833 -84.501 124.5h58c12 -32.667 32.833 -60.167 62.5 -82.5s67.167 -33.5 112.5 -33.5
c56.667 0 101.834 17.167 135.501 51.5s50.5 79.166 50.5 134.499v82c-21.333 -31.333 -48.5 -56.166 -81.5 -74.499s-69.167 -27.5 -108.5 -27.5c-44.667 0 -85.834 10.667 -123.501 32s-67.334 50.666 -89.001 87.999s-32.5 79 -32.5 125s10.833 87.667 32.5 125
s51.334 66.666 89.001 87.999s78.834 32 123.501 32c39.333 0 75.5 -9.16699 108.5 -27.5s60.167 -43.166 81.5 -74.499v92zM384.5 89c29 16.667 51.833 39.5 68.5 68.5s25 61.5 25 97.5s-8.33301 68.5 -25 97.5s-39.5 51.833 -68.5 68.5s-61.167 25 -96.5 25
c-34.667 0 -66.5 -8.33301 -95.5 -25s-51.833 -39.5 -68.5 -68.5s-25 -61.5 -25 -97.5s8.33301 -68.5 25 -97.5s39.5 -51.833 68.5 -68.5s60.833 -25 95.5 -25c35.333 0 67.5 8.33301 96.5 25zM338 564h-65l69 155h52z" />
    <glyph glyph-name="Hcircumflex" unicode="&#x124;" horiz-adv-x="712" 
d="M555 392v308h60v-700h-60v335h-398v-335h-60v700h60v-308h398zM280 769h-65l115 122h52l115 -122h-65l-76 82z" />
    <glyph glyph-name="hcircumflex" unicode="&#x125;" horiz-adv-x="570" 
d="M405.5 472.5c29.667 -18.333 52.502 -43.5 68.502 -75.5s24 -68 24 -108v-289h-57v285c0 47.333 -12.5 86 -37.5 116s-61.5 45 -109.5 45c-28.667 0 -54.834 -7 -78.501 -21s-42.334 -32.833 -56.001 -56.5s-20.5 -49.5 -20.5 -77.5v-291h-57v720h57v-306
c18 26.667 41.333 47.667 70 63s59.667 23 93 23c39.333 0 73.833 -9.16699 103.5 -27.5zM214.002 794h-65l115 122h52l115 -122h-65l-76 82z" />
    <glyph glyph-name="Hbar" unicode="&#x126;" horiz-adv-x="722" 
d="M620 577h92v-54h-92v-523h-60v335h-398v-335h-60v523h-92v54h92v123h60v-123h398v123h60v-123zM162 523v-131h398v131h-398z" />
    <glyph glyph-name="hbar" unicode="&#x127;" horiz-adv-x="572" 
d="M407.5 442.5c29.667 -18.333 52.502 -43.5 68.502 -75.5s24 -68 24 -108v-259h-57v255c0 47.333 -12.5 86 -37.5 116s-61.5 45 -109.5 45c-28.667 0 -54.834 -7 -78.501 -21s-42.334 -32.833 -56.001 -56.5s-20.5 -49.5 -20.5 -77.5v-261h-57v571h-75v51h75v98h57v-98
h169v-51h-169v-187c18 26.667 41.333 47.667 70 63s59.667 23 93 23c39.333 0 73.833 -9.16699 103.5 -27.5z" />
    <glyph glyph-name="Imacron" unicode="&#x12a;" horiz-adv-x="264" 
d="M162 0h-60v700h60v-700zM264 804h-264v52h264v-52z" />
    <glyph glyph-name="imacron" unicode="&#x12b;" horiz-adv-x="211" 
d="M134 0h-57v490h57v-490zM238 600h-264v51h264v-51z" />
    <glyph glyph-name="Ibreve" unicode="&#x12c;" horiz-adv-x="264" 
d="M162 0h-60v700h60v-700zM33 796c-25.333 23.333 -39.335 54 -42.002 92h52c2.66699 -26 11.834 -45.5 27.501 -58.5s36.167 -19.5 61.5 -19.5s45.833 6.5 61.5 19.5s24.834 32.5 27.501 58.5h52c-2.66699 -38 -16.667 -68.667 -42 -92s-58.333 -35 -99 -35
s-73.667 11.667 -99 35z" />
    <glyph glyph-name="ibreve" unicode="&#x12d;" horiz-adv-x="211" 
d="M134 0h-57v490h57v-490zM9 591c-25.333 23.333 -39.3369 54 -42.0039 92h52c2.66699 -25.333 11.834 -44.666 27.501 -57.999s35.5 -20 59.5 -20s43.833 6.66699 59.5 20s24.834 32.666 27.501 57.999h52c-2.66699 -38 -16.667 -68.667 -42 -92s-57.666 -35 -96.999 -35
s-71.666 11.667 -96.999 35z" />
    <glyph glyph-name="Iogonek" unicode="&#x12e;" horiz-adv-x="264" 
d="M163 -147v-46h-26c-30.667 0 -56 8.66699 -76 26s-30 41.333 -30 72c0 23.333 6.66699 43.5 20 60.5s30.333 31.167 51 42.5v692h60v-700c-24.667 -7.33301 -44.667 -19 -60 -35s-23 -34.333 -23 -55c0 -18 5.66699 -32 17 -42s28.333 -15 51 -15h16z" />
    <glyph glyph-name="iogonek" unicode="&#x12f;" horiz-adv-x="211" 
d="M70 592v75h70v-75h-70zM68 -132c11.333 -10 28.333 -15 51 -15h16v-46h-26c-30.667 0 -56 8.66699 -76 26s-30 41.333 -30 72c0 24 7 44.667 21 62s31.667 31.333 53 42v481h57v-490c-24.667 -7.33301 -44.667 -19 -60 -35s-23 -34.333 -23 -55c0 -18 5.66699 -32 17 -42
z" />
    <glyph glyph-name="Idotaccent" unicode="&#x130;" horiz-adv-x="264" 
d="M162 0h-60v700h60v-700zM166 797h-70v75h70v-75z" />
    <glyph glyph-name="dotlessi" unicode="&#x131;" horiz-adv-x="211" 
d="M134 0h-57v490h57v-490z" />
    <glyph glyph-name="IJ" unicode="&#x132;" horiz-adv-x="762" 
d="M162 0h-60v700h60v-700zM369 17.5c-30.667 18.333 -54.333 43.001 -71 74.001s-25 64.167 -25 99.5h60c0 -40.667 13.167 -74.834 39.5 -102.501s60.5 -41.5 102.5 -41.5c41.333 0 75 14 101 42s39 66 39 114v497h60v-497c0 -42 -8.66699 -79.167 -26 -111.5
s-41.333 -57.333 -72 -75s-64.667 -26.5 -102 -26.5c-40 0 -75.333 9.16699 -106 27.5z" />
    <glyph glyph-name="ij" unicode="&#x133;" horiz-adv-x="422" 
d="M134 0h-57v490h57v-490zM140 592h-70v75h70v-75zM163 -200v54h46c24.667 0 44 7.16699 58 21.5s21 34.5 21 60.5v554h57v-557c0 -40 -12 -72.167 -36 -96.5s-56.333 -36.5 -97 -36.5h-49zM351 592h-70v75h70v-75z" />
    <glyph glyph-name="Jcircumflex" unicode="&#x134;" horiz-adv-x="498" 
d="M105 17.5c-30.667 18.333 -54.333 43.001 -71 74.001s-25 64.167 -25 99.5h60c0 -40.667 13.167 -74.834 39.5 -102.501s60.5 -41.5 102.5 -41.5c41.333 0 75 14 101 42s39 66 39 114v497h60v-497c0 -42 -8.66699 -79.167 -26 -111.5s-41.333 -57.333 -72 -75
s-64.667 -26.5 -102 -26.5c-40 0 -75.333 9.16699 -106 27.5zM305.001 769.001h-65l115 122h52l115 -122h-65l-76 82z" />
    <glyph glyph-name="jcircumflex" unicode="&#x135;" horiz-adv-x="211" 
d="M-48 -200v54h46c24.667 0 44 7.16699 58 21.5s21 34.5 21 60.5v554h57v-557c0 -40 -12 -72.167 -36 -96.5s-56.333 -36.5 -97 -36.5h-49zM29 564h-65l115 122h52l115 -122h-65l-76 82z" />
    <glyph glyph-name="uni0136" unicode="&#x136;" horiz-adv-x="574" 
d="M219 360l348 -360h-82l-328 340v-340h-60v700h60v-326l311 326h76zM279 -240h-53l43 155h66z" />
    <glyph glyph-name="uni0137" unicode="&#x137;" horiz-adv-x="465" 
d="M199 252l259 -252h-78l-241 236v-236h-57v720h57v-456l230 226h74zM223 -240h-53l43 155h66z" />
    <glyph glyph-name="Lacute" unicode="&#x139;" horiz-adv-x="480" 
d="M445 0h-348v700h60v-643h288v-57zM143 769h-58l83 127h66z" />
    <glyph glyph-name="lacute" unicode="&#x13a;" horiz-adv-x="221" 
d="M139 0h-57v720h57v-720zM127 794h-58l83 127h66z" />
    <glyph glyph-name="uni013B" unicode="&#x13b;" horiz-adv-x="480" 
d="M445 0h-348v700h60v-643h288v-57zM246 -240h-53l43 155h66z" />
    <glyph glyph-name="uni013C" unicode="&#x13c;" horiz-adv-x="221" 
d="M139 0h-57v720h57v-720zM87 -240h-53l43 155h66z" />
    <glyph glyph-name="Lcaron" unicode="&#x13d;" horiz-adv-x="480" 
d="M445 0h-348v700h60v-643h288v-57zM274 540h-48l20 160h60z" />
    <glyph glyph-name="lcaron" unicode="&#x13e;" horiz-adv-x="221" 
d="M139 0h-57v720h57v-720zM256 560h-48l20 160h60z" />
    <glyph glyph-name="Ldot" unicode="&#x13f;" horiz-adv-x="480" 
d="M445 0h-348v700h60v-643h288v-57zM402 336h-69v76h69v-76z" />
    <glyph glyph-name="ldot" unicode="&#x140;" horiz-adv-x="273" 
d="M139 0h-57v720h57v-720zM281 329h-69v76h69v-76z" />
    <glyph glyph-name="Lslash" unicode="&#x141;" horiz-adv-x="489" 
d="M166 327v-270h288v-57h-348v302l-96 -41v60l96 41v338h60v-313l204 87v-60z" />
    <glyph glyph-name="lslash" unicode="&#x142;" horiz-adv-x="265" 
d="M161 409l102 53v-61l-102 -53v-348h-57v319l-102 -53v61l102 53v340h57v-311z" />
    <glyph glyph-name="Nacute" unicode="&#x143;" horiz-adv-x="780" 
d="M624 110v590h59v-700h-39l-488 590v-590h-59v700h39zM406 769h-58l83 127h66z" />
    <glyph glyph-name="nacute" unicode="&#x144;" horiz-adv-x="565" 
d="M400.5 472.5c29.667 -18.333 52.502 -43.5 68.502 -75.5s24 -68 24 -108v-289h-57v285c0 47.333 -12.5 86 -37.5 116s-61.5 45 -109.5 45c-28.667 0 -54.834 -7 -78.501 -21s-42.334 -32.833 -56.001 -56.5s-20.5 -49.5 -20.5 -77.5v-291h-57v490h57v-76
c18 26.667 41.333 47.667 70 63s59.667 23 93 23c39.333 0 73.833 -9.16699 103.5 -27.5zM301.002 564h-58l83 127h66z" />
    <glyph glyph-name="uni0145" unicode="&#x145;" horiz-adv-x="780" 
d="M624 110v590h59v-700h-39l-488 590v-590h-59v700h39zM366 -240h-53l43 155h66z" />
    <glyph glyph-name="uni0146" unicode="&#x146;" horiz-adv-x="565" 
d="M400.5 472.5c29.667 -18.333 52.502 -43.5 68.502 -75.5s24 -68 24 -108v-289h-57v285c0 47.333 -12.5 86 -37.5 116s-61.5 45 -109.5 45c-28.667 0 -54.834 -7 -78.501 -21s-42.334 -32.833 -56.001 -56.5s-20.5 -49.5 -20.5 -77.5v-291h-57v490h57v-76
c18 26.667 41.333 47.667 70 63s59.667 23 93 23c39.333 0 73.833 -9.16699 103.5 -27.5zM261.002 -240h-53l43 155h66z" />
    <glyph glyph-name="Ncaron" unicode="&#x147;" horiz-adv-x="780" 
d="M624 110v590h59v-700h-39l-488 590v-590h-59v700h39zM416 769h-52l-115 122h65l76 -82l77 82h64z" />
    <glyph glyph-name="ncaron" unicode="&#x148;" horiz-adv-x="565" 
d="M400.5 472.5c29.667 -18.333 52.502 -43.5 68.502 -75.5s24 -68 24 -108v-289h-57v285c0 47.333 -12.5 86 -37.5 116s-61.5 45 -109.5 45c-28.667 0 -54.834 -7 -78.501 -21s-42.334 -32.833 -56.001 -56.5s-20.5 -49.5 -20.5 -77.5v-291h-57v490h57v-76
c18 26.667 41.333 47.667 70 63s59.667 23 93 23c39.333 0 73.833 -9.16699 103.5 -27.5zM310.002 564h-52l-115 122h65l76 -82l77 82h64z" />
    <glyph glyph-name="Eng" unicode="&#x14a;" horiz-adv-x="780" 
d="M624 700h59v-767c0 -40 -12 -72.167 -36 -96.5s-56.333 -36.5 -97 -36.5h-49v54h44c25.333 0 44.833 7.16699 58.5 21.5s20.5 34.5 20.5 60.5v88l-468 566v-590h-59v700h39l488 -590v590z" />
    <glyph glyph-name="eng" unicode="&#x14b;" horiz-adv-x="565" 
d="M400.5 472.5c29.667 -18.333 52.502 -43.5 68.502 -75.5s24 -68 24 -108v-356c0 -40 -12 -72.167 -36 -96.5s-56.333 -36.5 -97 -36.5h-49v54h46c24.667 0 44 7.16699 58 21.5s21 34.5 21 60.5v349c0 47.333 -12.5 86 -37.5 116s-61.5 45 -109.5 45
c-28.667 0 -54.834 -7 -78.501 -21s-42.334 -32.833 -56.001 -56.5s-20.5 -49.5 -20.5 -77.5v-291h-57v490h57v-76c18 26.667 41.333 47.667 70 63s59.667 23 93 23c39.333 0 73.833 -9.16699 103.5 -27.5z" />
    <glyph glyph-name="Omacron" unicode="&#x14c;" horiz-adv-x="822" 
d="M231.5 38c-54.333 32 -97.333 75.5 -129 130.5s-47.5 115.5 -47.5 181.5s15.833 126.5 47.5 181.5s74.667 98.5 129 130.5s114.166 48 179.499 48s125.166 -16 179.499 -48s97.333 -75.5 129 -130.5s47.5 -115.5 47.5 -181.5s-15.833 -126.5 -47.5 -181.5
s-74.667 -98.5 -129 -130.5s-114.166 -48 -179.499 -48s-125.166 16 -179.499 48zM560 87c45.333 26.667 81 63.167 107 109.5s39 97.5 39 153.5s-13 107.167 -39 153.5s-61.667 82.833 -107 109.5s-95 40 -149 40s-103.5 -13.333 -148.5 -40s-80.5 -63.167 -106.5 -109.5
s-39 -97.5 -39 -153.5s13 -107.167 39 -153.5s61.5 -82.833 106.5 -109.5s94.5 -40 148.5 -40s103.667 13.333 149 40zM543 804h-264v52h264v-52z" />
    <glyph glyph-name="omacron" unicode="&#x14d;" horiz-adv-x="586" 
d="M165 23.5c-38.667 22.333 -69.167 53 -91.5 92s-33.5 82.167 -33.5 129.5s11.167 90.5 33.5 129.5s52.833 69.667 91.5 92s81.334 33.5 128.001 33.5c46 0 88.333 -11.167 127 -33.5s69.334 -53 92.001 -92s34 -82.167 34 -129.5s-11.333 -90.5 -34 -129.5
s-53.334 -69.667 -92.001 -92s-81 -33.5 -127 -33.5c-46.667 0 -89.334 11.167 -128.001 33.5zM390.5 70c29.667 17.333 53.167 41.333 70.5 72s26 65 26 103s-8.66699 72.333 -26 103s-40.833 54.667 -70.5 72s-62.167 26 -97.5 26s-67.833 -8.66699 -97.5 -26
s-53.167 -41.333 -70.5 -72s-26 -65 -26 -103s8.66699 -72.333 26 -103s40.833 -54.667 70.5 -72s62.167 -26 97.5 -26s67.833 8.66699 97.5 26zM425 600h-264v51h264v-51z" />
    <glyph glyph-name="Obreve" unicode="&#x14e;" horiz-adv-x="822" 
d="M231.5 38c-54.333 32 -97.333 75.5 -129 130.5s-47.5 115.5 -47.5 181.5s15.833 126.5 47.5 181.5s74.667 98.5 129 130.5s114.166 48 179.499 48s125.166 -16 179.499 -48s97.333 -75.5 129 -130.5s47.5 -115.5 47.5 -181.5s-15.833 -126.5 -47.5 -181.5
s-74.667 -98.5 -129 -130.5s-114.166 -48 -179.499 -48s-125.166 16 -179.499 48zM560 87c45.333 26.667 81 63.167 107 109.5s39 97.5 39 153.5s-13 107.167 -39 153.5s-61.667 82.833 -107 109.5s-95 40 -149 40s-103.5 -13.333 -148.5 -40s-80.5 -63.167 -106.5 -109.5
s-39 -97.5 -39 -153.5s13 -107.167 39 -153.5s61.5 -82.833 106.5 -109.5s94.5 -40 148.5 -40s103.667 13.333 149 40zM312 796c-25.333 23.333 -39.335 54 -42.002 92h52c2.66699 -26 11.834 -45.5 27.501 -58.5s36.167 -19.5 61.5 -19.5s45.833 6.5 61.5 19.5
s24.834 32.5 27.501 58.5h52c-2.66699 -38 -16.667 -68.667 -42 -92s-58.333 -35 -99 -35s-73.667 11.667 -99 35z" />
    <glyph glyph-name="obreve" unicode="&#x14f;" horiz-adv-x="586" 
d="M165 23.5c-38.667 22.333 -69.167 53 -91.5 92s-33.5 82.167 -33.5 129.5s11.167 90.5 33.5 129.5s52.833 69.667 91.5 92s81.334 33.5 128.001 33.5c46 0 88.333 -11.167 127 -33.5s69.334 -53 92.001 -92s34 -82.167 34 -129.5s-11.333 -90.5 -34 -129.5
s-53.334 -69.667 -92.001 -92s-81 -33.5 -127 -33.5c-46.667 0 -89.334 11.167 -128.001 33.5zM390.5 70c29.667 17.333 53.167 41.333 70.5 72s26 65 26 103s-8.66699 72.333 -26 103s-40.833 54.667 -70.5 72s-62.167 26 -97.5 26s-67.833 -8.66699 -97.5 -26
s-53.167 -41.333 -70.5 -72s-26 -65 -26 -103s8.66699 -72.333 26 -103s40.833 -54.667 70.5 -72s62.167 -26 97.5 -26s67.833 8.66699 97.5 26zM196 591c-25.333 23.333 -39.3369 54 -42.0039 92h52c2.66699 -25.333 11.834 -44.666 27.501 -57.999s35.5 -20 59.5 -20
s43.833 6.66699 59.5 20s24.834 32.666 27.501 57.999h52c-2.66699 -38 -16.667 -68.667 -42 -92s-57.666 -35 -96.999 -35s-71.666 11.667 -96.999 35z" />
    <glyph glyph-name="Ohungarumlaut" unicode="&#x150;" horiz-adv-x="822" 
d="M231.5 38c-54.333 32 -97.333 75.5 -129 130.5s-47.5 115.5 -47.5 181.5s15.833 126.5 47.5 181.5s74.667 98.5 129 130.5s114.166 48 179.499 48s125.166 -16 179.499 -48s97.333 -75.5 129 -130.5s47.5 -115.5 47.5 -181.5s-15.833 -126.5 -47.5 -181.5
s-74.667 -98.5 -129 -130.5s-114.166 -48 -179.499 -48s-125.166 16 -179.499 48zM560 87c45.333 26.667 81 63.167 107 109.5s39 97.5 39 153.5s-13 107.167 -39 153.5s-61.667 82.833 -107 109.5s-95 40 -149 40s-103.5 -13.333 -148.5 -40s-80.5 -63.167 -106.5 -109.5
s-39 -97.5 -39 -153.5s13 -107.167 39 -153.5s61.5 -82.833 106.5 -109.5s94.5 -40 148.5 -40s103.667 13.333 149 40zM370 769h-58l83 127h67zM499 769h-58l86 127h66z" />
    <glyph glyph-name="ohungarumlaut" unicode="&#x151;" horiz-adv-x="586" 
d="M165 23.5c-38.667 22.333 -69.167 53 -91.5 92s-33.5 82.167 -33.5 129.5s11.167 90.5 33.5 129.5s52.833 69.667 91.5 92s81.334 33.5 128.001 33.5c46 0 88.333 -11.167 127 -33.5s69.334 -53 92.001 -92s34 -82.167 34 -129.5s-11.333 -90.5 -34 -129.5
s-53.334 -69.667 -92.001 -92s-81 -33.5 -127 -33.5c-46.667 0 -89.334 11.167 -128.001 33.5zM390.5 70c29.667 17.333 53.167 41.333 70.5 72s26 65 26 103s-8.66699 72.333 -26 103s-40.833 54.667 -70.5 72s-62.167 26 -97.5 26s-67.833 -8.66699 -97.5 -26
s-53.167 -41.333 -70.5 -72s-26 -65 -26 -103s8.66699 -72.333 26 -103s40.833 -54.667 70.5 -72s62.167 -26 97.5 -26s67.833 8.66699 97.5 26zM250 564h-58l83 127h67zM379 564h-58l86 127h66z" />
    <glyph glyph-name="OE" unicode="&#x152;" horiz-adv-x="1103" 
d="M726 57l308 -0.00195312v-57h-368v149c-29.333 -49.333 -67.666 -88.166 -114.999 -116.499s-100.666 -42.5 -159.999 -42.5c-62 0 -118.667 16 -170 48s-91.833 75.5 -121.5 130.5s-44.5 115.5 -44.5 181.5s14.833 126.5 44.5 181.5s70.167 98.5 121.5 130.5
s108 48 170 48c59.333 0 112.666 -14.167 159.999 -42.5s85.666 -67.166 114.999 -116.499v149h358v-57h-298v-251h288v-57h-288v-278zM530 86.998c42 26.667 75.167 63 99.5 109s36.5 97.333 36.5 154s-12.167 108 -36.5 154s-57.5 82.333 -99.5 109s-88.333 40 -139 40
s-96.834 -13.333 -138.501 -40s-74.667 -63 -99 -109s-36.5 -97.333 -36.5 -154s12.167 -108 36.5 -154s57.333 -82.333 99 -109s87.834 -40 138.501 -40s97 13.333 139 40z" />
    <glyph glyph-name="oe" unicode="&#x153;" horiz-adv-x="962" 
d="M809.5 469c35 -20.667 62.998 -49.666 83.998 -86.999s31.5 -79.666 31.5 -126.999c0 -12.667 -0.333008 -22.334 -1 -29.001h-403c3.33301 -54.667 21.166 -98.667 53.499 -132s72.5 -50 120.5 -50c36 0 67.333 9.16699 94 27.5s47.334 42.833 62.001 73.5h61
c-18 -46.667 -45.667 -84.167 -83 -112.5s-81.666 -42.5 -132.999 -42.5c-46.667 0 -88 12.167 -124 36.5s-63.333 56.833 -82 97.5c-19.333 -40.667 -47.5 -73.167 -84.5 -97.5s-78.833 -36.5 -125.5 -36.5c-42.667 0 -82.334 10.833 -119.001 32.5s-66 52 -88 91
s-33 82.833 -33 131.5s11 92.5 33 131.5s51.333 69.333 88 91s76.334 32.5 119.001 32.5c46.667 0 88.667 -12.333 126 -37s65.333 -57.334 84 -98.001c18.667 40 46.334 72.5 83.001 97.5s78 37.5 124 37.5c40 0 77.5 -10.333 112.5 -31zM369.498 69.001
c27.667 16.667 49.834 40.334 66.501 71.001s25 65.667 25 105s-8.33301 74.333 -25 105s-38.834 54.334 -66.501 71.001s-57.5 25 -89.5 25s-61.833 -8.33301 -89.5 -25s-49.834 -40.334 -66.501 -71.001s-25 -65.667 -25 -105s8.33301 -74.333 25 -105
s38.834 -54.334 66.501 -71.001s57.5 -25 89.5 -25s61.833 8.33301 89.5 25zM579.998 400.501c-32 -30.333 -51.333 -70.832 -58 -121.499h344c-2.66699 33.333 -12.167 62.666 -28.5 87.999s-37 44.833 -62 58.5s-51.833 20.5 -80.5 20.5c-44.667 0 -83 -15.167 -115 -45.5
z" />
    <glyph glyph-name="Racute" unicode="&#x154;" horiz-adv-x="594" 
d="M507 0l-257.001 308h-93v-308h-60v700h194c43.333 0 81.833 -8.5 115.5 -25.5s59.667 -40.333 78 -70s27.5 -63.167 27.5 -100.5c0 -52 -17.167 -95.833 -51.5 -131.5s-80.166 -56.5 -137.499 -62.5l260 -310h-76zM156.999 643v-278h134c49.333 0 88.166 13 116.499 39
s42.5 59.333 42.5 100s-14.167 74 -42.5 100s-67.166 39 -116.499 39h-134zM306.999 769h-58l83 127h66z" />
    <glyph glyph-name="racute" unicode="&#x155;" horiz-adv-x="345" 
d="M331 495v-54h-48c-26.667 0 -51.5 -7 -74.5 -21s-41.167 -32.833 -54.5 -56.5s-20 -49.5 -20 -77.5v-286h-57v490h57v-80c17.333 26.667 39.833 47.5 67.5 62.5s57.5 22.5 89.5 22.5h40zM229 564h-58l83 127h66z" />
    <glyph glyph-name="uni0156" unicode="&#x156;" horiz-adv-x="594" 
d="M507 0l-257.001 308h-93v-308h-60v700h194c43.333 0 81.833 -8.5 115.5 -25.5s59.667 -40.333 78 -70s27.5 -63.167 27.5 -100.5c0 -52 -17.167 -95.833 -51.5 -131.5s-80.166 -56.5 -137.499 -62.5l260 -310h-76zM156.999 643v-278h134c49.333 0 88.166 13 116.499 39
s42.5 59.333 42.5 100s-14.167 74 -42.5 100s-67.166 39 -116.499 39h-134zM290.999 -240h-53l43 155h66z" />
    <glyph glyph-name="uni0157" unicode="&#x157;" horiz-adv-x="345" 
d="M331 495v-54h-48c-26.667 0 -51.5 -7 -74.5 -21s-41.167 -32.833 -54.5 -56.5s-20 -49.5 -20 -77.5v-286h-57v490h57v-80c17.333 26.667 39.833 47.5 67.5 62.5s57.5 22.5 89.5 22.5h40zM81 -240h-53l43 155h66z" />
    <glyph glyph-name="Rcaron" unicode="&#x158;" horiz-adv-x="594" 
d="M507 0l-257.001 308h-93v-308h-60v700h194c43.333 0 81.833 -8.5 115.5 -25.5s59.667 -40.333 78 -70s27.5 -63.167 27.5 -100.5c0 -52 -17.167 -95.833 -51.5 -131.5s-80.166 -56.5 -137.499 -62.5l260 -310h-76zM156.999 643v-278h134c49.333 0 88.166 13 116.499 39
s42.5 59.333 42.5 100s-14.167 74 -42.5 100s-67.166 39 -116.499 39h-134zM316.999 769h-52l-115 122h65l76 -82l77 82h64z" />
    <glyph glyph-name="rcaron" unicode="&#x159;" horiz-adv-x="345" 
d="M331 495v-54h-48c-26.667 0 -51.5 -7 -74.5 -21s-41.167 -32.833 -54.5 -56.5s-20 -49.5 -20 -77.5v-286h-57v490h57v-80c17.333 26.667 39.833 47.5 67.5 62.5s57.5 22.5 89.5 22.5h40zM238 564h-52l-115 122h65l76 -82l77 82h64z" />
    <glyph glyph-name="Sacute" unicode="&#x15a;" horiz-adv-x="562" 
d="M165 17c-34.667 18 -61.498 43 -80.498 75s-29.167 68 -30.5 108h60c1.33301 -43.333 17 -79.666 47 -108.999s72 -44 126 -44c49.333 0 88.166 12.333 116.499 37s42.5 55.334 42.5 92.001c0 30.667 -7.66699 55.667 -23 75s-34.5 34.333 -57.5 45s-53.833 22 -92.5 34
c-44 14 -79.333 27.667 -106 41s-49.167 32.666 -67.5 57.999s-27.5 58.666 -27.5 99.999c0 34.667 9.16699 65.667 27.5 93s43.833 48.833 76.5 64.5s69 23.5 109 23.5c38 0 73 -8.66699 105 -26s57.5 -40.833 76.5 -70.5s28.833 -62.5 29.5 -98.5h-60
c-1.33301 24.667 -8.33301 47.5 -21 68.5s-30.5 37.833 -53.5 50.5s-49.5 19 -79.5 19c-44 0 -79.667 -11.333 -107 -34s-41 -52.667 -41 -90c0 -28.667 7.5 -52 22.5 -70s33.5 -32.167 55.5 -42.5s52 -21.5 90 -33.5c44.667 -14.667 80.667 -28.834 108 -42.501
s50.5 -33.667 69.5 -60s28.5 -61.166 28.5 -104.499c0 -36 -9.66699 -68.167 -29 -96.5s-45.833 -50.333 -79.5 -66s-71.167 -23.5 -112.5 -23.5c-46.667 0 -87.334 9 -122.001 27zM302.002 769h-58l83 127h66z" />
    <glyph glyph-name="sacute" unicode="&#x15b;" horiz-adv-x="485" 
d="M149.5 10c-28.333 13.333 -50.668 31.833 -67.001 55.5s-25.166 50.167 -26.499 79.5h57c2 -30 15 -54.333 39 -73s56 -28 96 -28c36 0 64.833 7.66699 86.5 23s32.5 36 32.5 62c0 20.667 -5.83301 37.167 -17.5 49.5s-26.334 21.5 -44.001 27.5s-41.5 12.333 -71.5 19
c-35.333 8 -63.833 16.167 -85.5 24.5s-40.167 21.666 -55.5 39.999s-23 43.166 -23 74.499c0 25.333 7.5 48.5 22.5 69.5s35.667 37.333 62 49s55.166 17.5 86.499 17.5s60 -6.5 86 -19.5s46.833 -31 62.5 -54s23.834 -48.5 24.501 -76.5h-57
c-1.33301 26.667 -12.833 49.334 -34.5 68.001s-49.5 28 -83.5 28c-30.667 0 -56.667 -7.33301 -78 -22s-32 -34.667 -32 -60c0 -19.333 5.66699 -34.666 17 -45.999s25.166 -19.833 41.499 -25.5s39.5 -12.167 69.5 -19.5c36 -8 65.333 -16.333 88 -25
s41.834 -22.5 57.501 -41.5s23.5 -44.833 23.5 -77.5c0 -42.667 -17.167 -76.5 -51.5 -101.5s-77.166 -37.5 -128.499 -37.5c-36 0 -68.167 6.66699 -96.5 20zM262.998 564h-58l83 127h66z" />
    <glyph glyph-name="Scircumflex" unicode="&#x15c;" horiz-adv-x="562" 
d="M165 17c-34.667 18 -61.498 43 -80.498 75s-29.167 68 -30.5 108h60c1.33301 -43.333 17 -79.666 47 -108.999s72 -44 126 -44c49.333 0 88.166 12.333 116.499 37s42.5 55.334 42.5 92.001c0 30.667 -7.66699 55.667 -23 75s-34.5 34.333 -57.5 45s-53.833 22 -92.5 34
c-44 14 -79.333 27.667 -106 41s-49.167 32.666 -67.5 57.999s-27.5 58.666 -27.5 99.999c0 34.667 9.16699 65.667 27.5 93s43.833 48.833 76.5 64.5s69 23.5 109 23.5c38 0 73 -8.66699 105 -26s57.5 -40.833 76.5 -70.5s28.833 -62.5 29.5 -98.5h-60
c-1.33301 24.667 -8.33301 47.5 -21 68.5s-30.5 37.833 -53.5 50.5s-49.5 19 -79.5 19c-44 0 -79.667 -11.333 -107 -34s-41 -52.667 -41 -90c0 -28.667 7.5 -52 22.5 -70s33.5 -32.167 55.5 -42.5s52 -21.5 90 -33.5c44.667 -14.667 80.667 -28.834 108 -42.501
s50.5 -33.667 69.5 -60s28.5 -61.166 28.5 -104.499c0 -36 -9.66699 -68.167 -29 -96.5s-45.833 -50.333 -79.5 -66s-71.167 -23.5 -112.5 -23.5c-46.667 0 -87.334 9 -122.001 27zM209.002 769h-65l115 122h52l115 -122h-65l-76 82z" />
    <glyph glyph-name="scircumflex" unicode="&#x15d;" horiz-adv-x="485" 
d="M149.5 10c-28.333 13.333 -50.668 31.833 -67.001 55.5s-25.166 50.167 -26.499 79.5h57c2 -30 15 -54.333 39 -73s56 -28 96 -28c36 0 64.833 7.66699 86.5 23s32.5 36 32.5 62c0 20.667 -5.83301 37.167 -17.5 49.5s-26.334 21.5 -44.001 27.5s-41.5 12.333 -71.5 19
c-35.333 8 -63.833 16.167 -85.5 24.5s-40.167 21.666 -55.5 39.999s-23 43.166 -23 74.499c0 25.333 7.5 48.5 22.5 69.5s35.667 37.333 62 49s55.166 17.5 86.499 17.5s60 -6.5 86 -19.5s46.833 -31 62.5 -54s23.834 -48.5 24.501 -76.5h-57
c-1.33301 26.667 -12.833 49.334 -34.5 68.001s-49.5 28 -83.5 28c-30.667 0 -56.667 -7.33301 -78 -22s-32 -34.667 -32 -60c0 -19.333 5.66699 -34.666 17 -45.999s25.166 -19.833 41.499 -25.5s39.5 -12.167 69.5 -19.5c36 -8 65.333 -16.333 88 -25
s41.834 -22.5 57.501 -41.5s23.5 -44.833 23.5 -77.5c0 -42.667 -17.167 -76.5 -51.5 -101.5s-77.166 -37.5 -128.499 -37.5c-36 0 -68.167 6.66699 -96.5 20zM170.998 564h-65l115 122h52l115 -122h-65l-76 82z" />
    <glyph glyph-name="Scedilla" unicode="&#x15e;" horiz-adv-x="562" 
d="M481 83c-18 -27.333 -42.668 -49.165 -74.001 -65.498s-66.333 -25.5 -105 -27.5l-15 -30c24.667 -0.666992 44.334 -7.83398 59.001 -21.501s22 -31.167 22 -52.5c0 -26.667 -8.5 -46.5 -25.5 -59.5s-37.5 -19.5 -61.5 -19.5h-53v40h47c14.667 0 26 3.66699 34 11
s12 16.666 12 27.999c0 10.667 -4 19.667 -12 27s-19.333 11 -34 11h-34v29l17 38c-62 6 -111.167 28 -147.5 66s-55.166 85.667 -56.499 143h60c1.33301 -43.333 17 -79.666 47 -108.999s72 -44 126 -44c49.333 0 88.166 12.333 116.499 37s42.5 55.334 42.5 92.001
c0 30.667 -7.66699 55.667 -23 75s-34.5 34.333 -57.5 45s-53.833 22 -92.5 34c-44 14 -79.333 27.667 -106 41s-49.167 32.666 -67.5 57.999s-27.5 58.666 -27.5 99.999c0 34.667 9.16699 65.667 27.5 93s43.833 48.833 76.5 64.5s69 23.5 109 23.5
c38 0 73 -8.66699 105 -26s57.5 -40.833 76.5 -70.5s28.833 -62.5 29.5 -98.5h-60c-1.33301 24.667 -8.33301 47.5 -21 68.5s-30.5 37.833 -53.5 50.5s-49.5 19 -79.5 19c-44 0 -79.667 -11.333 -107 -34s-41 -52.667 -41 -90c0 -28.667 7.5 -52 22.5 -70
s33.5 -32.167 55.5 -42.5s52 -21.5 90 -33.5c44.667 -14.667 80.667 -28.834 108 -42.501s50.5 -33.667 69.5 -60s28.5 -61.166 28.5 -104.499c0 -34.667 -9 -65.667 -27 -93z" />
    <glyph glyph-name="scedilla" unicode="&#x15f;" horiz-adv-x="485" 
d="M380.5 33c-30.333 -24.667 -68.833 -38.6641 -115.5 -41.9971l-15 -31c24.667 -0.666992 44.334 -7.83398 59.001 -21.501s22 -31.167 22 -52.5c0 -26.667 -8.5 -46.5 -25.5 -59.5s-37.5 -19.5 -61.5 -19.5h-53v40h47c14.667 0 26 3.66699 34 11s12 16.666 12 27.999
c0 10.667 -4 19.667 -12 27s-19.333 11 -34 11h-34v29l17 38c-48 4.66699 -87 21.167 -117 49.5s-46 63.166 -48 104.499h57c2 -30 15 -54.333 39 -73s56 -28 96 -28c36 0 64.833 7.66699 86.5 23s32.5 36 32.5 62c0 20.667 -5.83301 37.167 -17.5 49.5
s-26.334 21.5 -44.001 27.5s-41.5 12.333 -71.5 19c-35.333 8 -63.833 16.167 -85.5 24.5s-40.167 21.666 -55.5 39.999s-23 43.166 -23 74.499c0 25.333 7.5 48.5 22.5 69.5s35.667 37.333 62 49s55.166 17.5 86.499 17.5s60 -6.5 86 -19.5s46.833 -31 62.5 -54
s23.834 -48.5 24.501 -76.5h-57c-1.33301 26.667 -12.833 49.334 -34.5 68.001s-49.5 28 -83.5 28c-30.667 0 -56.667 -7.33301 -78 -22s-32 -34.667 -32 -60c0 -19.333 5.66699 -34.666 17 -45.999s25.166 -19.833 41.499 -25.5s39.5 -12.167 69.5 -19.5
c36 -8 65.333 -16.333 88 -25s41.834 -22.5 57.501 -41.5s23.5 -44.833 23.5 -77.5c0 -39.333 -15.167 -71.333 -45.5 -96z" />
    <glyph glyph-name="Scaron" unicode="&#x160;" horiz-adv-x="562" 
d="M165 17c-34.667 18 -61.498 43 -80.498 75s-29.167 68 -30.5 108h60c1.33301 -43.333 17 -79.666 47 -108.999s72 -44 126 -44c49.333 0 88.166 12.333 116.499 37s42.5 55.334 42.5 92.001c0 30.667 -7.66699 55.667 -23 75s-34.5 34.333 -57.5 45s-53.833 22 -92.5 34
c-44 14 -79.333 27.667 -106 41s-49.167 32.666 -67.5 57.999s-27.5 58.666 -27.5 99.999c0 34.667 9.16699 65.667 27.5 93s43.833 48.833 76.5 64.5s69 23.5 109 23.5c38 0 73 -8.66699 105 -26s57.5 -40.833 76.5 -70.5s28.833 -62.5 29.5 -98.5h-60
c-1.33301 24.667 -8.33301 47.5 -21 68.5s-30.5 37.833 -53.5 50.5s-49.5 19 -79.5 19c-44 0 -79.667 -11.333 -107 -34s-41 -52.667 -41 -90c0 -28.667 7.5 -52 22.5 -70s33.5 -32.167 55.5 -42.5s52 -21.5 90 -33.5c44.667 -14.667 80.667 -28.834 108 -42.501
s50.5 -33.667 69.5 -60s28.5 -61.166 28.5 -104.499c0 -36 -9.66699 -68.167 -29 -96.5s-45.833 -50.333 -79.5 -66s-71.167 -23.5 -112.5 -23.5c-46.667 0 -87.334 9 -122.001 27zM311.002 769h-52l-115 122h65l76 -82l77 82h64z" />
    <glyph glyph-name="scaron" unicode="&#x161;" horiz-adv-x="485" 
d="M149.5 10c-28.333 13.333 -50.668 31.833 -67.001 55.5s-25.166 50.167 -26.499 79.5h57c2 -30 15 -54.333 39 -73s56 -28 96 -28c36 0 64.833 7.66699 86.5 23s32.5 36 32.5 62c0 20.667 -5.83301 37.167 -17.5 49.5s-26.334 21.5 -44.001 27.5s-41.5 12.333 -71.5 19
c-35.333 8 -63.833 16.167 -85.5 24.5s-40.167 21.666 -55.5 39.999s-23 43.166 -23 74.499c0 25.333 7.5 48.5 22.5 69.5s35.667 37.333 62 49s55.166 17.5 86.499 17.5s60 -6.5 86 -19.5s46.833 -31 62.5 -54s23.834 -48.5 24.501 -76.5h-57
c-1.33301 26.667 -12.833 49.334 -34.5 68.001s-49.5 28 -83.5 28c-30.667 0 -56.667 -7.33301 -78 -22s-32 -34.667 -32 -60c0 -19.333 5.66699 -34.666 17 -45.999s25.166 -19.833 41.499 -25.5s39.5 -12.167 69.5 -19.5c36 -8 65.333 -16.333 88 -25
s41.834 -22.5 57.501 -41.5s23.5 -44.833 23.5 -77.5c0 -42.667 -17.167 -76.5 -51.5 -101.5s-77.166 -37.5 -128.499 -37.5c-36 0 -68.167 6.66699 -96.5 20zM272.998 564h-52l-115 122h65l76 -82l77 82h64z" />
    <glyph glyph-name="uni0162" unicode="&#x162;" horiz-adv-x="482" 
d="M271 0l-9.00098 0.00195312l-19 -40c24.667 -0.666992 44.334 -7.83398 59.001 -21.501s22 -31.167 22 -52.5c0 -26.667 -8.5 -46.5 -25.5 -59.5s-37.5 -19.5 -61.5 -19.5h-53v40h47c14.667 0 26 3.66699 34 11s12 16.666 12 27.999c0 10.667 -4 19.667 -12 27
s-19.333 11 -34 11h-34v29l21 47h-7v643h-184v57h428v-57h-184v-643z" />
    <glyph glyph-name="uni0163" unicode="&#x163;" horiz-adv-x="336" 
d="M294 437l-125.001 0.00195312v-301c0 -26 7 -46.167 21 -60.5s33.333 -21.5 58 -21.5h46v-54h-49c-9.33301 0 -16 0.333008 -20 1l-20 -41c24.667 -0.666992 44.334 -7.83398 59.001 -21.501s22 -31.167 22 -52.5c0 -26.667 -8.5 -46.5 -25.5 -59.5
s-37.5 -19.5 -61.5 -19.5h-53v40h47c14.667 0 26 3.66699 34 11s12 16.666 12 27.999c0 10.667 -4 19.667 -12 27s-19.333 11 -34 11h-34v29l26 59c-23.333 10 -41.333 25.5 -54 46.5s-19 45.833 -19 74.5v304h-80v53h80v130h57v-130h125v-53z" />
    <glyph glyph-name="Tcaron" unicode="&#x164;" horiz-adv-x="482" 
d="M271 0h-60v643h-184v57h428v-57h-184v-643zM267 769h-52l-115 122h65l76 -82l77 82h64z" />
    <glyph glyph-name="tcaron" unicode="&#x165;" horiz-adv-x="336" 
d="M294 437h-125v-301c0 -26 7 -46.167 21 -60.5s33.333 -21.5 58 -21.5h46v-54h-49c-40.667 0 -73 12.167 -97 36.5s-36 56.5 -36 96.5v304h-80v53h80v130h57v-130h125v-53zM286 560h-48l20 160h60z" />
    <glyph glyph-name="Tbar" unicode="&#x166;" horiz-adv-x="482" 
d="M455 700v-57h-184v-273h157v-54h-157v-316h-60v316h-157v54h157v273h-184v57h428z" />
    <glyph glyph-name="tbar" unicode="&#x167;" horiz-adv-x="336" 
d="M294 437h-125v-124h115v-51h-115v-126c0 -26 7 -46.167 21 -60.5s33.333 -21.5 58 -21.5h46v-54h-49c-40.667 0 -73 12.167 -97 36.5s-36 56.5 -36 96.5v129h-70v51h70v124h-80v53h80v130h57v-130h125v-53z" />
    <glyph glyph-name="Umacron" unicode="&#x16a;" horiz-adv-x="683" 
d="M208.5 23c-38.333 22 -68.167 52.833 -89.5 92.5s-32 85.5 -32 137.5v447h60v-447c0 -62 17.5 -111.833 52.5 -149.5s82.167 -56.5 141.5 -56.5s106.666 18.833 141.999 56.5s53 87.5 53 149.5v447h60v-447c0 -52 -10.667 -97.833 -32 -137.5
s-51.166 -70.5 -89.499 -92.5s-82.833 -33 -133.5 -33c-50 0 -94.167 11 -132.5 33zM472.999 804h-264v52h264v-52z" />
    <glyph glyph-name="umacron" unicode="&#x16b;" horiz-adv-x="556" 
d="M169 17c-31.333 18 -55.335 43 -72.002 75s-25 68.333 -25 109v289h57v-285c0 -46.667 12.833 -85.167 38.5 -115.5s62.5 -45.5 110.5 -45.5s84.833 15.167 110.5 45.5s38.5 68.833 38.5 115.5v285h57v-289c0 -40.667 -8.33301 -77 -25 -109s-40.667 -57 -72 -75
s-67.666 -27 -108.999 -27s-77.666 9 -108.999 27zM409.998 600h-264v51h264v-51z" />
    <glyph glyph-name="Ubreve" unicode="&#x16c;" horiz-adv-x="683" 
d="M208.5 23c-38.333 22 -68.167 52.833 -89.5 92.5s-32 85.5 -32 137.5v447h60v-447c0 -62 17.5 -111.833 52.5 -149.5s82.167 -56.5 141.5 -56.5s106.666 18.833 141.999 56.5s53 87.5 53 149.5v447h60v-447c0 -52 -10.667 -97.833 -32 -137.5
s-51.166 -70.5 -89.499 -92.5s-82.833 -33 -133.5 -33c-50 0 -94.167 11 -132.5 33zM241.999 796c-25.333 23.333 -39.335 54 -42.002 92h52c2.66699 -26 11.834 -45.5 27.501 -58.5s36.167 -19.5 61.5 -19.5s45.833 6.5 61.5 19.5s24.834 32.5 27.501 58.5h52
c-2.66699 -38 -16.667 -68.667 -42 -92s-58.333 -35 -99 -35s-73.667 11.667 -99 35z" />
    <glyph glyph-name="ubreve" unicode="&#x16d;" horiz-adv-x="556" 
d="M169 17c-31.333 18 -55.335 43 -72.002 75s-25 68.333 -25 109v289h57v-285c0 -46.667 12.833 -85.167 38.5 -115.5s62.5 -45.5 110.5 -45.5s84.833 15.167 110.5 45.5s38.5 68.833 38.5 115.5v285h57v-289c0 -40.667 -8.33301 -77 -25 -109s-40.667 -57 -72 -75
s-67.666 -27 -108.999 -27s-77.666 9 -108.999 27zM180.998 591c-25.333 23.333 -39.3369 54 -42.0039 92h52c2.66699 -25.333 11.834 -44.666 27.501 -57.999s35.5 -20 59.5 -20s43.833 6.66699 59.5 20s24.834 32.666 27.501 57.999h52
c-2.66699 -38 -16.667 -68.667 -42 -92s-57.666 -35 -96.999 -35s-71.666 11.667 -96.999 35z" />
    <glyph glyph-name="Uring" unicode="&#x16e;" horiz-adv-x="683" 
d="M208.5 23c-38.333 22 -68.167 52.833 -89.5 92.5s-32 85.5 -32 137.5v447h60v-447c0 -62 17.5 -111.833 52.5 -149.5s82.167 -56.5 141.5 -56.5s106.666 18.833 141.999 56.5s53 87.5 53 149.5v447h60v-447c0 -52 -10.667 -97.833 -32 -137.5
s-51.166 -70.5 -89.499 -92.5s-82.833 -33 -133.5 -33c-50 0 -94.167 11 -132.5 33zM274.999 777.5c-17.333 17 -26 38.167 -26 63.5s8.66699 46.666 26 63.999s39.333 26 66 26s48.667 -8.66699 66 -26s26 -38.666 26 -63.999s-8.66699 -46.5 -26 -63.5
s-39.333 -25.5 -66 -25.5s-48.667 8.5 -66 25.5zM376.499 805.5c9 9 13.5 20.833 13.5 35.5s-4.5 26.667 -13.5 36s-20.833 14 -35.5 14s-26.5 -4.66699 -35.5 -14s-13.5 -21.333 -13.5 -36s4.5 -26.5 13.5 -35.5s20.833 -13.5 35.5 -13.5s26.5 4.5 35.5 13.5z" />
    <glyph glyph-name="uring" unicode="&#x16f;" horiz-adv-x="556" 
d="M169 17c-31.333 18 -55.335 43 -72.002 75s-25 68.333 -25 109v289h57v-285c0 -46.667 12.833 -85.167 38.5 -115.5s62.5 -45.5 110.5 -45.5s84.833 15.167 110.5 45.5s38.5 68.833 38.5 115.5v285h57v-289c0 -40.667 -8.33301 -77 -25 -109s-40.667 -57 -72 -75
s-67.666 -27 -108.999 -27s-77.666 9 -108.999 27zM211.998 573c-17.333 17.333 -26 38.666 -26 63.999s8.66699 46.666 26 63.999s39.333 26 66 26s48.667 -8.66699 66 -26s26 -38.666 26 -63.999s-8.66699 -46.666 -26 -63.999s-39.333 -26 -66 -26
s-48.667 8.66699 -66 26zM313.498 601c9 9.33301 13.5 21.333 13.5 36s-4.5 26.667 -13.5 36s-20.833 14 -35.5 14s-26.5 -4.66699 -35.5 -14s-13.5 -21.333 -13.5 -36s4.5 -26.667 13.5 -36s20.833 -14 35.5 -14s26.5 4.66699 35.5 14z" />
    <glyph glyph-name="Uhungarumlaut" unicode="&#x170;" horiz-adv-x="683" 
d="M208.5 23c-38.333 22 -68.167 52.833 -89.5 92.5s-32 85.5 -32 137.5v447h60v-447c0 -62 17.5 -111.833 52.5 -149.5s82.167 -56.5 141.5 -56.5s106.666 18.833 141.999 56.5s53 87.5 53 149.5v447h60v-447c0 -52 -10.667 -97.833 -32 -137.5
s-51.166 -70.5 -89.499 -92.5s-82.833 -33 -133.5 -33c-50 0 -94.167 11 -132.5 33zM299.999 769h-58l83 127h67zM428.999 769h-58l86 127h66z" />
    <glyph glyph-name="uhungarumlaut" unicode="&#x171;" horiz-adv-x="556" 
d="M169 17c-31.333 18 -55.335 43 -72.002 75s-25 68.333 -25 109v289h57v-285c0 -46.667 12.833 -85.167 38.5 -115.5s62.5 -45.5 110.5 -45.5s84.833 15.167 110.5 45.5s38.5 68.833 38.5 115.5v285h57v-289c0 -40.667 -8.33301 -77 -25 -109s-40.667 -57 -72 -75
s-67.666 -27 -108.999 -27s-77.666 9 -108.999 27zM234.998 564h-58l83 127h67zM363.998 564h-58l86 127h66z" />
    <glyph glyph-name="Uogonek" unicode="&#x172;" horiz-adv-x="683" 
d="M536 700l59.999 -0.000976562v-447c0 -55.333 -11 -102 -33 -140s-50.333 -67.333 -85 -88c-36 -22 -61.667 -41.833 -77 -59.5s-23 -36.167 -23 -55.5c0 -17.333 5.83301 -31.166 17.5 -41.499s28.834 -15.5 51.501 -15.5h16v-46h-27c-30 0 -55 8.66699 -75 26
s-30 41.333 -30 72c0 32 14.333 61 43 87c-6 -1.33301 -16.667 -2 -32 -2c-50.667 0 -95.167 11 -133.5 33s-68.166 52.833 -89.499 92.5s-32 85.5 -32 137.5v447h60v-447c0 -62 17.5 -111.833 52.5 -149.5s82.167 -56.5 141.5 -56.5s106.666 18.833 141.999 56.5
s53 87.5 53 149.5v447z" />
    <glyph glyph-name="uogonek" unicode="&#x173;" horiz-adv-x="556" 
d="M427 490l57 -0.000976562v-289c0 -40 -6.5 -73.167 -19.5 -99.5s-30.833 -48.833 -53.5 -67.5c-33.333 -28 -56.833 -51 -70.5 -69s-20.5 -36.333 -20.5 -55c0 -17.333 5.66699 -31.166 17 -41.499s28.333 -15.5 51 -15.5h17v-46h-27c-30 0 -55 8.66699 -75 26
s-30 41.333 -30 72c0 33.333 14.333 62.333 43 87c-14.667 -1.33301 -27.334 -2 -38.001 -2c-41.333 0 -77.666 9 -108.999 27s-55.333 43 -72 75s-25 68.333 -25 109v289h57v-285c0 -46.667 12.833 -85.167 38.5 -115.5s62.5 -45.5 110.5 -45.5s84.833 15.167 110.5 45.5
s38.5 68.833 38.5 115.5v285z" />
    <glyph glyph-name="Wcircumflex" unicode="&#x174;" horiz-adv-x="966" 
d="M690 117l186 583h63l-229 -700h-40l-188 582l-187 -582h-39l-229 700h63l186 -582l188 582h38zM406 769h-65l115 122h52l115 -122h-65l-76 82z" />
    <glyph glyph-name="wcircumflex" unicode="&#x175;" horiz-adv-x="787" 
d="M565 93l153 397h59l-194 -490h-37l-153 393l-153 -393h-36l-194 490h61l151 -396l153 396h37zM317 564h-65l115 122h52l115 -122h-65l-76 82z" />
    <glyph glyph-name="Ycircumflex" unicode="&#x176;" horiz-adv-x="543" 
d="M273 371l186 329h67l-224 -389v-311h-60v311l-225 389h69zM195 769h-65l115 122h52l115 -122h-65l-76 82z" />
    <glyph glyph-name="ycircumflex" unicode="&#x177;" horiz-adv-x="501" 
d="M257 100l172 390h62l-310 -690h-61l106 235l-221 455h64zM173 564h-65l115 122h52l115 -122h-65l-76 82z" />
    <glyph glyph-name="Ydieresis" unicode="&#x178;" horiz-adv-x="543" 
d="M273 371l186 329h67l-224 -389v-311h-60v311l-225 389h69zM218 797h-70v75h70v-75zM395 797h-70v75h70v-75z" />
    <glyph glyph-name="Zacute" unicode="&#x179;" horiz-adv-x="575" 
d="M504 662l-364 -605h384v-57h-463v38l363 605h-342v57h422v-38zM308 769h-58l83 127h66z" />
    <glyph glyph-name="zacute" unicode="&#x17a;" horiz-adv-x="466" 
d="M414 455l-292 -402h302v-53h-382v35l291 402h-281v53h362v-35zM249 564h-58l83 127h66z" />
    <glyph glyph-name="Zdotaccent" unicode="&#x17b;" horiz-adv-x="575" 
d="M504 662l-364 -605h384v-57h-463v38l363 605h-342v57h422v-38zM327 797h-70v75h70v-75z" />
    <glyph glyph-name="zdotaccent" unicode="&#x17c;" horiz-adv-x="466" 
d="M414 455l-292 -402h302v-53h-382v35l291 402h-281v53h362v-35zM267 592h-70v75h70v-75z" />
    <glyph glyph-name="Zcaron" unicode="&#x17d;" horiz-adv-x="575" 
d="M504 662l-364 -605h384v-57h-463v38l363 605h-342v57h422v-38zM318 769h-52l-115 122h65l76 -82l77 82h64z" />
    <glyph glyph-name="zcaron" unicode="&#x17e;" horiz-adv-x="466" 
d="M414 455l-292 -402h302v-53h-382v35l291 402h-281v53h362v-35zM259 564h-52l-115 122h65l76 -82l77 82h64z" />
    <glyph glyph-name="uni018F" unicode="&#x18f;" horiz-adv-x="798" 
d="M569.5 662c53.667 -32 95.9961 -75.332 126.996 -129.999s46.5 -115.334 46.5 -182.001c0 -66 -15.333 -126.5 -46 -181.5s-72.5 -98.5 -125.5 -130.5s-111.167 -48 -174.5 -48c-67.333 0 -128.166 17.333 -182.499 52s-96.166 81.667 -125.499 141
s-42 124.666 -38 195.999h629c-4.66699 52 -20.167 98.833 -46.5 140.5s-60.666 74.334 -102.999 98.001s-88.5 35.5 -138.5 35.5c-60.667 0 -114 -16.167 -160 -48.5s-81 -75.5 -105 -129.5h-64c24.667 70 66.5 126.667 125.5 170s126.833 65 203.5 65
c64.667 0 123.834 -16 177.501 -48zM532.496 83.001c41.667 24 75.666 56.833 101.999 98.5s41.5 88.5 45.5 140.5h-567c4 -51.333 19.167 -98 45.5 -140s60.5 -75 102.5 -99s87.333 -36 136 -36s93.834 12 135.501 36z" />
    <glyph glyph-name="florin" unicode="&#x192;" horiz-adv-x="379" 
d="M385 700l-8 -54h-21c-66 0 -104 -33.333 -114 -100l-23 -148h120l-8 -51h-119l-53 -346c-7.33301 -48 -25.333 -85.167 -54 -111.5s-68 -39.5 -118 -39.5h-28l8 54h21c66 0 104 33.333 114 100l52 343h-99l8 51h99l23 151c7.33301 48 25.333 85.167 54 111.5
s68 39.5 118 39.5h28z" />
    <glyph glyph-name="uni01F4" unicode="&#x1f4;" horiz-adv-x="792" 
d="M388 362l363.998 -0.00195312v-24c0 -61.333 -14.5 -118.666 -43.5 -171.999s-69.5 -96 -121.5 -128s-110.667 -48 -176 -48s-125.166 16 -179.499 48s-97.333 75.5 -129 130.5s-47.5 115.5 -47.5 181.5s15.833 126.5 47.5 181.5s74.667 98.5 129 130.5
s114.166 48 179.499 48c74 0 140 -20.5 198 -61.5s100.667 -95.5 128 -163.5h-64c-24 50.667 -58.833 91.334 -104.5 122.001s-98.167 46 -157.5 46c-54 0 -103.5 -13.333 -148.5 -40s-80.5 -63.167 -106.5 -109.5s-39 -97.5 -39 -153.5s13 -107.167 39 -153.5
s61.5 -82.833 106.5 -109.5s94.5 -40 148.5 -40c48 0 92.333 10.5 133 31.5s73.834 51 99.501 90s40.834 84.5 45.501 136.5h-301v57zM426.998 768.998h-58l83 127h66z" />
    <glyph glyph-name="uni01F5" unicode="&#x1f5;" horiz-adv-x="609" 
d="M475 490h57v-460c0 -46.667 -10.167 -88.167 -30.5 -124.5s-49 -64.666 -86 -84.999s-79.167 -30.5 -126.5 -30.5c-57.333 0 -106.833 15.167 -148.5 45.5s-69.834 71.833 -84.501 124.5h58c12 -32.667 32.833 -60.167 62.5 -82.5s67.167 -33.5 112.5 -33.5
c56.667 0 101.834 17.167 135.501 51.5s50.5 79.166 50.5 134.499v82c-21.333 -31.333 -48.5 -56.166 -81.5 -74.499s-69.167 -27.5 -108.5 -27.5c-44.667 0 -85.834 10.667 -123.501 32s-67.334 50.666 -89.001 87.999s-32.5 79 -32.5 125s10.833 87.667 32.5 125
s51.334 66.666 89.001 87.999s78.834 32 123.501 32c39.333 0 75.5 -9.16699 108.5 -27.5s60.167 -43.166 81.5 -74.499v92zM384.5 89c29 16.667 51.833 39.5 68.5 68.5s25 61.5 25 97.5s-8.33301 68.5 -25 97.5s-39.5 51.833 -68.5 68.5s-61.167 25 -96.5 25
c-34.667 0 -66.5 -8.33301 -95.5 -25s-51.833 -39.5 -68.5 -68.5s-25 -61.5 -25 -97.5s8.33301 -68.5 25 -97.5s39.5 -51.833 68.5 -68.5s60.833 -25 95.5 -25c35.333 0 67.5 8.33301 96.5 25zM320 564h-58l83 127h66z" />
    <glyph glyph-name="uni0218" unicode="&#x218;" horiz-adv-x="562" 
d="M165 17c-34.667 18 -61.498 43 -80.498 75s-29.167 68 -30.5 108h60c1.33301 -43.333 17 -79.666 47 -108.999s72 -44 126 -44c49.333 0 88.166 12.333 116.499 37s42.5 55.334 42.5 92.001c0 30.667 -7.66699 55.667 -23 75s-34.5 34.333 -57.5 45s-53.833 22 -92.5 34
c-44 14 -79.333 27.667 -106 41s-49.167 32.666 -67.5 57.999s-27.5 58.666 -27.5 99.999c0 34.667 9.16699 65.667 27.5 93s43.833 48.833 76.5 64.5s69 23.5 109 23.5c38 0 73 -8.66699 105 -26s57.5 -40.833 76.5 -70.5s28.833 -62.5 29.5 -98.5h-60
c-1.33301 24.667 -8.33301 47.5 -21 68.5s-30.5 37.833 -53.5 50.5s-49.5 19 -79.5 19c-44 0 -79.667 -11.333 -107 -34s-41 -52.667 -41 -90c0 -28.667 7.5 -52 22.5 -70s33.5 -32.167 55.5 -42.5s52 -21.5 90 -33.5c44.667 -14.667 80.667 -28.834 108 -42.501
s50.5 -33.667 69.5 -60s28.5 -61.166 28.5 -104.499c0 -36 -9.66699 -68.167 -29 -96.5s-45.833 -50.333 -79.5 -66s-71.167 -23.5 -112.5 -23.5c-46.667 0 -87.334 9 -122.001 27zM260.002 -240h-53l43 155h66z" />
    <glyph glyph-name="uni0219" unicode="&#x219;" horiz-adv-x="485" 
d="M149.5 10c-28.333 13.333 -50.668 31.833 -67.001 55.5s-25.166 50.167 -26.499 79.5h57c2 -30 15 -54.333 39 -73s56 -28 96 -28c36 0 64.833 7.66699 86.5 23s32.5 36 32.5 62c0 20.667 -5.83301 37.167 -17.5 49.5s-26.334 21.5 -44.001 27.5s-41.5 12.333 -71.5 19
c-35.333 8 -63.833 16.167 -85.5 24.5s-40.167 21.666 -55.5 39.999s-23 43.166 -23 74.499c0 25.333 7.5 48.5 22.5 69.5s35.667 37.333 62 49s55.166 17.5 86.499 17.5s60 -6.5 86 -19.5s46.833 -31 62.5 -54s23.834 -48.5 24.501 -76.5h-57
c-1.33301 26.667 -12.833 49.334 -34.5 68.001s-49.5 28 -83.5 28c-30.667 0 -56.667 -7.33301 -78 -22s-32 -34.667 -32 -60c0 -19.333 5.66699 -34.666 17 -45.999s25.166 -19.833 41.499 -25.5s39.5 -12.167 69.5 -19.5c36 -8 65.333 -16.333 88 -25
s41.834 -22.5 57.501 -41.5s23.5 -44.833 23.5 -77.5c0 -42.667 -17.167 -76.5 -51.5 -101.5s-77.166 -37.5 -128.499 -37.5c-36 0 -68.167 6.66699 -96.5 20zM223.998 -240h-53l43 155h66z" />
    <glyph glyph-name="uni021A" unicode="&#x21a;" horiz-adv-x="482" 
d="M271 0h-60v643h-184v57h428v-57h-184v-643zM217 -240h-53l43 155h66z" />
    <glyph glyph-name="uni021B" unicode="&#x21b;" horiz-adv-x="336" 
d="M294 437h-125v-301c0 -26 7 -46.167 21 -60.5s33.333 -21.5 58 -21.5h46v-54h-49c-40.667 0 -73 12.167 -97 36.5s-36 56.5 -36 96.5v304h-80v53h80v130h57v-130h125v-53zM179 -240h-53l43 155h66z" />
    <glyph glyph-name="uni0232" unicode="&#x232;" horiz-adv-x="543" 
d="M273 371l186 329h67l-224 -389v-311h-60v311l-225 389h69zM404 804h-264v52h264v-52z" />
    <glyph glyph-name="uni0233" unicode="&#x233;" horiz-adv-x="501" 
d="M257 100l172 390h62l-310 -690h-61l106 235l-221 455h64zM381 600h-264v51h264v-51z" />
    <glyph glyph-name="uni0237" unicode="&#x237;" horiz-adv-x="211" 
d="M-48 -200v54h46c24.667 0 44 7.16699 58 21.5s21 34.5 21 60.5v554h57v-557c0 -40 -12 -72.167 -36 -96.5s-56.333 -36.5 -97 -36.5h-49z" />
    <glyph glyph-name="uni0244" unicode="&#x244;" horiz-adv-x="693" 
d="M693 451l-0.00195312 -54h-92v-144c0 -52 -10.667 -97.833 -32 -137.5s-51.166 -70.5 -89.499 -92.5s-82.833 -33 -133.5 -33c-50 0 -94.167 11 -132.5 33s-68.166 52.833 -89.499 92.5s-32 85.5 -32 137.5v144h-92v54h92v249h60v-249h389v249h60v-249h92zM540.998 397
h-388.999v-144c0 -62 17.5 -111.833 52.5 -149.5s82.167 -56.5 141.5 -56.5s106.666 18.833 141.999 56.5s53 87.5 53 149.5v144z" />
    <glyph glyph-name="uni0259" unicode="&#x259;" horiz-adv-x="564" 
d="M403.5 466.5c37 -22.333 66.3311 -52.999 87.998 -91.999s32.5 -82.167 32.5 -129.5s-10.833 -90.5 -32.5 -129.5s-51.167 -69.667 -88.5 -92s-78.666 -33.5 -123.999 -33.5s-86.5 10.833 -123.5 32.5s-66 51 -87 88s-31.5 77.833 -31.5 122.5
c0 7.33301 0.666992 17.666 2 30.999h425c-3.33301 54 -22.166 97.833 -56.499 131.5s-76.833 50.5 -127.5 50.5c-39.333 0 -73.333 -9.16699 -102 -27.5s-50.667 -42.833 -66 -73.5h-61c20 50 49.833 88.333 89.5 115s86.5 40 140.5 40c44.667 0 85.5 -11.167 122.5 -33.5z
M402.498 89.501c33.667 30.333 53.832 70.833 60.499 121.5h-366c2.66699 -30.667 12 -58.667 28 -84s37.333 -45.5 64 -60.5s56.667 -22.5 90 -22.5c48.667 0 89.834 15.167 123.501 45.5z" />
    <glyph glyph-name="uni0289" unicode="&#x289;" horiz-adv-x="566" 
d="M561 333l-0.00195312 -51h-72v-81c0 -40.667 -8.33301 -77 -25 -109s-40.667 -57 -72 -75s-67.666 -27 -108.999 -27s-77.666 9 -108.999 27s-55.333 43 -72 75s-25 68.333 -25 109v81h-72v51h72v157h57v-157h298v157h57v-157h72zM431.998 282h-298v-77
c0 -46.667 12.833 -85.167 38.5 -115.5s62.5 -45.5 110.5 -45.5s84.833 15.167 110.5 45.5s38.5 68.833 38.5 115.5v77z" />
    <glyph glyph-name="uni02BC" unicode="&#x2bc;" horiz-adv-x="199" 
d="M92 491h-53l51 209h70z" />
    <glyph glyph-name="circumflex" unicode="&#x2c6;" horiz-adv-x="342" 
d="M95 564h-65l115 122h52l115 -122h-65l-76 82z" />
    <glyph glyph-name="caron" unicode="&#x2c7;" horiz-adv-x="342" 
d="M197 564h-52l-115 122h65l76 -82l77 82h64z" />
    <glyph glyph-name="breve" unicode="&#x2d8;" horiz-adv-x="338" 
d="M72 591c-25.333 23.333 -39.3369 54 -42.0039 92h52c2.66699 -25.333 11.834 -44.666 27.501 -57.999s35.5 -20 59.5 -20s43.833 6.66699 59.5 20s24.834 32.666 27.501 57.999h52c-2.66699 -38 -16.667 -68.667 -42 -92s-57.666 -35 -96.999 -35
s-71.666 11.667 -96.999 35z" />
    <glyph glyph-name="dotaccent" unicode="&#x2d9;" horiz-adv-x="130" 
d="M100 592h-70v75h70v-75z" />
    <glyph glyph-name="ring" unicode="&#x2da;" horiz-adv-x="244" 
d="M56 573c-17.333 17.333 -26 38.666 -26 63.999s8.66699 46.666 26 63.999s39.333 26 66 26s48.667 -8.66699 66 -26s26 -38.666 26 -63.999s-8.66699 -46.666 -26 -63.999s-39.333 -26 -66 -26s-48.667 8.66699 -66 26zM157.5 601c9 9.33301 13.5 21.333 13.5 36
s-4.5 26.667 -13.5 36s-20.833 14 -35.5 14s-26.5 -4.66699 -35.5 -14s-13.5 -21.333 -13.5 -36s4.5 -26.667 13.5 -36s20.833 -14 35.5 -14s26.5 4.66699 35.5 14z" />
    <glyph glyph-name="ogonek" unicode="&#x2db;" horiz-adv-x="192" 
d="M136 -193c-30.667 0 -56 8.66699 -76 26s-30 41.333 -30 72c0 27.333 9 50.333 27 69s39.333 33 64 43l40 -17c-24.667 -7.33301 -44.667 -19 -60 -35s-23 -34.333 -23 -55c0 -18 5.66699 -32 17 -42s28.333 -15 51 -15h16v-46h-26z" />
    <glyph glyph-name="tilde" unicode="&#x2dc;" horiz-adv-x="337" 
d="M30 591c0 26 6.5 46.667 19.5 62s30.833 23 53.5 23c14 0 26.833 -2.83301 38.5 -8.5s24.5 -13.834 38.5 -24.501c11.333 -8 20.333 -13.833 27 -17.5s13.667 -5.5 21 -5.5c21.333 0 32 15.667 32 47v10h47v-18c0 -26 -6.5 -46.667 -19.5 -62s-30.833 -23 -53.5 -23
c-14 0 -26.833 2.83301 -38.5 8.5s-24.5 13.834 -38.5 24.501c-11.333 8 -20.333 13.833 -27 17.5s-13.667 5.5 -21 5.5c-21.333 0 -32 -15.667 -32 -47v-9h-47v17z" />
    <glyph glyph-name="hungarumlaut" unicode="&#x2dd;" horiz-adv-x="341" 
d="M88 564h-58l83 127h67zM217 564h-58l86 127h66z" />
    <glyph glyph-name="gravecomb" unicode="&#x300;" horiz-adv-x="0" 
d="M-30 564h-59l-92 127h68z" />
    <glyph glyph-name="acutecomb" unicode="&#x301;" horiz-adv-x="0" 
d="M-121 564h-58l83 127h66z" />
    <glyph glyph-name="uni0302" unicode="&#x302;" horiz-adv-x="0" 
d="M-247 564h-65l115 122h52l115 -122h-65l-76 82z" />
    <glyph glyph-name="tildecomb" unicode="&#x303;" horiz-adv-x="0" 
d="M-307 591c0 26 6.5 46.667 19.5 62s30.833 23 53.5 23c14 0 26.833 -2.83301 38.5 -8.5s24.5 -13.834 38.5 -24.501c11.333 -8 20.333 -13.833 27 -17.5s13.667 -5.5 21 -5.5c21.333 0 32 15.667 32 47v10h47v-18c0 -26 -6.5 -46.667 -19.5 -62s-30.833 -23 -53.5 -23
c-14 0 -26.833 2.83301 -38.5 8.5s-24.5 13.834 -38.5 24.501c-11.333 8 -20.333 13.833 -27 17.5s-13.667 5.5 -21 5.5c-21.333 0 -32 -15.667 -32 -47v-9h-47v17z" />
    <glyph glyph-name="uni0304" unicode="&#x304;" horiz-adv-x="0" 
d="M-30 600h-264v51h264v-51z" />
    <glyph glyph-name="uni0306" unicode="&#x306;" horiz-adv-x="0" 
d="M-266 591c-25.333 23.333 -39.3369 54 -42.0039 92h52c2.66699 -25.333 11.834 -44.666 27.501 -57.999s35.5 -20 59.5 -20s43.833 6.66699 59.5 20s24.834 32.666 27.501 57.999h52c-2.66699 -38 -16.667 -68.667 -42 -92s-57.666 -35 -96.999 -35
s-71.666 11.667 -96.999 35z" />
    <glyph glyph-name="uni0307" unicode="&#x307;" horiz-adv-x="0" 
d="M-30 592h-70v75h70v-75z" />
    <glyph glyph-name="uni0308" unicode="&#x308;" horiz-adv-x="0" 
d="M-203 592h-70v75h70v-75zM-30 592h-70v75h70v-75z" />
    <glyph glyph-name="uni030A" unicode="&#x30a;" horiz-adv-x="0" 
d="M-188 573c-17.333 17.333 -26 38.666 -26 63.999s8.66699 46.666 26 63.999s39.333 26 66 26s48.667 -8.66699 66 -26s26 -38.666 26 -63.999s-8.66699 -46.666 -26 -63.999s-39.333 -26 -66 -26s-48.667 8.66699 -66 26zM-86.5 601c9 9.33301 13.5 21.333 13.5 36
s-4.5 26.667 -13.5 36s-20.833 14 -35.5 14s-26.5 -4.66699 -35.5 -14s-13.5 -21.333 -13.5 -36s4.5 -26.667 13.5 -36s20.833 -14 35.5 -14s26.5 4.66699 35.5 14z" />
    <glyph glyph-name="uni030B" unicode="&#x30b;" horiz-adv-x="0" 
d="M-253 564h-58l83 127h67zM-124 564h-58l86 127h66z" />
    <glyph glyph-name="uni030C" unicode="&#x30c;" horiz-adv-x="0" 
d="M-145 564h-52l-115 122h65l76 -82l77 82h64z" />
    <glyph glyph-name="uni0312" unicode="&#x312;" horiz-adv-x="0" 
d="M-86 564h-65l69 155h52z" />
    <glyph glyph-name="uni0326" unicode="&#x326;" horiz-adv-x="0" 
d="M-86 -240h-53l43 155h66z" />
    <glyph glyph-name="uni0327" unicode="&#x327;" horiz-adv-x="0" 
d="M-111 -40c24.667 -0.666992 44.333 -7.83203 59 -21.499s22 -31.167 22 -52.5c0 -26.667 -8.5 -46.5 -25.5 -59.5s-37.5 -19.5 -61.5 -19.5h-53v40h47c14.667 0 26 3.66699 34 11s12 16.666 12 27.999c0 10.667 -4 19.667 -12 27s-19.333 11 -34 11h-34v29l32 73l35 -17
v-5z" />
    <glyph glyph-name="uni0328" unicode="&#x328;" horiz-adv-x="0" 
d="M-56 -193c-30.667 0 -56 8.66699 -76 26s-30 41.333 -30 72c0 27.333 9 50.333 27 69s39.333 33 64 43l40 -17c-24.667 -7.33301 -44.667 -19 -60 -35s-23 -34.333 -23 -55c0 -18 5.66699 -32 17 -42s28.333 -15 51 -15h16v-46h-26z" />
    <glyph glyph-name="uni0401" unicode="&#x401;" horiz-adv-x="534" 
d="M157 335v-278h308v-57h-368v700h358v-57h-298v-251h288v-57h-288zM226 797h-70v75h70v-75zM403 797h-70v75h70v-75z" />
    <glyph glyph-name="uni0402" unicode="&#x402;" horiz-adv-x="666" 
d="M497 392.5c38.667 -22.333 68.835 -52.668 90.502 -91.001s32.5 -80.5 32.5 -126.5s-10.667 -88 -32 -126s-50.833 -68.167 -88.5 -90.5s-79.834 -33.833 -126.501 -34.5v57c34 1.33301 65.167 10.166 93.5 26.499s50.833 38.833 67.5 67.5s25 61.334 25 98.001
c0 38.667 -8.33301 72.834 -25 102.501s-40 52.667 -70 69s-64 24.5 -102 24.5c-24.667 0 -48.334 -2 -71.001 -6s-46.667 -10.667 -72 -20v-343h-60v643h-152v57h419v-57h-207v-242c20.667 7.33301 44.5 13.333 71.5 18s52.5 7 76.5 7c48 0 91.333 -11.167 130 -33.5z" />
    <glyph glyph-name="uni0403" unicode="&#x403;" horiz-adv-x="465" 
d="M157 0h-60v700h351v-57h-291v-643zM289 769h-58l83 127h66z" />
    <glyph glyph-name="uni0404" unicode="&#x404;" horiz-adv-x="773" 
d="M729 215c-28 -68.667 -70.333 -123.329 -127 -163.996s-121.667 -61 -195 -61c-64 0 -122.833 16 -176.5 48s-96.334 75.667 -128.001 131s-47.5 115.666 -47.5 180.999s15.833 125.666 47.5 180.999s74.334 99 128.001 131s112.167 48 175.5 48
c73.333 0 138 -20.333 194 -61s98 -95.334 126 -164.001h-64c-25.333 52.667 -60.333 93.834 -105 123.501s-95 44.5 -151 44.5c-49.333 0 -95 -11.833 -137 -35.5s-76.5 -56.334 -103.5 -98.001s-42.833 -88.167 -47.5 -139.5h350v-57h-350c4 -52 19.5 -99 46.5 -141
s61.667 -75 104 -99s88.5 -36 138.5 -36c58.667 0 110.667 15.667 156 47s79.333 71.666 102 120.999h64z" />
    <glyph glyph-name="uni0405" unicode="&#x405;" horiz-adv-x="562" 
d="M165 17c-34.667 18 -61.498 43 -80.498 75s-29.167 68 -30.5 108h60c1.33301 -43.333 17 -79.666 47 -108.999s72 -44 126 -44c49.333 0 88.166 12.333 116.499 37s42.5 55.334 42.5 92.001c0 30.667 -7.66699 55.667 -23 75s-34.5 34.333 -57.5 45s-53.833 22 -92.5 34
c-44 14 -79.333 27.667 -106 41s-49.167 32.666 -67.5 57.999s-27.5 58.666 -27.5 99.999c0 34.667 9.16699 65.667 27.5 93s43.833 48.833 76.5 64.5s69 23.5 109 23.5c38 0 73 -8.66699 105 -26s57.5 -40.833 76.5 -70.5s28.833 -62.5 29.5 -98.5h-60
c-1.33301 24.667 -8.33301 47.5 -21 68.5s-30.5 37.833 -53.5 50.5s-49.5 19 -79.5 19c-44 0 -79.667 -11.333 -107 -34s-41 -52.667 -41 -90c0 -28.667 7.5 -52 22.5 -70s33.5 -32.167 55.5 -42.5s52 -21.5 90 -33.5c44.667 -14.667 80.667 -28.834 108 -42.501
s50.5 -33.667 69.5 -60s28.5 -61.166 28.5 -104.499c0 -36 -9.66699 -68.167 -29 -96.5s-45.833 -50.333 -79.5 -66s-71.167 -23.5 -112.5 -23.5c-46.667 0 -87.334 9 -122.001 27z" />
    <glyph glyph-name="uni0406" unicode="&#x406;" horiz-adv-x="264" 
d="M162 0h-60v700h60v-700z" />
    <glyph glyph-name="uni0407" unicode="&#x407;" horiz-adv-x="264" 
d="M162 0h-60v700h60v-700zM78 797h-70v75h70v-75zM255 797h-70v75h70v-75z" />
    <glyph glyph-name="uni0408" unicode="&#x408;" horiz-adv-x="498" 
d="M105 17.5c-30.667 18.333 -54.333 43.001 -71 74.001s-25 64.167 -25 99.5h60c0 -40.667 13.167 -74.834 39.5 -102.501s60.5 -41.5 102.5 -41.5c41.333 0 75 14 101 42s39 66 39 114v497h60v-497c0 -42 -8.66699 -79.167 -26 -111.5s-41.333 -57.333 -72 -75
s-64.667 -26.5 -102 -26.5c-40 0 -75.333 9.16699 -106 27.5z" />
    <glyph glyph-name="uni0409" unicode="&#x409;" horiz-adv-x="974" 
d="M696 414c47.333 0 89.167 -9.16895 125.5 -27.502s64.333 -43.166 84 -74.499s29.5 -66.333 29.5 -105s-9.83301 -73.667 -29.5 -105s-47.667 -56.166 -84 -74.499s-78.166 -27.5 -125.499 -27.5h-191v643h-271l-28 -416c-5.33301 -86 -23.333 -146.167 -54 -180.5
s-70.334 -51.5 -119.001 -51.5h-18v60h15c35.333 0 62.5 13.833 81.5 41.5s30.5 71.167 34.5 130.5l33 473h386v-286h131zM696.001 56.998c52 0 94.5 13.6689 127.5 41.002s49.5 63.666 49.5 108.999s-16.5 81.666 -49.5 108.999s-75.5 41 -127.5 41h-131v-300h131z" />
    <glyph glyph-name="uni040A" unicode="&#x40a;" horiz-adv-x="992" 
d="M714 404c48 0 89.5 -8.6709 124.5 -26.0039s62 -41.166 81 -71.499s28.5 -65.166 28.5 -104.499s-9.5 -74.166 -28.5 -104.499s-46 -54.166 -81 -71.499s-76.5 -26 -124.5 -26h-196v347h-361v-347h-60v700h60v-296h361v296h60v-296h136zM714 56.9961
c52.667 0 94.5 12.667 125.5 38s46.5 61 46.5 107s-15.5 81.667 -46.5 107s-72.833 38 -125.5 38h-136v-290h136z" />
    <glyph glyph-name="uni040B" unicode="&#x40b;" horiz-adv-x="679" 
d="M552.5 364.5c40.333 -41 60.499 -98.833 60.499 -173.5v-191h-60v191c0 55.333 -14.833 98.833 -44.5 130.5s-71.5 47.5 -125.5 47.5c-58 0 -112.667 -11 -164 -33v-336h-60v643h-152v57h419v-57h-207v-249c22 9.33301 48.333 17 79 23s59.334 9 86.001 9
c72 0 128.167 -20.5 168.5 -61.5z" />
    <glyph glyph-name="uni040C" unicode="&#x40c;" horiz-adv-x="574" 
d="M219 360l348 -360h-82l-328 340v-340h-60v700h60v-326l311 326h76zM303 769h-58l83 127h66z" />
    <glyph glyph-name="uni040E" unicode="&#x40e;" horiz-adv-x="587" 
d="M301 270l196 430h63l-320 -700h-63l92 202l-245 498h67zM192 795.5c-26 23 -40.333 53.833 -43 92.5h55c2.66699 -26.667 12 -46.667 28 -60s37 -20 63 -20s47 6.66699 63 20s25.333 33.333 28 60h55c-2.66699 -38.667 -17 -69.5 -43 -92.5s-60.333 -34.5 -103 -34.5
s-77 11.5 -103 34.5z" />
    <glyph glyph-name="uni040F" unicode="&#x40f;" horiz-adv-x="695" 
d="M378 -170h-60v170h-221v700h60v-643h381v643h60v-700h-220v-170z" />
    <glyph glyph-name="uni0410" unicode="&#x410;" horiz-adv-x="652" 
d="M632 0h-65l-79 200h-325l-80 -200h-63l283 700h45zM465 257l-140 353l-139 -353h279z" />
    <glyph glyph-name="uni0411" unicode="&#x411;" horiz-adv-x="563" 
d="M278 414c46.667 0 88.167 -8.66699 124.5 -26s64.5 -41.833 84.5 -73.5s30 -67.5 30 -107.5s-10 -75.833 -30 -107.5s-48.167 -56.167 -84.5 -73.5s-77.833 -26 -124.5 -26h-181v700h365v-57h-305v-229h121zM278 57c53.333 0 96.166 13.6689 128.499 41.002
s48.5 63.666 48.5 108.999s-16.167 81.666 -48.5 108.999s-75.166 41 -128.499 41h-121v-300h121z" />
    <glyph glyph-name="uni0412" unicode="&#x412;" horiz-adv-x="571" 
d="M479 309c24 -30.667 36 -67 36 -109c0 -38 -9.83301 -72.167 -29.5 -102.5s-47 -54.166 -82 -71.499s-74.833 -26 -119.5 -26h-187v700h177c42.667 0 80 -7.83301 112 -23.5s56.5 -37 73.5 -64s25.5 -57.833 25.5 -92.5c0 -32.667 -9.16699 -62 -27.5 -88
s-42.5 -45.333 -72.5 -58c38.667 -12.667 70 -34.334 94 -65.001zM157 643v-246h117c45.333 0 81.5 11.5 108.5 34.5s40.5 52.5 40.5 88.5s-13.5 65.5 -40.5 88.5s-63.167 34.5 -108.5 34.5h-117zM284 57c33.333 0 62.833 6.3291 88.5 18.9961s45.5 29.834 59.5 51.501
s21 45.834 21 72.501s-7 50.834 -21 72.501s-33.833 38.834 -59.5 51.501s-55.167 19 -88.5 19h-127v-286h127z" />
    <glyph glyph-name="uni0413" unicode="&#x413;" horiz-adv-x="465" 
d="M157 0h-60v700h351v-57h-291v-643z" />
    <glyph glyph-name="uni0414" unicode="&#x414;" horiz-adv-x="706" 
d="M586 57l88 -0.00195312v-227h-60v170h-529v-170h-60v227c36 4.66699 64.5 22.834 85.5 54.501s33.833 74.834 38.5 129.501l39 459h398v-643zM526 56.998v586h-284l-34 -402c-4.66699 -50 -12.167 -89 -22.5 -117s-26.5 -50.333 -48.5 -67h389z" />
    <glyph glyph-name="uni0415" unicode="&#x415;" horiz-adv-x="534" 
d="M157 335v-278h308v-57h-368v700h358v-57h-298v-251h288v-57h-288z" />
    <glyph glyph-name="uni0416" unicode="&#x416;" horiz-adv-x="809" 
d="M494 359l308 -359h-77l-291 339v-339h-59v339l-291 -339h-77l309 358l-289 342h72l276 -328v328h59v-328l276 328h72z" />
    <glyph glyph-name="uni0417" unicode="&#x417;" horiz-adv-x="552" 
d="M462.5 297c22.333 -30 33.5 -65.333 33.5 -106c0 -40 -9.5 -75.167 -28.5 -105.5s-45.833 -53.833 -80.5 -70.5s-74.334 -25 -119.001 -25c-43.333 0 -82.166 8.5 -116.499 25.5s-61.5 40.5 -81.5 70.5s-31.333 64 -34 102h60
c3.33301 -41.333 20.666 -75.166 51.999 -101.499s71.333 -39.5 120 -39.5c50 0 90.167 13.167 120.5 39.5s45.5 61.5 45.5 105.5c0 41.333 -15.167 74.5 -45.5 99.5s-70.5 37.5 -120.5 37.5h-63v57h64c43.333 0 78.333 12.667 105 38s40 57 40 95
c0 40.667 -13.5 73.167 -40.5 97.5s-62.833 36.5 -107.5 36.5c-45.333 0 -81.666 -11.833 -108.999 -35.5s-44 -54.834 -50 -93.501h-60c3.33301 35.333 14.5 67.166 33.5 95.499s44.333 50.5 76 66.5s68.167 24 109.5 24c40.667 0 76.834 -8 108.501 -24
s56.5 -38.333 74.5 -67s27 -61.667 27 -99c0 -35.333 -9 -66.666 -27 -93.999s-44.333 -48.333 -79 -63c39.333 -14 70.166 -36 92.499 -66z" />
    <glyph glyph-name="uni0418" unicode="&#x418;" horiz-adv-x="770" 
d="M157 111l477 589h39v-700h-60v589l-477 -589h-39v700h60v-589z" />
    <glyph glyph-name="uni0419" unicode="&#x419;" horiz-adv-x="770" 
d="M157 111l477 589h39v-700h-60v589l-477 -589h-39v700h60v-589zM289 795.5c-26 23 -40.333 53.833 -43 92.5h55c2.66699 -26.667 12 -46.667 28 -60s37 -20 63 -20s47 6.66699 63 20s25.333 33.333 28 60h55c-2.66699 -38.667 -17 -69.5 -43 -92.5
s-60.333 -34.5 -103 -34.5s-77 11.5 -103 34.5z" />
    <glyph glyph-name="uni041A" unicode="&#x41a;" horiz-adv-x="574" 
d="M219 360l348 -360h-82l-328 340v-340h-60v700h60v-326l311 326h76z" />
    <glyph glyph-name="uni041B" unicode="&#x41b;" horiz-adv-x="684" 
d="M179 700h408v-700h-60v643h-293l-28 -416c-6 -86 -24.167 -146.167 -54.5 -180.5s-69.833 -51.5 -118.5 -51.5h-18v60h15c35.333 0 62.5 13.833 81.5 41.5s30.5 71.167 34.5 130.5z" />
    <glyph glyph-name="uni041C" unicode="&#x41c;" horiz-adv-x="898" 
d="M746 700l83 -700h-60l-65 562l-239 -562h-32l-240 562l-65 -562h-59l83 700h44l254 -595l254 595h42z" />
    <glyph glyph-name="uni041D" unicode="&#x41d;" horiz-adv-x="712" 
d="M555 392v308h60v-700h-60v335h-398v-335h-60v700h60v-308h398z" />
    <glyph glyph-name="uni041E" unicode="&#x41e;" horiz-adv-x="822" 
d="M231.5 38c-54.333 32 -97.333 75.5 -129 130.5s-47.5 115.5 -47.5 181.5s15.833 126.5 47.5 181.5s74.667 98.5 129 130.5s114.166 48 179.499 48s125.166 -16 179.499 -48s97.333 -75.5 129 -130.5s47.5 -115.5 47.5 -181.5s-15.833 -126.5 -47.5 -181.5
s-74.667 -98.5 -129 -130.5s-114.166 -48 -179.499 -48s-125.166 16 -179.499 48zM560 87c45.333 26.667 81 63.167 107 109.5s39 97.5 39 153.5s-13 107.167 -39 153.5s-61.667 82.833 -107 109.5s-95 40 -149 40s-103.5 -13.333 -148.5 -40s-80.5 -63.167 -106.5 -109.5
s-39 -97.5 -39 -153.5s13 -107.167 39 -153.5s61.5 -82.833 106.5 -109.5s94.5 -40 148.5 -40s103.667 13.333 149 40z" />
    <glyph glyph-name="uni041F" unicode="&#x41f;" horiz-adv-x="707" 
d="M157 0h-60v700h513v-700h-60v643h-393v-643z" />
    <glyph glyph-name="uni0420" unicode="&#x420;" horiz-adv-x="553" 
d="M291 700c43.333 0 81.833 -8.5 115.5 -25.5s59.667 -40.333 78 -70s27.5 -63.167 27.5 -100.5s-9.16699 -70.833 -27.5 -100.5s-44.333 -53 -78 -70s-72.167 -25.5 -115.5 -25.5h-134v-308h-60v700h194zM291 365c49.333 0 88.166 13 116.499 39s42.5 59.333 42.5 100
s-14.167 74 -42.5 100s-67.166 39 -116.499 39h-134v-278h134z" />
    <glyph glyph-name="uni0421" unicode="&#x421;" horiz-adv-x="773" 
d="M230.5 38c-53.667 32 -96.3359 75.6699 -128.003 131.003s-47.5 115.666 -47.5 180.999s15.833 125.666 47.5 180.999s74.334 99 128.001 131s112.167 48 175.5 48c73.333 0 138 -20.333 194 -61s98 -95.334 126 -164.001h-64
c-25.333 52.667 -60.333 93.834 -105 123.501s-95 44.5 -151 44.5c-52 0 -100.167 -13.333 -144.5 -40s-79.5 -63.167 -105.5 -109.5s-39 -97.5 -39 -153.5s13 -107.167 39 -153.5s61.167 -82.833 105.5 -109.5s92.5 -40 144.5 -40c56.667 0 107.834 15 153.501 45
s80.834 71 105.501 123h64c-28 -68.667 -70.333 -123.334 -127 -164.001s-122 -61 -196 -61c-63.333 0 -121.833 16 -175.5 48z" />
    <glyph glyph-name="uni0422" unicode="&#x422;" horiz-adv-x="482" 
d="M271 0h-60v643h-184v57h428v-57h-184v-643z" />
    <glyph glyph-name="uni0423" unicode="&#x423;" horiz-adv-x="587" 
d="M301 270l196 430h63l-320 -700h-63l92 202l-245 498h67z" />
    <glyph glyph-name="uni0424" unicode="&#x424;" horiz-adv-x="799" 
d="M448 650c55.333 0 106.166 -12.667 152.499 -38s83.166 -60.5 110.499 -105.5s41 -95.5 41 -151.5s-13.667 -106.5 -41 -151.5s-64.166 -80.167 -110.499 -105.5s-97.166 -38 -152.499 -38h-19v-85h-59v85h-19c-55.333 0 -106.166 12.667 -152.499 38
s-83.166 60.5 -110.499 105.5s-41 95.5 -41 151.5s13.667 106.5 41 151.5s64.166 80.167 110.499 105.5s97.166 38 152.499 38h19v75h59v-75h19zM370 115v480h-19c-44.667 0 -85.334 -9.83301 -122.001 -29.5s-65.834 -47.667 -87.501 -84s-32.5 -78.5 -32.5 -126.5
s10.833 -90.167 32.5 -126.5s50.834 -64.333 87.501 -84s77.334 -29.5 122.001 -29.5h19zM448 115c44.667 0 85.334 9.83301 122.001 29.5s65.834 47.667 87.501 84s32.5 78.5 32.5 126.5s-10.833 90.167 -32.5 126.5s-50.834 64.333 -87.501 84s-77.334 29.5 -122.001 29.5
h-19v-480h19z" />
    <glyph glyph-name="uni0425" unicode="&#x425;" horiz-adv-x="572" 
d="M323 362l222 -362h-68l-191 314l-192 -314h-67l222 362l-202 338h68l172 -290l171 290h67z" />
    <glyph glyph-name="uni0426" unicode="&#x426;" horiz-adv-x="718" 
d="M686 -170h-60v170h-529v700h60v-643h381v643h60v-643h88v-227z" />
    <glyph glyph-name="uni0427" unicode="&#x427;" horiz-adv-x="638" 
d="M481 700h60.001v-700h-60v304c-21.333 -10 -48 -18.5 -80 -25.5s-63 -10.5 -93 -10.5c-72.667 0 -129.334 20.667 -170.001 62s-61 101.333 -61 180v190h60v-190c0 -58 14.5 -103.333 43.5 -136s72.167 -49 129.5 -49c62.667 0 119.667 12.333 171 37v338z" />
    <glyph glyph-name="uni0428" unicode="&#x428;" horiz-adv-x="1004" 
d="M907 0h-810v700h60v-643h315v643h60v-643h315v643h60v-700z" />
    <glyph glyph-name="uni0429" unicode="&#x429;" horiz-adv-x="1027" 
d="M995 -170h-60v170h-838v700h60v-643h315v643h60v-643h315v643h60v-643h88v-227z" />
    <glyph glyph-name="uni042A" unicode="&#x42a;" horiz-adv-x="649" 
d="M365 424c47.333 0 89.166 -9.16895 125.499 -27.502s64.5 -43.666 84.5 -75.999s30 -68.5 30 -108.5s-10 -76.167 -30 -108.5s-48.167 -57.666 -84.5 -75.999s-78.166 -27.5 -125.499 -27.5h-185v643h-170v57h230v-276h125zM365 56.998c52 0 94.667 14 128 42
s50 65.667 50 113s-16.667 85 -50 113s-76 42 -128 42h-125v-310h125z" />
    <glyph glyph-name="uni042B" unicode="&#x42b;" horiz-adv-x="782" 
d="M275 424c47.333 0 89.166 -9.16895 125.499 -27.502s64.5 -43.666 84.5 -75.999s30 -68.5 30 -108.5s-10 -76.167 -30 -108.5s-48.167 -57.666 -84.5 -75.999s-78.166 -27.5 -125.499 -27.5h-178v700h60v-276h118zM625 -0.00195312v700h60v-700h-60zM275 56.998
c52 0 94.667 14 128 42s50 65.667 50 113s-16.667 85 -50 113s-76 42 -128 42h-118v-310h118z" />
    <glyph glyph-name="uni042C" unicode="&#x42c;" horiz-adv-x="571" 
d="M287 424c47.333 0 89.166 -9.16895 125.499 -27.502s64.5 -43.666 84.5 -75.999s30 -68.5 30 -108.5s-10 -76.167 -30 -108.5s-48.167 -57.666 -84.5 -75.999s-78.166 -27.5 -125.499 -27.5h-190v700h60v-276h130zM287 56.998c52 0 94.667 14 128 42s50 65.667 50 113
s-16.667 85 -50 113s-76 42 -128 42h-130v-310h130z" />
    <glyph glyph-name="uni042D" unicode="&#x42d;" horiz-adv-x="768" 
d="M538.5 662c53.667 -32 96.167 -75.6709 127.5 -131.004s47 -115.666 47 -180.999s-15.833 -125.666 -47.5 -180.999s-74.334 -99 -128.001 -131s-112.5 -48 -176.5 -48c-73.333 0 -138.333 20.333 -195 61s-99 95.334 -127 164.001h64
c22.667 -49.333 56.667 -89.666 102 -120.999s97.333 -47 156 -47c50.667 0 97.167 12 139.5 36s76.833 57 103.5 99s42 89 46 141h-350v57h350c-4.66699 51.333 -20.167 97.833 -46.5 139.5s-60.666 74.334 -102.999 98.001s-88.5 35.5 -138.5 35.5
c-56 0 -106.333 -15 -151 -45s-79.667 -71 -105 -123h-63c28 69.333 69.833 124.166 125.5 164.499s120.167 60.5 193.5 60.5c64 0 122.833 -16 176.5 -48z" />
    <glyph glyph-name="uni042E" unicode="&#x42e;" horiz-adv-x="1031" 
d="M801.5 662c53.667 -32 96.167 -75.4971 127.5 -130.497s47 -115.5 47 -181.5s-15.667 -126.5 -47 -181.5s-73.833 -98.5 -127.5 -130.5s-112.834 -48 -177.501 -48c-61.333 0 -117.833 14.667 -169.5 44s-93.5 69.166 -125.5 119.499s-50.333 106.5 -55 168.5h-117v-322
h-60v700h60v-321h117c4.66699 61.333 23 117.166 55 167.499s73.833 90.166 125.5 119.499s108.167 44 169.5 44c64.667 0 123.834 -16 177.501 -48zM770.5 87.0029c44.333 26.667 79.333 63.167 105 109.5s38.5 97.5 38.5 153.5s-12.833 107.167 -38.5 153.5
s-60.667 82.833 -105 109.5s-93.166 40 -146.499 40s-102 -13.333 -146 -40s-78.833 -63.167 -104.5 -109.5s-38.5 -97.5 -38.5 -153.5s12.833 -107.167 38.5 -153.5s60.5 -82.833 104.5 -109.5s92.667 -40 146 -40s102.166 13.333 146.499 40z" />
    <glyph glyph-name="uni042F" unicode="&#x42f;" horiz-adv-x="590" 
d="M493 700v-700h-60v308h-107l-222 -308h-73l226 311c-54 7.33301 -97.333 28.833 -130 64.5s-49 78.5 -49 128.5c0 36.667 9.16699 70 27.5 100s44 53.5 77 70.5s71.167 25.5 114.5 25.5h196zM433 365v278h-136c-48 0 -86.333 -13.167 -115 -39.5s-43 -59.5 -43 -99.5
s14.333 -73.167 43 -99.5s67 -39.5 115 -39.5h136z" />
    <glyph glyph-name="uni0430" unicode="&#x430;" horiz-adv-x="619" 
d="M485 490h57v-490h-57v93c-20 -31.333 -47.333 -56.333 -82 -75s-72.334 -28 -113.001 -28c-45.333 0 -87.166 11.167 -125.499 33.5s-68.666 53 -90.999 92s-33.5 82.167 -33.5 129.5s11.167 90.5 33.5 129.5s52.666 69.667 90.999 92s80.166 33.5 125.499 33.5
c40.667 0 78.334 -9.33301 113.001 -28s62 -43.667 82 -75v93zM391.5 70c29.667 17.333 53.167 41.333 70.5 72s26 65 26 103s-8.66699 72.333 -26 103s-40.833 54.667 -70.5 72s-62.5 26 -98.5 26c-35.333 0 -67.833 -8.66699 -97.5 -26s-53.167 -41.333 -70.5 -72
s-26 -65 -26 -103s8.66699 -72.333 26 -103s40.833 -54.667 70.5 -72s62.167 -26 97.5 -26c36 0 68.833 8.66699 98.5 26z" />
    <glyph glyph-name="uni0431" unicode="&#x431;" horiz-adv-x="587" 
d="M433 447.5c36 -21.667 64.832 -51.3262 86.499 -88.9932s32.5 -78.834 32.5 -123.501s-11.167 -85.834 -33.5 -123.501s-52.333 -67.334 -90 -89.001s-78.5 -32.5 -122.5 -32.5c-44.667 0 -86 10.167 -124 30.5s-68.667 52.666 -92 96.999s-35 100.166 -35 167.499
c0 101.333 14 183.166 42 245.499s69 104.5 123 126.5c30.667 12.667 61.334 22.5 92.001 29.5s68.667 14.167 114 21.5c10 2 22 4.16699 36 6.5s29.667 5.16602 47 8.49902v-57c-18 -4 -42.333 -8.33301 -73 -13c-49.333 -8 -89.166 -15.5 -119.499 -22.5
s-57.5 -16.167 -81.5 -27.5c-34 -16 -61.333 -43.667 -82 -83s-33.334 -87 -38.001 -143c44.667 68.667 111.667 103 201 103c42 0 81 -10.833 117 -32.5zM399.999 69.5078c28.667 17 51.334 40 68.001 69s25 61.167 25 96.5s-8.33301 67.5 -25 96.5s-39.334 52 -68.001 69
s-60 25.5 -94 25.5s-65.5 -8.5 -94.5 -25.5s-51.833 -40 -68.5 -69s-25 -61.167 -25 -96.5s8.33301 -67.5 25 -96.5s39.5 -52 68.5 -69s60.5 -25.5 94.5 -25.5s65.333 8.5 94 25.5z" />
    <glyph glyph-name="uni0432" unicode="&#x432;" horiz-adv-x="498" 
d="M431.5 215c16.333 -21.333 24.5 -46.334 24.5 -75.001c0 -41.333 -15.167 -75 -45.5 -101s-71.833 -39 -124.5 -39h-209v490h196c48.667 0 87.167 -11.667 115.5 -35s42.5 -53.666 42.5 -90.999c0 -21.333 -6 -41.5 -18 -60.5s-28 -33.5 -48 -43.5
c28 -8.66699 50.167 -23.667 66.5 -45zM134 435.999v-155.001h138c30.667 0 55.167 7.33301 73.5 22s27.5 33.334 27.5 56.001c0 24.667 -9 43.667 -27 57s-42.333 20 -73 20h-139zM286 53.998c34 0 61.167 7.5 81.5 22.5s30.5 37.167 30.5 66.5
c0 26 -9.33301 46.833 -28 62.5s-45.667 23.5 -81 23.5h-155v-175h152z" />
    <glyph glyph-name="uni0433" unicode="&#x433;" horiz-adv-x="387" 
d="M134 0h-57v490h300v-54h-243v-436z" />
    <glyph glyph-name="uni0434" unicode="&#x434;" horiz-adv-x="557" 
d="M460 54h73.001v-194h-57v140h-404v-140h-57v194c26.667 1.33301 49.167 12.833 67.5 34.5s29.166 53.167 32.499 94.5l24 307h321v-436zM403.001 54v382h-211l-21 -253c-2.66699 -32.667 -8.16699 -59 -16.5 -79s-19.833 -36.667 -34.5 -50h283z" />
    <glyph glyph-name="uni0435" unicode="&#x435;" horiz-adv-x="564" 
d="M408.5 467.5c37 -21.667 66.002 -51.001 87.002 -88.001s31.5 -77.833 31.5 -122.5c0 -7.33301 -0.666992 -17.666 -2 -30.999h-425c3.33301 -54 22.166 -97.833 56.499 -131.5s76.833 -50.5 127.5 -50.5c39.333 0 73.333 9.16699 102 27.5s50.667 42.833 66 73.5h61
c-20 -50 -49.833 -88.333 -89.5 -115s-86.5 -40 -140.5 -40c-44.667 0 -85.5 11.167 -122.5 33.5s-66.333 53 -88 92s-32.5 82.167 -32.5 129.5s10.833 90.5 32.5 129.5s51.167 69.667 88.5 92s78.666 33.5 123.999 33.5s86.5 -10.833 123.5 -32.5zM161.502 400.499
c-33.667 -30.333 -53.832 -70.833 -60.499 -121.5h366c-2.66699 30.667 -12 58.667 -28 84s-37.333 45.5 -64 60.5s-56.667 22.5 -90 22.5c-48.667 0 -89.834 -15.167 -123.501 -45.5z" />
    <glyph glyph-name="uni0436" unicode="&#x436;" horiz-adv-x="641" 
d="M406 249l228 -249h-72l-214 234v-234h-56v233l-214 -233h-71l228 249l-212 241h67l202 -230v230h56v-230l202 230h68z" />
    <glyph glyph-name="uni0437" unicode="&#x437;" horiz-adv-x="452" 
d="M380 208.5c16.667 -21 25 -46.166 25 -75.499c0 -27.333 -7.66699 -52 -23 -74s-36.833 -39 -64.5 -51s-58.834 -18 -93.501 -18c-52.667 0 -96.5 13.667 -131.5 41s-53.833 63 -56.5 107h57c3.33301 -28 16.5 -50.667 39.5 -68s53.5 -26 91.5 -26
c37.333 0 67 8.33301 89 25s33 39 33 67c0 27.333 -9.83301 49.166 -29.5 65.499s-49.5 24.5 -89.5 24.5h-56v53h57c32 0 57.5 7.5 76.5 22.5s28.5 35.167 28.5 60.5c0 26 -10 46.5 -30 61.5s-46.333 22.5 -79 22.5c-36 0 -64.167 -8.33301 -84.5 -25s-32.5 -38 -36.5 -64
h-57c5.33301 42.667 23.833 77.167 55.5 103.5s72.5 39.5 122.5 39.5c48 0 88 -12.5 120 -37.5s48 -57.833 48 -98.5c0 -24.667 -6.66699 -46.5 -20 -65.5s-33.333 -33.5 -60 -43.5c28.667 -10 51.334 -25.5 68.001 -46.5z" />
    <glyph glyph-name="uni0438" unicode="&#x438;" horiz-adv-x="574" 
d="M134 94l318 396h45v-490h-57v396l-318 -396h-45v490h57v-396z" />
    <glyph glyph-name="uni0439" unicode="&#x439;" horiz-adv-x="574" 
d="M134 94l318 396h45v-490h-57v396l-318 -396h-45v490h57v-396zM193 591c-25.333 23.333 -39.335 54 -42.002 92h55c2.66699 -26 11.667 -45.833 27 -59.5s34.333 -20.5 57 -20.5s41.667 6.83301 57 20.5s24.333 33.5 27 59.5h55c-2.66699 -38 -16.667 -68.667 -42 -92
s-57.666 -35 -96.999 -35s-71.666 11.667 -96.999 35z" />
    <glyph glyph-name="uni043A" unicode="&#x43a;" horiz-adv-x="460" 
d="M194 248l259 -248h-78l-241 232v-232h-57v490h57v-230l230 230h74z" />
    <glyph glyph-name="uni043B" unicode="&#x43b;" horiz-adv-x="547" 
d="M148 490h322v-490h-57v436h-212l-20 -270c-9.33301 -114 -57.666 -171 -144.999 -171h-16v57h16c26.667 0 47.167 9.33301 61.5 28s23.166 50 26.499 94z" />
    <glyph glyph-name="uni043C" unicode="&#x43c;" horiz-adv-x="704" 
d="M595 490l40 -490h-56l-28 379l-185 -379h-28l-186 381l-28 -381h-55l40 490h47l197 -405l197 405h45z" />
    <glyph glyph-name="uni043D" unicode="&#x43d;" horiz-adv-x="569" 
d="M435 277v213h57v-490h-57v223h-301v-223h-57v490h57v-213h301z" />
    <glyph glyph-name="uni043E" unicode="&#x43e;" horiz-adv-x="586" 
d="M165 23.5c-38.667 22.333 -69.167 53 -91.5 92s-33.5 82.167 -33.5 129.5s11.167 90.5 33.5 129.5s52.833 69.667 91.5 92s81.334 33.5 128.001 33.5c46 0 88.333 -11.167 127 -33.5s69.334 -53 92.001 -92s34 -82.167 34 -129.5s-11.333 -90.5 -34 -129.5
s-53.334 -69.667 -92.001 -92s-81 -33.5 -127 -33.5c-46.667 0 -89.334 11.167 -128.001 33.5zM390.5 70c29.667 17.333 53.167 41.333 70.5 72s26 65 26 103s-8.66699 72.333 -26 103s-40.833 54.667 -70.5 72s-62.167 26 -97.5 26s-67.833 -8.66699 -97.5 -26
s-53.167 -41.333 -70.5 -72s-26 -65 -26 -103s8.66699 -72.333 26 -103s40.833 -54.667 70.5 -72s62.167 -26 97.5 -26s67.833 8.66699 97.5 26z" />
    <glyph glyph-name="uni043F" unicode="&#x43f;" horiz-adv-x="561" 
d="M134 0h-57v490h407v-490h-57v436h-293v-436z" />
    <glyph glyph-name="uni0440" unicode="&#x440;" horiz-adv-x="619" 
d="M454.5 466.5c38.333 -22.333 68.666 -53 90.999 -92s33.5 -82.167 33.5 -129.5s-11.167 -90.5 -33.5 -129.5s-52.666 -69.667 -90.999 -92s-80.166 -33.5 -125.499 -33.5c-40.667 0 -78.334 9.33301 -113.001 28s-62 43.667 -82 75v-293h-57v690h57v-93
c20 31.333 47.333 56.333 82 75s72.334 28 113.001 28c45.333 0 87.166 -11.167 125.499 -33.5zM423.5 70c29.667 17.333 53.167 41.333 70.5 72s26 65 26 103s-8.66699 72.333 -26 103s-40.833 54.667 -70.5 72s-62.167 26 -97.5 26c-36 0 -68.833 -8.66699 -98.5 -26
s-53.167 -41.333 -70.5 -72s-26 -65 -26 -103s8.66699 -72.333 26 -103s40.833 -54.667 70.5 -72s62.5 -26 98.5 -26c35.333 0 67.833 8.66699 97.5 26z" />
    <glyph glyph-name="uni0441" unicode="&#x441;" horiz-adv-x="550" 
d="M164 23.5c-38 22.333 -68.167 53 -90.5 92s-33.5 82.167 -33.5 129.5s11.167 90.5 33.5 129.5s52.5 69.667 90.5 92s79.667 33.5 125 33.5c51.333 0 97.833 -13.833 139.5 -41.5s71.5 -65.5 89.5 -113.5h-62c-16 31.333 -39.167 56 -69.5 74s-62.833 27 -97.5 27
s-66.5 -8.66699 -95.5 -26s-52 -41.333 -69 -72s-25.5 -65 -25.5 -103s8.5 -72.333 25.5 -103s40 -54.667 69 -72s60.833 -26 95.5 -26s67.167 9 97.5 27s53.5 42.667 69.5 74h62c-18 -48 -47.833 -85.833 -89.5 -113.5s-88.167 -41.5 -139.5 -41.5
c-45.333 0 -87 11.167 -125 33.5z" />
    <glyph glyph-name="uni0442" unicode="&#x442;" horiz-adv-x="425" 
d="M241 0h-57v436h-174v54h405v-54h-174v-436z" />
    <glyph glyph-name="uni0443" unicode="&#x443;" horiz-adv-x="501" 
d="M257 100l172 390h62l-310 -690h-61l106 235l-221 455h64z" />
    <glyph glyph-name="uni0444" unicode="&#x444;" horiz-adv-x="673" 
d="M369 495c45.333 0 88.333 -10.667 129 -32s73.334 -51 98.001 -89s37 -81 37 -129s-12.333 -91 -37 -129s-57.334 -67.667 -98.001 -89s-83.667 -32 -129 -32h-5v-195h-55v195h-5c-45.333 0 -88.333 10.667 -129 32s-73.334 51 -98.001 89s-37 81 -37 129
s12.333 91 37 129s57.334 67.667 98.001 89s83.667 32 129 32h5v225h55v-225h5zM126.5 143.5c18.333 -29.667 43.166 -52.832 74.499 -69.499s65.666 -25 102.999 -25h5v392h-5c-37.333 0 -71.666 -8.33301 -102.999 -25s-56.166 -39.834 -74.499 -69.501
s-27.5 -63.5 -27.5 -101.5s9.16699 -71.833 27.5 -101.5zM369 49.002c37.333 0 71.666 8.33105 102.999 24.998s56.166 39.834 74.499 69.501s27.5 63.5 27.5 101.5s-9.16699 71.833 -27.5 101.5s-43.166 52.834 -74.499 69.501s-65.666 25 -102.999 25h-5v-392h5z" />
    <glyph glyph-name="uni0445" unicode="&#x445;" horiz-adv-x="519" 
d="M295 256l194 -256h-70l-160 214l-161 -214h-68l193 254l-179 236h70l146 -196l149 196h68z" />
    <glyph glyph-name="uni0446" unicode="&#x446;" horiz-adv-x="572" 
d="M548 -140h-57v140h-414v490h57v-436h284v436h57v-436h73v-194z" />
    <glyph glyph-name="uni0447" unicode="&#x447;" horiz-adv-x="514" 
d="M380 490h56.999v-490h-57v202c-40 -19.333 -82.667 -29 -128 -29c-63.333 0 -111.666 17 -144.999 51s-50 82.333 -50 145v121h57v-121c0 -44.667 10.5 -79.5 31.5 -104.5s57.5 -37.5 109.5 -37.5c41.333 0 83 10 125 30v233z" />
    <glyph glyph-name="uni0448" unicode="&#x448;" horiz-adv-x="783" 
d="M706 0h-629v490h57v-436h229v436h57v-436h229v436h57v-490z" />
    <glyph glyph-name="uni0449" unicode="&#x449;" horiz-adv-x="803" 
d="M779 -140h-57v140h-645v490h57v-436h229v436h57v-436h229v436h57v-436h73v-194z" />
    <glyph glyph-name="uni044A" unicode="&#x44a;" horiz-adv-x="549" 
d="M326 316c58.667 0 104.834 -14.5 138.501 -43.5s50.5 -67.167 50.5 -114.5s-16.833 -85.5 -50.5 -114.5s-79.834 -43.5 -138.501 -43.5h-178v436h-141v54h198v-174h121zM326 54c40 0 71.667 8.5 95 25.5s35 43.167 35 78.5s-11.667 61.5 -35 78.5s-55 25.5 -95 25.5h-121
v-208h121z" />
    <glyph glyph-name="uni044B" unicode="&#x44b;" horiz-adv-x="655" 
d="M249 316c58.667 0 104.834 -14.5 138.501 -43.5s50.5 -67.167 50.5 -114.5s-16.833 -85.5 -50.5 -114.5s-79.834 -43.5 -138.501 -43.5h-172v490h57v-174h115zM521 0v490h57v-490h-57zM249 54c40 0 71.667 8.5 95 25.5s35 43.167 35 78.5s-11.667 61.5 -35 78.5
s-55 25.5 -95 25.5h-115v-208h115z" />
    <glyph glyph-name="uni044C" unicode="&#x44c;" horiz-adv-x="483" 
d="M260 316c58.667 0 104.834 -14.333 138.501 -43s50.5 -67 50.5 -115c0 -47.333 -16.833 -85.5 -50.5 -114.5s-79.834 -43.5 -138.501 -43.5h-183v490h57v-174h126zM260 54c40 0 71.667 8.5 95 25.5s35 43.167 35 78.5s-11.667 61.5 -35 78.5s-55 25.5 -95 25.5h-126v-208
h126z" />
    <glyph glyph-name="uni044D" unicode="&#x44d;" horiz-adv-x="554" 
d="M390.5 466.5c38.333 -22.333 68.5 -53.002 90.5 -92.002s33 -82.167 33 -129.5s-11 -90.5 -33 -129.5s-52.167 -69.667 -90.5 -92s-80.833 -33.5 -127.5 -33.5c-50.667 0 -96.834 13.833 -138.501 41.5s-71.5 65.5 -89.5 113.5h61c16 -31.333 39.167 -56 69.5 -74
s62.833 -27 97.5 -27c32 0 61.833 7.33301 89.5 22s50.5 35.334 68.5 62.001s29 57 33 91h-235v52h235c-4 34 -15 64.333 -33 91s-40.667 47.334 -68 62.001s-57 22 -89 22c-34 0 -66.167 -9 -96.5 -27s-53.833 -42.667 -70.5 -74h-61c18 48 47.833 85.833 89.5 113.5
s87.834 41.5 138.501 41.5c46 0 88.167 -11.167 126.5 -33.5z" />
    <glyph glyph-name="uni044E" unicode="&#x44e;" horiz-adv-x="757" 
d="M594.5 466.5c37.667 -22.333 67.5 -53.002 89.5 -92.002s33 -82.167 33 -129.5s-11 -90.5 -33 -129.5s-51.833 -69.667 -89.5 -92s-79.5 -33.5 -125.5 -33.5c-42.667 0 -81.834 9.83301 -117.501 29.5s-65 46.834 -88 81.501s-36.5 73.667 -40.5 117h-89v-218h-57v490h57
v-218h89c4 43.333 17.5 82.333 40.5 117s52.333 61.834 88 81.501s74.834 29.5 117.501 29.5c46 0 87.833 -11.167 125.5 -33.5zM564.5 69.998c29 17.333 51.833 41.333 68.5 72s25 65 25 103s-8.33301 72.333 -25 103s-39.5 54.667 -68.5 72s-60.833 26 -95.5 26
s-66.5 -8.66699 -95.5 -26s-51.833 -41.333 -68.5 -72s-25 -65 -25 -103s8.33301 -72.333 25 -103s39.5 -54.667 68.5 -72s60.833 -26 95.5 -26s66.5 8.66699 95.5 26z" />
    <glyph glyph-name="uni044F" unicode="&#x44f;" horiz-adv-x="505" 
d="M428 491l-0.000976562 -491.002h-57v190h-104l-158 -190h-70l160 191c-44 4.66699 -78.833 20.834 -104.5 48.501s-38.5 61.167 -38.5 100.5c0 28.667 6.83301 54.334 20.5 77.001s33.334 40.667 59.001 54s55.5 20 89.5 20h203zM370.999 243.998v192.999h-143
c-33.333 0 -60.5 -8.16699 -81.5 -24.5s-31.5 -40.5 -31.5 -72.5c0 -31.333 10.5 -55.166 31.5 -71.499s48.167 -24.5 81.5 -24.5h143z" />
    <glyph glyph-name="uni0451" unicode="&#x451;" horiz-adv-x="564" 
d="M408.5 467.5c37 -21.667 66.002 -51.001 87.002 -88.001s31.5 -77.833 31.5 -122.5c0 -7.33301 -0.666992 -17.666 -2 -30.999h-425c3.33301 -54 22.166 -97.833 56.499 -131.5s76.833 -50.5 127.5 -50.5c39.333 0 73.333 9.16699 102 27.5s50.667 42.833 66 73.5h61
c-20 -50 -49.833 -88.333 -89.5 -115s-86.5 -40 -140.5 -40c-44.667 0 -85.5 11.167 -122.5 33.5s-66.333 53 -88 92s-32.5 82.167 -32.5 129.5s10.833 90.5 32.5 129.5s51.167 69.667 88.5 92s78.666 33.5 123.999 33.5s86.5 -10.833 123.5 -32.5zM161.502 400.499
c-33.667 -30.333 -53.832 -70.833 -60.499 -121.5h366c-2.66699 30.667 -12 58.667 -28 84s-37.333 45.5 -64 60.5s-56.667 22.5 -90 22.5c-48.667 0 -89.834 -15.167 -123.501 -45.5zM232.004 591.999h-70v75h70v-75zM405.004 591.999h-70v75h70v-75z" />
    <glyph glyph-name="uni0452" unicode="&#x452;" horiz-adv-x="572" 
d="M318 -200l0.00195312 54.001h46c24.667 0 44 7.16699 58 21.5s21 34.5 21 60.5v319c0 47.333 -12.5 86 -37.5 116s-61.5 45 -109.5 45c-28.667 0 -54.834 -7 -78.501 -21s-42.334 -32.833 -56.001 -56.5s-20.5 -49.5 -20.5 -77.5v-261h-57v571h-75v51h75v98h57v-98h169
v-51h-169v-188c18 27.333 41.333 48.666 70 63.999s59.667 23 93 23c39.333 0 73.833 -9.16699 103.5 -27.5s52.5 -43.5 68.5 -75.5s24 -68 24 -108v-326c0 -40 -12 -72.167 -36 -96.5s-56.333 -36.5 -97 -36.5h-49z" />
    <glyph glyph-name="uni0453" unicode="&#x453;" horiz-adv-x="387" 
d="M134 0h-57v490h300v-54h-243v-436zM257 564h-58l83 127h66z" />
    <glyph glyph-name="uni0454" unicode="&#x454;" horiz-adv-x="550" 
d="M386.5 71c30.333 18 53.5 42.667 69.5 74h62c-18 -48 -47.833 -85.833 -89.5 -113.5s-88.167 -41.5 -139.5 -41.5c-45.333 0 -87 11.167 -125 33.5s-68.167 53 -90.5 92s-33.5 82.167 -33.5 129.5s11.167 90.5 33.5 129.5s52.5 69.667 90.5 92s79.667 33.5 125 33.5
c51.333 0 97.833 -13.833 139.5 -41.5s71.5 -65.5 89.5 -113.5h-62c-16 31.333 -39.167 56 -69.5 74s-62.833 27 -97.5 27c-32 0 -61.667 -7.5 -89 -22.5s-49.833 -35.833 -67.5 -62.5s-28.5 -56.667 -32.5 -90h233v-52h-233c4 -33.333 14.833 -63.333 32.5 -90
s40.167 -47.5 67.5 -62.5s57 -22.5 89 -22.5c34.667 0 67.167 9 97.5 27z" />
    <glyph glyph-name="uni0455" unicode="&#x455;" horiz-adv-x="485" 
d="M149.5 10c-28.333 13.333 -50.668 31.833 -67.001 55.5s-25.166 50.167 -26.499 79.5h57c2 -30 15 -54.333 39 -73s56 -28 96 -28c36 0 64.833 7.66699 86.5 23s32.5 36 32.5 62c0 20.667 -5.83301 37.167 -17.5 49.5s-26.334 21.5 -44.001 27.5s-41.5 12.333 -71.5 19
c-35.333 8 -63.833 16.167 -85.5 24.5s-40.167 21.666 -55.5 39.999s-23 43.166 -23 74.499c0 25.333 7.5 48.5 22.5 69.5s35.667 37.333 62 49s55.166 17.5 86.499 17.5s60 -6.5 86 -19.5s46.833 -31 62.5 -54s23.834 -48.5 24.501 -76.5h-57
c-1.33301 26.667 -12.833 49.334 -34.5 68.001s-49.5 28 -83.5 28c-30.667 0 -56.667 -7.33301 -78 -22s-32 -34.667 -32 -60c0 -19.333 5.66699 -34.666 17 -45.999s25.166 -19.833 41.499 -25.5s39.5 -12.167 69.5 -19.5c36 -8 65.333 -16.333 88 -25
s41.834 -22.5 57.501 -41.5s23.5 -44.833 23.5 -77.5c0 -42.667 -17.167 -76.5 -51.5 -101.5s-77.166 -37.5 -128.499 -37.5c-36 0 -68.167 6.66699 -96.5 20z" />
    <glyph glyph-name="uni0456" unicode="&#x456;" horiz-adv-x="211" 
d="M134 0h-57v490h57v-490zM140 592h-70v75h70v-75z" />
    <glyph glyph-name="uni0457" unicode="&#x457;" horiz-adv-x="211" 
d="M134 0h-57v490h57v-490zM79 592h-70v75h70v-75zM202 592h-70v75h70v-75z" />
    <glyph glyph-name="uni0458" unicode="&#x458;" horiz-adv-x="211" 
d="M-48 -200v54h46c24.667 0 44 7.16699 58 21.5s21 34.5 21 60.5v554h57v-557c0 -40 -12 -72.167 -36 -96.5s-56.333 -36.5 -97 -36.5h-49zM140 592h-70v75h70v-75z" />
    <glyph glyph-name="uni0459" unicode="&#x459;" horiz-adv-x="771" 
d="M562 306c56 0 100.833 -14.1689 134.5 -42.502s50.5 -65.166 50.5 -110.499s-16.833 -82.166 -50.5 -110.499s-78.5 -42.5 -134.5 -42.5h-172v436h-189l-20 -270c-9.33301 -114 -57.666 -171 -144.999 -171h-16v57h16c26.667 0 47.167 9.33301 61.5 28
s23.166 50 26.499 94l24 316h299v-184h115zM562 53.998c37.333 0 67.666 8.33105 90.999 24.998s35 41.334 35 74.001s-11.667 57.334 -35 74.001s-53.666 25 -90.999 25h-115v-198h115z" />
    <glyph glyph-name="uni045A" unicode="&#x45a;" horiz-adv-x="785" 
d="M584 296c36 0 67.333 -6.5 94 -19.5s47.167 -30.667 61.5 -53s21.5 -47.5 21.5 -75.5s-7.16699 -53.167 -21.5 -75.5s-34.833 -40 -61.5 -53s-58 -19.5 -94 -19.5h-180v242h-270v-242h-57v490h57v-194h270v194h57v-194h123zM584 54c35.333 0 63.833 8 85.5 24
s32.5 39.333 32.5 70s-10.833 54 -32.5 70s-50.167 24 -85.5 24h-123v-188h123z" />
    <glyph glyph-name="uni045B" unicode="&#x45b;" horiz-adv-x="572" 
d="M407.5 442.5c29.667 -18.333 52.502 -43.5 68.502 -75.5s24 -68 24 -108v-259h-57v255c0 47.333 -12.5 86 -37.5 116s-61.5 45 -109.5 45c-28.667 0 -54.834 -7 -78.501 -21s-42.334 -32.833 -56.001 -56.5s-20.5 -49.5 -20.5 -77.5v-261h-57v571h-75v51h75v98h57v-98
h169v-51h-169v-187c18 26.667 41.333 47.667 70 63s59.667 23 93 23c39.333 0 73.833 -9.16699 103.5 -27.5z" />
    <glyph glyph-name="uni045C" unicode="&#x45c;" horiz-adv-x="460" 
d="M194 248l259 -248h-78l-241 232v-232h-57v490h57v-230l230 230h74zM261 564h-58l83 127h66z" />
    <glyph glyph-name="uni045E" unicode="&#x45e;" horiz-adv-x="501" 
d="M257 100l172 390h62l-310 -690h-61l106 235l-221 455h64zM152 591c-25.333 23.333 -39.335 54 -42.002 92h55c2.66699 -26 11.667 -45.833 27 -59.5s34.333 -20.5 57 -20.5s41.667 6.83301 57 20.5s24.333 33.5 27 59.5h55c-2.66699 -38 -16.667 -68.667 -42 -92
s-57.666 -35 -96.999 -35s-71.666 11.667 -96.999 35z" />
    <glyph glyph-name="uni045F" unicode="&#x45f;" horiz-adv-x="552" 
d="M304 -140h-57v140h-170v490h57v-436h284v436h57v-490h-171v-140z" />
    <glyph glyph-name="uni0490" unicode="&#x490;" horiz-adv-x="465" 
d="M157 0h-60v700h291v156h60v-213h-291v-643z" />
    <glyph glyph-name="uni0491" unicode="&#x491;" horiz-adv-x="387" 
d="M134 0h-57v490h243v141h57v-195h-243v-436z" />
    <glyph glyph-name="Wgrave" unicode="&#x1e80;" horiz-adv-x="966" 
d="M690 117l186 583h63l-229 -700h-40l-188 582l-187 -582h-39l-229 700h63l186 -582l188 582h38zM518 769h-59l-92 127h68z" />
    <glyph glyph-name="wgrave" unicode="&#x1e81;" horiz-adv-x="787" 
d="M565 93l153 397h59l-194 -490h-37l-153 393l-153 -393h-36l-194 490h61l151 -396l153 396h37zM428 564h-59l-92 127h68z" />
    <glyph glyph-name="Wacute" unicode="&#x1e82;" horiz-adv-x="966" 
d="M690 117l186 583h63l-229 -700h-40l-188 582l-187 -582h-39l-229 700h63l186 -582l188 582h38zM499 769h-58l83 127h66z" />
    <glyph glyph-name="wacute" unicode="&#x1e83;" horiz-adv-x="787" 
d="M565 93l153 397h59l-194 -490h-37l-153 393l-153 -393h-36l-194 490h61l151 -396l153 396h37zM410 564h-58l83 127h66z" />
    <glyph glyph-name="Wdieresis" unicode="&#x1e84;" horiz-adv-x="966" 
d="M690 117l186 583h63l-229 -700h-40l-188 582l-187 -582h-39l-229 700h63l186 -582l188 582h38zM429 797h-70v75h70v-75zM606 797h-70v75h70v-75z" />
    <glyph glyph-name="wdieresis" unicode="&#x1e85;" horiz-adv-x="787" 
d="M565 93l153 397h59l-194 -490h-37l-153 393l-153 -393h-36l-194 490h61l151 -396l153 396h37zM342 592h-70v75h70v-75zM515 592h-70v75h70v-75z" />
    <glyph glyph-name="uni1E9E" unicode="&#x1e9e;" horiz-adv-x="657" 
d="M390 415c42 -0.666992 79.333 -10.5 112 -29.5s58.167 -44.167 76.5 -75.5s27.5 -65.333 27.5 -102c0 -37.333 -9.5 -72 -28.5 -104s-45.5 -57.333 -79.5 -76s-72.667 -28 -116 -28h-69v57h67c32.667 0 61.334 6.66699 86.001 20s43.834 31.5 57.501 54.5
s20.5 48.5 20.5 76.5s-6.83301 53.5 -20.5 76.5s-32.834 41.167 -57.501 54.5s-53.334 20 -86.001 20h-67v41l163 243h-174c-43.333 0 -78.333 -14 -105 -42s-40 -65.333 -40 -112v-489h-60v491c0 40 8.83301 76 26.5 108s42 56.833 73 74.5s65.5 26.5 103.5 26.5h251v-46z
" />
    <glyph glyph-name="Ygrave" unicode="&#x1ef2;" horiz-adv-x="543" 
d="M273 371l186 329h67l-224 -389v-311h-60v311l-225 389h69zM307 769h-59l-92 127h68z" />
    <glyph glyph-name="ygrave" unicode="&#x1ef3;" horiz-adv-x="501" 
d="M257 100l172 390h62l-310 -690h-61l106 235l-221 455h64zM284 564h-59l-92 127h68z" />
    <glyph glyph-name="endash" unicode="&#x2013;" horiz-adv-x="600" 
d="M548 228h-496v51h496v-51z" />
    <glyph glyph-name="emdash" unicode="&#x2014;" horiz-adv-x="1000" 
d="M948 228h-896v51h896v-51z" />
    <glyph glyph-name="quoteleft" unicode="&#x2018;" horiz-adv-x="199" 
d="M109 491h-70l69 209h52z" />
    <glyph glyph-name="quoteright" unicode="&#x2019;" horiz-adv-x="199" 
d="M92 491h-53l51 209h70z" />
    <glyph glyph-name="quotesinglbase" unicode="&#x201a;" horiz-adv-x="199" 
d="M92 -133h-53l51 209h70z" />
    <glyph glyph-name="quotedblleft" unicode="&#x201c;" horiz-adv-x="351" 
d="M109 491h-70l69 209h52zM261 491h-70l69 209h52z" />
    <glyph glyph-name="quotedblright" unicode="&#x201d;" horiz-adv-x="351" 
d="M92 491h-53l51 209h70zM244 491h-53l51 209h70z" />
    <glyph glyph-name="quotedblbase" unicode="&#x201e;" horiz-adv-x="351" 
d="M92 -133h-53l51 209h70zM244 -133h-53l51 209h70z" />
    <glyph glyph-name="dagger" unicode="&#x2020;" horiz-adv-x="443" 
d="M250 522h141v-54h-141v-468h-57v468h-141v54h141v178h57v-178z" />
    <glyph glyph-name="daggerdbl" unicode="&#x2021;" horiz-adv-x="443" 
d="M391 522v-54h-141v-236h141v-54h-141v-178h-57v178h-141v54h141v236h-141v54h141v178h57v-178h141z" />
    <glyph glyph-name="bullet" unicode="&#x2022;" horiz-adv-x="375" 
d="M129 196c-16.667 16.667 -24.998 36.334 -24.998 59.001s8.16699 42 24.5 58s36.166 24 59.499 24c22.667 0 42.167 -8 58.5 -24s24.5 -35.333 24.5 -58s-8.16699 -42.334 -24.5 -59.001s-35.833 -25 -58.5 -25s-42.334 8.33301 -59.001 25z" />
    <glyph glyph-name="ellipsis" unicode="&#x2026;" horiz-adv-x="689" 
d="M146 0h-69v76h69v-76zM379 0h-69v76h69v-76zM612 0h-69v76h69v-76z" />
    <glyph glyph-name="perthousand" unicode="&#x2030;" horiz-adv-x="1199" 
d="M131.5 399.5c-25.667 15 -45.834 35.167 -60.501 60.5s-22 53.333 -22 84c0 30 7.33301 57.833 22 83.5s34.834 45.834 60.501 60.501s53.834 22 84.501 22s58.834 -7.33301 84.501 -22s46 -34.834 61 -60.501s22.5 -53.5 22.5 -83.5c0 -30.667 -7.5 -58.667 -22.5 -84
s-35.333 -45.5 -61 -60.5s-53.834 -22.5 -84.501 -22.5s-58.834 7.5 -84.501 22.5zM202 0h-64l480 700h64zM297.5 459.5c21.667 22.333 32.5 50.5 32.5 84.5s-10.833 62 -32.5 84s-48.834 33 -81.501 33c-32 0 -59 -11 -81 -33s-33 -50 -33 -84s11 -62.167 33 -84.5
s49 -33.5 81 -33.5c32.667 0 59.834 11.167 81.501 33.5zM519.5 12c-25.667 14.667 -46 34.834 -61 60.501s-22.5 53.5 -22.5 83.5c0 30.667 7.5 58.667 22.5 84s35.333 45.5 61 60.5s53.834 22.5 84.501 22.5s58.834 -7.5 84.501 -22.5s45.834 -35.167 60.501 -60.5
s22 -53.333 22 -84c0 -30 -7.33301 -57.833 -22 -83.5s-34.834 -45.834 -60.501 -60.501s-53.834 -22 -84.501 -22s-58.834 7.33301 -84.501 22zM898.5 12c-25.667 14.667 -46 34.834 -61 60.501s-22.5 53.5 -22.5 83.5c0 30.667 7.5 58.667 22.5 84s35.333 45.5 61 60.5
s53.834 22.5 84.501 22.5s58.834 -7.5 84.501 -22.5s45.834 -35.167 60.501 -60.5s22 -53.333 22 -84c0 -30 -7.33301 -57.833 -22 -83.5s-34.834 -45.834 -60.501 -60.501s-53.834 -22 -84.501 -22s-58.834 7.33301 -84.501 22zM685 72c22 22 33 50 33 84
s-11 62.167 -33 84.5s-49 33.5 -81 33.5c-32.667 0 -59.834 -11.167 -81.501 -33.5s-32.5 -50.5 -32.5 -84.5s10.833 -62 32.5 -84s48.834 -33 81.501 -33c32 0 59 11 81 33zM1064 72c22 22 33 50 33 84s-11 62.167 -33 84.5s-49 33.5 -81 33.5
c-32.667 0 -59.834 -11.167 -81.501 -33.5s-32.5 -50.5 -32.5 -84.5s10.833 -62 32.5 -84s48.834 -33 81.501 -33c32 0 59 11 81 33z" />
    <glyph glyph-name="guilsinglleft" unicode="&#x2039;" horiz-adv-x="287" 
d="M233 79h-66l-142 176l142 176h66l-141 -176z" />
    <glyph glyph-name="guilsinglright" unicode="&#x203a;" horiz-adv-x="287" 
d="M121 79h-67l142 176l-142 176h67l141 -176z" />
    </font>
</defs>
</svg>
