<svg xmlns="http://www.w3.org/2000/svg">
<defs>
<font id="TTForsTrial-ExtraLight" horiz-adv-x="524" >
  <font-face 
    font-family="TT Fors Trial ExtraLight"
    font-weight="200"
    font-stretch="normal"
    units-per-em="1000"
    panose-1="2 11 0 3 3 0 1 2 0 0"
    ascent="800"
    descent="-200"
    x-height="490"
    cap-height="700"
    bbox="-293.998 -225.002 1438 926.001"
    underline-thickness="34"
    underline-position="-172"
    unicode-range="U+000D-U+FB04"
  />
<missing-glyph horiz-adv-x="900" 
d="M100 0l-0.000976562 283.999h45v-139h33v139h50v31h-128v126l19 -61h23l34 106l33 -106h23l54 170h-32l-34 -110l-35 110h-19l-35 -110l-31 103v157h700v-150h-110v-170h110v-91c-4 8.66699 -10.5 15.334 -19.5 20.001s-19.167 7 -30.5 7
c-18 0 -32.5 -4.83301 -43.5 -14.5s-16.5 -21.167 -16.5 -34.5c0 -14.667 4.83301 -25.5 14.5 -32.5s22.834 -12.833 39.501 -17.5c11.333 -3.33301 19.833 -6.5 25.5 -9.5s8.5 -7.5 8.5 -13.5c0 -14 -9.33301 -21 -28 -21c-9.33301 0 -16.333 2.33301 -21 7
s-7 10.667 -7 18h-33c0 -16 5.66699 -29.167 17 -39.5s26 -15.5 44 -15.5c11.333 0 21.5 2.16699 30.5 6.5s15.5 8.83301 19.5 13.5v-163h-700zM310.999 379.999h33.001v62h24l35 -62h37l-40 67c24 11.333 36 28 36 50c0 14.667 -5.33301 27.167 -16 37.5
s-24.334 15.5 -41.001 15.5h-68v-170zM469 549.999v-170h33v170h-33zM580 518.999v-139h32v139h50v31h-132v-31h50zM344 472.999l-0.000976562 46h35c6.66699 0 12.334 -2.16699 17.001 -6.5s7 -9.83301 7 -16.5c0 -8 -2.5 -13.833 -7.5 -17.5s-10.5 -5.5 -16.5 -5.5h-35z
M799.999 482.999h-78v36h78v-36zM799.999 410.999h-78v41h78v-41zM387.499 167.499c15 16.333 22.5 36.833 22.5 61.5s-7.66699 45.334 -23 62.001s-35 25 -59 25s-43.667 -8.33301 -59 -25s-23 -37.334 -23 -62.001s7.5 -45.167 22.5 -61.5s34.833 -24.5 59.5 -24.5
s44.5 8.16699 59.5 24.5zM632.999 161.999c12.667 12.667 18.999 28.334 18.999 47.001v106h-32v-106c0 -10 -3.16699 -18.333 -9.5 -25s-14.833 -10 -25.5 -10c-11.333 0 -20.166 3.5 -26.499 10.5s-9.5 15.167 -9.5 24.5v106h-32v-106c0 -18.667 6.5 -34.334 19.5 -47.001

<glyph glyph-name="f_f_l.liga.ss04" unicode="ff&#xe02c;" horiz-adv-x="790" 
d="M766 38l0.000976562 -38.0029h-48c-36.667 0 -65.167 10.833 -85.5 32.5s-30.5 50.834 -30.5 87.501v562h-127c-24.667 0 -43.834 -7.16699 -57.501 -21.5s-20.5 -34.833 -20.5 -61.5v-109h125v-38h-125v-452h-39v452h-205v-452h-39v452h-80v38h80v110
c0 36.667 10.167 65.834 30.5 87.501s48.833 32.5 85.5 32.5h48v-38h-47c-24.667 0 -43.834 -7.16699 -57.501 -21.5s-20.5 -34.833 -20.5 -61.5v-109h205v110c0 36.667 10.167 65.834 30.5 87.501s48.833 32.5 85.5 32.5h167v-599c0 -26.667 6.83301 -47.167 20.5 -61.5
s32.834 -21.5 57.501 -21.5h47z" />
    <glyph glyph-name="f_l.liga.ss04" unicode="f&#xe02c;" horiz-adv-x="546" 
d="M522 38v-38.002h-48c-36.667 0 -65.167 10.833 -85.5 32.5s-30.5 50.834 -30.5 87.501v562h-127c-24.667 0 -43.834 -7.16699 -57.501 -21.5s-20.5 -34.833 -20.5 -61.5v-109h125v-38h-125v-452h-39v452h-80v38h80v110c0 36.667 10.167 65.834 30.5 87.501
s48.833 32.5 85.5 32.5h167v-599c0 -26.667 6.83301 -47.167 20.5 -61.5s32.834 -21.5 57.501 -21.5h47z" />
    <glyph glyph-name="f_f_i.liga.ss07" unicode="ff&#xe117;" horiz-adv-x="720" 
d="M397 490l244.002 -0.00195312v-490h-39v452h-205v-452h-39v452h-205v-452h-39v452h-80v38h80v110c0 36.667 10.167 65.834 30.5 87.501s48.833 32.5 85.5 32.5h48v-38h-47c-24.667 0 -43.834 -7.16699 -57.501 -21.5s-20.5 -34.833 -20.5 -61.5v-109h205v110
c0 36.667 10.167 65.834 30.5 87.501s48.833 32.5 85.5 32.5h48v-38h-47c-24.667 0 -43.834 -7.16699 -57.501 -21.5s-20.5 -34.833 -20.5 -61.5v-109zM643.002 650.498c6 -6.33301 9.00098 -13.5 9.00098 -21.5c0 -8.66699 -2.83301 -15.834 -8.5 -21.501
s-12.834 -8.5 -21.501 -8.5s-16 2.83301 -22 8.5s-9 12.834 -9 21.501c0 8 3 15.167 9 21.5s13.333 9.5 22 9.5c8 0 15 -3.16699 21 -9.5z" />
    <glyph glyph-name="fi.liga.ss07" unicode="f&#xe117;" horiz-adv-x="476" 
d="M153 490l244.001 -0.000976562v-490h-39v452h-205v-452h-39v452h-80v38h80v110c0 36.667 10.167 65.834 30.5 87.501s48.833 32.5 85.5 32.5h48v-38h-47c-24.667 0 -43.834 -7.16699 -57.501 -21.5s-20.5 -34.833 -20.5 -61.5v-109zM399.001 650.499
c6 -6.33301 9.00098 -13.5 9.00098 -21.5c0 -8.66699 -2.83301 -15.834 -8.5 -21.501s-12.834 -8.5 -21.501 -8.5s-16 2.83301 -22 8.5s-9 12.834 -9 21.501c0 8 3 15.167 9 21.5s13.333 9.5 22 9.5c8 0 15 -3.16699 21 -9.5z" />
    <glyph glyph-name="f_f.liga" unicode="ff" horiz-adv-x="546" 
d="M475 682c-24.667 0 -43.832 -7.16895 -57.499 -21.502s-20.5 -34.833 -20.5 -61.5v-109h125v-38h-125v-452h-39v452h-205v-452h-39v452h-80v38h80v110c0 36.667 10.167 65.834 30.5 87.501s48.833 32.5 85.5 32.5h48v-38h-47c-24.667 0 -43.834 -7.16699 -57.501 -21.5
s-20.5 -34.833 -20.5 -61.5v-109h205v110c0 36.667 10.167 65.834 30.5 87.501s48.833 32.5 85.5 32.5h48v-38h-47z" />
    <glyph glyph-name="fi.liga" unicode="fi" horiz-adv-x="476" 
d="M153 490l244.001 -0.000976562v-490h-39v452h-205v-452h-39v452h-80v38h80v110c0 36.667 10.167 65.834 30.5 87.501s48.833 32.5 85.5 32.5h48v-38h-47c-24.667 0 -43.834 -7.16699 -57.501 -21.5s-20.5 -34.833 -20.5 -61.5v-109zM351.001 599.999v58h53v-58h-53z" />
    <glyph glyph-name="f_l.liga" unicode="fl" horiz-adv-x="481" 
d="M397 720l0.000976562 -720.001h-39v682h-127c-24.667 0 -43.834 -7.16699 -57.501 -21.5s-20.5 -34.833 -20.5 -61.5v-109h125v-38h-125v-452h-39v452h-80v38h80v110c0 36.667 10.167 65.834 30.5 87.501s48.833 32.5 85.5 32.5h167z" />
    <glyph glyph-name="f_f_i.liga" unicode="ffi" horiz-adv-x="720" 
d="M397 490l244.002 -0.00195312v-490h-39v452h-205v-452h-39v452h-205v-452h-39v452h-80v38h80v110c0 36.667 10.167 65.834 30.5 87.501s48.833 32.5 85.5 32.5h48v-38h-47c-24.667 0 -43.834 -7.16699 -57.501 -21.5s-20.5 -34.833 -20.5 -61.5v-109h205v110
c0 36.667 10.167 65.834 30.5 87.501s48.833 32.5 85.5 32.5h48v-38h-47c-24.667 0 -43.834 -7.16699 -57.501 -21.5s-20.5 -34.833 -20.5 -61.5v-109zM595.002 599.998v58h53v-58h-53z" />
    <glyph glyph-name="f_f_l.liga" unicode="ffl" horiz-adv-x="725" 
d="M641 720l0.00195312 -720.002h-39v682h-127c-24.667 0 -43.834 -7.16699 -57.501 -21.5s-20.5 -34.833 -20.5 -61.5v-109h125v-38h-125v-452h-39v452h-205v-452h-39v452h-80v38h80v110c0 36.667 10.167 65.834 30.5 87.501s48.833 32.5 85.5 32.5h48v-38h-47
c-24.667 0 -43.834 -7.16699 -57.501 -21.5s-20.5 -34.833 -20.5 -61.5v-109h205v110c0 36.667 10.167 65.834 30.5 87.501s48.833 32.5 85.5 32.5h167z" />
    <glyph glyph-name=".notdef" horiz-adv-x="900" 
d="M100 0l-0.000976562 283.999h45v-139h33v139h50v31h-128v126l19 -61h23l34 106l33 -106h23l54 170h-32l-34 -110l-35 110h-19l-35 -110l-31 103v157h700v-150h-110v-170h110v-91c-4 8.66699 -10.5 15.334 -19.5 20.001s-19.167 7 -30.5 7
c-18 0 -32.5 -4.83301 -43.5 -14.5s-16.5 -21.167 -16.5 -34.5c0 -14.667 4.83301 -25.5 14.5 -32.5s22.834 -12.833 39.501 -17.5c11.333 -3.33301 19.833 -6.5 25.5 -9.5s8.5 -7.5 8.5 -13.5c0 -14 -9.33301 -21 -28 -21c-9.33301 0 -16.333 2.33301 -21 7
s-7 10.667 -7 18h-33c0 -16 5.66699 -29.167 17 -39.5s26 -15.5 44 -15.5c11.333 0 21.5 2.16699 30.5 6.5s15.5 8.83301 19.5 13.5v-163h-700zM310.999 379.999h33.001v62h24l35 -62h37l-40 67c24 11.333 36 28 36 50c0 14.667 -5.33301 27.167 -16 37.5
s-24.334 15.5 -41.001 15.5h-68v-170zM469 549.999v-170h33v170h-33zM580 518.999v-139h32v139h50v31h-132v-31h50zM344 472.999l-0.000976562 46h35c6.66699 0 12.334 -2.16699 17.001 -6.5s7 -9.83301 7 -16.5c0 -8 -2.5 -13.833 -7.5 -17.5s-10.5 -5.5 -16.5 -5.5h-35z
M799.999 482.999h-78v36h78v-36zM799.999 410.999h-78v41h78v-41zM387.499 167.499c15 16.333 22.5 36.833 22.5 61.5s-7.66699 45.334 -23 62.001s-35 25 -59 25s-43.667 -8.33301 -59 -25s-23 -37.334 -23 -62.001s7.5 -45.167 22.5 -61.5s34.833 -24.5 59.5 -24.5
s44.5 8.16699 59.5 24.5zM632.999 161.999c12.667 12.667 18.999 28.334 18.999 47.001v106h-32v-106c0 -10 -3.16699 -18.333 -9.5 -25s-14.833 -10 -25.5 -10c-11.333 0 -20.166 3.5 -26.499 10.5s-9.5 15.167 -9.5 24.5v106h-32v-106c0 -18.667 6.5 -34.334 19.5 -47.001
s29.167 -19 48.5 -19s35.333 6.33301 48 19zM799.998 223.999c-10 9.33301 -25.332 16.667 -45.999 22c-10.667 3.33301 -18.334 6.33301 -23.001 9s-7 6.66699 -7 12c0 6 2.5 10.833 7.5 14.5s11.167 5.5 18.5 5.5c6.66699 0 12.667 -2.33301 18 -7s8 -10.667 8 -18h24v-38
zM291.499 190c-9.66699 10.667 -14.4971 23.667 -14.4971 39c0 16.667 4.66699 30.167 14 40.5s21.666 15.5 36.999 15.5c16 0 28.5 -5.16699 37.5 -15.5s13.5 -23.833 13.5 -40.5c0 -15.333 -4.83301 -28.333 -14.5 -39s-21.834 -16 -36.501 -16
s-26.834 5.33301 -36.501 16z" />
    <glyph glyph-name="nonmarkingreturn" unicode="&#xd;" horiz-adv-x="600" 
 />
    <glyph glyph-name="space" unicode=" " horiz-adv-x="272" 
 />
    <glyph glyph-name="exclam" unicode="!" horiz-adv-x="267" 
d="M152 161h-37l-3 539h43zM158 0h-50v55h50v-55z" />
    <glyph glyph-name="quotedbl" unicode="&#x22;" horiz-adv-x="317" 
d="M104 493h-28l-8 207h45zM240 493h-28l-8 207h45z" />
    <glyph glyph-name="numbersign" unicode="#" horiz-adv-x="670" 
d="M656 502l-10 -37h-142l-60 -230h141l-10 -37h-141l-52 -198h-39l52 198h-200l-52 -198h-39l52 198h-142l10 37h142l60 230h-141l10 37h141l52 198h39l-52 -198h200l52 198h39l-52 -198h142zM205 235h200l60 230h-200z" />
    <glyph glyph-name="dollar" unicode="$" horiz-adv-x="562" 
d="M478 81c-17.333 -26.667 -41.1641 -47.8359 -71.4971 -63.5029s-64.166 -24.5 -101.499 -26.5v-96h-39v96c-62.667 4 -112.667 25.333 -150 64s-56.666 87 -57.999 145h40c1.33301 -30 9.16602 -58 23.499 -84s35.5 -47 63.5 -63s62 -24 102 -24
c38 0 70.167 6.83301 96.5 20.5s46.166 31.334 59.499 53.001s20 44.834 20 69.501c0 34 -8.33301 61.5 -25 82.5s-37 37 -61 48s-57 23.167 -99 36.5c-44 14 -79.333 27.333 -106 40s-49.334 31.334 -68.001 56.001s-28 57.334 -28 98.001
c0 48.667 17.833 89.334 53.5 122.001s81.167 50.667 136.5 54v96h39v-96c34 -2.66699 65 -13 93 -31s50.5 -41.167 67.5 -69.5s25.833 -59.5 26.5 -93.5h-40c-1.33301 26.667 -8.83301 52 -22.5 76s-33.167 43.333 -58.5 58s-55 22 -89 22
c-33.333 0 -62.5 -6.16699 -87.5 -18.5s-44.167 -29 -57.5 -50s-20 -44.167 -20 -69.5c0 -32 8 -57.833 24 -77.5s35.667 -34.834 59 -45.501s55.333 -22.334 96 -35.001c45.333 -14.667 81.666 -28.5 108.999 -41.5s50.666 -32.5 69.999 -58.5s29 -60.333 29 -103
c0 -34 -8.66699 -64.333 -26 -91z" />
    <glyph glyph-name="percent" unicode="%" horiz-adv-x="809" 
d="M133 405.5c-24.667 14.333 -44.167 34 -58.5 59s-21.5 52.5 -21.5 82.5s7.16699 57.5 21.5 82.5s33.833 44.667 58.5 59s52 21.5 82 21.5s57.333 -7.16699 82 -21.5s44.167 -34 58.5 -59s21.5 -52.5 21.5 -82.5s-7.16699 -57.5 -21.5 -82.5s-33.833 -44.667 -58.5 -59
s-52 -21.5 -82 -21.5s-57.333 7.16699 -82 21.5zM187 0h-45l480 700h45zM303.5 457c23.667 24 35.5 54 35.5 90c0 36.667 -11.833 67 -35.5 91s-53.167 36 -88.5 36s-64.833 -12 -88.5 -36s-35.5 -54.333 -35.5 -91c0 -36 11.833 -66 35.5 -90s53.167 -36 88.5 -36
s64.833 12 88.5 36zM513 11.5c-24.667 14.333 -44.167 34 -58.5 59s-21.5 52.5 -21.5 82.5s7.16699 57.5 21.5 82.5s33.833 44.667 58.5 59s52 21.5 82 21.5s57.333 -7.16699 82 -21.5s44 -34 58 -59s21 -52.5 21 -82.5s-7 -57.5 -21 -82.5s-33.333 -44.667 -58 -59
s-52 -21.5 -82 -21.5s-57.333 7.16699 -82 21.5zM683.5 62c23.667 24 35.5 54.334 35.5 91.001c0 36 -11.833 66 -35.5 90s-53.167 36 -88.5 36s-64.833 -11.833 -88.5 -35.5s-35.5 -53.834 -35.5 -90.501s11.833 -67 35.5 -91s53.167 -36 88.5 -36s64.833 12 88.5 36z" />
    <glyph glyph-name="ampersand" unicode="&#x26;" horiz-adv-x="622" 
d="M613 286l-128 -141.997l128 -144h-54l-101 114l-2 -2c-39.333 -44 -74.666 -75.333 -105.999 -94s-67.333 -28 -108 -28c-39.333 0 -72.5 7.5 -99.5 22.5s-47.167 34.833 -60.5 59.5s-20 51.334 -20 80.001c0 33.333 6.33301 63.166 19 89.499s33 51.5 61 75.5l78 66
l-36 40c-25.333 27.333 -43.333 50.666 -54 69.999s-16 42.666 -16 69.999c0 42 13.667 77 41 105s62.666 42 105.999 42c42.667 0 78.167 -13.333 106.5 -40s42.5 -60.334 42.5 -101.001c0 -30 -7.5 -56.333 -22.5 -79s-40.833 -49.667 -77.5 -81l-36 -30l185 -207l103 114
h51zM249 407.003l29 24.999c32.667 28 56.334 51.333 71.001 70s22 41 22 67c0 30 -10.5 54.667 -31.5 74s-47.167 29 -78.5 29c-30.667 0 -56.334 -9.83301 -77.001 -29.5s-31 -46.167 -31 -79.5c0 -22 4.5 -40.667 13.5 -56s24.833 -35.666 47.5 -60.999zM433 142.002
l-187.997 211.999l-79 -67c-24 -20.667 -40.833 -41.667 -50.5 -63s-14.5 -45 -14.5 -71c0 -35.333 12.167 -65 36.5 -89s59.166 -36 104.499 -36c33.333 0 63.666 7.83301 90.999 23.5s58.666 43.834 93.999 84.501z" />
    <glyph glyph-name="quotesingle" unicode="'" horiz-adv-x="181" 
d="M104 493h-28l-8 207h45z" />
    <glyph glyph-name="parenleft" unicode="(" horiz-adv-x="250" 
d="M205 -200c-32 48.667 -61.167 114.998 -87.5 198.998s-39.5 172.667 -39.5 266s13.167 182 39.5 266s55.5 150.333 87.5 199h41c-32.667 -50 -62.334 -117.167 -89.001 -201.5s-40 -172.166 -40 -263.499s13.333 -179.166 40 -263.499s56.334 -151.5 89.001 -201.5h-41z
" />
    <glyph glyph-name="parenright" unicode=")" horiz-adv-x="250" 
d="M4 -200c32.667 50 62.334 117.169 89.001 201.502s40 172.166 40 263.499s-13.333 179.166 -40 263.499s-56.334 151.5 -89.001 201.5h41c32 -48.667 61.167 -115 87.5 -199s39.5 -172.667 39.5 -266s-13.167 -182 -39.5 -266s-55.5 -150.333 -87.5 -199h-41z" />
    <glyph glyph-name="asterisk" unicode="*" horiz-adv-x="440" 
d="M390 593l11 -44l-153 -37l103 -128l-37 -26l-94 138l-93 -138l-37 26l103 128l-154 37l11 44l154 -52l-6 159h45l-7 -159z" />
    <glyph glyph-name="plus" unicode="+" 
d="M282 359h216v-38h-216v-217h-38v217h-217v38h217v217h38v-217z" />
    <glyph glyph-name="comma" unicode="," horiz-adv-x="214" 
d="M79 -133h-36l48 188h50z" />
    <glyph glyph-name="hyphen" unicode="-" horiz-adv-x="360" 
d="M306 234h-252v39h252v-39z" />
    <glyph glyph-name="period" unicode="." horiz-adv-x="208" 
d="M129 0h-50v55h50v-55z" />
    <glyph glyph-name="slash" unicode="/" horiz-adv-x="325" 
d="M41 -200h-41l284 930h41z" />
    <glyph glyph-name="zero" unicode="0" horiz-adv-x="611" 
d="M179 34c-36.667 29.333 -65 70.998 -85 124.998s-30 117.667 -30 191s10 137 30 191s48.333 95.667 85 125s79 44 127 44s90.167 -14.667 126.5 -44s64.5 -71.166 84.5 -125.499s30 -117.833 30 -190.5s-10 -136.167 -30 -190.5s-48.167 -96.166 -84.5 -125.499
s-78.5 -44 -126.5 -44s-90.333 14.667 -127 44zM409.5 67.498c30.333 25.667 54.166 62.667 71.499 111s26 105.5 26 171.5s-8.66699 123.167 -26 171.5s-41.166 85.333 -71.499 111s-64.833 38.5 -103.5 38.5s-73.167 -12.833 -103.5 -38.5s-54.166 -62.667 -71.499 -111
s-26 -105.5 -26 -171.5s8.66699 -123.167 26 -171.5s41.166 -85.333 71.499 -111s64.833 -38.5 103.5 -38.5s73.167 12.833 103.5 38.5z" />
    <glyph glyph-name="one" unicode="1" horiz-adv-x="331" 
d="M28 623l167 77h27v-700h-40v652l-154 -72v43z" />
    <glyph glyph-name="two" unicode="2" horiz-adv-x="512" 
d="M103 40l365 -0.00292969v-40h-429v26l274 311c36 40.667 60.167 73.834 72.5 99.501s18.5 52.167 18.5 79.5c0 46.667 -14.667 84.167 -44 112.5s-68.666 42.5 -117.999 42.5c-45.333 0 -83.333 -13.5 -114 -40.5s-47.334 -65.833 -50.001 -116.5h-40
c1.33301 40 11 74.833 29 104.5s42.333 52.334 73 68.001s64.667 23.5 102 23.5c38 0 72.333 -7.83301 103 -23.5s55 -38.167 73 -67.5s27 -63.666 27 -102.999c0 -32 -7.5 -62.833 -22.5 -92.5s-42.833 -67.5 -83.5 -113.5z" />
    <glyph glyph-name="three" unicode="3" horiz-adv-x="531" 
d="M440.5 296.5c24.333 -32.333 36.499 -69.501 36.499 -111.501c0 -37.333 -9 -70.833 -27 -100.5s-42.833 -52.834 -74.5 -69.501s-67.5 -25 -107.5 -25c-44 0 -82.5 9.16699 -115.5 27.5s-58.333 43 -76 74s-27.167 65.167 -28.5 102.5h40
c1.33301 -29.333 9.33301 -56.666 24 -81.999s35.334 -45.5 62.001 -60.5s58 -22.5 94 -22.5c51.333 0 92.166 15 122.499 45s45.5 67.667 45.5 113c0 28 -6.83301 53.667 -20.5 77s-33.667 42 -60 56s-57.166 21 -92.499 21h-49v39h49c30.667 0 57.667 6.66699 81 20
s41.166 31.333 53.499 54s18.5 47.334 18.5 74.001c0 42.667 -14.5 77.167 -43.5 103.5s-65.5 39.5 -109.5 39.5c-45.333 0 -82.666 -14.5 -111.999 -43.5s-45.666 -65.5 -48.999 -109.5h-40c2 34.667 11.167 66.5 27.5 95.5s39.333 52.333 69 70s64.5 26.5 104.5 26.5
c36 0 68.833 -7.83301 98.5 -23.5s53 -37.167 70 -64.5s25.5 -58 25.5 -92c0 -39.333 -9.83301 -73.5 -29.5 -102.5s-47.167 -50.5 -82.5 -64.5c39.333 -12 71.166 -34.167 95.499 -66.5z" />
    <glyph glyph-name="four" unicode="4" horiz-adv-x="533" 
d="M399 215h109v-38h-109v-177h-40v177h-335v26l348 497h27v-485zM359 617l-280 -402h280v402z" />
    <glyph glyph-name="five" unicode="5" horiz-adv-x="539" 
d="M376 424c34 -20.667 60.668 -48.834 80.001 -84.501s29 -74.5 29 -116.5c0 -42.667 -9.66699 -81.667 -29 -117s-46 -63.5 -80 -84.5s-72.667 -31.5 -116 -31.5c-34.667 0 -67.5 7.16699 -98.5 21.5s-57 34.5 -78 60.5s-34.167 55.667 -39.5 89h41
c8.66699 -38 28.667 -69.5 60 -94.5s69.333 -37.5 114 -37.5c36.667 0 69.167 8.66699 97.5 26s50.166 40.833 65.499 70.5s23 62.167 23 97.5c0 34.667 -7.66699 66.667 -23 96s-37 52.833 -65 70.5s-60 26.5 -96 26.5c-33.333 0 -61.333 -5.66699 -84 -17
s-42.667 -26.666 -60 -45.999l-26 12l85 335h295v-39h-266l-60 -237c34.667 20.667 73.667 31 117 31c42 0 80 -10.333 114 -31z" />
    <glyph glyph-name="six" unicode="6" horiz-adv-x="539" 
d="M386 418.5c33.333 -20.333 59.833 -48 79.5 -83s29.5 -73.5 29.5 -115.5c0 -41.333 -9.83301 -79.666 -29.5 -114.999s-46.667 -63.333 -81 -84s-72.5 -31 -114.5 -31c-42.667 0 -81.167 10.333 -115.5 31s-61.333 48.667 -81 84s-29.5 73.666 -29.5 114.999
c0 26 4.5 51.5 13.5 76.5s24.167 54.167 45.5 87.5l207 316h48l-182 -273c14.667 6.66699 30.834 12 48.501 16s35.167 6 52.5 6c39.333 0 75.666 -10.167 108.999 -30.5zM365.5 55c28.333 17.333 50.333 40.666 66 69.999s23.5 61 23.5 95s-7.83301 65.667 -23.5 95
s-37.667 52.666 -66 69.999s-60.166 26 -95.499 26s-67.166 -8.66699 -95.499 -26s-50.333 -40.666 -66 -69.999s-23.5 -61 -23.5 -95s7.83301 -65.667 23.5 -95s37.667 -52.666 66 -69.999s60.166 -26 95.499 -26s67.166 8.66699 95.499 26z" />
    <glyph glyph-name="seven" unicode="7" horiz-adv-x="475" 
d="M19 661v39h426v-26l-315 -674h-45l311 661h-377z" />
    <glyph glyph-name="eight" unicode="8" horiz-adv-x="544" 
d="M452 311.5c25.333 -33 38.001 -72.167 38.001 -117.5c0 -37.333 -9.16699 -71.5 -27.5 -102.5s-44 -55.667 -77 -74s-70.833 -27.5 -113.5 -27.5s-80.5 9.16699 -113.5 27.5s-58.667 43 -77 74s-27.5 65.167 -27.5 102.5c0 45.333 12.667 84.5 38 117.5
s57.666 56.5 96.999 70.5c-32.667 13.333 -58 34.166 -76 62.499s-27 58.833 -27 91.5c0 33.333 8.33301 63.166 25 89.499s39.167 47 67.5 62s59.5 22.5 93.5 22.5s65.333 -7.5 94 -22.5s51.334 -35.667 68.001 -62s25 -56.166 25 -89.499
c0 -32.667 -9.16699 -63.167 -27.5 -91.5s-43.833 -49.166 -76.5 -62.499c39.333 -14 71.666 -37.5 96.999 -70.5zM143.501 468c11.667 -20.667 28.5 -37.167 50.5 -49.5s48 -18.5 78 -18.5s56 6.16699 78 18.5s38.833 28.833 50.5 49.5s17.5 43 17.5 67
c0 38 -13.167 70.167 -39.5 96.5s-61.833 39.5 -106.5 39.5s-80.167 -13.167 -106.5 -39.5s-39.5 -58.5 -39.5 -96.5c0 -24 5.83301 -46.333 17.5 -67zM367.001 51.5c26.667 15 47.167 35.167 61.5 60.5s21.5 53 21.5 83s-7.16699 57.833 -21.5 83.5s-34.833 46 -61.5 61
s-58.334 22.5 -95.001 22.5s-68.334 -7.5 -95.001 -22.5s-47 -35.333 -61 -61s-21 -53.5 -21 -83.5s7 -57.667 21 -83s34.333 -45.5 61 -60.5s58.334 -22.5 95.001 -22.5s68.334 7.5 95.001 22.5z" />
    <glyph glyph-name="nine" unicode="9" horiz-adv-x="539" 
d="M384.5 679c34.333 -20.667 61.3359 -48.667 81.0029 -84s29.5 -73.666 29.5 -114.999c0 -26 -4.5 -51.5 -13.5 -76.5s-24.167 -54.167 -45.5 -87.5l-206 -316h-49l182 273c-14.667 -6.66699 -30.834 -12 -48.501 -16s-35.167 -6 -52.5 -6
c-38.667 0 -74.834 10.167 -108.501 30.5s-60.334 48 -80.001 83s-29.5 73.5 -29.5 115.5c0 41.333 9.83301 79.666 29.5 114.999s46.667 63.333 81 84s72.833 31 115.5 31c42 0 80.167 -10.333 114.5 -31zM365.503 315c28.333 17.333 50.333 40.666 66 69.999
s23.5 61 23.5 95s-7.83301 65.667 -23.5 95s-37.667 52.666 -66 69.999s-60.166 26 -95.499 26s-67.166 -8.66699 -95.499 -26s-50.333 -40.666 -66 -69.999s-23.5 -61 -23.5 -95s7.83301 -65.667 23.5 -95s37.667 -52.666 66 -69.999s60.166 -26 95.499 -26
s67.166 8.66699 95.499 26z" />
    <glyph glyph-name="colon" unicode=":" horiz-adv-x="208" 
d="M129 430h-50v55h50v-55zM129 0h-50v55h50v-55z" />
    <glyph glyph-name="semicolon" unicode=";" horiz-adv-x="223" 
d="M144 430h-50v55h50v-55zM79 -133h-36l48 188h50z" />
    <glyph glyph-name="less" unicode="&#x3c;" 
d="M30 364l453 189v-42l-416 -170l416 -171v-42l-453 189v47z" />
    <glyph glyph-name="equal" unicode="=" 
d="M489 412h-454v39h454v-39zM489 231h-454v38h454v-38z" />
    <glyph glyph-name="greater" unicode="&#x3e;" 
d="M41 511v42l453 -189v-47l-453 -189v42l416 171z" />
    <glyph glyph-name="question" unicode="?" horiz-adv-x="485" 
d="M203 205c0 30.667 4.66699 57 14 79s20.666 40.167 33.999 54.5s31 31.166 53 50.499c28 23.333 48.833 44.5 62.5 63.5s20.5 43.167 20.5 72.5c0 42 -14.167 76.833 -42.5 104.5s-64.833 41.5 -109.5 41.5c-45.333 0 -82.166 -13.333 -110.499 -40s-43.5 -61 -45.5 -103
h-40c1.33301 35.333 10.666 66.833 27.999 94.5s40.5 49.167 69.5 64.5s61.833 23 98.5 23c36 0 68.5 -7.83301 97.5 -23.5s52 -37.667 69 -66s25.5 -60.166 25.5 -95.499c0 -25.333 -4.16699 -47.5 -12.5 -66.5s-18.666 -35 -30.999 -48s-28.5 -28.167 -48.5 -45.5
c-20.667 -18 -37 -33.5 -49 -46.5s-22.167 -29 -30.5 -48s-12.5 -41.167 -12.5 -66.5v-43h-40v44zM248 0h-49v55h49v-55z" />
    <glyph glyph-name="at" unicode="@" horiz-adv-x="899" 
d="M654 599.5c58 -32.333 103.831 -76.6689 137.498 -133.002s50.5 -118.5 50.5 -186.5c0 -43.333 -6.5 -81.166 -19.5 -113.499s-30.5 -57 -52.5 -74s-46.333 -25.5 -73 -25.5c-24 0 -45.667 7.33301 -65 22s-32 35.667 -38 63c-15.333 -24.667 -36.666 -45 -63.999 -61
s-58 -24 -92 -24s-65.167 8.66699 -93.5 26s-50.5 40.833 -66.5 70.5s-24 61.834 -24 96.501s8 66.834 24 96.501s38.167 53.167 66.5 70.5s59.5 26 93.5 26c33.333 0 63.166 -7.66699 89.499 -23s46.833 -34.666 61.5 -57.999v73h38v-257c0 -26 6.33301 -46.5 19 -61.5
s29.667 -22.5 51 -22.5c29.333 0 54.5 15.167 75.5 45.5s31.5 74.5 31.5 132.5c0 59.333 -14.833 114.166 -44.5 164.499s-70.667 90.333 -123 120s-110.5 44.5 -174.5 44.5c-70.667 0 -133.5 -15.167 -188.5 -45.5s-97.667 -71.5 -128 -123.5s-45.5 -110 -45.5 -174
c0 -62.667 15.167 -119.834 45.5 -171.501s72.333 -92.5 126 -122.5s113.834 -45 180.501 -45c54 0 100.667 7 140 21v-37c-37.333 -14 -84.333 -21 -141 -21c-72.667 0 -138.667 16.5 -198 49.5s-106 78.167 -140 135.5s-51 121 -51 191
c0 71.333 17.167 135.833 51.5 193.5s81.833 103.167 142.5 136.5s129.334 50 206.001 50c70 0 134 -16.167 192 -48.5zM516.998 124.497c22.667 13.667 40.5 32.334 53.5 56.001s19.5 50.167 19.5 79.5s-6.5 55.833 -19.5 79.5s-30.833 42.334 -53.5 56.001
s-48 20.5 -76 20.5s-53.333 -6.83301 -76 -20.5s-40.5 -32.334 -53.5 -56.001s-19.5 -50.167 -19.5 -79.5s6.5 -55.833 19.5 -79.5s30.833 -42.334 53.5 -56.001s48 -20.5 76 -20.5s53.333 6.83301 76 20.5z" />
    <glyph glyph-name="A" unicode="A" horiz-adv-x="633" 
d="M613 0h-43l-83 210h-341l-84 -210h-42l282 700h29zM471 249l-155 390l-154 -390h309z" />
    <glyph glyph-name="B" unicode="B" horiz-adv-x="565" 
d="M464.5 307.5c25.667 -31 38.498 -68.501 38.498 -112.501c0 -37.333 -9.66699 -70.833 -29 -100.5s-46.166 -52.834 -80.499 -69.501s-73.166 -25 -116.499 -25h-178v700h170c40.667 0 76.5 -7.66699 107.5 -23s54.833 -36.166 71.5 -62.499s25 -56.166 25 -89.499
c0 -36 -9.83301 -67.5 -29.5 -94.5s-45.5 -46.5 -77.5 -58.5c40 -12 72.833 -33.5 98.5 -64.5zM138.998 660.999v-272h130c49.333 0 88.833 12.667 118.5 38s44.5 58 44.5 98s-14.833 72.667 -44.5 98s-69.167 38 -118.5 38h-130zM276.998 38.999
c36.667 0 69 6.83105 97 20.498s49.667 32.334 65 56.001s23 50.167 23 79.5s-7.66699 55.833 -23 79.5s-37 42.334 -65 56.001s-60.333 20.5 -97 20.5h-138v-312h138z" />
    <glyph glyph-name="C" unicode="C" horiz-adv-x="770" 
d="M228.5 38.5c-53 32.333 -95.167 76.002 -126.5 131.002s-47 115.167 -47 180.5s15.667 125.5 47 180.5s73.5 98.667 126.5 131s110.5 48.5 172.5 48.5c72 0 136 -20.333 192 -61s98 -95.334 126 -164.001h-42c-27.333 58 -65.166 103.5 -113.499 136.5
s-102.5 49.5 -162.5 49.5c-54.667 0 -105.334 -14 -152.001 -42s-83.834 -66.5 -111.501 -115.5s-41.5 -103.5 -41.5 -163.5s13.833 -114.5 41.5 -163.5s64.834 -87.5 111.501 -115.5s97.334 -42 152.001 -42c60.667 0 115.5 16.5 164.5 49.5s87.167 78.5 114.5 136.5h42
c-28 -68.667 -70.333 -123.334 -127 -164.001s-121.334 -61 -194.001 -61c-62 0 -119.5 16.167 -172.5 48.5z" />
    <glyph glyph-name="D" unicode="D" horiz-adv-x="709" 
d="M99 0v700h169c78 0 146 -14.5 204 -43.5s102.833 -70 134.5 -123s47.5 -114.167 47.5 -183.5s-15.833 -130.5 -47.5 -183.5s-76.5 -94 -134.5 -123s-126 -43.5 -204 -43.5h-169zM268 39c74 0 136.833 13.667 188.5 41s90.667 64.5 117 111.5s39.5 99.833 39.5 158.5
s-13.167 111.5 -39.5 158.5s-65.333 84.167 -117 111.5s-114.5 41 -188.5 41h-129v-622h129z" />
    <glyph glyph-name="E" unicode="E" horiz-adv-x="528" 
d="M139 345v-306h316v-39h-356v700h346v-39h-306v-277h296v-39h-296z" />
    <glyph glyph-name="F" unicode="F" horiz-adv-x="463" 
d="M405 700v-39h-266v-277h256v-39h-256v-345h-40v700h306z" />
    <glyph glyph-name="G" unicode="G" horiz-adv-x="783" 
d="M385 354h358.001v-19c0 -60 -14.5 -116.5 -43.5 -169.5s-69.167 -95.5 -120.5 -127.5s-109 -48 -173 -48c-64.667 0 -123.834 16 -177.501 48s-96 75.5 -127 130.5s-46.5 115.5 -46.5 181.5s15.5 126.5 46.5 181.5s73.333 98.5 127 130.5s112.834 48 177.501 48
c72.667 0 137.834 -20.667 195.501 -62s99.834 -95.666 126.501 -162.999h-42c-25.333 55.333 -62.333 100.166 -111 134.499s-105 51.5 -169 51.5c-57.333 0 -109.666 -14.167 -156.999 -42.5s-84.666 -67 -111.999 -116s-41 -103.167 -41 -162.5s13.667 -113.5 41 -162.5
s64.666 -87.667 111.999 -116s99.666 -42.5 156.999 -42.5c49.333 0 95.666 11.5 138.999 34.5s79.166 56 107.499 99s45.166 93.833 50.499 152.5h-318v39z" />
    <glyph glyph-name="H" unicode="H" horiz-adv-x="704" 
d="M565 384v316h40v-700h-40v345h-426v-345h-40v700h40v-316h426z" />
    <glyph glyph-name="I" unicode="I" horiz-adv-x="248" 
d="M144 0h-40v700h40v-700z" />
    <glyph glyph-name="J" unicode="J" horiz-adv-x="487" 
d="M102.5 18c-29 18.667 -51.168 42.668 -66.501 72.001s-23 60 -23 92h40c0 -26.667 6.33301 -51.834 19 -75.501s30.5 -42.5 53.5 -56.5s49.833 -21 80.5 -21c44 0 80.333 15 109 45s43 70.667 43 122v504h40v-504c0 -42 -8.5 -78.5 -25.5 -109.5
s-40.167 -54.833 -69.5 -71.5s-61.666 -25 -96.999 -25c-40 0 -74.5 9.33301 -103.5 28z" />
    <glyph glyph-name="K" unicode="K" horiz-adv-x="553" 
d="M177 359l367 -359h-58l-347 341v-341h-40v700h40v-327l328 327h54z" />
    <glyph glyph-name="L" unicode="L" horiz-adv-x="480" 
d="M445 0h-346v700h40v-661h306v-39z" />
    <glyph glyph-name="M" unicode="M" horiz-adv-x="886" 
d="M731 700l82 -700h-40l-70 605l-248 -605h-24l-248 607l-70 -607h-40l82 700h30l259 -631l258 631h29z" />
    <glyph glyph-name="N" unicode="N" horiz-adv-x="770" 
d="M631 74v626h40v-700h-28l-504 626v-626h-40v700h28z" />
    <glyph glyph-name="O" unicode="O" horiz-adv-x="813" 
d="M228.5 38c-53.667 32 -96 75.5 -127 130.5s-46.5 115.5 -46.5 181.5s15.5 126.5 46.5 181.5s73.333 98.5 127 130.5s112.834 48 177.501 48s123.834 -16 177.501 -48s96.167 -75.5 127.5 -130.5s47 -115.5 47 -181.5s-15.667 -126.5 -47 -181.5
s-73.833 -98.5 -127.5 -130.5s-112.834 -48 -177.501 -48s-123.834 16 -177.501 48zM563.5 71.5c47.667 28.333 85.167 67 112.5 116s41 103.167 41 162.5s-13.667 113.5 -41 162.5s-64.833 87.667 -112.5 116s-100.167 42.5 -157.5 42.5s-109.666 -14.167 -156.999 -42.5
s-84.666 -67 -111.999 -116s-41 -103.167 -41 -162.5s13.667 -113.5 41 -162.5s64.666 -87.667 111.999 -116s99.666 -42.5 156.999 -42.5s109.833 14.167 157.5 42.5z" />
    <glyph glyph-name="P" unicode="P" horiz-adv-x="544" 
d="M282 700c42.667 0 80.334 -8.33301 113.001 -25s57.834 -39.5 75.501 -68.5s26.5 -61.833 26.5 -98.5s-8.83301 -69.5 -26.5 -98.5s-42.834 -51.833 -75.501 -68.5s-70.334 -25 -113.001 -25h-143v-316h-40v700h183zM282 355c54 0 96.667 14.5 128 43.5s47 65.5 47 109.5
s-15.667 80.5 -47 109.5s-74 43.5 -128 43.5h-143v-306h143z" />
    <glyph glyph-name="Q" unicode="Q" horiz-adv-x="813" 
d="M721 187.5c-24.667 -50.333 -58.668 -92.167 -102.001 -125.5l119 -137h-51l-100 115c-54 -33.333 -114.333 -50 -181 -50c-64.667 0 -123.834 16 -177.501 48s-96 75.5 -127 130.5s-46.5 115.5 -46.5 181.5s15.5 126.5 46.5 181.5s73.333 98.5 127 130.5
s112.834 48 177.501 48s123.834 -16 177.501 -48s96.167 -75.5 127.5 -130.5s47 -115.5 47 -181.5c0 -58 -12.333 -112.167 -37 -162.5zM560.999 69.999l-158 183h51l139 -161c38.667 29.333 69 66.5 91 111.5s33 93.833 33 146.5c0 59.333 -13.667 113.5 -41 162.5
s-64.833 87.667 -112.5 116s-100.167 42.5 -157.5 42.5s-109.666 -14.167 -156.999 -42.5s-84.666 -67 -111.999 -116s-41 -103.167 -41 -162.5s13.667 -113.5 41 -162.5s64.666 -87.667 111.999 -116s99.666 -42.5 156.999 -42.5c56 0 107.667 13.667 155 41z" />
    <glyph glyph-name="R" unicode="R" horiz-adv-x="578" 
d="M509 0l-267.002 316h-103v-316h-40v700h183c42.667 0 80.334 -8.33301 113.001 -25s57.834 -39.5 75.501 -68.5s26.5 -61.833 26.5 -98.5c0 -35.333 -8.33301 -67.333 -25 -96s-40.5 -51.5 -71.5 -68.5s-66.833 -26.167 -107.5 -27.5l268 -316h-52zM138.998 661v-306h143
c54 0 96.667 14.5 128 43.5s47 65.5 47 109.5s-15.667 80.5 -47 109.5s-74 43.5 -128 43.5h-143z" />
    <glyph glyph-name="S" unicode="S" horiz-adv-x="562" 
d="M167.5 17c-34.333 18 -60.8291 42.998 -79.4961 74.998s-28.667 68 -30 108h40c1.33301 -30 9.16602 -58 23.499 -84s35.5 -47 63.5 -63s62 -24 102 -24c38 0 70.167 6.83301 96.5 20.5s46.166 31.334 59.499 53.001s20 44.834 20 69.501c0 34 -8.33301 61.5 -25 82.5
s-37 37 -61 48s-57 23.167 -99 36.5c-44 14 -79.333 27.333 -106 40s-49.334 31.334 -68.001 56.001s-28 57.334 -28 98.001c0 34 9.16699 64.5 27.5 91.5s43.333 48 75 63s67.167 22.5 106.5 22.5c36.667 0 70.667 -8.66699 102 -26s56.5 -40.833 75.5 -70.5
s28.833 -62.5 29.5 -98.5h-40c-1.33301 26.667 -8.83301 52 -22.5 76s-33.167 43.333 -58.5 58s-55 22 -89 22c-33.333 0 -62.5 -6.16699 -87.5 -18.5s-44.167 -29 -57.5 -50s-20 -44.167 -20 -69.5c0 -32 8 -57.833 24 -77.5s35.667 -34.834 59 -45.501
s55.333 -22.334 96 -35.001c45.333 -14.667 81.666 -28.5 108.999 -41.5s50.666 -32.5 69.999 -58.5s29 -60.333 29 -103c0 -36 -9.5 -67.833 -28.5 -95.5s-45.167 -49 -78.5 -64s-70 -22.5 -110 -22.5c-45.333 0 -85.166 9 -119.499 27z" />
    <glyph glyph-name="T" unicode="T" horiz-adv-x="474" 
d="M257 0h-40v661h-188v39h416v-39h-188v-661z" />
    <glyph glyph-name="U" unicode="U" horiz-adv-x="672" 
d="M207 22c-37.333 21.333 -66.335 51.5 -87.002 90.5s-31 84.167 -31 135.5v452h40v-452c0 -66.667 18.833 -119.834 56.5 -159.501s87.834 -59.5 150.501 -59.5s112.834 19.833 150.501 59.5s56.5 92.834 56.5 159.501v452h40v-452c0 -51.333 -10.333 -96.5 -31 -135.5
s-49.667 -69.167 -87 -90.5s-80.333 -32 -129 -32s-91.667 10.667 -129 32z" />
    <glyph glyph-name="V" unicode="V" horiz-adv-x="594" 
d="M297 76l226 624h42l-255 -700h-26l-255 700h42z" />
    <glyph glyph-name="W" unicode="W" horiz-adv-x="951" 
d="M685 80l196 620h41l-223 -700h-28l-196 614l-195 -614h-29l-222 700h42l195 -620l197 620h26z" />
    <glyph glyph-name="X" unicode="X" horiz-adv-x="564" 
d="M307 361l228 -361h-47l-206 330l-207 -330h-46l228 361l-208 339h46l187 -307l187 307h46z" />
    <glyph glyph-name="Y" unicode="Y" horiz-adv-x="526" 
d="M264 357l198 343h45l-224 -384v-316h-40v316l-224 384h46z" />
    <glyph glyph-name="Z" unicode="Z" horiz-adv-x="580" 
d="M503 675l-382 -636h402v-39h-456v25l382 636h-360v39h414v-25z" />
    <glyph glyph-name="bracketleft" unicode="[" horiz-adv-x="277" 
d="M267 -200h-168v930h168v-38h-129v-854h129v-38z" />
    <glyph glyph-name="backslash" unicode="\" horiz-adv-x="324" 
d="M324 -200h-40l-284 930h40z" />
    <glyph glyph-name="bracketright" unicode="]" horiz-adv-x="277" 
d="M178 -200h-168v38h129v854h-129v38h168v-930z" />
    <glyph glyph-name="asciicircum" unicode="^" horiz-adv-x="379" 
d="M212 700l139 -302h-43l-119 266l-120 -266h-41l139 302h45z" />
    <glyph glyph-name="underscore" unicode="_" horiz-adv-x="334" 
d="M354 -142h-374v37h374v-37z" />
    <glyph glyph-name="grave" unicode="`" horiz-adv-x="186" 
d="M156 568h-43l-83 114h51z" />
    <glyph glyph-name="a" unicode="a" horiz-adv-x="617" 
d="M499 490h39v-490h-39v113c-20.667 -38 -49.667 -68 -87 -90s-78.333 -33 -123 -33c-46 0 -88 11.167 -126 33.5s-68 53 -90 92s-33 82.167 -33 129.5s11 90.5 33 129.5s52 69.667 90 92s80 33.5 126 33.5c44.667 0 85.667 -11 123 -33s66.333 -52 87 -90v113zM396 56
c32 18.667 57.333 44.5 76 77.5s28 70.167 28 111.5s-9.33301 78.5 -28 111.5s-44 58.833 -76 77.5s-67.333 28 -106 28s-74 -9.33301 -106 -28s-57.333 -44.5 -76 -77.5s-28 -70.167 -28 -111.5s9.33301 -78.5 28 -111.5s44 -58.833 76 -77.5s67.333 -28 106 -28
s74 9.33301 106 28z" />
    <glyph glyph-name="b" unicode="b" horiz-adv-x="622" 
d="M459 466.5c38 -22.333 68 -53 90 -92s33 -82.167 33 -129.5s-11 -90.5 -33 -129.5s-52 -69.667 -90 -92s-80 -33.5 -126 -33.5c-44.667 0 -85.667 11 -123 33s-66.333 52 -87 90v-113h-39v720h39v-343c20.667 38 49.667 68 87 90s78.333 33 123 33
c46 0 88 -11.167 126 -33.5zM438 56c32 18.667 57.333 44.5 76 77.5s28 70.167 28 111.5s-9.33301 78.5 -28 111.5s-44 58.833 -76 77.5s-67.333 28 -106 28s-74 -9.33301 -106 -28s-57.333 -44.5 -76 -77.5s-28 -70.167 -28 -111.5s9.33301 -78.5 28 -111.5
s44 -58.833 76 -77.5s67.333 -28 106 -28s74 9.33301 106 28z" />
    <glyph glyph-name="c" unicode="c" horiz-adv-x="543" 
d="M162.5 24c-37.667 22.667 -67.5 53.5 -89.5 92.5s-33 81.833 -33 128.5s11 89.5 33 128.5s51.833 69.833 89.5 92.5s79.167 34 124.5 34c48 0 92.167 -13 132.5 -39s70.166 -61.333 89.499 -106h-42c-18 33.333 -43.5 59.5 -76.5 78.5s-67.5 28.5 -103.5 28.5
c-37.333 0 -71.833 -9.33301 -103.5 -28s-56.834 -44.5 -75.501 -77.5s-28 -70.167 -28 -111.5s9.33301 -78.5 28 -111.5s43.834 -58.833 75.501 -77.5s66.167 -28 103.5 -28c36 0 70.5 9.5 103.5 28.5s58.5 45.167 76.5 78.5h42c-19.333 -44.667 -49.166 -80 -89.499 -106
s-84.5 -39 -132.5 -39c-45.333 0 -86.833 11.333 -124.5 34z" />
    <glyph glyph-name="d" unicode="d" horiz-adv-x="622" 
d="M499 720h39v-720h-39v113c-20.667 -38 -49.667 -68 -87 -90s-78.333 -33 -123 -33c-46 0 -88 11.167 -126 33.5s-68 53 -90 92s-33 82.167 -33 129.5s11 90.5 33 129.5s52 69.667 90 92s80 33.5 126 33.5c44.667 0 85.667 -11 123 -33s66.333 -52 87 -90v343zM396 56
c32 18.667 57.333 44.5 76 77.5s28 70.167 28 111.5s-9.33301 78.5 -28 111.5s-44 58.833 -76 77.5s-67.333 28 -106 28s-74 -9.33301 -106 -28s-57.333 -44.5 -76 -77.5s-28 -70.167 -28 -111.5s9.33301 -78.5 28 -111.5s44 -58.833 76 -77.5s67.333 -28 106 -28
s74 9.33301 106 28z" />
    <glyph glyph-name="e" unicode="e" horiz-adv-x="565" 
d="M408 465.5c36.667 -23 65.335 -53.333 86.002 -91s31 -77.167 31 -118.5c0 -10.667 -0.333008 -18.667 -1 -24h-444c2 -40 12.167 -75.5 30.5 -106.5s42.666 -55 72.999 -72s63.166 -25.5 98.499 -25.5c44 0 82.333 11 115 33s56.334 50 71.001 84h42
c-20 -49.333 -50.333 -87.5 -91 -114.5s-87 -40.5 -139 -40.5c-43.333 0 -83.333 11.167 -120 33.5s-65.834 53 -87.501 92s-32.5 82.167 -32.5 129.5s11 90.5 33 129.5s51.667 69.667 89 92s78 33.5 122 33.5c46 0 87.333 -11.5 124 -34.5zM187.001 438
c-29.333 -16 -53.501 -38.668 -72.501 -68.001s-30.167 -62.666 -33.5 -99.999h405c-2 32 -11.667 62.833 -29 92.5s-41 53.667 -71 72s-64 27.5 -102 27.5c-35.333 0 -67.666 -8 -96.999 -24z" />
    <glyph glyph-name="f" unicode="f" horiz-adv-x="302" 
d="M231 682c-24.667 0 -43.833 -7.16797 -57.5 -21.501s-20.5 -34.833 -20.5 -61.5v-109h125v-38h-125v-452h-39v452h-80v38h80v110c0 36.667 10.167 65.834 30.5 87.501s48.833 32.5 85.5 32.5h48v-38h-47z" />
    <glyph glyph-name="g" unicode="g" horiz-adv-x="607" 
d="M489 490l38.999 -0.00195312v-460c0 -47.333 -10.167 -89.166 -30.5 -125.499s-48.666 -64.5 -84.999 -84.5s-77.833 -30 -124.5 -30c-57.333 0 -106.833 15.333 -148.5 46s-69.167 72 -82.5 124h40c10.667 -35.333 31.834 -66.166 63.501 -92.499
s74.167 -39.5 127.5 -39.5c61.333 0 110.166 18.5 146.499 55.5s54.5 85.833 54.5 146.5v101c-21.333 -37.333 -50 -66.833 -86 -88.5s-75.667 -32.5 -119 -32.5c-44.667 0 -85.667 11 -123 33s-66.833 51.667 -88.5 89s-32.5 78.333 -32.5 123s10.833 85.667 32.5 123
s51.167 67 88.5 89s78.333 33 123 33c43.333 0 83 -10.833 119 -32.5s64.667 -51.167 86 -88.5v111zM387.999 74.998c31.333 18 56.166 42.833 74.499 74.5s27.5 66.834 27.5 105.501s-9.16699 73.834 -27.5 105.501s-43.166 56.5 -74.499 74.5s-65.666 27 -102.999 27
s-71.666 -9 -102.999 -27s-56.166 -42.833 -74.499 -74.5s-27.5 -66.834 -27.5 -105.501s9.16699 -73.834 27.5 -105.501s43.166 -56.5 74.499 -74.5s65.666 -27 102.999 -27s71.666 9 102.999 27z" />
    <glyph glyph-name="h" unicode="h" horiz-adv-x="560" 
d="M395.5 473.5c29 -17.667 51.333 -42.166 67 -73.499s23.5 -67 23.5 -107v-293h-39v285c0 51.333 -12.833 93.666 -38.5 126.999s-65.834 50 -120.501 50c-30.667 0 -58.667 -7.66699 -84 -23s-45.166 -35.833 -59.499 -61.5s-21.5 -52.5 -21.5 -80.5v-297h-39v720h39
v-318c16 29.333 39 53 69 71s63.667 27 101 27c39.333 0 73.5 -8.83301 102.5 -26.5z" />
    <glyph glyph-name="i" unicode="i" horiz-adv-x="197" 
d="M118 0h-39v490h39v-490zM124 600h-53v58h53v-58z" />
    <glyph glyph-name="j" unicode="j" horiz-adv-x="197" 
d="M-46 -200l-0.000976562 38.001h47c24.667 0 43.834 7.16699 57.501 21.5s20.5 34.833 20.5 61.5v569h39v-570c0 -36.667 -10.167 -65.834 -30.5 -87.501s-48.833 -32.5 -85.5 -32.5h-48zM123.999 600.001h-53v58h53v-58z" />
    <glyph glyph-name="k" unicode="k" horiz-adv-x="441" 
d="M163 251l269 -251h-55l-254 238v-238h-39v720h39v-460l243 230h53z" />
    <glyph glyph-name="l" unicode="l" horiz-adv-x="207" 
d="M123 0h-39v720h39v-720z" />
    <glyph glyph-name="m" unicode="m" horiz-adv-x="850" 
d="M694 473c26.667 -18 46.9961 -42.333 60.9961 -73s21 -64.667 21 -102v-298h-39v298c0 46 -12.667 84.833 -38 116.5s-60 47.5 -104 47.5c-26.667 0 -51.334 -7.5 -74.001 -22.5s-40.667 -35.167 -54 -60.5s-20 -52.333 -20 -81v-298h-39v298
c0 28 -5.16699 54.5 -15.5 79.5s-26.166 45.333 -47.499 61s-47.666 23.5 -78.999 23.5c-26 0 -50.5 -7.83301 -73.5 -23.5s-41.167 -36 -54.5 -61s-20 -51.5 -20 -79.5v-298h-39v490h39v-87c14.667 29.333 35.834 52.833 63.501 70.5s57.834 26.5 90.501 26.5
c38.667 0 71.834 -10.5 99.501 -31.5s47.834 -49.5 60.501 -85.5c15.333 38 38.166 67 68.499 87s63.833 30 100.5 30c35.333 0 66.333 -9 93 -27z" />
    <glyph glyph-name="n" unicode="n" horiz-adv-x="555" 
d="M390.5 473.5c29 -17.667 51.333 -42.166 67 -73.499s23.5 -67 23.5 -107v-293h-39v285c0 51.333 -12.833 93.666 -38.5 126.999s-65.834 50 -120.501 50c-30.667 0 -58.667 -7.66699 -84 -23s-45.166 -35.833 -59.499 -61.5s-21.5 -52.5 -21.5 -80.5v-297h-39v490h39v-88
c16 29.333 39 53 69 71s63.667 27 101 27c39.333 0 73.5 -8.83301 102.5 -26.5z" />
    <glyph glyph-name="o" unicode="o" horiz-adv-x="579" 
d="M163.5 23.5c-38.333 22.333 -68.5 53 -90.5 92s-33 82.167 -33 129.5s11 90.5 33 129.5s52.167 69.667 90.5 92s80.5 33.5 126.5 33.5s88 -11.167 126 -33.5s68 -53 90 -92s33 -82.167 33 -129.5s-11 -90.5 -33 -129.5s-52 -69.667 -90 -92s-80 -33.5 -126 -33.5
s-88.167 11.167 -126.5 33.5zM396 56c32 18.667 57.333 44.5 76 77.5s28 70.167 28 111.5s-9.33301 78.5 -28 111.5s-44 58.833 -76 77.5s-67.333 28 -106 28s-74 -9.33301 -106 -28s-57.333 -44.5 -76 -77.5s-28 -70.167 -28 -111.5s9.33301 -78.5 28 -111.5
s44 -58.833 76 -77.5s67.333 -28 106 -28s74 9.33301 106 28z" />
    <glyph glyph-name="p" unicode="p" horiz-adv-x="617" 
d="M454 466.5c38 -22.333 68 -53 90 -92s33 -82.167 33 -129.5s-11 -90.5 -33 -129.5s-52 -69.667 -90 -92s-80 -33.5 -126 -33.5c-44.667 0 -85.667 11 -123 33s-66.333 52 -87 90v-313h-39v690h39v-113c20.667 38 49.667 68 87 90s78.333 33 123 33
c46 0 88 -11.167 126 -33.5zM433 56c32 18.667 57.333 44.5 76 77.5s28 70.167 28 111.5s-9.33301 78.5 -28 111.5s-44 58.833 -76 77.5s-67.333 28 -106 28s-74 -9.33301 -106 -28s-57.333 -44.5 -76 -77.5s-28 -70.167 -28 -111.5s9.33301 -78.5 28 -111.5
s44 -58.833 76 -77.5s67.333 -28 106 -28s74 9.33301 106 28z" />
    <glyph glyph-name="q" unicode="q" horiz-adv-x="617" 
d="M499 490h39v-690h-39v313c-20.667 -38 -49.667 -68 -87 -90s-78.333 -33 -123 -33c-46 0 -88 11.167 -126 33.5s-68 53 -90 92s-33 82.167 -33 129.5s11 90.5 33 129.5s52 69.667 90 92s80 33.5 126 33.5c44.667 0 85.667 -11 123 -33s66.333 -52 87 -90v113zM396 56
c32 18.667 57.333 44.5 76 77.5s28 70.167 28 111.5s-9.33301 78.5 -28 111.5s-44 58.833 -76 77.5s-67.333 28 -106 28s-74 -9.33301 -106 -28s-57.333 -44.5 -76 -77.5s-28 -70.167 -28 -111.5s9.33301 -78.5 28 -111.5s44 -58.833 76 -77.5s67.333 -28 106 -28
s74 9.33301 106 28z" />
    <glyph glyph-name="r" unicode="r" horiz-adv-x="335" 
d="M317 495l0.000976562 -37.999h-45c-27.333 0 -52.833 -7.83301 -76.5 -23.5s-42.5 -36.167 -56.5 -61.5s-21 -52 -21 -80v-292h-39v490h39v-91c15.333 29.333 37.166 52.666 65.499 69.999s59.833 26 94.5 26h39z" />
    <glyph glyph-name="s" unicode="s" horiz-adv-x="487" 
d="M152.5 10c-27.667 13.333 -49.332 31.835 -64.999 55.502s-24.167 50.167 -25.5 79.5h39c2 -34.667 16.167 -62.834 42.5 -84.501s61.833 -32.5 106.5 -32.5c42 0 74.833 9 98.5 27s35.5 41.667 35.5 71c0 23.333 -6.33301 41.666 -19 54.999s-28.5 23.5 -47.5 30.5
s-44.5 13.833 -76.5 20.5c-35.333 7.33301 -64 15.166 -86 23.499s-40.667 21.333 -56 39s-23 41.834 -23 72.501c0 38.667 15.5 70.5 46.5 95.5s70.5 37.5 118.5 37.5c31.333 0 59.833 -6.5 85.5 -19.5s46.167 -30.833 61.5 -53.5s23.333 -48.334 24 -77.001h-39
c-1.33301 31.333 -14 57.833 -38 79.5s-55.333 32.5 -94 32.5c-36 0 -65.833 -8.33301 -89.5 -25s-35.5 -40 -35.5 -70c0 -21.333 6.16699 -38.333 18.5 -51s27.666 -22.167 45.999 -28.5s43.166 -13.166 74.499 -20.499c36 -8 65.333 -16.333 88 -25
s41.834 -22.167 57.501 -40.5s23.5 -43.5 23.5 -75.5c0 -42 -16.5 -75.167 -49.5 -99.5s-75.167 -36.5 -126.5 -36.5c-36 0 -67.833 6.66699 -95.5 20z" />
    <glyph glyph-name="t" unicode="t" horiz-adv-x="322" 
d="M278 452l-125.001 -0.000976562v-331c0 -26.667 6.83301 -47.167 20.5 -61.5s32.834 -21.5 57.501 -21.5h47v-38h-48c-36.667 0 -65.167 10.833 -85.5 32.5s-30.5 50.834 -30.5 87.501v332h-80v38h80v130h39v-130h125v-38z" />
    <glyph glyph-name="u" unicode="u" horiz-adv-x="545" 
d="M127.5 47.5c-35.667 38.333 -53.501 88.167 -53.501 149.5v293h39v-285c0 -51.333 13 -93.666 39 -126.999s66.333 -50 121 -50c54 0 94 16.667 120 50s39 75.666 39 126.999v285h39v-293c0 -62 -17.667 -112 -53 -150s-83.666 -57 -144.999 -57
s-109.833 19.167 -145.5 57.5z" />
    <glyph glyph-name="v" unicode="v" horiz-adv-x="481" 
d="M241 63l189 427h41l-219 -490h-23l-219 490h42z" />
    <glyph glyph-name="w" unicode="w" horiz-adv-x="774" 
d="M561 68l162 422h41l-192 -490h-25l-160 420l-160 -420h-24l-193 490h42l162 -422l161 422h24z" />
    <glyph glyph-name="x" unicode="x" horiz-adv-x="510" 
d="M278 255l202 -255h-48l-177 227l-178 -227h-47l201 254l-188 236h48l164 -208l165 208h47z" />
    <glyph glyph-name="y" unicode="y" horiz-adv-x="486" 
d="M252 80l182 410h42l-308 -690h-43l105 235l-225 455h44z" />
    <glyph glyph-name="z" unicode="z" horiz-adv-x="462" 
d="M408 465l-306 -427h316v-38h-374v25l306 427h-296v38h354v-25z" />
    <glyph glyph-name="braceleft" unicode="{" horiz-adv-x="312" 
d="M171 406c0 -38 -6.16699 -68.3311 -18.5 -90.998s-32.166 -39.334 -59.499 -50.001c27.333 -10.667 47.166 -27.334 59.499 -50.001s18.5 -53 18.5 -91v-161c0 -38 10.5 -68.333 31.5 -91s50.833 -34 89.5 -34h10v-38h-10c-52 0 -91.667 15.167 -119 45.5
s-41 71.166 -41 122.499v165c0 34.667 -8.16699 61.334 -24.5 80.001s-40.833 28 -73.5 28v48c32.667 0 57.167 9.33301 73.5 28s24.5 45.334 24.5 80.001v165c0 51.333 13.667 92.166 41 122.499s67 45.5 119 45.5h10v-38h-10c-38.667 0 -68.5 -11.333 -89.5 -34
s-31.5 -53 -31.5 -91v-161z" />
    <glyph glyph-name="bar" unicode="|" horiz-adv-x="279" 
d="M159 -200h-39v930h39v-930z" />
    <glyph glyph-name="braceright" unicode="}" horiz-adv-x="312" 
d="M180 397c0 -34.667 8.16699 -61.3359 24.5 -80.0029s40.833 -28 73.5 -28v-48c-32.667 0 -57.167 -9.33301 -73.5 -28s-24.5 -45.334 -24.5 -80.001v-165c0 -51.333 -13.667 -92.166 -41 -122.499s-67 -45.5 -119 -45.5h-10v38h10c38.667 0 68.5 11.333 89.5 34
s31.5 53 31.5 91v161c0 38 6.16699 68.333 18.5 91s32.166 39.334 59.499 50.001c-27.333 10.667 -47.166 27.334 -59.499 50.001s-18.5 53 -18.5 91v161c0 38 -10.5 68.333 -31.5 91s-50.833 34 -89.5 34h-10v38h10c52 0 91.667 -15.167 119 -45.5s41 -71.166 41 -122.499
v-165z" />
    <glyph glyph-name="asciitilde" unicode="~" 
d="M35 295c0 36.667 10.6719 66.333 32.0049 89s49.666 34 84.999 34c25.333 0 46.666 -5.16699 63.999 -15.5s37.666 -26.166 60.999 -47.499c18.667 -18 34.667 -31.333 48 -40s29 -13 47 -13c25.333 0 45 8 59 24s21 37.667 21 65v27h38v-32
c0 -36.667 -10.833 -66.334 -32.5 -89.001s-49.834 -34 -84.501 -34c-25.333 0 -46.833 5.33301 -64.5 16s-37.834 26.667 -60.501 48c-18 17.333 -34 30.5 -48 39.5s-30 13.5 -48 13.5c-25.333 0 -44.833 -8 -58.5 -24s-20.5 -38 -20.5 -66v-27h-38v32z" />
    <glyph glyph-name="uni00A0" unicode="&#xa0;" horiz-adv-x="272" 
 />
    <glyph glyph-name="exclamdown" unicode="&#xa1;" horiz-adv-x="267" 
d="M158 435h-50v55h50v-55zM155 -200h-43l3 529h37z" />
    <glyph glyph-name="cent" unicode="&#xa2;" horiz-adv-x="543" 
d="M390.5 56.5c33 19 58.5 45.165 76.5 78.498h42c-18 -41.333 -45.167 -74.833 -81.5 -100.5s-76.5 -40.167 -120.5 -43.5v-96h-39v96c-42.667 2.66699 -81.334 15.667 -116.001 39s-62 53.833 -82 91.5s-30 78.834 -30 123.501s10 85.834 30 123.501
s47.333 68.167 82 91.5s73.334 36.333 116.001 39v96h39v-96c44 -3.33301 84.167 -17.833 120.5 -43.5s63.5 -59.167 81.5 -100.5h-42c-18 33.333 -43.5 59.5 -76.5 78.5s-67.5 28.5 -103.5 28.5c-37.333 0 -71.833 -9.33301 -103.5 -28s-56.834 -44.5 -75.501 -77.5
s-28 -70.167 -28 -111.5s9.33301 -78.5 28 -111.5s43.834 -58.833 75.501 -77.5s66.167 -28 103.5 -28c36 0 70.5 9.5 103.5 28.5z" />
    <glyph glyph-name="sterling" unicode="&#xa3;" horiz-adv-x="519" 
d="M475 40v-40.0029h-431v27c35.333 14 66.833 36.667 94.5 68s41.5 66.333 41.5 105c0 28.667 -6 57.334 -18 86.001h-118v39h100l-15 28c-18.667 33.333 -32.5 61.833 -41.5 85.5s-13.5 49.834 -13.5 78.501c0 40 8.66699 74.667 26 104s41 51.5 71 66.5
s63.667 22.5 101 22.5c39.333 0 73.833 -8 103.5 -24s52.5 -37.667 68.5 -65s24 -58.333 24 -93h-40c0 44.667 -14.667 79.667 -44 105s-67 38 -113 38c-42 0 -78.5 -12.167 -109.5 -36.5s-46.5 -63.5 -46.5 -117.5c0 -27.333 4.33301 -52.666 13 -75.999
s21.667 -50.333 39 -81l18 -35h242v-39h-224c11.333 -29.333 17 -57.666 17 -84.999c0 -32.667 -7.5 -62.834 -22.5 -90.501s-35.833 -51.167 -62.5 -70.5h340z" />
    <glyph glyph-name="currency" unicode="&#xa4;" horiz-adv-x="483" 
d="M375 251l56 -55l-27 -27l-55 55c-14 -12.667 -30.167 -22.334 -48.5 -29.001s-37.833 -10 -58.5 -10s-40.167 3.33301 -58.5 10s-34.5 16.334 -48.5 29.001l-56 -55l-27 27l57 56c-21.333 28.667 -32 61.667 -32 99s10.667 70.333 32 99l-57 56l27 27l56 -55
c14 12.667 30.167 22.334 48.5 29.001s37.833 10 58.5 10s40.167 -3.33301 58.5 -10s34.5 -16.334 48.5 -29.001l55 55l27 -27l-56 -55c21.333 -30 32 -63.333 32 -100s-10.667 -70 -32 -100zM332.5 258c24.333 24.667 36.5 55.667 36.5 93s-12.167 68.333 -36.5 93
s-54.5 37 -90.5 37s-66.333 -12.167 -91 -36.5s-37 -55.5 -37 -93.5c0 -37.333 12.333 -68.333 37 -93s55 -37 91 -37s66.167 12.333 90.5 37z" />
    <glyph glyph-name="yen" unicode="&#xa5;" horiz-adv-x="526" 
d="M462 700h45l-206 -353h160v-39h-178v-105h178v-39h-178v-164h-40v164h-178v39h178v105h-178v39h160l-206 353h46l199 -343z" />
    <glyph glyph-name="brokenbar" unicode="&#xa6;" horiz-adv-x="279" 
d="M159 352h-39v378h39v-378zM159 -200h-39v378h39v-378z" />
    <glyph glyph-name="section" unicode="&#xa7;" horiz-adv-x="632" 
d="M527 6c0 -33.333 -8.16797 -63.1699 -24.501 -89.5029s-39.666 -47.166 -69.999 -62.499s-65.5 -23 -105.5 -23c-45.333 0 -84.666 8.83301 -117.999 26.5s-58.833 41.334 -76.5 71.001s-26.167 61.834 -25.5 96.501h40c0 -27.333 8 -53 24 -77s37.667 -43 65 -57
s58 -21 92 -21c47.333 0 85.666 12.333 114.999 37s44 57.667 44 99c0 30 -8.16699 53.833 -24.5 71.5s-43.5 31.834 -81.5 42.501l-139 36c-52 13.333 -89.333 32.666 -112 57.999s-34 56.333 -34 93c0 21.333 4.83301 43 14.5 65s24.167 41.667 43.5 59
c-28.667 24.667 -43 59.667 -43 105c0 32.667 8 62.167 24 88.5s38.833 47.166 68.5 62.499s63.5 23 101.5 23c43.333 0 81.333 -9 114 -27s57.834 -41.833 75.501 -71.5s26.167 -61.834 25.5 -96.501h-40c0 27.333 -7.66699 53 -23 77s-36.5 43.167 -63.5 57.5
s-56.5 21.5 -88.5 21.5c-44.667 0 -81.5 -12.5 -110.5 -37.5s-43.5 -57.5 -43.5 -97.5c0 -28.667 8 -51.834 24 -69.501s42 -31.167 78 -40.5l137 -36c52 -13.333 89.333 -32.666 112 -57.999s34 -56.666 34 -93.999c0 -20.667 -4.83301 -41.667 -14.5 -63
s-23.834 -40.666 -42.501 -57.999c32 -25.333 48 -62.333 48 -111zM396.999 154.996c16 -4 32.333 -9.66797 49 -17.001c16 12.667 28.333 28.167 37 46.5s13 36.5 13 54.5c0 56 -36 93.333 -108 112l-151 39c-20 5.33301 -37 11.666 -51 18.999
c-16 -13.333 -28.333 -29.166 -37 -47.499s-13 -36.5 -13 -54.5c0 -55.333 36 -92.666 108 -111.999z" />
    <glyph glyph-name="dieresis" unicode="&#xa8;" horiz-adv-x="274" 
d="M83 600h-53v58h53v-58zM244 600h-53v58h53v-58z" />
    <glyph glyph-name="copyright" unicode="&#xa9;" horiz-adv-x="833" 
d="M236.5 38c-55 32 -98.333 75.5 -130 130.5s-47.5 115.5 -47.5 181.5s15.833 126.5 47.5 181.5s75 98.5 130 130.5s115.167 48 180.5 48s125.333 -16 180 -48s97.834 -75.5 129.501 -130.5s47.5 -115.5 47.5 -181.5s-15.833 -126.5 -47.5 -181.5
s-74.834 -98.5 -129.501 -130.5s-114.667 -48 -180 -48s-125.5 16 -180.5 48zM576.5 70c49 28.667 87.833 67.667 116.5 117s43 103.666 43 162.999s-14.333 113.666 -43 162.999s-67.5 88.333 -116.5 117s-102.167 43 -159.5 43c-58 0 -111.5 -14.333 -160.5 -43
s-87.833 -67.667 -116.5 -117s-43 -103.666 -43 -162.999s14.333 -113.666 43 -162.999s67.5 -88.333 116.5 -117s102.5 -43 160.5 -43c57.333 0 110.5 14.333 159.5 43zM323.5 185.5c-29 17 -51.667 40 -68 69s-24.5 60.833 -24.5 95.5s8.16699 66.5 24.5 95.5s39 52 68 69
s61.167 25.5 96.5 25.5c39.333 0 74.666 -10.667 105.999 -32s53.666 -50 66.999 -86h-40c-10.667 24 -27.5 43.5 -50.5 58.5s-50.5 22.5 -82.5 22.5c-43.333 0 -79.333 -14 -108 -42s-43 -65 -43 -111s14.333 -83 43 -111s64.667 -42 108 -42c32 0 59.5 7.5 82.5 22.5
s39.833 34.5 50.5 58.5h40c-13.333 -36 -35.666 -64.667 -66.999 -86s-66.666 -32 -105.999 -32c-35.333 0 -67.5 8.5 -96.5 25.5z" />
    <glyph glyph-name="ordfeminine" unicode="&#xaa;" horiz-adv-x="412" 
d="M308 705l37 -0.00195312v-302h-37v54c-12.667 -17.333 -29.334 -31.5 -50.001 -42.5s-43 -16.5 -67 -16.5c-28.667 0 -54.667 7 -78 21s-41.666 32.833 -54.999 56.5s-20 49.834 -20 78.501s6.66699 54.834 20 78.501s31.666 42.5 54.999 56.5s49.333 21 78 21
c24 0 46.333 -5.5 67 -16.5s37.334 -25.167 50.001 -42.5v54zM275.5 467.498c22.333 23.667 33.5 52.5 33.5 86.5s-11.167 62.833 -33.5 86.5s-50.166 35.5 -83.499 35.5s-61.166 -11.833 -83.499 -35.5s-33.5 -52.5 -33.5 -86.5s11.167 -62.833 33.5 -86.5
s50.166 -35.5 83.499 -35.5s61.166 11.833 83.499 35.5z" />
    <glyph glyph-name="guillemotleft" unicode="&#xab;" horiz-adv-x="457" 
d="M212 84h-48l-139 171l139 171h48l-139 -171zM399 84h-48l-139 171l139 171h48l-139 -171z" />
    <glyph glyph-name="logicalnot" unicode="&#xac;" 
d="M496 240h-39v148h-429v39h468v-187z" />
    <glyph glyph-name="uni00AD" unicode="&#xad;" horiz-adv-x="360" 
d="M306 234h-252v39h252v-39z" />
    <glyph glyph-name="registered" unicode="&#xae;" horiz-adv-x="382" 
d="M275 688c25.333 -14.667 45.5 -34.834 60.5 -60.501s22.5 -54.167 22.5 -85.5c0 -30.667 -7.5 -58.834 -22.5 -84.501s-35.167 -45.834 -60.5 -60.501s-53.333 -22 -84 -22s-58.667 7.33301 -84 22s-45.5 34.834 -60.5 60.501s-22.5 53.834 -22.5 84.501
c0 31.333 7.5 59.833 22.5 85.5s35.167 45.834 60.5 60.501s53.333 22 84 22s58.667 -7.33301 84 -22zM285.5 445.5c25 25.667 37.501 57.834 37.501 96.501c0 39.333 -12.333 71.833 -37 97.5s-56.334 38.5 -95.001 38.5s-70.5 -12.833 -95.5 -38.5
s-37.5 -58.167 -37.5 -97.5c0 -38.667 12.5 -70.834 37.5 -96.501s56.833 -38.5 95.5 -38.5c38 0 69.5 12.833 94.5 38.5zM248.501 543c-7 -9.33301 -16.167 -16.001 -27.5 -20.001l49 -67h-38l-45 63h-26v-63h-31v180h65c18 0 33.167 -5.16699 45.5 -15.5
s18.5 -24.833 18.5 -43.5c0 -13.333 -3.5 -24.666 -10.5 -33.999zM161.001 606.999v-59h32c10 0 18.167 2.5 24.5 7.5s9.5 12.167 9.5 21.5c0 10 -3 17.5 -9 22.5s-14.333 7.5 -25 7.5h-32z" />
    <glyph glyph-name="macron" unicode="&#xaf;" horiz-adv-x="304" 
d="M274 605h-244v37h244v-37z" />
    <glyph glyph-name="degree" unicode="&#xb0;" horiz-adv-x="312" 
d="M72.5 532c-22.333 22.667 -33.5 50 -33.5 82s11.167 59.333 33.5 82s50.166 34 83.499 34s61.166 -11.333 83.499 -34s33.5 -50 33.5 -82s-11.167 -59.333 -33.5 -82s-50.166 -34 -83.499 -34s-61.166 11.333 -83.499 34zM215.5 554c15.667 16 23.5 35.999 23.5 59.999
c0 24.667 -7.83301 44.834 -23.5 60.501s-35.5 23.5 -59.5 23.5s-44 -8 -60 -24s-24 -36 -24 -60s8 -44 24 -60s36 -24 60 -24s43.833 8 59.5 24z" />
    <glyph glyph-name="plusminus" unicode="&#xb1;" 
d="M282 670v-217h216v-38h-216v-217h-38v217h-217v38h217v217h38zM491 85h-456v38h456v-38z" />
    <glyph glyph-name="uni00B2" unicode="&#xb2;" horiz-adv-x="315" 
d="M106 524h168v-36h-227v24l139 151c16.667 18 28.167 33.333 34.5 46s9.5 25.334 9.5 38.001c0 18.667 -6.33301 34 -19 46s-29.667 18 -51 18c-20.667 0 -38 -6.16699 -52 -18.5s-21.333 -29.5 -22 -51.5h-37c0.666992 32.667 11.667 58.167 33 76.5s47.333 27.5 78 27.5
c31.333 0 57.166 -9 77.499 -27s30.5 -41.333 30.5 -70c0 -18.667 -4.16699 -35.334 -12.5 -50.001s-22.166 -33 -41.499 -55z" />
    <glyph glyph-name="uni00B3" unicode="&#xb3;" horiz-adv-x="324" 
d="M260.5 640c11 -16 16.5 -34.333 16.5 -55c0 -30.667 -10.5 -55.334 -31.5 -74.001s-48.5 -28 -82.5 -28c-35.333 0 -63.5 10.5 -84.5 31.5s-31.833 46.833 -32.5 77.5h38c0.666992 -21.333 8.16699 -39 22.5 -53s33.166 -21 56.499 -21s42 6.16699 56 18.5
s21 28.833 21 49.5s-7.16699 37.334 -21.5 50.001s-33.5 19 -57.5 19h-27v32h27c20.667 0 37.334 6.16699 50.001 18.5s19 27.166 19 44.499c0 18 -6.33301 32.667 -19 44s-29 17 -49 17c-21.333 0 -38.333 -6.16699 -51 -18.5s-19.667 -28.166 -21 -47.499h-37
c1.33301 30 11.833 54.167 31.5 72.5s45.5 27.5 77.5 27.5c30 0 55 -8.83301 75 -26.5s30 -39.5 30 -65.5c0 -18 -4.33301 -33.833 -13 -47.5s-21 -24.167 -37 -31.5c18 -6.66699 32.5 -18 43.5 -34z" />
    <glyph glyph-name="acute" unicode="&#xb4;" horiz-adv-x="186" 
d="M73 568h-43l76 114h50z" />
    <glyph glyph-name="uni00B5" unicode="&#xb5;" horiz-adv-x="560" 
d="M442 490l38.999 -0.000976562v-490h-39v88c-16 -29.333 -39 -53 -69 -71s-63.333 -27 -100 -27s-68.167 7.5 -94.5 22.5s-47.166 34.833 -62.499 59.5v-272h-37v690h39v-285c0 -51.333 12.833 -93.666 38.5 -126.999s65.834 -50 120.501 -50
c30.667 0 58.667 7.66699 84 23s45.166 35.833 59.499 61.5s21.5 52.5 21.5 80.5v297z" />
    <glyph glyph-name="paragraph" unicode="&#xb6;" horiz-adv-x="529" 
d="M279 -80v410.002h-37c-34.667 0 -66.834 8.16699 -96.501 24.5s-53.334 38.666 -71.001 66.999s-26.5 59.5 -26.5 93.5s8.83301 65.167 26.5 93.5s41.334 50.666 71.001 66.999s61.834 24.5 96.501 24.5h74v-780h-37zM440 -79.998h-37v780h37v-780z" />
    <glyph glyph-name="periodcentered" unicode="&#xb7;" horiz-adv-x="272" 
d="M161 226h-50v55h50v-55z" />
    <glyph glyph-name="cedilla" unicode="&#xb8;" horiz-adv-x="190" 
d="M82 -43c20.667 0 38.833 -6 54.5 -18s23.5 -29.333 23.5 -52c0 -24 -8 -42.167 -24 -54.5s-34 -18.5 -54 -18.5h-52v30h50c14 0 25.167 4 33.5 12s12.5 18.333 12.5 31c0 12 -4.16699 22 -12.5 30s-19.5 12 -33.5 12h-37v23l31 69l23 -11v-5l-22 -48h7z" />
    <glyph glyph-name="uni00B9" unicode="&#xb9;" horiz-adv-x="250" 
d="M42 799l91 41h28v-352h-37v311l-82 -38v38z" />
    <glyph glyph-name="ordmasculine" unicode="&#xba;" horiz-adv-x="382" 
d="M113 419c-23.333 14 -41.666 32.833 -54.999 56.5s-20 49.834 -20 78.501s6.66699 54.834 20 78.501s31.666 42.5 54.999 56.5s49.333 21 78 21s54.667 -7 78 -21s41.666 -32.833 54.999 -56.5s20 -49.834 20 -78.501s-6.66699 -54.834 -20 -78.501
s-31.666 -42.5 -54.999 -56.5s-49.333 -21 -78 -21s-54.667 7 -78 21zM274 467.5c22 23.667 33 52.5 33 86.5s-11 62.833 -33 86.5s-49.667 35.5 -83 35.5s-61 -11.833 -83 -35.5s-33 -52.5 -33 -86.5s11 -62.833 33 -86.5s49.667 -35.5 83 -35.5s61 11.833 83 35.5z" />
    <glyph glyph-name="guillemotright" unicode="&#xbb;" horiz-adv-x="457" 
d="M106 84h-48l139 171l-139 171h48l139 -171zM293 84h-48l139 171l-139 171h48l139 -171z" />
    <glyph glyph-name="onequarter" unicode="&#xbc;" horiz-adv-x="647" 
d="M42 659l91 41h28v-352h-37v311l-82 -38v38zM101 0h-45l480 700h45zM563 114h52v-33h-52v-81h-36v81h-166v24l173 247h29v-238zM527 288l-121 -174h121v174z" />
    <glyph glyph-name="onehalf" unicode="&#xbd;" horiz-adv-x="702" 
d="M42 659l91 41h28v-352h-37v311l-82 -38v38zM101 0h-45l480 700h45zM493 36h168v-36h-227v24l139 151c16.667 18 28.167 33.333 34.5 46s9.5 25.334 9.5 38.001c0 18.667 -6.33301 34 -19 46s-29.667 18 -51 18c-20.667 0 -38 -6.16699 -52 -18.5s-21.333 -29.5 -22 -51.5
h-37c0.666992 32.667 11.667 58.167 33 76.5s47.333 27.5 78 27.5c31.333 0 57.166 -9 77.499 -27s30.5 -41.333 30.5 -70c0 -18.667 -4.16699 -35.334 -12.5 -50.001s-22.166 -33 -41.499 -55z" />
    <glyph glyph-name="threequarters" unicode="&#xbe;" horiz-adv-x="721" 
d="M260.5 500c11 -16 16.5 -34.333 16.5 -55c0 -30.667 -10.5 -55.334 -31.5 -74.001s-48.5 -28 -82.5 -28c-35.333 0 -63.5 10.5 -84.5 31.5s-31.833 46.833 -32.5 77.5h38c0.666992 -21.333 8.16699 -39 22.5 -53s33.166 -21 56.499 -21s42 6.16699 56 18.5
s21 28.833 21 49.5s-7.16699 37.334 -21.5 50.001s-33.5 19 -57.5 19h-27v32h27c20.667 0 37.334 6.16699 50.001 18.5s19 27.166 19 44.499c0 18 -6.33301 32.667 -19 44s-29 17 -49 17c-21.333 0 -38.333 -6.16699 -51 -18.5s-19.667 -28.166 -21 -47.499h-37
c1.33301 30 11.833 54.167 31.5 72.5s45.5 27.5 77.5 27.5c30 0 55 -8.83301 75 -26.5s30 -39.5 30 -65.5c0 -18 -4.33301 -33.833 -13 -47.5s-21 -24.167 -37 -31.5c18 -6.66699 32.5 -18 43.5 -34zM175 0h-45l480 700h45zM637 114h52v-33h-52v-81h-36v81h-166v24l173 247
h29v-238zM601 288l-121 -174h121v174z" />
    <glyph glyph-name="questiondown" unicode="&#xbf;" horiz-adv-x="474" 
d="M282 435h-50v55h50v-55zM148 -186.5c-29.333 15.667 -52.5 37.667 -69.5 66s-25.5 60.166 -25.5 95.499c0 25.333 4.16699 47.5 12.5 66.5s18.5 35 30.5 48s28.333 28.5 49 46.5c20 17.333 36.167 32.5 48.5 45.5s22.666 29 30.999 48s12.5 41.167 12.5 66.5v33h40v-34
c0 -30.667 -4.66699 -57 -14 -79s-20.666 -40.167 -33.999 -54.5s-31 -31.166 -53 -50.499c-28 -24 -48.667 -45.333 -62 -64s-20 -42.667 -20 -72c0 -42 14.167 -76.833 42.5 -104.5s64.833 -41.5 109.5 -41.5c45.333 0 82 13.333 110 40s43 61 45 103h40
c-1.33301 -35.333 -10.5 -66.833 -27.5 -94.5s-40.167 -49.167 -69.5 -64.5s-62 -23 -98 -23s-68.667 7.83301 -98 23.5z" />
    <glyph glyph-name="Agrave" unicode="&#xc0;" horiz-adv-x="633" 
d="M613 0h-43l-83 210h-341l-84 -210h-42l282 700h29zM471 249l-155 390l-154 -390h309zM345 772h-43l-83 115h51z" />
    <glyph glyph-name="Aacute" unicode="&#xc1;" horiz-adv-x="633" 
d="M613 0h-43l-83 210h-341l-84 -210h-42l282 700h29zM471 249l-155 390l-154 -390h309zM326 772h-43l76 115h50z" />
    <glyph glyph-name="Acircumflex" unicode="&#xc2;" horiz-adv-x="633" 
d="M613 0h-43l-83 210h-341l-84 -210h-42l282 700h29zM471 249l-155 390l-154 -390h309zM239 772h-48l106 110h40l105 -110h-49l-77 80z" />
    <glyph glyph-name="Atilde" unicode="&#xc3;" horiz-adv-x="633" 
d="M613 0h-43l-83 210h-341l-84 -210h-42l282 700h29zM471 249l-155 390l-154 -390h309zM192 796c0 23.333 5.83301 41.833 17.5 55.5s27.167 20.5 46.5 20.5c14 0 26 -2.66699 36 -8s21.333 -13.333 34 -24c10 -8.66699 18.5 -15 25.5 -19s14.833 -6 23.5 -6
c21.333 0 32 16 32 48v9h34v-14c0 -23.333 -5.83301 -41.833 -17.5 -55.5s-27.167 -20.5 -46.5 -20.5c-14 0 -26 2.66699 -36 8s-21.333 13.333 -34 24c-10 8.66699 -18.5 15 -25.5 19s-14.833 6 -23.5 6c-21.333 0 -32 -16 -32 -48v-10h-34v15z" />
    <glyph glyph-name="Adieresis" unicode="&#xc4;" horiz-adv-x="633" 
d="M613 0h-43l-83 210h-341l-84 -210h-42l282 700h29zM471 249l-155 390l-154 -390h309zM258 804h-53v59h53v-59zM427 804h-53v59h53v-59z" />
    <glyph glyph-name="Aring" unicode="&#xc5;" horiz-adv-x="633" 
d="M613 0h-43l-83 210h-341l-84 -210h-42l282 700h29zM471 249l-155 390l-154 -390h309zM254 778c-16.667 16.667 -25 37.334 -25 62.001s8.16699 45.167 24.5 61.5s37.5 24.5 63.5 24.5c25.333 0 46.333 -8.16699 63 -24.5s25 -36.833 25 -61.5
s-8.33301 -45.334 -25 -62.001s-37.667 -25 -63 -25s-46.333 8.33301 -63 25zM357.5 799c10.333 10.667 15.5 24.334 15.5 41.001s-5.16699 30.167 -15.5 40.5s-23.833 15.5 -40.5 15.5s-30.167 -5.16699 -40.5 -15.5s-15.5 -23.833 -15.5 -40.5
s5.16699 -30.334 15.5 -41.001s23.833 -16 40.5 -16s30.167 5.33301 40.5 16z" />
    <glyph glyph-name="AE" unicode="&#xc6;" horiz-adv-x="861" 
d="M472 345v-306h316v-39h-356v232h-269l-145 -232h-46l440 700h366v-39h-306v-277h296v-39h-296zM432 662l-244 -391h244v391z" />
    <glyph glyph-name="Ccedilla" unicode="&#xc7;" horiz-adv-x="770" 
d="M722 215c-26.667 -66.667 -67.3369 -120.166 -122.004 -160.499s-117 -61.833 -187 -64.5l-15 -33h7c20.667 0 38.834 -6 54.501 -18s23.5 -29.333 23.5 -52c0 -24 -8 -42.167 -24 -54.5s-34 -18.5 -54 -18.5h-52v30h50c14 0 25.167 4 33.5 12s12.5 18.333 12.5 31
c0 12 -4.16699 22 -12.5 30s-19.5 12 -33.5 12h-37v23l17 38c-59.333 3.33301 -114.166 21.333 -164.499 54s-90.166 76 -119.499 130s-44 112.667 -44 176c0 65.333 15.667 125.5 47 180.5s73.5 98.667 126.5 131s110.5 48.5 172.5 48.5c72 0 136 -20.333 192 -61
s98 -95.334 126 -164.001h-42c-27.333 58 -65.166 103.5 -113.499 136.5s-102.5 49.5 -162.5 49.5c-54.667 0 -105.334 -14 -152.001 -42s-83.834 -66.5 -111.501 -115.5s-41.5 -103.5 -41.5 -163.5s13.833 -114.5 41.5 -163.5s64.834 -87.5 111.501 -115.5
s97.334 -42 152.001 -42c60.667 0 115.5 16.5 164.5 49.5s87.167 78.5 114.5 136.5h42z" />
    <glyph glyph-name="Egrave" unicode="&#xc8;" horiz-adv-x="528" 
d="M139 345v-306h316v-39h-356v700h346v-39h-306v-277h296v-39h-296zM305 772h-43l-83 115h51z" />
    <glyph glyph-name="Eacute" unicode="&#xc9;" horiz-adv-x="528" 
d="M139 345v-306h316v-39h-356v700h346v-39h-306v-277h296v-39h-296zM286 772h-43l76 115h50z" />
    <glyph glyph-name="Ecircumflex" unicode="&#xca;" horiz-adv-x="528" 
d="M139 345v-306h316v-39h-356v700h346v-39h-306v-277h296v-39h-296zM199 772h-48l106 110h40l105 -110h-49l-77 80z" />
    <glyph glyph-name="Edieresis" unicode="&#xcb;" horiz-adv-x="528" 
d="M139 345v-306h316v-39h-356v700h346v-39h-306v-277h296v-39h-296zM218 804h-53v59h53v-59zM387 804h-53v59h53v-59z" />
    <glyph glyph-name="Igrave" unicode="&#xcc;" horiz-adv-x="248" 
d="M144 0h-40v700h40v-700zM152 772h-43l-83 115h51z" />
    <glyph glyph-name="Iacute" unicode="&#xcd;" horiz-adv-x="248" 
d="M144 0h-40v700h40v-700zM133 772h-43l76 115h50z" />
    <glyph glyph-name="Icircumflex" unicode="&#xce;" horiz-adv-x="248" 
d="M144 0h-40v700h40v-700zM46 772h-48l106 110h40l105 -110h-49l-77 80z" />
    <glyph glyph-name="Idieresis" unicode="&#xcf;" horiz-adv-x="248" 
d="M144 0h-40v700h40v-700zM66 804h-53v59h53v-59zM235 804h-53v59h53v-59z" />
    <glyph glyph-name="Eth" unicode="&#xd0;" horiz-adv-x="714" 
d="M273 700c78 0 146 -14.5 204 -43.5s102.833 -70 134.5 -123s47.5 -114.167 47.5 -183.5s-15.833 -130.5 -47.5 -183.5s-76.5 -94 -134.5 -123s-126 -43.5 -204 -43.5h-169v332h-94v38h94v330h169zM273 39c74 0 136.833 13.667 188.5 41s90.667 64.5 117 111.5
s39.5 99.833 39.5 158.5s-13.167 111.5 -39.5 158.5s-65.333 84.167 -117 111.5s-114.5 41 -188.5 41h-129v-291h241v-38h-241v-293h129z" />
    <glyph glyph-name="Ntilde" unicode="&#xd1;" horiz-adv-x="770" 
d="M631 74v626h40v-700h-28l-504 626v-626h-40v700h28zM260 796c0 23.333 5.83301 41.833 17.5 55.5s27.167 20.5 46.5 20.5c14 0 26 -2.66699 36 -8s21.333 -13.333 34 -24c10 -8.66699 18.5 -15 25.5 -19s14.833 -6 23.5 -6c21.333 0 32 16 32 48v9h34v-14
c0 -23.333 -5.83301 -41.833 -17.5 -55.5s-27.167 -20.5 -46.5 -20.5c-14 0 -26 2.66699 -36 8s-21.333 13.333 -34 24c-10 8.66699 -18.5 15 -25.5 19s-14.833 6 -23.5 6c-21.333 0 -32 -16 -32 -48v-10h-34v15z" />
    <glyph glyph-name="Ograve" unicode="&#xd2;" horiz-adv-x="813" 
d="M228.5 38c-53.667 32 -96 75.5 -127 130.5s-46.5 115.5 -46.5 181.5s15.5 126.5 46.5 181.5s73.333 98.5 127 130.5s112.834 48 177.501 48s123.834 -16 177.501 -48s96.167 -75.5 127.5 -130.5s47 -115.5 47 -181.5s-15.667 -126.5 -47 -181.5
s-73.833 -98.5 -127.5 -130.5s-112.834 -48 -177.501 -48s-123.834 16 -177.501 48zM563.5 71.5c47.667 28.333 85.167 67 112.5 116s41 103.167 41 162.5s-13.667 113.5 -41 162.5s-64.833 87.667 -112.5 116s-100.167 42.5 -157.5 42.5s-109.666 -14.167 -156.999 -42.5
s-84.666 -67 -111.999 -116s-41 -103.167 -41 -162.5s13.667 -113.5 41 -162.5s64.666 -87.667 111.999 -116s99.666 -42.5 156.999 -42.5s109.833 14.167 157.5 42.5zM434 772h-43l-83 115h51z" />
    <glyph glyph-name="Oacute" unicode="&#xd3;" horiz-adv-x="813" 
d="M228.5 38c-53.667 32 -96 75.5 -127 130.5s-46.5 115.5 -46.5 181.5s15.5 126.5 46.5 181.5s73.333 98.5 127 130.5s112.834 48 177.501 48s123.834 -16 177.501 -48s96.167 -75.5 127.5 -130.5s47 -115.5 47 -181.5s-15.667 -126.5 -47 -181.5
s-73.833 -98.5 -127.5 -130.5s-112.834 -48 -177.501 -48s-123.834 16 -177.501 48zM563.5 71.5c47.667 28.333 85.167 67 112.5 116s41 103.167 41 162.5s-13.667 113.5 -41 162.5s-64.833 87.667 -112.5 116s-100.167 42.5 -157.5 42.5s-109.666 -14.167 -156.999 -42.5
s-84.666 -67 -111.999 -116s-41 -103.167 -41 -162.5s13.667 -113.5 41 -162.5s64.666 -87.667 111.999 -116s99.666 -42.5 156.999 -42.5s109.833 14.167 157.5 42.5zM415 772h-43l76 115h50z" />
    <glyph glyph-name="Ocircumflex" unicode="&#xd4;" horiz-adv-x="813" 
d="M228.5 38c-53.667 32 -96 75.5 -127 130.5s-46.5 115.5 -46.5 181.5s15.5 126.5 46.5 181.5s73.333 98.5 127 130.5s112.834 48 177.501 48s123.834 -16 177.501 -48s96.167 -75.5 127.5 -130.5s47 -115.5 47 -181.5s-15.667 -126.5 -47 -181.5
s-73.833 -98.5 -127.5 -130.5s-112.834 -48 -177.501 -48s-123.834 16 -177.501 48zM563.5 71.5c47.667 28.333 85.167 67 112.5 116s41 103.167 41 162.5s-13.667 113.5 -41 162.5s-64.833 87.667 -112.5 116s-100.167 42.5 -157.5 42.5s-109.666 -14.167 -156.999 -42.5
s-84.666 -67 -111.999 -116s-41 -103.167 -41 -162.5s13.667 -113.5 41 -162.5s64.666 -87.667 111.999 -116s99.666 -42.5 156.999 -42.5s109.833 14.167 157.5 42.5zM329 772h-48l106 110h40l105 -110h-49l-77 80z" />
    <glyph glyph-name="Otilde" unicode="&#xd5;" horiz-adv-x="813" 
d="M228.5 38c-53.667 32 -96 75.5 -127 130.5s-46.5 115.5 -46.5 181.5s15.5 126.5 46.5 181.5s73.333 98.5 127 130.5s112.834 48 177.501 48s123.834 -16 177.501 -48s96.167 -75.5 127.5 -130.5s47 -115.5 47 -181.5s-15.667 -126.5 -47 -181.5
s-73.833 -98.5 -127.5 -130.5s-112.834 -48 -177.501 -48s-123.834 16 -177.501 48zM563.5 71.5c47.667 28.333 85.167 67 112.5 116s41 103.167 41 162.5s-13.667 113.5 -41 162.5s-64.833 87.667 -112.5 116s-100.167 42.5 -157.5 42.5s-109.666 -14.167 -156.999 -42.5
s-84.666 -67 -111.999 -116s-41 -103.167 -41 -162.5s13.667 -113.5 41 -162.5s64.666 -87.667 111.999 -116s99.666 -42.5 156.999 -42.5s109.833 14.167 157.5 42.5zM281 796c0 23.333 5.83301 41.833 17.5 55.5s27.167 20.5 46.5 20.5c14 0 26 -2.66699 36 -8
s21.333 -13.333 34 -24c10 -8.66699 18.5 -15 25.5 -19s14.833 -6 23.5 -6c21.333 0 32 16 32 48v9h34v-14c0 -23.333 -5.83301 -41.833 -17.5 -55.5s-27.167 -20.5 -46.5 -20.5c-14 0 -26 2.66699 -36 8s-21.333 13.333 -34 24c-10 8.66699 -18.5 15 -25.5 19
s-14.833 6 -23.5 6c-21.333 0 -32 -16 -32 -48v-10h-34v15z" />
    <glyph glyph-name="Odieresis" unicode="&#xd6;" horiz-adv-x="813" 
d="M228.5 38c-53.667 32 -96 75.5 -127 130.5s-46.5 115.5 -46.5 181.5s15.5 126.5 46.5 181.5s73.333 98.5 127 130.5s112.834 48 177.501 48s123.834 -16 177.501 -48s96.167 -75.5 127.5 -130.5s47 -115.5 47 -181.5s-15.667 -126.5 -47 -181.5
s-73.833 -98.5 -127.5 -130.5s-112.834 -48 -177.501 -48s-123.834 16 -177.501 48zM563.5 71.5c47.667 28.333 85.167 67 112.5 116s41 103.167 41 162.5s-13.667 113.5 -41 162.5s-64.833 87.667 -112.5 116s-100.167 42.5 -157.5 42.5s-109.666 -14.167 -156.999 -42.5
s-84.666 -67 -111.999 -116s-41 -103.167 -41 -162.5s13.667 -113.5 41 -162.5s64.666 -87.667 111.999 -116s99.666 -42.5 156.999 -42.5s109.833 14.167 157.5 42.5zM348 804h-53v59h53v-59zM517 804h-53v59h53v-59z" />
    <glyph glyph-name="multiply" unicode="&#xd7;" 
d="M434 540l27 -27l-172 -172l172 -172l-27 -27l-172 172l-172 -172l-27 27l172 172l-172 172l27 27l172 -172z" />
    <glyph glyph-name="Oslash" unicode="&#xd8;" horiz-adv-x="813" 
d="M640 621c37.333 -33.333 66.333 -73.5 87 -120.5s31 -97.167 31 -150.5c0 -66 -15.667 -126.5 -47 -181.5s-73.833 -98.5 -127.5 -130.5s-112.834 -48 -177.501 -48c-75.333 0 -143 21.667 -203 65l-51 -65h-48l69 89c-37.333 33.333 -66.333 73.5 -87 120.5
s-31 97.167 -31 150.5c0 66 15.5 126.5 46.5 181.5s73.333 98.5 127 130.5s112.834 48 177.501 48c76 0 144 -22 204 -66l51 66h48zM123 217c18 -41.333 42.665 -76.668 73.998 -106.001l389 502c-52 38.667 -112 58 -180 58c-57.333 0 -109.666 -14.167 -156.999 -42.5
s-84.666 -67 -111.999 -116s-41 -103.167 -41 -162.5c0 -47.333 9 -91.666 27 -132.999zM563.498 71.498c47.667 28.333 85.167 67.002 112.5 116.002s41 103.167 41 162.5c0 47.333 -9 91.666 -27 132.999s-42.667 76.666 -74 105.999l-389 -502
c52 -38.667 111.667 -58 179 -58c57.333 0 109.833 14.167 157.5 42.5z" />
    <glyph glyph-name="Ugrave" unicode="&#xd9;" horiz-adv-x="672" 
d="M207 22c-37.333 21.333 -66.335 51.5 -87.002 90.5s-31 84.167 -31 135.5v452h40v-452c0 -66.667 18.833 -119.834 56.5 -159.501s87.834 -59.5 150.501 -59.5s112.834 19.833 150.501 59.5s56.5 92.834 56.5 159.501v452h40v-452c0 -51.333 -10.333 -96.5 -31 -135.5
s-49.667 -69.167 -87 -90.5s-80.333 -32 -129 -32s-91.667 10.667 -129 32zM363.998 772h-43l-83 115h51z" />
    <glyph glyph-name="Uacute" unicode="&#xda;" horiz-adv-x="672" 
d="M207 22c-37.333 21.333 -66.335 51.5 -87.002 90.5s-31 84.167 -31 135.5v452h40v-452c0 -66.667 18.833 -119.834 56.5 -159.501s87.834 -59.5 150.501 -59.5s112.834 19.833 150.501 59.5s56.5 92.834 56.5 159.501v452h40v-452c0 -51.333 -10.333 -96.5 -31 -135.5
s-49.667 -69.167 -87 -90.5s-80.333 -32 -129 -32s-91.667 10.667 -129 32zM344.998 772h-43l76 115h50z" />
    <glyph glyph-name="Ucircumflex" unicode="&#xdb;" horiz-adv-x="672" 
d="M207 22c-37.333 21.333 -66.335 51.5 -87.002 90.5s-31 84.167 -31 135.5v452h40v-452c0 -66.667 18.833 -119.834 56.5 -159.501s87.834 -59.5 150.501 -59.5s112.834 19.833 150.501 59.5s56.5 92.834 56.5 159.501v452h40v-452c0 -51.333 -10.333 -96.5 -31 -135.5
s-49.667 -69.167 -87 -90.5s-80.333 -32 -129 -32s-91.667 10.667 -129 32zM257.998 772h-48l106 110h40l105 -110h-49l-77 80z" />
    <glyph glyph-name="Udieresis" unicode="&#xdc;" horiz-adv-x="672" 
d="M207 22c-37.333 21.333 -66.335 51.5 -87.002 90.5s-31 84.167 -31 135.5v452h40v-452c0 -66.667 18.833 -119.834 56.5 -159.501s87.834 -59.5 150.501 -59.5s112.834 19.833 150.501 59.5s56.5 92.834 56.5 159.501v452h40v-452c0 -51.333 -10.333 -96.5 -31 -135.5
s-49.667 -69.167 -87 -90.5s-80.333 -32 -129 -32s-91.667 10.667 -129 32zM277.998 804h-53v59h53v-59zM446.998 804h-53v59h53v-59z" />
    <glyph glyph-name="Yacute" unicode="&#xdd;" horiz-adv-x="526" 
d="M264 357l198 343h45l-224 -384v-316h-40v316l-224 384h46zM272 772h-43l76 115h50z" />
    <glyph glyph-name="Thorn" unicode="&#xde;" horiz-adv-x="651" 
d="M396 535c42 0 78.833 -8.16699 110.5 -24.5s55.834 -38.5 72.501 -66.5s25 -59.333 25 -94s-8.33301 -66 -25 -94s-40.834 -50.167 -72.501 -66.5s-68.5 -24.5 -110.5 -24.5h-257v-165h-40v700h40v-165h257zM396 204c53.333 0 94.666 13.833 123.999 41.5
s44 62.5 44 104.5s-14.667 76.833 -44 104.5s-70.666 41.5 -123.999 41.5h-257v-292h257z" />
    <glyph glyph-name="germandbls" unicode="&#xdf;" horiz-adv-x="541" 
d="M456.5 309.5c23.667 -29.667 35.502 -68.502 35.502 -116.502c0 -60.667 -19.167 -108 -57.5 -142s-88.833 -51 -151.5 -51h-55v38h60c48.667 0 88.167 13.667 118.5 41s45.5 65.333 45.5 114s-15.167 86.667 -45.5 114s-69.833 41 -118.5 41h-60v37h48
c41.333 0 76 13 104 39s42 61 42 105c0 43.333 -14 78 -42 104s-62.333 39 -103 39c-48.667 0 -86.5 -15.167 -113.5 -45.5s-40.5 -69.833 -40.5 -118.5v-508h-39v508c0 40.667 8.16699 76.334 24.5 107.001s39.166 54.167 68.499 70.5s62.666 24.5 99.999 24.5
c32.667 0 63.167 -7.33301 91.5 -22s51 -35.667 68 -63s25.5 -59 25.5 -95c0 -37.333 -9.16699 -69.666 -27.5 -96.999s-41.833 -48 -70.5 -62c38 -11.333 68.833 -31.833 92.5 -61.5z" />
    <glyph glyph-name="agrave" unicode="&#xe0;" horiz-adv-x="617" 
d="M499 490h39v-490h-39v113c-20.667 -38 -49.667 -68 -87 -90s-78.333 -33 -123 -33c-46 0 -88 11.167 -126 33.5s-68 53 -90 92s-33 82.167 -33 129.5s11 90.5 33 129.5s52 69.667 90 92s80 33.5 126 33.5c44.667 0 85.667 -11 123 -33s66.333 -52 87 -90v113zM396 56
c32 18.667 57.333 44.5 76 77.5s28 70.167 28 111.5s-9.33301 78.5 -28 111.5s-44 58.833 -76 77.5s-67.333 28 -106 28s-74 -9.33301 -106 -28s-57.333 -44.5 -76 -77.5s-28 -70.167 -28 -111.5s9.33301 -78.5 28 -111.5s44 -58.833 76 -77.5s67.333 -28 106 -28
s74 9.33301 106 28zM335 568h-43l-83 114h51z" />
    <glyph glyph-name="aacute" unicode="&#xe1;" horiz-adv-x="617" 
d="M499 490h39v-490h-39v113c-20.667 -38 -49.667 -68 -87 -90s-78.333 -33 -123 -33c-46 0 -88 11.167 -126 33.5s-68 53 -90 92s-33 82.167 -33 129.5s11 90.5 33 129.5s52 69.667 90 92s80 33.5 126 33.5c44.667 0 85.667 -11 123 -33s66.333 -52 87 -90v113zM396 56
c32 18.667 57.333 44.5 76 77.5s28 70.167 28 111.5s-9.33301 78.5 -28 111.5s-44 58.833 -76 77.5s-67.333 28 -106 28s-74 -9.33301 -106 -28s-57.333 -44.5 -76 -77.5s-28 -70.167 -28 -111.5s9.33301 -78.5 28 -111.5s44 -58.833 76 -77.5s67.333 -28 106 -28
s74 9.33301 106 28zM316 568h-43l76 114h50z" />
    <glyph glyph-name="acircumflex" unicode="&#xe2;" horiz-adv-x="617" 
d="M499 490h39v-490h-39v113c-20.667 -38 -49.667 -68 -87 -90s-78.333 -33 -123 -33c-46 0 -88 11.167 -126 33.5s-68 53 -90 92s-33 82.167 -33 129.5s11 90.5 33 129.5s52 69.667 90 92s80 33.5 126 33.5c44.667 0 85.667 -11 123 -33s66.333 -52 87 -90v113zM396 56
c32 18.667 57.333 44.5 76 77.5s28 70.167 28 111.5s-9.33301 78.5 -28 111.5s-44 58.833 -76 77.5s-67.333 28 -106 28s-74 -9.33301 -106 -28s-57.333 -44.5 -76 -77.5s-28 -70.167 -28 -111.5s9.33301 -78.5 28 -111.5s44 -58.833 76 -77.5s67.333 -28 106 -28
s74 9.33301 106 28zM229 568h-48l106 109h40l105 -109h-49l-77 80z" />
    <glyph glyph-name="atilde" unicode="&#xe3;" horiz-adv-x="617" 
d="M499 490h39v-490h-39v113c-20.667 -38 -49.667 -68 -87 -90s-78.333 -33 -123 -33c-46 0 -88 11.167 -126 33.5s-68 53 -90 92s-33 82.167 -33 129.5s11 90.5 33 129.5s52 69.667 90 92s80 33.5 126 33.5c44.667 0 85.667 -11 123 -33s66.333 -52 87 -90v113zM396 56
c32 18.667 57.333 44.5 76 77.5s28 70.167 28 111.5s-9.33301 78.5 -28 111.5s-44 58.833 -76 77.5s-67.333 28 -106 28s-74 -9.33301 -106 -28s-57.333 -44.5 -76 -77.5s-28 -70.167 -28 -111.5s9.33301 -78.5 28 -111.5s44 -58.833 76 -77.5s67.333 -28 106 -28
s74 9.33301 106 28zM182 592c0 23.333 5.83301 41.667 17.5 55s27.167 20 46.5 20c14 0 26.167 -2.66699 36.5 -8s21.5 -13 33.5 -23c10 -8.66699 18.5 -15 25.5 -19s14.833 -6 23.5 -6c21.333 0 32 15.667 32 47v10h34v-14c0 -24 -5.66699 -42.667 -17 -56s-27 -20 -47 -20
c-14 0 -26 2.66699 -36 8s-21.333 13.333 -34 24c-10 8.66699 -18.5 15 -25.5 19s-14.833 6 -23.5 6c-21.333 0 -32 -16 -32 -48v-10h-34v15z" />
    <glyph glyph-name="adieresis" unicode="&#xe4;" horiz-adv-x="617" 
d="M499 490h39v-490h-39v113c-20.667 -38 -49.667 -68 -87 -90s-78.333 -33 -123 -33c-46 0 -88 11.167 -126 33.5s-68 53 -90 92s-33 82.167 -33 129.5s11 90.5 33 129.5s52 69.667 90 92s80 33.5 126 33.5c44.667 0 85.667 -11 123 -33s66.333 -52 87 -90v113zM396 56
c32 18.667 57.333 44.5 76 77.5s28 70.167 28 111.5s-9.33301 78.5 -28 111.5s-44 58.833 -76 77.5s-67.333 28 -106 28s-74 -9.33301 -106 -28s-57.333 -44.5 -76 -77.5s-28 -70.167 -28 -111.5s9.33301 -78.5 28 -111.5s44 -58.833 76 -77.5s67.333 -28 106 -28
s74 9.33301 106 28zM253 600h-53v58h53v-58zM414 600h-53v58h53v-58z" />
    <glyph glyph-name="aring" unicode="&#xe5;" horiz-adv-x="617" 
d="M499 490h39v-490h-39v113c-20.667 -38 -49.667 -68 -87 -90s-78.333 -33 -123 -33c-46 0 -88 11.167 -126 33.5s-68 53 -90 92s-33 82.167 -33 129.5s11 90.5 33 129.5s52 69.667 90 92s80 33.5 126 33.5c44.667 0 85.667 -11 123 -33s66.333 -52 87 -90v113zM396 56
c32 18.667 57.333 44.5 76 77.5s28 70.167 28 111.5s-9.33301 78.5 -28 111.5s-44 58.833 -76 77.5s-67.333 28 -106 28s-74 -9.33301 -106 -28s-57.333 -44.5 -76 -77.5s-28 -70.167 -28 -111.5s9.33301 -78.5 28 -111.5s44 -58.833 76 -77.5s67.333 -28 106 -28
s74 9.33301 106 28zM244 574c-16.667 16.667 -25 37.334 -25 62.001s8.16699 45.167 24.5 61.5s37.5 24.5 63.5 24.5c25.333 0 46.333 -8.16699 63 -24.5s25 -36.833 25 -61.5s-8.33301 -45.334 -25 -62.001s-37.667 -25 -63 -25s-46.333 8.33301 -63 25zM347.5 595
c10.333 10.667 15.5 24.334 15.5 41.001s-5.16699 30.167 -15.5 40.5s-23.833 15.5 -40.5 15.5s-30.167 -5.16699 -40.5 -15.5s-15.5 -23.833 -15.5 -40.5s5.16699 -30.334 15.5 -41.001s23.833 -16 40.5 -16s30.167 5.33301 40.5 16z" />
    <glyph glyph-name="ae" unicode="&#xe6;" horiz-adv-x="913" 
d="M765.5 466c35 -22.667 62.498 -54.498 82.498 -95.498s28.333 -87.167 25 -138.5h-410c2 -40.667 11.5 -76.5 28.5 -107.5s39.333 -54.833 67 -71.5s57.834 -25 90.501 -25c40 0 74.667 11 104 33s51 50 65 84h41c-16 -43.333 -41.833 -80 -77.5 -110
s-78.834 -45 -129.501 -45c-48 0 -89.667 13 -125 39s-61.333 58.667 -78 98c-17.333 -42.667 -43.666 -76.167 -78.999 -100.5s-77.666 -36.5 -126.999 -36.5c-54.667 0 -99 13.167 -133 39.5s-51 62.833 -51 109.5c0 41.333 15.667 73.5 47 96.5s74 34.5 128 34.5h190v55
c0 40.667 -13.333 73.667 -40 99s-63.667 38 -111 38c-42.667 0 -76.167 -8.83301 -100.5 -26.5s-40.833 -40.834 -49.5 -69.501h-41c9.33301 38.667 30 70.667 62 96s74.667 38 128 38c46.667 0 86.167 -11.5 118.5 -34.5s53.5 -53.5 63.5 -91.5
c20 39.333 47.167 70.166 81.5 92.499s73.5 33.5 117.5 33.5c40 0 77.5 -11.333 112.5 -34zM562.498 438.502c-27 -15.667 -49.332 -38.167 -66.999 -67.5s-28.167 -63 -31.5 -101h370c-2.66699 38.667 -12.834 72.5 -30.501 101.5s-40.167 51.333 -67.5 67
s-56.333 23.5 -87 23.5s-59.5 -7.83301 -86.5 -23.5zM338.499 51.502c27.667 15.667 48.833 35.832 63.5 60.499s22 50.334 22 77.001v43h-190c-44 0 -77.5 -7.5 -100.5 -22.5s-34.5 -39.167 -34.5 -72.5c0 -31.333 12.5 -57.333 37.5 -78s60.5 -31 106.5 -31
c36 0 67.833 7.83301 95.5 23.5z" />
    <glyph glyph-name="ccedilla" unicode="&#xe7;" horiz-adv-x="543" 
d="M390.5 56.5c33 19 58.5 45.166 76.5 78.499h42c-18.667 -42.667 -47.167 -77 -85.5 -103s-80.5 -40 -126.5 -42l-15 -33h7c20.667 0 38.834 -6 54.501 -18s23.5 -29.333 23.5 -52c0 -24 -8 -42.167 -24 -54.5s-34 -18.5 -54 -18.5h-52v30h50c14 0 25.167 4 33.5 12
s12.5 18.333 12.5 31c0 12 -4.16699 22 -12.5 30s-19.5 12 -33.5 12h-37v23l17 39c-42 3.33301 -80.333 16.5 -115 39.5s-62 53.333 -82 91s-30 78.834 -30 123.501c0 46.667 11 89.5 33 128.5s51.833 69.833 89.5 92.5s79.167 34 124.5 34c48 0 92.167 -13 132.5 -39
s70.166 -61.333 89.499 -106h-42c-18 33.333 -43.5 59.5 -76.5 78.5s-67.5 28.5 -103.5 28.5c-37.333 0 -71.833 -9.33301 -103.5 -28s-56.834 -44.5 -75.501 -77.5s-28 -70.167 -28 -111.5s9.33301 -78.5 28 -111.5s43.834 -58.833 75.501 -77.5s66.167 -28 103.5 -28
c36 0 70.5 9.5 103.5 28.5z" />
    <glyph glyph-name="egrave" unicode="&#xe8;" horiz-adv-x="565" 
d="M408 465.5c36.667 -23 65.335 -53.333 86.002 -91s31 -77.167 31 -118.5c0 -10.667 -0.333008 -18.667 -1 -24h-444c2 -40 12.167 -75.5 30.5 -106.5s42.666 -55 72.999 -72s63.166 -25.5 98.499 -25.5c44 0 82.333 11 115 33s56.334 50 71.001 84h42
c-20 -49.333 -50.333 -87.5 -91 -114.5s-87 -40.5 -139 -40.5c-43.333 0 -83.333 11.167 -120 33.5s-65.834 53 -87.501 92s-32.5 82.167 -32.5 129.5s11 90.5 33 129.5s51.667 69.667 89 92s78 33.5 122 33.5c46 0 87.333 -11.5 124 -34.5zM187.001 438
c-29.333 -16 -53.501 -38.668 -72.501 -68.001s-30.167 -62.666 -33.5 -99.999h405c-2 32 -11.667 62.833 -29 92.5s-41 53.667 -71 72s-64 27.5 -102 27.5c-35.333 0 -67.666 -8 -96.999 -24zM310 567.999h-43l-83 114h51z" />
    <glyph glyph-name="eacute" unicode="&#xe9;" horiz-adv-x="565" 
d="M408 465.5c36.667 -23 65.335 -53.333 86.002 -91s31 -77.167 31 -118.5c0 -10.667 -0.333008 -18.667 -1 -24h-444c2 -40 12.167 -75.5 30.5 -106.5s42.666 -55 72.999 -72s63.166 -25.5 98.499 -25.5c44 0 82.333 11 115 33s56.334 50 71.001 84h42
c-20 -49.333 -50.333 -87.5 -91 -114.5s-87 -40.5 -139 -40.5c-43.333 0 -83.333 11.167 -120 33.5s-65.834 53 -87.501 92s-32.5 82.167 -32.5 129.5s11 90.5 33 129.5s51.667 69.667 89 92s78 33.5 122 33.5c46 0 87.333 -11.5 124 -34.5zM187.001 438
c-29.333 -16 -53.501 -38.668 -72.501 -68.001s-30.167 -62.666 -33.5 -99.999h405c-2 32 -11.667 62.833 -29 92.5s-41 53.667 -71 72s-64 27.5 -102 27.5c-35.333 0 -67.666 -8 -96.999 -24zM292 567.999h-43l76 114h50z" />
    <glyph glyph-name="ecircumflex" unicode="&#xea;" horiz-adv-x="565" 
d="M408 465.5c36.667 -23 65.335 -53.333 86.002 -91s31 -77.167 31 -118.5c0 -10.667 -0.333008 -18.667 -1 -24h-444c2 -40 12.167 -75.5 30.5 -106.5s42.666 -55 72.999 -72s63.166 -25.5 98.499 -25.5c44 0 82.333 11 115 33s56.334 50 71.001 84h42
c-20 -49.333 -50.333 -87.5 -91 -114.5s-87 -40.5 -139 -40.5c-43.333 0 -83.333 11.167 -120 33.5s-65.834 53 -87.501 92s-32.5 82.167 -32.5 129.5s11 90.5 33 129.5s51.667 69.667 89 92s78 33.5 122 33.5c46 0 87.333 -11.5 124 -34.5zM187.001 438
c-29.333 -16 -53.501 -38.668 -72.501 -68.001s-30.167 -62.666 -33.5 -99.999h405c-2 32 -11.667 62.833 -29 92.5s-41 53.667 -71 72s-64 27.5 -102 27.5c-35.333 0 -67.666 -8 -96.999 -24zM205 567.999h-48l106 109h40l105 -109h-49l-77 80z" />
    <glyph glyph-name="edieresis" unicode="&#xeb;" horiz-adv-x="565" 
d="M408 465.5c36.667 -23 65.335 -53.333 86.002 -91s31 -77.167 31 -118.5c0 -10.667 -0.333008 -18.667 -1 -24h-444c2 -40 12.167 -75.5 30.5 -106.5s42.666 -55 72.999 -72s63.166 -25.5 98.499 -25.5c44 0 82.333 11 115 33s56.334 50 71.001 84h42
c-20 -49.333 -50.333 -87.5 -91 -114.5s-87 -40.5 -139 -40.5c-43.333 0 -83.333 11.167 -120 33.5s-65.834 53 -87.501 92s-32.5 82.167 -32.5 129.5s11 90.5 33 129.5s51.667 69.667 89 92s78 33.5 122 33.5c46 0 87.333 -11.5 124 -34.5zM187.001 438
c-29.333 -16 -53.501 -38.668 -72.501 -68.001s-30.167 -62.666 -33.5 -99.999h405c-2 32 -11.667 62.833 -29 92.5s-41 53.667 -71 72s-64 27.5 -102 27.5c-35.333 0 -67.666 -8 -96.999 -24zM228 599.999h-53v58h53v-58zM389 599.999h-53v58h53v-58z" />
    <glyph glyph-name="igrave" unicode="&#xec;" horiz-adv-x="197" 
d="M118 0h-39v490h39v-490zM126 568h-43l-83 114h51z" />
    <glyph glyph-name="iacute" unicode="&#xed;" horiz-adv-x="197" 
d="M118 0h-39v490h39v-490zM108 568h-43l76 114h50z" />
    <glyph glyph-name="icircumflex" unicode="&#xee;" horiz-adv-x="197" 
d="M118 0h-39v490h39v-490zM21 568h-48l106 109h40l105 -109h-49l-77 80z" />
    <glyph glyph-name="idieresis" unicode="&#xef;" horiz-adv-x="197" 
d="M118 0h-39v490h39v-490zM69 600h-53v58h53v-58zM180 600h-53v58h53v-58z" />
    <glyph glyph-name="eth" unicode="&#xf0;" horiz-adv-x="531" 
d="M334 611c104.667 -98 157 -221.332 157 -369.999c0 -50 -10 -94 -30 -132s-47.333 -67.333 -82 -88s-73.667 -31 -117 -31c-42.667 0 -81.167 10 -115.5 30s-61.5 47.5 -81.5 82.5s-30 74.167 -30 117.5s10 82.5 30 117.5s47.167 62.5 81.5 82.5s72.833 30 115.5 30
c36 0 70 -8.83301 102 -26.5s57.333 -40.167 76 -67.5c-19.333 91.333 -66.666 170.333 -141.999 237l-140 -72l-19 33l128 65c-34.667 27.333 -72.334 51 -113.001 71l31 25c42 -20.667 81.667 -46.334 119 -77.001l102 52l19 -32zM357 52.501
c28.667 16.333 51.334 39.166 68.001 68.499s25 62.333 25 99s-8.33301 69.667 -25 99s-39.334 52.166 -68.001 68.499s-60.334 24.5 -95.001 24.5s-66.334 -8.16699 -95.001 -24.5s-51.334 -39.166 -68.001 -68.499s-25 -62.333 -25 -99s8.33301 -69.667 25 -99
s39.334 -52.166 68.001 -68.499s60.334 -24.5 95.001 -24.5s66.334 8.16699 95.001 24.5z" />
    <glyph glyph-name="ntilde" unicode="&#xf1;" horiz-adv-x="555" 
d="M390.5 473.5c29 -17.667 51.333 -42.166 67 -73.499s23.5 -67 23.5 -107v-293h-39v285c0 51.333 -12.833 93.666 -38.5 126.999s-65.834 50 -120.501 50c-30.667 0 -58.667 -7.66699 -84 -23s-45.166 -35.833 -59.499 -61.5s-21.5 -52.5 -21.5 -80.5v-297h-39v490h39v-88
c16 29.333 39 53 69 71s63.667 27 101 27c39.333 0 73.5 -8.83301 102.5 -26.5zM155 592.001c0 23.333 5.83301 41.667 17.5 55s27.167 20 46.5 20c14 0 26.167 -2.66699 36.5 -8s21.5 -13 33.5 -23c10 -8.66699 18.5 -15 25.5 -19s14.833 -6 23.5 -6
c21.333 0 32 15.667 32 47v10h34v-14c0 -24 -5.66699 -42.667 -17 -56s-27 -20 -47 -20c-14 0 -26 2.66699 -36 8s-21.333 13.333 -34 24c-10 8.66699 -18.5 15 -25.5 19s-14.833 6 -23.5 6c-21.333 0 -32 -16 -32 -48v-10h-34v15z" />
    <glyph glyph-name="ograve" unicode="&#xf2;" horiz-adv-x="579" 
d="M163.5 23.5c-38.333 22.333 -68.5 53 -90.5 92s-33 82.167 -33 129.5s11 90.5 33 129.5s52.167 69.667 90.5 92s80.5 33.5 126.5 33.5s88 -11.167 126 -33.5s68 -53 90 -92s33 -82.167 33 -129.5s-11 -90.5 -33 -129.5s-52 -69.667 -90 -92s-80 -33.5 -126 -33.5
s-88.167 11.167 -126.5 33.5zM396 56c32 18.667 57.333 44.5 76 77.5s28 70.167 28 111.5s-9.33301 78.5 -28 111.5s-44 58.833 -76 77.5s-67.333 28 -106 28s-74 -9.33301 -106 -28s-57.333 -44.5 -76 -77.5s-28 -70.167 -28 -111.5s9.33301 -78.5 28 -111.5
s44 -58.833 76 -77.5s67.333 -28 106 -28s74 9.33301 106 28zM317 568h-43l-83 114h51z" />
    <glyph glyph-name="oacute" unicode="&#xf3;" horiz-adv-x="579" 
d="M163.5 23.5c-38.333 22.333 -68.5 53 -90.5 92s-33 82.167 -33 129.5s11 90.5 33 129.5s52.167 69.667 90.5 92s80.5 33.5 126.5 33.5s88 -11.167 126 -33.5s68 -53 90 -92s33 -82.167 33 -129.5s-11 -90.5 -33 -129.5s-52 -69.667 -90 -92s-80 -33.5 -126 -33.5
s-88.167 11.167 -126.5 33.5zM396 56c32 18.667 57.333 44.5 76 77.5s28 70.167 28 111.5s-9.33301 78.5 -28 111.5s-44 58.833 -76 77.5s-67.333 28 -106 28s-74 -9.33301 -106 -28s-57.333 -44.5 -76 -77.5s-28 -70.167 -28 -111.5s9.33301 -78.5 28 -111.5
s44 -58.833 76 -77.5s67.333 -28 106 -28s74 9.33301 106 28zM299 568h-43l76 114h50z" />
    <glyph glyph-name="ocircumflex" unicode="&#xf4;" horiz-adv-x="579" 
d="M163.5 23.5c-38.333 22.333 -68.5 53 -90.5 92s-33 82.167 -33 129.5s11 90.5 33 129.5s52.167 69.667 90.5 92s80.5 33.5 126.5 33.5s88 -11.167 126 -33.5s68 -53 90 -92s33 -82.167 33 -129.5s-11 -90.5 -33 -129.5s-52 -69.667 -90 -92s-80 -33.5 -126 -33.5
s-88.167 11.167 -126.5 33.5zM396 56c32 18.667 57.333 44.5 76 77.5s28 70.167 28 111.5s-9.33301 78.5 -28 111.5s-44 58.833 -76 77.5s-67.333 28 -106 28s-74 -9.33301 -106 -28s-57.333 -44.5 -76 -77.5s-28 -70.167 -28 -111.5s9.33301 -78.5 28 -111.5
s44 -58.833 76 -77.5s67.333 -28 106 -28s74 9.33301 106 28zM212 568h-48l106 109h40l105 -109h-49l-77 80z" />
    <glyph glyph-name="otilde" unicode="&#xf5;" horiz-adv-x="579" 
d="M163.5 23.5c-38.333 22.333 -68.5 53 -90.5 92s-33 82.167 -33 129.5s11 90.5 33 129.5s52.167 69.667 90.5 92s80.5 33.5 126.5 33.5s88 -11.167 126 -33.5s68 -53 90 -92s33 -82.167 33 -129.5s-11 -90.5 -33 -129.5s-52 -69.667 -90 -92s-80 -33.5 -126 -33.5
s-88.167 11.167 -126.5 33.5zM396 56c32 18.667 57.333 44.5 76 77.5s28 70.167 28 111.5s-9.33301 78.5 -28 111.5s-44 58.833 -76 77.5s-67.333 28 -106 28s-74 -9.33301 -106 -28s-57.333 -44.5 -76 -77.5s-28 -70.167 -28 -111.5s9.33301 -78.5 28 -111.5
s44 -58.833 76 -77.5s67.333 -28 106 -28s74 9.33301 106 28zM165 592c0 23.333 5.83301 41.667 17.5 55s27.167 20 46.5 20c14 0 26.167 -2.66699 36.5 -8s21.5 -13 33.5 -23c10 -8.66699 18.5 -15 25.5 -19s14.833 -6 23.5 -6c21.333 0 32 15.667 32 47v10h34v-14
c0 -24 -5.66699 -42.667 -17 -56s-27 -20 -47 -20c-14 0 -26 2.66699 -36 8s-21.333 13.333 -34 24c-10 8.66699 -18.5 15 -25.5 19s-14.833 6 -23.5 6c-21.333 0 -32 -16 -32 -48v-10h-34v15z" />
    <glyph glyph-name="odieresis" unicode="&#xf6;" horiz-adv-x="579" 
d="M163.5 23.5c-38.333 22.333 -68.5 53 -90.5 92s-33 82.167 -33 129.5s11 90.5 33 129.5s52.167 69.667 90.5 92s80.5 33.5 126.5 33.5s88 -11.167 126 -33.5s68 -53 90 -92s33 -82.167 33 -129.5s-11 -90.5 -33 -129.5s-52 -69.667 -90 -92s-80 -33.5 -126 -33.5
s-88.167 11.167 -126.5 33.5zM396 56c32 18.667 57.333 44.5 76 77.5s28 70.167 28 111.5s-9.33301 78.5 -28 111.5s-44 58.833 -76 77.5s-67.333 28 -106 28s-74 -9.33301 -106 -28s-57.333 -44.5 -76 -77.5s-28 -70.167 -28 -111.5s9.33301 -78.5 28 -111.5
s44 -58.833 76 -77.5s67.333 -28 106 -28s74 9.33301 106 28zM235 600h-53v58h53v-58zM396 600h-53v58h53v-58z" />
    <glyph glyph-name="divide" unicode="&#xf7;" 
d="M295 471h-64v77h64v-77zM498 321h-471v38h471v-38zM295 132h-64v77h64v-77z" />
    <glyph glyph-name="oslash" unicode="&#xf8;" horiz-adv-x="579" 
d="M460 433c24.667 -23.333 44 -51.166 58 -83.499s21 -67.166 21 -104.499c0 -47.333 -11 -90.5 -33 -129.5s-52 -69.667 -90 -92s-80 -33.5 -126 -33.5c-53.333 0 -101 14.667 -143 44l-34 -44h-46l52 67c-24.667 23.333 -44 51.166 -58 83.499s-21 67.166 -21 104.499
c0 47.333 11 90.5 33 129.5s52.167 69.667 90.5 92s80.5 33.5 126.5 33.5c52.667 0 100 -14.667 142 -44l35 44h45zM96.5 156.5c11 -27 26.5 -50.167 46.5 -69.5l266 339c-35.333 24 -75 36 -119 36c-38.667 0 -74 -9.33301 -106 -28s-57.333 -44.5 -76 -77.5
s-28 -70.167 -28 -111.5c0 -32 5.5 -61.5 16.5 -88.5zM396 56c32 18.667 57.333 44.5 76 77.5s28 70.167 28 111.5c0 32 -5.5 61.5 -16.5 88.5s-26.833 50.167 -47.5 69.5l-265 -339c35.333 -24 75 -36 119 -36c38.667 0 74 9.33301 106 28z" />
    <glyph glyph-name="ugrave" unicode="&#xf9;" horiz-adv-x="545" 
d="M127.5 47.5c-35.667 38.333 -53.501 88.167 -53.501 149.5v293h39v-285c0 -51.333 13 -93.666 39 -126.999s66.333 -50 121 -50c54 0 94 16.667 120 50s39 75.666 39 126.999v285h39v-293c0 -62 -17.667 -112 -53 -150s-83.666 -57 -144.999 -57
s-109.833 19.167 -145.5 57.5zM299.999 568.001h-43l-83 114h51z" />
    <glyph glyph-name="uacute" unicode="&#xfa;" horiz-adv-x="545" 
d="M127.5 47.5c-35.667 38.333 -53.501 88.167 -53.501 149.5v293h39v-285c0 -51.333 13 -93.666 39 -126.999s66.333 -50 121 -50c54 0 94 16.667 120 50s39 75.666 39 126.999v285h39v-293c0 -62 -17.667 -112 -53 -150s-83.666 -57 -144.999 -57
s-109.833 19.167 -145.5 57.5zM281.999 568.001h-43l76 114h50z" />
    <glyph glyph-name="ucircumflex" unicode="&#xfb;" horiz-adv-x="545" 
d="M127.5 47.5c-35.667 38.333 -53.501 88.167 -53.501 149.5v293h39v-285c0 -51.333 13 -93.666 39 -126.999s66.333 -50 121 -50c54 0 94 16.667 120 50s39 75.666 39 126.999v285h39v-293c0 -62 -17.667 -112 -53 -150s-83.666 -57 -144.999 -57
s-109.833 19.167 -145.5 57.5zM194.999 568.001h-48l106 109h40l105 -109h-49l-77 80z" />
    <glyph glyph-name="udieresis" unicode="&#xfc;" horiz-adv-x="545" 
d="M127.5 47.5c-35.667 38.333 -53.501 88.167 -53.501 149.5v293h39v-285c0 -51.333 13 -93.666 39 -126.999s66.333 -50 121 -50c54 0 94 16.667 120 50s39 75.666 39 126.999v285h39v-293c0 -62 -17.667 -112 -53 -150s-83.666 -57 -144.999 -57
s-109.833 19.167 -145.5 57.5zM217.999 600.001h-53v58h53v-58zM378.999 600.001h-53v58h53v-58z" />
    <glyph glyph-name="yacute" unicode="&#xfd;" horiz-adv-x="486" 
d="M252 80l182 410h42l-308 -690h-43l105 235l-225 455h44zM253 568h-43l76 114h50z" />
    <glyph glyph-name="thorn" unicode="&#xfe;" horiz-adv-x="622" 
d="M459 466.5c38 -22.333 68 -53 90 -92s33 -82.167 33 -129.5s-11 -90.5 -33 -129.5s-52 -69.667 -90 -92s-80 -33.5 -126 -33.5c-44.667 0 -85.667 11 -123 33s-66.333 52 -87 90v-313h-39v920h39v-343c20.667 38 49.667 68 87 90s78.333 33 123 33
c46 0 88 -11.167 126 -33.5zM438 56c32 18.667 57.333 44.5 76 77.5s28 70.167 28 111.5s-9.33301 78.5 -28 111.5s-44 58.833 -76 77.5s-67.333 28 -106 28s-74 -9.33301 -106 -28s-57.333 -44.5 -76 -77.5s-28 -70.167 -28 -111.5s9.33301 -78.5 28 -111.5
s44 -58.833 76 -77.5s67.333 -28 106 -28s74 9.33301 106 28z" />
    <glyph glyph-name="ydieresis" unicode="&#xff;" horiz-adv-x="486" 
d="M252 80l182 410h42l-308 -690h-43l105 235l-225 455h44zM190 600h-53v58h53v-58zM351 600h-53v58h53v-58z" />
    <glyph glyph-name="Amacron" unicode="&#x100;" horiz-adv-x="633" 
d="M613 0h-43l-83 210h-341l-84 -210h-42l282 700h29zM471 249l-155 390l-154 -390h309zM439 809h-244v38h244v-38z" />
    <glyph glyph-name="amacron" unicode="&#x101;" horiz-adv-x="617" 
d="M499 490h39v-490h-39v113c-20.667 -38 -49.667 -68 -87 -90s-78.333 -33 -123 -33c-46 0 -88 11.167 -126 33.5s-68 53 -90 92s-33 82.167 -33 129.5s11 90.5 33 129.5s52 69.667 90 92s80 33.5 126 33.5c44.667 0 85.667 -11 123 -33s66.333 -52 87 -90v113zM396 56
c32 18.667 57.333 44.5 76 77.5s28 70.167 28 111.5s-9.33301 78.5 -28 111.5s-44 58.833 -76 77.5s-67.333 28 -106 28s-74 -9.33301 -106 -28s-57.333 -44.5 -76 -77.5s-28 -70.167 -28 -111.5s9.33301 -78.5 28 -111.5s44 -58.833 76 -77.5s67.333 -28 106 -28
s74 9.33301 106 28zM429 605h-244v37h244v-37z" />
    <glyph glyph-name="Abreve" unicode="&#x102;" horiz-adv-x="633" 
d="M613 0h-43l-83 210h-341l-84 -210h-42l282 700h29zM471 249l-155 390l-154 -390h309zM228 795.5c-22.667 21 -35.332 49.5 -37.999 85.5h37c2.66699 -26.667 11.834 -47 27.501 -61s36.5 -21 62.5 -21s46.833 7 62.5 21s24.834 34.333 27.501 61h37
c-2.66699 -36 -15.334 -64.5 -38.001 -85.5s-52.334 -31.5 -89.001 -31.5s-66.334 10.5 -89.001 31.5z" />
    <glyph glyph-name="abreve" unicode="&#x103;" horiz-adv-x="617" 
d="M499 490h39v-490h-39v113c-20.667 -38 -49.667 -68 -87 -90s-78.333 -33 -123 -33c-46 0 -88 11.167 -126 33.5s-68 53 -90 92s-33 82.167 -33 129.5s11 90.5 33 129.5s52 69.667 90 92s80 33.5 126 33.5c44.667 0 85.667 -11 123 -33s66.333 -52 87 -90v113zM396 56
c32 18.667 57.333 44.5 76 77.5s28 70.167 28 111.5s-9.33301 78.5 -28 111.5s-44 58.833 -76 77.5s-67.333 28 -106 28s-74 -9.33301 -106 -28s-57.333 -44.5 -76 -77.5s-28 -70.167 -28 -111.5s9.33301 -78.5 28 -111.5s44 -58.833 76 -77.5s67.333 -28 106 -28
s74 9.33301 106 28zM221 591.5c-22 21 -34.333 49.167 -37 84.5h37c2.66699 -26 11.667 -46 27 -60s35 -21 59 -21s43.667 7 59 21s24.333 34 27 60h37c-2.66699 -35.333 -15 -63.5 -37 -84.5s-50.667 -31.5 -86 -31.5s-64 10.5 -86 31.5z" />
    <glyph glyph-name="Aogonek" unicode="&#x104;" horiz-adv-x="633" 
d="M615 -154v-31.999h-22c-28 0 -51.167 8 -69.5 24s-27.5 38.667 -27.5 68c0 22.667 6.83301 42.667 20.5 60s30.5 31 50.5 41l-80 203h-341l-84 -210h-42l282 700h29l282 -700c-24 -6.66699 -44 -18.334 -60 -35.001s-24 -36 -24 -58c0 -18 6 -32.667 18 -44
s29.333 -17 52 -17h16zM471 249.001l-155 390l-154 -390h309z" />
    <glyph glyph-name="aogonek" unicode="&#x105;" horiz-adv-x="617" 
d="M540 -154l0.000976562 -31.999h-22c-28 0 -51.167 8 -69.5 24s-27.5 38.667 -27.5 68c0 24 7.66699 44.833 23 62.5s33.666 31.5 54.999 41.5v103c-20.667 -38 -49.667 -68 -87 -90s-78.333 -33 -123 -33c-46 0 -88 11.167 -126 33.5s-68 53 -90 92s-33 82.167 -33 129.5
s11 90.5 33 129.5s52 69.667 90 92s80 33.5 126 33.5c44.667 0 85.667 -11 123 -33s66.333 -52 87 -90v113h39v-490c-24 -6.66699 -44 -18.334 -60 -35.001s-24 -36 -24 -58c0 -18 6 -32.667 18 -44s29.333 -17 52 -17h16zM396.001 56.001c32 18.667 57.333 44.5 76 77.5
s28 70.167 28 111.5s-9.33301 78.5 -28 111.5s-44 58.833 -76 77.5s-67.333 28 -106 28s-74 -9.33301 -106 -28s-57.333 -44.5 -76 -77.5s-28 -70.167 -28 -111.5s9.33301 -78.5 28 -111.5s44 -58.833 76 -77.5s67.333 -28 106 -28s74 9.33301 106 28z" />
    <glyph glyph-name="Cacute" unicode="&#x106;" horiz-adv-x="770" 
d="M228.5 38.5c-53 32.333 -95.167 76.002 -126.5 131.002s-47 115.167 -47 180.5s15.667 125.5 47 180.5s73.5 98.667 126.5 131s110.5 48.5 172.5 48.5c72 0 136 -20.333 192 -61s98 -95.334 126 -164.001h-42c-27.333 58 -65.166 103.5 -113.499 136.5
s-102.5 49.5 -162.5 49.5c-54.667 0 -105.334 -14 -152.001 -42s-83.834 -66.5 -111.501 -115.5s-41.5 -103.5 -41.5 -163.5s13.833 -114.5 41.5 -163.5s64.834 -87.5 111.501 -115.5s97.334 -42 152.001 -42c60.667 0 115.5 16.5 164.5 49.5s87.167 78.5 114.5 136.5h42
c-28 -68.667 -70.333 -123.334 -127 -164.001s-121.334 -61 -194.001 -61c-62 0 -119.5 16.167 -172.5 48.5zM408 772.002h-43l76 115h50z" />
    <glyph glyph-name="cacute" unicode="&#x107;" horiz-adv-x="543" 
d="M162.5 24c-37.667 22.667 -67.5 53.5 -89.5 92.5s-33 81.833 -33 128.5s11 89.5 33 128.5s51.833 69.833 89.5 92.5s79.167 34 124.5 34c48 0 92.167 -13 132.5 -39s70.166 -61.333 89.499 -106h-42c-18 33.333 -43.5 59.5 -76.5 78.5s-67.5 28.5 -103.5 28.5
c-37.333 0 -71.833 -9.33301 -103.5 -28s-56.834 -44.5 -75.501 -77.5s-28 -70.167 -28 -111.5s9.33301 -78.5 28 -111.5s43.834 -58.833 75.501 -77.5s66.167 -28 103.5 -28c36 0 70.5 9.5 103.5 28.5s58.5 45.167 76.5 78.5h42c-19.333 -44.667 -49.166 -80 -89.499 -106
s-84.5 -39 -132.5 -39c-45.333 0 -86.833 11.333 -124.5 34zM299 568h-43l76 114h50z" />
    <glyph glyph-name="Ccircumflex" unicode="&#x108;" horiz-adv-x="770" 
d="M228.5 38.5c-53 32.333 -95.167 76.002 -126.5 131.002s-47 115.167 -47 180.5s15.667 125.5 47 180.5s73.5 98.667 126.5 131s110.5 48.5 172.5 48.5c72 0 136 -20.333 192 -61s98 -95.334 126 -164.001h-42c-27.333 58 -65.166 103.5 -113.499 136.5
s-102.5 49.5 -162.5 49.5c-54.667 0 -105.334 -14 -152.001 -42s-83.834 -66.5 -111.501 -115.5s-41.5 -103.5 -41.5 -163.5s13.833 -114.5 41.5 -163.5s64.834 -87.5 111.501 -115.5s97.334 -42 152.001 -42c60.667 0 115.5 16.5 164.5 49.5s87.167 78.5 114.5 136.5h42
c-28 -68.667 -70.333 -123.334 -127 -164.001s-121.334 -61 -194.001 -61c-62 0 -119.5 16.167 -172.5 48.5zM322 772.002h-48l106 110h40l105 -110h-49l-77 80z" />
    <glyph glyph-name="ccircumflex" unicode="&#x109;" horiz-adv-x="543" 
d="M162.5 24c-37.667 22.667 -67.5 53.5 -89.5 92.5s-33 81.833 -33 128.5s11 89.5 33 128.5s51.833 69.833 89.5 92.5s79.167 34 124.5 34c48 0 92.167 -13 132.5 -39s70.166 -61.333 89.499 -106h-42c-18 33.333 -43.5 59.5 -76.5 78.5s-67.5 28.5 -103.5 28.5
c-37.333 0 -71.833 -9.33301 -103.5 -28s-56.834 -44.5 -75.501 -77.5s-28 -70.167 -28 -111.5s9.33301 -78.5 28 -111.5s43.834 -58.833 75.501 -77.5s66.167 -28 103.5 -28c36 0 70.5 9.5 103.5 28.5s58.5 45.167 76.5 78.5h42c-19.333 -44.667 -49.166 -80 -89.499 -106
s-84.5 -39 -132.5 -39c-45.333 0 -86.833 11.333 -124.5 34zM212 568h-48l106 109h40l105 -109h-49l-77 80z" />
    <glyph glyph-name="Cdotaccent" unicode="&#x10a;" horiz-adv-x="770" 
d="M228.5 38.5c-53 32.333 -95.167 76.002 -126.5 131.002s-47 115.167 -47 180.5s15.667 125.5 47 180.5s73.5 98.667 126.5 131s110.5 48.5 172.5 48.5c72 0 136 -20.333 192 -61s98 -95.334 126 -164.001h-42c-27.333 58 -65.166 103.5 -113.499 136.5
s-102.5 49.5 -162.5 49.5c-54.667 0 -105.334 -14 -152.001 -42s-83.834 -66.5 -111.501 -115.5s-41.5 -103.5 -41.5 -163.5s13.833 -114.5 41.5 -163.5s64.834 -87.5 111.501 -115.5s97.334 -42 152.001 -42c60.667 0 115.5 16.5 164.5 49.5s87.167 78.5 114.5 136.5h42
c-28 -68.667 -70.333 -123.334 -127 -164.001s-121.334 -61 -194.001 -61c-62 0 -119.5 16.167 -172.5 48.5zM425 804.002h-53v59h53v-59z" />
    <glyph glyph-name="cdotaccent" unicode="&#x10b;" horiz-adv-x="543" 
d="M162.5 24c-37.667 22.667 -67.5 53.5 -89.5 92.5s-33 81.833 -33 128.5s11 89.5 33 128.5s51.833 69.833 89.5 92.5s79.167 34 124.5 34c48 0 92.167 -13 132.5 -39s70.166 -61.333 89.499 -106h-42c-18 33.333 -43.5 59.5 -76.5 78.5s-67.5 28.5 -103.5 28.5
c-37.333 0 -71.833 -9.33301 -103.5 -28s-56.834 -44.5 -75.501 -77.5s-28 -70.167 -28 -111.5s9.33301 -78.5 28 -111.5s43.834 -58.833 75.501 -77.5s66.167 -28 103.5 -28c36 0 70.5 9.5 103.5 28.5s58.5 45.167 76.5 78.5h42c-19.333 -44.667 -49.166 -80 -89.499 -106
s-84.5 -39 -132.5 -39c-45.333 0 -86.833 11.333 -124.5 34zM315 600h-53v58h53v-58z" />
    <glyph glyph-name="Ccaron" unicode="&#x10c;" horiz-adv-x="770" 
d="M228.5 38.5c-53 32.333 -95.167 76.002 -126.5 131.002s-47 115.167 -47 180.5s15.667 125.5 47 180.5s73.5 98.667 126.5 131s110.5 48.5 172.5 48.5c72 0 136 -20.333 192 -61s98 -95.334 126 -164.001h-42c-27.333 58 -65.166 103.5 -113.499 136.5
s-102.5 49.5 -162.5 49.5c-54.667 0 -105.334 -14 -152.001 -42s-83.834 -66.5 -111.501 -115.5s-41.5 -103.5 -41.5 -163.5s13.833 -114.5 41.5 -163.5s64.834 -87.5 111.501 -115.5s97.334 -42 152.001 -42c60.667 0 115.5 16.5 164.5 49.5s87.167 78.5 114.5 136.5h42
c-28 -68.667 -70.333 -123.334 -127 -164.001s-121.334 -61 -194.001 -61c-62 0 -119.5 16.167 -172.5 48.5zM420 772.002h-40l-106 110h50l76 -80l77 80h48z" />
    <glyph glyph-name="ccaron" unicode="&#x10d;" horiz-adv-x="543" 
d="M162.5 24c-37.667 22.667 -67.5 53.5 -89.5 92.5s-33 81.833 -33 128.5s11 89.5 33 128.5s51.833 69.833 89.5 92.5s79.167 34 124.5 34c48 0 92.167 -13 132.5 -39s70.166 -61.333 89.499 -106h-42c-18 33.333 -43.5 59.5 -76.5 78.5s-67.5 28.5 -103.5 28.5
c-37.333 0 -71.833 -9.33301 -103.5 -28s-56.834 -44.5 -75.501 -77.5s-28 -70.167 -28 -111.5s9.33301 -78.5 28 -111.5s43.834 -58.833 75.501 -77.5s66.167 -28 103.5 -28c36 0 70.5 9.5 103.5 28.5s58.5 45.167 76.5 78.5h42c-19.333 -44.667 -49.166 -80 -89.499 -106
s-84.5 -39 -132.5 -39c-45.333 0 -86.833 11.333 -124.5 34zM310 568h-40l-106 109h50l76 -80l77 80h48z" />
    <glyph glyph-name="Dcaron" unicode="&#x10e;" horiz-adv-x="709" 
d="M99 0v700h169c78 0 146 -14.5 204 -43.5s102.833 -70 134.5 -123s47.5 -114.167 47.5 -183.5s-15.833 -130.5 -47.5 -183.5s-76.5 -94 -134.5 -123s-126 -43.5 -204 -43.5h-169zM268 39c74 0 136.833 13.667 188.5 41s90.667 64.5 117 111.5s39.5 99.833 39.5 158.5
s-13.167 111.5 -39.5 158.5s-65.333 84.167 -117 111.5s-114.5 41 -188.5 41h-129v-622h129zM376 772h-40l-106 110h50l76 -80l77 80h48z" />
    <glyph glyph-name="dcaron" unicode="&#x10f;" horiz-adv-x="622" 
d="M499 720h39v-720h-39v113c-20.667 -38 -49.667 -68 -87 -90s-78.333 -33 -123 -33c-46 0 -88 11.167 -126 33.5s-68 53 -90 92s-33 82.167 -33 129.5s11 90.5 33 129.5s52 69.667 90 92s80 33.5 126 33.5c44.667 0 85.667 -11 123 -33s66.333 -52 87 -90v343zM396 56
c32 18.667 57.333 44.5 76 77.5s28 70.167 28 111.5s-9.33301 78.5 -28 111.5s-44 58.833 -76 77.5s-67.333 28 -106 28s-74 -9.33301 -106 -28s-57.333 -44.5 -76 -77.5s-28 -70.167 -28 -111.5s9.33301 -78.5 28 -111.5s44 -58.833 76 -77.5s67.333 -28 106 -28
s74 9.33301 106 28zM649 560h-35l20 160h46z" />
    <glyph glyph-name="Dcroat" unicode="&#x110;" horiz-adv-x="714" 
d="M273 700c78 0 146 -14.5 204 -43.5s102.833 -70 134.5 -123s47.5 -114.167 47.5 -183.5s-15.833 -130.5 -47.5 -183.5s-76.5 -94 -134.5 -123s-126 -43.5 -204 -43.5h-169v332h-94v38h94v330h169zM273 39c74 0 136.833 13.667 188.5 41s90.667 64.5 117 111.5
s39.5 99.833 39.5 158.5s-13.167 111.5 -39.5 158.5s-65.333 84.167 -117 111.5s-114.5 41 -188.5 41h-129v-291h241v-38h-241v-293h129z" />
    <glyph glyph-name="dcroat" unicode="&#x111;" horiz-adv-x="600" 
d="M587 617v-37.002h-75v-580h-39v103c-18.667 -34 -45.834 -61.333 -81.501 -82s-74.5 -31 -116.5 -31c-43.333 0 -82.833 10.5 -118.5 31.5s-64 49.833 -85 86.5s-31.5 77.334 -31.5 122.001s10.5 85.334 31.5 122.001s49.333 65.5 85 86.5s75.167 31.5 118.5 31.5
c42 0 80.833 -10.333 116.5 -31s62.834 -48 81.501 -82v223h-173v37h173v103h39v-103h75zM377 53.498c30 17 53.667 40.833 71 71.5s26 65.667 26 105s-8.66699 74.333 -26 105s-41 54.5 -71 71.5s-63.333 25.5 -100 25.5s-70 -8.5 -100 -25.5s-53.667 -40.833 -71 -71.5
s-26 -65.667 -26 -105s8.66699 -74.333 26 -105s41 -54.5 71 -71.5s63.333 -25.5 100 -25.5s70 8.5 100 25.5z" />
    <glyph glyph-name="Emacron" unicode="&#x112;" horiz-adv-x="528" 
d="M139 345v-306h316v-39h-356v700h346v-39h-306v-277h296v-39h-296zM399 809h-244v38h244v-38z" />
    <glyph glyph-name="emacron" unicode="&#x113;" horiz-adv-x="565" 
d="M408 465.5c36.667 -23 65.335 -53.333 86.002 -91s31 -77.167 31 -118.5c0 -10.667 -0.333008 -18.667 -1 -24h-444c2 -40 12.167 -75.5 30.5 -106.5s42.666 -55 72.999 -72s63.166 -25.5 98.499 -25.5c44 0 82.333 11 115 33s56.334 50 71.001 84h42
c-20 -49.333 -50.333 -87.5 -91 -114.5s-87 -40.5 -139 -40.5c-43.333 0 -83.333 11.167 -120 33.5s-65.834 53 -87.501 92s-32.5 82.167 -32.5 129.5s11 90.5 33 129.5s51.667 69.667 89 92s78 33.5 122 33.5c46 0 87.333 -11.5 124 -34.5zM187.001 438
c-29.333 -16 -53.501 -38.668 -72.501 -68.001s-30.167 -62.666 -33.5 -99.999h405c-2 32 -11.667 62.833 -29 92.5s-41 53.667 -71 72s-64 27.5 -102 27.5c-35.333 0 -67.666 -8 -96.999 -24zM405 604.999h-244v37h244v-37z" />
    <glyph glyph-name="Ebreve" unicode="&#x114;" horiz-adv-x="528" 
d="M139 345v-306h316v-39h-356v700h346v-39h-306v-277h296v-39h-296zM188 795.5c-22.667 21 -35.332 49.5 -37.999 85.5h37c2.66699 -26.667 11.834 -47 27.501 -61s36.5 -21 62.5 -21s46.833 7 62.5 21s24.834 34.333 27.501 61h37
c-2.66699 -36 -15.334 -64.5 -38.001 -85.5s-52.334 -31.5 -89.001 -31.5s-66.334 10.5 -89.001 31.5z" />
    <glyph glyph-name="ebreve" unicode="&#x115;" horiz-adv-x="565" 
d="M408 465.5c36.667 -23 65.335 -53.333 86.002 -91s31 -77.167 31 -118.5c0 -10.667 -0.333008 -18.667 -1 -24h-444c2 -40 12.167 -75.5 30.5 -106.5s42.666 -55 72.999 -72s63.166 -25.5 98.499 -25.5c44 0 82.333 11 115 33s56.334 50 71.001 84h42
c-20 -49.333 -50.333 -87.5 -91 -114.5s-87 -40.5 -139 -40.5c-43.333 0 -83.333 11.167 -120 33.5s-65.834 53 -87.501 92s-32.5 82.167 -32.5 129.5s11 90.5 33 129.5s51.667 69.667 89 92s78 33.5 122 33.5c46 0 87.333 -11.5 124 -34.5zM187.001 438
c-29.333 -16 -53.501 -38.668 -72.501 -68.001s-30.167 -62.666 -33.5 -99.999h405c-2 32 -11.667 62.833 -29 92.5s-41 53.667 -71 72s-64 27.5 -102 27.5c-35.333 0 -67.666 -8 -96.999 -24zM197 591.499c-22 21 -34.333 49.167 -37 84.5h37
c2.66699 -26 11.667 -46 27 -60s35 -21 59 -21s43.667 7 59 21s24.333 34 27 60h37c-2.66699 -35.333 -15 -63.5 -37 -84.5s-50.667 -31.5 -86 -31.5s-64 10.5 -86 31.5z" />
    <glyph glyph-name="Edotaccent" unicode="&#x116;" horiz-adv-x="528" 
d="M139 345v-306h316v-39h-356v700h346v-39h-306v-277h296v-39h-296zM302 804h-53v59h53v-59z" />
    <glyph glyph-name="edotaccent" unicode="&#x117;" horiz-adv-x="565" 
d="M408 465.5c36.667 -23 65.335 -53.333 86.002 -91s31 -77.167 31 -118.5c0 -10.667 -0.333008 -18.667 -1 -24h-444c2 -40 12.167 -75.5 30.5 -106.5s42.666 -55 72.999 -72s63.166 -25.5 98.499 -25.5c44 0 82.333 11 115 33s56.334 50 71.001 84h42
c-20 -49.333 -50.333 -87.5 -91 -114.5s-87 -40.5 -139 -40.5c-43.333 0 -83.333 11.167 -120 33.5s-65.834 53 -87.501 92s-32.5 82.167 -32.5 129.5s11 90.5 33 129.5s51.667 69.667 89 92s78 33.5 122 33.5c46 0 87.333 -11.5 124 -34.5zM187.001 438
c-29.333 -16 -53.501 -38.668 -72.501 -68.001s-30.167 -62.666 -33.5 -99.999h405c-2 32 -11.667 62.833 -29 92.5s-41 53.667 -71 72s-64 27.5 -102 27.5c-35.333 0 -67.666 -8 -96.999 -24zM308 599.999h-53v58h53v-58z" />
    <glyph glyph-name="Eogonek" unicode="&#x118;" horiz-adv-x="528" 
d="M457 -154v-31.999h-22c-28 0 -51.167 8 -69.5 24s-27.5 38.667 -27.5 68c0 20 5.5 38 16.5 54s25.167 29.333 42.5 40h-298v700h346v-39h-306v-277h296v-39h-296v-306h316v-39c-24 -6.66699 -44 -18.334 -60 -35.001s-24 -36 -24 -58c0 -18 6 -32.667 18 -44
s29.333 -17 52 -17h16z" />
    <glyph glyph-name="eogonek" unicode="&#x119;" horiz-adv-x="565" 
d="M408 465.5c36.667 -23 65.333 -53.3311 86 -90.998s31 -77.167 31 -118.5c0 -10.667 -0.333008 -18.667 -1 -24h-444c2 -40 12.167 -75.5 30.5 -106.5s42.666 -55 72.999 -72s63.166 -25.5 98.499 -25.5c44 0 82.333 11 115 33s56.334 50 71.001 84h42
c-7.33301 -20 -17.166 -38.333 -29.499 -55s-28.5 -35.667 -48.5 -57c-23.333 -24.667 -40.666 -45.834 -51.999 -63.501s-17 -37.167 -17 -58.5c0 -20.667 5.83301 -36.667 17.5 -48s29.167 -17 52.5 -17h17v-32h-21c-28.667 0 -52.334 8.16699 -71.001 24.5
s-28 40.166 -28 71.499c0 32.667 13.667 64.667 41 96c-27.333 -10.667 -57.666 -16 -90.999 -16c-43.333 0 -83.333 11.167 -120 33.5s-65.834 53 -87.501 92s-32.5 82.167 -32.5 129.5s11 90.5 33 129.5s51.667 69.667 89 92s78 33.5 122 33.5
c46 0 87.333 -11.5 124 -34.5zM186.999 438.002c-29.333 -16 -53.501 -38.667 -72.501 -68s-30.167 -62.666 -33.5 -99.999h405c-2 32.667 -11.667 63.667 -29 93s-41 53.166 -71 71.499s-64 27.5 -102 27.5c-35.333 0 -67.666 -8 -96.999 -24z" />
    <glyph glyph-name="Ecaron" unicode="&#x11a;" horiz-adv-x="528" 
d="M139 345v-306h316v-39h-356v700h346v-39h-306v-277h296v-39h-296zM297 772h-40l-106 110h50l76 -80l77 80h48z" />
    <glyph glyph-name="ecaron" unicode="&#x11b;" horiz-adv-x="565" 
d="M408 465.5c36.667 -23 65.335 -53.333 86.002 -91s31 -77.167 31 -118.5c0 -10.667 -0.333008 -18.667 -1 -24h-444c2 -40 12.167 -75.5 30.5 -106.5s42.666 -55 72.999 -72s63.166 -25.5 98.499 -25.5c44 0 82.333 11 115 33s56.334 50 71.001 84h42
c-20 -49.333 -50.333 -87.5 -91 -114.5s-87 -40.5 -139 -40.5c-43.333 0 -83.333 11.167 -120 33.5s-65.834 53 -87.501 92s-32.5 82.167 -32.5 129.5s11 90.5 33 129.5s51.667 69.667 89 92s78 33.5 122 33.5c46 0 87.333 -11.5 124 -34.5zM187.001 438
c-29.333 -16 -53.501 -38.668 -72.501 -68.001s-30.167 -62.666 -33.5 -99.999h405c-2 32 -11.667 62.833 -29 92.5s-41 53.667 -71 72s-64 27.5 -102 27.5c-35.333 0 -67.666 -8 -96.999 -24zM303 567.999h-40l-106 109h50l76 -80l77 80h48z" />
    <glyph glyph-name="Gcircumflex" unicode="&#x11c;" horiz-adv-x="783" 
d="M385 354h358.001v-19c0 -60 -14.5 -116.5 -43.5 -169.5s-69.167 -95.5 -120.5 -127.5s-109 -48 -173 -48c-64.667 0 -123.834 16 -177.501 48s-96 75.5 -127 130.5s-46.5 115.5 -46.5 181.5s15.5 126.5 46.5 181.5s73.333 98.5 127 130.5s112.834 48 177.501 48
c72.667 0 137.834 -20.667 195.501 -62s99.834 -95.666 126.501 -162.999h-42c-25.333 55.333 -62.333 100.166 -111 134.499s-105 51.5 -169 51.5c-57.333 0 -109.666 -14.167 -156.999 -42.5s-84.666 -67 -111.999 -116s-41 -103.167 -41 -162.5s13.667 -113.5 41 -162.5
s64.666 -87.667 111.999 -116s99.666 -42.5 156.999 -42.5c49.333 0 95.666 11.5 138.999 34.5s79.166 56 107.499 99s45.166 93.833 50.499 152.5h-318v39zM329.001 772h-48l106 110h40l105 -110h-49l-77 80z" />
    <glyph glyph-name="gcircumflex" unicode="&#x11d;" horiz-adv-x="607" 
d="M489 490l38.999 -0.00195312v-460c0 -47.333 -10.167 -89.166 -30.5 -125.499s-48.666 -64.5 -84.999 -84.5s-77.833 -30 -124.5 -30c-57.333 0 -106.833 15.333 -148.5 46s-69.167 72 -82.5 124h40c10.667 -35.333 31.834 -66.166 63.501 -92.499
s74.167 -39.5 127.5 -39.5c61.333 0 110.166 18.5 146.499 55.5s54.5 85.833 54.5 146.5v101c-21.333 -37.333 -50 -66.833 -86 -88.5s-75.667 -32.5 -119 -32.5c-44.667 0 -85.667 11 -123 33s-66.833 51.667 -88.5 89s-32.5 78.333 -32.5 123s10.833 85.667 32.5 123
s51.167 67 88.5 89s78.333 33 123 33c43.333 0 83 -10.833 119 -32.5s64.667 -51.167 86 -88.5v111zM387.999 74.998c31.333 18 56.166 42.833 74.499 74.5s27.5 66.834 27.5 105.501s-9.16699 73.834 -27.5 105.501s-43.166 56.5 -74.499 74.5s-65.666 27 -102.999 27
s-71.666 -9 -102.999 -27s-56.166 -42.833 -74.499 -74.5s-27.5 -66.834 -27.5 -105.501s9.16699 -73.834 27.5 -105.501s43.166 -56.5 74.499 -74.5s65.666 -27 102.999 -27s71.666 9 102.999 27zM223.999 567.998h-48l106 109h40l105 -109h-49l-77 80z" />
    <glyph glyph-name="Gbreve" unicode="&#x11e;" horiz-adv-x="783" 
d="M385 354h358.001v-19c0 -60 -14.5 -116.5 -43.5 -169.5s-69.167 -95.5 -120.5 -127.5s-109 -48 -173 -48c-64.667 0 -123.834 16 -177.501 48s-96 75.5 -127 130.5s-46.5 115.5 -46.5 181.5s15.5 126.5 46.5 181.5s73.333 98.5 127 130.5s112.834 48 177.501 48
c72.667 0 137.834 -20.667 195.501 -62s99.834 -95.666 126.501 -162.999h-42c-25.333 55.333 -62.333 100.166 -111 134.499s-105 51.5 -169 51.5c-57.333 0 -109.666 -14.167 -156.999 -42.5s-84.666 -67 -111.999 -116s-41 -103.167 -41 -162.5s13.667 -113.5 41 -162.5
s64.666 -87.667 111.999 -116s99.666 -42.5 156.999 -42.5c49.333 0 95.666 11.5 138.999 34.5s79.166 56 107.499 99s45.166 93.833 50.499 152.5h-318v39zM317.001 795.5c-22.667 21 -35.332 49.5 -37.999 85.5h37c2.66699 -26.667 11.834 -47 27.501 -61
s36.5 -21 62.5 -21s46.833 7 62.5 21s24.834 34.333 27.501 61h37c-2.66699 -36 -15.334 -64.5 -38.001 -85.5s-52.334 -31.5 -89.001 -31.5s-66.334 10.5 -89.001 31.5z" />
    <glyph glyph-name="gbreve" unicode="&#x11f;" horiz-adv-x="607" 
d="M489 490l38.999 -0.00195312v-460c0 -47.333 -10.167 -89.166 -30.5 -125.499s-48.666 -64.5 -84.999 -84.5s-77.833 -30 -124.5 -30c-57.333 0 -106.833 15.333 -148.5 46s-69.167 72 -82.5 124h40c10.667 -35.333 31.834 -66.166 63.501 -92.499
s74.167 -39.5 127.5 -39.5c61.333 0 110.166 18.5 146.499 55.5s54.5 85.833 54.5 146.5v101c-21.333 -37.333 -50 -66.833 -86 -88.5s-75.667 -32.5 -119 -32.5c-44.667 0 -85.667 11 -123 33s-66.833 51.667 -88.5 89s-32.5 78.333 -32.5 123s10.833 85.667 32.5 123
s51.167 67 88.5 89s78.333 33 123 33c43.333 0 83 -10.833 119 -32.5s64.667 -51.167 86 -88.5v111zM387.999 74.998c31.333 18 56.166 42.833 74.499 74.5s27.5 66.834 27.5 105.501s-9.16699 73.834 -27.5 105.501s-43.166 56.5 -74.499 74.5s-65.666 27 -102.999 27
s-71.666 -9 -102.999 -27s-56.166 -42.833 -74.499 -74.5s-27.5 -66.834 -27.5 -105.501s9.16699 -73.834 27.5 -105.501s43.166 -56.5 74.499 -74.5s65.666 -27 102.999 -27s71.666 9 102.999 27zM215.999 591.498c-22 21 -34.333 49.167 -37 84.5h37
c2.66699 -26 11.667 -46 27 -60s35 -21 59 -21s43.667 7 59 21s24.333 34 27 60h37c-2.66699 -35.333 -15 -63.5 -37 -84.5s-50.667 -31.5 -86 -31.5s-64 10.5 -86 31.5z" />
    <glyph glyph-name="Gdotaccent" unicode="&#x120;" horiz-adv-x="783" 
d="M385 354h358.001v-19c0 -60 -14.5 -116.5 -43.5 -169.5s-69.167 -95.5 -120.5 -127.5s-109 -48 -173 -48c-64.667 0 -123.834 16 -177.501 48s-96 75.5 -127 130.5s-46.5 115.5 -46.5 181.5s15.5 126.5 46.5 181.5s73.333 98.5 127 130.5s112.834 48 177.501 48
c72.667 0 137.834 -20.667 195.501 -62s99.834 -95.666 126.501 -162.999h-42c-25.333 55.333 -62.333 100.166 -111 134.499s-105 51.5 -169 51.5c-57.333 0 -109.666 -14.167 -156.999 -42.5s-84.666 -67 -111.999 -116s-41 -103.167 -41 -162.5s13.667 -113.5 41 -162.5
s64.666 -87.667 111.999 -116s99.666 -42.5 156.999 -42.5c49.333 0 95.666 11.5 138.999 34.5s79.166 56 107.499 99s45.166 93.833 50.499 152.5h-318v39zM432.001 804h-53v59h53v-59z" />
    <glyph glyph-name="gdotaccent" unicode="&#x121;" horiz-adv-x="607" 
d="M489 490l38.999 -0.00195312v-460c0 -47.333 -10.167 -89.166 -30.5 -125.499s-48.666 -64.5 -84.999 -84.5s-77.833 -30 -124.5 -30c-57.333 0 -106.833 15.333 -148.5 46s-69.167 72 -82.5 124h40c10.667 -35.333 31.834 -66.166 63.501 -92.499
s74.167 -39.5 127.5 -39.5c61.333 0 110.166 18.5 146.499 55.5s54.5 85.833 54.5 146.5v101c-21.333 -37.333 -50 -66.833 -86 -88.5s-75.667 -32.5 -119 -32.5c-44.667 0 -85.667 11 -123 33s-66.833 51.667 -88.5 89s-32.5 78.333 -32.5 123s10.833 85.667 32.5 123
s51.167 67 88.5 89s78.333 33 123 33c43.333 0 83 -10.833 119 -32.5s64.667 -51.167 86 -88.5v111zM387.999 74.998c31.333 18 56.166 42.833 74.499 74.5s27.5 66.834 27.5 105.501s-9.16699 73.834 -27.5 105.501s-43.166 56.5 -74.499 74.5s-65.666 27 -102.999 27
s-71.666 -9 -102.999 -27s-56.166 -42.833 -74.499 -74.5s-27.5 -66.834 -27.5 -105.501s9.16699 -73.834 27.5 -105.501s43.166 -56.5 74.499 -74.5s65.666 -27 102.999 -27s71.666 9 102.999 27zM327.999 599.998h-53v58h53v-58z" />
    <glyph glyph-name="uni0122" unicode="&#x122;" horiz-adv-x="783" 
d="M385 354h358.001v-19c0 -60 -14.5 -116.5 -43.5 -169.5s-69.167 -95.5 -120.5 -127.5s-109 -48 -173 -48c-64.667 0 -123.834 16 -177.501 48s-96 75.5 -127 130.5s-46.5 115.5 -46.5 181.5s15.5 126.5 46.5 181.5s73.333 98.5 127 130.5s112.834 48 177.501 48
c72.667 0 137.834 -20.667 195.501 -62s99.834 -95.666 126.501 -162.999h-42c-25.333 55.333 -62.333 100.166 -111 134.499s-105 51.5 -169 51.5c-57.333 0 -109.666 -14.167 -156.999 -42.5s-84.666 -67 -111.999 -116s-41 -103.167 -41 -162.5s13.667 -113.5 41 -162.5
s64.666 -87.667 111.999 -116s99.666 -42.5 156.999 -42.5c49.333 0 95.666 11.5 138.999 34.5s79.166 56 107.499 99s45.166 93.833 50.499 152.5h-318v39zM369.001 -225h-36l38 140h48z" />
    <glyph glyph-name="uni0123" unicode="&#x123;" horiz-adv-x="607" 
d="M489 490l38.999 -0.00195312v-460c0 -47.333 -10.167 -89.166 -30.5 -125.499s-48.666 -64.5 -84.999 -84.5s-77.833 -30 -124.5 -30c-57.333 0 -106.833 15.333 -148.5 46s-69.167 72 -82.5 124h40c10.667 -35.333 31.834 -66.166 63.501 -92.499
s74.167 -39.5 127.5 -39.5c61.333 0 110.166 18.5 146.499 55.5s54.5 85.833 54.5 146.5v101c-21.333 -37.333 -50 -66.833 -86 -88.5s-75.667 -32.5 -119 -32.5c-44.667 0 -85.667 11 -123 33s-66.833 51.667 -88.5 89s-32.5 78.333 -32.5 123s10.833 85.667 32.5 123
s51.167 67 88.5 89s78.333 33 123 33c43.333 0 83 -10.833 119 -32.5s64.667 -51.167 86 -88.5v111zM387.999 74.998c31.333 18 56.166 42.833 74.499 74.5s27.5 66.834 27.5 105.501s-9.16699 73.834 -27.5 105.501s-43.166 56.5 -74.499 74.5s-65.666 27 -102.999 27
s-71.666 -9 -102.999 -27s-56.166 -42.833 -74.499 -74.5s-27.5 -66.834 -27.5 -105.501s9.16699 -73.834 27.5 -105.501s43.166 -56.5 74.499 -74.5s65.666 -27 102.999 -27s71.666 9 102.999 27zM328.999 567.998h-47l60 140h36z" />
    <glyph glyph-name="Hcircumflex" unicode="&#x124;" horiz-adv-x="704" 
d="M565 384v316h40v-700h-40v345h-426v-345h-40v700h40v-316h426zM274 772h-48l106 110h40l105 -110h-49l-77 80z" />
    <glyph glyph-name="hcircumflex" unicode="&#x125;" horiz-adv-x="560" 
d="M395.5 473.5c29 -17.667 51.333 -42.166 67 -73.499s23.5 -67 23.5 -107v-293h-39v285c0 51.333 -12.833 93.666 -38.5 126.999s-65.834 50 -120.501 50c-30.667 0 -58.667 -7.66699 -84 -23s-45.166 -35.833 -59.499 -61.5s-21.5 -52.5 -21.5 -80.5v-297h-39v720h39
v-318c16 29.333 39 53 69 71s63.667 27 101 27c39.333 0 73.5 -8.83301 102.5 -26.5zM208 798.001h-48l106 109h40l105 -109h-49l-77 80z" />
    <glyph glyph-name="Hbar" unicode="&#x126;" horiz-adv-x="714" 
d="M610 569h94v-38h-94v-531h-40v345h-426v-345h-40v531h-94v38h94v131h40v-131h426v131h40v-131zM144 531v-147h426v147h-426z" />
    <glyph glyph-name="hbar" unicode="&#x127;" horiz-adv-x="564" 
d="M399.5 443.5c29 -17.667 51.333 -42.166 67 -73.499s23.5 -67 23.5 -107v-263h-39v255c0 51.333 -12.833 93.666 -38.5 126.999s-65.834 50 -120.501 50c-30.667 0 -58.667 -7.66699 -84 -23s-45.166 -35.833 -59.499 -61.5s-21.5 -52.5 -21.5 -80.5v-267h-39v580h-75v37
h75v103h39v-103h173v-37h-173v-208c16 29.333 39 53 69 71s63.667 27 101 27c39.333 0 73.5 -8.83301 102.5 -26.5z" />
    <glyph glyph-name="Imacron" unicode="&#x12a;" horiz-adv-x="248" 
d="M144 0h-40v700h40v-700zM246 809h-244v38h244v-38z" />
    <glyph glyph-name="imacron" unicode="&#x12b;" horiz-adv-x="197" 
d="M118 0h-39v490h39v-490zM221 605h-244v37h244v-37z" />
    <glyph glyph-name="Ibreve" unicode="&#x12c;" horiz-adv-x="248" 
d="M144 0h-40v700h40v-700zM35 795.5c-22.667 21 -35.332 49.5 -37.999 85.5h37c2.66699 -26.667 11.834 -47 27.501 -61s36.5 -21 62.5 -21s46.833 7 62.5 21s24.834 34.333 27.501 61h37c-2.66699 -36 -15.334 -64.5 -38.001 -85.5s-52.334 -31.5 -89.001 -31.5
s-66.334 10.5 -89.001 31.5z" />
    <glyph glyph-name="ibreve" unicode="&#x12d;" horiz-adv-x="197" 
d="M118 0h-39v490h39v-490zM13 591.5c-22 21 -34.333 49.167 -37 84.5h37c2.66699 -26 11.667 -46 27 -60s35 -21 59 -21s43.667 7 59 21s24.333 34 27 60h37c-2.66699 -35.333 -15 -63.5 -37 -84.5s-50.667 -31.5 -86 -31.5s-64 10.5 -86 31.5z" />
    <glyph glyph-name="Iogonek" unicode="&#x12e;" horiz-adv-x="248" 
d="M146 -154v-31.999h-22c-28 0 -51.167 8 -69.5 24s-27.5 38.667 -27.5 68c0 24 7.5 44.833 22.5 62.5s33.167 31.5 54.5 41.5v690h40v-700c-24 -6.66699 -44 -18.334 -60 -35.001s-24 -36 -24 -58c0 -18 6 -32.667 18 -44s29.333 -17 52 -17h16z" />
    <glyph glyph-name="iogonek" unicode="&#x12f;" horiz-adv-x="197" 
d="M71 600v58h53v-58h-53zM52 -137c12 -11.333 29.334 -16.999 52.001 -16.999h16v-32h-22c-28 0 -51.167 8 -69.5 24s-27.5 38.667 -27.5 68c0 24 7.66699 44.833 23 62.5s33.666 31.5 54.999 41.5v480h39v-490c-24 -6.66699 -44 -18.334 -60 -35.001s-24 -36 -24 -58
c0 -18 6 -32.667 18 -44z" />
    <glyph glyph-name="Idotaccent" unicode="&#x130;" horiz-adv-x="248" 
d="M144 0h-40v700h40v-700zM150 804h-53v59h53v-59z" />
    <glyph glyph-name="dotlessi" unicode="&#x131;" horiz-adv-x="197" 
d="M118 0h-39v490h39v-490z" />
    <glyph glyph-name="IJ" unicode="&#x132;" horiz-adv-x="735" 
d="M144 0h-40v700h40v-700zM350.5 18c-29 18.667 -51.168 42.668 -66.501 72.001s-23 60 -23 92h40c0 -26.667 6.33301 -51.834 19 -75.501s30.5 -42.5 53.5 -56.5s49.833 -21 80.5 -21c44 0 80.333 15 109 45s43 70.667 43 122v504h40v-504c0 -42 -8.5 -78.5 -25.5 -109.5
s-40.167 -54.833 -69.5 -71.5s-61.666 -25 -96.999 -25c-40 0 -74.5 9.33301 -103.5 28z" />
    <glyph glyph-name="ij" unicode="&#x133;" horiz-adv-x="394" 
d="M118 0h-39v490h39v-490zM124 600h-53v58h53v-58zM151 -200l-0.000976562 38.001h47c24.667 0 43.834 7.16699 57.501 21.5s20.5 34.833 20.5 61.5v569h39v-570c0 -36.667 -10.167 -65.834 -30.5 -87.501s-48.833 -32.5 -85.5 -32.5h-48zM320.999 600.001h-53v58h53v-58z
" />
    <glyph glyph-name="Jcircumflex" unicode="&#x134;" horiz-adv-x="487" 
d="M102.5 18c-29 18.667 -51.168 42.668 -66.501 72.001s-23 60 -23 92h40c0 -26.667 6.33301 -51.834 19 -75.501s30.5 -42.5 53.5 -56.5s49.833 -21 80.5 -21c44 0 80.333 15 109 45s43 70.667 43 122v504h40v-504c0 -42 -8.5 -78.5 -25.5 -109.5
s-40.167 -54.833 -69.5 -71.5s-61.666 -25 -96.999 -25c-40 0 -74.5 9.33301 -103.5 28zM299.999 772.001h-48l106 110h40l105 -110h-49l-77 80z" />
    <glyph glyph-name="jcircumflex" unicode="&#x135;" horiz-adv-x="197" 
d="M-46 -200l-0.000976562 38.001h47c24.667 0 43.834 7.16699 57.501 21.5s20.5 34.833 20.5 61.5v569h39v-570c0 -36.667 -10.167 -65.834 -30.5 -87.501s-48.833 -32.5 -85.5 -32.5h-48zM20.999 568.001h-48l106 109h40l105 -109h-49l-77 80z" />
    <glyph glyph-name="uni0136" unicode="&#x136;" horiz-adv-x="553" 
d="M177 359l367 -359h-58l-347 341v-341h-40v700h40v-327l328 327h54zM261 -225h-36l38 140h48z" />
    <glyph glyph-name="uni0137" unicode="&#x137;" horiz-adv-x="441" 
d="M163 251l269 -251h-55l-254 238v-238h-39v720h39v-460l243 230h53zM202 -225h-36l38 140h48z" />
    <glyph glyph-name="Lacute" unicode="&#x139;" horiz-adv-x="480" 
d="M445 0h-346v700h40v-661h306v-39zM128 772h-43l76 115h50z" />
    <glyph glyph-name="lacute" unicode="&#x13a;" horiz-adv-x="207" 
d="M123 0h-39v720h39v-720zM113 798h-43l76 114h50z" />
    <glyph glyph-name="uni013B" unicode="&#x13b;" horiz-adv-x="480" 
d="M445 0h-346v700h40v-661h306v-39zM243 -225h-36l38 140h48z" />
    <glyph glyph-name="uni013C" unicode="&#x13c;" horiz-adv-x="207" 
d="M123 0h-39v720h39v-720zM77 -225h-36l38 140h48z" />
    <glyph glyph-name="Lcaron" unicode="&#x13d;" horiz-adv-x="480" 
d="M445 0h-346v700h40v-661h306v-39zM250 540h-35l20 160h46z" />
    <glyph glyph-name="lcaron" unicode="&#x13e;" horiz-adv-x="207" 
d="M123 0h-39v720h39v-720zM234 560h-35l20 160h46z" />
    <glyph glyph-name="Ldot" unicode="&#x13f;" horiz-adv-x="480" 
d="M445 0h-346v700h40v-661h306v-39zM384 337h-50v55h50v-55z" />
    <glyph glyph-name="ldot" unicode="&#x140;" horiz-adv-x="272" 
d="M123 0h-39v720h39v-720zM265 338h-50v55h50v-55z" />
    <glyph glyph-name="Lslash" unicode="&#x141;" horiz-adv-x="488" 
d="M147 331v-292h306v-39h-346v313l-97 -41v42l97 41v345h40v-327l207 88v-42z" />
    <glyph glyph-name="lslash" unicode="&#x142;" horiz-adv-x="255" 
d="M147 394l104 53v-42l-104 -54v-351h-39v331l-104 -54v43l104 53v347h39v-326z" />
    <glyph glyph-name="Nacute" unicode="&#x143;" horiz-adv-x="770" 
d="M631 74v626h40v-700h-28l-504 626v-626h-40v700h28zM394 772h-43l76 115h50z" />
    <glyph glyph-name="nacute" unicode="&#x144;" horiz-adv-x="555" 
d="M390.5 473.5c29 -17.667 51.333 -42.166 67 -73.499s23.5 -67 23.5 -107v-293h-39v285c0 51.333 -12.833 93.666 -38.5 126.999s-65.834 50 -120.501 50c-30.667 0 -58.667 -7.66699 -84 -23s-45.166 -35.833 -59.499 -61.5s-21.5 -52.5 -21.5 -80.5v-297h-39v490h39v-88
c16 29.333 39 53 69 71s63.667 27 101 27c39.333 0 73.5 -8.83301 102.5 -26.5zM289 568.001h-43l76 114h50z" />
    <glyph glyph-name="uni0145" unicode="&#x145;" horiz-adv-x="770" 
d="M631 74v626h40v-700h-28l-504 626v-626h-40v700h28zM358 -225h-36l38 140h48z" />
    <glyph glyph-name="uni0146" unicode="&#x146;" horiz-adv-x="555" 
d="M390.5 473.5c29 -17.667 51.333 -42.166 67 -73.499s23.5 -67 23.5 -107v-293h-39v285c0 51.333 -12.833 93.666 -38.5 126.999s-65.834 50 -120.501 50c-30.667 0 -58.667 -7.66699 -84 -23s-45.166 -35.833 -59.499 -61.5s-21.5 -52.5 -21.5 -80.5v-297h-39v490h39v-88
c16 29.333 39 53 69 71s63.667 27 101 27c39.333 0 73.5 -8.83301 102.5 -26.5zM253 -224.999h-36l38 140h48z" />
    <glyph glyph-name="Ncaron" unicode="&#x147;" horiz-adv-x="770" 
d="M631 74v626h40v-700h-28l-504 626v-626h-40v700h28zM406 772h-40l-106 110h50l76 -80l77 80h48z" />
    <glyph glyph-name="ncaron" unicode="&#x148;" horiz-adv-x="555" 
d="M390.5 473.5c29 -17.667 51.333 -42.166 67 -73.499s23.5 -67 23.5 -107v-293h-39v285c0 51.333 -12.833 93.666 -38.5 126.999s-65.834 50 -120.501 50c-30.667 0 -58.667 -7.66699 -84 -23s-45.166 -35.833 -59.499 -61.5s-21.5 -52.5 -21.5 -80.5v-297h-39v490h39v-88
c16 29.333 39 53 69 71s63.667 27 101 27c39.333 0 73.5 -8.83301 102.5 -26.5zM300 568.001h-40l-106 109h50l76 -80l77 80h48z" />
    <glyph glyph-name="Eng" unicode="&#x14a;" horiz-adv-x="770" 
d="M631 700l39.999 0.000976562v-780c0 -36.667 -10.167 -65.834 -30.5 -87.501s-48.833 -32.5 -85.5 -32.5h-48v38h46c24.667 0 43.834 7.16699 57.501 21.5s20.5 34.833 20.5 61.5v94l-492 611v-626h-40v700h28l504 -626v626z" />
    <glyph glyph-name="eng" unicode="&#x14b;" horiz-adv-x="555" 
d="M390.5 473.5c29 -17.667 51.332 -42.165 66.999 -73.498s23.5 -67 23.5 -107v-373c0 -36.667 -10.167 -65.834 -30.5 -87.501s-48.833 -32.5 -85.5 -32.5h-48v38h47c24.667 0 43.834 7.16699 57.501 21.5s20.5 34.833 20.5 61.5v364
c0 51.333 -12.833 93.666 -38.5 126.999s-65.834 50 -120.501 50c-30.667 0 -58.667 -7.66699 -84 -23s-45.166 -35.833 -59.499 -61.5s-21.5 -52.5 -21.5 -80.5v-297h-39v490h39v-88c16 29.333 39 53 69 71s63.667 27 101 27c39.333 0 73.5 -8.83301 102.5 -26.5z" />
    <glyph glyph-name="Omacron" unicode="&#x14c;" horiz-adv-x="813" 
d="M228.5 38c-53.667 32 -96 75.5 -127 130.5s-46.5 115.5 -46.5 181.5s15.5 126.5 46.5 181.5s73.333 98.5 127 130.5s112.834 48 177.501 48s123.834 -16 177.501 -48s96.167 -75.5 127.5 -130.5s47 -115.5 47 -181.5s-15.667 -126.5 -47 -181.5
s-73.833 -98.5 -127.5 -130.5s-112.834 -48 -177.501 -48s-123.834 16 -177.501 48zM563.5 71.5c47.667 28.333 85.167 67 112.5 116s41 103.167 41 162.5s-13.667 113.5 -41 162.5s-64.833 87.667 -112.5 116s-100.167 42.5 -157.5 42.5s-109.666 -14.167 -156.999 -42.5
s-84.666 -67 -111.999 -116s-41 -103.167 -41 -162.5s13.667 -113.5 41 -162.5s64.666 -87.667 111.999 -116s99.666 -42.5 156.999 -42.5s109.833 14.167 157.5 42.5zM528 809h-244v38h244v-38z" />
    <glyph glyph-name="omacron" unicode="&#x14d;" horiz-adv-x="579" 
d="M163.5 23.5c-38.333 22.333 -68.5 53 -90.5 92s-33 82.167 -33 129.5s11 90.5 33 129.5s52.167 69.667 90.5 92s80.5 33.5 126.5 33.5s88 -11.167 126 -33.5s68 -53 90 -92s33 -82.167 33 -129.5s-11 -90.5 -33 -129.5s-52 -69.667 -90 -92s-80 -33.5 -126 -33.5
s-88.167 11.167 -126.5 33.5zM396 56c32 18.667 57.333 44.5 76 77.5s28 70.167 28 111.5s-9.33301 78.5 -28 111.5s-44 58.833 -76 77.5s-67.333 28 -106 28s-74 -9.33301 -106 -28s-57.333 -44.5 -76 -77.5s-28 -70.167 -28 -111.5s9.33301 -78.5 28 -111.5
s44 -58.833 76 -77.5s67.333 -28 106 -28s74 9.33301 106 28zM412 605h-244v37h244v-37z" />
    <glyph glyph-name="Obreve" unicode="&#x14e;" horiz-adv-x="813" 
d="M228.5 38c-53.667 32 -96 75.5 -127 130.5s-46.5 115.5 -46.5 181.5s15.5 126.5 46.5 181.5s73.333 98.5 127 130.5s112.834 48 177.501 48s123.834 -16 177.501 -48s96.167 -75.5 127.5 -130.5s47 -115.5 47 -181.5s-15.667 -126.5 -47 -181.5
s-73.833 -98.5 -127.5 -130.5s-112.834 -48 -177.501 -48s-123.834 16 -177.501 48zM563.5 71.5c47.667 28.333 85.167 67 112.5 116s41 103.167 41 162.5s-13.667 113.5 -41 162.5s-64.833 87.667 -112.5 116s-100.167 42.5 -157.5 42.5s-109.666 -14.167 -156.999 -42.5
s-84.666 -67 -111.999 -116s-41 -103.167 -41 -162.5s13.667 -113.5 41 -162.5s64.666 -87.667 111.999 -116s99.666 -42.5 156.999 -42.5s109.833 14.167 157.5 42.5zM317 795.5c-22.667 21 -35.332 49.5 -37.999 85.5h37c2.66699 -26.667 11.834 -47 27.501 -61
s36.5 -21 62.5 -21s46.833 7 62.5 21s24.834 34.333 27.501 61h37c-2.66699 -36 -15.334 -64.5 -38.001 -85.5s-52.334 -31.5 -89.001 -31.5s-66.334 10.5 -89.001 31.5z" />
    <glyph glyph-name="obreve" unicode="&#x14f;" horiz-adv-x="579" 
d="M163.5 23.5c-38.333 22.333 -68.5 53 -90.5 92s-33 82.167 -33 129.5s11 90.5 33 129.5s52.167 69.667 90.5 92s80.5 33.5 126.5 33.5s88 -11.167 126 -33.5s68 -53 90 -92s33 -82.167 33 -129.5s-11 -90.5 -33 -129.5s-52 -69.667 -90 -92s-80 -33.5 -126 -33.5
s-88.167 11.167 -126.5 33.5zM396 56c32 18.667 57.333 44.5 76 77.5s28 70.167 28 111.5s-9.33301 78.5 -28 111.5s-44 58.833 -76 77.5s-67.333 28 -106 28s-74 -9.33301 -106 -28s-57.333 -44.5 -76 -77.5s-28 -70.167 -28 -111.5s9.33301 -78.5 28 -111.5
s44 -58.833 76 -77.5s67.333 -28 106 -28s74 9.33301 106 28zM204 591.5c-22 21 -34.333 49.167 -37 84.5h37c2.66699 -26 11.667 -46 27 -60s35 -21 59 -21s43.667 7 59 21s24.333 34 27 60h37c-2.66699 -35.333 -15 -63.5 -37 -84.5s-50.667 -31.5 -86 -31.5
s-64 10.5 -86 31.5z" />
    <glyph glyph-name="Ohungarumlaut" unicode="&#x150;" horiz-adv-x="813" 
d="M228.5 38c-53.667 32 -96 75.5 -127 130.5s-46.5 115.5 -46.5 181.5s15.5 126.5 46.5 181.5s73.333 98.5 127 130.5s112.834 48 177.501 48s123.834 -16 177.501 -48s96.167 -75.5 127.5 -130.5s47 -115.5 47 -181.5s-15.667 -126.5 -47 -181.5
s-73.833 -98.5 -127.5 -130.5s-112.834 -48 -177.501 -48s-123.834 16 -177.501 48zM563.5 71.5c47.667 28.333 85.167 67 112.5 116s41 103.167 41 162.5s-13.667 113.5 -41 162.5s-64.833 87.667 -112.5 116s-100.167 42.5 -157.5 42.5s-109.666 -14.167 -156.999 -42.5
s-84.666 -67 -111.999 -116s-41 -103.167 -41 -162.5s13.667 -113.5 41 -162.5s64.666 -87.667 111.999 -116s99.666 -42.5 156.999 -42.5s109.833 14.167 157.5 42.5zM363 772h-43l76 115h50zM484 772h-42l76 115h50z" />
    <glyph glyph-name="ohungarumlaut" unicode="&#x151;" horiz-adv-x="579" 
d="M163.5 23.5c-38.333 22.333 -68.5 53 -90.5 92s-33 82.167 -33 129.5s11 90.5 33 129.5s52.167 69.667 90.5 92s80.5 33.5 126.5 33.5s88 -11.167 126 -33.5s68 -53 90 -92s33 -82.167 33 -129.5s-11 -90.5 -33 -129.5s-52 -69.667 -90 -92s-80 -33.5 -126 -33.5
s-88.167 11.167 -126.5 33.5zM396 56c32 18.667 57.333 44.5 76 77.5s28 70.167 28 111.5s-9.33301 78.5 -28 111.5s-44 58.833 -76 77.5s-67.333 28 -106 28s-74 -9.33301 -106 -28s-57.333 -44.5 -76 -77.5s-28 -70.167 -28 -111.5s9.33301 -78.5 28 -111.5
s44 -58.833 76 -77.5s67.333 -28 106 -28s74 9.33301 106 28zM246 568h-43l76 114h50zM367 568h-42l76 114h50z" />
    <glyph glyph-name="OE" unicode="&#x152;" horiz-adv-x="1101" 
d="M712 39h316v-39h-356v180c-26.667 -57.333 -65.5 -103.333 -116.5 -138s-108.167 -52 -171.5 -52c-60.667 0 -116.167 15.833 -166.5 47.5s-90 75 -119 130s-43.5 115.833 -43.5 182.5s14.5 127.5 43.5 182.5s68.667 98.333 119 130s105.833 47.5 166.5 47.5
c63.333 0 120.5 -17.333 171.5 -52s89.833 -80.667 116.5 -138v180h346v-39h-306v-277h296v-39h-296v-306zM530 71c44 28 78.667 66.5 104 115.5s38 103.5 38 163.5s-12.667 114.5 -38 163.5s-60 87.5 -104 115.5s-92.667 42 -146 42s-102 -14 -146 -42
s-78.667 -66.5 -104 -115.5s-38 -103.5 -38 -163.5s12.667 -114.5 38 -163.5s60 -87.5 104 -115.5s92.667 -42 146 -42s102 14 146 42z" />
    <glyph glyph-name="oe" unicode="&#x153;" horiz-adv-x="957" 
d="M810.5 466c35 -22.667 62.501 -54.5 82.501 -95.5s28.333 -87.167 25 -138.5h-410c2 -40.667 11.5 -76.5 28.5 -107.5s39.333 -54.833 67 -71.5s57.834 -25 90.501 -25c40 0 74.5 11 103.5 33s50.5 50 64.5 84h42c-16 -43.333 -41.833 -80 -77.5 -110
s-78.834 -45 -129.501 -45c-49.333 0 -92.5 14.167 -129.5 42.5s-63.833 64.166 -80.5 107.499c-16.667 -43.333 -43.834 -79.166 -81.501 -107.499s-81.5 -42.5 -131.5 -42.5c-41.333 0 -80 10.833 -116 32.5s-64.667 52 -86 91s-32 82.833 -32 131.5s10.667 92.5 32 131.5
s50 69.333 86 91s74.667 32.5 116 32.5c50 0 93.833 -14.167 131.5 -42.5s64.834 -64.5 81.501 -108.5c16.667 44 43.667 80.167 81 108.5s80.666 42.5 129.999 42.5c40 0 77.5 -11.333 112.5 -34zM369.501 55c29.667 18 53.5 43.5 71.5 76.5s27 70.833 27 113.5
s-9 80.5 -27 113.5s-41.833 58.5 -71.5 76.5s-61.5 27 -95.5 27s-65.833 -9 -95.5 -27s-53.5 -43.5 -71.5 -76.5s-27 -70.833 -27 -113.5s9 -80.5 27 -113.5s41.833 -58.5 71.5 -76.5s61.5 -27 95.5 -27s65.833 9 95.5 27zM606.501 438.5
c-27 -15.667 -49.167 -38.167 -66.5 -67.5s-27.666 -63 -30.999 -101h370c-2.66699 38.667 -12.834 72.5 -30.501 101.5s-40.167 51.333 -67.5 67s-56.333 23.5 -87 23.5c-31.333 0 -60.5 -7.83301 -87.5 -23.5z" />
    <glyph glyph-name="Racute" unicode="&#x154;" horiz-adv-x="578" 
d="M509 0l-267.002 316h-103v-316h-40v700h183c42.667 0 80.334 -8.33301 113.001 -25s57.834 -39.5 75.501 -68.5s26.5 -61.833 26.5 -98.5c0 -35.333 -8.33301 -67.333 -25 -96s-40.5 -51.5 -71.5 -68.5s-66.833 -26.167 -107.5 -27.5l268 -316h-52zM138.998 661v-306h143
c54 0 96.667 14.5 128 43.5s47 65.5 47 109.5s-15.667 80.5 -47 109.5s-74 43.5 -128 43.5h-143zM290.998 772h-43l76 115h50z" />
    <glyph glyph-name="racute" unicode="&#x155;" horiz-adv-x="335" 
d="M317 495l0.000976562 -37.999h-45c-27.333 0 -52.833 -7.83301 -76.5 -23.5s-42.5 -36.167 -56.5 -61.5s-21 -52 -21 -80v-292h-39v490h39v-91c15.333 29.333 37.166 52.666 65.499 69.999s59.833 26 94.5 26h39zM217.001 568.001h-43l76 114h50z" />
    <glyph glyph-name="uni0156" unicode="&#x156;" horiz-adv-x="578" 
d="M509 0l-267.002 316h-103v-316h-40v700h183c42.667 0 80.334 -8.33301 113.001 -25s57.834 -39.5 75.501 -68.5s26.5 -61.833 26.5 -98.5c0 -35.333 -8.33301 -67.333 -25 -96s-40.5 -51.5 -71.5 -68.5s-66.833 -26.167 -107.5 -27.5l268 -316h-52zM138.998 661v-306h143
c54 0 96.667 14.5 128 43.5s47 65.5 47 109.5s-15.667 80.5 -47 109.5s-74 43.5 -128 43.5h-143zM277.998 -225h-36l38 140h48z" />
    <glyph glyph-name="uni0157" unicode="&#x157;" horiz-adv-x="335" 
d="M317 495l0.000976562 -37.999h-45c-27.333 0 -52.833 -7.83301 -76.5 -23.5s-42.5 -36.167 -56.5 -61.5s-21 -52 -21 -80v-292h-39v490h39v-91c15.333 29.333 37.166 52.666 65.499 69.999s59.833 26 94.5 26h39zM71.001 -224.999h-36l38 140h48z" />
    <glyph glyph-name="Rcaron" unicode="&#x158;" horiz-adv-x="578" 
d="M509 0l-267.002 316h-103v-316h-40v700h183c42.667 0 80.334 -8.33301 113.001 -25s57.834 -39.5 75.501 -68.5s26.5 -61.833 26.5 -98.5c0 -35.333 -8.33301 -67.333 -25 -96s-40.5 -51.5 -71.5 -68.5s-66.833 -26.167 -107.5 -27.5l268 -316h-52zM138.998 661v-306h143
c54 0 96.667 14.5 128 43.5s47 65.5 47 109.5s-15.667 80.5 -47 109.5s-74 43.5 -128 43.5h-143zM302.998 772h-40l-106 110h50l76 -80l77 80h48z" />
    <glyph glyph-name="rcaron" unicode="&#x159;" horiz-adv-x="335" 
d="M317 495l0.000976562 -37.999h-45c-27.333 0 -52.833 -7.83301 -76.5 -23.5s-42.5 -36.167 -56.5 -61.5s-21 -52 -21 -80v-292h-39v490h39v-91c15.333 29.333 37.166 52.666 65.499 69.999s59.833 26 94.5 26h39zM228.001 568.001h-40l-106 109h50l76 -80l77 80h48z" />
    <glyph glyph-name="Sacute" unicode="&#x15a;" horiz-adv-x="562" 
d="M167.5 17c-34.333 18 -60.8291 42.998 -79.4961 74.998s-28.667 68 -30 108h40c1.33301 -30 9.16602 -58 23.499 -84s35.5 -47 63.5 -63s62 -24 102 -24c38 0 70.167 6.83301 96.5 20.5s46.166 31.334 59.499 53.001s20 44.834 20 69.501c0 34 -8.33301 61.5 -25 82.5
s-37 37 -61 48s-57 23.167 -99 36.5c-44 14 -79.333 27.333 -106 40s-49.334 31.334 -68.001 56.001s-28 57.334 -28 98.001c0 34 9.16699 64.5 27.5 91.5s43.333 48 75 63s67.167 22.5 106.5 22.5c36.667 0 70.667 -8.66699 102 -26s56.5 -40.833 75.5 -70.5
s28.833 -62.5 29.5 -98.5h-40c-1.33301 26.667 -8.83301 52 -22.5 76s-33.167 43.333 -58.5 58s-55 22 -89 22c-33.333 0 -62.5 -6.16699 -87.5 -18.5s-44.167 -29 -57.5 -50s-20 -44.167 -20 -69.5c0 -32 8 -57.833 24 -77.5s35.667 -34.834 59 -45.501
s55.333 -22.334 96 -35.001c45.333 -14.667 81.666 -28.5 108.999 -41.5s50.666 -32.5 69.999 -58.5s29 -60.333 29 -103c0 -36 -9.5 -67.833 -28.5 -95.5s-45.167 -49 -78.5 -64s-70 -22.5 -110 -22.5c-45.333 0 -85.166 9 -119.499 27zM294.004 771.998h-43l76 115h50z
" />
    <glyph glyph-name="sacute" unicode="&#x15b;" horiz-adv-x="487" 
d="M152.5 10c-27.667 13.333 -49.332 31.835 -64.999 55.502s-24.167 50.167 -25.5 79.5h39c2 -34.667 16.167 -62.834 42.5 -84.501s61.833 -32.5 106.5 -32.5c42 0 74.833 9 98.5 27s35.5 41.667 35.5 71c0 23.333 -6.33301 41.666 -19 54.999s-28.5 23.5 -47.5 30.5
s-44.5 13.833 -76.5 20.5c-35.333 7.33301 -64 15.166 -86 23.499s-40.667 21.333 -56 39s-23 41.834 -23 72.501c0 38.667 15.5 70.5 46.5 95.5s70.5 37.5 118.5 37.5c31.333 0 59.833 -6.5 85.5 -19.5s46.167 -30.833 61.5 -53.5s23.333 -48.334 24 -77.001h-39
c-1.33301 31.333 -14 57.833 -38 79.5s-55.333 32.5 -94 32.5c-36 0 -65.833 -8.33301 -89.5 -25s-35.5 -40 -35.5 -70c0 -21.333 6.16699 -38.333 18.5 -51s27.666 -22.167 45.999 -28.5s43.166 -13.166 74.499 -20.499c36 -8 65.333 -16.333 88 -25
s41.834 -22.167 57.501 -40.5s23.5 -43.5 23.5 -75.5c0 -42 -16.5 -75.167 -49.5 -99.5s-75.167 -36.5 -126.5 -36.5c-36 0 -67.833 6.66699 -95.5 20zM256.002 568.002h-43l76 114h50z" />
    <glyph glyph-name="Scircumflex" unicode="&#x15c;" horiz-adv-x="562" 
d="M167.5 17c-34.333 18 -60.8291 42.998 -79.4961 74.998s-28.667 68 -30 108h40c1.33301 -30 9.16602 -58 23.499 -84s35.5 -47 63.5 -63s62 -24 102 -24c38 0 70.167 6.83301 96.5 20.5s46.166 31.334 59.499 53.001s20 44.834 20 69.501c0 34 -8.33301 61.5 -25 82.5
s-37 37 -61 48s-57 23.167 -99 36.5c-44 14 -79.333 27.333 -106 40s-49.334 31.334 -68.001 56.001s-28 57.334 -28 98.001c0 34 9.16699 64.5 27.5 91.5s43.333 48 75 63s67.167 22.5 106.5 22.5c36.667 0 70.667 -8.66699 102 -26s56.5 -40.833 75.5 -70.5
s28.833 -62.5 29.5 -98.5h-40c-1.33301 26.667 -8.83301 52 -22.5 76s-33.167 43.333 -58.5 58s-55 22 -89 22c-33.333 0 -62.5 -6.16699 -87.5 -18.5s-44.167 -29 -57.5 -50s-20 -44.167 -20 -69.5c0 -32 8 -57.833 24 -77.5s35.667 -34.834 59 -45.501
s55.333 -22.334 96 -35.001c45.333 -14.667 81.666 -28.5 108.999 -41.5s50.666 -32.5 69.999 -58.5s29 -60.333 29 -103c0 -36 -9.5 -67.833 -28.5 -95.5s-45.167 -49 -78.5 -64s-70 -22.5 -110 -22.5c-45.333 0 -85.166 9 -119.499 27zM207.004 771.998h-48l106 110h40
l105 -110h-49l-77 80z" />
    <glyph glyph-name="scircumflex" unicode="&#x15d;" horiz-adv-x="487" 
d="M152.5 10c-27.667 13.333 -49.332 31.835 -64.999 55.502s-24.167 50.167 -25.5 79.5h39c2 -34.667 16.167 -62.834 42.5 -84.501s61.833 -32.5 106.5 -32.5c42 0 74.833 9 98.5 27s35.5 41.667 35.5 71c0 23.333 -6.33301 41.666 -19 54.999s-28.5 23.5 -47.5 30.5
s-44.5 13.833 -76.5 20.5c-35.333 7.33301 -64 15.166 -86 23.499s-40.667 21.333 -56 39s-23 41.834 -23 72.501c0 38.667 15.5 70.5 46.5 95.5s70.5 37.5 118.5 37.5c31.333 0 59.833 -6.5 85.5 -19.5s46.167 -30.833 61.5 -53.5s23.333 -48.334 24 -77.001h-39
c-1.33301 31.333 -14 57.833 -38 79.5s-55.333 32.5 -94 32.5c-36 0 -65.833 -8.33301 -89.5 -25s-35.5 -40 -35.5 -70c0 -21.333 6.16699 -38.333 18.5 -51s27.666 -22.167 45.999 -28.5s43.166 -13.166 74.499 -20.499c36 -8 65.333 -16.333 88 -25
s41.834 -22.167 57.501 -40.5s23.5 -43.5 23.5 -75.5c0 -42 -16.5 -75.167 -49.5 -99.5s-75.167 -36.5 -126.5 -36.5c-36 0 -67.833 6.66699 -95.5 20zM169.002 568.002h-48l106 109h40l105 -109h-49l-77 80z" />
    <glyph glyph-name="Scedilla" unicode="&#x15e;" horiz-adv-x="562" 
d="M476 78.5c-18.667 -27 -43.9961 -48.1709 -75.9961 -63.5039s-67.667 -23.666 -107 -24.999l-15 -33h7c20.667 0 38.834 -6 54.501 -18s23.5 -29.333 23.5 -52c0 -24 -8 -42.167 -24 -54.5s-34 -18.5 -54 -18.5h-52v30h50c14 0 25.167 4 33.5 12s12.5 18.333 12.5 31
c0 12 -4.16699 22 -12.5 30s-19.5 12 -33.5 12h-37v23l17 39c-61.333 4.66699 -110.5 26.334 -147.5 65.001s-56.167 86.667 -57.5 144h40c1.33301 -30 9.16602 -58 23.499 -84s35.5 -47 63.5 -63s62 -24 102 -24c38 0 70.167 6.83301 96.5 20.5
s46.166 31.334 59.499 53.001s20 44.834 20 69.501c0 34 -8.33301 61.5 -25 82.5s-37 37 -61 48s-57 23.167 -99 36.5c-44 14 -79.333 27.333 -106 40s-49.334 31.334 -68.001 56.001s-28 57.334 -28 98.001c0 34 9.16699 64.5 27.5 91.5s43.333 48 75 63
s67.167 22.5 106.5 22.5c36.667 0 70.667 -8.66699 102 -26s56.5 -40.833 75.5 -70.5s28.833 -62.5 29.5 -98.5h-40c-1.33301 26.667 -8.83301 52 -22.5 76s-33.167 43.333 -58.5 58s-55 22 -89 22c-33.333 0 -62.5 -6.16699 -87.5 -18.5s-44.167 -29 -57.5 -50
s-20 -44.167 -20 -69.5c0 -32 8 -57.833 24 -77.5s35.667 -34.834 59 -45.501s55.333 -22.334 96 -35.001c45.333 -14.667 81.666 -28.5 108.999 -41.5s50.666 -32.5 69.999 -58.5s29 -60.333 29 -103c0 -35.333 -9.33301 -66.5 -28 -93.5z" />
    <glyph glyph-name="scedilla" unicode="&#x15f;" horiz-adv-x="487" 
d="M377.5 28.5c-31 -24.333 -70.833 -37.165 -119.5 -38.498l-15 -33h7c20.667 0 38.834 -6 54.501 -18s23.5 -29.333 23.5 -52c0 -24 -8 -42.167 -24 -54.5s-34 -18.5 -54 -18.5h-52v30h50c14 0 25.167 4 33.5 12s12.5 18.333 12.5 31c0 12 -4.16699 22 -12.5 30
s-19.5 12 -33.5 12h-37v23l17 39c-48.667 3.33301 -88 19.333 -118 48s-46 64 -48 106h39c2 -34.667 16.167 -62.834 42.5 -84.501s61.833 -32.5 106.5 -32.5c42 0 74.833 9 98.5 27s35.5 41.667 35.5 71c0 23.333 -6.33301 41.666 -19 54.999s-28.5 23.5 -47.5 30.5
s-44.5 13.833 -76.5 20.5c-35.333 7.33301 -64 15.166 -86 23.499s-40.667 21.333 -56 39s-23 41.834 -23 72.501c0 38.667 15.5 70.5 46.5 95.5s70.5 37.5 118.5 37.5c31.333 0 59.833 -6.5 85.5 -19.5s46.167 -30.833 61.5 -53.5s23.333 -48.334 24 -77.001h-39
c-1.33301 31.333 -14 57.833 -38 79.5s-55.333 32.5 -94 32.5c-36 0 -65.833 -8.33301 -89.5 -25s-35.5 -40 -35.5 -70c0 -21.333 6.16699 -38.333 18.5 -51s27.666 -22.167 45.999 -28.5s43.166 -13.166 74.499 -20.499c36 -8 65.333 -16.333 88 -25
s41.834 -22.167 57.501 -40.5s23.5 -43.5 23.5 -75.5c0 -40.667 -15.5 -73.167 -46.5 -97.5z" />
    <glyph glyph-name="Scaron" unicode="&#x160;" horiz-adv-x="562" 
d="M167.5 17c-34.333 18 -60.8291 42.998 -79.4961 74.998s-28.667 68 -30 108h40c1.33301 -30 9.16602 -58 23.499 -84s35.5 -47 63.5 -63s62 -24 102 -24c38 0 70.167 6.83301 96.5 20.5s46.166 31.334 59.499 53.001s20 44.834 20 69.501c0 34 -8.33301 61.5 -25 82.5
s-37 37 -61 48s-57 23.167 -99 36.5c-44 14 -79.333 27.333 -106 40s-49.334 31.334 -68.001 56.001s-28 57.334 -28 98.001c0 34 9.16699 64.5 27.5 91.5s43.333 48 75 63s67.167 22.5 106.5 22.5c36.667 0 70.667 -8.66699 102 -26s56.5 -40.833 75.5 -70.5
s28.833 -62.5 29.5 -98.5h-40c-1.33301 26.667 -8.83301 52 -22.5 76s-33.167 43.333 -58.5 58s-55 22 -89 22c-33.333 0 -62.5 -6.16699 -87.5 -18.5s-44.167 -29 -57.5 -50s-20 -44.167 -20 -69.5c0 -32 8 -57.833 24 -77.5s35.667 -34.834 59 -45.501
s55.333 -22.334 96 -35.001c45.333 -14.667 81.666 -28.5 108.999 -41.5s50.666 -32.5 69.999 -58.5s29 -60.333 29 -103c0 -36 -9.5 -67.833 -28.5 -95.5s-45.167 -49 -78.5 -64s-70 -22.5 -110 -22.5c-45.333 0 -85.166 9 -119.499 27zM305.004 771.998h-40l-106 110h50
l76 -80l77 80h48z" />
    <glyph glyph-name="scaron" unicode="&#x161;" horiz-adv-x="487" 
d="M152.5 10c-27.667 13.333 -49.332 31.835 -64.999 55.502s-24.167 50.167 -25.5 79.5h39c2 -34.667 16.167 -62.834 42.5 -84.501s61.833 -32.5 106.5 -32.5c42 0 74.833 9 98.5 27s35.5 41.667 35.5 71c0 23.333 -6.33301 41.666 -19 54.999s-28.5 23.5 -47.5 30.5
s-44.5 13.833 -76.5 20.5c-35.333 7.33301 -64 15.166 -86 23.499s-40.667 21.333 -56 39s-23 41.834 -23 72.501c0 38.667 15.5 70.5 46.5 95.5s70.5 37.5 118.5 37.5c31.333 0 59.833 -6.5 85.5 -19.5s46.167 -30.833 61.5 -53.5s23.333 -48.334 24 -77.001h-39
c-1.33301 31.333 -14 57.833 -38 79.5s-55.333 32.5 -94 32.5c-36 0 -65.833 -8.33301 -89.5 -25s-35.5 -40 -35.5 -70c0 -21.333 6.16699 -38.333 18.5 -51s27.666 -22.167 45.999 -28.5s43.166 -13.166 74.499 -20.499c36 -8 65.333 -16.333 88 -25
s41.834 -22.167 57.501 -40.5s23.5 -43.5 23.5 -75.5c0 -42 -16.5 -75.167 -49.5 -99.5s-75.167 -36.5 -126.5 -36.5c-36 0 -67.833 6.66699 -95.5 20zM267.002 568.002h-40l-106 109h50l76 -80l77 80h48z" />
    <glyph glyph-name="uni0162" unicode="&#x162;" horiz-adv-x="474" 
d="M257 0h-5.00098l-20 -43h7c20.667 0 38.834 -6 54.501 -18s23.5 -29.333 23.5 -52c0 -24 -8 -42.167 -24 -54.5s-34 -18.5 -54 -18.5h-52v30h50c14 0 25.167 4 33.5 12s12.5 18.333 12.5 31c0 12 -4.16699 22 -12.5 30s-19.5 12 -33.5 12h-37v23l22 48h-5v661h-188v39
h416v-39h-188v-661z" />
    <glyph glyph-name="uni0163" unicode="&#x163;" horiz-adv-x="322" 
d="M278 452h-125v-331c0 -26.667 6.83301 -47.167 20.5 -61.5s32.834 -21.5 57.501 -21.5h47v-38h-48c-8.66699 -0 -15.334 0.333008 -20.001 1l-20 -44h7c20.667 0 38.834 -6 54.501 -18s23.5 -29.333 23.5 -52c0 -24 -8 -42.167 -24 -54.5s-34 -18.5 -54 -18.5h-52v30h50
c14 0 25.167 4 33.5 12s12.5 18.333 12.5 31c0 12 -4.16699 22 -12.5 30s-19.5 12 -33.5 12h-37v23l25 56c-22.667 8 -39.834 21.667 -51.501 41s-17.5 43 -17.5 71v332h-80v38h80v130h39v-130h125v-38z" />
    <glyph glyph-name="Tcaron" unicode="&#x164;" horiz-adv-x="474" 
d="M257 0h-40v661h-188v39h416v-39h-188v-661zM257 772h-40l-106 110h50l76 -80l77 80h48z" />
    <glyph glyph-name="tcaron" unicode="&#x165;" horiz-adv-x="322" 
d="M278 452l-125.001 -0.000976562v-331c0 -26.667 6.83301 -47.167 20.5 -61.5s32.834 -21.5 57.501 -21.5h47v-38h-48c-36.667 0 -65.167 10.833 -85.5 32.5s-30.5 50.834 -30.5 87.501v332h-80v38h80v130h39v-130h125v-38zM263.999 559.999h-35l20 160h46z" />
    <glyph glyph-name="Tbar" unicode="&#x166;" horiz-adv-x="474" 
d="M445 700v-39h-188v-294h159v-38h-159v-329h-40v329h-159v38h159v294h-188v39h416z" />
    <glyph glyph-name="tbar" unicode="&#x167;" horiz-adv-x="322" 
d="M278 452l-125.001 -0.000976562v-141h115v-37h-115v-153c0 -26.667 6.83301 -47.167 20.5 -61.5s32.834 -21.5 57.501 -21.5h47v-38h-48c-36.667 0 -65.167 10.833 -85.5 32.5s-30.5 50.834 -30.5 87.501v154h-70v37h70v141h-80v38h80v130h39v-130h125v-38z" />
    <glyph glyph-name="Umacron" unicode="&#x16a;" horiz-adv-x="672" 
d="M207 22c-37.333 21.333 -66.335 51.5 -87.002 90.5s-31 84.167 -31 135.5v452h40v-452c0 -66.667 18.833 -119.834 56.5 -159.501s87.834 -59.5 150.501 -59.5s112.834 19.833 150.501 59.5s56.5 92.834 56.5 159.501v452h40v-452c0 -51.333 -10.333 -96.5 -31 -135.5
s-49.667 -69.167 -87 -90.5s-80.333 -32 -129 -32s-91.667 10.667 -129 32zM457.998 809h-244v38h244v-38z" />
    <glyph glyph-name="umacron" unicode="&#x16b;" horiz-adv-x="545" 
d="M127.5 47.5c-35.667 38.333 -53.501 88.167 -53.501 149.5v293h39v-285c0 -51.333 13 -93.666 39 -126.999s66.333 -50 121 -50c54 0 94 16.667 120 50s39 75.666 39 126.999v285h39v-293c0 -62 -17.667 -112 -53 -150s-83.666 -57 -144.999 -57
s-109.833 19.167 -145.5 57.5zM394.999 605.001h-244v37h244v-37z" />
    <glyph glyph-name="Ubreve" unicode="&#x16c;" horiz-adv-x="672" 
d="M207 22c-37.333 21.333 -66.335 51.5 -87.002 90.5s-31 84.167 -31 135.5v452h40v-452c0 -66.667 18.833 -119.834 56.5 -159.501s87.834 -59.5 150.501 -59.5s112.834 19.833 150.501 59.5s56.5 92.834 56.5 159.501v452h40v-452c0 -51.333 -10.333 -96.5 -31 -135.5
s-49.667 -69.167 -87 -90.5s-80.333 -32 -129 -32s-91.667 10.667 -129 32zM246.998 795.5c-22.667 21 -35.332 49.5 -37.999 85.5h37c2.66699 -26.667 11.834 -47 27.501 -61s36.5 -21 62.5 -21s46.833 7 62.5 21s24.834 34.333 27.501 61h37
c-2.66699 -36 -15.334 -64.5 -38.001 -85.5s-52.334 -31.5 -89.001 -31.5s-66.334 10.5 -89.001 31.5z" />
    <glyph glyph-name="ubreve" unicode="&#x16d;" horiz-adv-x="545" 
d="M127.5 47.5c-35.667 38.333 -53.501 88.167 -53.501 149.5v293h39v-285c0 -51.333 13 -93.666 39 -126.999s66.333 -50 121 -50c54 0 94 16.667 120 50s39 75.666 39 126.999v285h39v-293c0 -62 -17.667 -112 -53 -150s-83.666 -57 -144.999 -57
s-109.833 19.167 -145.5 57.5zM186.999 591.501c-22 21 -34.333 49.167 -37 84.5h37c2.66699 -26 11.667 -46 27 -60s35 -21 59 -21s43.667 7 59 21s24.333 34 27 60h37c-2.66699 -35.333 -15 -63.5 -37 -84.5s-50.667 -31.5 -86 -31.5s-64 10.5 -86 31.5z" />
    <glyph glyph-name="Uring" unicode="&#x16e;" horiz-adv-x="672" 
d="M207 22c-37.333 21.333 -66.335 51.5 -87.002 90.5s-31 84.167 -31 135.5v452h40v-452c0 -66.667 18.833 -119.834 56.5 -159.501s87.834 -59.5 150.501 -59.5s112.834 19.833 150.501 59.5s56.5 92.834 56.5 159.501v452h40v-452c0 -51.333 -10.333 -96.5 -31 -135.5
s-49.667 -69.167 -87 -90.5s-80.333 -32 -129 -32s-91.667 10.667 -129 32zM272.998 778c-16.667 16.667 -25 37.334 -25 62.001s8.16699 45.167 24.5 61.5s37.5 24.5 63.5 24.5c25.333 0 46.333 -8.16699 63 -24.5s25 -36.833 25 -61.5s-8.33301 -45.334 -25 -62.001
s-37.667 -25 -63 -25s-46.333 8.33301 -63 25zM376.498 799c10.333 10.667 15.5 24.334 15.5 41.001s-5.16699 30.167 -15.5 40.5s-23.833 15.5 -40.5 15.5s-30.167 -5.16699 -40.5 -15.5s-15.5 -23.833 -15.5 -40.5s5.16699 -30.334 15.5 -41.001s23.833 -16 40.5 -16
s30.167 5.33301 40.5 16z" />
    <glyph glyph-name="uring" unicode="&#x16f;" horiz-adv-x="545" 
d="M127.5 47.5c-35.667 38.333 -53.501 88.167 -53.501 149.5v293h39v-285c0 -51.333 13 -93.666 39 -126.999s66.333 -50 121 -50c54 0 94 16.667 120 50s39 75.666 39 126.999v285h39v-293c0 -62 -17.667 -112 -53 -150s-83.666 -57 -144.999 -57
s-109.833 19.167 -145.5 57.5zM209.999 574.001c-16.667 16.667 -25 37.334 -25 62.001s8.16699 45.167 24.5 61.5s37.5 24.5 63.5 24.5c25.333 0 46.333 -8.16699 63 -24.5s25 -36.833 25 -61.5s-8.33301 -45.334 -25 -62.001s-37.667 -25 -63 -25s-46.333 8.33301 -63 25z
M313.499 595.001c10.333 10.667 15.5 24.334 15.5 41.001s-5.16699 30.167 -15.5 40.5s-23.833 15.5 -40.5 15.5s-30.167 -5.16699 -40.5 -15.5s-15.5 -23.833 -15.5 -40.5s5.16699 -30.334 15.5 -41.001s23.833 -16 40.5 -16s30.167 5.33301 40.5 16z" />
    <glyph glyph-name="Uhungarumlaut" unicode="&#x170;" horiz-adv-x="672" 
d="M207 22c-37.333 21.333 -66.335 51.5 -87.002 90.5s-31 84.167 -31 135.5v452h40v-452c0 -66.667 18.833 -119.834 56.5 -159.501s87.834 -59.5 150.501 -59.5s112.834 19.833 150.501 59.5s56.5 92.834 56.5 159.501v452h40v-452c0 -51.333 -10.333 -96.5 -31 -135.5
s-49.667 -69.167 -87 -90.5s-80.333 -32 -129 -32s-91.667 10.667 -129 32zM291.998 772h-43l76 115h50zM412.998 772h-42l76 115h50z" />
    <glyph glyph-name="uhungarumlaut" unicode="&#x171;" horiz-adv-x="545" 
d="M127.5 47.5c-35.667 38.333 -53.501 88.167 -53.501 149.5v293h39v-285c0 -51.333 13 -93.666 39 -126.999s66.333 -50 121 -50c54 0 94 16.667 120 50s39 75.666 39 126.999v285h39v-293c0 -62 -17.667 -112 -53 -150s-83.666 -57 -144.999 -57
s-109.833 19.167 -145.5 57.5zM228.999 568.001h-43l76 114h50zM349.999 568.001h-42l76 114h50z" />
    <glyph glyph-name="Uogonek" unicode="&#x172;" horiz-adv-x="672" 
d="M543 700h39.998v-452c0 -55.333 -11.5 -102.333 -34.5 -141s-52.5 -67.667 -88.5 -87c-62 -33.333 -93 -71 -93 -113c0 -18 5.83301 -32.667 17.5 -44s28.834 -17 51.501 -17h17v-32h-22c-28.667 0 -52 7.83301 -70 23.5s-27 38.5 -27 68.5c0 17.333 4 33.333 12 48
s18.333 27.667 31 39c-12.667 -2 -26.334 -3 -41.001 -3c-48.667 0 -91.667 10.667 -129 32s-66.333 51.5 -87 90.5s-31 84.167 -31 135.5v452h40v-452c0 -66.667 18.833 -119.834 56.5 -159.501s87.834 -59.5 150.501 -59.5s112.834 19.833 150.501 59.5
s56.5 92.834 56.5 159.501v452z" />
    <glyph glyph-name="uogonek" unicode="&#x173;" horiz-adv-x="545" 
d="M432 490l39 0.000976562v-293c0 -76 -26.333 -133.333 -79 -172c-32 -23.333 -54.5 -43.833 -67.5 -61.5s-19.5 -36.5 -19.5 -56.5c0 -18 6 -32.667 18 -44s29.333 -17 52 -17h17v-32h-23c-28 0 -51.167 8 -69.5 24s-27.5 38.667 -27.5 68c0 32 14.333 61 43 87
c-12.667 -2 -26.667 -3 -42 -3c-61.333 0 -109.833 19.167 -145.5 57.5s-53.5 88.166 -53.5 149.499v293h39v-285c0 -51.333 13 -93.666 39 -126.999s66.333 -50 121 -50c54 0 94 16.667 120 50s39 75.666 39 126.999v285z" />
    <glyph glyph-name="Wcircumflex" unicode="&#x174;" horiz-adv-x="951" 
d="M685 80l196 620h41l-223 -700h-28l-196 614l-195 -614h-29l-222 700h42l195 -620l197 620h26zM398 772h-48l106 110h40l105 -110h-49l-77 80z" />
    <glyph glyph-name="wcircumflex" unicode="&#x175;" horiz-adv-x="774" 
d="M561 68l162 422h41l-192 -490h-25l-160 420l-160 -420h-24l-193 490h42l162 -422l161 422h24zM309 568h-48l106 109h40l105 -109h-49l-77 80z" />
    <glyph glyph-name="Ycircumflex" unicode="&#x176;" horiz-adv-x="526" 
d="M264 357l198 343h45l-224 -384v-316h-40v316l-224 384h46zM185 772h-48l106 110h40l105 -110h-49l-77 80z" />
    <glyph glyph-name="ycircumflex" unicode="&#x177;" horiz-adv-x="486" 
d="M252 80l182 410h42l-308 -690h-43l105 235l-225 455h44zM166 568h-48l106 109h40l105 -109h-49l-77 80z" />
    <glyph glyph-name="Ydieresis" unicode="&#x178;" horiz-adv-x="526" 
d="M264 357l198 343h45l-224 -384v-316h-40v316l-224 384h46zM205 804h-53v59h53v-59zM374 804h-53v59h53v-59z" />
    <glyph glyph-name="Zacute" unicode="&#x179;" horiz-adv-x="580" 
d="M503 675l-382 -636h402v-39h-456v25l382 636h-360v39h414v-25zM304 772h-43l76 115h50z" />
    <glyph glyph-name="zacute" unicode="&#x17a;" horiz-adv-x="462" 
d="M408 465l-306 -427h316v-38h-374v25l306 427h-296v38h354v-25zM240 568h-43l76 114h50z" />
    <glyph glyph-name="Zdotaccent" unicode="&#x17b;" horiz-adv-x="580" 
d="M503 675l-382 -636h402v-39h-456v25l382 636h-360v39h414v-25zM321 804h-53v59h53v-59z" />
    <glyph glyph-name="zdotaccent" unicode="&#x17c;" horiz-adv-x="462" 
d="M408 465l-306 -427h316v-38h-374v25l306 427h-296v38h354v-25zM257 600h-53v58h53v-58z" />
    <glyph glyph-name="Zcaron" unicode="&#x17d;" horiz-adv-x="580" 
d="M503 675l-382 -636h402v-39h-456v25l382 636h-360v39h414v-25zM315 772h-40l-106 110h50l76 -80l77 80h48z" />
    <glyph glyph-name="zcaron" unicode="&#x17e;" horiz-adv-x="462" 
d="M408 465l-306 -427h316v-38h-374v25l306 427h-296v38h354v-25zM251 568h-40l-106 109h50l76 -80l77 80h48z" />
    <glyph glyph-name="uni018F" unicode="&#x18f;" horiz-adv-x="789" 
d="M563.5 662c53 -32 94.668 -75.5 125.001 -130.5s45.5 -115.5 45.5 -181.5s-15 -126.5 -45 -181.5s-71.167 -98.5 -123.5 -130.5s-109.833 -48 -172.5 -48c-65.333 0 -124.5 16.667 -177.5 50s-94.333 79 -124 137s-43.5 122.333 -41.5 193h643
c-2.66699 56 -18 107 -46 153s-64.833 82.167 -110.5 108.5s-95.5 39.5 -149.5 39.5c-63.333 0 -119.833 -17.667 -169.5 -53s-86.834 -82.666 -111.501 -141.999h-43c16 45.333 39.667 85.666 71 120.999s68.833 63 112.5 83s90.5 30 140.5 30
c64.667 0 123.5 -16 176.5 -48zM539.001 68.5c44.667 26.333 80.8301 62.5 108.497 108.5s42.834 97.333 45.501 154h-602c2.66699 -56 17.834 -107 45.501 -153s64 -82.333 109 -109s94.167 -40 147.5 -40c52.667 0 101.334 13.167 146.001 39.5z" />
    <glyph glyph-name="florin" unicode="&#x192;" horiz-adv-x="368" 
d="M370 700l-6.00098 -38h-22c-65.333 0 -103 -35 -113 -105l-25 -166h119l-6 -37h-119l-55 -362c-14 -94.667 -65.333 -142 -154 -142h-26l5 38h23c64.667 0 102.334 35 113.001 105l55 361h-99l6 37h99l25 167c14 94.667 65.333 142 154 142h26z" />
    <glyph glyph-name="uni01F4" unicode="&#x1f4;" horiz-adv-x="783" 
d="M385 354h358.001v-19c0 -60 -14.5 -116.5 -43.5 -169.5s-69.167 -95.5 -120.5 -127.5s-109 -48 -173 -48c-64.667 0 -123.834 16 -177.501 48s-96 75.5 -127 130.5s-46.5 115.5 -46.5 181.5s15.5 126.5 46.5 181.5s73.333 98.5 127 130.5s112.834 48 177.501 48
c72.667 0 137.834 -20.667 195.501 -62s99.834 -95.666 126.501 -162.999h-42c-25.333 55.333 -62.333 100.166 -111 134.499s-105 51.5 -169 51.5c-57.333 0 -109.666 -14.167 -156.999 -42.5s-84.666 -67 -111.999 -116s-41 -103.167 -41 -162.5s13.667 -113.5 41 -162.5
s64.666 -87.667 111.999 -116s99.666 -42.5 156.999 -42.5c49.333 0 95.666 11.5 138.999 34.5s79.166 56 107.499 99s45.166 93.833 50.499 152.5h-318v39zM415.001 772h-43l76 115h50z" />
    <glyph glyph-name="uni01F5" unicode="&#x1f5;" horiz-adv-x="607" 
d="M489 490l38.999 -0.00195312v-460c0 -47.333 -10.167 -89.166 -30.5 -125.499s-48.666 -64.5 -84.999 -84.5s-77.833 -30 -124.5 -30c-57.333 0 -106.833 15.333 -148.5 46s-69.167 72 -82.5 124h40c10.667 -35.333 31.834 -66.166 63.501 -92.499
s74.167 -39.5 127.5 -39.5c61.333 0 110.166 18.5 146.499 55.5s54.5 85.833 54.5 146.5v101c-21.333 -37.333 -50 -66.833 -86 -88.5s-75.667 -32.5 -119 -32.5c-44.667 0 -85.667 11 -123 33s-66.833 51.667 -88.5 89s-32.5 78.333 -32.5 123s10.833 85.667 32.5 123
s51.167 67 88.5 89s78.333 33 123 33c43.333 0 83 -10.833 119 -32.5s64.667 -51.167 86 -88.5v111zM387.999 74.998c31.333 18 56.166 42.833 74.499 74.5s27.5 66.834 27.5 105.501s-9.16699 73.834 -27.5 105.501s-43.166 56.5 -74.499 74.5s-65.666 27 -102.999 27
s-71.666 -9 -102.999 -27s-56.166 -42.833 -74.499 -74.5s-27.5 -66.834 -27.5 -105.501s9.16699 -73.834 27.5 -105.501s43.166 -56.5 74.499 -74.5s65.666 -27 102.999 -27s71.666 9 102.999 27zM310.999 567.998h-43l76 114h50z" />
    <glyph glyph-name="uni0218" unicode="&#x218;" horiz-adv-x="562" 
d="M167.5 17c-34.333 18 -60.8291 42.998 -79.4961 74.998s-28.667 68 -30 108h40c1.33301 -30 9.16602 -58 23.499 -84s35.5 -47 63.5 -63s62 -24 102 -24c38 0 70.167 6.83301 96.5 20.5s46.166 31.334 59.499 53.001s20 44.834 20 69.501c0 34 -8.33301 61.5 -25 82.5
s-37 37 -61 48s-57 23.167 -99 36.5c-44 14 -79.333 27.333 -106 40s-49.334 31.334 -68.001 56.001s-28 57.334 -28 98.001c0 34 9.16699 64.5 27.5 91.5s43.333 48 75 63s67.167 22.5 106.5 22.5c36.667 0 70.667 -8.66699 102 -26s56.5 -40.833 75.5 -70.5
s28.833 -62.5 29.5 -98.5h-40c-1.33301 26.667 -8.83301 52 -22.5 76s-33.167 43.333 -58.5 58s-55 22 -89 22c-33.333 0 -62.5 -6.16699 -87.5 -18.5s-44.167 -29 -57.5 -50s-20 -44.167 -20 -69.5c0 -32 8 -57.833 24 -77.5s35.667 -34.834 59 -45.501
s55.333 -22.334 96 -35.001c45.333 -14.667 81.666 -28.5 108.999 -41.5s50.666 -32.5 69.999 -58.5s29 -60.333 29 -103c0 -36 -9.5 -67.833 -28.5 -95.5s-45.167 -49 -78.5 -64s-70 -22.5 -110 -22.5c-45.333 0 -85.166 9 -119.499 27zM256.004 -225.002h-36l38 140h48z
" />
    <glyph glyph-name="uni0219" unicode="&#x219;" horiz-adv-x="487" 
d="M152.5 10c-27.667 13.333 -49.332 31.835 -64.999 55.502s-24.167 50.167 -25.5 79.5h39c2 -34.667 16.167 -62.834 42.5 -84.501s61.833 -32.5 106.5 -32.5c42 0 74.833 9 98.5 27s35.5 41.667 35.5 71c0 23.333 -6.33301 41.666 -19 54.999s-28.5 23.5 -47.5 30.5
s-44.5 13.833 -76.5 20.5c-35.333 7.33301 -64 15.166 -86 23.499s-40.667 21.333 -56 39s-23 41.834 -23 72.501c0 38.667 15.5 70.5 46.5 95.5s70.5 37.5 118.5 37.5c31.333 0 59.833 -6.5 85.5 -19.5s46.167 -30.833 61.5 -53.5s23.333 -48.334 24 -77.001h-39
c-1.33301 31.333 -14 57.833 -38 79.5s-55.333 32.5 -94 32.5c-36 0 -65.833 -8.33301 -89.5 -25s-35.5 -40 -35.5 -70c0 -21.333 6.16699 -38.333 18.5 -51s27.666 -22.167 45.999 -28.5s43.166 -13.166 74.499 -20.499c36 -8 65.333 -16.333 88 -25
s41.834 -22.167 57.501 -40.5s23.5 -43.5 23.5 -75.5c0 -42 -16.5 -75.167 -49.5 -99.5s-75.167 -36.5 -126.5 -36.5c-36 0 -67.833 6.66699 -95.5 20zM222.002 -224.998h-36l38 140h48z" />
    <glyph glyph-name="uni021A" unicode="&#x21a;" horiz-adv-x="474" 
d="M257 0h-40v661h-188v39h416v-39h-188v-661zM210 -225h-36l38 140h48z" />
    <glyph glyph-name="uni021B" unicode="&#x21b;" horiz-adv-x="322" 
d="M278 452l-125.001 -0.000976562v-331c0 -26.667 6.83301 -47.167 20.5 -61.5s32.834 -21.5 57.501 -21.5h47v-38h-48c-36.667 0 -65.167 10.833 -85.5 32.5s-30.5 50.834 -30.5 87.501v332h-80v38h80v130h39v-130h125v-38zM168.999 -225.001h-36l38 140h48z" />
    <glyph glyph-name="uni0232" unicode="&#x232;" horiz-adv-x="526" 
d="M264 357l198 343h45l-224 -384v-316h-40v316l-224 384h46zM385 809h-244v38h244v-38z" />
    <glyph glyph-name="uni0233" unicode="&#x233;" horiz-adv-x="486" 
d="M252 80l182 410h42l-308 -690h-43l105 235l-225 455h44zM366 605h-244v37h244v-37z" />
    <glyph glyph-name="uni0237" unicode="&#x237;" horiz-adv-x="197" 
d="M-46 -200l-0.000976562 38.001h47c24.667 0 43.834 7.16699 57.501 21.5s20.5 34.833 20.5 61.5v569h39v-570c0 -36.667 -10.167 -65.834 -30.5 -87.501s-48.833 -32.5 -85.5 -32.5h-48z" />
    <glyph glyph-name="uni0244" unicode="&#x244;" horiz-adv-x="682" 
d="M682 444v-38h-94v-158c0 -51.333 -10.333 -96.5 -31 -135.5s-49.667 -69.167 -87 -90.5s-80.333 -32 -129 -32s-91.667 10.667 -129 32s-66.333 51.5 -87 90.5s-31 84.167 -31 135.5v158h-94v38h94v256h40v-256h414v256h40v-256h94zM548 406h-414.002v-158
c0 -66.667 18.833 -119.834 56.5 -159.501s87.834 -59.5 150.501 -59.5s112.834 19.833 150.501 59.5s56.5 92.834 56.5 159.501v158z" />
    <glyph glyph-name="uni0259" unicode="&#x259;" horiz-adv-x="565" 
d="M404.5 466c37 -22.667 66.332 -53.333 87.999 -92s32.5 -81.667 32.5 -129s-11 -90.5 -33 -129.5s-51.667 -69.667 -89 -92s-78 -33.5 -122 -33.5c-46 0 -87.333 11.667 -124 35s-65.5 53.833 -86.5 91.5s-31.5 77.167 -31.5 118.5c0 10 0.333008 17.667 1 23h445
c-2 40 -12.167 75.5 -30.5 106.5s-42.666 55 -72.999 72s-63.166 25.5 -98.499 25.5c-44 0 -82.333 -11 -115 -33s-56.334 -50 -71.001 -84h-42c20 49.333 50.167 87.5 90.5 114.5s86.5 40.5 138.5 40.5c43.333 0 83.5 -11.333 120.5 -34zM377.999 52.001
c29.333 16 53.501 38.667 72.501 68s30.167 62.666 33.5 99.999h-405c2 -32.667 11.667 -63.667 29 -93s41 -53.166 71 -71.499s64 -27.5 102 -27.5c35.333 0 67.666 8 96.999 24z" />
    <glyph glyph-name="uni0289" unicode="&#x289;" horiz-adv-x="555" 
d="M550 321l-0.000976562 -36.999h-74v-87c0 -62 -17.667 -112 -53 -150s-83.666 -57 -144.999 -57s-109.833 19.167 -145.5 57.5s-53.5 88.166 -53.5 149.499v87h-74v37h74v169h39v-169h319v169h39v-169h74zM436.999 284.001h-319v-79c0 -51.333 13 -93.666 39 -126.999
s66.333 -50 121 -50c54 0 94 16.667 120 50s39 75.666 39 126.999v79z" />
    <glyph glyph-name="uni02BC" unicode="&#x2bc;" horiz-adv-x="184" 
d="M79 512h-36l48 188h50z" />
    <glyph glyph-name="circumflex" unicode="&#x2c6;" horiz-adv-x="311" 
d="M78 568h-48l106 109h40l105 -109h-49l-77 80z" />
    <glyph glyph-name="caron" unicode="&#x2c7;" horiz-adv-x="311" 
d="M176 568h-40l-106 109h50l76 -80l77 80h48z" />
    <glyph glyph-name="breve" unicode="&#x2d8;" horiz-adv-x="306" 
d="M67 591.5c-22 21 -34.333 49.167 -37 84.5h37c2.66699 -26 11.667 -46 27 -60s35 -21 59 -21s43.667 7 59 21s24.333 34 27 60h37c-2.66699 -35.333 -15 -63.5 -37 -84.5s-50.667 -31.5 -86 -31.5s-64 10.5 -86 31.5z" />
    <glyph glyph-name="dotaccent" unicode="&#x2d9;" horiz-adv-x="113" 
d="M83 600h-53v58h53v-58z" />
    <glyph glyph-name="ring" unicode="&#x2da;" horiz-adv-x="236" 
d="M55 574c-16.667 16.667 -25 37.334 -25 62.001s8.16699 45.167 24.5 61.5s37.5 24.5 63.5 24.5c25.333 0 46.333 -8.16699 63 -24.5s25 -36.833 25 -61.5s-8.33301 -45.334 -25 -62.001s-37.667 -25 -63 -25s-46.333 8.33301 -63 25zM158.5 595
c10.333 10.667 15.5 24.334 15.5 41.001s-5.16699 30.167 -15.5 40.5s-23.833 15.5 -40.5 15.5s-30.167 -5.16699 -40.5 -15.5s-15.5 -23.833 -15.5 -40.5s5.16699 -30.334 15.5 -41.001s23.833 -16 40.5 -16s30.167 5.33301 40.5 16z" />
    <glyph glyph-name="ogonek" unicode="&#x2db;" horiz-adv-x="179" 
d="M127 -186c-28 0 -51.167 8.00098 -69.5 24.001s-27.5 38.667 -27.5 68c0 26.667 9.33301 49.5 28 68.5s40 32.833 64 41.5l25 -16c-24 -6.66699 -44 -18.334 -60 -35.001s-24 -36 -24 -58c0 -18 6 -32.667 18 -44s29.333 -17 52 -17h16v-32h-22z" />
    <glyph glyph-name="tilde" unicode="&#x2dc;" horiz-adv-x="309" 
d="M30 592c0 23.333 5.83301 41.667 17.5 55s27.167 20 46.5 20c14 0 26.167 -2.66699 36.5 -8s21.5 -13 33.5 -23c10 -8.66699 18.5 -15 25.5 -19s14.833 -6 23.5 -6c21.333 0 32 15.667 32 47v10h34v-14c0 -24 -5.66699 -42.667 -17 -56s-27 -20 -47 -20
c-14 0 -26 2.66699 -36 8s-21.333 13.333 -34 24c-10 8.66699 -18.5 15 -25.5 19s-14.833 6 -23.5 6c-21.333 0 -32 -16 -32 -48v-10h-34v15z" />
    <glyph glyph-name="hungarumlaut" unicode="&#x2dd;" horiz-adv-x="308" 
d="M73 568h-43l76 114h50zM194 568h-42l76 114h50z" />
    <glyph glyph-name="gravecomb" unicode="&#x300;" horiz-adv-x="0" 
d="M-30 568h-43l-83 114h51z" />
    <glyph glyph-name="acutecomb" unicode="&#x301;" horiz-adv-x="0" 
d="M-113 568h-43l76 114h50z" />
    <glyph glyph-name="uni0302" unicode="&#x302;" horiz-adv-x="0" 
d="M-233 568h-48l106 109h40l105 -109h-49l-77 80z" />
    <glyph glyph-name="tildecomb" unicode="&#x303;" horiz-adv-x="0" 
d="M-279 592c0 23.333 5.83301 41.667 17.5 55s27.167 20 46.5 20c14 0 26.167 -2.66699 36.5 -8s21.5 -13 33.5 -23c10 -8.66699 18.5 -15 25.5 -19s14.833 -6 23.5 -6c21.333 0 32 15.667 32 47v10h34v-14c0 -24 -5.66699 -42.667 -17 -56s-27 -20 -47 -20
c-14 0 -26 2.66699 -36 8s-21.333 13.333 -34 24c-10 8.66699 -18.5 15 -25.5 19s-14.833 6 -23.5 6c-21.333 0 -32 -16 -32 -48v-10h-34v15z" />
    <glyph glyph-name="uni0304" unicode="&#x304;" horiz-adv-x="0" 
d="M-30 605h-244v37h244v-37z" />
    <glyph glyph-name="uni0306" unicode="&#x306;" horiz-adv-x="0" 
d="M-239 591.5c-22 21 -34.333 49.167 -37 84.5h37c2.66699 -26 11.667 -46 27 -60s35 -21 59 -21s43.667 7 59 21s24.333 34 27 60h37c-2.66699 -35.333 -15 -63.5 -37 -84.5s-50.667 -31.5 -86 -31.5s-64 10.5 -86 31.5z" />
    <glyph glyph-name="uni0307" unicode="&#x307;" horiz-adv-x="0" 
d="M-30 600h-53v58h53v-58z" />
    <glyph glyph-name="uni0308" unicode="&#x308;" horiz-adv-x="0" 
d="M-191 600h-53v58h53v-58zM-30 600h-53v58h53v-58z" />
    <glyph glyph-name="uni030A" unicode="&#x30a;" horiz-adv-x="0" 
d="M-181 574c-16.667 16.667 -25 37.334 -25 62.001s8.16699 45.167 24.5 61.5s37.5 24.5 63.5 24.5c25.333 0 46.333 -8.16699 63 -24.5s25 -36.833 25 -61.5s-8.33301 -45.334 -25 -62.001s-37.667 -25 -63 -25s-46.333 8.33301 -63 25zM-77.5 595
c10.333 10.667 15.5 24.334 15.5 41.001s-5.16699 30.167 -15.5 40.5s-23.833 15.5 -40.5 15.5s-30.167 -5.16699 -40.5 -15.5s-15.5 -23.833 -15.5 -40.5s5.16699 -30.334 15.5 -41.001s23.833 -16 40.5 -16s30.167 5.33301 40.5 16z" />
    <glyph glyph-name="uni030B" unicode="&#x30b;" horiz-adv-x="0" 
d="M-235 568h-43l76 114h50zM-114 568h-42l76 114h50z" />
    <glyph glyph-name="uni030C" unicode="&#x30c;" horiz-adv-x="0" 
d="M-135 568h-40l-106 109h50l76 -80l77 80h48z" />
    <glyph glyph-name="uni0312" unicode="&#x312;" horiz-adv-x="0" 
d="M-79 568h-47l60 140h36z" />
    <glyph glyph-name="uni0326" unicode="&#x326;" horiz-adv-x="0" 
d="M-80 -225h-36l38 140h48z" />
    <glyph glyph-name="uni0327" unicode="&#x327;" horiz-adv-x="0" 
d="M-108 -43c20.667 0 38.833 -6 54.5 -18s23.5 -29.333 23.5 -52c0 -24 -8 -42.167 -24 -54.5s-34 -18.5 -54 -18.5h-52v30h50c14 0 25.167 4 33.5 12s12.5 18.333 12.5 31c0 12 -4.16699 22 -12.5 30s-19.5 12 -33.5 12h-37v23l31 69l23 -11v-5l-22 -48h7z" />
    <glyph glyph-name="uni0328" unicode="&#x328;" horiz-adv-x="0" 
d="M-52 -186c-28 0 -51.167 8.00098 -69.5 24.001s-27.5 38.667 -27.5 68c0 26.667 9.33301 49.5 28 68.5s40 32.833 64 41.5l25 -16c-24 -6.66699 -44 -18.334 -60 -35.001s-24 -36 -24 -58c0 -18 6 -32.667 18 -44s29.333 -17 52 -17h16v-32h-22z" />
    <glyph glyph-name="uni0401" unicode="&#x401;" horiz-adv-x="528" 
d="M139 345v-306h316v-39h-356v700h346v-39h-306v-277h296v-39h-296zM218 804h-53v59h53v-59zM387 804h-53v59h53v-59z" />
    <glyph glyph-name="uni0402" unicode="&#x402;" horiz-adv-x="659" 
d="M486.5 389c38.333 -22 67.9971 -52 88.9971 -90s31.5 -79.333 31.5 -124s-10.167 -85.5 -30.5 -122.5s-48.666 -66.5 -84.999 -88.5s-77.5 -34 -123.5 -36v40c36 2 69.167 11.5 99.5 28.5s54.333 40.833 72 71.5s26.5 66 26.5 106c0 41.333 -9.16699 77.833 -27.5 109.5
s-43.666 56.167 -75.999 73.5s-69.166 26 -110.499 26c-47.333 0 -97 -9 -149 -27v-356h-40v661h-154v39h403v-39h-209v-265c21.333 7.33301 46 13.5 74 18.5s54.333 7.5 79 7.5c48.667 0 92.167 -11 130.5 -33z" />
    <glyph glyph-name="uni0403" unicode="&#x403;" horiz-adv-x="455" 
d="M139 0h-40v700h337v-39h-297v-661zM277 772h-43l76 115h50z" />
    <glyph glyph-name="uni0404" unicode="&#x404;" horiz-adv-x="770" 
d="M722 215c-28 -68.667 -70.335 -123.332 -127.002 -163.999s-120.667 -61 -192 -61c-62.667 0 -120.667 16.167 -174 48.5s-95.666 76 -126.999 131s-47 115.167 -47 180.5s15.667 125.5 47 180.5s73.5 98.667 126.5 131s110.5 48.5 172.5 48.5c72 0 136 -20.333 192 -61
s98 -95.334 126 -164.001h-42c-27.333 58 -65.166 103.5 -113.499 136.5s-102.5 49.5 -162.5 49.5c-52.667 0 -101.667 -13 -147 -39s-82.166 -62 -110.499 -108s-43.833 -97.333 -46.5 -154h370v-39h-370c2.66699 -56.667 18.167 -108 46.5 -154s65.333 -82.167 111 -108.5
s95.167 -39.5 148.5 -39.5c63.333 0 119.666 18 168.999 54s85.333 80 108 132h42z" />
    <glyph glyph-name="uni0405" unicode="&#x405;" horiz-adv-x="562" 
d="M167.5 17c-34.333 18 -60.8291 42.998 -79.4961 74.998s-28.667 68 -30 108h40c1.33301 -30 9.16602 -58 23.499 -84s35.5 -47 63.5 -63s62 -24 102 -24c38 0 70.167 6.83301 96.5 20.5s46.166 31.334 59.499 53.001s20 44.834 20 69.501c0 34 -8.33301 61.5 -25 82.5
s-37 37 -61 48s-57 23.167 -99 36.5c-44 14 -79.333 27.333 -106 40s-49.334 31.334 -68.001 56.001s-28 57.334 -28 98.001c0 34 9.16699 64.5 27.5 91.5s43.333 48 75 63s67.167 22.5 106.5 22.5c36.667 0 70.667 -8.66699 102 -26s56.5 -40.833 75.5 -70.5
s28.833 -62.5 29.5 -98.5h-40c-1.33301 26.667 -8.83301 52 -22.5 76s-33.167 43.333 -58.5 58s-55 22 -89 22c-33.333 0 -62.5 -6.16699 -87.5 -18.5s-44.167 -29 -57.5 -50s-20 -44.167 -20 -69.5c0 -32 8 -57.833 24 -77.5s35.667 -34.834 59 -45.501
s55.333 -22.334 96 -35.001c45.333 -14.667 81.666 -28.5 108.999 -41.5s50.666 -32.5 69.999 -58.5s29 -60.333 29 -103c0 -36 -9.5 -67.833 -28.5 -95.5s-45.167 -49 -78.5 -64s-70 -22.5 -110 -22.5c-45.333 0 -85.166 9 -119.499 27z" />
    <glyph glyph-name="uni0406" unicode="&#x406;" horiz-adv-x="248" 
d="M144 0h-40v700h40v-700z" />
    <glyph glyph-name="uni0407" unicode="&#x407;" horiz-adv-x="248" 
d="M144 0h-40v700h40v-700zM66 804h-53v59h53v-59zM235 804h-53v59h53v-59z" />
    <glyph glyph-name="uni0408" unicode="&#x408;" horiz-adv-x="487" 
d="M102.5 18c-29 18.667 -51.168 42.668 -66.501 72.001s-23 60 -23 92h40c0 -26.667 6.33301 -51.834 19 -75.501s30.5 -42.5 53.5 -56.5s49.833 -21 80.5 -21c44 0 80.333 15 109 45s43 70.667 43 122v504h40v-504c0 -42 -8.5 -78.5 -25.5 -109.5
s-40.167 -54.833 -69.5 -71.5s-61.666 -25 -96.999 -25c-40 0 -74.5 9.33301 -103.5 28z" />
    <glyph glyph-name="uni0409" unicode="&#x409;" horiz-adv-x="972" 
d="M693 409c47.333 0 88.834 -8.99902 124.501 -26.999s63.167 -42.667 82.5 -74s29 -66 29 -104s-9.66699 -72.5 -29 -103.5s-46.833 -55.5 -82.5 -73.5s-77.167 -27 -124.5 -27h-182v661h-297l-28 -442c-4.66699 -84 -21.834 -142.333 -51.501 -175s-65.5 -49 -107.5 -49
h-12v41h13c34 0 61.167 15.667 81.5 47s32.5 76.666 36.5 135.999l33 481h372v-291h142zM693.001 39.001c36 0 68.833 6.5 98.5 19.5s53.167 32 70.5 57s26 54.5 26 88.5s-8.66699 63.667 -26 89s-40.833 44.5 -70.5 57.5s-62.5 19.5 -98.5 19.5h-142v-331h142z" />
    <glyph glyph-name="uni040A" unicode="&#x40a;" horiz-adv-x="992" 
d="M715 399c48 0 89.167 -8.83398 123.5 -26.501s60.5 -41.667 78.5 -72s27 -64.166 27 -101.499s-9 -71 -27 -101s-44.167 -53.833 -78.5 -71.5s-75.5 -26.5 -123.5 -26.5h-189v360h-387v-360h-40v700h40v-301h387v301h40v-301h149zM715 38.999
c56 0 101.333 14.167 136 42.5s52 67.5 52 117.5c0 50.667 -17.333 90.167 -52 118.5s-80 42.5 -136 42.5h-149v-321h149z" />
    <glyph glyph-name="uni040B" unicode="&#x40b;" horiz-adv-x="673" 
d="M541 361.5c40 -40.333 60.001 -98.167 60.001 -173.5v-188h-40v188c0 60 -15.667 107.5 -47 142.5s-76.666 52.5 -135.999 52.5c-28.667 0 -58.334 -3 -89.001 -9s-59.334 -15 -86.001 -27v-347h-40v661h-154v39h403v-39h-209v-273c23.333 9.33301 50.833 17.333 82.5 24
s61.5 10 89.5 10c70.667 0 126 -20.167 166 -60.5z" />
    <glyph glyph-name="uni040C" unicode="&#x40c;" horiz-adv-x="553" 
d="M177 359l367 -359h-58l-347 341v-341h-40v700h40v-327l328 327h54zM285 772h-43l76 115h50z" />
    <glyph glyph-name="uni040E" unicode="&#x40e;" horiz-adv-x="572" 
d="M294 249l206 451h43l-320 -700h-43l93 204l-245 496h45zM194.5 795.5c-23 21 -35.8311 49.5 -38.498 85.5h38c2.66699 -28 12.167 -49 28.5 -63s38.166 -21 65.499 -21s49.166 7 65.499 21s25.833 35 28.5 63h38c-2.66699 -36 -15.5 -64.5 -38.5 -85.5
s-54.167 -31.5 -93.5 -31.5s-70.5 10.5 -93.5 31.5z" />
    <glyph glyph-name="uni040F" unicode="&#x40f;" horiz-adv-x="685" 
d="M363 -170h-40v170h-224v700h40v-661h407v661h40v-700h-223v-170z" />
    <glyph glyph-name="uni0410" unicode="&#x410;" horiz-adv-x="633" 
d="M613 0h-43l-83 210h-341l-84 -210h-42l282 700h29zM471 249l-155 390l-154 -390h309z" />
    <glyph glyph-name="uni0411" unicode="&#x411;" horiz-adv-x="559" 
d="M268 409c46.667 0 88.167 -8.49902 124.5 -25.499s64.5 -41 84.5 -72s30 -66.833 30 -107.5s-10 -76.334 -30 -107.001s-48.167 -54.5 -84.5 -71.5s-77.833 -25.5 -124.5 -25.5h-169v700h354v-39h-314v-252h129zM268 39.001c59.333 0 107.166 15.168 143.499 45.501
s54.5 70.166 54.5 119.499c0 50 -18.167 90.167 -54.5 120.5s-84.166 45.5 -143.499 45.5h-129v-331h129z" />
    <glyph glyph-name="uni0412" unicode="&#x412;" horiz-adv-x="565" 
d="M464.5 307.5c25.667 -31 38.498 -68.501 38.498 -112.501c0 -37.333 -9.66699 -70.833 -29 -100.5s-46.166 -52.834 -80.499 -69.501s-73.166 -25 -116.499 -25h-178v700h170c40.667 0 76.5 -7.66699 107.5 -23s54.833 -36.166 71.5 -62.499s25 -56.166 25 -89.499
c0 -36 -9.83301 -67.5 -29.5 -94.5s-45.5 -46.5 -77.5 -58.5c40 -12 72.833 -33.5 98.5 -64.5zM138.998 660.999v-272h130c49.333 0 88.833 12.667 118.5 38s44.5 58 44.5 98s-14.833 72.667 -44.5 98s-69.167 38 -118.5 38h-130zM276.998 38.999
c36.667 0 69 6.83105 97 20.498s49.667 32.334 65 56.001s23 50.167 23 79.5s-7.66699 55.833 -23 79.5s-37 42.334 -65 56.001s-60.333 20.5 -97 20.5h-138v-312h138z" />
    <glyph glyph-name="uni0413" unicode="&#x413;" horiz-adv-x="455" 
d="M139 0h-40v700h337v-39h-297v-661z" />
    <glyph glyph-name="uni0414" unicode="&#x414;" horiz-adv-x="692" 
d="M572 39l86 0.000976562v-209h-40v170h-553v-170h-40v209c37.333 5.33301 66.5 24.666 87.5 57.999s33.833 78.333 38.5 135l39 468h382v-661zM532 39.001v621.999h-306l-36 -429c-4 -50.667 -12.167 -91.167 -24.5 -121.5s-30.833 -54.166 -55.5 -71.499h422z" />
    <glyph glyph-name="uni0415" unicode="&#x415;" horiz-adv-x="528" 
d="M139 345v-306h316v-39h-356v700h346v-39h-306v-277h296v-39h-296z" />
    <glyph glyph-name="uni0416" unicode="&#x416;" horiz-adv-x="784" 
d="M447 359l328 -359h-53l-310 340v-340h-40v338l-309 -338h-54l328 359l-306 341h51l290 -326v326h40v-327l291 327h50z" />
    <glyph glyph-name="uni0417" unicode="&#x417;" horiz-adv-x="551" 
d="M453.5 296c23.667 -30 35.498 -65.666 35.498 -106.999c0 -61.333 -20.167 -109.833 -60.5 -145.5s-94.166 -53.5 -161.499 -53.5c-42.667 0 -80.5 8.33301 -113.5 25s-59 39.5 -78 68.5s-30.167 61.5 -33.5 97.5h40c4 -43.333 22.833 -79.5 56.5 -108.5
s76.5 -43.5 128.5 -43.5c56 0 100.167 14.333 132.5 43s48.5 67.667 48.5 117c0 44 -16.5 79.833 -49.5 107.5s-75.833 41.5 -128.5 41.5h-61v39h63c30.667 0 57.834 6.66699 81.501 20s42 31.166 55 53.499s19.5 46.5 19.5 72.5c0 46.667 -15 83 -45 109s-69 39 -117 39
c-48.667 0 -88 -12.5 -118 -37.5s-48.667 -60.167 -56 -105.5h-40c6 54.667 28 98.667 66 132s87.333 50 148 50c39.333 0 74.5 -7.83301 105.5 -23.5s55 -37.667 72 -66s25.5 -60.833 25.5 -97.5s-9.66699 -69.167 -29 -97.5s-47.333 -49.833 -84 -64.5
c41.333 -13.333 73.833 -35 97.5 -65z" />
    <glyph glyph-name="uni0418" unicode="&#x418;" horiz-adv-x="760" 
d="M139 74l494 626h28v-700h-40v626l-494 -626h-28v700h40v-626z" />
    <glyph glyph-name="uni0419" unicode="&#x419;" horiz-adv-x="760" 
d="M139 74l494 626h28v-700h-40v626l-494 -626h-28v700h40v-626zM292.5 795.5c-23 21 -35.8311 49.5 -38.498 85.5h38c2.66699 -28 12.167 -49 28.5 -63s38.166 -21 65.499 -21s49.166 7 65.499 21s25.833 35 28.5 63h38c-2.66699 -36 -15.5 -64.5 -38.5 -85.5
s-54.167 -31.5 -93.5 -31.5s-70.5 10.5 -93.5 31.5z" />
    <glyph glyph-name="uni041A" unicode="&#x41a;" horiz-adv-x="553" 
d="M177 359l367 -359h-58l-347 341v-341h-40v700h40v-327l328 327h54z" />
    <glyph glyph-name="uni041B" unicode="&#x41b;" horiz-adv-x="674" 
d="M179 700l396 0.000976562v-700h-40v661h-319l-30 -442c-10 -149.333 -63 -224 -159 -224h-12v41h13c34 0 61.167 15.667 81.5 47s32.5 76.666 36.5 135.999z" />
    <glyph glyph-name="uni041C" unicode="&#x41c;" horiz-adv-x="886" 
d="M731 700l82 -700h-40l-70 605l-248 -605h-24l-248 607l-70 -607h-40l82 700h30l259 -631l258 631h29z" />
    <glyph glyph-name="uni041D" unicode="&#x41d;" horiz-adv-x="704" 
d="M565 384v316h40v-700h-40v345h-426v-345h-40v700h40v-316h426z" />
    <glyph glyph-name="uni041E" unicode="&#x41e;" horiz-adv-x="813" 
d="M228.5 38c-53.667 32 -96 75.5 -127 130.5s-46.5 115.5 -46.5 181.5s15.5 126.5 46.5 181.5s73.333 98.5 127 130.5s112.834 48 177.501 48s123.834 -16 177.501 -48s96.167 -75.5 127.5 -130.5s47 -115.5 47 -181.5s-15.667 -126.5 -47 -181.5
s-73.833 -98.5 -127.5 -130.5s-112.834 -48 -177.501 -48s-123.834 16 -177.501 48zM563.5 71.5c47.667 28.333 85.167 67 112.5 116s41 103.167 41 162.5s-13.667 113.5 -41 162.5s-64.833 87.667 -112.5 116s-100.167 42.5 -157.5 42.5s-109.666 -14.167 -156.999 -42.5
s-84.666 -67 -111.999 -116s-41 -103.167 -41 -162.5s13.667 -113.5 41 -162.5s64.666 -87.667 111.999 -116s99.666 -42.5 156.999 -42.5s109.833 14.167 157.5 42.5z" />
    <glyph glyph-name="uni041F" unicode="&#x41f;" horiz-adv-x="699" 
d="M139 0h-40v700h501v-700h-40v661h-421v-661z" />
    <glyph glyph-name="uni0420" unicode="&#x420;" horiz-adv-x="544" 
d="M282 700c42.667 0 80.334 -8.33301 113.001 -25s57.834 -39.5 75.501 -68.5s26.5 -61.833 26.5 -98.5s-8.83301 -69.5 -26.5 -98.5s-42.834 -51.833 -75.501 -68.5s-70.334 -25 -113.001 -25h-143v-316h-40v700h183zM282 355c54 0 96.667 14.5 128 43.5s47 65.5 47 109.5
s-15.667 80.5 -47 109.5s-74 43.5 -128 43.5h-143v-306h143z" />
    <glyph glyph-name="uni0421" unicode="&#x421;" horiz-adv-x="770" 
d="M228.5 38.5c-53 32.333 -95.167 76.002 -126.5 131.002s-47 115.167 -47 180.5s15.667 125.5 47 180.5s73.5 98.667 126.5 131s110.5 48.5 172.5 48.5c72 0 136 -20.333 192 -61s98 -95.334 126 -164.001h-42c-27.333 58 -65.166 103.5 -113.499 136.5
s-102.5 49.5 -162.5 49.5c-54.667 0 -105.334 -14 -152.001 -42s-83.834 -66.5 -111.501 -115.5s-41.5 -103.5 -41.5 -163.5s13.833 -114.5 41.5 -163.5s64.834 -87.5 111.501 -115.5s97.334 -42 152.001 -42c60.667 0 115.5 16.5 164.5 49.5s87.167 78.5 114.5 136.5h42
c-28 -68.667 -70.333 -123.334 -127 -164.001s-121.334 -61 -194.001 -61c-62 0 -119.5 16.167 -172.5 48.5z" />
    <glyph glyph-name="uni0422" unicode="&#x422;" horiz-adv-x="474" 
d="M257 0h-40v661h-188v39h416v-39h-188v-661z" />
    <glyph glyph-name="uni0423" unicode="&#x423;" horiz-adv-x="572" 
d="M294 249l206 451h43l-320 -700h-43l93 204l-245 496h45z" />
    <glyph glyph-name="uni0424" unicode="&#x424;" horiz-adv-x="788" 
d="M437 650c54.667 0 105.167 -12.667 151.5 -38s83 -60.5 110 -105.5s40.5 -95.5 40.5 -151.5s-13.5 -106.5 -40.5 -151.5s-63.667 -80.167 -110 -105.5s-96.833 -38 -151.5 -38h-23v-85h-40v85h-23c-54.667 0 -105.167 12.667 -151.5 38s-83 60.5 -110 105.5
s-40.5 95.5 -40.5 151.5s13.5 106.5 40.5 151.5s63.667 80.167 110 105.5s96.833 38 151.5 38h23v75h40v-75h23zM374 98v514h-23c-47.333 0 -90.833 -10.5 -130.5 -31.5s-71.334 -51 -95.001 -90s-35.5 -84.167 -35.5 -135.5s11.833 -96.5 35.5 -135.5
s55.334 -69 95.001 -90s83.167 -31.5 130.5 -31.5h23zM437 98c47.333 0 90.833 10.5 130.5 31.5s71.334 51 95.001 90s35.5 84.167 35.5 135.5s-11.833 96.5 -35.5 135.5s-55.334 69 -95.001 90s-83.167 31.5 -130.5 31.5h-23v-514h23z" />
    <glyph glyph-name="uni0425" unicode="&#x425;" horiz-adv-x="564" 
d="M307 361l228 -361h-47l-206 330l-207 -330h-46l228 361l-208 339h46l187 -307l187 307h46z" />
    <glyph glyph-name="uni0426" unicode="&#x426;" horiz-adv-x="706" 
d="M672 -170h-40v170h-533v700h40v-661h407v661h40v-661h86v-209z" />
    <glyph glyph-name="uni0427" unicode="&#x427;" horiz-adv-x="626" 
d="M487 700l40 0.000976562v-700h-40v315c-20.667 -11.333 -48 -20.833 -82 -28.5s-66 -11.5 -96 -11.5c-72.667 0 -129.167 20.5 -169.5 61.5s-60.5 100.5 -60.5 178.5v185h40v-185c0 -62.667 15.667 -111.834 47 -147.501s79 -53.5 143 -53.5c30 0 61.5 3.66699 94.5 11
s60.833 17 83.5 29v346z" />
    <glyph glyph-name="uni0428" unicode="&#x428;" horiz-adv-x="988" 
d="M889 0h-790v700h40v-661h335v661h40v-661h335v661h40v-700z" />
    <glyph glyph-name="uni0429" unicode="&#x429;" horiz-adv-x="1009" 
d="M975 -170h-40v170h-836v700h40v-661h335v661h40v-661h335v661h40v-661h86v-209z" />
    <glyph glyph-name="uni042A" unicode="&#x42a;" horiz-adv-x="641" 
d="M355 419c47.333 0 89 -9.16699 125 -27.5s63.833 -43.5 83.5 -75.5s29.5 -67.667 29.5 -107s-9.83301 -74.833 -29.5 -106.5s-47.5 -56.667 -83.5 -75s-77.667 -27.5 -125 -27.5h-175v661h-170v39h210v-281h135zM355 39c36 0 69 6.66699 99 20s53.833 32.833 71.5 58.5
s26.5 56.167 26.5 91.5c0 36 -8.83301 66.833 -26.5 92.5s-41.5 45.167 -71.5 58.5s-63 20 -99 20h-135v-341h135z" />
    <glyph glyph-name="uni042B" unicode="&#x42b;" horiz-adv-x="764" 
d="M267 419c47.333 0 89 -9.16699 125 -27.5s63.833 -43.5 83.5 -75.5s29.5 -67.667 29.5 -107s-9.83301 -74.833 -29.5 -106.5s-47.5 -56.667 -83.5 -75s-77.667 -27.5 -125 -27.5h-168v700h40v-281h128zM625 0v700h40v-700h-40zM267 39c36 0 69 6.66699 99 20
s53.833 32.833 71.5 58.5s26.5 56.167 26.5 91.5c0 36 -8.83301 66.833 -26.5 92.5s-41.5 45.167 -71.5 58.5s-63 20 -99 20h-128v-341h128z" />
    <glyph glyph-name="uni042C" unicode="&#x42c;" horiz-adv-x="565" 
d="M279 419c47.333 0 89 -9.16699 125 -27.5s63.833 -43.5 83.5 -75.5s29.5 -67.667 29.5 -107s-9.83301 -74.833 -29.5 -106.5s-47.5 -56.667 -83.5 -75s-77.667 -27.5 -125 -27.5h-180v700h40v-281h140zM279 39c36 0 69 6.66699 99 20s53.833 32.833 71.5 58.5
s26.5 56.167 26.5 91.5c0 36 -8.83301 66.833 -26.5 92.5s-41.5 45.167 -71.5 58.5s-63 20 -99 20h-140v-341h140z" />
    <glyph glyph-name="uni042D" unicode="&#x42d;" horiz-adv-x="765" 
d="M536.5 661.5c53 -32.333 95.166 -76.001 126.499 -131.001s47 -115.167 47 -180.5s-15.667 -125.5 -47 -180.5s-73.666 -98.667 -126.999 -131s-111.333 -48.5 -174 -48.5c-70.667 0 -134.5 20.5 -191.5 61.5s-99.5 95.5 -127.5 163.5h43c22 -52 57.667 -96 107 -132
s105.666 -54 168.999 -54c54 0 103.833 13 149.5 39s82.667 62.167 111 108.5s44.166 97.833 47.499 154.5h-371v39h370c-2.66699 56.667 -18.167 108 -46.5 154s-65.166 82 -110.499 108s-94.666 39 -147.999 39c-60 0 -114 -16.5 -162 -49.5s-85.667 -78.5 -113 -136.5
h-43c28 68.667 70 123.334 126 164.001s120 61 192 61c62 0 119.5 -16.167 172.5 -48.5z" />
    <glyph glyph-name="uni042E" unicode="&#x42e;" horiz-adv-x="1010" 
d="M783.5 662c53 -32 94.832 -75.6689 125.499 -131.002s46 -115.666 46 -180.999s-15.333 -125.666 -46 -180.999s-72.5 -99 -125.5 -131s-111.167 -48 -174.5 -48c-61.333 0 -117.833 15.167 -169.5 45.5s-93.334 71.5 -125.001 123.5s-49.167 109.333 -52.5 172h-123
v-331h-40v700h40v-330h124c2.66699 62.667 19.834 120 51.501 172s73.334 93 125.001 123s108.167 45 169.5 45c63.333 0 121.5 -16 174.5 -48zM763.499 71.498c47 28.333 84 67 111 116s40.5 103.167 40.5 162.5s-13.5 113.5 -40.5 162.5s-64 87.667 -111 116
s-98.5 42.5 -154.5 42.5s-107.5 -14.167 -154.5 -42.5s-84 -67 -111 -116s-40.5 -103.167 -40.5 -162.5s13.5 -113.5 40.5 -162.5s64 -87.667 111 -116s98.5 -42.5 154.5 -42.5s107.5 14.167 154.5 42.5z" />
    <glyph glyph-name="uni042F" unicode="&#x42f;" horiz-adv-x="575" 
d="M476 700v-700h-40v316h-121l-228 -316h-50l232 317c-58 4.66699 -104.5 24.667 -139.5 60s-52.5 79 -52.5 131c0 36.667 9 69.5 27 98.5s43.167 51.833 75.5 68.5s69.833 25 112.5 25h184zM436 355v306h-144c-54 0 -96.5 -14.5 -127.5 -43.5s-46.5 -65.5 -46.5 -109.5
s15.5 -80.5 46.5 -109.5s73.5 -43.5 127.5 -43.5h144z" />
    <glyph glyph-name="uni0430" unicode="&#x430;" horiz-adv-x="617" 
d="M499 490h39v-490h-39v113c-20.667 -38 -49.667 -68 -87 -90s-78.333 -33 -123 -33c-46 0 -88 11.167 -126 33.5s-68 53 -90 92s-33 82.167 -33 129.5s11 90.5 33 129.5s52 69.667 90 92s80 33.5 126 33.5c44.667 0 85.667 -11 123 -33s66.333 -52 87 -90v113zM396 56
c32 18.667 57.333 44.5 76 77.5s28 70.167 28 111.5s-9.33301 78.5 -28 111.5s-44 58.833 -76 77.5s-67.333 28 -106 28s-74 -9.33301 -106 -28s-57.333 -44.5 -76 -77.5s-28 -70.167 -28 -111.5s9.33301 -78.5 28 -111.5s44 -58.833 76 -77.5s67.333 -28 106 -28
s74 9.33301 106 28z" />
    <glyph glyph-name="uni0431" unicode="&#x431;" horiz-adv-x="583" 
d="M429 447.5c36 -21.667 64.8311 -51.165 86.498 -88.498s32.5 -78.666 32.5 -123.999c0 -44.667 -11.167 -85.834 -33.5 -123.501s-52.166 -67.334 -89.499 -89.001s-77.666 -32.5 -120.999 -32.5c-44 0 -84.833 10.5 -122.5 31.5s-68.167 53 -91.5 96
s-35 96.167 -35 159.5c0 102.667 13.833 186.167 41.5 250.5s69.167 107.833 124.5 130.5c29.333 12 58.666 21.333 87.999 28s65.333 13.667 108 21c38.667 6.66699 68 12 88 16v-40l-67 -12c-51.333 -8.66699 -93.666 -16.834 -126.999 -24.501s-63 -17.834 -89 -30.501
c-36 -17.333 -65.167 -49.166 -87.5 -95.499s-35.5 -102.5 -39.5 -168.5c46 85.333 119 128 219 128c40.667 0 79 -10.833 115 -32.5zM405.998 55.002c31.333 18 56.166 42.833 74.499 74.5s27.5 66.834 27.5 105.501s-9.16699 73.834 -27.5 105.501
s-43.166 56.5 -74.499 74.5s-65.333 27 -102 27c-37.333 0 -71.666 -9 -102.999 -27s-56.333 -42.833 -75 -74.5s-28 -66.834 -28 -105.501s9.33301 -73.834 28 -105.501s43.667 -56.5 75 -74.5s65.666 -27 102.999 -27c36.667 0 70.667 9 102 27z" />
    <glyph glyph-name="uni0432" unicode="&#x432;" horiz-adv-x="493" 
d="M421.5 217c18.333 -21.333 27.5 -47 27.5 -77c0 -42 -14.5 -75.833 -43.5 -101.5s-69.833 -38.5 -122.5 -38.5h-204v490h193c47.333 0 84.5 -11.167 111.5 -33.5s40.5 -51.833 40.5 -88.5c0 -23.333 -6.5 -44.833 -19.5 -64.5s-31.5 -34.5 -55.5 -44.5
c30 -6.66699 54.167 -20.667 72.5 -42zM118 452l0.000976562 -178h153c33.333 0 60.5 8.16699 81.5 24.5s31.5 37.833 31.5 64.5c0 31.333 -10.333 54 -31 68s-48.334 21 -83.001 21h-152zM281.001 38c37.333 0 68 8.5 92 25.5s36 42.833 36 77.5
c0 28.667 -10.167 51.667 -30.5 69s-49.833 26 -88.5 26h-172v-198h163z" />
    <glyph glyph-name="uni0433" unicode="&#x433;" horiz-adv-x="378" 
d="M118 0h-39v490h289v-38h-250v-452z" />
    <glyph glyph-name="uni0434" unicode="&#x434;" horiz-adv-x="549" 
d="M450 38h71v-178h-39v140h-428v-140h-39v178c28 2.66699 51 15 69 37s28.667 55.667 32 101l24 314h310v-452zM411 38l-0.000976562 414h-235l-21 -276c-2.66699 -37.333 -8.66699 -66.333 -18 -87s-22.666 -37.667 -39.999 -51h314z" />
    <glyph glyph-name="uni0435" unicode="&#x435;" horiz-adv-x="565" 
d="M408 465.5c36.667 -23 65.335 -53.333 86.002 -91s31 -77.167 31 -118.5c0 -10.667 -0.333008 -18.667 -1 -24h-444c2 -40 12.167 -75.5 30.5 -106.5s42.666 -55 72.999 -72s63.166 -25.5 98.499 -25.5c44 0 82.333 11 115 33s56.334 50 71.001 84h42
c-20 -49.333 -50.333 -87.5 -91 -114.5s-87 -40.5 -139 -40.5c-43.333 0 -83.333 11.167 -120 33.5s-65.834 53 -87.501 92s-32.5 82.167 -32.5 129.5s11 90.5 33 129.5s51.667 69.667 89 92s78 33.5 122 33.5c46 0 87.333 -11.5 124 -34.5zM187.001 438
c-29.333 -16 -53.501 -38.668 -72.501 -68.001s-30.167 -62.666 -33.5 -99.999h405c-2 32 -11.667 62.833 -29 92.5s-41 53.667 -71 72s-64 27.5 -102 27.5c-35.333 0 -67.666 -8 -96.999 -24z" />
    <glyph glyph-name="uni0436" unicode="&#x436;" horiz-adv-x="612" 
d="M364 248l239 -248h-50l-228 236v-236h-38v236l-228 -236h-50l240 248l-225 242h47l216 -233v233h38v-234l216 234h48z" />
    <glyph glyph-name="uni0437" unicode="&#x437;" horiz-adv-x="451" 
d="M377 209.5c16.667 -21 24.999 -46.834 24.999 -77.501c0 -42 -16 -76.167 -48 -102.5s-74.667 -39.5 -128 -39.5c-52 0 -95 13.333 -129 40s-52.333 62 -55 106h39c4 -32 18.667 -58 44 -78s59 -30 101 -30c43.333 0 77 9.66699 101 29s36 44.666 36 75.999
c0 30.667 -10.833 55.167 -32.5 73.5s-53.167 27.5 -94.5 27.5h-56v38h56c33.333 0 60.666 8.5 81.999 25.5s32 39.5 32 67.5c0 30 -11.5 53.667 -34.5 71s-52.833 26 -89.5 26c-40 0 -71.333 -9.66699 -94 -29s-36 -44 -40 -74h-40c6 42.667 23.833 76.834 53.5 102.501
s69.834 38.5 120.501 38.5c48 0 87.167 -12.167 117.5 -36.5s45.5 -57.166 45.5 -98.499c0 -25.333 -6.66699 -47.5 -20 -66.5s-33.666 -33.833 -60.999 -44.5c29.333 -8.66699 52.333 -23.5 69 -44.5z" />
    <glyph glyph-name="uni0438" unicode="&#x438;" horiz-adv-x="568" 
d="M118 67l341 423h30v-490h-39v423l-341 -423h-30v490h39v-423z" />
    <glyph glyph-name="uni0439" unicode="&#x439;" horiz-adv-x="568" 
d="M118 67l341 423h30v-490h-39v423l-341 -423h-30v490h39v-423zM201 591.5c-22 21 -34.3311 49.167 -36.998 84.5h38c2.66699 -26.667 11.667 -47.167 27 -61.5s34.666 -21.5 57.999 -21.5s42.666 7.16699 57.999 21.5s24.333 34.833 27 61.5h38
c-2.66699 -35.333 -15 -63.5 -37 -84.5s-50.667 -31.5 -86 -31.5s-64 10.5 -86 31.5z" />
    <glyph glyph-name="uni043A" unicode="&#x43a;" horiz-adv-x="436" 
d="M159 247l268 -247h-55l-254 235v-235h-39v490h39v-233l243 233h53z" />
    <glyph glyph-name="uni043B" unicode="&#x43b;" horiz-adv-x="541" 
d="M148 490h314v-490h-39v452h-239l-22 -291c-4.66699 -57.333 -17.667 -99.333 -39 -126s-51 -40 -89 -40h-14v40h14c53.333 0 83 42 89 126z" />
    <glyph glyph-name="uni043C" unicode="&#x43c;" horiz-adv-x="699" 
d="M586 490l40 -490h-38l-32 407l-197 -407h-20l-196 405l-32 -405h-38l40 490h30l207 -429l207 429h29z" />
    <glyph glyph-name="uni043D" unicode="&#x43d;" horiz-adv-x="563" 
d="M445 269v221h39v-490h-39v231h-327v-231h-39v490h39v-221h327z" />
    <glyph glyph-name="uni043E" unicode="&#x43e;" horiz-adv-x="579" 
d="M163.5 23.5c-38.333 22.333 -68.5 53 -90.5 92s-33 82.167 -33 129.5s11 90.5 33 129.5s52.167 69.667 90.5 92s80.5 33.5 126.5 33.5s88 -11.167 126 -33.5s68 -53 90 -92s33 -82.167 33 -129.5s-11 -90.5 -33 -129.5s-52 -69.667 -90 -92s-80 -33.5 -126 -33.5
s-88.167 11.167 -126.5 33.5zM396 56c32 18.667 57.333 44.5 76 77.5s28 70.167 28 111.5s-9.33301 78.5 -28 111.5s-44 58.833 -76 77.5s-67.333 28 -106 28s-74 -9.33301 -106 -28s-57.333 -44.5 -76 -77.5s-28 -70.167 -28 -111.5s9.33301 -78.5 28 -111.5
s44 -58.833 76 -77.5s67.333 -28 106 -28s74 9.33301 106 28z" />
    <glyph glyph-name="uni043F" unicode="&#x43f;" horiz-adv-x="554" 
d="M118 0h-39v490h396v-490h-39v452h-318v-452z" />
    <glyph glyph-name="uni0440" unicode="&#x440;" horiz-adv-x="617" 
d="M454 466.5c38 -22.333 68 -53 90 -92s33 -82.167 33 -129.5s-11 -90.5 -33 -129.5s-52 -69.667 -90 -92s-80 -33.5 -126 -33.5c-44.667 0 -85.667 11 -123 33s-66.333 52 -87 90v-313h-39v690h39v-113c20.667 38 49.667 68 87 90s78.333 33 123 33
c46 0 88 -11.167 126 -33.5zM433 56c32 18.667 57.333 44.5 76 77.5s28 70.167 28 111.5s-9.33301 78.5 -28 111.5s-44 58.833 -76 77.5s-67.333 28 -106 28s-74 -9.33301 -106 -28s-57.333 -44.5 -76 -77.5s-28 -70.167 -28 -111.5s9.33301 -78.5 28 -111.5
s44 -58.833 76 -77.5s67.333 -28 106 -28s74 9.33301 106 28z" />
    <glyph glyph-name="uni0441" unicode="&#x441;" horiz-adv-x="543" 
d="M162.5 24c-37.667 22.667 -67.5 53.5 -89.5 92.5s-33 81.833 -33 128.5s11 89.5 33 128.5s51.833 69.833 89.5 92.5s79.167 34 124.5 34c48 0 92.167 -13 132.5 -39s70.166 -61.333 89.499 -106h-42c-18 33.333 -43.5 59.5 -76.5 78.5s-67.5 28.5 -103.5 28.5
c-37.333 0 -71.833 -9.33301 -103.5 -28s-56.834 -44.5 -75.501 -77.5s-28 -70.167 -28 -111.5s9.33301 -78.5 28 -111.5s43.834 -58.833 75.501 -77.5s66.167 -28 103.5 -28c36 0 70.5 9.5 103.5 28.5s58.5 45.167 76.5 78.5h42c-19.333 -44.667 -49.166 -80 -89.499 -106
s-84.5 -39 -132.5 -39c-45.333 0 -86.833 11.333 -124.5 34z" />
    <glyph glyph-name="uni0442" unicode="&#x442;" horiz-adv-x="415" 
d="M227 0h-39v452h-178v38h395v-38h-178v-452z" />
    <glyph glyph-name="uni0443" unicode="&#x443;" horiz-adv-x="486" 
d="M252 80l182 410h42l-308 -690h-43l105 235l-225 455h44z" />
    <glyph glyph-name="uni0444" unicode="&#x444;" horiz-adv-x="655" 
d="M352 495c44 0 86.333 -10.333 127 -31s73.5 -50 98.5 -88s37.5 -81.667 37.5 -131s-12.5 -93 -37.5 -131s-57.833 -67.333 -98.5 -88s-83 -31 -127 -31h-5v-195h-39v195h-5c-44 0 -86.333 10.333 -127 31s-73.5 50 -98.5 88s-37.5 81.667 -37.5 131s12.5 93 37.5 131
s57.833 67.333 98.5 88s83 31 127 31h5v225h39v-225h5zM111 134.5c20.667 -32.333 48.167 -57.335 82.5 -75.002s70.833 -26.5 109.5 -26.5h5v424h-5c-38.667 0 -75.167 -8.83301 -109.5 -26.5s-61.833 -42.667 -82.5 -75s-31 -69.166 -31 -110.499
s10.333 -78.166 31 -110.499zM352 32.998c38.667 0 75.167 8.83496 109.5 26.502s61.833 42.667 82.5 75s31 69.166 31 110.499s-10.333 78.166 -31 110.499s-48.167 57.333 -82.5 75s-70.833 26.5 -109.5 26.5h-5v-424h5z" />
    <glyph glyph-name="uni0445" unicode="&#x445;" horiz-adv-x="510" 
d="M278 255l202 -255h-48l-177 227l-178 -227h-47l201 254l-188 236h48l164 -208l165 208h47z" />
    <glyph glyph-name="uni0446" unicode="&#x446;" horiz-adv-x="564" 
d="M536 -140h-39v140h-418v490h39v-452h308v452h39v-452h71v-178z" />
    <glyph glyph-name="uni0447" unicode="&#x447;" horiz-adv-x="507" 
d="M389 490h39.002v-490h-39v209c-42.667 -22 -88.334 -33 -137.001 -33c-65.333 0 -113.833 17 -145.5 51s-47.5 82.333 -47.5 145v118h39v-118c0 -49.333 11.333 -88 34 -116s63 -42 121 -42c47.333 0 92.666 11.667 135.999 35v241z" />
    <glyph glyph-name="uni0448" unicode="&#x448;" horiz-adv-x="781" 
d="M702 0h-623v490h39v-452h253v452h39v-452h253v452h39v-490z" />
    <glyph glyph-name="uni0449" unicode="&#x449;" horiz-adv-x="801" 
d="M773 -140h-39v140h-655v490h39v-452h253v452h39v-452h253v452h39v-452h71v-178z" />
    <glyph glyph-name="uni044A" unicode="&#x44a;" horiz-adv-x="551" 
d="M324 312c59.333 0 105.666 -14.1689 138.999 -42.502s50 -66.166 50 -113.499s-16.667 -85.166 -50 -113.499s-79.666 -42.5 -138.999 -42.5h-168v452h-147v38h186v-178h129zM324 37.998c44 0 79.833 9.33301 107.5 28s41.5 48.667 41.5 90s-13.833 71.333 -41.5 90
s-63.5 28 -107.5 28h-129v-236h129z" />
    <glyph glyph-name="uni044B" unicode="&#x44b;" horiz-adv-x="640" 
d="M242 312c58.667 0 104.834 -14.1689 138.501 -42.502s50.5 -66.166 50.5 -113.499s-16.833 -85.166 -50.5 -113.499s-79.834 -42.5 -138.501 -42.5h-163v490h39v-178h124zM522 -0.00195312v490h39v-490h-39zM242 37.998c44 0 79.833 9.33301 107.5 28
s41.5 48.667 41.5 90s-13.833 71.333 -41.5 90s-63.5 28 -107.5 28h-124v-236h124z" />
    <glyph glyph-name="uni044C" unicode="&#x44c;" horiz-adv-x="479" 
d="M252 312c59.333 0 105.666 -14.1689 138.999 -42.502s50 -66.166 50 -113.499s-16.667 -85.166 -50 -113.499s-79.666 -42.5 -138.999 -42.5h-173v490h39v-178h134zM252 37.998c44 0 79.833 9.33301 107.5 28s41.5 48.667 41.5 90s-13.833 71.333 -41.5 90
s-63.5 28 -107.5 28h-134v-236h134z" />
    <glyph glyph-name="uni044D" unicode="&#x44d;" horiz-adv-x="542" 
d="M380.5 466c37.667 -22.667 67.334 -53.5 89.001 -92.5s32.5 -81.833 32.5 -128.5s-10.833 -89.5 -32.5 -128.5s-51.334 -69.833 -89.001 -92.5s-79.167 -34 -124.5 -34c-48 0 -92 13.167 -132 39.5s-69.667 61.5 -89 105.5h42c18 -33.333 43.333 -59.5 76 -78.5
s67 -28.5 103 -28.5c34.667 0 67.167 8.33301 97.5 25s55.166 40 74.499 70s30.333 64.333 33 103h-247v38h247c-2.66699 38.667 -13.667 73 -33 103s-44.166 53.333 -74.499 70s-62.833 25 -97.5 25c-36 0 -70.333 -9.5 -103 -28.5s-57.667 -45.167 -75 -78.5h-43
c19.333 44 49 79.167 89 105.5s84 39.5 132 39.5c45.333 0 86.833 -11.333 124.5 -34z" />
    <glyph glyph-name="uni044E" unicode="&#x44e;" horiz-adv-x="748" 
d="M587 466.5c37.333 -22.333 66.833 -53.0039 88.5 -92.0039s32.5 -82.167 32.5 -129.5s-10.833 -90.5 -32.5 -129.5s-51.167 -69.667 -88.5 -92s-78.333 -33.5 -123 -33.5c-42.667 0 -82.167 10.333 -118.5 31s-65.666 48.834 -87.999 84.501
s-34.833 75.834 -37.5 120.501h-102v-226h-39v490h39v-226h102c2.66699 44.667 15.167 84.834 37.5 120.501s51.666 63.834 87.999 84.501s75.833 31 118.5 31c44.667 0 85.667 -11.167 123 -33.5zM567 55.9961c31.333 18.667 56.166 44.5 74.499 77.5
s27.5 70.167 27.5 111.5s-9.16699 78.5 -27.5 111.5s-43.166 58.833 -74.499 77.5s-65.666 28 -102.999 28s-71.666 -9.33301 -102.999 -28s-56.166 -44.5 -74.499 -77.5s-27.5 -70.167 -27.5 -111.5s9.16699 -78.5 27.5 -111.5s43.166 -58.833 74.499 -77.5
s65.666 -28 102.999 -28s71.666 9.33301 102.999 28z" />
    <glyph glyph-name="uni044F" unicode="&#x44f;" horiz-adv-x="495" 
d="M416 490v-490.001h-39v197h-119l-165 -197h-50l166 197c-49.333 2.66699 -87.5 17.667 -114.5 45s-40.5 61 -40.5 101c0 42.667 14.833 77.834 44.5 105.501s71.5 41.5 125.5 41.5h192zM377 234.999v217.001h-152c-39.333 0 -71 -8.83301 -95 -26.5
s-36 -45.167 -36 -82.5c0 -36.667 12 -63.834 36 -81.501s55.667 -26.5 95 -26.5h152z" />
    <glyph glyph-name="uni0451" unicode="&#x451;" horiz-adv-x="565" 
d="M408 465.5c36.667 -23 65.335 -53.333 86.002 -91s31 -77.167 31 -118.5c0 -10.667 -0.333008 -18.667 -1 -24h-444c2 -40 12.167 -75.5 30.5 -106.5s42.666 -55 72.999 -72s63.166 -25.5 98.499 -25.5c44 0 82.333 11 115 33s56.334 50 71.001 84h42
c-20 -49.333 -50.333 -87.5 -91 -114.5s-87 -40.5 -139 -40.5c-43.333 0 -83.333 11.167 -120 33.5s-65.834 53 -87.501 92s-32.5 82.167 -32.5 129.5s11 90.5 33 129.5s51.667 69.667 89 92s78 33.5 122 33.5c46 0 87.333 -11.5 124 -34.5zM187.001 438
c-29.333 -16 -53.501 -38.668 -72.501 -68.001s-30.167 -62.666 -33.5 -99.999h405c-2 32 -11.667 62.833 -29 92.5s-41 53.667 -71 72s-64 27.5 -102 27.5c-35.333 0 -67.666 -8 -96.999 -24zM228 599.999h-53v58h53v-58zM389 599.999h-53v58h53v-58z" />
    <glyph glyph-name="uni0452" unicode="&#x452;" horiz-adv-x="564" 
d="M326 -200l-0.000976562 38.002h47c24.667 0 43.834 7.16699 57.501 21.5s20.5 34.833 20.5 61.5v334c0 51.333 -12.833 93.666 -38.5 126.999s-65.834 50 -120.501 50c-30.667 0 -58.667 -7.66699 -84 -23s-45.166 -35.833 -59.499 -61.5s-21.5 -52.5 -21.5 -80.5v-267
h-39v580h-75v37h75v103h39v-103h173v-37h-173v-208c16 29.333 39.167 53 69.5 71s63.833 27 100.5 27c39.333 0 73.5 -8.83301 102.5 -26.5s51.333 -42.167 67 -73.5s23.5 -67 23.5 -107v-343c0 -36.667 -10.167 -65.834 -30.5 -87.501s-48.833 -32.5 -85.5 -32.5h-48z" />
    <glyph glyph-name="uni0453" unicode="&#x453;" horiz-adv-x="378" 
d="M118 0h-39v490h289v-38h-250v-452zM246 568h-43l76 114h50z" />
    <glyph glyph-name="uni0454" unicode="&#x454;" horiz-adv-x="543" 
d="M390.5 56.5c33 19 58.5 45.167 76.5 78.5h42c-19.333 -44.667 -49.166 -80 -89.499 -106s-84.5 -39 -132.5 -39c-45.333 0 -86.833 11.333 -124.5 34s-67.5 53.5 -89.5 92.5s-33 81.833 -33 128.5s11 89.5 33 128.5s51.833 69.833 89.5 92.5s79.167 34 124.5 34
c48 0 92.167 -13 132.5 -39s70.166 -61.333 89.499 -106h-42c-18 33.333 -43.5 59.5 -76.5 78.5s-67.5 28.5 -103.5 28.5c-35.333 0 -68.166 -8.33301 -98.499 -25s-55.166 -40.167 -74.499 -70.5s-30.333 -64.5 -33 -102.5h247v-38h-247
c2.66699 -38 13.667 -72.167 33 -102.5s44.166 -53.833 74.499 -70.5s63.166 -25 98.499 -25c36 0 70.5 9.5 103.5 28.5z" />
    <glyph glyph-name="uni0455" unicode="&#x455;" horiz-adv-x="487" 
d="M152.5 10c-27.667 13.333 -49.332 31.835 -64.999 55.502s-24.167 50.167 -25.5 79.5h39c2 -34.667 16.167 -62.834 42.5 -84.501s61.833 -32.5 106.5 -32.5c42 0 74.833 9 98.5 27s35.5 41.667 35.5 71c0 23.333 -6.33301 41.666 -19 54.999s-28.5 23.5 -47.5 30.5
s-44.5 13.833 -76.5 20.5c-35.333 7.33301 -64 15.166 -86 23.499s-40.667 21.333 -56 39s-23 41.834 -23 72.501c0 38.667 15.5 70.5 46.5 95.5s70.5 37.5 118.5 37.5c31.333 0 59.833 -6.5 85.5 -19.5s46.167 -30.833 61.5 -53.5s23.333 -48.334 24 -77.001h-39
c-1.33301 31.333 -14 57.833 -38 79.5s-55.333 32.5 -94 32.5c-36 0 -65.833 -8.33301 -89.5 -25s-35.5 -40 -35.5 -70c0 -21.333 6.16699 -38.333 18.5 -51s27.666 -22.167 45.999 -28.5s43.166 -13.166 74.499 -20.499c36 -8 65.333 -16.333 88 -25
s41.834 -22.167 57.501 -40.5s23.5 -43.5 23.5 -75.5c0 -42 -16.5 -75.167 -49.5 -99.5s-75.167 -36.5 -126.5 -36.5c-36 0 -67.833 6.66699 -95.5 20z" />
    <glyph glyph-name="uni0456" unicode="&#x456;" horiz-adv-x="197" 
d="M118 0h-39v490h39v-490zM124 600h-53v58h53v-58z" />
    <glyph glyph-name="uni0457" unicode="&#x457;" horiz-adv-x="197" 
d="M118 0h-39v490h39v-490zM69 600h-53v58h53v-58zM180 600h-53v58h53v-58z" />
    <glyph glyph-name="uni0458" unicode="&#x458;" horiz-adv-x="197" 
d="M-46 -200l-0.000976562 38.001h47c24.667 0 43.834 7.16699 57.501 21.5s20.5 34.833 20.5 61.5v569h39v-570c0 -36.667 -10.167 -65.834 -30.5 -87.501s-48.833 -32.5 -85.5 -32.5h-48zM123.999 600.001h-53v58h53v-58z" />
    <glyph glyph-name="uni0459" unicode="&#x459;" horiz-adv-x="767" 
d="M558 302c54.667 0 98.5 -14 131.5 -42s49.5 -64.333 49.5 -109s-16.5 -81 -49.5 -109s-76.833 -42 -131.5 -42h-166v452h-208l-22 -291c-4.66699 -57.333 -17.667 -99.333 -39 -126s-51 -40 -89 -40h-14v40h14c53.333 0 83 42 89 126l25 329h283v-188h127zM558 38
c40 0 73.5 9.16699 100.5 27.5s40.5 46.833 40.5 85.5s-13.5 67.167 -40.5 85.5s-60.5 27.5 -100.5 27.5h-127v-226h127z" />
    <glyph glyph-name="uni045A" unicode="&#x45a;" horiz-adv-x="783" 
d="M580 292c55.333 0 98.333 -13.833 129 -41.5s46 -62.5 46 -104.5s-15.333 -76.833 -46 -104.5s-73.667 -41.5 -129 -41.5h-172v254h-290v-254h-39v490h39v-198h290v198h39v-198h133zM580 38c40 0 72.5 9 97.5 27s37.5 45 37.5 81s-12.5 63 -37.5 81s-57.5 27 -97.5 27
h-133v-216h133z" />
    <glyph glyph-name="uni045B" unicode="&#x45b;" horiz-adv-x="564" 
d="M399.5 443.5c29 -17.667 51.333 -42.166 67 -73.499s23.5 -67 23.5 -107v-263h-39v255c0 51.333 -12.833 93.666 -38.5 126.999s-65.834 50 -120.501 50c-30.667 0 -58.667 -7.66699 -84 -23s-45.166 -35.833 -59.499 -61.5s-21.5 -52.5 -21.5 -80.5v-267h-39v580h-75v37
h75v103h39v-103h173v-37h-173v-208c16 29.333 39 53 69 71s63.667 27 101 27c39.333 0 73.5 -8.83301 102.5 -26.5z" />
    <glyph glyph-name="uni045C" unicode="&#x45c;" horiz-adv-x="436" 
d="M159 247l268 -247h-55l-254 235v-235h-39v490h39v-233l243 233h53zM245 568h-43l76 114h50z" />
    <glyph glyph-name="uni045E" unicode="&#x45e;" horiz-adv-x="486" 
d="M252 80l182 410h42l-308 -690h-43l105 235l-225 455h44zM158 591.5c-22 21 -34.3311 49.167 -36.998 84.5h38c2.66699 -26.667 11.667 -47.167 27 -61.5s34.666 -21.5 57.999 -21.5s42.666 7.16699 57.999 21.5s24.333 34.833 27 61.5h38
c-2.66699 -35.333 -15 -63.5 -37 -84.5s-50.667 -31.5 -86 -31.5s-64 10.5 -86 31.5z" />
    <glyph glyph-name="uni045F" unicode="&#x45f;" horiz-adv-x="544" 
d="M291 -140h-39v140h-173v490h39v-452h308v452h39v-490h-174v-140z" />
    <glyph glyph-name="uni0490" unicode="&#x490;" horiz-adv-x="455" 
d="M139 0h-40v700h297v152h40v-191h-297v-661z" />
    <glyph glyph-name="uni0491" unicode="&#x491;" horiz-adv-x="378" 
d="M118 0h-39v490h250v137h39v-175h-250v-452z" />
    <glyph glyph-name="Wgrave" unicode="&#x1e80;" horiz-adv-x="951" 
d="M685 80l196 620h41l-223 -700h-28l-196 614l-195 -614h-29l-222 700h42l195 -620l197 620h26zM504 772h-43l-83 115h51z" />
    <glyph glyph-name="wgrave" unicode="&#x1e81;" horiz-adv-x="774" 
d="M561 68l162 422h41l-192 -490h-25l-160 420l-160 -420h-24l-193 490h42l162 -422l161 422h24zM415 568h-43l-83 114h51z" />
    <glyph glyph-name="Wacute" unicode="&#x1e82;" horiz-adv-x="951" 
d="M685 80l196 620h41l-223 -700h-28l-196 614l-195 -614h-29l-222 700h42l195 -620l197 620h26zM485 772h-43l76 115h50z" />
    <glyph glyph-name="wacute" unicode="&#x1e83;" horiz-adv-x="774" 
d="M561 68l162 422h41l-192 -490h-25l-160 420l-160 -420h-24l-193 490h42l162 -422l161 422h24zM396 568h-43l76 114h50z" />
    <glyph glyph-name="Wdieresis" unicode="&#x1e84;" horiz-adv-x="951" 
d="M685 80l196 620h41l-223 -700h-28l-196 614l-195 -614h-29l-222 700h42l195 -620l197 620h26zM417 804h-53v59h53v-59zM586 804h-53v59h53v-59z" />
    <glyph glyph-name="wdieresis" unicode="&#x1e85;" horiz-adv-x="774" 
d="M561 68l162 422h41l-192 -490h-25l-160 420l-160 -420h-24l-193 490h42l162 -422l161 422h24zM333 600h-53v58h53v-58zM494 600h-53v58h53v-58z" />
    <glyph glyph-name="uni1E9E" unicode="&#x1e9e;" horiz-adv-x="644" 
d="M371 412c42.667 0 80.335 -9.33203 113.002 -27.999s58 -43.834 76 -75.501s27 -65.834 27 -102.501c0 -37.333 -9.16699 -71.666 -27.5 -102.999s-44 -56.333 -77 -75s-70.833 -28 -113.5 -28h-63v39h63c35.333 0 66.5 7.5 93.5 22.5s47.833 35.167 62.5 60.5
s22 53.333 22 84s-7.33301 58.667 -22 84s-35.5 45.5 -62.5 60.5s-58.167 22.5 -93.5 22.5h-63v26l176 262h-193c-46.667 0 -83.334 -14.333 -110.001 -43s-40 -68.667 -40 -120v-498h-40v502c0 39.333 8.16699 74 24.5 104s38.666 53.167 66.999 69.5
s59.833 24.5 94.5 24.5h247v-31l-173 -257h12z" />
    <glyph glyph-name="Ygrave" unicode="&#x1ef2;" horiz-adv-x="526" 
d="M264 357l198 343h45l-224 -384v-316h-40v316l-224 384h46zM291 772h-43l-83 115h51z" />
    <glyph glyph-name="ygrave" unicode="&#x1ef3;" horiz-adv-x="486" 
d="M252 80l182 410h42l-308 -690h-43l105 235l-225 455h44zM272 568h-43l-83 114h51z" />
    <glyph glyph-name="endash" unicode="&#x2013;" horiz-adv-x="600" 
d="M546 235h-492v37h492v-37z" />
    <glyph glyph-name="emdash" unicode="&#x2014;" horiz-adv-x="1000" 
d="M946 235h-892v37h892v-37z" />
    <glyph glyph-name="quoteleft" unicode="&#x2018;" horiz-adv-x="184" 
d="M93 512h-50l62 188h36z" />
    <glyph glyph-name="quoteright" unicode="&#x2019;" horiz-adv-x="184" 
d="M79 512h-36l48 188h50z" />
    <glyph glyph-name="quotesinglbase" unicode="&#x201a;" horiz-adv-x="184" 
d="M79 -133h-36l48 188h50z" />
    <glyph glyph-name="quotedblleft" unicode="&#x201c;" horiz-adv-x="318" 
d="M93 512h-50l62 188h36zM227 512h-50l62 188h36z" />
    <glyph glyph-name="quotedblright" unicode="&#x201d;" horiz-adv-x="318" 
d="M79 512h-36l48 188h50zM213 512h-36l48 188h50z" />
    <glyph glyph-name="quotedblbase" unicode="&#x201e;" horiz-adv-x="318" 
d="M79 -133h-36l48 188h50zM213 -133h-36l48 188h50z" />
    <glyph glyph-name="dagger" unicode="&#x2020;" horiz-adv-x="441" 
d="M240 514h147v-38h-147v-476h-39v476h-147v38h147v186h39v-186z" />
    <glyph glyph-name="daggerdbl" unicode="&#x2021;" horiz-adv-x="441" 
d="M387 514v-38h-147v-252h147v-38h-147v-186h-39v186h-147v38h147v252h-147v38h147v186h39v-186h147z" />
    <glyph glyph-name="bullet" unicode="&#x2022;" horiz-adv-x="368" 
d="M130.5 200.5c-15 15 -22.5 32.833 -22.5 53.5s7.66699 38.5 23 53.5s33.333 22.5 54 22.5s38.334 -7.5 53.001 -22.5s22 -32.833 22 -53.5s-7.33301 -38.5 -22 -53.5s-32.334 -22.5 -53.001 -22.5c-21.333 0 -39.5 7.5 -54.5 22.5z" />
    <glyph glyph-name="ellipsis" unicode="&#x2026;" horiz-adv-x="642" 
d="M129 0h-50v55h50v-55zM346 0h-50v55h50v-55zM563 0h-50v55h50v-55z" />
    </font>
</defs>
</svg>
