<?xml version="1.0" standalone="no"?>
<!DOCTYPE svg PUBLIC "-//W3C//DTD SVG 1.1//EN" "http://www.w3.org/Graphics/SVG/1.1/DTD/svg11.dtd" >
<svg>
<metadata>
Created by FontForge 20090914 at Sat Aug  6 12:07:26 2022
 By www-data
Copyright (c) 2018 by Typetype. Designer Ivan Gladkikh, technical designers Philipp Nurullin, Vika Usmanova, Nadyr Rakhimov, Marina Khodak. All rights reserved. |DCNT
</metadata>
<defs>
<font id="TTFirsNeue-Light" horiz-adv-x="600" >
  <font-face 
    font-family="TT Firs Neue Light"
    font-weight="300"
    font-stretch="normal"
    units-per-em="1000"
    panose-1="2 0 5 3 3 0 0 2 0 4"
    ascent="800"
    descent="-200"
    x-height="500"
    cap-height="700"
    bbox="-435 -280.001 1438 1030"
    underline-thickness="50"
    underline-position="-200"
    unicode-range="U+000D-U+FB02"
  />
<missing-glyph horiz-adv-x="0" 
 />
    <glyph glyph-name="ff" unicode="ff" horiz-adv-x="605" 
d="M25 445v55h70v200h225v-55h-165v-145h245v200h225v-55h-165v-145h135v-55h-135v-445h-60v445h-245v-445h-60v445h-70z" />
    <glyph glyph-name="fi" unicode="fi" horiz-adv-x="540" 
d="M25 445v55h70v200h335v-55h-275v-145h305v-500h-60v445h-245v-445h-60v445h-70z" />
    <glyph glyph-name="fl" unicode="fl" horiz-adv-x="590" 
d="M25 445v55h70v200h365v-645h115v-55h-175v645h-245v-145h135v-55h-135v-445h-60v445h-70z" />
    <glyph glyph-name="f_j" unicode="fj" horiz-adv-x="540" 
d="M25 445v55h70v200h335v-55h-275v-145h305v-690h-205v55h145v580h-245v-445h-60v445h-70z" />
    <glyph glyph-name="f_t" unicode="ft" horiz-adv-x="660" 
d="M25 445v55h70v200h365v-200h165v-55h-165v-390h170v-55h-230v445h-245v-445h-60v445h-70zM155 500h245v145h-245v-145z" />
    <glyph glyph-name=".notdef" horiz-adv-x="0" 
 />
    <glyph glyph-name=".null" horiz-adv-x="0" 
 />
    <glyph glyph-name=".null" horiz-adv-x="0" 
 />
    <glyph glyph-name="CR" unicode="&#xd;" horiz-adv-x="0" 
 />
    <glyph glyph-name="space" unicode=" " horiz-adv-x="280" 
 />
    <glyph glyph-name="exclam" unicode="!" horiz-adv-x="280" 
d="M110 335v365h60v-365l-10 -135h-40zM90 35c0 15.333 4.5 27.5 13.5 36.5s21.167 13.5 36.5 13.5s27.5 -4.5 36.5 -13.5s13.5 -21.167 13.5 -36.5s-4.5 -27.5 -13.5 -36.5s-21.167 -13.5 -36.5 -13.5s-27.5 4.66699 -36.5 14s-13.5 21.333 -13.5 36z" />
    <glyph glyph-name="quotedbl" unicode="&#x22;" horiz-adv-x="355" 
d="M70 570v130h60v-130l-10 -115h-40zM225 570v130h60v-130l-10 -115h-40z" />
    <glyph glyph-name="numbersign" unicode="#" horiz-adv-x="660" 
d="M30 205v50h125l55 190h-120v50h135l60 205h60l-60 -205h175l60 205h60l-60 -205h110v-50h-125l-55 -190h120v-50h-135l-60 -205h-60l60 205h-175l-60 -205h-60l60 205h-110zM215 255h175l55 190h-175z" />
    <glyph glyph-name="dollar" unicode="$" horiz-adv-x="635" 
d="M45 185l64.9971 -0.00195312c9.33301 -28 23.333 -52.333 42 -73c42.667 -48 100.334 -72 173.001 -72c62.667 0 110.834 13.333 144.501 40s50.5 60 50.5 100c0 10.667 -1.16699 20.334 -3.5 29.001s-6.5 17 -12.5 25s-11.5 14.833 -16.5 20.5s-13.167 11.667 -24.5 18
l-26.5 14.5c-6.33301 3.33301 -17.166 7.83301 -32.499 13.5s-26.333 9.5 -33 11.5l-37 11.5l-36 11.5c-26.667 7.33301 -49 14.333 -67 21s-37.667 15.5 -59 26.5s-38.5 22.833 -51.5 35.5s-23.833 28.667 -32.5 48s-13 40.666 -13 63.999c0 48.667 19.5 91 58.5 127
s91.167 56.667 156.5 62v91h65v-92c81.333 -9.33301 143 -42.333 185 -99c18.667 -24.667 32 -52.667 40 -84h-65c-7.33301 23.333 -19.333 44 -36 62c-39.333 42 -94 63 -164 63c-55.333 0 -98.333 -12.5 -129 -37.5s-46 -55.833 -46 -92.5c0 -46 31 -82.333 93 -109
c20.667 -9.33301 64 -23.666 130 -42.999c27.333 -8.66699 49.5 -16.167 66.5 -22.5s36.5 -15.333 58.5 -27s39.167 -23.834 51.5 -36.501s23 -28.667 32 -48s13.5 -40.666 13.5 -63.999c0 -52 -20.667 -96.833 -62 -134.5s-97.333 -59.167 -168 -64.5v-91h-65v92
c-86.667 6.66699 -153.667 42.667 -201 108c-20 26.667 -34.667 58.334 -44 95.001z" />
    <glyph glyph-name="percent" unicode="%" horiz-adv-x="765" 
d="M40 545c0 45.333 16.167 84.166 48.5 116.499s71.166 48.5 116.499 48.5s84.166 -16.167 116.499 -48.5s48.5 -71.166 48.5 -116.499s-16.167 -84.166 -48.5 -116.499s-71.166 -48.5 -116.499 -48.5s-84.166 16.167 -116.499 48.5s-48.5 71.166 -48.5 116.499zM140 0
l420 700h65l-420 -700h-65zM100 545c0 -32 10 -58.333 30 -79s45 -31 75 -31s55 10.333 75 31s30 47 30 79s-10 58.333 -30 79s-45 31 -75 31s-55 -10.333 -75 -31s-30 -47 -30 -79zM395 155c0 45.333 16.167 84.166 48.5 116.499s71.166 48.5 116.499 48.5
s84.166 -16.167 116.499 -48.5s48.5 -71.166 48.5 -116.499s-16.167 -84.166 -48.5 -116.499s-71.166 -48.5 -116.499 -48.5s-84.166 16.167 -116.499 48.5s-48.5 71.166 -48.5 116.499zM455 155c0 -32 10 -58.333 30 -79s45 -31 75 -31s55 10.333 75 31s30 47 30 79
s-10 58.333 -30 79s-45 31 -75 31s-55 -10.333 -75 -31s-30 -47 -30 -79z" />
    <glyph glyph-name="ampersand" unicode="&#x26;" horiz-adv-x="700" 
d="M25 230c0 70 23.833 129.165 71.5 177.498s105.5 72.5 173.5 72.5c16 0 32.667 -2.66699 50 -8c2 -1.33301 8.66699 -3.66602 20 -6.99902v1l-6 9l-109 165v60h390v-60h-315v-1l420 -639h-75l-128 195l-6 10h-1c0 -63.333 -22.333 -116.666 -67 -159.999
s-100.667 -65 -168 -65c-70 0 -129.167 24.167 -177.5 72.5s-72.5 107.5 -72.5 177.5zM95 229.998c0 -54.667 17.333 -100 52 -136s77.334 -54 128.001 -54s93.334 18 128.001 54s52 81.333 52 136s-17.333 100 -52 136s-77.334 54 -128.001 54s-93.334 -18 -128.001 -54
s-52 -81.333 -52 -136z" />
    <glyph glyph-name="quotesingle" unicode="'" horiz-adv-x="200" 
d="M70 570v130h60v-130l-10 -115h-40z" />
    <glyph glyph-name="parenleft" unicode="(" horiz-adv-x="365" 
d="M80 290c0 129.333 39 244.998 117 346.998c34.667 46 74 85.333 118 118l35 -45c-37.333 -29.333 -71.666 -65.666 -102.999 -108.999c-68 -96 -102 -199.667 -102 -311c0 -109.333 34 -213 102 -311c31.333 -43.333 65.666 -79.666 102.999 -108.999l-35 -45
c-44 32.667 -83.333 72 -118 118c-78 102 -117 217.667 -117 347z" />
    <glyph glyph-name="parenright" unicode=")" horiz-adv-x="365" 
d="M117 -21c68.667 98.667 103 202.33 103 310.997c0 110.667 -34.333 214.334 -103 311.001c-31.333 42.667 -65.333 79 -102 109l35 45c43.333 -33.333 82.333 -72.666 117 -117.999c78.667 -104 118 -219.667 118 -347s-39.333 -243 -118 -347
c-34.667 -45.333 -73.667 -84.666 -117 -117.999l-35 45c36.667 30 70.667 66.333 102 109z" />
    <glyph glyph-name="asterisk" unicode="*" horiz-adv-x="360" 
d="M35 530v50h120v120h50v-120h120v-50h-105l70 -105l-45 -25l-65 105l-65 -105l-45 25l70 105h-105z" />
    <glyph glyph-name="plus" unicode="+" horiz-adv-x="500" 
d="M55 280v55h165v175h60v-175h165v-55h-165v-175h-60v175h-165z" />
    <glyph glyph-name="comma" unicode="," horiz-adv-x="195" 
d="M45 30c0 15.333 4.50098 27.5 13.501 36.5s21.167 13.5 36.5 13.5c16.667 0 30 -6.66699 40 -20s15 -33.333 15 -60c0 -68 -33.333 -108 -100 -120v30c40 10 60 31.667 60 65c0 1.33301 -1 6 -3 14l-2 6l-6 -3c-6.66699 -1.33301 -11.334 -2 -14.001 -2
c-10 0 -19.167 4.16699 -27.5 12.5s-12.5 17.5 -12.5 27.5z" />
    <glyph glyph-name="hyphen" unicode="-" horiz-adv-x="480" 
d="M60 250v60h360v-60h-360z" />
    <glyph glyph-name="period" unicode="." horiz-adv-x="190" 
d="M45 35c0 15.333 4.5 27.5 13.5 36.5s21.167 13.5 36.5 13.5s27.5 -4.5 36.5 -13.5s13.5 -21.167 13.5 -36.5s-4.5 -27.5 -13.5 -36.5s-21.167 -13.5 -36.5 -13.5s-27.5 4.66699 -36.5 14s-13.5 21.333 -13.5 36z" />
    <glyph glyph-name="slash" unicode="/" horiz-adv-x="350" 
d="M5 0l275 700h65l-275 -700h-65z" />
    <glyph glyph-name="zero" unicode="0" horiz-adv-x="740" 
d="M60 350c0 111.333 29.667 200.833 89 268.5s133 101.5 221 101.5s161.667 -33.833 221 -101.5s89 -157.167 89 -268.5s-29.667 -200.833 -89 -268.5s-133 -101.5 -221 -101.5s-161.667 33.833 -221 101.5s-89 157.167 -89 268.5zM125 350
c0 -96.667 23.167 -172.5 69.5 -227.5s104.833 -82.5 175.5 -82.5s129.167 27.5 175.5 82.5s69.5 130.833 69.5 227.5s-23.167 172.5 -69.5 227.5s-104.833 82.5 -175.5 82.5s-129.167 -27.5 -175.5 -82.5s-69.5 -130.833 -69.5 -227.5z" />
    <glyph glyph-name="one" unicode="1" horiz-adv-x="310" 
d="M25 525v70l135 105h60v-700h-65v625z" />
    <glyph glyph-name="two" unicode="2" horiz-adv-x="570" 
d="M30 0v60.001l215 165c80 61.333 135 110.666 165 147.999s45 79.666 45 126.999c0 46 -16.167 84.167 -48.5 114.5s-74.5 45.5 -126.5 45.5c-62.667 0 -109.667 -26 -141 -78c-14.667 -24 -24.334 -49.667 -29.001 -77h-70c4.66699 38 17 73.667 37 107
c43.333 72 111 108 203 108c68.667 0 125.834 -21.5 171.501 -64.5s68.5 -94.833 68.5 -155.5c0 -55.333 -18.5 -107.166 -55.5 -155.499s-91.833 -99.833 -164.5 -154.5l-160 -121l-10 -7v-3l10 1h380v-60h-490z" />
    <glyph glyph-name="three" unicode="3" horiz-adv-x="590" 
d="M25 180l64.998 -0.000976562c6.66699 -25.333 18.667 -48.666 36 -69.999c38.667 -46.667 93.334 -70 164.001 -70c56.667 0 101.667 15.167 135 45.5s50 68.5 50 114.5s-16.667 84.167 -50 114.5s-78.333 45.5 -135 45.5h-125v60l250 219v1h-355v60h445v-60l-240 -210
l-10 -8v-2h35c73.333 0 133.333 -21.333 180 -64s70 -94.667 70 -156s-23.333 -113.333 -70 -156s-106.667 -64 -180 -64c-96.667 0 -169.667 33.333 -219 100c-21.333 28 -36.666 61.333 -45.999 100z" />
    <glyph glyph-name="four" unicode="4" horiz-adv-x="585" 
d="M30 160v60l250 480h70l-250 -480h305v190h5h60v-190h105v-60h-105v-160h-65v160h-375z" />
    <glyph glyph-name="five" unicode="5" horiz-adv-x="615" 
d="M60 180l64.999 0.000976562c6.66699 -24 19 -47.333 37 -70c38.667 -46.667 91.334 -70 158.001 -70c54 0 98.333 17 133 51s52 77 52 129s-17.333 95 -52 129s-79 51 -133 51c-50 0 -93.333 -14.333 -130 -43c-16.667 -11.333 -30 -25.333 -40 -42h-60l30 385h405v-60
h-350l-20 -239v-1c12 12 25.667 22 41 30c36 20 77.333 30 124 30c72 0 131.667 -23 179 -69s71 -103 71 -171s-23.667 -125 -71 -171s-107 -69 -179 -69c-93.333 0 -164.333 33.333 -213 100c-22 29.333 -37.667 62.666 -47 99.999z" />
    <glyph glyph-name="six" unicode="6" horiz-adv-x="605" 
d="M40 225c0 11.333 0.5 21.999 1.5 31.999s3.16699 20.333 6.5 31s5.66602 19.5 6.99902 26.5s5.5 16.167 12.5 27.5s11.5 19.166 13.5 23.499s7.83301 13 17.5 26l17.5 23.5c2 2.66699 9.33301 11.834 22 27.501s20 24.834 22 27.501l180 230h75l-185 -234l-4 -5l-1 -1
l20 5c16.667 3.33301 38.334 5 65.001 5c70 0 129.167 -23.833 177.5 -71.5s72.5 -105.5 72.5 -173.5s-24.833 -125.833 -74.5 -173.5s-111.5 -71.5 -185.5 -71.5s-135.833 23.833 -185.5 71.5s-74.5 105.5 -74.5 173.5zM105 224.999c0 -52.667 18.333 -96.667 55 -132
s83.334 -53 140.001 -53s103.334 17.667 140.001 53s55 79.333 55 132s-18.333 96.667 -55 132s-83.334 53 -140.001 53s-103.334 -17.667 -140.001 -53s-55 -79.333 -55 -132z" />
    <glyph glyph-name="seven" unicode="7" horiz-adv-x="485" 
d="M10 640v60h455v-60l-295 -640h-70l295 639v1h-385z" />
    <glyph glyph-name="eight" unicode="8" horiz-adv-x="640" 
d="M50 190c0 27.333 5.16699 52.502 15.5 75.502s21.666 40.5 33.999 52.5s27.333 23 45 33s29.5 16 35.5 18s12.333 4 19 6v1c-2 0 -6.66699 1.5 -14 4.5s-17.166 8.33301 -29.499 16s-24 17.167 -35 28.5s-20.5 26.666 -28.5 45.999s-12 40.666 -12 63.999
c0 50 22.167 93.333 66.5 130s102.166 55 173.499 55s129.166 -18.333 173.499 -55s66.5 -80 66.5 -130c0 -53.333 -20 -95.333 -60 -126c-17.333 -14 -37.333 -25 -60 -33v-1c28 -8 53 -20 75 -36c50 -38 75 -87.667 75 -149c0 -57.333 -24.667 -106.666 -74 -147.999
s-114.666 -62 -195.999 -62s-146.666 20.667 -195.999 62s-74 90.666 -74 147.999zM145 535.002c0 -35.333 15.5 -66.666 46.5 -93.999s73.833 -41 128.5 -41s97.5 13.667 128.5 41s46.5 58.666 46.5 93.999c0 34.667 -15.333 64.167 -46 88.5s-73.667 36.5 -129 36.5
s-98.333 -12.167 -129 -36.5s-46 -53.833 -46 -88.5zM115 190.002c0 -42.667 18 -78.334 54 -107.001s86.333 -43 151 -43s115 14.333 151 43s54 64.334 54 107.001s-18 78.334 -54 107.001s-86.333 43 -151 43s-115 -14.333 -151 -43s-54 -64.334 -54 -107.001z" />
    <glyph glyph-name="nine" unicode="9" horiz-adv-x="605" 
d="M45 475c0 68 24.833 125.835 74.5 173.502s111.5 71.5 185.5 71.5s135.833 -23.833 185.5 -71.5s74.5 -105.5 74.5 -173.5c0 -11.333 -0.5 -22 -1.5 -32s-3.16699 -20.333 -6.5 -31s-5.66602 -19.5 -6.99902 -26.5s-5.5 -16.167 -12.5 -27.5s-11.5 -19.166 -13.5 -23.499
s-7.83301 -13 -17.5 -26l-17.5 -23.5c-2 -2.66699 -9.33301 -11.834 -22 -27.501s-20 -24.834 -22 -27.501l-180 -230h-75l185 234l4 5l1 1c-6 -2.66699 -12.667 -4.33398 -20 -5.00098c-16.667 -3.33301 -38.334 -5 -65.001 -5c-70 0 -129.167 23.833 -177.5 71.5
s-72.5 105.5 -72.5 173.5zM110 475.002c0 -52.667 18.333 -96.667 55 -132s83.334 -53 140.001 -53s103.334 17.667 140.001 53s55 79.333 55 132s-18.333 96.667 -55 132s-83.334 53 -140.001 53s-103.334 -17.667 -140.001 -53s-55 -79.333 -55 -132z" />
    <glyph glyph-name="colon" unicode=":" horiz-adv-x="190" 
d="M45 462c0 15.333 4.5 27.5 13.5 36.5s21.167 13.5 36.5 13.5s27.5 -4.5 36.5 -13.5s13.5 -21.167 13.5 -36.5s-4.5 -27.5 -13.5 -36.5s-21.167 -13.5 -36.5 -13.5s-27.5 4.66699 -36.5 14s-13.5 21.333 -13.5 36zM45 35c0 15.333 4.5 27.5 13.5 36.5
s21.167 13.5 36.5 13.5s27.5 -4.5 36.5 -13.5s13.5 -21.167 13.5 -36.5s-4.5 -27.5 -13.5 -36.5s-21.167 -13.5 -36.5 -13.5s-27.5 4.66699 -36.5 14s-13.5 21.333 -13.5 36z" />
    <glyph glyph-name="semicolon" unicode=";" horiz-adv-x="190" 
d="M45 30c0 15.333 4.50098 27.5 13.501 36.5s21.167 13.5 36.5 13.5c16.667 0 30 -6.66699 40 -20s15 -33.333 15 -60c0 -68 -33.333 -108 -100 -120v30c40 10 60 31.667 60 65c0 1.33301 -1 6 -3 14l-2 6l-6 -3c-6.66699 -1.33301 -11.334 -2 -14.001 -2
c-10 0 -19.167 4.16699 -27.5 12.5s-12.5 17.5 -12.5 27.5zM45.001 462c0 15.333 4.5 27.5 13.5 36.5s21.167 13.5 36.5 13.5s27.5 -4.5 36.5 -13.5s13.5 -21.167 13.5 -36.5s-4.5 -27.5 -13.5 -36.5s-21.167 -13.5 -36.5 -13.5s-27.5 4.66699 -36.5 14
s-13.5 21.333 -13.5 36z" />
    <glyph glyph-name="less" unicode="&#x3c;" horiz-adv-x="500" 
d="M55 215v70l380 200v-60l-320 -170v-10l320 -170v-60z" />
    <glyph glyph-name="equal" unicode="=" horiz-adv-x="500" 
d="M65 330v55h370v-55h-370zM65 145v55h370v-55h-370z" />
    <glyph glyph-name="greater" unicode="&#x3e;" horiz-adv-x="500" 
d="M65 15v60l320 170v10l-320 170v60l380 -200v-70z" />
    <glyph glyph-name="question" unicode="?" horiz-adv-x="525" 
d="M80 520h-64.998c8.66699 36.667 24 70 46 100c46 66.667 114 100 204 100c66 0 120 -19 162 -57s63 -84 63 -138c0 -40.667 -9.5 -73.5 -28.5 -98.5s-45.167 -48.5 -78.5 -70.5c-34.667 -22 -61.334 -44.667 -80.001 -68s-28 -54.333 -28 -93h-65
c0 44.667 9.66699 81.167 29 109.5s45.666 53.166 78.999 74.499c18 12 31.5 21.333 40.5 28s19.667 16.167 32 28.5s21.166 25.833 26.499 40.5s8 31 8 49c0 38.667 -14.5 70.834 -43.5 96.501s-67.833 38.5 -116.5 38.5c-64.667 0 -115 -23.333 -151 -70
c-15.333 -20.667 -26.666 -44 -33.999 -70zM195.002 35c0 15.333 4.5 27.5 13.5 36.5s21.167 13.5 36.5 13.5s27.5 -4.5 36.5 -13.5s13.5 -21.167 13.5 -36.5s-4.5 -27.5 -13.5 -36.5s-21.167 -13.5 -36.5 -13.5s-27.5 4.66699 -36.5 14s-13.5 21.333 -13.5 36z" />
    <glyph glyph-name="at" unicode="@" horiz-adv-x="815" 
d="M50 320c0 105.333 36.166 194.165 108.499 266.498s161.166 108.5 266.499 108.5c101.333 0 185 -30.5 251 -91.5s99 -130.5 99 -208.5c0 -71.333 -22.5 -127.5 -67.5 -168.5s-110.5 -61.5 -196.5 -61.5h-1v50h-1c-1.33301 -1.33301 -3.33301 -4.66602 -6 -9.99902
c-20.667 -33.333 -55 -50 -103 -50c-40 0 -75 15.833 -105 47.5s-45 70.834 -45 117.501s14.833 85.834 44.5 117.501s64.834 47.5 105.501 47.5c52.667 0 89 -20 109 -60h1v50h60v-255c44 0 79.167 15 105.5 45s39.5 73.333 39.5 130c0 66 -26.667 123.333 -80 172
s-123.333 73 -210 73c-90.667 0 -166.667 -30.333 -228 -91s-92 -137 -92 -229c0 -94 30.167 -170.833 90.5 -230.5s136.833 -89.5 229.5 -89.5c49.333 0 95 8.33301 137 25c16.667 6 34.334 14.333 53.001 25v-55c-18.667 -10.667 -36.334 -19 -53.001 -25
c-42 -16.667 -87.667 -25 -137 -25c-107.333 0 -196.666 35.667 -267.999 107s-107 160.666 -107 267.999zM309.999 319.999c0 -32 9.5 -58.333 28.5 -79s42.833 -31 71.5 -31s52.5 10.333 71.5 31s28.5 47 28.5 79s-9.5 58.333 -28.5 79s-42.833 31 -71.5 31
s-52.5 -10.333 -71.5 -31s-28.5 -47 -28.5 -79z" />
    <glyph glyph-name="A" unicode="A" horiz-adv-x="670" 
d="M25 0l185 700h250l185 -700h-65l-60 230h-370l-60 -230h-65zM165 290h340l-95 350h-150z" />
    <glyph glyph-name="B" unicode="B" horiz-adv-x="700" 
d="M90 0v700.002h325c59.333 0 107.5 -17.5 144.5 -52.5s55.5 -79.167 55.5 -132.5c0 -48 -16 -87.333 -48 -118c-14.667 -13.333 -30.334 -24 -47.001 -32v-5c22.667 -6.66699 43.334 -17.334 62.001 -32.001c42 -32.667 63 -77 63 -133
c0 -56.667 -20.667 -103.334 -62 -140.001s-97.333 -55 -168 -55h-325zM155 390.002h260c42 0 75 11.333 99 34s36 53 36 91s-12 68.333 -36 91s-57 34 -99 34h-260v-250zM155 60.002l260 0.00195312c54 0 95 12.167 123 36.5s42 57.166 42 98.499s-14 74.166 -42 98.499
s-69 36.5 -123 36.5h-260v-270z" />
    <glyph glyph-name="C" unicode="C" horiz-adv-x="800" 
d="M50 350c0 106.667 34.334 195.001 103.001 265.001s154.334 105 257.001 105c112 0 203 -41.667 273 -125c30 -36.667 52.333 -78.334 67 -125.001h-65c-13.333 35.333 -32.333 67 -57 95c-56.667 63.333 -129.334 95 -218.001 95c-86 0 -156.667 -28.667 -212 -86
s-83 -132 -83 -224s27.667 -166.667 83 -224s126 -86 212 -86c90.667 0 164.667 34 222 102c24.667 29.333 44 63.666 58 102.999h65c-14.667 -49.333 -37.667 -93.666 -69 -132.999c-69.333 -88 -161.333 -132 -276 -132c-102.667 0 -188.334 35 -257.001 105
s-103 158.333 -103 265z" />
    <glyph glyph-name="D" unicode="D" horiz-adv-x="720" 
d="M90 0v700h220c104.667 0 190.834 -33.167 258.501 -99.5s101.5 -149.833 101.5 -250.5s-33.833 -184.167 -101.5 -250.5s-153.834 -99.5 -258.501 -99.5h-220zM155 60h155c87.333 0 158.333 27 213 81s82 123.667 82 209s-27.333 155 -82 209s-125.667 81 -213 81h-155
v-580z" />
    <glyph glyph-name="E" unicode="E" horiz-adv-x="610" 
d="M90 0v700h475v-60h-410v-255h335v-60h-335v-265h410v-60h-475z" />
    <glyph glyph-name="F" unicode="F" horiz-adv-x="580" 
d="M90 0v700h465v-60h-400v-275h320v-60h-320v-305h-65z" />
    <glyph glyph-name="G" unicode="G" horiz-adv-x="860" 
d="M50 350c0 106.667 34.335 195 103.002 265s154.334 105 257.001 105c113.333 0 203.666 -41 270.999 -123c30 -36 53 -76.667 69 -122h-65c-15.333 35.333 -35 66 -59 92c-58 62 -130 93 -216 93s-156.667 -28.667 -212 -86s-83 -132 -83 -224s27.667 -166.667 83 -224
s126 -86 212 -86c76 0 140.5 24.833 193.5 74.5s83.5 111.5 91.5 185.5h-140v60h295v-60h-90c-14.667 -96 -53.334 -173.333 -116.001 -232s-140.667 -88 -234 -88c-102.667 0 -188.334 35 -257.001 105s-103 158.333 -103 265z" />
    <glyph glyph-name="H" unicode="H" horiz-adv-x="715" 
d="M90 0v700h65v-315h405v315h65v-700h-65v325h-405v-325h-65z" />
    <glyph glyph-name="I" unicode="I" horiz-adv-x="245" 
d="M90 0v700h65v-700h-65z" />
    <glyph glyph-name="J" unicode="J" horiz-adv-x="550" 
d="M0 155l65.001 15.001c7.33301 -25.333 18 -47 32 -65c32.667 -43.333 78.667 -65 138 -65c50.667 0 90.834 15.667 120.501 47s44.5 75.666 44.5 132.999v480h65v-480c0 -74 -20.833 -132.5 -62.5 -175.5s-97.5 -64.5 -167.5 -64.5c-82.667 0 -146.334 29 -191.001 87
c-20.667 26.667 -35.334 56 -44.001 88z" />
    <glyph glyph-name="K" unicode="K" horiz-adv-x="635" 
d="M90 0v700h65v-315h155l225 315h80l-245 -340l255 -360h-80l-230 325h-160v-325h-65z" />
    <glyph glyph-name="L" unicode="L" horiz-adv-x="545" 
d="M90 0v700h65v-640h380v-60h-445z" />
    <glyph glyph-name="M" unicode="M" horiz-adv-x="915" 
d="M90 0v700h105l230 -465h65l230 465h105v-700h-65v630l1 10h-1l-230 -465h-145l-230 465l-1 -1l1 -9v-630h-65z" />
    <glyph glyph-name="N" unicode="N" horiz-adv-x="725" 
d="M90 0v700h100l380 -635h1l-1 10v625h65v-700h-100l-380 635h-1l1 -10v-625h-65z" />
    <glyph glyph-name="O" unicode="O" horiz-adv-x="820" 
d="M50 350c0 106.667 34.333 195 103 265s154.334 105 257.001 105s188.334 -35 257.001 -105s103 -158.333 103 -265s-34.333 -195 -103 -265s-154.334 -105 -257.001 -105s-188.334 35 -257.001 105s-103 158.333 -103 265zM115 350c0 -92 27.667 -166.667 83 -224
s126 -86 212 -86s156.667 28.667 212 86s83 132 83 224s-27.667 166.667 -83 224s-126 86 -212 86s-156.667 -28.667 -212 -86s-83 -132 -83 -224z" />
    <glyph glyph-name="P" unicode="P" horiz-adv-x="665" 
d="M90 0v700h285c76 0 136.667 -21 182 -63s68 -96 68 -162s-22.667 -120 -68 -162s-106 -63 -182 -63h-220v-250h-65zM155 310l220 -0.00195312c59.333 0 105 14.833 137 44.5s48 69.834 48 120.501s-16 90.834 -48 120.501s-77.667 44.5 -137 44.5h-220v-330z" />
    <glyph glyph-name="Q" unicode="Q" horiz-adv-x="820" 
d="M50 350c0 106.667 34.3301 195.001 102.997 265.001s154.334 105 257.001 105s188.334 -35 257.001 -105s103 -158.333 103 -265c0 -101.333 -30.833 -186.333 -92.5 -255s-139.167 -106.334 -232.5 -113.001v-182h-65v181c-95.333 6.66699 -174.166 44.5 -236.499 113.5
s-93.5 154.167 -93.5 255.5zM114.997 350.001c0 -92 27.667 -166.667 83 -224s126 -86 212 -86s156.667 28.667 212 86s83 132 83 224s-27.667 166.667 -83 224s-126 86 -212 86s-156.667 -28.667 -212 -86s-83 -132 -83 -224z" />
    <glyph glyph-name="R" unicode="R" horiz-adv-x="680" 
d="M90 0v700h290c76 0 135.833 -19.833 179.5 -59.5s65.5 -91.5 65.5 -155.5c0 -54.667 -16.167 -101 -48.5 -139s-77.833 -61.667 -136.5 -71l180 -275h-75l-175 270h-215v-270h-65zM155 330h225c59.333 0 104.166 13.5 134.499 40.5s45.5 65.167 45.5 114.5
s-15.167 87.5 -45.5 114.5s-75.166 40.5 -134.499 40.5h-225v-310z" />
    <glyph glyph-name="S" unicode="S" horiz-adv-x="635" 
d="M45 185h64.9971c9.33301 -28 23.333 -52.333 42 -73c42.667 -48 100.334 -72 173.001 -72c62.667 0 110.834 13.333 144.501 40s50.5 60 50.5 100c0 10.667 -1.16699 20.334 -3.5 29.001s-6.5 17 -12.5 25s-11.5 14.833 -16.5 20.5s-13.167 11.667 -24.5 18l-26.5 14.5
c-6.33301 3.33301 -17.166 7.83301 -32.499 13.5s-26.333 9.5 -33 11.5l-37 11.5l-36 11.5c-26.667 7.33301 -49 14.333 -67 21s-37.667 15.5 -59 26.5s-38.5 22.833 -51.5 35.5s-23.833 28.667 -32.5 48s-13 40.666 -13 63.999c0 52 22 96.667 66 134s102 56 174 56
c94.667 0 167.667 -31 219 -93c22 -26.667 37.333 -57.334 46 -92.001h-65c-7.33301 23.333 -19.333 44 -36 62c-39.333 42 -94 63 -164 63c-55.333 0 -98.333 -12.5 -129 -37.5s-46 -55.833 -46 -92.5c0 -46 31 -82.333 93 -109c20.667 -9.33301 64 -23.666 130 -42.999
c27.333 -8.66699 49.5 -16.167 66.5 -22.5s36.5 -15.333 58.5 -27s39.167 -23.834 51.5 -36.501s23 -28.667 32 -48s13.5 -40.666 13.5 -63.999c0 -55.333 -23.5 -102.5 -70.5 -141.5s-110.167 -58.5 -189.5 -58.5c-100 0 -176.667 34 -230 102
c-23.333 30.667 -40 65 -50 103z" />
    <glyph glyph-name="T" unicode="T" horiz-adv-x="585" 
d="M10 640v60h565v-60h-250v-640h-65v640h-250z" />
    <glyph glyph-name="U" unicode="U" horiz-adv-x="710" 
d="M85 260l0.00195312 440h65v-440c0 -70 18.333 -124.167 55 -162.5s86.667 -57.5 150 -57.5s113.333 19.167 150 57.5s55 92.5 55 162.5v440h65v-440c0 -84.667 -24.833 -152.5 -74.5 -203.5s-114.834 -76.5 -195.501 -76.5s-145.834 25.5 -195.501 76.5
s-74.5 118.833 -74.5 203.5z" />
    <glyph glyph-name="V" unicode="V" horiz-adv-x="675" 
d="M30 700h70l165 -640h145l165 640h70l-185 -700h-245z" />
    <glyph glyph-name="W" unicode="W" horiz-adv-x="960" 
d="M40 700h70l135 -640h35l140 640h120l140 -640h35l135 640h70l-155 -700h-135l-135 640h-30l-135 -640h-135z" />
    <glyph glyph-name="X" unicode="X" horiz-adv-x="630" 
d="M25 0l190 350l-180 350h70l165 -320h90l165 320h70l-180 -350l190 -350h-70l-175 320h-90l-175 -320h-70z" />
    <glyph glyph-name="Y" unicode="Y" horiz-adv-x="635" 
d="M10 700h80l225 -370h5l225 370h80l-275 -445v-255h-65v255z" />
    <glyph glyph-name="Z" unicode="Z" 
d="M35 0v60l440 575v5h-425v60h510v-60l-440 -575v-5h445v-60h-530z" />
    <glyph glyph-name="bracketleft" unicode="[" horiz-adv-x="325" 
d="M90 -145v870h210v-60h-145v-750h145v-60h-210z" />
    <glyph glyph-name="backslash" unicode="\" horiz-adv-x="350" 
d="M5 700h65l275 -700h-65z" />
    <glyph glyph-name="bracketright" unicode="]" horiz-adv-x="325" 
d="M25 -145v60h145v750h-145v60h210v-870h-210z" />
    <glyph glyph-name="asciicircum" unicode="^" horiz-adv-x="460" 
d="M45 385l145 315h80l145 -315h-60l-115 255h-20l-115 -255h-60z" />
    <glyph glyph-name="underscore" unicode="_" horiz-adv-x="310" 
d="M-20 -165v55h350v-55h-350z" />
    <glyph glyph-name="grave" unicode="`" horiz-adv-x="225" 
d="M30 694v1h75l90 -145h-50z" />
    <glyph glyph-name="a" unicode="a" horiz-adv-x="615" 
d="M45 250c0 74 23.333 135.833 70 185.5s103.334 74.5 170.001 74.5c47.333 0 87.333 -11.5 120 -34.5s55.667 -48.167 69 -75.5h1v100h60v-500h-60v100h-1c-13.333 -27.333 -36.333 -52.5 -69 -75.5s-72.667 -34.5 -120 -34.5c-66.667 0 -123.334 24.833 -170.001 74.5
s-70 111.5 -70 185.5zM105 250c0 -58.667 18.167 -107.5 54.5 -146.5s79.833 -58.5 130.5 -58.5c49.333 0 92.5 19.5 129.5 58.5s55.5 87.833 55.5 146.5s-18.5 107.5 -55.5 146.5s-80.167 58.5 -129.5 58.5c-50.667 0 -94.167 -19.5 -130.5 -58.5
s-54.5 -87.833 -54.5 -146.5z" />
    <glyph glyph-name="b" unicode="b" horiz-adv-x="615" 
d="M80 0v700h60v-300h1c10.667 26.667 33 51.667 67 75s74.667 35 122 35c66.667 0 123.334 -24.833 170.001 -74.5s70 -111.5 70 -185.5s-23.333 -135.833 -70 -185.5s-103.334 -74.5 -170.001 -74.5c-47.333 0 -88 11.667 -122 35s-56.333 48.333 -67 75h-1v-100h-60z
M140 250c0 -58.667 18.5 -107.5 55.5 -146.5s80.167 -58.5 129.5 -58.5c50.667 0 94.167 19.5 130.5 58.5s54.5 87.833 54.5 146.5s-18.167 107.5 -54.5 146.5s-79.833 58.5 -130.5 58.5c-49.333 0 -92.5 -19.5 -129.5 -58.5s-55.5 -87.833 -55.5 -146.5z" />
    <glyph glyph-name="c" unicode="c" horiz-adv-x="570" 
d="M45 250c0 74 23.832 135.833 71.499 185.5s105.5 74.5 173.5 74.5c79.333 0 142.333 -29.333 189 -88c20.667 -25.333 36 -54.333 46 -87h-60c-9.33301 23.333 -21.666 43.333 -36.999 60c-34.667 40 -80.667 60 -138 60c-50.667 0 -94.167 -19.5 -130.5 -58.5
s-54.5 -87.833 -54.5 -146.5s18.167 -107.5 54.5 -146.5s79.833 -58.5 130.5 -58.5c58 0 105.333 21.667 142 65c17.333 20 30 41.667 38 65h60c-10 -34 -25.667 -65 -47 -93c-50.667 -61.333 -115 -92 -193 -92c-68 0 -125.833 24.833 -173.5 74.5s-71.5 111.5 -71.5 185.5
z" />
    <glyph glyph-name="d" unicode="d" horiz-adv-x="615" 
d="M45 250c0 74 23.333 135.833 70 185.5s103.334 74.5 170.001 74.5c47.333 0 87.333 -11.5 120 -34.5s55.667 -48.167 69 -75.5h1v300h60v-700h-60v100h-1c-13.333 -27.333 -36.333 -52.5 -69 -75.5s-72.667 -34.5 -120 -34.5c-66.667 0 -123.334 24.833 -170.001 74.5
s-70 111.5 -70 185.5zM105 250c0 -58.667 18.167 -107.5 54.5 -146.5s79.833 -58.5 130.5 -58.5c49.333 0 92.5 19.5 129.5 58.5s55.5 87.833 55.5 146.5s-18.5 107.5 -55.5 146.5s-80.167 58.5 -129.5 58.5c-50.667 0 -94.167 -19.5 -130.5 -58.5
s-54.5 -87.833 -54.5 -146.5z" />
    <glyph glyph-name="e" unicode="e" horiz-adv-x="590" 
d="M45 250c0 74.667 24 136.667 72 186s107.333 74 178 74c70 0 129.167 -24.5 177.5 -73.5s72.5 -109.5 72.5 -181.5v-25h-440c2.66699 -52.667 22 -96.667 58 -132s80 -53 132 -53c57.333 0 104.333 18.333 141 55c17.333 16 30.333 34.333 39 55h60
c-12 -31.333 -29 -59 -51 -83c-49.333 -54.667 -112.333 -82 -189 -82c-70.667 0 -130 24.667 -178 74s-72 111.333 -72 186zM105 285h374.998c-5.33301 48.667 -25.166 89.167 -59.499 121.5s-76.166 48.5 -125.499 48.5s-91.333 -16 -126 -48s-56 -72.667 -64 -122z" />
    <glyph glyph-name="f" unicode="f" horiz-adv-x="300" 
d="M25 445v55h70v200h225v-55h-165v-145h135v-55h-135v-445h-60v445h-70z" />
    <glyph glyph-name="g" unicode="g" horiz-adv-x="615" 
d="M45 250c0 74 23.333 135.833 70 185.5s103.334 74.5 170.001 74.5c47.333 0 87.333 -11.5 120 -34.5s55.667 -48.167 69 -75.5h1v100h60v-690h-425v55h365v235h-1c-13.333 -27.333 -36.333 -52.5 -69 -75.5s-72.667 -34.5 -120 -34.5
c-66.667 0 -123.334 24.833 -170.001 74.5s-70 111.5 -70 185.5zM105 250c0 -58.667 18.167 -107.5 54.5 -146.5s79.833 -58.5 130.5 -58.5c49.333 0 92.5 19.5 129.5 58.5s55.5 87.833 55.5 146.5s-18.5 107.5 -55.5 146.5s-80.167 58.5 -129.5 58.5
c-50.667 0 -94.167 -19.5 -130.5 -58.5s-54.5 -87.833 -54.5 -146.5z" />
    <glyph glyph-name="h" unicode="h" horiz-adv-x="580" 
d="M80 0v700h60v-285h1c12 24.667 33.167 46.667 63.5 66s68.833 29 115.5 29c56 0 101.667 -19.333 137 -58s53 -91 53 -157v-295h-60v295c0 51.333 -12.5 90.833 -37.5 118.5s-59.167 41.5 -102.5 41.5c-48 0 -88.333 -17 -121 -51s-49 -77 -49 -129v-275h-60z" />
    <glyph glyph-name="i" unicode="i" horiz-adv-x="220" 
d="M65 650c0 12.667 4.33301 23.334 13 32.001s19.334 13 32.001 13s23.334 -4.33301 32.001 -13s13 -19.334 13 -32.001s-4.33301 -23.334 -13 -32.001s-19.334 -13 -32.001 -13s-23.334 4.33301 -32.001 13s-13 19.334 -13 32.001zM80 0v500h60v-500h-60z" />
    <glyph glyph-name="j" unicode="j" horiz-adv-x="220" 
d="M65 650c0 12.667 4.33301 23.334 13 32.001s19.334 13 32.001 13s23.334 -4.33301 32.001 -13s13 -19.334 13 -32.001s-4.33301 -23.334 -13 -32.001s-19.334 -13 -32.001 -13s-23.334 4.33301 -32.001 13s-13 19.334 -13 32.001zM-65 -190v55h145v635h60v-690h-205z" />
    <glyph glyph-name="k" unicode="k" horiz-adv-x="515" 
d="M80 0v700h60v-410h120l165 210h70l-185 -240l200 -260h-70l-180 235h-120v-235h-60z" />
    <glyph glyph-name="l" unicode="l" horiz-adv-x="270" 
d="M80 0v700h60v-645h115v-55h-175z" />
    <glyph glyph-name="m" unicode="m" horiz-adv-x="910" 
d="M80 0l0.00195312 499.998h60v-85h1c10.667 18 23.667 33.667 39 47c36 32 79.333 48 130 48c49.333 0 91 -18.333 125 -55c14 -16 25.667 -34.333 35 -55h5c8 18 21.333 36.333 40 55c39.333 36.667 87.666 55 144.999 55c51.333 0 94.166 -19.333 128.499 -58
s51.5 -91 51.5 -157v-295h-60v295c0 51.333 -11.833 90.833 -35.5 118.5s-55.167 41.5 -94.5 41.5c-42.667 0 -80 -16.167 -112 -48.5s-48 -71.166 -48 -116.499v-290h-60v295c0 51.333 -11.833 90.833 -35.5 118.5s-55.167 41.5 -94.5 41.5
c-42.667 0 -80 -16.167 -112 -48.5s-48 -71.166 -48 -116.499v-290h-60z" />
    <glyph glyph-name="n" unicode="n" horiz-adv-x="580" 
d="M80 0v500h60v-85h1c12 24.667 33.167 46.667 63.5 66s68.833 29 115.5 29c56 0 101.667 -19.333 137 -58s53 -91 53 -157v-295h-60v295c0 51.333 -12.5 90.833 -37.5 118.5s-59.167 41.5 -102.5 41.5c-48 0 -88.333 -17 -121 -51s-49 -77 -49 -129v-275h-60z" />
    <glyph glyph-name="o" unicode="o" 
d="M45 250c0 74.667 24.333 136.667 73 186s109.334 74 182.001 74s133.334 -24.667 182.001 -74s73 -111.333 73 -186s-24.333 -136.667 -73 -186s-109.334 -74 -182.001 -74s-133.334 24.667 -182.001 74s-73 111.333 -73 186zM105 250c0 -59.333 18.667 -108.333 56 -147
s83.666 -58 138.999 -58s101.666 19.333 138.999 58s56 87.667 56 147s-18.667 108.333 -56 147s-83.666 58 -138.999 58s-101.666 -19.333 -138.999 -58s-56 -87.667 -56 -147z" />
    <glyph glyph-name="p" unicode="p" horiz-adv-x="615" 
d="M80 -190v690h60v-100h1c10.667 26.667 33 51.667 67 75s74.667 35 122 35c66.667 0 123.334 -24.833 170.001 -74.5s70 -111.5 70 -185.5s-23.333 -135.833 -70 -185.5s-103.334 -74.5 -170.001 -74.5c-47.333 0 -88 11.667 -122 35s-56.333 48.333 -67 75h-1v-290h-60z
M140 250c0 -58.667 18.5 -107.5 55.5 -146.5s80.167 -58.5 129.5 -58.5c50.667 0 94.167 19.5 130.5 58.5s54.5 87.833 54.5 146.5s-18.167 107.5 -54.5 146.5s-79.833 58.5 -130.5 58.5c-49.333 0 -92.5 -19.5 -129.5 -58.5s-55.5 -87.833 -55.5 -146.5z" />
    <glyph glyph-name="q" unicode="q" horiz-adv-x="615" 
d="M45 250c0 74 23.333 135.833 70 185.5s103.334 74.5 170.001 74.5c47.333 0 87.333 -11.5 120 -34.5s55.667 -48.167 69 -75.5h1v100h60v-690h-60v290h-1c-13.333 -27.333 -36.333 -52.5 -69 -75.5s-72.667 -34.5 -120 -34.5c-66.667 0 -123.334 24.833 -170.001 74.5
s-70 111.5 -70 185.5zM105 250c0 -58.667 18.167 -107.5 54.5 -146.5s79.833 -58.5 130.5 -58.5c49.333 0 92.5 19.5 129.5 58.5s55.5 87.833 55.5 146.5s-18.5 107.5 -55.5 146.5s-80.167 58.5 -129.5 58.5c-50.667 0 -94.167 -19.5 -130.5 -58.5
s-54.5 -87.833 -54.5 -146.5z" />
    <glyph glyph-name="r" unicode="r" horiz-adv-x="370" 
d="M80 0l-0.000976562 499.999h60v-95h1c8.66699 18.667 20.334 35.334 35.001 50.001c33.333 33.333 76.333 50 129 50h55v-55h-55c-48 0 -87.5 -16.167 -118.5 -48.5s-46.5 -74.5 -46.5 -126.5v-275h-60z" />
    <glyph glyph-name="s" unicode="s" horiz-adv-x="510" 
d="M40 150h65.0029c8.66699 -21.333 20 -39 34 -53c32 -34.667 75.667 -52 131 -52c45.333 0 79.166 8.16699 101.499 24.5s33.5 38.166 33.5 65.499c0 14.667 -4.33301 27.5 -13 38.5s-22.5 20.167 -41.5 27.5s-36 13 -51 17s-36.5 9 -64.5 15
c-32.667 6 -60.5 13.667 -83.5 23s-43.167 24.166 -60.5 44.499s-26 45.166 -26 74.499c0 36.667 16.5 68.334 49.5 95.001s78.167 40 135.5 40c72 0 129 -24.333 171 -73c18 -20.667 31 -44.667 39 -72h-65c-7.33301 18 -17 33 -29 45c-30 30 -68.667 45 -116 45
c-40 0 -70.833 -7.83301 -92.5 -23.5s-32.5 -34.5 -32.5 -56.5c0 -12 3.33301 -22.833 10 -32.5s14.667 -17.667 24 -24s22.5 -12.166 39.5 -17.499s32 -9.5 45 -12.5s30.167 -6.5 51.5 -10.5c24 -5.33301 45.167 -11.166 63.5 -17.499s36 -15 53 -26
s30.167 -24.833 39.5 -41.5s14 -36 14 -58c0 -42 -16.833 -76.667 -50.5 -104s-81.834 -41 -144.501 -41c-80 0 -142 26.667 -186 80c-20.667 23.333 -35.334 50 -44.001 80z" />
    <glyph glyph-name="t" unicode="t" horiz-adv-x="355" 
d="M25 445v55h70v110h60v-110h165v-55h-165v-390h170v-55h-230v445h-70z" />
    <glyph glyph-name="u" unicode="u" horiz-adv-x="590" 
d="M80 205l-0.00195312 295h60v-295c0 -51.333 12.5 -90.833 37.5 -118.5s59.167 -41.5 102.5 -41.5c48 0 88.333 17 121 51s49 77 49 129v275h60v-500h-60v85h-1c-13.333 -25.333 -34.666 -47.5 -63.999 -66.5s-67.666 -28.5 -114.999 -28.5c-56 0 -101.667 19.333 -137 58
s-53 91 -53 157z" />
    <glyph glyph-name="v" unicode="v" horiz-adv-x="525" 
d="M25 500h65l120 -445h105l120 445h65l-140 -500h-195z" />
    <glyph glyph-name="w" unicode="w" horiz-adv-x="770" 
d="M35 500h65l95 -445h35l90 445h130l90 -445h35l95 445h65l-110 -500h-135l-90 445h-30l-90 -445h-135z" />
    <glyph glyph-name="x" unicode="x" horiz-adv-x="485" 
d="M10 0l150 255l-140 245h70l120 -215h65l120 215h70l-140 -245l150 -255h-70l-130 230h-65l-130 -230h-70z" />
    <glyph glyph-name="y" unicode="y" horiz-adv-x="505" 
d="M25 500h65l115 -445h95l130 445h65l-205 -690h-65l60 190h-125z" />
    <glyph glyph-name="z" unicode="z" horiz-adv-x="470" 
d="M30 0v55l320 389v1h-310v55h390v-55l-320 -389v-1h330v-55h-410z" />
    <glyph glyph-name="braceleft" unicode="{" horiz-adv-x="340" 
d="M45 265v55.002h30c36.667 0 55 18.333 55 55v230c0 35.333 11.833 64.166 35.5 86.499s55.167 33.5 94.5 33.5h60v-60h-60c-20 0 -35.833 -5.5 -47.5 -16.5s-17.5 -25.5 -17.5 -43.5v-230c0 -29.333 -10 -51.333 -30 -66c-8 -6 -18 -10.667 -30 -14v-5
c12 -3.33301 22 -8 30 -14c20 -14.667 30 -36.667 30 -66v-235c0 -18 5.83301 -32.5 17.5 -43.5s27.5 -16.5 47.5 -16.5h60v-60h-60c-39.333 0 -70.833 11.167 -94.5 33.5s-35.5 51.166 -35.5 86.499v235c0 36.667 -18.333 55 -55 55h-30z" />
    <glyph glyph-name="bar" unicode="|" horiz-adv-x="305" 
d="M120 -100v850h65v-850h-65z" />
    <glyph glyph-name="braceright" unicode="}" horiz-adv-x="340" 
d="M20 -145v59.998h60c20 0 35.833 5.5 47.5 16.5s17.5 25.5 17.5 43.5v235c0 29.333 10 51.333 30 66c8 6 18 10.667 30 14v5c-12 3.33301 -22 8 -30 14c-20 14.667 -30 36.667 -30 66v230c0 18 -5.83301 32.5 -17.5 43.5s-27.5 16.5 -47.5 16.5h-60v60h60
c39.333 0 70.833 -11.167 94.5 -33.5s35.5 -51.166 35.5 -86.499v-230c0 -36.667 18.333 -55 55 -55h30v-55h-30c-36.667 0 -55 -18.333 -55 -55v-235c0 -35.333 -11.833 -64.166 -35.5 -86.499s-55.167 -33.5 -94.5 -33.5h-60z" />
    <glyph glyph-name="asciitilde" unicode="~" horiz-adv-x="500" 
d="M45 245l-0.00390625 20.0029c0 37.333 10 66.666 30 87.999s46.667 32 80 32c30.667 0 65.334 -13.333 104.001 -40c1.33301 -0.666992 4.33301 -2.83398 9 -6.50098s7.83398 -6 9.50098 -7s4.5 -2.83301 8.5 -5.5l9 -6c2 -1.33301 4.83301 -3 8.5 -5
s6.83398 -3.33301 9.50098 -4s5.5 -1.66699 8.5 -3s6 -2.16602 9 -2.49902s6.16699 -0.5 9.5 -0.5c36.667 0 55 20 55 60v20h60v-20c0 -37.333 -10 -66.666 -30 -87.999s-46.667 -32 -80 -32c-31.333 0 -65.666 13.333 -102.999 40c-2 1.33301 -6 4.16602 -12 8.49902
s-10.167 7.16602 -12.5 8.49902s-6 3.66602 -11 6.99902s-9 5.66602 -12 6.99902s-6.66699 2.83301 -11 4.5s-8.33301 2.83398 -12 3.50098s-7.5 1 -11.5 1c-36.667 0 -55 -20 -55 -60v-20h-60z" />
    <glyph glyph-name="nbspace" unicode="&#xa0;" horiz-adv-x="280" 
 />
    <glyph glyph-name="exclamdown" unicode="&#xa1;" horiz-adv-x="280" 
d="M90 460c0 15.333 4.5 27.5 13.5 36.5s21.167 13.5 36.5 13.5s27.5 -4.66699 36.5 -14s13.5 -21.333 13.5 -36c0 -15.333 -4.5 -27.5 -13.5 -36.5s-21.167 -13.5 -36.5 -13.5s-27.5 4.5 -36.5 13.5s-13.5 21.167 -13.5 36.5zM110 -190v350l10 135h40l10 -135v-350h-60z
" />
    <glyph glyph-name="cent" unicode="&#xa2;" horiz-adv-x="570" 
d="M45 250c0 69.333 20.499 127.999 61.499 175.999s92.167 76 153.5 84v80h60v-80c68 -9.33301 122.667 -41 164 -95c18.667 -24.667 32.334 -51.334 41.001 -80.001h-60c-9.33301 23.333 -21.666 43.333 -36.999 60c-34.667 40 -80.667 60 -138 60
c-50.667 0 -94.167 -19.5 -130.5 -58.5s-54.5 -87.833 -54.5 -146.5s18.167 -107.5 54.5 -146.5s79.833 -58.5 130.5 -58.5c58 0 105.333 21.667 142 65c17.333 20 30 41.667 38 65h60c-8.66699 -29.333 -22.334 -57.666 -41.001 -84.999
c-40.667 -57.333 -97 -90.666 -169 -99.999v-90h-60v90c-61.333 8 -112.5 36 -153.5 84s-61.5 106.667 -61.5 176z" />
    <glyph glyph-name="sterling" unicode="&#xa3;" horiz-adv-x="550" 
d="M30 0l-0.000976562 60.001h15c53.333 0 80 30 80 90v195h-75v60h75v130c0 57.333 18.167 104.166 54.5 140.499s83.166 54.5 140.499 54.5c72.667 0 127 -26.667 163 -80c16.667 -23.333 27.334 -50 32.001 -80h-65c-4.66699 18 -12.667 34.667 -24 50
c-25.333 33.333 -60.666 50 -105.999 50c-40 0 -71.667 -12 -95 -36s-35 -57 -35 -99v-130h170v-60h-170v-195c0 -30 -6 -53 -18 -69c-5.33301 -8 -11 -13.333 -17 -16v-5h375v-60h-500z" />
    <glyph glyph-name="currency" unicode="&#xa4;" horiz-adv-x="665" 
d="M35 110v60h85v90h-85v60h85v380h255c76 0 136.667 -20.833 182 -62.5s68 -94.167 68 -157.5s-22.667 -115.833 -68 -157.5s-106 -62.5 -182 -62.5h-190v-90h255v-60h-255v-110h-65v110h-85zM185 320h190c59.333 0 105 14.333 137 43s48 67.667 48 117s-16 88.333 -48 117
s-77.667 43 -137 43h-190v-320z" />
    <glyph glyph-name="yen" unicode="&#xa5;" horiz-adv-x="635" 
d="M10 700h80l225 -360h5l225 360h80l-270 -420h150v-60h-155v-70h155v-60h-155v-90h-65v90h-155v60h155v70h-155v60h150z" />
    <glyph glyph-name="brokenbar" unicode="&#xa6;" horiz-adv-x="305" 
d="M120 385v365h65v-365h-65zM120 -100v365h65v-365h-65z" />
    <glyph glyph-name="section" unicode="&#xa7;" horiz-adv-x="560" 
d="M55 125h64.9971c6 -16.667 15.667 -31.667 29 -45c30 -30 73.667 -45 131 -45c50.667 0 88.334 7.66699 113.001 23s37 34.333 37 57c0 14 -4.66699 26.5 -14 37.5s-23.166 20.333 -41.499 28s-36.5 14.167 -54.5 19.5s-40 11.333 -66 18
c-4 0.666992 -7 1.33398 -9 2.00098c-36 8 -66.167 16.833 -90.5 26.5s-46.166 24.334 -65.499 44.001s-29 42.834 -29 69.501c0 27.333 9.83301 51.333 29.5 72s44.834 35 75.501 43v1c-24 8.66699 -45 23 -63 43s-27 42 -27 66c0 37.333 17.667 69.166 53 95.499
s86 39.5 152 39.5c76.667 0 136.334 -23.333 179.001 -70c18 -20 31.667 -43.333 41 -70h-65c-7.33301 17.333 -17 31.333 -29 42c-31.333 28.667 -73.333 43 -126 43c-48.667 0 -85 -7.66699 -109 -23s-36 -34.333 -36 -57c0 -14.667 4.66699 -27.5 14 -38.5
s24.166 -20.667 44.499 -29s38.833 -14.833 55.5 -19.5s39.667 -10.334 69 -17.001c36 -9.33301 65.833 -18.666 89.5 -27.999s45 -23.833 64 -43.5s28.5 -42.834 28.5 -69.501c0 -27.333 -9.5 -51.333 -28.5 -72s-42.833 -35 -71.5 -43v-1c24 -8.66699 45 -23 63 -43
s27 -42 27 -66c0 -38 -17.833 -70 -53.5 -96s-87.834 -39 -156.501 -39c-80 0 -141.333 24 -184 72c-19.333 21.333 -33 45.666 -41 72.999zM119.997 360c0 -36.667 49.333 -66.334 148 -89.001l77 -21c27.333 4.66699 50 15.834 68 33.501s27 36.5 27 56.5
c0 21.333 -12.667 38.833 -38 52.5s-60.333 26.167 -105 37.5c-18 4 -43.667 10.667 -77 20c-29.333 -5.33301 -53.333 -16.5 -72 -33.5s-28 -35.833 -28 -56.5z" />
    <glyph glyph-name="dieresis" unicode="&#xa8;" horiz-adv-x="320" 
d="M200 650c0 12.667 4.33301 23.334 13 32.001s19.334 13 32.001 13s23.334 -4.33301 32.001 -13s13 -19.334 13 -32.001s-4.33301 -23.334 -13 -32.001s-19.334 -13 -32.001 -13s-23.334 4.33301 -32.001 13s-13 19.334 -13 32.001zM30 650
c0 12.667 4.33301 23.334 13 32.001s19.334 13 32.001 13s23.334 -4.33301 32.001 -13s13 -19.334 13 -32.001s-4.33301 -23.334 -13 -32.001s-19.334 -13 -32.001 -13s-23.334 4.33301 -32.001 13s-13 19.334 -13 32.001z" />
    <glyph glyph-name="copyright" unicode="&#xa9;" horiz-adv-x="840" 
d="M50 350c0 105.333 35.333 193.333 106 264s158.667 106 264 106s193.333 -35.333 264 -106s106 -158.667 106 -264s-35.333 -193.333 -106 -264s-158.667 -106 -264 -106s-193.333 35.333 -264 106s-106 158.667 -106 264zM110 350c0 -90 29.667 -165 89 -225
s133 -90 221 -90s161.667 30 221 90s89 135 89 225s-29.667 165 -89 225s-133 90 -221 90s-161.667 -30 -221 -90s-89 -135 -89 -225zM250 350c0 54 16.501 98.3311 49.501 132.998s74.833 52 125.5 52c52.667 0 97.334 -21 134.001 -63c14.667 -18 26.667 -38.667 36 -62
h-65c-4.66699 10.667 -12.334 22.334 -23.001 35.001c-22 23.333 -49.333 35 -82 35c-33.333 0 -60.833 -11.833 -82.5 -35.5s-32.5 -55.167 -32.5 -94.5s10.833 -70.833 32.5 -94.5s49.167 -35.5 82.5 -35.5c35.333 0 62.666 11.667 81.999 35
c9.33301 10.667 17 22.334 23 35.001h65c-8.66699 -24 -20.667 -45 -36 -63c-36 -41.333 -80.667 -62 -134 -62c-50.667 0 -92.5 17.333 -125.5 52s-49.5 79 -49.5 133z" />
    <glyph glyph-name="ordfeminine" unicode="&#xaa;" horiz-adv-x="380" 
d="M45 470c0 28.667 10.5 51.666 31.5 68.999s50.167 26 87.5 26h106v20c0 19.333 -6.66699 35.833 -20 49.5s-30 20.5 -50 20.5c-26 0 -47.333 -7.66699 -64 -23c-8 -8 -13.333 -15.333 -16 -22h-65c6 16.667 16.333 33.334 31 50.001c30.667 33.333 68.667 50 114 50
c37.333 0 68.333 -12 93 -36s37 -53.667 37 -89v-210h-60v45h-5c-6.66699 -10 -14.667 -18.333 -24 -25c-22 -16.667 -49 -25 -81 -25c-34.667 0 -62.5 9.5 -83.5 28.5s-31.5 42.833 -31.5 71.5zM105 469.999c0 -13.333 5.5 -24.167 16.5 -32.5s27.167 -12.5 48.5 -12.5
c26.667 0 50 9.16699 70 27.5s30 39.166 30 62.499h-100c-21.333 0 -37.5 -4.16699 -48.5 -12.5s-16.5 -19.166 -16.5 -32.499z" />
    <glyph glyph-name="guillemotleft" unicode="&#xab;" horiz-adv-x="530" 
d="M235 250l205 235l40 -40l-170 -195l170 -195l-40 -40zM35 250l205 235l40 -40l-170 -195l170 -195l-40 -40z" />
    <glyph glyph-name="logicalnot" unicode="&#xac;" horiz-adv-x="500" 
d="M60 285v55h375v-165h-60v110h-315z" />
    <glyph glyph-name="uni00AD" unicode="&#xad;" horiz-adv-x="480" 
d="M60 250v60h360v-60h-360z" />
    <glyph glyph-name="registered" unicode="&#xae;" 
d="M40 465c0 72.667 24.667 133.334 74 182.001s111.333 73 186 73s136.667 -24.333 186 -73s74 -109.334 74 -182.001s-24.667 -133.334 -74 -182.001s-111.333 -73 -186 -73s-136.667 24.333 -186 73s-74 109.334 -74 182.001zM90 465c0 -60 19.5 -109.167 58.5 -147.5
s89.5 -57.5 151.5 -57.5s112.5 19.167 151.5 57.5s58.5 87.5 58.5 147.5s-19.5 109.167 -58.5 147.5s-89.5 57.5 -151.5 57.5s-112.5 -19.167 -151.5 -57.5s-58.5 -87.5 -58.5 -147.5zM205 345v245h110c32 0 56.667 -7.66699 74 -23s26 -36 26 -62s-9.33301 -46 -28 -60
c-8 -7.33301 -17 -12.333 -27 -15l55 -85h-55l-50 75h-55v-75h-50zM255 470h60c33.333 0 50 11.667 50 35s-16.667 35 -50 35h-60v-70z" />
    <glyph glyph-name="macron" unicode="&#xaf;" horiz-adv-x="315" 
d="M30 640v55h255v-55h-255z" />
    <glyph glyph-name="degree" unicode="&#xb0;" horiz-adv-x="330" 
d="M35 575c0 34.667 13 64.167 39 88.5s56.333 36.5 91 36.5s65 -12.167 91 -36.5s39 -53.833 39 -88.5s-13 -64.167 -39 -88.5s-56.333 -36.5 -91 -36.5s-65 12.167 -91 36.5s-39 53.833 -39 88.5zM90 575c0 -22 7.33301 -40 22 -54s32.334 -21 53.001 -21
s38.334 7 53.001 21s22 32 22 54s-7.33301 40 -22 54s-32.334 21 -53.001 21s-38.334 -7 -53.001 -21s-22 -32 -22 -54z" />
    <glyph glyph-name="plusminus" unicode="&#xb1;" horiz-adv-x="500" 
d="M55 30v55h165v170h-165v55h165v175h60v-175h165v-55h-165v-170h165v-55h-390z" />
    <glyph glyph-name="twosuperior" unicode="&#xb2;" horiz-adv-x="350" 
d="M35 460l0.00292969 55l85 50c47.333 28 80.833 51.667 100.5 71s29.5 39 29.5 59c0 18 -6.33301 32.5 -19 43.5s-31.334 16.5 -56.001 16.5c-26.667 0 -48 -10 -64 -30c-8 -10 -13.333 -20 -16 -30h-60c5.33301 22 13.666 41 24.999 57c26.667 38.667 65 58 115 58
c41.333 0 74.166 -10.833 98.499 -32.5s36.5 -49.167 36.5 -82.5c0 -64.667 -56.667 -123 -170 -175l-5 -3l-5 -2v-1l10 1h175v-55h-280z" />
    <glyph glyph-name="threesuperior" unicode="&#xb3;" horiz-adv-x="345" 
d="M30 555l65.002 -0.000976562c3.33301 -9.33301 8.66602 -17.666 15.999 -24.999c15.333 -16.667 36.666 -25 63.999 -25c24.667 0 43.334 5.5 56.001 16.5s19 25.5 19 43.5c0 16.667 -6.66699 30 -20 40s-33 15 -59 15h-71v50l105 75v1l-10 -1h-145v55h240v-55l-95 -68
l-10 -6v-1h5c34 0 62.5 -10.833 85.5 -32.5s34.5 -47.5 34.5 -77.5c0 -31.333 -12.167 -57.5 -36.5 -78.5s-57.166 -31.5 -98.499 -31.5c-52.667 0 -92.334 17.333 -119.001 52c-12.667 15.333 -21.334 33 -26.001 53z" />
    <glyph glyph-name="acute" unicode="&#xb4;" horiz-adv-x="225" 
d="M30 550l90 145h75v-1l-115 -144h-50z" />
    <glyph glyph-name="mu" unicode="&#xb5;" horiz-adv-x="590" 
d="M80 -200v700.001h60v-295c0 -52 13 -91.667 39 -119s63 -41 111 -41c43.333 0 80.833 17.167 112.5 51.5s47.5 77.166 47.5 128.499v275h60v-500h-60v85h-1c-13.333 -24.667 -33.5 -46.667 -60.5 -66s-59.833 -29 -98.5 -29c-48 0 -86.667 11.667 -116 35
c-12.667 9.33301 -24 21 -34 35h-1l1 -10v-250h-60z" />
    <glyph glyph-name="paragraph" unicode="&#xb6;" horiz-adv-x="385" 
d="M30 525c0 50.667 17.6689 92.5 53.002 125.5s81.666 49.5 138.999 49.5h138v-60h-85v-830h-65v540c-50.667 0 -93.334 17.5 -128.001 52.5s-52 75.833 -52 122.5z" />
    <glyph glyph-name="periodcentered" unicode="&#xb7;" horiz-adv-x="280" 
d="M90 265c0 15.333 4.5 27.5 13.5 36.5s21.167 13.5 36.5 13.5s27.5 -4.5 36.5 -13.5s13.5 -21.167 13.5 -36.5s-4.5 -27.5 -13.5 -36.5s-21.167 -13.5 -36.5 -13.5s-27.5 4.66699 -36.5 14s-13.5 21.333 -13.5 36z" />
    <glyph glyph-name="cedilla" unicode="&#xb8;" horiz-adv-x="235" 
d="M30 -215l-0.000976562 45.001c4 -3.33301 10 -6.66602 18 -9.99902c16 -6.66699 33.333 -10 52 -10c17.333 0 30.833 4.5 40.5 13.5s14.5 21.167 14.5 36.5c0 13.333 -5.16699 24.166 -15.5 32.499s-25.166 12.5 -44.499 12.5h-35l50 105h45l-30 -65
c22.667 -2.66699 41.667 -12 57 -28s23 -35 23 -57c0 -28.667 -9.5 -51.667 -28.5 -69s-44.5 -26 -76.5 -26c-18.667 0 -36 3.33301 -52 10c-8 3.33301 -14 6.66602 -18 9.99902z" />
    <glyph glyph-name="onesuperior" unicode="&#xb9;" horiz-adv-x="340" 
d="M55 460v55h100v220l-90 -55v65l95 55h55v-285h95v-55h-255z" />
    <glyph glyph-name="ordmasculine" unicode="&#xba;" horiz-adv-x="410" 
d="M35 540c0 48 16.333 88.333 49 121s73 49 121 49s88.333 -16.333 121 -49s49 -73 49 -121s-16.333 -88.333 -49 -121s-73 -49 -121 -49s-88.333 16.333 -121 49s-49 73 -49 121zM95 540c0 -35.333 10.167 -63.333 30.5 -84s46.833 -31 79.5 -31s59.167 10.333 79.5 31
s30.5 48.667 30.5 84s-10.167 63.333 -30.5 84s-46.833 31 -79.5 31s-59.167 -10.333 -79.5 -31s-30.5 -48.667 -30.5 -84z" />
    <glyph glyph-name="guillemotright" unicode="&#xbb;" horiz-adv-x="530" 
d="M250 55l170 195l-170 195l40 40l205 -235l-205 -235zM50 55l170 195l-170 195l40 40l205 -235l-205 -235z" />
    <glyph glyph-name="onequarter" unicode="&#xbc;" horiz-adv-x="735" 
d="M55 360v55h100v220l-90 -55v65l95 55h55v-285h95v-55h-255zM160 0l430 700h60l-430 -700h-60zM435 75v55l135 210h65l-135 -210h110v70h60v-70h50v-55h-50v-75h-60v75h-175z" />
    <glyph glyph-name="onehalf" unicode="&#xbd;" horiz-adv-x="790" 
d="M55 360v55h100v220l-90 -55v65l95 55h55v-285h95v-55h-255zM160 0l430 700h60l-430 -700h-60zM475 0l0.00292969 55l85 50c47.333 28 80.833 51.667 100.5 71s29.5 39 29.5 59c0 18 -6.33301 32.5 -19 43.5s-31.334 16.5 -56.001 16.5c-26.667 0 -48 -10 -64 -30
c-8 -10 -13.333 -20 -16 -30h-60c5.33301 22 13.666 41 24.999 57c26.667 38.667 65 58 115 58c41.333 0 74.166 -10.833 98.499 -32.5s36.5 -49.167 36.5 -82.5c0 -64.667 -56.667 -123 -170 -175l-5 -3l-5 -2v-1l10 1h175v-55h-280z" />
    <glyph glyph-name="threequarters" unicode="&#xbe;" horiz-adv-x="730" 
d="M30 455h65.002c3.33301 -8.66699 8.66602 -17 15.999 -25c15.333 -16.667 36.666 -25 63.999 -25c24.667 0 43.334 5.5 56.001 16.5s19 25.5 19 43.5c0 16.667 -6.66699 30 -20 40s-33 15 -59 15h-71v50l105 75v1l-10 -1h-145v55h240v-55l-95 -68l-10 -6v-1h5
c34 0 62.5 -10.833 85.5 -32.5s34.5 -47.5 34.5 -77.5c0 -31.333 -12.167 -57.5 -36.5 -78.5s-57.166 -31.5 -98.499 -31.5c-52.667 0 -92.334 17.333 -119.001 52c-12.667 15.333 -21.334 33 -26.001 53zM155.002 0l430 700h60l-430 -700h-60zM430.002 75v55l135 210h65
l-135 -210h110v70h60v-70h50v-55h-50v-75h-60v75h-175z" />
    <glyph glyph-name="questiondown" unicode="&#xbf;" horiz-adv-x="525" 
d="M225 460c0 15.333 4.5 27.5 13.5 36.5s21.167 13.5 36.5 13.5s27.5 -4.66699 36.5 -14s13.5 -21.333 13.5 -36c0 -15.333 -4.5 -27.5 -13.5 -36.5s-21.167 -13.5 -36.5 -13.5s-27.5 4.5 -36.5 13.5s-13.5 21.167 -13.5 36.5zM30 -10
c0 40.667 9.66797 72.9961 29.001 96.9961s45.666 44.667 78.999 62c16 8.66699 29.333 16.834 40 24.501s21.667 17.334 33 29.001s19.833 25.667 25.5 42s8.5 34.833 8.5 55.5h65c0 -45.333 -9.83301 -81.166 -29.5 -107.499s-45.5 -48.5 -77.5 -66.5
c-22.667 -12 -40.667 -22.667 -54 -32s-25.666 -23.166 -36.999 -41.499s-17 -39.166 -17 -62.499c0 -38.667 14.5 -70.834 43.5 -96.501s67.833 -38.5 116.5 -38.5c64.667 0 115 23.333 151 70c15.333 20.667 26.666 44 33.999 70h65c-8.66699 -36.667 -24 -70 -46 -100
c-49.333 -66.667 -117.333 -100 -204 -100c-66 0 -120 19 -162 57s-63 84 -63 138z" />
    <glyph glyph-name="Agrave" unicode="&#xc0;" horiz-adv-x="670" 
d="M25 0l185 700h250l185 -700h-65l-60 230h-370l-60 -230h-65zM165 290h340l-95 350h-150zM195 934v1h75l90 -145h-50z" />
    <glyph glyph-name="Aacute" unicode="&#xc1;" horiz-adv-x="670" 
d="M25 0l185 700h250l185 -700h-65l-60 230h-370l-60 -230h-65zM165 290h340l-95 350h-150zM305 790l90 145h75v-1l-115 -144h-50z" />
    <glyph glyph-name="Acircumflex" unicode="&#xc2;" horiz-adv-x="670" 
d="M25 0l185 700h250l185 -700h-65l-60 230h-370l-60 -230h-65zM165 290h340l-95 350h-150zM190 790v1l110 144h65l110 -144v-1h-60l-75 100h-15l-75 -100h-60z" />
    <glyph glyph-name="Atilde" unicode="&#xc3;" horiz-adv-x="670" 
d="M25 0l185 700h250l185 -700h-65l-60 230h-370l-60 -230h-65zM165 290h340l-95 350h-150zM185 800l0.000976562 26c0 24.667 7.83301 44.834 23.5 60.501s36.167 23.5 61.5 23.5c23.333 0 48.333 -10.667 75 -32c24.667 -22 43 -33 55 -33c10 0 18.333 3.33301 25 10
s10 15 10 25v25h50v-26c0 -24.667 -7.83301 -44.834 -23.5 -60.501s-36.167 -23.5 -61.5 -23.5c-24.667 0 -49.334 11 -74.001 33c-1.33301 0.666992 -5 3.66699 -11 9s-10 8.5 -12 9.5s-5.33301 3 -10 6s-8.66699 5 -12 6s-7 1.5 -11 1.5c-10 0 -18.333 -3.33301 -25 -10
s-10 -15 -10 -25v-25h-50z" />
    <glyph glyph-name="Adieresis" unicode="&#xc4;" horiz-adv-x="670" 
d="M25 0l185 700h250l185 -700h-65l-60 230h-370l-60 -230h-65zM165 290h340l-95 350h-150zM375 850c0 12.667 4.33301 23.334 13 32.001s19.334 13 32.001 13s23.334 -4.33301 32.001 -13s13 -19.334 13 -32.001s-4.33301 -23.334 -13 -32.001s-19.334 -13 -32.001 -13
s-23.334 4.33301 -32.001 13s-13 19.334 -13 32.001zM205 850c0 12.667 4.33301 23.334 13 32.001s19.334 13 32.001 13s23.334 -4.33301 32.001 -13s13 -19.334 13 -32.001s-4.33301 -23.334 -13 -32.001s-19.334 -13 -32.001 -13s-23.334 4.33301 -32.001 13
s-13 19.334 -13 32.001z" />
    <glyph glyph-name="Aring" unicode="&#xc5;" horiz-adv-x="670" 
d="M25 0l185 700h250l185 -700h-65l-60 230h-370l-60 -230h-65zM165 290h340l-95 350h-150zM235 860c0 28 9.66699 51.667 29 71s43 29 71 29s51.667 -9.66699 71 -29s29 -43 29 -71s-9.66699 -51.667 -29 -71s-43 -29 -71 -29s-51.667 9.66699 -71 29s-29 43 -29 71z
M280 860c0 -15.333 5.33301 -28.333 16 -39s23.667 -16 39 -16s28.333 5.33301 39 16s16 23.667 16 39s-5.33301 28.333 -16 39s-23.667 16 -39 16s-28.333 -5.33301 -39 -16s-16 -23.667 -16 -39z" />
    <glyph glyph-name="AE" unicode="&#xc6;" horiz-adv-x="965" 
d="M25 0l185 700h710v-60h-390v-255h315v-60h-315v-265h390v-60h-455v230h-315l-60 -230h-65zM165 290h300v350h-205z" />
    <glyph glyph-name="Ccedilla" unicode="&#xc7;" horiz-adv-x="800" 
d="M50 350c0 106.667 34.332 195.002 102.999 265.002s154.334 105 257.001 105c112 0 203 -41.667 273 -125c30 -36.667 52.333 -78.334 67 -125.001h-65c-13.333 35.333 -32.333 67 -57 95c-56.667 63.333 -129.334 95 -218.001 95c-86 0 -156.667 -28.667 -212 -86
s-83 -132 -83 -224s27.667 -166.667 83 -224s126 -86 212 -86c90.667 0 164.667 34 222 102c24.667 29.333 44 63.666 58 102.999h65c-15.333 -47.333 -38 -90.666 -68 -129.999c-68.667 -87.333 -157.667 -132.333 -267 -135l-15 -35c22.667 -2.66699 41.667 -12 57 -28
s23 -35 23 -57c0 -28.667 -9.5 -51.667 -28.5 -69s-44.5 -26 -76.5 -26c-18.667 0 -36 3.33301 -52 10c-8 3.33301 -14 6.66602 -18 9.99902v45c4 -3.33301 10 -6.66602 18 -9.99902c16 -6.66699 33.333 -10 52 -10c17.333 0 30.833 4.5 40.5 13.5s14.5 21.167 14.5 36.5
c0 13.333 -5.16699 24.166 -15.5 32.499s-25.166 12.5 -44.499 12.5h-35l36 77c-94.667 8 -172.667 46 -234 114s-92 152.667 -92 254z" />
    <glyph glyph-name="Egrave" unicode="&#xc8;" horiz-adv-x="610" 
d="M90 0v700h475v-60h-410v-255h335v-60h-335v-265h410v-60h-475zM205 934v1h75l90 -145h-50z" />
    <glyph glyph-name="Eacute" unicode="&#xc9;" horiz-adv-x="610" 
d="M90 0v700h475v-60h-410v-255h335v-60h-335v-265h410v-60h-475zM295 790l90 145h75v-1l-115 -144h-50z" />
    <glyph glyph-name="Ecircumflex" unicode="&#xca;" horiz-adv-x="610" 
d="M90 0v700h475v-60h-410v-255h335v-60h-335v-265h410v-60h-475zM190 790v1l110 144h65l110 -144v-1h-60l-75 100h-15l-75 -100h-60z" />
    <glyph glyph-name="Edieresis" unicode="&#xcb;" horiz-adv-x="610" 
d="M90 0v700h475v-60h-410v-255h335v-60h-335v-265h410v-60h-475zM370 850c0 12.667 4.33301 23.334 13 32.001s19.334 13 32.001 13s23.334 -4.33301 32.001 -13s13 -19.334 13 -32.001s-4.33301 -23.334 -13 -32.001s-19.334 -13 -32.001 -13s-23.334 4.33301 -32.001 13
s-13 19.334 -13 32.001zM200 850c0 12.667 4.33301 23.334 13 32.001s19.334 13 32.001 13s23.334 -4.33301 32.001 -13s13 -19.334 13 -32.001s-4.33301 -23.334 -13 -32.001s-19.334 -13 -32.001 -13s-23.334 4.33301 -32.001 13s-13 19.334 -13 32.001z" />
    <glyph glyph-name="Igrave" unicode="&#xcc;" horiz-adv-x="245" 
d="M90 0v700h65v-700h-65zM-15 934v1h75l90 -145h-50z" />
    <glyph glyph-name="Iacute" unicode="&#xcd;" horiz-adv-x="245" 
d="M90 0v700h65v-700h-65zM100 790l90 145h75v-1l-115 -144h-50z" />
    <glyph glyph-name="Icircumflex" unicode="&#xce;" horiz-adv-x="245" 
d="M90 0v700h65v-700h-65zM-20 790v1l110 144h65l110 -144v-1h-60l-75 100h-15l-75 -100h-60z" />
    <glyph glyph-name="Idieresis" unicode="&#xcf;" horiz-adv-x="245" 
d="M90 0v700h65v-700h-65zM165 850c0 12.667 4.33301 23.334 13 32.001s19.334 13 32.001 13s23.334 -4.33301 32.001 -13s13 -19.334 13 -32.001s-4.33301 -23.334 -13 -32.001s-19.334 -13 -32.001 -13s-23.334 4.33301 -32.001 13s-13 19.334 -13 32.001zM-5 850
c0 12.667 4.33301 23.334 13 32.001s19.334 13 32.001 13s23.334 -4.33301 32.001 -13s13 -19.334 13 -32.001s-4.33301 -23.334 -13 -32.001s-19.334 -13 -32.001 -13s-23.334 4.33301 -32.001 13s-13 19.334 -13 32.001z" />
    <glyph glyph-name="Eth" unicode="&#xd0;" horiz-adv-x="730" 
d="M25 315v65h75v320h220c104.667 0 190.834 -33.167 258.501 -99.5s101.5 -149.833 101.5 -250.5s-33.833 -184.167 -101.5 -250.5s-153.834 -99.5 -258.501 -99.5h-220v315h-75zM165 60h155c87.333 0 158.333 27 213 81s82 123.667 82 209s-27.333 155 -82 209
s-125.667 81 -213 81h-155v-260h185v-65h-185v-255z" />
    <glyph glyph-name="Ntilde" unicode="&#xd1;" horiz-adv-x="725" 
d="M90 0v700h100l380 -635h1l-1 10v625h65v-700h-100l-380 635h-1l1 -10v-625h-65zM220 800l0.000976562 26c0 24.667 7.83301 44.834 23.5 60.501s36.167 23.5 61.5 23.5c23.333 0 48.333 -10.667 75 -32c24.667 -22 43 -33 55 -33c10 0 18.333 3.33301 25 10s10 15 10 25
v25h50v-26c0 -24.667 -7.83301 -44.834 -23.5 -60.501s-36.167 -23.5 -61.5 -23.5c-24.667 0 -49.334 11 -74.001 33c-1.33301 0.666992 -5 3.66699 -11 9s-10 8.5 -12 9.5s-5.33301 3 -10 6s-8.66699 5 -12 6s-7 1.5 -11 1.5c-10 0 -18.333 -3.33301 -25 -10
s-10 -15 -10 -25v-25h-50z" />
    <glyph glyph-name="Ograve" unicode="&#xd2;" horiz-adv-x="820" 
d="M50 350c0 106.667 34.333 195 103 265s154.334 105 257.001 105s188.334 -35 257.001 -105s103 -158.333 103 -265s-34.333 -195 -103 -265s-154.334 -105 -257.001 -105s-188.334 35 -257.001 105s-103 158.333 -103 265zM115 350c0 -92 27.667 -166.667 83 -224
s126 -86 212 -86s156.667 28.667 212 86s83 132 83 224s-27.667 166.667 -83 224s-126 86 -212 86s-156.667 -28.667 -212 -86s-83 -132 -83 -224zM275 934v1h75l90 -145h-50z" />
    <glyph glyph-name="Oacute" unicode="&#xd3;" horiz-adv-x="820" 
d="M50 350c0 106.667 34.333 195 103 265s154.334 105 257.001 105s188.334 -35 257.001 -105s103 -158.333 103 -265s-34.333 -195 -103 -265s-154.334 -105 -257.001 -105s-188.334 35 -257.001 105s-103 158.333 -103 265zM115 350c0 -92 27.667 -166.667 83 -224
s126 -86 212 -86s156.667 28.667 212 86s83 132 83 224s-27.667 166.667 -83 224s-126 86 -212 86s-156.667 -28.667 -212 -86s-83 -132 -83 -224zM380 790l90 145h75v-1l-115 -144h-50z" />
    <glyph glyph-name="Ocircumflex" unicode="&#xd4;" horiz-adv-x="820" 
d="M50 350c0 106.667 34.333 195 103 265s154.334 105 257.001 105s188.334 -35 257.001 -105s103 -158.333 103 -265s-34.333 -195 -103 -265s-154.334 -105 -257.001 -105s-188.334 35 -257.001 105s-103 158.333 -103 265zM115 350c0 -92 27.667 -166.667 83 -224
s126 -86 212 -86s156.667 28.667 212 86s83 132 83 224s-27.667 166.667 -83 224s-126 86 -212 86s-156.667 -28.667 -212 -86s-83 -132 -83 -224zM270 790v1l110 144h65l110 -144v-1h-60l-75 100h-15l-75 -100h-60z" />
    <glyph glyph-name="Otilde" unicode="&#xd5;" horiz-adv-x="820" 
d="M50 350c0 106.667 34.333 195 103 265s154.334 105 257.001 105s188.334 -35 257.001 -105s103 -158.333 103 -265s-34.333 -195 -103 -265s-154.334 -105 -257.001 -105s-188.334 35 -257.001 105s-103 158.333 -103 265zM115 350c0 -92 27.667 -166.667 83 -224
s126 -86 212 -86s156.667 28.667 212 86s83 132 83 224s-27.667 166.667 -83 224s-126 86 -212 86s-156.667 -28.667 -212 -86s-83 -132 -83 -224zM265 800l0.000976562 26c0 24.667 7.83301 44.834 23.5 60.501s36.167 23.5 61.5 23.5c23.333 0 48.333 -10.667 75 -32
c24.667 -22 43 -33 55 -33c10 0 18.333 3.33301 25 10s10 15 10 25v25h50v-26c0 -24.667 -7.83301 -44.834 -23.5 -60.501s-36.167 -23.5 -61.5 -23.5c-24.667 0 -49.334 11 -74.001 33c-1.33301 0.666992 -5 3.66699 -11 9s-10 8.5 -12 9.5s-5.33301 3 -10 6
s-8.66699 5 -12 6s-7 1.5 -11 1.5c-10 0 -18.333 -3.33301 -25 -10s-10 -15 -10 -25v-25h-50z" />
    <glyph glyph-name="Odieresis" unicode="&#xd6;" horiz-adv-x="820" 
d="M50 350c0 106.667 34.333 195 103 265s154.334 105 257.001 105s188.334 -35 257.001 -105s103 -158.333 103 -265s-34.333 -195 -103 -265s-154.334 -105 -257.001 -105s-188.334 35 -257.001 105s-103 158.333 -103 265zM115 350c0 -92 27.667 -166.667 83 -224
s126 -86 212 -86s156.667 28.667 212 86s83 132 83 224s-27.667 166.667 -83 224s-126 86 -212 86s-156.667 -28.667 -212 -86s-83 -132 -83 -224zM450 850c0 12.667 4.33301 23.334 13 32.001s19.334 13 32.001 13s23.334 -4.33301 32.001 -13s13 -19.334 13 -32.001
s-4.33301 -23.334 -13 -32.001s-19.334 -13 -32.001 -13s-23.334 4.33301 -32.001 13s-13 19.334 -13 32.001zM280 850c0 12.667 4.33301 23.334 13 32.001s19.334 13 32.001 13s23.334 -4.33301 32.001 -13s13 -19.334 13 -32.001s-4.33301 -23.334 -13 -32.001
s-19.334 -13 -32.001 -13s-23.334 4.33301 -32.001 13s-13 19.334 -13 32.001z" />
    <glyph glyph-name="multiply" unicode="&#xd7;" horiz-adv-x="500" 
d="M80 165l130 130l-130 130l40 40l130 -130l130 130l40 -40l-130 -130l130 -130l-40 -40l-130 130l-130 -130z" />
    <glyph glyph-name="Oslash" unicode="&#xd8;" horiz-adv-x="820" 
d="M25 -5v75l84 69c-39.333 64 -59 134.333 -59 211c0 106.667 34.333 195 103 265s154.334 105 257.001 105c108 0 196.333 -38 265 -114l120 99v-75l-85 -70c40 -60.667 60 -130.667 60 -210c0 -106.667 -34.333 -195 -103 -265s-154.334 -105 -257.001 -105
c-109.333 0 -198 37.667 -266 113zM115 350c0 -65.333 14.334 -122.333 43.001 -171l470 388c-54.667 62 -127.334 93 -218.001 93c-86 0 -156.667 -28.667 -212 -86s-83 -132 -83 -224zM662.001 520l-470.001 -387c54.667 -62 127.334 -93 218.001 -93
c86 0 156.667 28.667 212 86s83 132 83 224c0 63.333 -14.333 120 -43 170z" />
    <glyph glyph-name="Ugrave" unicode="&#xd9;" horiz-adv-x="710" 
d="M85 260l0.00195312 440h65v-440c0 -70 18.333 -124.167 55 -162.5s86.667 -57.5 150 -57.5s113.333 19.167 150 57.5s55 92.5 55 162.5v440h65v-440c0 -84.667 -24.833 -152.5 -74.5 -203.5s-114.834 -76.5 -195.501 -76.5s-145.834 25.5 -195.501 76.5
s-74.5 118.833 -74.5 203.5zM220.002 934v1h75l90 -145h-50z" />
    <glyph glyph-name="Uacute" unicode="&#xda;" horiz-adv-x="710" 
d="M85 260l0.00195312 440h65v-440c0 -70 18.333 -124.167 55 -162.5s86.667 -57.5 150 -57.5s113.333 19.167 150 57.5s55 92.5 55 162.5v440h65v-440c0 -84.667 -24.833 -152.5 -74.5 -203.5s-114.834 -76.5 -195.501 -76.5s-145.834 25.5 -195.501 76.5
s-74.5 118.833 -74.5 203.5zM325.002 790l90 145h75v-1l-115 -144h-50z" />
    <glyph glyph-name="Ucircumflex" unicode="&#xdb;" horiz-adv-x="710" 
d="M85 260l0.00195312 440h65v-440c0 -70 18.333 -124.167 55 -162.5s86.667 -57.5 150 -57.5s113.333 19.167 150 57.5s55 92.5 55 162.5v440h65v-440c0 -84.667 -24.833 -152.5 -74.5 -203.5s-114.834 -76.5 -195.501 -76.5s-145.834 25.5 -195.501 76.5
s-74.5 118.833 -74.5 203.5zM210.002 790v1l110 144h65l110 -144v-1h-60l-75 100h-15l-75 -100h-60z" />
    <glyph glyph-name="Udieresis" unicode="&#xdc;" horiz-adv-x="710" 
d="M85 260l0.00195312 440h65v-440c0 -70 18.333 -124.167 55 -162.5s86.667 -57.5 150 -57.5s113.333 19.167 150 57.5s55 92.5 55 162.5v440h65v-440c0 -84.667 -24.833 -152.5 -74.5 -203.5s-114.834 -76.5 -195.501 -76.5s-145.834 25.5 -195.501 76.5
s-74.5 118.833 -74.5 203.5zM395.002 850c0 12.667 4.33301 23.334 13 32.001s19.334 13 32.001 13s23.334 -4.33301 32.001 -13s13 -19.334 13 -32.001s-4.33301 -23.334 -13 -32.001s-19.334 -13 -32.001 -13s-23.334 4.33301 -32.001 13s-13 19.334 -13 32.001z
M225.002 850c0 12.667 4.33301 23.334 13 32.001s19.334 13 32.001 13s23.334 -4.33301 32.001 -13s13 -19.334 13 -32.001s-4.33301 -23.334 -13 -32.001s-19.334 -13 -32.001 -13s-23.334 4.33301 -32.001 13s-13 19.334 -13 32.001z" />
    <glyph glyph-name="Yacute" unicode="&#xdd;" horiz-adv-x="635" 
d="M10 700h80l225 -370h5l225 370h80l-275 -445v-255h-65v255zM290 790l90 145h75v-1l-115 -144h-50z" />
    <glyph glyph-name="Thorn" unicode="&#xde;" horiz-adv-x="700" 
d="M90 0v700h65v-140h270c72.667 0 130.834 -19.5 174.501 -58.5s65.5 -87.833 65.5 -146.5s-21.833 -107.5 -65.5 -146.5s-101.834 -58.5 -174.501 -58.5h-270v-150h-65zM155 210h270c56.667 0 100 13.167 130 39.5s45 61.5 45 105.5s-15 79.167 -45 105.5
s-73.333 39.5 -130 39.5h-270v-290z" />
    <glyph glyph-name="germandbls" unicode="&#xdf;" horiz-adv-x="570" 
d="M80 0l-0.00195312 530c0 50.667 18.333 93.334 55 128.001s83.334 52 140.001 52s103.334 -17 140.001 -51s55 -75.333 55 -124c0 -49.333 -16.667 -89.333 -50 -120c-15.333 -13.333 -32 -23.333 -50 -30v-5c28 -4.66699 53.667 -14.667 77 -30
c52 -31.333 78 -81.333 78 -150c0 -58 -19.5 -105.833 -58.5 -143.5s-89.5 -56.5 -151.5 -56.5h-60v55h60c45.333 0 81.666 13.5 108.999 40.5s41 61.833 41 104.5c0 40.667 -14.667 75 -44 103s-66.333 42 -111 42h-54v55c45.333 0 82.333 13 111 39s43 58 43 96
c0 33.333 -12.667 61.666 -38 84.999s-57.666 35 -96.999 35c-40 0 -72.5 -12.167 -97.5 -36.5s-37.5 -55.5 -37.5 -93.5v-525h-60z" />
    <glyph glyph-name="agrave" unicode="&#xe0;" horiz-adv-x="615" 
d="M45 250c0 74 23.333 135.833 70 185.5s103.334 74.5 170.001 74.5c47.333 0 87.333 -11.5 120 -34.5s55.667 -48.167 69 -75.5h1v100h60v-500h-60v100h-1c-13.333 -27.333 -36.333 -52.5 -69 -75.5s-72.667 -34.5 -120 -34.5c-66.667 0 -123.334 24.833 -170.001 74.5
s-70 111.5 -70 185.5zM105 250c0 -58.667 18.167 -107.5 54.5 -146.5s79.833 -58.5 130.5 -58.5c49.333 0 92.5 19.5 129.5 58.5s55.5 87.833 55.5 146.5s-18.5 107.5 -55.5 146.5s-80.167 58.5 -129.5 58.5c-50.667 0 -94.167 -19.5 -130.5 -58.5
s-54.5 -87.833 -54.5 -146.5zM155 744v1h75l90 -145h-50z" />
    <glyph glyph-name="aacute" unicode="&#xe1;" horiz-adv-x="615" 
d="M45 250c0 74 23.333 135.833 70 185.5s103.334 74.5 170.001 74.5c47.333 0 87.333 -11.5 120 -34.5s55.667 -48.167 69 -75.5h1v100h60v-500h-60v100h-1c-13.333 -27.333 -36.333 -52.5 -69 -75.5s-72.667 -34.5 -120 -34.5c-66.667 0 -123.334 24.833 -170.001 74.5
s-70 111.5 -70 185.5zM105 250c0 -58.667 18.167 -107.5 54.5 -146.5s79.833 -58.5 130.5 -58.5c49.333 0 92.5 19.5 129.5 58.5s55.5 87.833 55.5 146.5s-18.5 107.5 -55.5 146.5s-80.167 58.5 -129.5 58.5c-50.667 0 -94.167 -19.5 -130.5 -58.5
s-54.5 -87.833 -54.5 -146.5zM245 600l90 145h75v-1l-115 -144h-50z" />
    <glyph glyph-name="acircumflex" unicode="&#xe2;" horiz-adv-x="615" 
d="M45 250c0 74 23.333 135.833 70 185.5s103.334 74.5 170.001 74.5c47.333 0 87.333 -11.5 120 -34.5s55.667 -48.167 69 -75.5h1v100h60v-500h-60v100h-1c-13.333 -27.333 -36.333 -52.5 -69 -75.5s-72.667 -34.5 -120 -34.5c-66.667 0 -123.334 24.833 -170.001 74.5
s-70 111.5 -70 185.5zM105 250c0 -58.667 18.167 -107.5 54.5 -146.5s79.833 -58.5 130.5 -58.5c49.333 0 92.5 19.5 129.5 58.5s55.5 87.833 55.5 146.5s-18.5 107.5 -55.5 146.5s-80.167 58.5 -129.5 58.5c-50.667 0 -94.167 -19.5 -130.5 -58.5
s-54.5 -87.833 -54.5 -146.5zM150 600v1l110 144h65l110 -144v-1h-60l-75 100h-15l-75 -100h-60z" />
    <glyph glyph-name="atilde" unicode="&#xe3;" horiz-adv-x="615" 
d="M45 250c0 74 23.333 135.833 70 185.5s103.334 74.5 170.001 74.5c47.333 0 87.333 -11.5 120 -34.5s55.667 -48.167 69 -75.5h1v100h60v-500h-60v100h-1c-13.333 -27.333 -36.333 -52.5 -69 -75.5s-72.667 -34.5 -120 -34.5c-66.667 0 -123.334 24.833 -170.001 74.5
s-70 111.5 -70 185.5zM105 250c0 -58.667 18.167 -107.5 54.5 -146.5s79.833 -58.5 130.5 -58.5c49.333 0 92.5 19.5 129.5 58.5s55.5 87.833 55.5 146.5s-18.5 107.5 -55.5 146.5s-80.167 58.5 -129.5 58.5c-50.667 0 -94.167 -19.5 -130.5 -58.5
s-54.5 -87.833 -54.5 -146.5zM145 605l0.000976562 26c0 24.667 7.83301 44.834 23.5 60.501s36.167 23.5 61.5 23.5c23.333 0 48.333 -10.667 75 -32c24.667 -22 43 -33 55 -33c10 0 18.333 3.33301 25 10s10 15 10 25v25h50v-26c0 -24.667 -7.83301 -44.834 -23.5 -60.501
s-36.167 -23.5 -61.5 -23.5c-24.667 0 -49.334 11 -74.001 33c-1.33301 0.666992 -5 3.66699 -11 9s-10 8.5 -12 9.5s-5.33301 3 -10 6s-8.66699 5 -12 6s-7 1.5 -11 1.5c-10 0 -18.333 -3.33301 -25 -10s-10 -15 -10 -25v-25h-50z" />
    <glyph glyph-name="adieresis" unicode="&#xe4;" horiz-adv-x="615" 
d="M45 250c0 74 23.333 135.833 70 185.5s103.334 74.5 170.001 74.5c47.333 0 87.333 -11.5 120 -34.5s55.667 -48.167 69 -75.5h1v100h60v-500h-60v100h-1c-13.333 -27.333 -36.333 -52.5 -69 -75.5s-72.667 -34.5 -120 -34.5c-66.667 0 -123.334 24.833 -170.001 74.5
s-70 111.5 -70 185.5zM105 250c0 -58.667 18.167 -107.5 54.5 -146.5s79.833 -58.5 130.5 -58.5c49.333 0 92.5 19.5 129.5 58.5s55.5 87.833 55.5 146.5s-18.5 107.5 -55.5 146.5s-80.167 58.5 -129.5 58.5c-50.667 0 -94.167 -19.5 -130.5 -58.5
s-54.5 -87.833 -54.5 -146.5zM330 660c0 12.667 4.33301 23.334 13 32.001s19.334 13 32.001 13s23.334 -4.33301 32.001 -13s13 -19.334 13 -32.001s-4.33301 -23.334 -13 -32.001s-19.334 -13 -32.001 -13s-23.334 4.33301 -32.001 13s-13 19.334 -13 32.001zM160 660
c0 12.667 4.33301 23.334 13 32.001s19.334 13 32.001 13s23.334 -4.33301 32.001 -13s13 -19.334 13 -32.001s-4.33301 -23.334 -13 -32.001s-19.334 -13 -32.001 -13s-23.334 4.33301 -32.001 13s-13 19.334 -13 32.001z" />
    <glyph glyph-name="aring" unicode="&#xe5;" horiz-adv-x="615" 
d="M45 250c0 74 23.333 135.833 70 185.5s103.334 74.5 170.001 74.5c47.333 0 87.333 -11.5 120 -34.5s55.667 -48.167 69 -75.5h1v100h60v-500h-60v100h-1c-13.333 -27.333 -36.333 -52.5 -69 -75.5s-72.667 -34.5 -120 -34.5c-66.667 0 -123.334 24.833 -170.001 74.5
s-70 111.5 -70 185.5zM105 250c0 -58.667 18.167 -107.5 54.5 -146.5s79.833 -58.5 130.5 -58.5c49.333 0 92.5 19.5 129.5 58.5s55.5 87.833 55.5 146.5s-18.5 107.5 -55.5 146.5s-80.167 58.5 -129.5 58.5c-50.667 0 -94.167 -19.5 -130.5 -58.5
s-54.5 -87.833 -54.5 -146.5zM190 685c0 28 9.66699 51.667 29 71s43 29 71 29s51.667 -9.66699 71 -29s29 -43 29 -71s-9.66699 -51.667 -29 -71s-43 -29 -71 -29s-51.667 9.66699 -71 29s-29 43 -29 71zM235 685c0 -15.333 5.33301 -28.333 16 -39s23.667 -16 39 -16
s28.333 5.33301 39 16s16 23.667 16 39s-5.33301 28.333 -16 39s-23.667 16 -39 16s-28.333 -5.33301 -39 -16s-16 -23.667 -16 -39z" />
    <glyph glyph-name="ae" unicode="&#xe6;" horiz-adv-x="965" 
d="M60 140c0 44 16.5 80.0029 49.5 108.003s79.833 42 140.5 42h180v33c0 41.333 -11.833 73.666 -35.5 96.999s-56.834 35 -99.501 35c-52.667 0 -94 -17.667 -124 -53c-14 -16 -24.333 -33.333 -31 -52h-60c9.33301 31.333 22.666 58 39.999 80
c42.667 53.333 101 80 175 80c56.667 0 102.667 -17.667 138 -53c14.667 -14 27 -31.333 37 -52h5c12.667 20 28.334 37.333 47.001 52c42 35.333 93 53 153 53c70 0 128.333 -23.667 175 -71s70 -107 70 -179v-25h-430c2.66699 -54.667 21.667 -100 57 -136s78 -54 128 -54
c54 0 99.333 18.333 136 55c16 16 29 34.333 39 55h60c-12 -30.667 -28.667 -58.334 -50 -83.001c-48 -54.667 -109.667 -82 -185 -82c-65.333 0 -119.666 21.667 -162.999 65c-20 20 -35.667 41.667 -47 65h-5c-12.667 -24 -29.667 -45.667 -51 -65
c-47.333 -43.333 -105.333 -65 -174 -65c-53.333 0 -95.833 14.167 -127.5 42.5s-47.5 64.166 -47.5 107.499zM490 290.003h365c-5.33301 48.667 -24.333 88.334 -57 119.001s-73.667 46 -123 46c-48.667 0 -89.667 -15.333 -123 -46s-54 -70.334 -62 -119.001zM120 140.003
c0 -29.333 10.5 -52.5 31.5 -69.5s52.167 -25.5 93.5 -25.5c54 0 98.333 18.333 133 55s52 81.667 52 135h-180c-44 0 -76.667 -8.5 -98 -25.5s-32 -40.167 -32 -69.5z" />
    <glyph glyph-name="ccedilla" unicode="&#xe7;" horiz-adv-x="570" 
d="M45 250c0 74 23.8301 135.836 71.4971 185.503s105.5 74.5 173.5 74.5c79.333 0 142.333 -29.333 189 -88c20.667 -25.333 36 -54.333 46 -87h-60c-9.33301 23.333 -21.666 43.333 -36.999 60c-34.667 40 -80.667 60 -138 60c-50.667 0 -94.167 -19.5 -130.5 -58.5
s-54.5 -87.833 -54.5 -146.5s18.167 -107.5 54.5 -146.5s79.833 -58.5 130.5 -58.5c58 0 105.333 21.667 142 65c17.333 20 30 41.667 38 65h60c-9.33301 -30.667 -24 -60.334 -44 -89.001c-43.333 -60.667 -103.333 -92.334 -180 -95.001l-21 -46
c22.667 -2.66699 41.667 -12 57 -28s23 -35 23 -57c0 -28.667 -9.5 -51.667 -28.5 -69s-44.5 -26 -76.5 -26c-18.667 0 -36 3.33301 -52 10c-8 3.33301 -14 6.66602 -18 9.99902v45c4 -3.33301 10 -6.66602 18 -9.99902c16 -6.66699 33.333 -10 52 -10
c17.333 0 30.833 4.5 40.5 13.5s14.5 21.167 14.5 36.5c0 13.333 -5.16699 24.166 -15.5 32.499s-25.166 12.5 -44.499 12.5h-35l41 87c-61.333 6.66699 -112.666 34.167 -153.999 82.5s-62 106.833 -62 175.5z" />
    <glyph glyph-name="egrave" unicode="&#xe8;" horiz-adv-x="590" 
d="M45 250c0 74.667 24 136.667 72 186s107.333 74 178 74c70 0 129.167 -24.5 177.5 -73.5s72.5 -109.5 72.5 -181.5v-25h-440c2.66699 -52.667 22 -96.667 58 -132s80 -53 132 -53c57.333 0 104.333 18.333 141 55c17.333 16 30.333 34.333 39 55h60
c-12 -31.333 -29 -59 -51 -83c-49.333 -54.667 -112.333 -82 -189 -82c-70.667 0 -130 24.667 -178 74s-72 111.333 -72 186zM105 285h374.998c-5.33301 48.667 -25.166 89.167 -59.499 121.5s-76.166 48.5 -125.499 48.5s-91.333 -16 -126 -48s-56 -72.667 -64 -122z
M159.998 744v1h75l90 -145h-50z" />
    <glyph glyph-name="eacute" unicode="&#xe9;" horiz-adv-x="590" 
d="M45 250c0 74.667 24 136.667 72 186s107.333 74 178 74c70 0 129.167 -24.5 177.5 -73.5s72.5 -109.5 72.5 -181.5v-25h-440c2.66699 -52.667 22 -96.667 58 -132s80 -53 132 -53c57.333 0 104.333 18.333 141 55c17.333 16 30.333 34.333 39 55h60
c-12 -31.333 -29 -59 -51 -83c-49.333 -54.667 -112.333 -82 -189 -82c-70.667 0 -130 24.667 -178 74s-72 111.333 -72 186zM105 285h374.998c-5.33301 48.667 -25.166 89.167 -59.499 121.5s-76.166 48.5 -125.499 48.5s-91.333 -16 -126 -48s-56 -72.667 -64 -122z
M269.998 600l90 145h75v-1l-115 -144h-50z" />
    <glyph glyph-name="ecircumflex" unicode="&#xea;" horiz-adv-x="590" 
d="M45 250c0 74.667 24 136.667 72 186s107.333 74 178 74c70 0 129.167 -24.5 177.5 -73.5s72.5 -109.5 72.5 -181.5v-25h-440c2.66699 -52.667 22 -96.667 58 -132s80 -53 132 -53c57.333 0 104.333 18.333 141 55c17.333 16 30.333 34.333 39 55h60
c-12 -31.333 -29 -59 -51 -83c-49.333 -54.667 -112.333 -82 -189 -82c-70.667 0 -130 24.667 -178 74s-72 111.333 -72 186zM105 285h374.998c-5.33301 48.667 -25.166 89.167 -59.499 121.5s-76.166 48.5 -125.499 48.5s-91.333 -16 -126 -48s-56 -72.667 -64 -122z
M149.998 600v1l110 144h65l110 -144v-1h-60l-75 100h-15l-75 -100h-60z" />
    <glyph glyph-name="edieresis" unicode="&#xeb;" horiz-adv-x="590" 
d="M45 250c0 74.667 24 136.667 72 186s107.333 74 178 74c70 0 129.167 -24.5 177.5 -73.5s72.5 -109.5 72.5 -181.5v-25h-440c2.66699 -52.667 22 -96.667 58 -132s80 -53 132 -53c57.333 0 104.333 18.333 141 55c17.333 16 30.333 34.333 39 55h60
c-12 -31.333 -29 -59 -51 -83c-49.333 -54.667 -112.333 -82 -189 -82c-70.667 0 -130 24.667 -178 74s-72 111.333 -72 186zM105 285h374.998c-5.33301 48.667 -25.166 89.167 -59.499 121.5s-76.166 48.5 -125.499 48.5s-91.333 -16 -126 -48s-56 -72.667 -64 -122z
M329.998 660c0 12.667 4.33301 23.334 13 32.001s19.334 13 32.001 13s23.334 -4.33301 32.001 -13s13 -19.334 13 -32.001s-4.33301 -23.334 -13 -32.001s-19.334 -13 -32.001 -13s-23.334 4.33301 -32.001 13s-13 19.334 -13 32.001zM159.998 660
c0 12.667 4.33301 23.334 13 32.001s19.334 13 32.001 13s23.334 -4.33301 32.001 -13s13 -19.334 13 -32.001s-4.33301 -23.334 -13 -32.001s-19.334 -13 -32.001 -13s-23.334 4.33301 -32.001 13s-13 19.334 -13 32.001z" />
    <glyph glyph-name="igrave" unicode="&#xec;" horiz-adv-x="220" 
d="M80 0v500h60v-500h-60zM-30 744v1h75l90 -145h-50z" />
    <glyph glyph-name="iacute" unicode="&#xed;" horiz-adv-x="220" 
d="M80 0v500h60v-500h-60zM85 600l90 145h75v-1l-115 -144h-50z" />
    <glyph glyph-name="icircumflex" unicode="&#xee;" horiz-adv-x="220" 
d="M80 0v500h60v-500h-60zM-35 594v1l110 144h65l110 -144v-1h-60l-75 100h-15l-75 -100h-60z" />
    <glyph glyph-name="idieresis" unicode="&#xef;" horiz-adv-x="220" 
d="M80 0v500h60v-500h-60zM150 660c0 12.667 4.33301 23.334 13 32.001s19.334 13 32.001 13s23.334 -4.33301 32.001 -13s13 -19.334 13 -32.001s-4.33301 -23.334 -13 -32.001s-19.334 -13 -32.001 -13s-23.334 4.33301 -32.001 13s-13 19.334 -13 32.001zM-20 660
c0 12.667 4.33301 23.334 13 32.001s19.334 13 32.001 13s23.334 -4.33301 32.001 -13s13 -19.334 13 -32.001s-4.33301 -23.334 -13 -32.001s-19.334 -13 -32.001 -13s-23.334 4.33301 -32.001 13s-13 19.334 -13 32.001z" />
    <glyph glyph-name="eth" unicode="&#xf0;" horiz-adv-x="575" 
d="M45 225c0 68 22.1699 124.164 66.5029 168.497s100.5 66.5 168.5 66.5c54 0 100 -15 138 -45c16 -12 29.667 -27 41 -45h1c-9.33301 36.667 -26.333 71.334 -51 104.001s-57.334 67.667 -98.001 105l-1 1l-120 -80v55l90 60c-39.333 36.667 -71 65 -95 85h71
c33.333 -28 54.666 -46.333 63.999 -55l130 85v-55l-95 -65c38.667 -40 68.667 -74.167 90 -102.5s40 -65.666 56 -111.999s24 -98.166 24 -155.499c0 -74 -22.333 -134.167 -67 -180.5s-102.334 -69.5 -173.001 -69.5c-70 0 -127.5 22.167 -172.5 66.5
s-67.5 100.5 -67.5 168.5zM105.003 224.997c0 -52 16.999 -95.001 50.999 -129.001s77 -51 129 -51s95 17 129 51s51 77 51 129c0 52.667 -16.667 95.834 -50 129.501s-76.666 50.5 -129.999 50.5c-52 0 -95 -17 -129 -51s-51 -77 -51 -129z" />
    <glyph glyph-name="ntilde" unicode="&#xf1;" horiz-adv-x="580" 
d="M80 0v500h60v-85h1c12 24.667 33.167 46.667 63.5 66s68.833 29 115.5 29c56 0 101.667 -19.333 137 -58s53 -91 53 -157v-295h-60v295c0 51.333 -12.5 90.833 -37.5 118.5s-59.167 41.5 -102.5 41.5c-48 0 -88.333 -17 -121 -51s-49 -77 -49 -129v-275h-60zM140 605
l0.000976562 26c0 24.667 7.83301 44.834 23.5 60.501s36.167 23.5 61.5 23.5c23.333 0 48.333 -10.667 75 -32c24.667 -22 43 -33 55 -33c10 0 18.333 3.33301 25 10s10 15 10 25v25h50v-26c0 -24.667 -7.83301 -44.834 -23.5 -60.501s-36.167 -23.5 -61.5 -23.5
c-24.667 0 -49.334 11 -74.001 33c-1.33301 0.666992 -5 3.66699 -11 9s-10 8.5 -12 9.5s-5.33301 3 -10 6s-8.66699 5 -12 6s-7 1.5 -11 1.5c-10 0 -18.333 -3.33301 -25 -10s-10 -15 -10 -25v-25h-50z" />
    <glyph glyph-name="ograve" unicode="&#xf2;" 
d="M45 250c0 74.667 24.333 136.667 73 186s109.334 74 182.001 74s133.334 -24.667 182.001 -74s73 -111.333 73 -186s-24.333 -136.667 -73 -186s-109.334 -74 -182.001 -74s-133.334 24.667 -182.001 74s-73 111.333 -73 186zM105 250c0 -59.333 18.667 -108.333 56 -147
s83.666 -58 138.999 -58s101.666 19.333 138.999 58s56 87.667 56 147s-18.667 108.333 -56 147s-83.666 58 -138.999 58s-101.666 -19.333 -138.999 -58s-56 -87.667 -56 -147zM165 744v1h75l90 -145h-50z" />
    <glyph glyph-name="oacute" unicode="&#xf3;" 
d="M45 250c0 74.667 24.333 136.667 73 186s109.334 74 182.001 74s133.334 -24.667 182.001 -74s73 -111.333 73 -186s-24.333 -136.667 -73 -186s-109.334 -74 -182.001 -74s-133.334 24.667 -182.001 74s-73 111.333 -73 186zM105 250c0 -59.333 18.667 -108.333 56 -147
s83.666 -58 138.999 -58s101.666 19.333 138.999 58s56 87.667 56 147s-18.667 108.333 -56 147s-83.666 58 -138.999 58s-101.666 -19.333 -138.999 -58s-56 -87.667 -56 -147zM270 600l90 145h75v-1l-115 -144h-50z" />
    <glyph glyph-name="ocircumflex" unicode="&#xf4;" 
d="M45 250c0 74.667 24.333 136.667 73 186s109.334 74 182.001 74s133.334 -24.667 182.001 -74s73 -111.333 73 -186s-24.333 -136.667 -73 -186s-109.334 -74 -182.001 -74s-133.334 24.667 -182.001 74s-73 111.333 -73 186zM105 250c0 -59.333 18.667 -108.333 56 -147
s83.666 -58 138.999 -58s101.666 19.333 138.999 58s56 87.667 56 147s-18.667 108.333 -56 147s-83.666 58 -138.999 58s-101.666 -19.333 -138.999 -58s-56 -87.667 -56 -147zM155 600v1l110 144h65l110 -144v-1h-60l-75 100h-15l-75 -100h-60z" />
    <glyph glyph-name="otilde" unicode="&#xf5;" 
d="M45 250c0 74.667 24.333 136.667 73 186s109.334 74 182.001 74s133.334 -24.667 182.001 -74s73 -111.333 73 -186s-24.333 -136.667 -73 -186s-109.334 -74 -182.001 -74s-133.334 24.667 -182.001 74s-73 111.333 -73 186zM105 250c0 -59.333 18.667 -108.333 56 -147
s83.666 -58 138.999 -58s101.666 19.333 138.999 58s56 87.667 56 147s-18.667 108.333 -56 147s-83.666 58 -138.999 58s-101.666 -19.333 -138.999 -58s-56 -87.667 -56 -147zM150 605l0.000976562 26c0 24.667 7.83301 44.834 23.5 60.501s36.167 23.5 61.5 23.5
c23.333 0 48.333 -10.667 75 -32c24.667 -22 43 -33 55 -33c10 0 18.333 3.33301 25 10s10 15 10 25v25h50v-26c0 -24.667 -7.83301 -44.834 -23.5 -60.501s-36.167 -23.5 -61.5 -23.5c-24.667 0 -49.334 11 -74.001 33c-1.33301 0.666992 -5 3.66699 -11 9s-10 8.5 -12 9.5
s-5.33301 3 -10 6s-8.66699 5 -12 6s-7 1.5 -11 1.5c-10 0 -18.333 -3.33301 -25 -10s-10 -15 -10 -25v-25h-50z" />
    <glyph glyph-name="odieresis" unicode="&#xf6;" 
d="M45 250c0 74.667 24.333 136.667 73 186s109.334 74 182.001 74s133.334 -24.667 182.001 -74s73 -111.333 73 -186s-24.333 -136.667 -73 -186s-109.334 -74 -182.001 -74s-133.334 24.667 -182.001 74s-73 111.333 -73 186zM105 250c0 -59.333 18.667 -108.333 56 -147
s83.666 -58 138.999 -58s101.666 19.333 138.999 58s56 87.667 56 147s-18.667 108.333 -56 147s-83.666 58 -138.999 58s-101.666 -19.333 -138.999 -58s-56 -87.667 -56 -147zM340 660c0 12.667 4.33301 23.334 13 32.001s19.334 13 32.001 13s23.334 -4.33301 32.001 -13
s13 -19.334 13 -32.001s-4.33301 -23.334 -13 -32.001s-19.334 -13 -32.001 -13s-23.334 4.33301 -32.001 13s-13 19.334 -13 32.001zM170 660c0 12.667 4.33301 23.334 13 32.001s19.334 13 32.001 13s23.334 -4.33301 32.001 -13s13 -19.334 13 -32.001
s-4.33301 -23.334 -13 -32.001s-19.334 -13 -32.001 -13s-23.334 4.33301 -32.001 13s-13 19.334 -13 32.001z" />
    <glyph glyph-name="divide" unicode="&#xf7;" horiz-adv-x="500" 
d="M200 445c0 13.333 4.66699 25 14 35s21.333 15 36 15s26.667 -5 36 -15s14 -21.667 14 -35s-4.66699 -25 -14 -35s-21.333 -15 -36 -15s-26.667 5 -36 15s-14 21.667 -14 35zM60 240v60h380v-60h-380zM200 95c0 13.333 4.66699 25 14 35s21.333 15 36 15
s26.667 -5 36 -15s14 -21.667 14 -35s-4.66699 -25 -14 -35s-21.333 -15 -36 -15s-26.667 5 -36 15s-14 21.667 -14 35z" />
    <glyph glyph-name="oslash" unicode="&#xf8;" 
d="M40 -5v75.001l44 37c-26 41.333 -39 89 -39 143c0 74.667 24.333 136.667 73 186s109.334 74 182.001 74c70 0 130 -24 180 -72l80 67v-75l-44 -37c26 -42.667 39 -90.334 39 -143.001c0 -74.667 -24.333 -136.667 -73 -186s-109.334 -74 -182.001 -74
c-72 0 -132 24 -180 72zM105 250.001c0 -39.333 8.33203 -74.333 24.999 -105l305 256c-36 36 -81 54 -135 54c-55.333 0 -101.666 -19.333 -138.999 -58s-56 -87.667 -56 -147zM469.999 354.001l-305.999 -255.001c36 -36 81.333 -54 136 -54
c55.333 0 101.666 19.333 138.999 58s56 87.667 56 147c0 38.667 -8.33301 73.334 -25 104.001z" />
    <glyph glyph-name="ugrave" unicode="&#xf9;" horiz-adv-x="590" 
d="M80 205l-0.00195312 295h60v-295c0 -51.333 12.5 -90.833 37.5 -118.5s59.167 -41.5 102.5 -41.5c48 0 88.333 17 121 51s49 77 49 129v275h60v-500h-60v85h-1c-13.333 -25.333 -34.666 -47.5 -63.999 -66.5s-67.666 -28.5 -114.999 -28.5c-56 0 -101.667 19.333 -137 58
s-53 91 -53 157zM164.998 744v1h75l90 -145h-50z" />
    <glyph glyph-name="uacute" unicode="&#xfa;" horiz-adv-x="590" 
d="M80 205l-0.00195312 295h60v-295c0 -51.333 12.5 -90.833 37.5 -118.5s59.167 -41.5 102.5 -41.5c48 0 88.333 17 121 51s49 77 49 129v275h60v-500h-60v85h-1c-13.333 -25.333 -34.666 -47.5 -63.999 -66.5s-67.666 -28.5 -114.999 -28.5c-56 0 -101.667 19.333 -137 58
s-53 91 -53 157zM264.998 600l90 145h75v-1l-115 -144h-50z" />
    <glyph glyph-name="ucircumflex" unicode="&#xfb;" horiz-adv-x="590" 
d="M80 205l-0.00195312 295h60v-295c0 -51.333 12.5 -90.833 37.5 -118.5s59.167 -41.5 102.5 -41.5c48 0 88.333 17 121 51s49 77 49 129v275h60v-500h-60v85h-1c-13.333 -25.333 -34.666 -47.5 -63.999 -66.5s-67.666 -28.5 -114.999 -28.5c-56 0 -101.667 19.333 -137 58
s-53 91 -53 157zM154.998 600v1l110 144h65l110 -144v-1h-60l-75 100h-15l-75 -100h-60z" />
    <glyph glyph-name="udieresis" unicode="&#xfc;" horiz-adv-x="590" 
d="M80 205l-0.00195312 295h60v-295c0 -51.333 12.5 -90.833 37.5 -118.5s59.167 -41.5 102.5 -41.5c48 0 88.333 17 121 51s49 77 49 129v275h60v-500h-60v85h-1c-13.333 -25.333 -34.666 -47.5 -63.999 -66.5s-67.666 -28.5 -114.999 -28.5c-56 0 -101.667 19.333 -137 58
s-53 91 -53 157zM334.998 660c0 12.667 4.33301 23.334 13 32.001s19.334 13 32.001 13s23.334 -4.33301 32.001 -13s13 -19.334 13 -32.001s-4.33301 -23.334 -13 -32.001s-19.334 -13 -32.001 -13s-23.334 4.33301 -32.001 13s-13 19.334 -13 32.001zM164.998 660
c0 12.667 4.33301 23.334 13 32.001s19.334 13 32.001 13s23.334 -4.33301 32.001 -13s13 -19.334 13 -32.001s-4.33301 -23.334 -13 -32.001s-19.334 -13 -32.001 -13s-23.334 4.33301 -32.001 13s-13 19.334 -13 32.001z" />
    <glyph glyph-name="yacute" unicode="&#xfd;" horiz-adv-x="505" 
d="M25 500h65l115 -445h95l130 445h65l-205 -690h-65l60 190h-125zM230 600l90 145h75v-1l-115 -144h-50z" />
    <glyph glyph-name="thorn" unicode="&#xfe;" horiz-adv-x="615" 
d="M80 -190v890h60v-300h1c10.667 26.667 33 51.667 67 75s74.667 35 122 35c66.667 0 123.334 -24.833 170.001 -74.5s70 -111.5 70 -185.5s-23.333 -135.833 -70 -185.5s-103.334 -74.5 -170.001 -74.5c-47.333 0 -88 11.667 -122 35s-56.333 48.333 -67 75h-1v-290h-60z
M140 250c0 -58.667 18.5 -107.5 55.5 -146.5s80.167 -58.5 129.5 -58.5c50.667 0 94.167 19.5 130.5 58.5s54.5 87.833 54.5 146.5s-18.167 107.5 -54.5 146.5s-79.833 58.5 -130.5 58.5c-49.333 0 -92.5 -19.5 -129.5 -58.5s-55.5 -87.833 -55.5 -146.5z" />
    <glyph glyph-name="ydieresis" unicode="&#xff;" horiz-adv-x="505" 
d="M25 500h65l115 -445h95l130 445h65l-205 -690h-65l60 190h-125zM300 655c0 12.667 4.33301 23.334 13 32.001s19.334 13 32.001 13s23.334 -4.33301 32.001 -13s13 -19.334 13 -32.001s-4.33301 -23.334 -13 -32.001s-19.334 -13 -32.001 -13s-23.334 4.33301 -32.001 13
s-13 19.334 -13 32.001zM130 655c0 12.667 4.33301 23.334 13 32.001s19.334 13 32.001 13s23.334 -4.33301 32.001 -13s13 -19.334 13 -32.001s-4.33301 -23.334 -13 -32.001s-19.334 -13 -32.001 -13s-23.334 4.33301 -32.001 13s-13 19.334 -13 32.001z" />
    <glyph glyph-name="Amacron" unicode="&#x100;" horiz-adv-x="670" 
d="M25 0l185 700h250l185 -700h-65l-60 230h-370l-60 -230h-65zM165 290h340l-95 350h-150zM210 820v55h255v-55h-255z" />
    <glyph glyph-name="amacron" unicode="&#x101;" horiz-adv-x="615" 
d="M45 250c0 74 23.333 135.833 70 185.5s103.334 74.5 170.001 74.5c47.333 0 87.333 -11.5 120 -34.5s55.667 -48.167 69 -75.5h1v100h60v-500h-60v100h-1c-13.333 -27.333 -36.333 -52.5 -69 -75.5s-72.667 -34.5 -120 -34.5c-66.667 0 -123.334 24.833 -170.001 74.5
s-70 111.5 -70 185.5zM105 250c0 -58.667 18.167 -107.5 54.5 -146.5s79.833 -58.5 130.5 -58.5c49.333 0 92.5 19.5 129.5 58.5s55.5 87.833 55.5 146.5s-18.5 107.5 -55.5 146.5s-80.167 58.5 -129.5 58.5c-50.667 0 -94.167 -19.5 -130.5 -58.5
s-54.5 -87.833 -54.5 -146.5zM165 625v55h255v-55h-255z" />
    <glyph glyph-name="Abreve" unicode="&#x102;" horiz-adv-x="670" 
d="M25 0l185 700h250l185 -700h-65l-60 230h-370l-60 -230h-65zM165 290h340l-95 350h-150zM195 910h54.998c0 -20.667 7.16699 -37.5 21.5 -50.5s33.833 -19.5 58.5 -19.5s44.167 6.5 58.5 19.5s21.5 29.833 21.5 50.5h55c0 -33.333 -12.667 -61.666 -38 -84.999
s-57.666 -35 -96.999 -35s-71.666 11.667 -96.999 35s-38 51.666 -38 84.999z" />
    <glyph glyph-name="abreve" unicode="&#x103;" horiz-adv-x="615" 
d="M45 250c0 74 23.333 135.833 70 185.5s103.334 74.5 170.001 74.5c47.333 0 87.333 -11.5 120 -34.5s55.667 -48.167 69 -75.5h1v100h60v-500h-60v100h-1c-13.333 -27.333 -36.333 -52.5 -69 -75.5s-72.667 -34.5 -120 -34.5c-66.667 0 -123.334 24.833 -170.001 74.5
s-70 111.5 -70 185.5zM105 250c0 -58.667 18.167 -107.5 54.5 -146.5s79.833 -58.5 130.5 -58.5c49.333 0 92.5 19.5 129.5 58.5s55.5 87.833 55.5 146.5s-18.5 107.5 -55.5 146.5s-80.167 58.5 -129.5 58.5c-50.667 0 -94.167 -19.5 -130.5 -58.5
s-54.5 -87.833 -54.5 -146.5zM150 725h54.998c0 -20.667 7.16699 -37.5 21.5 -50.5s33.833 -19.5 58.5 -19.5s44.167 6.5 58.5 19.5s21.5 29.833 21.5 50.5h55c0 -33.333 -12.667 -61.666 -38 -84.999s-57.666 -35 -96.999 -35s-71.666 11.667 -96.999 35
s-38 51.666 -38 84.999z" />
    <glyph glyph-name="Aogonek" unicode="&#x104;" horiz-adv-x="670" 
d="M25 0l184.999 700.001h250l185 -700c-25.333 -12 -45.333 -23.667 -60 -35c-40 -30 -60 -61.667 -60 -95c0 -12.667 4.5 -23.334 13.5 -32.001s21.167 -13 36.5 -13c16.667 0 32.667 2.33301 48 7l22 8v-45c-4 -2.66699 -10.667 -6 -20 -10
c-17.333 -6.66699 -34 -10 -50 -10c-29.333 0 -53.333 8.5 -72 25.5s-28 38.5 -28 64.5c0 36 17.667 69 53 99c14.667 12.667 32.334 24.667 53.001 36h-1l-60 230h-370l-60 -230h-65zM164.999 290.001h340l-95 350h-150z" />
    <glyph glyph-name="aogonek" unicode="&#x105;" horiz-adv-x="615" 
d="M45 250c0 74 23.334 135.834 70.001 185.501s103.334 74.5 170.001 74.5c47.333 0 87.333 -11.5 120 -34.5s55.667 -48.167 69 -75.5h1v100h60v-500c-25.333 -12 -45.333 -23.667 -60 -35c-40 -30 -60 -61.667 -60 -95c0 -12.667 4.5 -23.334 13.5 -32.001
s21.167 -13 36.5 -13c16.667 0 32.667 2.33301 48 7l22 8v-45c-4 -2.66699 -10.667 -6 -20 -10c-17.333 -6.66699 -34 -10 -50 -10c-29.333 0 -53.333 8.5 -72 25.5s-28 38.5 -28 64.5c0 36 18.333 69.667 55 101c17.333 15.333 35.666 28 54.999 38v2v94h-1
c-13.333 -27.333 -36.333 -52.5 -69 -75.5s-72.667 -34.5 -120 -34.5c-66.667 0 -123.334 24.833 -170.001 74.5s-70 111.5 -70 185.5zM105.001 250.001c0 -58.667 18.167 -107.5 54.5 -146.5s79.833 -58.5 130.5 -58.5c49.333 0 92.5 19.5 129.5 58.5
s55.5 87.833 55.5 146.5s-18.5 107.5 -55.5 146.5s-80.167 58.5 -129.5 58.5c-50.667 0 -94.167 -19.5 -130.5 -58.5s-54.5 -87.833 -54.5 -146.5z" />
    <glyph glyph-name="Cacute" unicode="&#x106;" horiz-adv-x="800" 
d="M50 350c0 106.667 34.334 195.001 103.001 265.001s154.334 105 257.001 105c112 0 203 -41.667 273 -125c30 -36.667 52.333 -78.334 67 -125.001h-65c-13.333 35.333 -32.333 67 -57 95c-56.667 63.333 -129.334 95 -218.001 95c-86 0 -156.667 -28.667 -212 -86
s-83 -132 -83 -224s27.667 -166.667 83 -224s126 -86 212 -86c90.667 0 164.667 34 222 102c24.667 29.333 44 63.666 58 102.999h65c-14.667 -49.333 -37.667 -93.666 -69 -132.999c-69.333 -88 -161.333 -132 -276 -132c-102.667 0 -188.334 35 -257.001 105
s-103 158.333 -103 265zM370.001 790.001l90 145h75v-1l-115 -144h-50z" />
    <glyph glyph-name="cacute" unicode="&#x107;" horiz-adv-x="570" 
d="M45 250c0 74 23.832 135.833 71.499 185.5s105.5 74.5 173.5 74.5c79.333 0 142.333 -29.333 189 -88c20.667 -25.333 36 -54.333 46 -87h-60c-9.33301 23.333 -21.666 43.333 -36.999 60c-34.667 40 -80.667 60 -138 60c-50.667 0 -94.167 -19.5 -130.5 -58.5
s-54.5 -87.833 -54.5 -146.5s18.167 -107.5 54.5 -146.5s79.833 -58.5 130.5 -58.5c58 0 105.333 21.667 142 65c17.333 20 30 41.667 38 65h60c-10 -34 -25.667 -65 -47 -93c-50.667 -61.333 -115 -92 -193 -92c-68 0 -125.833 24.833 -173.5 74.5s-71.5 111.5 -71.5 185.5
zM254.999 600l90 145h75v-1l-115 -144h-50z" />
    <glyph glyph-name="Ccircumflex" unicode="&#x108;" horiz-adv-x="800" 
d="M50 350c0 106.667 34.334 195.001 103.001 265.001s154.334 105 257.001 105c112 0 203 -41.667 273 -125c30 -36.667 52.333 -78.334 67 -125.001h-65c-13.333 35.333 -32.333 67 -57 95c-56.667 63.333 -129.334 95 -218.001 95c-86 0 -156.667 -28.667 -212 -86
s-83 -132 -83 -224s27.667 -166.667 83 -224s126 -86 212 -86c90.667 0 164.667 34 222 102c24.667 29.333 44 63.666 58 102.999h65c-14.667 -49.333 -37.667 -93.666 -69 -132.999c-69.333 -88 -161.333 -132 -276 -132c-102.667 0 -188.334 35 -257.001 105
s-103 158.333 -103 265zM260.001 790.001v1l110 144h65l110 -144v-1h-60l-75 100h-15l-75 -100h-60z" />
    <glyph glyph-name="ccircumflex" unicode="&#x109;" horiz-adv-x="570" 
d="M45 250c0 74 23.832 135.833 71.499 185.5s105.5 74.5 173.5 74.5c79.333 0 142.333 -29.333 189 -88c20.667 -25.333 36 -54.333 46 -87h-60c-9.33301 23.333 -21.666 43.333 -36.999 60c-34.667 40 -80.667 60 -138 60c-50.667 0 -94.167 -19.5 -130.5 -58.5
s-54.5 -87.833 -54.5 -146.5s18.167 -107.5 54.5 -146.5s79.833 -58.5 130.5 -58.5c58 0 105.333 21.667 142 65c17.333 20 30 41.667 38 65h60c-10 -34 -25.667 -65 -47 -93c-50.667 -61.333 -115 -92 -193 -92c-68 0 -125.833 24.833 -173.5 74.5s-71.5 111.5 -71.5 185.5
zM144.999 600v1l110 144h65l110 -144v-1h-60l-75 100h-15l-75 -100h-60z" />
    <glyph glyph-name="Ccaron" unicode="&#x10c;" horiz-adv-x="800" 
d="M50 350c0 106.667 34.334 195.001 103.001 265.001s154.334 105 257.001 105c112 0 203 -41.667 273 -125c30 -36.667 52.333 -78.334 67 -125.001h-65c-13.333 35.333 -32.333 67 -57 95c-56.667 63.333 -129.334 95 -218.001 95c-86 0 -156.667 -28.667 -212 -86
s-83 -132 -83 -224s27.667 -166.667 83 -224s126 -86 212 -86c90.667 0 164.667 34 222 102c24.667 29.333 44 63.666 58 102.999h65c-14.667 -49.333 -37.667 -93.666 -69 -132.999c-69.333 -88 -161.333 -132 -276 -132c-102.667 0 -188.334 35 -257.001 105
s-103 158.333 -103 265zM260.001 934.001v1h60l75 -100h15l75 100h60v-1l-110 -144h-65z" />
    <glyph glyph-name="ccaron" unicode="&#x10d;" horiz-adv-x="570" 
d="M45 250c0 74 23.832 135.833 71.499 185.5s105.5 74.5 173.5 74.5c79.333 0 142.333 -29.333 189 -88c20.667 -25.333 36 -54.333 46 -87h-60c-9.33301 23.333 -21.666 43.333 -36.999 60c-34.667 40 -80.667 60 -138 60c-50.667 0 -94.167 -19.5 -130.5 -58.5
s-54.5 -87.833 -54.5 -146.5s18.167 -107.5 54.5 -146.5s79.833 -58.5 130.5 -58.5c58 0 105.333 21.667 142 65c17.333 20 30 41.667 38 65h60c-10 -34 -25.667 -65 -47 -93c-50.667 -61.333 -115 -92 -193 -92c-68 0 -125.833 24.833 -173.5 74.5s-71.5 111.5 -71.5 185.5
zM144.999 744v1h60l75 -100h15l75 100h60v-1l-110 -144h-65z" />
    <glyph glyph-name="Dcaron" unicode="&#x10e;" horiz-adv-x="720" 
d="M90 0v700h220c104.667 0 190.834 -33.167 258.501 -99.5s101.5 -149.833 101.5 -250.5s-33.833 -184.167 -101.5 -250.5s-153.834 -99.5 -258.501 -99.5h-220zM155 60h155c87.333 0 158.333 27 213 81s82 123.667 82 209s-27.333 155 -82 209s-125.667 81 -213 81h-155
v-580zM200 934v1h60l75 -100h15l75 100h60v-1l-110 -144h-65z" />
    <glyph glyph-name="dcaron" unicode="&#x10f;" horiz-adv-x="660" 
d="M45 250c0 74 23.333 135.833 70 185.5s103.334 74.5 170.001 74.5c47.333 0 87.333 -11.5 120 -34.5s55.667 -48.167 69 -75.5h1v300h60v-700h-60v100h-1c-13.333 -27.333 -36.333 -52.5 -69 -75.5s-72.667 -34.5 -120 -34.5c-66.667 0 -123.334 24.833 -170.001 74.5
s-70 111.5 -70 185.5zM105 250c0 -58.667 18.167 -107.5 54.5 -146.5s79.833 -58.5 130.5 -58.5c49.333 0 92.5 19.5 129.5 58.5s55.5 87.833 55.5 146.5s-18.5 107.5 -55.5 146.5s-80.167 58.5 -129.5 58.5c-50.667 0 -94.167 -19.5 -130.5 -58.5
s-54.5 -87.833 -54.5 -146.5zM585 668c0 10 4.5 19.168 13.5 27.501s19.5 12.5 31.5 12.5c16 0 29.167 -6.33301 39.5 -19s15.5 -31.334 15.5 -56.001c0 -29.333 -8.66699 -53.5 -26 -72.5s-40.333 -29.833 -69 -32.5v30c36.667 4.66699 55 23 55 55c0 1.33301 -1 6 -3 14
l-2 6l-4 -3c-5.33301 -1.33301 -9 -2 -11 -2c-26.667 0 -40 13.333 -40 40z" />
    <glyph glyph-name="Dcroat" unicode="&#x110;" horiz-adv-x="730" 
d="M25 315v65h75v320h220c104.667 0 190.834 -33.167 258.501 -99.5s101.5 -149.833 101.5 -250.5s-33.833 -184.167 -101.5 -250.5s-153.834 -99.5 -258.501 -99.5h-220v315h-75zM165 60h155c87.333 0 158.333 27 213 81s82 123.667 82 209s-27.333 155 -82 209
s-125.667 81 -213 81h-155v-260h185v-65h-185v-255z" />
    <glyph glyph-name="dcroat" unicode="&#x111;" horiz-adv-x="610" 
d="M45 235c0 72 21.833 130.833 65.5 176.5s98.5 68.5 164.5 68.5c56.667 0 104.334 -16.667 143.001 -50c18 -16 31.667 -32.667 41 -50h1v185h-135v55h135v80h60v-80h70v-55h-70v-565h-60v90h-1c-9.33301 -17.333 -23 -34 -41 -50
c-38.667 -33.333 -86.334 -50 -143.001 -50c-66 0 -120.833 22.833 -164.5 68.5s-65.5 104.5 -65.5 176.5zM105 235c0 -56.667 16.833 -102.5 50.5 -137.5s76.834 -52.5 129.501 -52.5c50.667 0 92.5 17.5 125.5 52.5s49.5 80.833 49.5 137.5s-16.5 102.5 -49.5 137.5
s-74.833 52.5 -125.5 52.5c-52.667 0 -95.834 -17.5 -129.501 -52.5s-50.5 -80.833 -50.5 -137.5z" />
    <glyph glyph-name="Emacron" unicode="&#x112;" horiz-adv-x="610" 
d="M90 0v700h475v-60h-410v-255h335v-60h-335v-265h410v-60h-475zM200 830v55h255v-55h-255z" />
    <glyph glyph-name="emacron" unicode="&#x113;" horiz-adv-x="590" 
d="M45 250c0 74.667 24 136.667 72 186s107.333 74 178 74c70 0 129.167 -24.5 177.5 -73.5s72.5 -109.5 72.5 -181.5v-25h-440c2.66699 -52.667 22 -96.667 58 -132s80 -53 132 -53c57.333 0 104.333 18.333 141 55c17.333 16 30.333 34.333 39 55h60
c-12 -31.333 -29 -59 -51 -83c-49.333 -54.667 -112.333 -82 -189 -82c-70.667 0 -130 24.667 -178 74s-72 111.333 -72 186zM105 285h374.998c-5.33301 48.667 -25.166 89.167 -59.499 121.5s-76.166 48.5 -125.499 48.5s-91.333 -16 -126 -48s-56 -72.667 -64 -122z
M169.998 625v55h255v-55h-255z" />
    <glyph glyph-name="Edotaccent" unicode="&#x116;" horiz-adv-x="610" 
d="M90 0v700h475v-60h-410v-255h335v-60h-335v-265h410v-60h-475zM290 850c0 12.667 4.33301 23.334 13 32.001s19.334 13 32.001 13s23.334 -4.33301 32.001 -13s13 -19.334 13 -32.001s-4.33301 -23.334 -13 -32.001s-19.334 -13 -32.001 -13s-23.334 4.33301 -32.001 13
s-13 19.334 -13 32.001z" />
    <glyph glyph-name="edotaccent" unicode="&#x117;" horiz-adv-x="590" 
d="M45 250c0 74.667 24 136.667 72 186s107.333 74 178 74c70 0 129.167 -24.5 177.5 -73.5s72.5 -109.5 72.5 -181.5v-25h-440c2.66699 -52.667 22 -96.667 58 -132s80 -53 132 -53c57.333 0 104.333 18.333 141 55c17.333 16 30.333 34.333 39 55h60
c-12 -31.333 -29 -59 -51 -83c-49.333 -54.667 -112.333 -82 -189 -82c-70.667 0 -130 24.667 -178 74s-72 111.333 -72 186zM105 285h374.998c-5.33301 48.667 -25.166 89.167 -59.499 121.5s-76.166 48.5 -125.499 48.5s-91.333 -16 -126 -48s-56 -72.667 -64 -122z
M244.998 655c0 12.667 4.33301 23.334 13 32.001s19.334 13 32.001 13s23.334 -4.33301 32.001 -13s13 -19.334 13 -32.001s-4.33301 -23.334 -13 -32.001s-19.334 -13 -32.001 -13s-23.334 4.33301 -32.001 13s-13 19.334 -13 32.001z" />
    <glyph glyph-name="Eogonek" unicode="&#x118;" horiz-adv-x="610" 
d="M90 0l-0.000976562 700.001h475v-60h-410v-255h335v-60h-335v-265h410v-60c-25.333 -12 -45.333 -23.667 -60 -35c-40 -30 -60 -61.667 -60 -95c0 -12.667 4.5 -23.334 13.5 -32.001s21.167 -13 36.5 -13c16.667 0 32.667 2.33301 48 7l22 8v-45
c-4 -2.66699 -10.667 -6 -20 -10c-17.333 -6.66699 -34 -10 -50 -10c-29.333 0 -53.333 8.5 -72 25.5s-28 38.5 -28 64.5c0 36.667 17.333 69.667 52 99c14.667 12.667 32.334 24.667 53.001 36h-410z" />
    <glyph glyph-name="eogonek" unicode="&#x119;" horiz-adv-x="590" 
d="M45 250c0 74.667 24 136.668 72 186.001s107.333 74 178 74c70 0 129.167 -24.5 177.5 -73.5s72.5 -109.5 72.5 -181.5v-25h-440c2.66699 -52.667 22 -96.667 58 -132s80 -53 132 -53c57.333 0 104.333 18.333 141 55c17.333 16 30.333 34.333 39 55h60
c-8.66699 -20 -18.667 -38.667 -30 -56c-27.333 -40 -62.333 -69.667 -105 -89c-24.667 -12 -46.334 -25.333 -65.001 -40c-43.333 -32.667 -65 -66 -65 -100c0 -12.667 4.5 -23.334 13.5 -32.001s21.167 -13 36.5 -13c16.667 0 32.667 2.33301 48 7l22 8v-45
c-4 -2.66699 -10.667 -6 -20 -10c-17.333 -6.66699 -34 -10 -50 -10c-29.333 0 -53.333 8.5 -72 25.5s-28 38.5 -28 64.5c0 45.333 29.667 87.333 89 126c-3.33301 0 -5.66602 -0.333008 -6.99902 -1h-7c-70.667 0 -130 24.667 -178 74s-72 111.333 -72 186zM105 285.001
h374.998c-5.33301 48.667 -25.166 89.167 -59.499 121.5s-76.166 48.5 -125.499 48.5s-91.333 -16 -126 -48s-56 -72.667 -64 -122z" />
    <glyph glyph-name="Ecaron" unicode="&#x11a;" horiz-adv-x="610" 
d="M90 0v700h475v-60h-410v-255h335v-60h-335v-265h410v-60h-475zM190 934v1h60l75 -100h15l75 100h60v-1l-110 -144h-65z" />
    <glyph glyph-name="ecaron" unicode="&#x11b;" horiz-adv-x="590" 
d="M45 250c0 74.667 24 136.667 72 186s107.333 74 178 74c70 0 129.167 -24.5 177.5 -73.5s72.5 -109.5 72.5 -181.5v-25h-440c2.66699 -52.667 22 -96.667 58 -132s80 -53 132 -53c57.333 0 104.333 18.333 141 55c17.333 16 30.333 34.333 39 55h60
c-12 -31.333 -29 -59 -51 -83c-49.333 -54.667 -112.333 -82 -189 -82c-70.667 0 -130 24.667 -178 74s-72 111.333 -72 186zM105 285h374.998c-5.33301 48.667 -25.166 89.167 -59.499 121.5s-76.166 48.5 -125.499 48.5s-91.333 -16 -126 -48s-56 -72.667 -64 -122z
M149.998 744v1h60l75 -100h15l75 100h60v-1l-110 -144h-65z" />
    <glyph glyph-name="Gbreve" unicode="&#x11e;" horiz-adv-x="860" 
d="M50 350c0 106.667 34.335 195 103.002 265s154.334 105 257.001 105c113.333 0 203.666 -41 270.999 -123c30 -36 53 -76.667 69 -122h-65c-15.333 35.333 -35 66 -59 92c-58 62 -130 93 -216 93s-156.667 -28.667 -212 -86s-83 -132 -83 -224s27.667 -166.667 83 -224
s126 -86 212 -86c76 0 140.5 24.833 193.5 74.5s83.5 111.5 91.5 185.5h-140v60h295v-60h-90c-14.667 -96 -53.334 -173.333 -116.001 -232s-140.667 -88 -234 -88c-102.667 0 -188.334 35 -257.001 105s-103 158.333 -103 265zM295.002 910h54.998
c0 -20.667 7.16699 -37.5 21.5 -50.5s33.833 -19.5 58.5 -19.5s44.167 6.5 58.5 19.5s21.5 29.833 21.5 50.5h55c0 -33.333 -12.667 -61.666 -38 -84.999s-57.666 -35 -96.999 -35s-71.666 11.667 -96.999 35s-38 51.666 -38 84.999z" />
    <glyph glyph-name="gbreve" unicode="&#x11f;" horiz-adv-x="615" 
d="M45 250c0 74 23.333 135.833 70 185.5s103.334 74.5 170.001 74.5c47.333 0 87.333 -11.5 120 -34.5s55.667 -48.167 69 -75.5h1v100h60v-690h-425v55h365v235h-1c-13.333 -27.333 -36.333 -52.5 -69 -75.5s-72.667 -34.5 -120 -34.5
c-66.667 0 -123.334 24.833 -170.001 74.5s-70 111.5 -70 185.5zM105 250c0 -58.667 18.167 -107.5 54.5 -146.5s79.833 -58.5 130.5 -58.5c49.333 0 92.5 19.5 129.5 58.5s55.5 87.833 55.5 146.5s-18.5 107.5 -55.5 146.5s-80.167 58.5 -129.5 58.5
c-50.667 0 -94.167 -19.5 -130.5 -58.5s-54.5 -87.833 -54.5 -146.5zM150 725h54.998c0 -20.667 7.16699 -37.5 21.5 -50.5s33.833 -19.5 58.5 -19.5s44.167 6.5 58.5 19.5s21.5 29.833 21.5 50.5h55c0 -33.333 -12.667 -61.666 -38 -84.999s-57.666 -35 -96.999 -35
s-71.666 11.667 -96.999 35s-38 51.666 -38 84.999z" />
    <glyph glyph-name="Gcommaaccent" unicode="&#x122;" horiz-adv-x="860" 
d="M50 350c0 106.667 34.335 195 103.002 265s154.334 105 257.001 105c113.333 0 203.666 -41 270.999 -123c30 -36 53 -76.667 69 -122h-65c-15.333 35.333 -35 66 -59 92c-58 62 -130 93 -216 93s-156.667 -28.667 -212 -86s-83 -132 -83 -224s27.667 -166.667 83 -224
s126 -86 212 -86c76 0 140.5 24.833 193.5 74.5s83.5 111.5 91.5 185.5h-140v60h295v-60h-90c-14.667 -96 -53.334 -173.333 -116.001 -232s-140.667 -88 -234 -88c-102.667 0 -188.334 35 -257.001 105s-103 158.333 -103 265zM355.002 -140c0 10 4.5 19.168 13.5 27.501
s19.5 12.5 31.5 12.5c16 0 29.167 -6.33301 39.5 -19s15.5 -31.334 15.5 -56.001c0 -29.333 -8.66699 -53.5 -26 -72.5s-40.333 -29.833 -69 -32.5v30c36.667 4.66699 55 23 55 55c0 1.33301 -1 6 -3 14l-2 6l-4 -3c-5.33301 -1.33301 -9 -2 -11 -2
c-26.667 0 -40 13.333 -40 40z" />
    <glyph glyph-name="gcommaaccent" unicode="&#x123;" horiz-adv-x="615" 
d="M235 665c0 29.333 8.66699 53.5 26 72.5s40.333 29.833 69 32.5v-30c-36.667 -4.66699 -55 -23 -55 -55c0 -2.66699 0.666992 -7.33398 2 -14.001l3 -6l4 2c6 2 9.66699 3 11 3c26.667 0 40 -13.333 40 -40c0 -10 -4.5 -19.167 -13.5 -27.5s-19.5 -12.5 -31.5 -12.5
c-16 0 -29.167 6.33301 -39.5 19s-15.5 31.334 -15.5 56.001zM45 250c0 74 23.333 135.833 70 185.5s103.334 74.5 170.001 74.5c47.333 0 87.333 -11.5 120 -34.5s55.667 -48.167 69 -75.5h1v100h60v-690h-425v55h365v235h-1c-13.333 -27.333 -36.333 -52.5 -69 -75.5
s-72.667 -34.5 -120 -34.5c-66.667 0 -123.334 24.833 -170.001 74.5s-70 111.5 -70 185.5zM105 250c0 -58.667 18.167 -107.5 54.5 -146.5s79.833 -58.5 130.5 -58.5c49.333 0 92.5 19.5 129.5 58.5s55.5 87.833 55.5 146.5s-18.5 107.5 -55.5 146.5
s-80.167 58.5 -129.5 58.5c-50.667 0 -94.167 -19.5 -130.5 -58.5s-54.5 -87.833 -54.5 -146.5z" />
    <glyph glyph-name="Imacron" unicode="&#x12a;" horiz-adv-x="245" 
d="M90 0v700h65v-700h-65zM-5 820v55h255v-55h-255z" />
    <glyph glyph-name="imacron" unicode="&#x12b;" horiz-adv-x="220" 
d="M80 0v500h60v-500h-60zM-20 625v55h255v-55h-255z" />
    <glyph glyph-name="Iogonek" unicode="&#x12e;" horiz-adv-x="245" 
d="M-15 -135c0 36 17.666 69.001 52.999 99.001c14.667 12.667 32.334 24.667 53.001 36h-1v700h65v-700c-25.333 -12 -45.333 -23.667 -60 -35c-40 -30 -60 -61.667 -60 -95c0 -12.667 4.5 -23.334 13.5 -32.001s21.167 -13 36.5 -13c16.667 0 32.667 2.33301 48 7l22 8
v-45c-4 -2.66699 -10.667 -6 -20 -10c-17.333 -6.66699 -34 -10 -50 -10c-29.333 0 -53.333 8.5 -72 25.5s-28 38.5 -28 64.5z" />
    <glyph glyph-name="iogonek" unicode="&#x12f;" horiz-adv-x="220" 
d="M-30 -135c0 36.667 18.334 70.668 55.001 102.001c17.333 15.333 35.666 28 54.999 38v1v494h60v-500c-25.333 -12 -45.333 -23.667 -60 -35c-40 -30 -60 -61.667 -60 -95c0 -12.667 4.5 -23.334 13.5 -32.001s21.167 -13 36.5 -13c16.667 0 32.667 2.33301 48 7l22 8
v-45c-4 -2.66699 -10.667 -6 -20 -10c-17.333 -6.66699 -34 -10 -50 -10c-29.333 0 -53.333 8.5 -72 25.5s-28 38.5 -28 64.5zM65.001 650.001c0 13.333 4.33301 24.333 13 33s19.334 13 32.001 13s23.334 -4.33301 32.001 -13s13 -19.667 13 -33
c0 -12 -4.33301 -22.333 -13 -31s-19.334 -13 -32.001 -13s-23.334 4.33301 -32.001 13s-13 19 -13 31z" />
    <glyph glyph-name="Idotaccent" unicode="&#x130;" horiz-adv-x="245" 
d="M90 0v700h65v-700h-65zM80 851c0 12.667 4.33301 23.334 13 32.001s19.334 13 32.001 13s23.334 -4.33301 32.001 -13s13 -19.334 13 -32.001s-4.33301 -23.334 -13 -32.001s-19.334 -13 -32.001 -13s-23.334 4.33301 -32.001 13s-13 19.334 -13 32.001z" />
    <glyph glyph-name="dotlessi" unicode="&#x131;" horiz-adv-x="220" 
d="M80 0v500h60v-500h-60z" />
    <glyph glyph-name="Kcommaaccent" unicode="&#x136;" horiz-adv-x="635" 
d="M90 0v700h65v-315h155l225 315h80l-245 -340l255 -360h-80l-230 325h-160v-325h-65zM290 -140c0 10 4.5 19.168 13.5 27.501s19.5 12.5 31.5 12.5c16 0 29.167 -6.33301 39.5 -19s15.5 -31.334 15.5 -56.001c0 -29.333 -8.66699 -53.5 -26 -72.5
s-40.333 -29.833 -69 -32.5v30c36.667 4.66699 55 23 55 55c0 1.33301 -1 6 -3 14l-2 6l-4 -3c-5.33301 -1.33301 -9 -2 -11 -2c-26.667 0 -40 13.333 -40 40z" />
    <glyph glyph-name="kcommaaccent" unicode="&#x137;" horiz-adv-x="515" 
d="M80 0v700h60v-410h120l165 210h70l-185 -240l200 -260h-70l-180 235h-120v-235h-60zM230 -140c0 10 4.5 19.168 13.5 27.501s19.5 12.5 31.5 12.5c16 0 29.167 -6.33301 39.5 -19s15.5 -31.334 15.5 -56.001c0 -29.333 -8.66699 -53.5 -26 -72.5
s-40.333 -29.833 -69 -32.5v30c36.667 4.66699 55 23 55 55c0 1.33301 -1 6 -3 14l-2 6l-4 -3c-5.33301 -1.33301 -9 -2 -11 -2c-26.667 0 -40 13.333 -40 40z" />
    <glyph glyph-name="Lacute" unicode="&#x139;" horiz-adv-x="545" 
d="M90 0v700h65v-640h380v-60h-445zM100 790l90 145h75v-1l-115 -144h-50z" />
    <glyph glyph-name="lacute" unicode="&#x13a;" horiz-adv-x="270" 
d="M80 0v700h60v-645h115v-55h-175zM85 790l90 145h75v-1l-115 -144h-50z" />
    <glyph glyph-name="Lcommaaccent" unicode="&#x13b;" horiz-adv-x="545" 
d="M90 0v700h65v-640h380v-60h-445zM270 -140c0 10 4.5 19.168 13.5 27.501s19.5 12.5 31.5 12.5c16 0 29.167 -6.33301 39.5 -19s15.5 -31.334 15.5 -56.001c0 -29.333 -8.66699 -53.5 -26 -72.5s-40.333 -29.833 -69 -32.5v30c36.667 4.66699 55 23 55 55
c0 1.33301 -1 6 -3 14l-2 6l-4 -3c-5.33301 -1.33301 -9 -2 -11 -2c-26.667 0 -40 13.333 -40 40z" />
    <glyph glyph-name="lcommaaccent" unicode="&#x13c;" horiz-adv-x="270" 
d="M80 0v700h60v-645h115v-55h-175zM119 -140c0 10 4.5 19.168 13.5 27.501s19.5 12.5 31.5 12.5c16 0 29.167 -6.33301 39.5 -19s15.5 -31.334 15.5 -56.001c0 -29.333 -8.66699 -53.5 -26 -72.5s-40.333 -29.833 -69 -32.5v30c36.667 4.66699 55 23 55 55
c0 1.33301 -1 6 -3 14l-2 6l-4 -3c-5.33301 -1.33301 -9 -2 -11 -2c-26.667 0 -40 13.333 -40 40z" />
    <glyph glyph-name="Lcaron" unicode="&#x13d;" horiz-adv-x="545" 
d="M90 0v700h65v-640h380v-60h-445zM250 670c0 10 4.5 19.168 13.5 27.501s19.5 12.5 31.5 12.5c16 0 29.167 -6.33301 39.5 -19s15.5 -31.334 15.5 -56.001c0 -29.333 -8.66699 -53.5 -26 -72.5s-40.333 -29.833 -69 -32.5v30c36.667 4.66699 55 23 55 55
c0 1.33301 -1 6 -3 14l-2 6l-4 -3c-5.33301 -1.33301 -9 -2 -11 -2c-26.667 0 -40 13.333 -40 40z" />
    <glyph glyph-name="lcaron" unicode="&#x13e;" horiz-adv-x="270" 
d="M80 0v700h60v-645h115v-55h-175zM195 670c0 10 4.5 19.168 13.5 27.501s19.5 12.5 31.5 12.5c16 0 29.167 -6.33301 39.5 -19s15.5 -31.334 15.5 -56.001c0 -29.333 -8.66699 -53.5 -26 -72.5s-40.333 -29.833 -69 -32.5v30c36.667 4.66699 55 23 55 55
c0 1.33301 -1 6 -3 14l-2 6l-4 -3c-5.33301 -1.33301 -9 -2 -11 -2c-26.667 0 -40 13.333 -40 40z" />
    <glyph glyph-name="Lslash" unicode="&#x141;" horiz-adv-x="545" 
d="M25 245v65l65 30v360h65v-330l150 70v-65l-150 -70v-245h380v-60h-445v275z" />
    <glyph glyph-name="lslash" unicode="&#x142;" horiz-adv-x="280" 
d="M5 245v60l85 40v355h60v-330l95 45v-60l-95 -45v-255h115v-55h-175v285z" />
    <glyph glyph-name="Nacute" unicode="&#x143;" horiz-adv-x="725" 
d="M90 0v700h100l380 -635h1l-1 10v625h65v-700h-100l-380 635h-1l1 -10v-625h-65zM335 790l90 145h75v-1l-115 -144h-50z" />
    <glyph glyph-name="nacute" unicode="&#x144;" horiz-adv-x="580" 
d="M80 0v500h60v-85h1c12 24.667 33.167 46.667 63.5 66s68.833 29 115.5 29c56 0 101.667 -19.333 137 -58s53 -91 53 -157v-295h-60v295c0 51.333 -12.5 90.833 -37.5 118.5s-59.167 41.5 -102.5 41.5c-48 0 -88.333 -17 -121 -51s-49 -77 -49 -129v-275h-60zM265 600
l90 145h75v-1l-115 -144h-50z" />
    <glyph glyph-name="Ncommaaccent" unicode="&#x145;" horiz-adv-x="725" 
d="M90 0v700h100l380 -635h1l-1 10v625h65v-700h-100l-380 635h-1l1 -10v-625h-65zM315 -140c0 10 4.5 19.168 13.5 27.501s19.5 12.5 31.5 12.5c16 0 29.167 -6.33301 39.5 -19s15.5 -31.334 15.5 -56.001c0 -29.333 -8.66699 -53.5 -26 -72.5s-40.333 -29.833 -69 -32.5
v30c36.667 4.66699 55 23 55 55c0 1.33301 -1 6 -3 14l-2 6l-4 -3c-5.33301 -1.33301 -9 -2 -11 -2c-26.667 0 -40 13.333 -40 40z" />
    <glyph glyph-name="ncommaaccent" unicode="&#x146;" horiz-adv-x="580" 
d="M80 0v500h60v-85h1c12 24.667 33.167 46.667 63.5 66s68.833 29 115.5 29c56 0 101.667 -19.333 137 -58s53 -91 53 -157v-295h-60v295c0 51.333 -12.5 90.833 -37.5 118.5s-59.167 41.5 -102.5 41.5c-48 0 -88.333 -17 -121 -51s-49 -77 -49 -129v-275h-60zM249 -140
c0 10 4.5 19.168 13.5 27.501s19.5 12.5 31.5 12.5c16 0 29.167 -6.33301 39.5 -19s15.5 -31.334 15.5 -56.001c0 -29.333 -8.66699 -53.5 -26 -72.5s-40.333 -29.833 -69 -32.5v30c36.667 4.66699 55 23 55 55c0 1.33301 -1 6 -3 14l-2 6l-4 -3
c-5.33301 -1.33301 -9 -2 -11 -2c-26.667 0 -40 13.333 -40 40z" />
    <glyph glyph-name="Ncaron" unicode="&#x147;" horiz-adv-x="725" 
d="M90 0v700h100l380 -635h1l-1 10v625h65v-700h-100l-380 635h-1l1 -10v-625h-65zM230 934v1h60l75 -100h15l75 100h60v-1l-110 -144h-65z" />
    <glyph glyph-name="ncaron" unicode="&#x148;" horiz-adv-x="580" 
d="M80 0v500h60v-85h1c12 24.667 33.167 46.667 63.5 66s68.833 29 115.5 29c56 0 101.667 -19.333 137 -58s53 -91 53 -157v-295h-60v295c0 51.333 -12.5 90.833 -37.5 118.5s-59.167 41.5 -102.5 41.5c-48 0 -88.333 -17 -121 -51s-49 -77 -49 -129v-275h-60zM150 744v1
h60l75 -100h15l75 100h60v-1l-110 -144h-65z" />
    <glyph glyph-name="Omacron" unicode="&#x14c;" horiz-adv-x="820" 
d="M50 350c0 106.667 34.333 195 103 265s154.334 105 257.001 105s188.334 -35 257.001 -105s103 -158.333 103 -265s-34.333 -195 -103 -265s-154.334 -105 -257.001 -105s-188.334 35 -257.001 105s-103 158.333 -103 265zM115 350c0 -92 27.667 -166.667 83 -224
s126 -86 212 -86s156.667 28.667 212 86s83 132 83 224s-27.667 166.667 -83 224s-126 86 -212 86s-156.667 -28.667 -212 -86s-83 -132 -83 -224zM285 820v55h255v-55h-255z" />
    <glyph glyph-name="omacron" unicode="&#x14d;" 
d="M45 250c0 74.667 24.333 136.667 73 186s109.334 74 182.001 74s133.334 -24.667 182.001 -74s73 -111.333 73 -186s-24.333 -136.667 -73 -186s-109.334 -74 -182.001 -74s-133.334 24.667 -182.001 74s-73 111.333 -73 186zM105 250c0 -59.333 18.667 -108.333 56 -147
s83.666 -58 138.999 -58s101.666 19.333 138.999 58s56 87.667 56 147s-18.667 108.333 -56 147s-83.666 58 -138.999 58s-101.666 -19.333 -138.999 -58s-56 -87.667 -56 -147zM170 625v55h255v-55h-255z" />
    <glyph glyph-name="Ohungarumlaut" unicode="&#x150;" horiz-adv-x="820" 
d="M50 350c0 106.667 34.333 195 103 265s154.334 105 257.001 105s188.334 -35 257.001 -105s103 -158.333 103 -265s-34.333 -195 -103 -265s-154.334 -105 -257.001 -105s-188.334 35 -257.001 105s-103 158.333 -103 265zM115 350c0 -92 27.667 -166.667 83 -224
s126 -86 212 -86s156.667 28.667 212 86s83 132 83 224s-27.667 166.667 -83 224s-126 86 -212 86s-156.667 -28.667 -212 -86s-83 -132 -83 -224zM455 790l75 145h70v-1l-100 -144h-45zM310 790l75 145h70v-1l-100 -144h-45z" />
    <glyph glyph-name="ohungarumlaut" unicode="&#x151;" 
d="M45 250c0 74.667 24.333 136.667 73 186s109.334 74 182.001 74s133.334 -24.667 182.001 -74s73 -111.333 73 -186s-24.333 -136.667 -73 -186s-109.334 -74 -182.001 -74s-133.334 24.667 -182.001 74s-73 111.333 -73 186zM105 250c0 -59.333 18.667 -108.333 56 -147
s83.666 -58 138.999 -58s101.666 19.333 138.999 58s56 87.667 56 147s-18.667 108.333 -56 147s-83.666 58 -138.999 58s-101.666 -19.333 -138.999 -58s-56 -87.667 -56 -147zM345 600l75 145h70v-1l-100 -144h-45zM200 600l75 145h70v-1l-100 -144h-45z" />
    <glyph glyph-name="OE" unicode="&#x152;" horiz-adv-x="1180" 
d="M50 350c0 108 33.334 196.667 100.001 266s148.334 104 245.001 104c115.333 0 208.666 -50 279.999 -150v130h460v-60h-395v-255h320v-60h-320v-265h395v-60h-460v129l-1 -1c-38.667 -56.667 -90 -98 -154 -124c-39.333 -16 -81 -24 -125 -24
c-96.667 0 -178.334 34.667 -245.001 104s-100 158 -100 266zM115.001 350c0 -93.333 26.167 -168.333 78.5 -225s119.5 -85 201.5 -85c81.333 0 148.333 28.333 201 85s79 131.667 79 225s-26.333 168.333 -79 225s-119.667 85 -201 85c-82 0 -149.167 -28.333 -201.5 -85
s-78.5 -131.667 -78.5 -225z" />
    <glyph glyph-name="oe" unicode="&#x153;" horiz-adv-x="1005" 
d="M45 250c0 74 23.8301 135.834 71.4971 185.501s105.5 74.5 173.5 74.5c62 0 116.667 -21.667 164 -65c20.667 -18.667 37.667 -40.334 51 -65.001h1c12 24.667 28 46.334 48 65.001c44.667 43.333 98.334 65 161.001 65c69.333 0 127.5 -24.333 174.5 -73
s70.5 -109.334 70.5 -182.001v-25h-425c2.66699 -52.667 20.834 -96.667 54.501 -132s75.5 -53 125.5 -53c56 0 101.667 18.333 137 55c16.667 16.667 29.334 35 38.001 55h60c-10.667 -30 -27 -57.667 -49 -83c-48 -54.667 -110 -82 -186 -82
c-61.333 0 -115 21.667 -161 65c-20 19.333 -36.333 41 -49 65h-1c-12.667 -24 -29.667 -45.667 -51 -65c-46 -43.333 -100.333 -65 -163 -65c-68 0 -125.833 24.833 -173.5 74.5s-71.5 111.5 -71.5 185.5zM534.997 285.001h360.001
c-5.33301 48.667 -24.833 89.167 -58.5 121.5s-74.167 48.5 -121.5 48.5c-44.667 0 -83.834 -16.167 -117.501 -48.5s-54.5 -72.833 -62.5 -121.5zM104.998 250.001c0 -58.667 18.167 -107.5 54.5 -146.5s79.833 -58.5 130.5 -58.5s94.167 19.5 130.5 58.5
s54.5 87.833 54.5 146.5s-18.167 107.5 -54.5 146.5s-79.833 58.5 -130.5 58.5s-94.167 -19.5 -130.5 -58.5s-54.5 -87.833 -54.5 -146.5z" />
    <glyph glyph-name="Racute" unicode="&#x154;" horiz-adv-x="680" 
d="M90 0v700h290c76 0 135.833 -19.833 179.5 -59.5s65.5 -91.5 65.5 -155.5c0 -54.667 -16.167 -101 -48.5 -139s-77.833 -61.667 -136.5 -71l180 -275h-75l-175 270h-215v-270h-65zM155 330h225c59.333 0 104.166 13.5 134.499 40.5s45.5 65.167 45.5 114.5
s-15.167 87.5 -45.5 114.5s-75.166 40.5 -134.499 40.5h-225v-310zM295 790l90 145h75v-1l-115 -144h-50z" />
    <glyph glyph-name="racute" unicode="&#x155;" horiz-adv-x="370" 
d="M80 0l-0.000976562 499.999h60v-95h1c8.66699 18.667 20.334 35.334 35.001 50.001c33.333 33.333 76.333 50 129 50h55v-55h-55c-48 0 -87.5 -16.167 -118.5 -48.5s-46.5 -74.5 -46.5 -126.5v-275h-60zM184.999 599.999l90 145h75v-1l-115 -144h-50z" />
    <glyph glyph-name="Rcommaaccent" unicode="&#x156;" horiz-adv-x="680" 
d="M90 0v700h290c76 0 135.833 -19.833 179.5 -59.5s65.5 -91.5 65.5 -155.5c0 -54.667 -16.167 -101 -48.5 -139s-77.833 -61.667 -136.5 -71l180 -275h-75l-175 270h-215v-270h-65zM155 330h225c59.333 0 104.166 13.5 134.499 40.5s45.5 65.167 45.5 114.5
s-15.167 87.5 -45.5 114.5s-75.166 40.5 -134.499 40.5h-225v-310zM295 -140c0 10 4.5 19.168 13.5 27.501s19.5 12.5 31.5 12.5c16 0 29.167 -6.33301 39.5 -19s15.5 -31.334 15.5 -56.001c0 -29.333 -8.66699 -53.5 -26 -72.5s-40.333 -29.833 -69 -32.5v30
c36.667 4.66699 55 23 55 55c0 1.33301 -1 6 -3 14l-2 6l-4 -3c-5.33301 -1.33301 -9 -2 -11 -2c-26.667 0 -40 13.333 -40 40z" />
    <glyph glyph-name="rcommaaccent" unicode="&#x157;" horiz-adv-x="370" 
d="M80 0l-0.000976562 499.999h60v-95h1c8.66699 18.667 20.334 35.334 35.001 50.001c33.333 33.333 76.333 50 129 50h55v-55h-55c-48 0 -87.5 -16.167 -118.5 -48.5s-46.5 -74.5 -46.5 -126.5v-275h-60zM59.999 -140.001c0 10 4.5 19.168 13.5 27.501
s19.5 12.5 31.5 12.5c16 0 29.167 -6.33301 39.5 -19s15.5 -31.334 15.5 -56.001c0 -29.333 -8.66699 -53.5 -26 -72.5s-40.333 -29.833 -69 -32.5v30c36.667 4.66699 55 23 55 55c0 1.33301 -1 6 -3 14l-2 6l-4 -3c-5.33301 -1.33301 -9 -2 -11 -2
c-26.667 0 -40 13.333 -40 40z" />
    <glyph glyph-name="Rcaron" unicode="&#x158;" horiz-adv-x="680" 
d="M90 0v700h290c76 0 135.833 -19.833 179.5 -59.5s65.5 -91.5 65.5 -155.5c0 -54.667 -16.167 -101 -48.5 -139s-77.833 -61.667 -136.5 -71l180 -275h-75l-175 270h-215v-270h-65zM155 330h225c59.333 0 104.166 13.5 134.499 40.5s45.5 65.167 45.5 114.5
s-15.167 87.5 -45.5 114.5s-75.166 40.5 -134.499 40.5h-225v-310zM200 934v1h60l75 -100h15l75 100h60v-1l-110 -144h-65z" />
    <glyph glyph-name="rcaron" unicode="&#x159;" horiz-adv-x="370" 
d="M80 0l-0.000976562 499.999h60v-95h1c8.66699 18.667 20.334 35.334 35.001 50.001c33.333 33.333 76.333 50 129 50h55v-55h-55c-48 0 -87.5 -16.167 -118.5 -48.5s-46.5 -74.5 -46.5 -126.5v-275h-60zM79.999 743.999v1h60l75 -100h15l75 100h60v-1l-110 -144h-65z" />
    <glyph glyph-name="Sacute" unicode="&#x15a;" horiz-adv-x="635" 
d="M45 185h64.9971c9.33301 -28 23.333 -52.333 42 -73c42.667 -48 100.334 -72 173.001 -72c62.667 0 110.834 13.333 144.501 40s50.5 60 50.5 100c0 10.667 -1.16699 20.334 -3.5 29.001s-6.5 17 -12.5 25s-11.5 14.833 -16.5 20.5s-13.167 11.667 -24.5 18l-26.5 14.5
c-6.33301 3.33301 -17.166 7.83301 -32.499 13.5s-26.333 9.5 -33 11.5l-37 11.5l-36 11.5c-26.667 7.33301 -49 14.333 -67 21s-37.667 15.5 -59 26.5s-38.5 22.833 -51.5 35.5s-23.833 28.667 -32.5 48s-13 40.666 -13 63.999c0 52 22 96.667 66 134s102 56 174 56
c94.667 0 167.667 -31 219 -93c22 -26.667 37.333 -57.334 46 -92.001h-65c-7.33301 23.333 -19.333 44 -36 62c-39.333 42 -94 63 -164 63c-55.333 0 -98.333 -12.5 -129 -37.5s-46 -55.833 -46 -92.5c0 -46 31 -82.333 93 -109c20.667 -9.33301 64 -23.666 130 -42.999
c27.333 -8.66699 49.5 -16.167 66.5 -22.5s36.5 -15.333 58.5 -27s39.167 -23.834 51.5 -36.501s23 -28.667 32 -48s13.5 -40.666 13.5 -63.999c0 -55.333 -23.5 -102.5 -70.5 -141.5s-110.167 -58.5 -189.5 -58.5c-100 0 -176.667 34 -230 102
c-23.333 30.667 -40 65 -50 103zM289.997 790l90 145h75v-1l-115 -144h-50z" />
    <glyph glyph-name="sacute" unicode="&#x15b;" horiz-adv-x="510" 
d="M40 150h65.0029c8.66699 -21.333 20 -39 34 -53c32 -34.667 75.667 -52 131 -52c45.333 0 79.166 8.16699 101.499 24.5s33.5 38.166 33.5 65.499c0 14.667 -4.33301 27.5 -13 38.5s-22.5 20.167 -41.5 27.5s-36 13 -51 17s-36.5 9 -64.5 15
c-32.667 6 -60.5 13.667 -83.5 23s-43.167 24.166 -60.5 44.499s-26 45.166 -26 74.499c0 36.667 16.5 68.334 49.5 95.001s78.167 40 135.5 40c72 0 129 -24.333 171 -73c18 -20.667 31 -44.667 39 -72h-65c-7.33301 18 -17 33 -29 45c-30 30 -68.667 45 -116 45
c-40 0 -70.833 -7.83301 -92.5 -23.5s-32.5 -34.5 -32.5 -56.5c0 -12 3.33301 -22.833 10 -32.5s14.667 -17.667 24 -24s22.5 -12.166 39.5 -17.499s32 -9.5 45 -12.5s30.167 -6.5 51.5 -10.5c24 -5.33301 45.167 -11.166 63.5 -17.499s36 -15 53 -26
s30.167 -24.833 39.5 -41.5s14 -36 14 -58c0 -42 -16.833 -76.667 -50.5 -104s-81.834 -41 -144.501 -41c-80 0 -142 26.667 -186 80c-20.667 23.333 -35.334 50 -44.001 80zM225.003 600l90 145h75v-1l-115 -144h-50z" />
    <glyph glyph-name="Scedilla" unicode="&#x15e;" horiz-adv-x="635" 
d="M45 185l64.9951 0.000976562c9.33301 -28 23.333 -52.333 42 -73c42.667 -48 100.334 -72 173.001 -72c62.667 0 110.834 13.333 144.501 40s50.5 60 50.5 100c0 10.667 -1.16699 20.334 -3.5 29.001s-6.5 17 -12.5 25s-11.5 14.833 -16.5 20.5s-13.167 11.667 -24.5 18
l-26.5 14.5c-6.33301 3.33301 -17.166 7.83301 -32.499 13.5s-26.333 9.5 -33 11.5l-37 11.5l-36 11.5c-26.667 7.33301 -49 14.333 -67 21s-37.667 15.5 -59 26.5s-38.5 22.833 -51.5 35.5s-23.833 28.667 -32.5 48s-13 40.666 -13 63.999c0 52 22 96.667 66 134
s102 56 174 56c94.667 0 167.667 -31 219 -93c22 -26.667 37.333 -57.334 46 -92.001h-65c-7.33301 23.333 -19.333 44 -36 62c-39.333 42 -94 63 -164 63c-55.333 0 -98.333 -12.5 -129 -37.5s-46 -55.833 -46 -92.5c0 -46 31 -82.333 93 -109
c20.667 -9.33301 64 -23.666 130 -42.999c27.333 -8.66699 49.5 -16.167 66.5 -22.5s36.5 -15.333 58.5 -27s39.167 -23.834 51.5 -36.501s23 -28.667 32 -48s13.5 -40.666 13.5 -63.999c0 -52 -21.5 -97.167 -64.5 -135.5s-101.167 -59.5 -174.5 -63.5l-16 -36
c22.667 -2.66699 41.667 -12 57 -28s23 -35 23 -57c0 -28.667 -9.5 -51.667 -28.5 -69s-44.5 -26 -76.5 -26c-18.667 0 -36 3.33301 -52 10c-8 3.33301 -14 6.66602 -18 9.99902v45c4 -3.33301 10 -6.66602 18 -9.99902c16 -6.66699 33.333 -10 52 -10
c17.333 0 30.833 4.5 40.5 13.5s14.5 21.167 14.5 36.5c0 13.333 -5.16699 24.166 -15.5 32.499s-25.166 12.5 -44.499 12.5h-35l36 76c-88 4 -158 39.667 -210 107c-21.333 28.667 -36.666 61 -45.999 97z" />
    <glyph glyph-name="scedilla" unicode="&#x15f;" horiz-adv-x="510" 
d="M40 150l65 0.00195312c8.66699 -21.333 20 -39 34 -53c32 -34.667 75.667 -52 131 -52c45.333 0 79.166 8.16699 101.499 24.5s33.5 38.166 33.5 65.499c0 14.667 -4.33301 27.5 -13 38.5s-22.5 20.167 -41.5 27.5s-36 13 -51 17s-36.5 9 -64.5 15
c-32.667 6 -60.5 13.667 -83.5 23s-43.167 24.166 -60.5 44.499s-26 45.166 -26 74.499c0 36.667 16.5 68.334 49.5 95.001s78.167 40 135.5 40c72 0 129 -24.333 171 -73c18 -20.667 31 -44.667 39 -72h-65c-7.33301 18 -17 33 -29 45c-30 30 -68.667 45 -116 45
c-40 0 -70.833 -7.83301 -92.5 -23.5s-32.5 -34.5 -32.5 -56.5c0 -12 3.33301 -22.833 10 -32.5s14.667 -17.667 24 -24s22.5 -12.166 39.5 -17.499s32 -9.5 45 -12.5s30.167 -6.5 51.5 -10.5c24 -5.33301 45.167 -11.166 63.5 -17.499s36 -15 53 -26
s30.167 -24.833 39.5 -41.5s14 -36 14 -58c0 -40 -15.333 -73.333 -46 -100s-75 -41.334 -133 -44.001l-21 -46c22.667 -2.66699 41.667 -12 57 -28s23 -35 23 -57c0 -28.667 -9.5 -51.667 -28.5 -69s-44.5 -26 -76.5 -26c-18.667 0 -36 3.33301 -52 10
c-8 3.33301 -14 6.66602 -18 9.99902v45c4 -3.33301 10 -6.66602 18 -9.99902c16 -6.66699 33.333 -10 52 -10c17.333 0 30.833 4.5 40.5 13.5s14.5 21.167 14.5 36.5c0 13.333 -5.16699 24.166 -15.5 32.499s-25.166 12.5 -44.499 12.5h-35l41 86
c-68.667 6.66699 -122.667 35 -162 85c-16.667 22 -29.667 46.667 -39 74z" />
    <glyph glyph-name="Scaron" unicode="&#x160;" horiz-adv-x="635" 
d="M45 185h64.9971c9.33301 -28 23.333 -52.333 42 -73c42.667 -48 100.334 -72 173.001 -72c62.667 0 110.834 13.333 144.501 40s50.5 60 50.5 100c0 10.667 -1.16699 20.334 -3.5 29.001s-6.5 17 -12.5 25s-11.5 14.833 -16.5 20.5s-13.167 11.667 -24.5 18l-26.5 14.5
c-6.33301 3.33301 -17.166 7.83301 -32.499 13.5s-26.333 9.5 -33 11.5l-37 11.5l-36 11.5c-26.667 7.33301 -49 14.333 -67 21s-37.667 15.5 -59 26.5s-38.5 22.833 -51.5 35.5s-23.833 28.667 -32.5 48s-13 40.666 -13 63.999c0 52 22 96.667 66 134s102 56 174 56
c94.667 0 167.667 -31 219 -93c22 -26.667 37.333 -57.334 46 -92.001h-65c-7.33301 23.333 -19.333 44 -36 62c-39.333 42 -94 63 -164 63c-55.333 0 -98.333 -12.5 -129 -37.5s-46 -55.833 -46 -92.5c0 -46 31 -82.333 93 -109c20.667 -9.33301 64 -23.666 130 -42.999
c27.333 -8.66699 49.5 -16.167 66.5 -22.5s36.5 -15.333 58.5 -27s39.167 -23.834 51.5 -36.501s23 -28.667 32 -48s13.5 -40.666 13.5 -63.999c0 -55.333 -23.5 -102.5 -70.5 -141.5s-110.167 -58.5 -189.5 -58.5c-100 0 -176.667 34 -230 102
c-23.333 30.667 -40 65 -50 103zM169.997 934v1h60l75 -100h15l75 100h60v-1l-110 -144h-65z" />
    <glyph glyph-name="scaron" unicode="&#x161;" horiz-adv-x="510" 
d="M40 150h65.0029c8.66699 -21.333 20 -39 34 -53c32 -34.667 75.667 -52 131 -52c45.333 0 79.166 8.16699 101.499 24.5s33.5 38.166 33.5 65.499c0 14.667 -4.33301 27.5 -13 38.5s-22.5 20.167 -41.5 27.5s-36 13 -51 17s-36.5 9 -64.5 15
c-32.667 6 -60.5 13.667 -83.5 23s-43.167 24.166 -60.5 44.499s-26 45.166 -26 74.499c0 36.667 16.5 68.334 49.5 95.001s78.167 40 135.5 40c72 0 129 -24.333 171 -73c18 -20.667 31 -44.667 39 -72h-65c-7.33301 18 -17 33 -29 45c-30 30 -68.667 45 -116 45
c-40 0 -70.833 -7.83301 -92.5 -23.5s-32.5 -34.5 -32.5 -56.5c0 -12 3.33301 -22.833 10 -32.5s14.667 -17.667 24 -24s22.5 -12.166 39.5 -17.499s32 -9.5 45 -12.5s30.167 -6.5 51.5 -10.5c24 -5.33301 45.167 -11.166 63.5 -17.499s36 -15 53 -26
s30.167 -24.833 39.5 -41.5s14 -36 14 -58c0 -42 -16.833 -76.667 -50.5 -104s-81.834 -41 -144.501 -41c-80 0 -142 26.667 -186 80c-20.667 23.333 -35.334 50 -44.001 80zM110.003 744v1h60l75 -100h15l75 100h60v-1l-110 -144h-65z" />
    <glyph glyph-name="Tcommaaccent" unicode="&#x162;" horiz-adv-x="585" 
d="M10 640v60h565v-60h-250v-640h-65v640h-250zM240 -140c0 10 4.5 19.168 13.5 27.501s19.5 12.5 31.5 12.5c16 0 29.167 -6.33301 39.5 -19s15.5 -31.334 15.5 -56.001c0 -29.333 -8.66699 -53.5 -26 -72.5s-40.333 -29.833 -69 -32.5v30c36.667 4.66699 55 23 55 55
c0 1.33301 -1 6 -3 14l-2 6l-4 -3c-5.33301 -1.33301 -9 -2 -11 -2c-26.667 0 -40 13.333 -40 40z" />
    <glyph glyph-name="tcommaaccent" unicode="&#x163;" horiz-adv-x="355" 
d="M25 445v55h70v110h60v-110h165v-55h-165v-390h170v-55h-230v445h-70zM165 -140c0 10 4.5 19.168 13.5 27.501s19.5 12.5 31.5 12.5c16 0 29.167 -6.33301 39.5 -19s15.5 -31.334 15.5 -56.001c0 -29.333 -8.66699 -53.5 -26 -72.5s-40.333 -29.833 -69 -32.5v30
c36.667 4.66699 55 23 55 55c0 1.33301 -1 6 -3 14l-2 6l-4 -3c-5.33301 -1.33301 -9 -2 -11 -2c-26.667 0 -40 13.333 -40 40z" />
    <glyph glyph-name="Tcaron" unicode="&#x164;" horiz-adv-x="585" 
d="M10 640v60h565v-60h-250v-640h-65v640h-250zM145 934v1h60l75 -100h15l75 100h60v-1l-110 -144h-65z" />
    <glyph glyph-name="tcaron" unicode="&#x165;" horiz-adv-x="355" 
d="M210 574c0 10 4.5 19.168 13.5 27.501s19.5 12.5 31.5 12.5c16 0 29.167 -6.33301 39.5 -19s15.5 -31.334 15.5 -56.001c0 -29.333 -8.66699 -53.5 -26 -72.5s-40.333 -29.833 -69 -32.5v30c36.667 4.66699 55 23 55 55c0 1.33301 -1 6 -3 14l-2 6l-4 -3
c-5.33301 -1.33301 -9 -2 -11 -2c-26.667 0 -40 13.333 -40 40zM25 445.001v55h70v110h60v-555h170v-55h-230v445h-70z" />
    <glyph glyph-name="Umacron" unicode="&#x16a;" horiz-adv-x="710" 
d="M85 260l0.00195312 440h65v-440c0 -70 18.333 -124.167 55 -162.5s86.667 -57.5 150 -57.5s113.333 19.167 150 57.5s55 92.5 55 162.5v440h65v-440c0 -84.667 -24.833 -152.5 -74.5 -203.5s-114.834 -76.5 -195.501 -76.5s-145.834 25.5 -195.501 76.5
s-74.5 118.833 -74.5 203.5zM230.002 820v55h255v-55h-255z" />
    <glyph glyph-name="umacron" unicode="&#x16b;" horiz-adv-x="590" 
d="M80 205l-0.00195312 295h60v-295c0 -51.333 12.5 -90.833 37.5 -118.5s59.167 -41.5 102.5 -41.5c48 0 88.333 17 121 51s49 77 49 129v275h60v-500h-60v85h-1c-13.333 -25.333 -34.666 -47.5 -63.999 -66.5s-67.666 -28.5 -114.999 -28.5c-56 0 -101.667 19.333 -137 58
s-53 91 -53 157zM169.998 625v55h255v-55h-255z" />
    <glyph glyph-name="Uring" unicode="&#x16e;" horiz-adv-x="710" 
d="M85 260l0.00195312 440h65v-440c0 -70 18.333 -124.167 55 -162.5s86.667 -57.5 150 -57.5s113.333 19.167 150 57.5s55 92.5 55 162.5v440h65v-440c0 -84.667 -24.833 -152.5 -74.5 -203.5s-114.834 -76.5 -195.501 -76.5s-145.834 25.5 -195.501 76.5
s-74.5 118.833 -74.5 203.5zM255.002 860c0 28 9.66699 51.667 29 71s43 29 71 29s51.667 -9.66699 71 -29s29 -43 29 -71s-9.66699 -51.667 -29 -71s-43 -29 -71 -29s-51.667 9.66699 -71 29s-29 43 -29 71zM300.002 860c0 -15.333 5.33301 -28.333 16 -39
s23.667 -16 39 -16s28.333 5.33301 39 16s16 23.667 16 39s-5.33301 28.333 -16 39s-23.667 16 -39 16s-28.333 -5.33301 -39 -16s-16 -23.667 -16 -39z" />
    <glyph glyph-name="uring" unicode="&#x16f;" horiz-adv-x="590" 
d="M80 205l-0.00195312 295h60v-295c0 -51.333 12.5 -90.833 37.5 -118.5s59.167 -41.5 102.5 -41.5c48 0 88.333 17 121 51s49 77 49 129v275h60v-500h-60v85h-1c-13.333 -25.333 -34.666 -47.5 -63.999 -66.5s-67.666 -28.5 -114.999 -28.5c-56 0 -101.667 19.333 -137 58
s-53 91 -53 157zM194.998 685c0 28 9.66699 51.667 29 71s43 29 71 29s51.667 -9.66699 71 -29s29 -43 29 -71s-9.66699 -51.667 -29 -71s-43 -29 -71 -29s-51.667 9.66699 -71 29s-29 43 -29 71zM239.998 685c0 -15.333 5.33301 -28.333 16 -39s23.667 -16 39 -16
s28.333 5.33301 39 16s16 23.667 16 39s-5.33301 28.333 -16 39s-23.667 16 -39 16s-28.333 -5.33301 -39 -16s-16 -23.667 -16 -39z" />
    <glyph glyph-name="Uhungarumlaut" unicode="&#x170;" horiz-adv-x="710" 
d="M85 260l0.00195312 440h65v-440c0 -70 18.333 -124.167 55 -162.5s86.667 -57.5 150 -57.5s113.333 19.167 150 57.5s55 92.5 55 162.5v440h65v-440c0 -84.667 -24.833 -152.5 -74.5 -203.5s-114.834 -76.5 -195.501 -76.5s-145.834 25.5 -195.501 76.5
s-74.5 118.833 -74.5 203.5zM400.002 790l75 145h70v-1l-100 -144h-45zM255.002 790l75 145h70v-1l-100 -144h-45z" />
    <glyph glyph-name="uhungarumlaut" unicode="&#x171;" horiz-adv-x="590" 
d="M80 205l-0.00195312 295h60v-295c0 -51.333 12.5 -90.833 37.5 -118.5s59.167 -41.5 102.5 -41.5c48 0 88.333 17 121 51s49 77 49 129v275h60v-500h-60v85h-1c-13.333 -25.333 -34.666 -47.5 -63.999 -66.5s-67.666 -28.5 -114.999 -28.5c-56 0 -101.667 19.333 -137 58
s-53 91 -53 157zM344.998 600l75 145h70v-1l-100 -144h-45zM199.998 600l75 145h70v-1l-100 -144h-45z" />
    <glyph glyph-name="Uogonek" unicode="&#x172;" horiz-adv-x="710" 
d="M85 260l0.000976562 440h65v-440c0 -70 18.333 -124.167 55 -162.5s86.667 -57.5 150 -57.5s113.333 19.167 150 57.5s55 92.5 55 162.5v440h65v-440c0 -74 -18 -133.667 -54 -179s-83 -75.666 -141 -90.999c-66.667 -35.333 -100 -75.333 -100 -120
c0 -12.667 4.5 -23.334 13.5 -32.001s21.167 -13 36.5 -13c16.667 0 32.667 2.33301 48 7l22 8v-45c-4 -2.66699 -10.667 -6 -20 -10c-17.333 -6.66699 -34 -10 -50 -10c-29.333 0 -53.333 8.5 -72 25.5s-28 38.5 -28 64.5c0 42 25.333 80.333 76 115h-1
c-80.667 0 -145.834 25.5 -195.501 76.5s-74.5 118.833 -74.5 203.5z" />
    <glyph glyph-name="uogonek" unicode="&#x173;" horiz-adv-x="590" 
d="M80 205l-0.000976562 295.001h60v-295c0 -51.333 12.5 -90.833 37.5 -118.5s59.167 -41.5 102.5 -41.5c48 0 88.333 17 121 51s49 77 49 129v275h60v-500c-25.333 -12 -45.333 -23.667 -60 -35c-40 -30 -60 -61.667 -60 -95c0 -12.667 4.5 -23.334 13.5 -32.001
s21.167 -13 36.5 -13c16.667 0 32.667 2.33301 48 7l22 8v-45c-4 -2.66699 -10.667 -6 -20 -10c-17.333 -6.66699 -34 -10 -50 -10c-29.333 0 -53.333 8.5 -72 25.5s-28 38.5 -28 64.5c0 36.667 18.333 70.667 55 102c17.333 15.333 35.666 28 54.999 38v2v78h-1
c-13.333 -25.333 -34.666 -47.5 -63.999 -66.5s-67.666 -28.5 -114.999 -28.5c-56 0 -101.667 19.333 -137 58s-53 91 -53 157z" />
    <glyph glyph-name="Ydieresis" unicode="&#x178;" horiz-adv-x="635" 
d="M10 700h80l225 -370h5l225 370h80l-275 -445v-255h-65v255zM355 850c0 12.667 4.33301 23.334 13 32.001s19.334 13 32.001 13s23.334 -4.33301 32.001 -13s13 -19.334 13 -32.001s-4.33301 -23.334 -13 -32.001s-19.334 -13 -32.001 -13s-23.334 4.33301 -32.001 13
s-13 19.334 -13 32.001zM185 850c0 12.667 4.33301 23.334 13 32.001s19.334 13 32.001 13s23.334 -4.33301 32.001 -13s13 -19.334 13 -32.001s-4.33301 -23.334 -13 -32.001s-19.334 -13 -32.001 -13s-23.334 4.33301 -32.001 13s-13 19.334 -13 32.001z" />
    <glyph glyph-name="Zacute" unicode="&#x179;" 
d="M35 0v60l440 575v5h-425v60h510v-60l-440 -575v-5h445v-60h-530zM265 790l90 145h75v-1l-115 -144h-50z" />
    <glyph glyph-name="zacute" unicode="&#x17a;" horiz-adv-x="470" 
d="M30 0v55l320 389v1h-310v55h390v-55l-320 -389v-1h330v-55h-410zM205 600l90 145h75v-1l-115 -144h-50z" />
    <glyph glyph-name="Zdotaccent" unicode="&#x17b;" 
d="M35 0v60l440 575v5h-425v60h510v-60l-440 -575v-5h445v-60h-530zM260 850c0 12.667 4.33301 23.334 13 32.001s19.334 13 32.001 13s23.334 -4.33301 32.001 -13s13 -19.334 13 -32.001s-4.33301 -23.334 -13 -32.001s-19.334 -13 -32.001 -13
s-23.334 4.33301 -32.001 13s-13 19.334 -13 32.001z" />
    <glyph glyph-name="zdotaccent" unicode="&#x17c;" horiz-adv-x="470" 
d="M30 0v55l320 389v1h-310v55h390v-55l-320 -389v-1h330v-55h-410zM195 660c0 12.667 4.33301 23.334 13 32.001s19.334 13 32.001 13s23.334 -4.33301 32.001 -13s13 -19.334 13 -32.001s-4.33301 -23.334 -13 -32.001s-19.334 -13 -32.001 -13
s-23.334 4.33301 -32.001 13s-13 19.334 -13 32.001z" />
    <glyph glyph-name="Zcaron" unicode="&#x17d;" 
d="M35 0v60l440 575v5h-425v60h510v-60l-440 -575v-5h445v-60h-530zM160 934v1h60l75 -100h15l75 100h60v-1l-110 -144h-65z" />
    <glyph glyph-name="zcaron" unicode="&#x17e;" horiz-adv-x="470" 
d="M30 0v55l320 389v1h-310v55h390v-55l-320 -389v-1h330v-55h-410zM95 744v1h60l75 -100h15l75 100h60v-1l-110 -144h-65z" />
    <glyph glyph-name="florin" unicode="&#x192;" horiz-adv-x="355" 
d="M-75 -190v55h150l85 580h-60v55h70l30 200h210v-55h-160l-20 -145h130v-55h-140l-95 -635h-200z" />
    <glyph glyph-name="uni01FA" unicode="&#x1fa;" horiz-adv-x="670" 
d="M235 860c0 26 8.83301 48.332 26.5 66.999s39.5 29.334 65.5 32.001l43 71h60v-1l-60 -76c20 -7.33301 35.833 -19.333 47.5 -36s17.5 -35.667 17.5 -57c0 -28 -9.66699 -51.667 -29 -71s-43 -29 -71 -29s-51.667 9.66699 -71 29s-29 43 -29 71zM280 859.999
c0 -15.333 5.33301 -28.333 16 -39s23.667 -16 39 -16s28.333 5.33301 39 16s16 23.667 16 39s-5.33301 28.333 -16 39s-23.667 16 -39 16s-28.333 -5.33301 -39 -16s-16 -23.667 -16 -39zM25 -0.000976562l185 700h250l185 -700h-65l-60 230h-370l-60 -230h-65z
M165 289.999h340l-95 350h-150z" />
    <glyph glyph-name="uni01FB" unicode="&#x1fb;" horiz-adv-x="615" 
d="M190 685c0 26 8.83301 48.332 26.5 66.999s39.5 29.334 65.5 32.001l43 71h60v-1l-60 -76c20 -7.33301 35.833 -19.333 47.5 -36s17.5 -35.667 17.5 -57c0 -28 -9.66699 -51.667 -29 -71s-43 -29 -71 -29s-51.667 9.66699 -71 29s-29 43 -29 71zM235 684.999
c0 -15.333 5.33301 -28.333 16 -39s23.667 -16 39 -16s28.333 5.33301 39 16s16 23.667 16 39s-5.33301 28.333 -16 39s-23.667 16 -39 16s-28.333 -5.33301 -39 -16s-16 -23.667 -16 -39zM45 249.999c0 74 23.333 135.833 70 185.5s103.334 74.5 170.001 74.5
c47.333 0 87.333 -11.5 120 -34.5s55.667 -48.167 69 -75.5h1v100h60v-500h-60v100h-1c-13.333 -27.333 -36.333 -52.5 -69 -75.5s-72.667 -34.5 -120 -34.5c-66.667 0 -123.334 24.833 -170.001 74.5s-70 111.5 -70 185.5zM105 249.999
c0 -58.667 18.167 -107.5 54.5 -146.5s79.833 -58.5 130.5 -58.5c49.333 0 92.5 19.5 129.5 58.5s55.5 87.833 55.5 146.5s-18.5 107.5 -55.5 146.5s-80.167 58.5 -129.5 58.5c-50.667 0 -94.167 -19.5 -130.5 -58.5s-54.5 -87.833 -54.5 -146.5z" />
    <glyph glyph-name="uni01FC" unicode="&#x1fc;" horiz-adv-x="965" 
d="M25 0l185 700h710v-60h-390v-255h315v-60h-315v-265h390v-60h-455v230h-315l-60 -230h-65zM165 290h300v350h-205zM475 790l90 145h75v-1l-115 -144h-50z" />
    <glyph glyph-name="uni01FD" unicode="&#x1fd;" horiz-adv-x="965" 
d="M60 140c0 44 16.5 80.0029 49.5 108.003s79.833 42 140.5 42h180v33c0 41.333 -11.833 73.666 -35.5 96.999s-56.834 35 -99.501 35c-52.667 0 -94 -17.667 -124 -53c-14 -16 -24.333 -33.333 -31 -52h-60c9.33301 31.333 22.666 58 39.999 80
c42.667 53.333 101 80 175 80c56.667 0 102.667 -17.667 138 -53c14.667 -14 27 -31.333 37 -52h5c12.667 20 28.334 37.333 47.001 52c42 35.333 93 53 153 53c70 0 128.333 -23.667 175 -71s70 -107 70 -179v-25h-430c2.66699 -54.667 21.667 -100 57 -136s78 -54 128 -54
c54 0 99.333 18.333 136 55c16 16 29 34.333 39 55h60c-12 -30.667 -28.667 -58.334 -50 -83.001c-48 -54.667 -109.667 -82 -185 -82c-65.333 0 -119.666 21.667 -162.999 65c-20 20 -35.667 41.667 -47 65h-5c-12.667 -24 -29.667 -45.667 -51 -65
c-47.333 -43.333 -105.333 -65 -174 -65c-53.333 0 -95.833 14.167 -127.5 42.5s-47.5 64.166 -47.5 107.499zM490 290.003h365c-5.33301 48.667 -24.333 88.334 -57 119.001s-73.667 46 -123 46c-48.667 0 -89.667 -15.333 -123 -46s-54 -70.334 -62 -119.001zM120 140.003
c0 -29.333 10.5 -52.5 31.5 -69.5s52.167 -25.5 93.5 -25.5c54 0 98.333 18.333 133 55s52 81.667 52 135h-180c-44 0 -76.667 -8.5 -98 -25.5s-32 -40.167 -32 -69.5zM445 600.003l90 145h75v-1l-115 -144h-50z" />
    <glyph glyph-name="uni01FE" unicode="&#x1fe;" horiz-adv-x="820" 
d="M25 -5v75l84 69c-39.333 64 -59 134.333 -59 211c0 106.667 34.333 195 103 265s154.334 105 257.001 105c108 0 196.333 -38 265 -114l120 99v-75l-85 -70c40 -60.667 60 -130.667 60 -210c0 -106.667 -34.333 -195 -103 -265s-154.334 -105 -257.001 -105
c-109.333 0 -198 37.667 -266 113zM115 350c0 -65.333 14.334 -122.333 43.001 -171l470 388c-54.667 62 -127.334 93 -218.001 93c-86 0 -156.667 -28.667 -212 -86s-83 -132 -83 -224zM662.001 520l-470.001 -387c54.667 -62 127.334 -93 218.001 -93
c86 0 156.667 28.667 212 86s83 132 83 224c0 63.333 -14.333 120 -43 170zM380 790l90 145h75v-1l-115 -144h-50z" />
    <glyph glyph-name="uni01FF" unicode="&#x1ff;" 
d="M40 -5v75.001l44 37c-26 41.333 -39 89 -39 143c0 74.667 24.333 136.667 73 186s109.334 74 182.001 74c70 0 130 -24 180 -72l80 67v-75l-44 -37c26 -42.667 39 -90.334 39 -143.001c0 -74.667 -24.333 -136.667 -73 -186s-109.334 -74 -182.001 -74
c-72 0 -132 24 -180 72zM105 250.001c0 -39.333 8.33203 -74.333 24.999 -105l305 256c-36 36 -81 54 -135 54c-55.333 0 -101.666 -19.333 -138.999 -58s-56 -87.667 -56 -147zM469.999 354.001l-305.999 -255.001c36 -36 81.333 -54 136 -54
c55.333 0 101.666 19.333 138.999 58s56 87.667 56 147c0 38.667 -8.33301 73.334 -25 104.001zM270 600l90 145h75v-1l-115 -144h-50z" />
    <glyph glyph-name="Scommaaccent" unicode="&#x218;" horiz-adv-x="635" 
d="M45 185h64.9971c9.33301 -28 23.333 -52.333 42 -73c42.667 -48 100.334 -72 173.001 -72c62.667 0 110.834 13.333 144.501 40s50.5 60 50.5 100c0 10.667 -1.16699 20.334 -3.5 29.001s-6.5 17 -12.5 25s-11.5 14.833 -16.5 20.5s-13.167 11.667 -24.5 18l-26.5 14.5
c-6.33301 3.33301 -17.166 7.83301 -32.499 13.5s-26.333 9.5 -33 11.5l-37 11.5l-36 11.5c-26.667 7.33301 -49 14.333 -67 21s-37.667 15.5 -59 26.5s-38.5 22.833 -51.5 35.5s-23.833 28.667 -32.5 48s-13 40.666 -13 63.999c0 52 22 96.667 66 134s102 56 174 56
c94.667 0 167.667 -31 219 -93c22 -26.667 37.333 -57.334 46 -92.001h-65c-7.33301 23.333 -19.333 44 -36 62c-39.333 42 -94 63 -164 63c-55.333 0 -98.333 -12.5 -129 -37.5s-46 -55.833 -46 -92.5c0 -46 31 -82.333 93 -109c20.667 -9.33301 64 -23.666 130 -42.999
c27.333 -8.66699 49.5 -16.167 66.5 -22.5s36.5 -15.333 58.5 -27s39.167 -23.834 51.5 -36.501s23 -28.667 32 -48s13.5 -40.666 13.5 -63.999c0 -55.333 -23.5 -102.5 -70.5 -141.5s-110.167 -58.5 -189.5 -58.5c-100 0 -176.667 34 -230 102
c-23.333 30.667 -40 65 -50 103zM269.997 -140c0 10 4.5 19.168 13.5 27.501s19.5 12.5 31.5 12.5c16 0 29.167 -6.33301 39.5 -19s15.5 -31.334 15.5 -56.001c0 -29.333 -8.66699 -53.5 -26 -72.5s-40.333 -29.833 -69 -32.5v30c36.667 4.66699 55 23 55 55
c0 1.33301 -1 6 -3 14l-2 6l-4 -3c-5.33301 -1.33301 -9 -2 -11 -2c-26.667 0 -40 13.333 -40 40z" />
    <glyph glyph-name="scommaaccent" unicode="&#x219;" horiz-adv-x="510" 
d="M40 150h65.0029c8.66699 -21.333 20 -39 34 -53c32 -34.667 75.667 -52 131 -52c45.333 0 79.166 8.16699 101.499 24.5s33.5 38.166 33.5 65.499c0 14.667 -4.33301 27.5 -13 38.5s-22.5 20.167 -41.5 27.5s-36 13 -51 17s-36.5 9 -64.5 15
c-32.667 6 -60.5 13.667 -83.5 23s-43.167 24.166 -60.5 44.499s-26 45.166 -26 74.499c0 36.667 16.5 68.334 49.5 95.001s78.167 40 135.5 40c72 0 129 -24.333 171 -73c18 -20.667 31 -44.667 39 -72h-65c-7.33301 18 -17 33 -29 45c-30 30 -68.667 45 -116 45
c-40 0 -70.833 -7.83301 -92.5 -23.5s-32.5 -34.5 -32.5 -56.5c0 -12 3.33301 -22.833 10 -32.5s14.667 -17.667 24 -24s22.5 -12.166 39.5 -17.499s32 -9.5 45 -12.5s30.167 -6.5 51.5 -10.5c24 -5.33301 45.167 -11.166 63.5 -17.499s36 -15 53 -26
s30.167 -24.833 39.5 -41.5s14 -36 14 -58c0 -42 -16.833 -76.667 -50.5 -104s-81.834 -41 -144.501 -41c-80 0 -142 26.667 -186 80c-20.667 23.333 -35.334 50 -44.001 80zM210.003 -140c0 10 4.5 19.168 13.5 27.501s19.5 12.5 31.5 12.5c16 0 29.167 -6.33301 39.5 -19
s15.5 -31.334 15.5 -56.001c0 -29.333 -8.66699 -53.5 -26 -72.5s-40.333 -29.833 -69 -32.5v30c36.667 4.66699 55 23 55 55c0 1.33301 -1 6 -3 14l-2 6l-4 -3c-5.33301 -1.33301 -9 -2 -11 -2c-26.667 0 -40 13.333 -40 40z" />
    <glyph glyph-name="uni021A" unicode="&#x21a;" horiz-adv-x="585" 
d="M10 640v60h565v-60h-250v-640h-65v640h-250zM240 -140c0 10 4.5 19.168 13.5 27.501s19.5 12.5 31.5 12.5c16 0 29.167 -6.33301 39.5 -19s15.5 -31.334 15.5 -56.001c0 -29.333 -8.66699 -53.5 -26 -72.5s-40.333 -29.833 -69 -32.5v30c36.667 4.66699 55 23 55 55
c0 1.33301 -1 6 -3 14l-2 6l-4 -3c-5.33301 -1.33301 -9 -2 -11 -2c-26.667 0 -40 13.333 -40 40z" />
    <glyph glyph-name="uni021B" unicode="&#x21b;" horiz-adv-x="355" 
d="M25 445v55h70v110h60v-110h165v-55h-165v-390h170v-55h-230v445h-70zM165 -140c0 10 4.5 19.168 13.5 27.501s19.5 12.5 31.5 12.5c16 0 29.167 -6.33301 39.5 -19s15.5 -31.334 15.5 -56.001c0 -29.333 -8.66699 -53.5 -26 -72.5s-40.333 -29.833 -69 -32.5v30
c36.667 4.66699 55 23 55 55c0 1.33301 -1 6 -3 14l-2 6l-4 -3c-5.33301 -1.33301 -9 -2 -11 -2c-26.667 0 -40 13.333 -40 40z" />
    <glyph glyph-name="afii57929" unicode="&#x2bc;" horiz-adv-x="160" 
d="M30 660c0 10 4.5 19.168 13.5 27.501s19.5 12.5 31.5 12.5c16 0 29.167 -6.33301 39.5 -19s15.5 -31.334 15.5 -56.001c0 -29.333 -8.66699 -53.5 -26 -72.5s-40.333 -29.833 -69 -32.5v30c36.667 4.66699 55 23 55 55c0 1.33301 -1 6 -3 14l-2 6l-4 -3
c-5.33301 -1.33301 -9 -2 -11 -2c-26.667 0 -40 13.333 -40 40z" />
    <glyph glyph-name="circumflex" unicode="&#x2c6;" horiz-adv-x="345" 
d="M30 550v1l110 144h65l110 -144v-1h-60l-75 100h-15l-75 -100h-60z" />
    <glyph glyph-name="caron" unicode="&#x2c7;" horiz-adv-x="345" 
d="M30 694v1h60l75 -100h15l75 100h60v-1l-110 -144h-65z" />
    <glyph glyph-name="breve" unicode="&#x2d8;" horiz-adv-x="330" 
d="M30 680h54.998c0 -20.667 7.16699 -37.5 21.5 -50.5s33.833 -19.5 58.5 -19.5s44.167 6.5 58.5 19.5s21.5 29.833 21.5 50.5h55c0 -33.333 -12.667 -61.666 -38 -84.999s-57.666 -35 -96.999 -35s-71.666 11.667 -96.999 35s-38 51.666 -38 84.999z" />
    <glyph glyph-name="dotaccent" unicode="&#x2d9;" horiz-adv-x="150" 
d="M30 650c0 12.667 4.33301 23.334 13 32.001s19.334 13 32.001 13s23.334 -4.33301 32.001 -13s13 -19.334 13 -32.001s-4.33301 -23.334 -13 -32.001s-19.334 -13 -32.001 -13s-23.334 4.33301 -32.001 13s-13 19.334 -13 32.001z" />
    <glyph glyph-name="ring" unicode="&#x2da;" horiz-adv-x="260" 
d="M30 595c0 28 9.66699 51.667 29 71s43 29 71 29s51.667 -9.66699 71 -29s29 -43 29 -71s-9.66699 -51.667 -29 -71s-43 -29 -71 -29s-51.667 9.66699 -71 29s-29 43 -29 71zM75 595c0 -15.333 5.33301 -28.333 16 -39s23.667 -16 39 -16s28.333 5.33301 39 16
s16 23.667 16 39s-5.33301 28.333 -16 39s-23.667 16 -39 16s-28.333 -5.33301 -39 -16s-16 -23.667 -16 -39z" />
    <glyph glyph-name="ogonek" unicode="&#x2db;" horiz-adv-x="230" 
d="M30 -135c0 37.333 20.667 72.668 62 106.001c18 15.333 39 28.333 63 39l45 -10c-25.333 -12 -45.333 -23.667 -60 -35c-40 -30 -60 -61.667 -60 -95c0 -12.667 4.5 -23.334 13.5 -32.001s21.167 -13 36.5 -13c16.667 0 32.667 2.33301 48 7l22 8v-45
c-4 -2.66699 -10.667 -6 -20 -10c-17.333 -6.66699 -34 -10 -50 -10c-29.333 0 -53.333 8.5 -72 25.5s-28 38.5 -28 64.5z" />
    <glyph glyph-name="tilde" unicode="&#x2dc;" horiz-adv-x="360" 
d="M30 580l0.000976562 26c0 24.667 7.83301 44.834 23.5 60.501s36.167 23.5 61.5 23.5c23.333 0 48.333 -10.667 75 -32c24.667 -22 43 -33 55 -33c10 0 18.333 3.33301 25 10s10 15 10 25v25h50v-26c0 -24.667 -7.83301 -44.834 -23.5 -60.501s-36.167 -23.5 -61.5 -23.5
c-24.667 0 -49.334 11 -74.001 33c-1.33301 0.666992 -5 3.66699 -11 9s-10 8.5 -12 9.5s-5.33301 3 -10 6s-8.66699 5 -12 6s-7 1.5 -11 1.5c-10 0 -18.333 -3.33301 -25 -10s-10 -15 -10 -25v-25h-50z" />
    <glyph glyph-name="hungarumlaut" unicode="&#x2dd;" horiz-adv-x="350" 
d="M175 550l75 145h70v-1l-100 -144h-45zM30 550l75 145h70v-1l-100 -144h-45z" />
    <glyph glyph-name="uni0301" unicode="&#x301;" horiz-adv-x="0" 
d="M-410 825l70 115h60v-1l-90 -114h-40z" />
    <glyph glyph-name="uni030A" unicode="&#x30a;" horiz-adv-x="0" 
d="M-435 760c0 28 9.66699 51.667 29 71s43 29 71 29s51.667 -9.66699 71 -29s29 -43 29 -71s-9.66699 -51.667 -29 -71s-43 -29 -71 -29s-51.667 9.66699 -71 29s-29 43 -29 71zM-390 760c0 -15.333 5.33301 -28.333 16 -39s23.667 -16 39 -16s28.333 5.33301 39 16
s16 23.667 16 39s-5.33301 28.333 -16 39s-23.667 16 -39 16s-28.333 -5.33301 -39 -16s-16 -23.667 -16 -39z" />
    <glyph glyph-name="afii10023" unicode="&#x401;" horiz-adv-x="610" 
d="M90 0v700h475v-60h-410v-255h335v-60h-335v-265h410v-60h-475zM374 828c0 12.667 4.33301 23.334 13 32.001s19.334 13 32.001 13s23.334 -4.33301 32.001 -13s13 -19.334 13 -32.001s-4.33301 -23.334 -13 -32.001s-19.334 -13 -32.001 -13s-23.334 4.33301 -32.001 13
s-13 19.334 -13 32.001zM204 828c0 12.667 4.33301 23.334 13 32.001s19.334 13 32.001 13s23.334 -4.33301 32.001 -13s13 -19.334 13 -32.001s-4.33301 -23.334 -13 -32.001s-19.334 -13 -32.001 -13s-23.334 4.33301 -32.001 13s-13 19.334 -13 32.001z" />
    <glyph glyph-name="afii10051" unicode="&#x402;" horiz-adv-x="775" 
d="M10 640l-0.000976562 60h520v-60h-240v-220h190c74 0 133.333 -21.333 178 -64s67 -98 67 -166v-280h-210v60h145v220c0 53.333 -15.667 95 -47 125s-75.666 45 -132.999 45h-190v-360h-65v640h-215z" />
    <glyph glyph-name="afii10052" unicode="&#x403;" horiz-adv-x="550" 
d="M90 0v700h440v-60h-375v-640h-65zM285 775l90 145h75v-1l-115 -144h-50z" />
    <glyph glyph-name="afii10053" unicode="&#x404;" horiz-adv-x="800" 
d="M50 350c0 106.667 34.334 195.002 103.001 265.002s154.334 105 257.001 105c112 0 203 -41.667 273 -125c30 -36.667 52.333 -78.334 67 -125.001h-65c-13.333 35.333 -32.333 67 -57 95c-56.667 63.333 -129.334 95 -218.001 95c-81.333 0 -148.833 -25.5 -202.5 -76.5
s-84.5 -117.167 -92.5 -198.5h315v-60h-315c5.33301 -82.667 35.333 -150.834 90 -204.501s123 -80.5 205 -80.5c90.667 0 164.667 34 222 102c24.667 29.333 44 63.666 58 102.999h65c-14.667 -49.333 -37.667 -93.666 -69 -132.999c-69.333 -88 -161.333 -132 -276 -132
c-102.667 0 -188.334 35 -257.001 105s-103 158.333 -103 265z" />
    <glyph glyph-name="afii10054" unicode="&#x405;" horiz-adv-x="635" 
d="M45 185h64.9971c9.33301 -28 23.333 -52.333 42 -73c42.667 -48 100.334 -72 173.001 -72c62.667 0 110.834 13.333 144.501 40s50.5 60 50.5 100c0 10.667 -1.16699 20.334 -3.5 29.001s-6.5 17 -12.5 25s-11.5 14.833 -16.5 20.5s-13.167 11.667 -24.5 18l-26.5 14.5
c-6.33301 3.33301 -17.166 7.83301 -32.499 13.5s-26.333 9.5 -33 11.5l-37 11.5l-36 11.5c-26.667 7.33301 -49 14.333 -67 21s-37.667 15.5 -59 26.5s-38.5 22.833 -51.5 35.5s-23.833 28.667 -32.5 48s-13 40.666 -13 63.999c0 52 22 96.667 66 134s102 56 174 56
c94.667 0 167.667 -31 219 -93c22 -26.667 37.333 -57.334 46 -92.001h-65c-7.33301 23.333 -19.333 44 -36 62c-39.333 42 -94 63 -164 63c-55.333 0 -98.333 -12.5 -129 -37.5s-46 -55.833 -46 -92.5c0 -46 31 -82.333 93 -109c20.667 -9.33301 64 -23.666 130 -42.999
c27.333 -8.66699 49.5 -16.167 66.5 -22.5s36.5 -15.333 58.5 -27s39.167 -23.834 51.5 -36.501s23 -28.667 32 -48s13.5 -40.666 13.5 -63.999c0 -55.333 -23.5 -102.5 -70.5 -141.5s-110.167 -58.5 -189.5 -58.5c-100 0 -176.667 34 -230 102
c-23.333 30.667 -40 65 -50 103z" />
    <glyph glyph-name="afii10055" unicode="&#x406;" horiz-adv-x="245" 
d="M90 0v700h65v-700h-65z" />
    <glyph glyph-name="afii10056" unicode="&#x407;" horiz-adv-x="245" 
d="M90 0v700h65v-700h-65zM165 828c0 12.667 4.33301 23.334 13 32.001s19.334 13 32.001 13s23.334 -4.33301 32.001 -13s13 -19.334 13 -32.001s-4.33301 -23.334 -13 -32.001s-19.334 -13 -32.001 -13s-23.334 4.33301 -32.001 13s-13 19.334 -13 32.001zM-5 828
c0 12.667 4.33301 23.334 13 32.001s19.334 13 32.001 13s23.334 -4.33301 32.001 -13s13 -19.334 13 -32.001s-4.33301 -23.334 -13 -32.001s-19.334 -13 -32.001 -13s-23.334 4.33301 -32.001 13s-13 19.334 -13 32.001z" />
    <glyph glyph-name="afii10057" unicode="&#x408;" horiz-adv-x="550" 
d="M0 155l65.001 15.001c7.33301 -25.333 18 -47 32 -65c32.667 -43.333 78.667 -65 138 -65c50.667 0 90.834 15.667 120.501 47s44.5 75.666 44.5 132.999v480h65v-480c0 -74 -20.833 -132.5 -62.5 -175.5s-97.5 -64.5 -167.5 -64.5c-82.667 0 -146.334 29 -191.001 87
c-20.667 26.667 -35.334 56 -44.001 88z" />
    <glyph glyph-name="afii10058" unicode="&#x409;" horiz-adv-x="1035" 
d="M25 0l180 700h340v-250h205c76 0 136.667 -21 182 -63s68 -96 68 -162s-22.667 -120 -68 -162s-106 -63 -182 -63h-270v640h-230l-160 -640h-65zM545 60l205 -0.00195312c59.333 0 105 14.833 137 44.5s48 69.834 48 120.501s-16 90.834 -48 120.501
s-77.667 44.5 -137 44.5h-205v-330z" />
    <glyph glyph-name="afii10059" unicode="&#x40a;" horiz-adv-x="1115" 
d="M90 0v699.998h65v-280h395v280h65v-280h220c76 0 135.833 -19.667 179.5 -59s65.5 -89.666 65.5 -150.999s-21.833 -111.666 -65.5 -150.999s-103.5 -59 -179.5 -59h-285v360h-395v-360h-65zM615 59.998l220 -0.00195312c59.333 0 104.166 13.333 134.499 40
s45.5 63.334 45.5 110.001s-15.167 83.334 -45.5 110.001s-75.166 40 -134.499 40h-220v-300z" />
    <glyph glyph-name="afii10060" unicode="&#x40b;" horiz-adv-x="775" 
d="M10 640l-0.000976562 60h520v-60h-240v-220h190c74 0 133.333 -21.333 178 -64s67 -98 67 -166v-190h-65v190c0 53.333 -15.667 95 -47 125s-75.666 45 -132.999 45h-190v-360h-65v640h-215z" />
    <glyph glyph-name="afii10061" unicode="&#x40c;" horiz-adv-x="635" 
d="M90 0v700h65v-315h155l225 315h80l-245 -340l255 -360h-80l-230 325h-160v-325h-65zM305 775l90 145h75v-1l-115 -144h-50z" />
    <glyph glyph-name="afii10062" unicode="&#x40e;" 
d="M15 700h70l145 -375h145l150 375h70l-280 -700h-70l105 265h-165zM155 910h55c0 -26 8.5 -46.667 25.5 -62s40.167 -23 69.5 -23s52.5 7.66699 69.5 23s25.5 36 25.5 62h55c0 -38 -14 -70 -42 -96s-64 -39 -108 -39s-80 13 -108 39s-42 58 -42 96z" />
    <glyph glyph-name="afii10145" unicode="&#x40f;" horiz-adv-x="715" 
d="M90 0v700h65v-640h405v640h65v-700h-235v-140h-65v140h-235z" />
    <glyph glyph-name="afii10017" unicode="&#x410;" horiz-adv-x="670" 
d="M25 0l185 700h250l185 -700h-65l-60 230h-370l-60 -230h-65zM165 290h340l-95 350h-150z" />
    <glyph glyph-name="afii10018" unicode="&#x411;" horiz-adv-x="670" 
d="M90 0v700h480v-60h-415v-210h220c73.333 0 132.5 -20.5 177.5 -61.5s67.5 -92.167 67.5 -153.5s-22.5 -112.5 -67.5 -153.5s-104.167 -61.5 -177.5 -61.5h-285zM155 60h220c56.667 0 100.834 14.167 132.501 42.5s47.5 65.833 47.5 112.5s-15.833 84.167 -47.5 112.5
s-75.834 42.5 -132.501 42.5h-220v-310z" />
    <glyph glyph-name="afii10019" unicode="&#x412;" horiz-adv-x="700" 
d="M90 0v700.002h325c59.333 0 107.5 -17.5 144.5 -52.5s55.5 -79.167 55.5 -132.5c0 -48 -16 -87.333 -48 -118c-14.667 -13.333 -30.334 -24 -47.001 -32v-5c22.667 -6.66699 43.334 -17.334 62.001 -32.001c42 -32.667 63 -77 63 -133
c0 -56.667 -20.667 -103.334 -62 -140.001s-97.333 -55 -168 -55h-325zM155 390.002h260c42 0 75 11.333 99 34s36 53 36 91s-12 68.333 -36 91s-57 34 -99 34h-260v-250zM155 60.002l260 0.00195312c54 0 95 12.167 123 36.5s42 57.166 42 98.499s-14 74.166 -42 98.499
s-69 36.5 -123 36.5h-260v-270z" />
    <glyph glyph-name="afii10020" unicode="&#x413;" horiz-adv-x="550" 
d="M90 0v700h440v-60h-375v-640h-65z" />
    <glyph glyph-name="afii10021" unicode="&#x414;" horiz-adv-x="730" 
d="M5 -140v200h80l160 640h240l160 -640h80v-200h-65v140h-590v-140h-65zM150 60h430l-145 580h-140z" />
    <glyph glyph-name="afii10022" unicode="&#x415;" horiz-adv-x="610" 
d="M90 0v700h475v-60h-410v-255h335v-60h-335v-265h410v-60h-475z" />
    <glyph glyph-name="afii10024" unicode="&#x416;" horiz-adv-x="985" 
d="M15 0l245 360l-235 340h80l215 -315h140v315h65v-315h140l215 315h80l-235 -340l245 -360h-80l-220 325h-145v-325h-65v325h-145l-220 -325h-80z" />
    <glyph glyph-name="afii10025" unicode="&#x417;" horiz-adv-x="635" 
d="M35 195l65.001 0.000976562c8 -28.667 21 -54.667 39 -78c40.667 -51.333 101 -77 181 -77c62.667 0 110.834 13.667 144.501 41s50.5 62 50.5 104s-16.833 76.667 -50.5 104s-81.834 41 -144.501 41h-90v60h90c56 0 99.167 13 129.5 39s45.5 59.667 45.5 101
c0 36.667 -15.333 67.5 -46 92.5s-73.667 37.5 -129 37.5c-69.333 0 -123.333 -23.333 -162 -70c-18 -22 -30.667 -45.333 -38 -70h-65c12 39.333 28.667 72.666 50 99.999c52 66.667 123.667 100 215 100c72 0 130 -18.667 174 -56s66 -82 66 -134
c0 -55.333 -20 -99 -60 -131c-16.667 -14.667 -36.667 -26 -60 -34v-5c25.333 -6.66699 48.666 -17.667 69.999 -33c46.667 -36 70 -83.333 70 -142c0 -57.333 -23.5 -105.833 -70.5 -145.5s-110.167 -59.5 -189.5 -59.5c-102 0 -180 35.667 -234 107c-24 32 -41 68 -51 108
z" />
    <glyph glyph-name="afii10026" unicode="&#x418;" horiz-adv-x="725" 
d="M90 0v700h65v-615l-1 -10h1l390 625h90v-700h-65v615l1 10h-1l-390 -625h-90z" />
    <glyph glyph-name="afii10027" unicode="&#x419;" horiz-adv-x="725" 
d="M90 0v700h65v-615l-1 -10h1l390 625h90v-700h-65v615l1 10h-1l-390 -625h-90zM218 910h55c0 -26 8.5 -46.667 25.5 -62s40.167 -23 69.5 -23s52.5 7.66699 69.5 23s25.5 36 25.5 62h55c0 -38 -14 -70 -42 -96s-64 -39 -108 -39s-80 13 -108 39s-42 58 -42 96z" />
    <glyph glyph-name="afii10028" unicode="&#x41a;" horiz-adv-x="635" 
d="M90 0v700h65v-315h155l225 315h80l-245 -340l255 -360h-80l-230 325h-160v-325h-65z" />
    <glyph glyph-name="afii10029" unicode="&#x41b;" horiz-adv-x="655" 
d="M25 0l180 700h245l180 -700h-65l-165 640h-145l-165 -640h-65z" />
    <glyph glyph-name="afii10030" unicode="&#x41c;" horiz-adv-x="915" 
d="M90 0v700h105l230 -465h65l230 465h105v-700h-65v630l1 10h-1l-230 -465h-145l-230 465l-1 -1l1 -9v-630h-65z" />
    <glyph glyph-name="afii10031" unicode="&#x41d;" horiz-adv-x="715" 
d="M90 0v700h65v-315h405v315h65v-700h-65v325h-405v-325h-65z" />
    <glyph glyph-name="afii10032" unicode="&#x41e;" horiz-adv-x="820" 
d="M50 350c0 106.667 34.333 195 103 265s154.334 105 257.001 105s188.334 -35 257.001 -105s103 -158.333 103 -265s-34.333 -195 -103 -265s-154.334 -105 -257.001 -105s-188.334 35 -257.001 105s-103 158.333 -103 265zM115 350c0 -92 27.667 -166.667 83 -224
s126 -86 212 -86s156.667 28.667 212 86s83 132 83 224s-27.667 166.667 -83 224s-126 86 -212 86s-156.667 -28.667 -212 -86s-83 -132 -83 -224z" />
    <glyph glyph-name="afii10033" unicode="&#x41f;" horiz-adv-x="715" 
d="M90 0v700h535v-700h-65v640h-405v-640h-65z" />
    <glyph glyph-name="afii10034" unicode="&#x420;" horiz-adv-x="665" 
d="M90 0v700h285c76 0 136.667 -21 182 -63s68 -96 68 -162s-22.667 -120 -68 -162s-106 -63 -182 -63h-220v-250h-65zM155 310l220 -0.00195312c59.333 0 105 14.833 137 44.5s48 69.834 48 120.501s-16 90.834 -48 120.501s-77.667 44.5 -137 44.5h-220v-330z" />
    <glyph glyph-name="afii10035" unicode="&#x421;" horiz-adv-x="800" 
d="M50 350c0 106.667 34.334 195.001 103.001 265.001s154.334 105 257.001 105c112 0 203 -41.667 273 -125c30 -36.667 52.333 -78.334 67 -125.001h-65c-13.333 35.333 -32.333 67 -57 95c-56.667 63.333 -129.334 95 -218.001 95c-86 0 -156.667 -28.667 -212 -86
s-83 -132 -83 -224s27.667 -166.667 83 -224s126 -86 212 -86c90.667 0 164.667 34 222 102c24.667 29.333 44 63.666 58 102.999h65c-14.667 -49.333 -37.667 -93.666 -69 -132.999c-69.333 -88 -161.333 -132 -276 -132c-102.667 0 -188.334 35 -257.001 105
s-103 158.333 -103 265z" />
    <glyph glyph-name="afii10036" unicode="&#x422;" horiz-adv-x="585" 
d="M10 640v60h565v-60h-250v-640h-65v640h-250z" />
    <glyph glyph-name="afii10037" unicode="&#x423;" 
d="M15 700h70l145 -375h145l150 375h70l-280 -700h-70l105 265h-165z" />
    <glyph glyph-name="afii10038" unicode="&#x424;" horiz-adv-x="875" 
d="M45 355c0 84.667 33.167 156.834 99.5 216.501s153.166 90.834 260.499 93.501v80h65v-80c107.333 -2.66699 194.166 -33.834 260.499 -93.501s99.5 -131.834 99.5 -216.501s-33.167 -156.834 -99.5 -216.501s-153.166 -90.834 -260.499 -93.501v-80h-65v80
c-107.333 2.66699 -194.166 33.834 -260.499 93.501s-99.5 131.834 -99.5 216.501zM470 605v-499.999c90 2.66699 161.667 27.5 215 74.5s80 105.5 80 175.5c0 69.333 -26.667 127.666 -80 174.999s-125 72.333 -215 75zM110 355.001c0 -70 26.667 -128.501 80 -175.501
s125 -71.833 215 -74.5v500c-90 -2.66699 -161.667 -27.667 -215 -75s-80 -105.666 -80 -174.999z" />
    <glyph glyph-name="afii10039" unicode="&#x425;" horiz-adv-x="630" 
d="M25 0l190 350l-180 350h70l165 -320h90l165 320h70l-180 -350l190 -350h-70l-175 320h-90l-175 -320h-70z" />
    <glyph glyph-name="afii10040" unicode="&#x426;" horiz-adv-x="710" 
d="M90 0v700h66v-640h374v640h65v-640h90v-200h-65v140h-530z" />
    <glyph glyph-name="afii10041" unicode="&#x427;" horiz-adv-x="670" 
d="M75 465v234.999h65v-235c0 -55.333 16.167 -99.166 48.5 -131.499s76.166 -48.5 131.499 -48.5c48 0 95.333 10.667 142 32c20.667 9.33301 38.334 20.333 53.001 33v350h65v-700h-65v285c-15.333 -10.667 -34 -20.667 -56 -30c-48 -20 -97.667 -30 -149 -30
c-70 0 -126.667 22 -170 66s-65 102 -65 174z" />
    <glyph glyph-name="afii10042" unicode="&#x428;" horiz-adv-x="995" 
d="M90 0v700h66v-640h309v640h65v-640h310v640h65v-700h-815z" />
    <glyph glyph-name="afii10043" unicode="&#x429;" horiz-adv-x="1020" 
d="M90 0v700h66v-640h309v640h65v-640h310v640h65v-640h90v-200h-65v140h-840z" />
    <glyph glyph-name="afii10044" unicode="&#x42a;" horiz-adv-x="720" 
d="M0 640v60h225v-250h210c76 0 136.667 -21 182 -63s68 -96 68 -162s-22.667 -120 -68 -162s-106 -63 -182 -63h-275v640h-160zM225 60l210 -0.00195312c59.333 0 105 14.833 137 44.5s48 69.834 48 120.501s-16 90.834 -48 120.501s-77.667 44.5 -137 44.5h-210v-330z" />
    <glyph glyph-name="afii10045" unicode="&#x42b;" horiz-adv-x="855" 
d="M700 0v700h65v-700h-65zM90 0v700h65v-250h200c76 0 136.667 -21 182 -63s68 -96 68 -162s-22.667 -120 -68 -162s-106 -63 -182 -63h-265zM155 60l200 -0.00195312c59.333 0 105 14.833 137 44.5s48 69.834 48 120.501s-16 90.834 -48 120.501s-77.667 44.5 -137 44.5
h-200v-330z" />
    <glyph glyph-name="afii10046" unicode="&#x42c;" horiz-adv-x="660" 
d="M90 0v700h65v-250h220c76 0 136.667 -21 182 -63s68 -96 68 -162s-22.667 -120 -68 -162s-106 -63 -182 -63h-285zM155 60l220 -0.00195312c59.333 0 105 14.833 137 44.5s48 69.834 48 120.501s-16 90.834 -48 120.501s-77.667 44.5 -137 44.5h-220v-330z" />
    <glyph glyph-name="afii10047" unicode="&#x42d;" horiz-adv-x="795" 
d="M40 245l65.001 -0.000976562c12.667 -38.667 31.667 -73 57 -103c57.333 -68 131.666 -102 222.999 -102c82 0 150.333 26.833 205 80.5s84.667 121.834 90 204.501h-315v60h315c-8 81.333 -38.833 147.5 -92.5 198.5s-121.167 76.5 -202.5 76.5
c-90 0 -162.667 -31.667 -218 -95c-24.667 -28 -43.667 -59.667 -57 -95h-65c14.667 46.667 37 88.334 67 125.001c70 83.333 161 125 273 125c102.667 0 188.334 -35 257.001 -105s103 -158.333 103 -265s-34.333 -195 -103 -265s-154.334 -105 -257.001 -105
c-62.667 0 -117.167 12.5 -163.5 37.5s-83.833 56.5 -112.5 94.5c-31.333 39.333 -54.333 83.666 -69 132.999z" />
    <glyph glyph-name="afii10048" unicode="&#x42e;" horiz-adv-x="1020" 
d="M90 0l0.000976562 700h65v-315h125c8 95.333 44.5 175 109.5 239s143.5 96 235.5 96c96 0 177.5 -35.167 244.5 -105.5s100.5 -158.5 100.5 -264.5s-33.5 -194.167 -100.5 -264.5s-148.5 -105.5 -244.5 -105.5c-92.667 0 -171.334 32.5 -236.001 97.5
s-101 147.5 -109 247.5h-125v-325h-65zM345.001 350c0 -90.667 27 -165 81 -223s120.333 -87 199 -87s145 29 199 87s81 132.333 81 223c0 89.333 -27 163.333 -81 222s-120.333 88 -199 88s-145 -29.333 -199 -88s-81 -132.667 -81 -222z" />
    <glyph glyph-name="afii10049" unicode="&#x42f;" horiz-adv-x="685" 
d="M60 485c0 64 21.833 115.833 65.5 155.5s103.5 59.5 179.5 59.5h290v-700h-66v270h-229l-160 -270h-75l165 280c-49.333 10 -90 33.333 -122 70s-48 81.667 -48 135zM125 485c0 -49.333 15.167 -87.5 45.5 -114.5s75.166 -40.5 134.499 -40.5h224v310h-224
c-59.333 0 -104.166 -13.5 -134.499 -40.5s-45.5 -65.167 -45.5 -114.5z" />
    <glyph glyph-name="afii10065" unicode="&#x430;" horiz-adv-x="615" 
d="M45 250c0 74 23.333 135.833 70 185.5s103.334 74.5 170.001 74.5c47.333 0 87.333 -11.5 120 -34.5s55.667 -48.167 69 -75.5h1v100h60v-500h-60v100h-1c-13.333 -27.333 -36.333 -52.5 -69 -75.5s-72.667 -34.5 -120 -34.5c-66.667 0 -123.334 24.833 -170.001 74.5
s-70 111.5 -70 185.5zM105 250c0 -58.667 18.167 -107.5 54.5 -146.5s79.833 -58.5 130.5 -58.5c49.333 0 92.5 19.5 129.5 58.5s55.5 87.833 55.5 146.5s-18.5 107.5 -55.5 146.5s-80.167 58.5 -129.5 58.5c-50.667 0 -94.167 -19.5 -130.5 -58.5
s-54.5 -87.833 -54.5 -146.5z" />
    <glyph glyph-name="afii10066" unicode="&#x431;" horiz-adv-x="560" 
d="M50 285c0 145.333 26.3311 250.833 78.998 316.5s129.667 98.5 231 98.5h125v-55h-120c-79.333 0 -140 -22.5 -182 -67.5s-66.667 -115.833 -74 -212.5h1c11.333 18 25.333 33.667 42 47c38.667 32 86.334 48 143.001 48c62.667 0 116.667 -23 162 -69
s68 -101.333 68 -166c0 -65.333 -23.167 -120.833 -69.5 -166.5s-103.166 -68.5 -170.499 -68.5c-72.667 0 -130 24.833 -172 74.5s-63 123.167 -63 220.5zM109.998 237c0 -57.333 16.5 -103.666 49.5 -138.999s74.833 -53 125.5 -53c50 0 92.5 17.667 127.5 53
s52.5 78.333 52.5 129c0 49.333 -17.5 91.333 -52.5 126s-77.5 52 -127.5 52c-49.333 0 -90.833 -16.333 -124.5 -49s-50.5 -72.334 -50.5 -119.001z" />
    <glyph glyph-name="afii10067" unicode="&#x432;" horiz-adv-x="530" 
d="M80 0v500h235c47.333 0 84.166 -12 110.499 -36s39.5 -55.333 39.5 -94c0 -50.667 -25 -85.334 -75 -104.001v-1c2 0 6 -1 12 -3s13.833 -6 23.5 -12s18.834 -13.333 27.501 -22s16.167 -20.667 22.5 -36s9.5 -32.666 9.5 -51.999c0 -41.333 -14.833 -75 -44.5 -101
s-71.167 -39 -124.5 -39h-236zM140 290l175.001 0.000976562c29.333 0 51.666 6.66699 66.999 20s23 31.666 23 54.999c0 53.333 -30 80 -90 80h-175v-155zM140.001 55.001h175c73.333 0 110 30 110 90s-36.667 90 -110 90h-175v-180z" />
    <glyph glyph-name="afii10068" unicode="&#x433;" horiz-adv-x="425" 
d="M80 0v500h335v-55h-275v-445h-60z" />
    <glyph glyph-name="afii10069" unicode="&#x434;" horiz-adv-x="550" 
d="M5 -120v175h55l120 445h190l120 -445h55v-175h-55v120h-430v-120h-55zM120 55h310l-105 390h-100z" />
    <glyph glyph-name="afii10070" unicode="&#x435;" horiz-adv-x="590" 
d="M45 250c0 74.667 24 136.667 72 186s107.333 74 178 74c70 0 129.167 -24.5 177.5 -73.5s72.5 -109.5 72.5 -181.5v-25h-440c2.66699 -52.667 22 -96.667 58 -132s80 -53 132 -53c57.333 0 104.333 18.333 141 55c17.333 16 30.333 34.333 39 55h60
c-12 -31.333 -29 -59 -51 -83c-49.333 -54.667 -112.333 -82 -189 -82c-70.667 0 -130 24.667 -178 74s-72 111.333 -72 186zM105 285h374.998c-5.33301 48.667 -25.166 89.167 -59.499 121.5s-76.166 48.5 -125.499 48.5s-91.333 -16 -126 -48s-56 -72.667 -64 -122z" />
    <glyph glyph-name="afii10072" unicode="&#x436;" horiz-adv-x="760" 
d="M5 0l195 260l-180 240h70l160 -210h100v210h60v-210h100l160 210h70l-180 -240l195 -260h-70l-175 235h-100v-235h-60v235h-100l-175 -235h-70z" />
    <glyph glyph-name="afii10073" unicode="&#x437;" horiz-adv-x="485" 
d="M25 145l59.998 0.00292969c4.66699 -18 13.667 -34.667 27 -50c30.667 -33.333 73.334 -50 128.001 -50c45.333 0 80 9 104 27s36 40.667 36 68s-11.5 49.166 -34.5 65.499s-58.167 24.5 -105.5 24.5h-60v55h60c83.333 0 125 28.333 125 85c0 24 -10.667 44.167 -32 60.5
s-52.333 24.5 -93 24.5c-48.667 0 -86.667 -14.333 -114 -43c-12.667 -12.667 -21.334 -26.667 -26.001 -42h-60c6.66699 25.333 18.667 48.666 36 69.999c38.667 46.667 93.334 70 164.001 70c57.333 0 102.5 -13.333 135.5 -40s49.5 -58.334 49.5 -95.001
c0 -53.333 -30 -91.333 -90 -114v-1c1.33301 0 5.33301 -1.16699 12 -3.5s15.334 -6.5 26.001 -12.5s21 -13.5 31 -22.5s18.5 -21.167 25.5 -36.5s10.5 -32 10.5 -50c0 -42 -17.167 -76.667 -51.5 -104s-83.833 -41 -148.5 -41c-81.333 0 -141 25.667 -179 77
c-16.667 23.333 -28.667 49.333 -36 78z" />
    <glyph glyph-name="afii10074" unicode="&#x438;" horiz-adv-x="580" 
d="M80 0v500h60v-405l-1 -10h1l290 415h70v-500h-60v405l1 10h-1l-290 -415h-70z" />
    <glyph glyph-name="afii10075" unicode="&#x439;" horiz-adv-x="580" 
d="M80 0v500h60v-405l-1 -10h1l290 415h70v-500h-60v405l1 10h-1l-290 -415h-70zM150 690h55c0 -20.667 7.33301 -37.5 22 -50.5s35.667 -19.5 63 -19.5s48.333 6.5 63 19.5s22 29.833 22 50.5h55c0 -33.333 -13 -61.666 -39 -84.999s-59.667 -35 -101 -35
s-75 11.667 -101 35s-39 51.666 -39 84.999z" />
    <glyph glyph-name="afii10076" unicode="&#x43a;" horiz-adv-x="515" 
d="M80 0v500h60v-210h120l165 210h70l-185 -240l200 -260h-70l-180 235h-120v-235h-60z" />
    <glyph glyph-name="afii10077" unicode="&#x43b;" horiz-adv-x="515" 
d="M20 0l140 500h195l140 -500h-60l-125 445h-105l-125 -445h-60z" />
    <glyph glyph-name="afii10078" unicode="&#x43c;" horiz-adv-x="700" 
d="M80 0v500h90l165 -320h30l165 320h90v-500h-60v420l1 10h-1l-160 -310h-100l-160 310h-1l1 -10v-420h-60z" />
    <glyph glyph-name="afii10079" unicode="&#x43d;" horiz-adv-x="580" 
d="M80 0v500h60v-220h300v220h60v-500h-60v225h-300v-225h-60z" />
    <glyph glyph-name="afii10080" unicode="&#x43e;" 
d="M45 250c0 74.667 24.333 136.667 73 186s109.334 74 182.001 74s133.334 -24.667 182.001 -74s73 -111.333 73 -186s-24.333 -136.667 -73 -186s-109.334 -74 -182.001 -74s-133.334 24.667 -182.001 74s-73 111.333 -73 186zM105 250c0 -59.333 18.667 -108.333 56 -147
s83.666 -58 138.999 -58s101.666 19.333 138.999 58s56 87.667 56 147s-18.667 108.333 -56 147s-83.666 58 -138.999 58s-101.666 -19.333 -138.999 -58s-56 -87.667 -56 -147z" />
    <glyph glyph-name="afii10081" unicode="&#x43f;" horiz-adv-x="575" 
d="M80 0v500h415v-500h-60v445h-295v-445h-60z" />
    <glyph glyph-name="afii10082" unicode="&#x440;" horiz-adv-x="615" 
d="M80 -190v690h60v-100h1c10.667 26.667 33 51.667 67 75s74.667 35 122 35c66.667 0 123.334 -24.833 170.001 -74.5s70 -111.5 70 -185.5s-23.333 -135.833 -70 -185.5s-103.334 -74.5 -170.001 -74.5c-47.333 0 -88 11.667 -122 35s-56.333 48.333 -67 75h-1v-290h-60z
M140 250c0 -58.667 18.5 -107.5 55.5 -146.5s80.167 -58.5 129.5 -58.5c50.667 0 94.167 19.5 130.5 58.5s54.5 87.833 54.5 146.5s-18.167 107.5 -54.5 146.5s-79.833 58.5 -130.5 58.5c-49.333 0 -92.5 -19.5 -129.5 -58.5s-55.5 -87.833 -55.5 -146.5z" />
    <glyph glyph-name="afii10083" unicode="&#x441;" horiz-adv-x="570" 
d="M45 250c0 74 23.832 135.833 71.499 185.5s105.5 74.5 173.5 74.5c79.333 0 142.333 -29.333 189 -88c20.667 -25.333 36 -54.333 46 -87h-60c-9.33301 23.333 -21.666 43.333 -36.999 60c-34.667 40 -80.667 60 -138 60c-50.667 0 -94.167 -19.5 -130.5 -58.5
s-54.5 -87.833 -54.5 -146.5s18.167 -107.5 54.5 -146.5s79.833 -58.5 130.5 -58.5c58 0 105.333 21.667 142 65c17.333 20 30 41.667 38 65h60c-10 -34 -25.667 -65 -47 -93c-50.667 -61.333 -115 -92 -193 -92c-68 0 -125.833 24.833 -173.5 74.5s-71.5 111.5 -71.5 185.5
z" />
    <glyph glyph-name="afii10084" unicode="&#x442;" horiz-adv-x="430" 
d="M5 445v55h420v-55h-180v-445h-60v445h-180z" />
    <glyph glyph-name="afii10085" unicode="&#x443;" horiz-adv-x="505" 
d="M25 500h65l115 -445h95l130 445h65l-205 -690h-65l60 190h-125z" />
    <glyph glyph-name="afii10086" unicode="&#x444;" horiz-adv-x="660" 
d="M40 250c0 70 24.667 129.333 74 178s111.333 74.334 186 77.001v195h60v-195c74.667 -2.66699 136.667 -28.334 186 -77.001s74 -108 74 -178s-24.667 -129.333 -74 -178s-111.333 -74.334 -186 -77.001v-185h-60v185c-74.667 2.66699 -136.667 28.334 -186 77.001
s-74 108 -74 178zM360 450v-400c56 2.66699 103.333 22.5 142 59.5s58 83.833 58 140.5c0 56 -19.333 102.667 -58 140s-86 57.333 -142 60zM100 250c0 -56.667 19.333 -103.5 58 -140.5s86 -56.833 142 -59.5v400c-56 -2.66699 -103.333 -22.667 -142 -60s-58 -84 -58 -140
z" />
    <glyph glyph-name="afii10087" unicode="&#x445;" horiz-adv-x="485" 
d="M10 0l150 255l-140 245h70l120 -215h65l120 215h70l-140 -245l150 -255h-70l-130 230h-65l-130 -230h-70z" />
    <glyph glyph-name="afii10088" unicode="&#x446;" horiz-adv-x="575" 
d="M80 0v500h60v-445h280v445h60v-445h75v-175h-60v120h-415z" />
    <glyph glyph-name="afii10089" unicode="&#x447;" horiz-adv-x="545" 
d="M65 325v175h60v-175c0 -80 41.667 -120 125 -120c39.333 0 77 7.33301 113 22c18 8 32 15.667 42 23v250h60v-500h-60v195c-10 -7.33301 -24 -15 -42 -23c-36 -14.667 -73.667 -22 -113 -22c-57.333 0 -102.5 15.833 -135.5 47.5s-49.5 74.167 -49.5 127.5z" />
    <glyph glyph-name="afii10090" unicode="&#x448;" horiz-adv-x="790" 
d="M80 0v500h60v-445h225v445h60v-445h225v445h60v-500h-630z" />
    <glyph glyph-name="afii10091" unicode="&#x449;" horiz-adv-x="805" 
d="M80 0v500h60v-445h225v445h60v-445h225v445h60v-445h75v-175h-60v120h-645z" />
    <glyph glyph-name="afii10092" unicode="&#x44a;" horiz-adv-x="530" 
d="M0 445v55h175v-180h145c54 0 97.5 -15.167 130.5 -45.5s49.5 -68.5 49.5 -114.5s-16.5 -84.167 -49.5 -114.5s-76.5 -45.5 -130.5 -45.5h-205v445h-115zM175 55l145 -0.00195312c37.333 0 66.666 9.83301 87.999 29.5s32 44.834 32 75.501s-10.667 55.834 -32 75.501
s-50.666 29.5 -87.999 29.5h-145v-210z" />
    <glyph glyph-name="afii10093" unicode="&#x44b;" horiz-adv-x="670" 
d="M530 0v500h60v-500h-60zM80 0v500h60v-180h135c54 0 97.5 -15.167 130.5 -45.5s49.5 -68.5 49.5 -114.5s-16.5 -84.167 -49.5 -114.5s-76.5 -45.5 -130.5 -45.5h-195zM140 55l135 -0.00195312c37.333 0 66.666 9.83301 87.999 29.5s32 44.834 32 75.501
s-10.667 55.834 -32 75.501s-50.666 29.5 -87.999 29.5h-135v-210z" />
    <glyph glyph-name="afii10094" unicode="&#x44c;" horiz-adv-x="505" 
d="M80 0v500h60v-180h155c54 0 97.5 -15.167 130.5 -45.5s49.5 -68.5 49.5 -114.5s-16.5 -84.167 -49.5 -114.5s-76.5 -45.5 -130.5 -45.5h-215zM140 55l155 -0.00195312c37.333 0 66.666 9.83301 87.999 29.5s32 44.834 32 75.501s-10.667 55.834 -32 75.501
s-50.666 29.5 -87.999 29.5h-155v-210z" />
    <glyph glyph-name="afii10095" unicode="&#x44d;" horiz-adv-x="565" 
d="M35 175h59.999c8 -24.667 20.333 -46.334 37 -65.001c35.333 -43.333 83 -65 143 -65c47.333 0 88 16.833 122 50.5s55 76.834 63 129.501h-225v55h225c-8 50.667 -29 92.5 -63 125.5s-74.667 49.5 -122 49.5c-57.333 0 -103.333 -20 -138 -60
c-15.333 -16.667 -27.666 -36.667 -36.999 -60h-60c10 32.667 25.333 61.667 46 87c46.667 58.667 109.667 88 189 88c68 0 125.833 -24.833 173.5 -74.5s71.5 -111.5 71.5 -185.5s-23.833 -135.833 -71.5 -185.5s-105.5 -74.5 -173.5 -74.5c-82 0 -146.333 30.667 -193 92
c-21.333 28 -37 59 -47 93z" />
    <glyph glyph-name="afii10096" unicode="&#x44e;" horiz-adv-x="765" 
d="M80 0v500h60v-225h90c8 68.667 34.667 125 80 169s100.333 66 165 66c68 0 125.833 -24.833 173.5 -74.5s71.5 -111.5 71.5 -185.5s-23.833 -135.833 -71.5 -185.5s-105.5 -74.5 -173.5 -74.5c-64.667 0 -119.667 21.667 -165 65s-72 98.333 -80 165h-90v-220h-60z
M290 250c0 -58.667 18.167 -107.5 54.5 -146.5s79.833 -58.5 130.5 -58.5s94.167 19.5 130.5 58.5s54.5 87.833 54.5 146.5s-18.167 107.5 -54.5 146.5s-79.833 58.5 -130.5 58.5s-94.167 -19.5 -130.5 -58.5s-54.5 -87.833 -54.5 -146.5z" />
    <glyph glyph-name="afii10097" unicode="&#x44f;" horiz-adv-x="545" 
d="M60 0l105 184.999c-28 8.66699 -52.5 26.334 -73.5 53.001s-31.5 59 -31.5 97c0 46 17.333 85 52 117s79 48 133 48h220v-500h-60v170h-185l-90 -170h-70zM120 334.999c0 -31.333 11.667 -57.5 35 -78.5s53.333 -31.5 90 -31.5h160v220h-160
c-36.667 0 -66.667 -10.833 -90 -32.5s-35 -47.5 -35 -77.5z" />
    <glyph glyph-name="afii10071" unicode="&#x451;" horiz-adv-x="590" 
d="M45 250c0 74.667 24 136.667 72 186s107.333 74 178 74c70 0 129.167 -24.5 177.5 -73.5s72.5 -109.5 72.5 -181.5v-25h-440c2.66699 -52.667 22 -96.667 58 -132s80 -53 132 -53c57.333 0 104.333 18.333 141 55c17.333 16 30.333 34.333 39 55h60
c-12 -31.333 -29 -59 -51 -83c-49.333 -54.667 -112.333 -82 -189 -82c-70.667 0 -130 24.667 -178 74s-72 111.333 -72 186zM105 285h374.998c-5.33301 48.667 -25.166 89.167 -59.499 121.5s-76.166 48.5 -125.499 48.5s-91.333 -16 -126 -48s-56 -72.667 -64 -122z
M329.998 625c0 12.667 4.33301 23.334 13 32.001s19.334 13 32.001 13s23.334 -4.33301 32.001 -13s13 -19.334 13 -32.001s-4.33301 -23.334 -13 -32.001s-19.334 -13 -32.001 -13s-23.334 4.33301 -32.001 13s-13 19.334 -13 32.001zM159.998 625
c0 12.667 4.33301 23.334 13 32.001s19.334 13 32.001 13s23.334 -4.33301 32.001 -13s13 -19.334 13 -32.001s-4.33301 -23.334 -13 -32.001s-19.334 -13 -32.001 -13s-23.334 4.33301 -32.001 13s-13 19.334 -13 32.001z" />
    <glyph glyph-name="afii10099" unicode="&#x452;" horiz-adv-x="575" 
d="M15 530v55h70v115h60v-115h130v-55h-130v-195h1c12 24.667 33.167 46.667 63.5 66s68.833 29 115.5 29c56 0 101.667 -19.333 137 -58s53 -91 53 -157v-405h-210v55h150v350c0 51.333 -12.5 90.833 -37.5 118.5s-59.167 41.5 -102.5 41.5c-48 0 -88.333 -17 -121 -51
s-49 -77 -49 -129v-195h-60v530h-70z" />
    <glyph glyph-name="afii10100" unicode="&#x453;" horiz-adv-x="425" 
d="M80 0v500h335v-55h-275v-445h-60zM220 570l90 145h75v-1l-115 -144h-50z" />
    <glyph glyph-name="afii10101" unicode="&#x454;" horiz-adv-x="570" 
d="M45 250c0 74 23.832 135.834 71.499 185.501s105.5 74.5 173.5 74.5c79.333 0 142.333 -29.333 189 -88c20.667 -25.333 36 -54.333 46 -87h-60c-9.33301 23.333 -21.666 43.333 -36.999 60c-34.667 40 -80.667 60 -138 60c-47.333 0 -88 -16.5 -122 -49.5
s-55 -74.833 -63 -125.5h225v-55h-225c8 -52.667 29 -95.834 63 -129.501s74.667 -50.5 122 -50.5c58 0 105.333 21.667 142 65c17.333 20 30 41.667 38 65h60c-10 -34 -25.667 -65 -47 -93c-50.667 -61.333 -115 -92 -193 -92c-68 0 -125.833 24.833 -173.5 74.5
s-71.5 111.5 -71.5 185.5z" />
    <glyph glyph-name="afii10102" unicode="&#x455;" horiz-adv-x="510" 
d="M40 150h65.0029c8.66699 -21.333 20 -39 34 -53c32 -34.667 75.667 -52 131 -52c45.333 0 79.166 8.16699 101.499 24.5s33.5 38.166 33.5 65.499c0 14.667 -4.33301 27.5 -13 38.5s-22.5 20.167 -41.5 27.5s-36 13 -51 17s-36.5 9 -64.5 15
c-32.667 6 -60.5 13.667 -83.5 23s-43.167 24.166 -60.5 44.499s-26 45.166 -26 74.499c0 36.667 16.5 68.334 49.5 95.001s78.167 40 135.5 40c72 0 129 -24.333 171 -73c18 -20.667 31 -44.667 39 -72h-65c-7.33301 18 -17 33 -29 45c-30 30 -68.667 45 -116 45
c-40 0 -70.833 -7.83301 -92.5 -23.5s-32.5 -34.5 -32.5 -56.5c0 -12 3.33301 -22.833 10 -32.5s14.667 -17.667 24 -24s22.5 -12.166 39.5 -17.499s32 -9.5 45 -12.5s30.167 -6.5 51.5 -10.5c24 -5.33301 45.167 -11.166 63.5 -17.499s36 -15 53 -26
s30.167 -24.833 39.5 -41.5s14 -36 14 -58c0 -42 -16.833 -76.667 -50.5 -104s-81.834 -41 -144.501 -41c-80 0 -142 26.667 -186 80c-20.667 23.333 -35.334 50 -44.001 80z" />
    <glyph glyph-name="afii10103" unicode="&#x456;" horiz-adv-x="220" 
d="M65 650c0 12.667 4.33301 23.334 13 32.001s19.334 13 32.001 13s23.334 -4.33301 32.001 -13s13 -19.334 13 -32.001s-4.33301 -23.334 -13 -32.001s-19.334 -13 -32.001 -13s-23.334 4.33301 -32.001 13s-13 19.334 -13 32.001zM80 0v500h60v-500h-60z" />
    <glyph glyph-name="afii10104" unicode="&#x457;" horiz-adv-x="220" 
d="M80 0v500h60v-500h-60zM150 630c0 12.667 4.33301 23.334 13 32.001s19.334 13 32.001 13s23.334 -4.33301 32.001 -13s13 -19.334 13 -32.001s-4.33301 -23.334 -13 -32.001s-19.334 -13 -32.001 -13s-23.334 4.33301 -32.001 13s-13 19.334 -13 32.001zM-20 630
c0 12.667 4.33301 23.334 13 32.001s19.334 13 32.001 13s23.334 -4.33301 32.001 -13s13 -19.334 13 -32.001s-4.33301 -23.334 -13 -32.001s-19.334 -13 -32.001 -13s-23.334 4.33301 -32.001 13s-13 19.334 -13 32.001z" />
    <glyph glyph-name="afii10105" unicode="&#x458;" horiz-adv-x="220" 
d="M65 650c0 12.667 4.33301 23.334 13 32.001s19.334 13 32.001 13s23.334 -4.33301 32.001 -13s13 -19.334 13 -32.001s-4.33301 -23.334 -13 -32.001s-19.334 -13 -32.001 -13s-23.334 4.33301 -32.001 13s-13 19.334 -13 32.001zM-65 -190v55h145v635h60v-690h-205z" />
    <glyph glyph-name="afii10106" unicode="&#x459;" horiz-adv-x="775" 
d="M20 0l140 500h260v-180h145c54 0 97.5 -15.167 130.5 -45.5s49.5 -68.5 49.5 -114.5s-16.5 -84.167 -49.5 -114.5s-76.5 -45.5 -130.5 -45.5h-205v445h-155l-125 -445h-60zM420 55l145 -0.00195312c37.333 0 66.666 9.83301 87.999 29.5s32 44.834 32 75.501
s-10.667 55.834 -32 75.501s-50.666 29.5 -87.999 29.5h-145v-210z" />
    <glyph glyph-name="afii10107" unicode="&#x45a;" horiz-adv-x="845" 
d="M80 0v499.998h60v-200h290v200h60v-200h155c51.333 0 92.5 -14.167 123.5 -42.5s46.5 -64.166 46.5 -107.499s-15.5 -79.166 -46.5 -107.499s-72.167 -42.5 -123.5 -42.5h-215v245h-290v-245h-60zM490 54.998h155c34.667 0 61.667 8.66699 81 26s29 40.333 29 69
s-9.66699 51.667 -29 69s-46.333 26 -81 26h-155v-190z" />
    <glyph glyph-name="afii10108" unicode="&#x45b;" horiz-adv-x="575" 
d="M15 530v55h70v115h60v-115h130v-55h-130v-195h1c12 24.667 33.167 46.667 63.5 66s68.833 29 115.5 29c56 0 101.667 -19.333 137 -58s53 -91 53 -157v-215h-60v215c0 51.333 -12.5 90.833 -37.5 118.5s-59.167 41.5 -102.5 41.5c-48 0 -88.333 -17 -121 -51
s-49 -77 -49 -129v-195h-60v530h-70z" />
    <glyph glyph-name="afii10109" unicode="&#x45c;" horiz-adv-x="515" 
d="M80 0v500h60v-210h120l165 210h70l-185 -240l200 -260h-70l-180 235h-120v-235h-60zM238 561l90 145h75v-1l-115 -144h-50z" />
    <glyph glyph-name="afii10110" unicode="&#x45e;" horiz-adv-x="505" 
d="M25 500h65l115 -445h95l130 445h65l-205 -690h-65l60 190h-125zM120 690h55c0 -20.667 7.33301 -37.5 22 -50.5s35.667 -19.5 63 -19.5s48.333 6.5 63 19.5s22 29.833 22 50.5h55c0 -33.333 -13 -61.666 -39 -84.999s-59.667 -35 -101 -35s-75 11.667 -101 35
s-39 51.666 -39 84.999z" />
    <glyph glyph-name="afii10193" unicode="&#x45f;" horiz-adv-x="575" 
d="M80 0v500h60v-445h295v445h60v-500h-175v-120h-60v120h-180z" />
    <glyph glyph-name="afii10050" unicode="&#x490;" horiz-adv-x="550" 
d="M90 0v700h375v100h65v-160h-375v-640h-65z" />
    <glyph glyph-name="afii10098" unicode="&#x491;" horiz-adv-x="425" 
d="M80 0v500h275v90h60v-145h-275v-445h-60z" />
    <glyph glyph-name="uni1E9E" unicode="&#x1e9e;" horiz-adv-x="700" 
d="M85 0v460.001c0 76 22.167 135 66.5 177s110.5 63 198.5 63h257v-61l-187 -204v-5c74.667 -5.33301 132.5 -27.333 173.5 -66s61.5 -88.334 61.5 -149.001c0 -62 -23.5 -113.333 -70.5 -154s-111.833 -61 -194.5 -61h-70v60h70c62.667 0 111.667 14.833 147 44.5
s53 66.5 53 110.5s-17.667 80.833 -53 110.5s-84.333 44.5 -147 44.5h-50v65l180 200h-170c-72 0 -123.333 -14.167 -154 -42.5s-46 -73.833 -46 -136.5v-456h-65z" />
    <glyph glyph-name="endash" unicode="&#x2013;" horiz-adv-x="665" 
d="M60 240v55h545v-55h-545z" />
    <glyph glyph-name="emdash" unicode="&#x2014;" horiz-adv-x="855" 
d="M60 240v55h735v-55h-735z" />
    <glyph glyph-name="quoteleft" unicode="&#x2018;" horiz-adv-x="195" 
d="M45 590c0 68 33.333 108 100 120v-30c-40 -10 -60 -31.667 -60 -65c0 -4 0.666992 -8.66699 2 -14l3 -6l6 2c8 2 12.667 3 14 3c10 0 19.167 -4.16699 27.5 -12.5s12.5 -17.5 12.5 -27.5c0 -15.333 -4.5 -27.5 -13.5 -36.5s-21.167 -13.5 -36.5 -13.5
c-16.667 0 -30 6.66699 -40 20s-15 33.333 -15 60z" />
    <glyph glyph-name="quoteright" unicode="&#x2019;" horiz-adv-x="195" 
d="M45 660c0 15.333 4.50098 27.5 13.501 36.5s21.167 13.5 36.5 13.5c16.667 0 30 -6.66699 40 -20s15 -33.333 15 -60c0 -68 -33.333 -108 -100 -120v30c40 10 60 31.667 60 65c0 1.33301 -1 6 -3 14l-2 6l-6 -3c-6.66699 -1.33301 -11.334 -2 -14.001 -2
c-10 0 -19.167 4.16699 -27.5 12.5s-12.5 17.5 -12.5 27.5z" />
    <glyph glyph-name="quotesinglbase" unicode="&#x201a;" horiz-adv-x="195" 
d="M45 30c0 15.333 4.50098 27.5 13.501 36.5s21.167 13.5 36.5 13.5c16.667 0 30 -6.66699 40 -20s15 -33.333 15 -60c0 -68 -33.333 -108 -100 -120v30c40 10 60 31.667 60 65c0 1.33301 -1 6 -3 14l-2 6l-6 -3c-6.66699 -1.33301 -11.334 -2 -14.001 -2
c-10 0 -19.167 4.16699 -27.5 12.5s-12.5 17.5 -12.5 27.5z" />
    <glyph glyph-name="quotedblleft" unicode="&#x201c;" horiz-adv-x="335" 
d="M45 590c0 68 33.333 108 100 120v-30c-40 -10 -60 -31.667 -60 -65c0 -4 0.666992 -8.66699 2 -14l3 -6l6 2c8 2 12.667 3 14 3c10 0 19.167 -4.16699 27.5 -12.5s12.5 -17.5 12.5 -27.5c0 -15.333 -4.5 -27.5 -13.5 -36.5s-21.167 -13.5 -36.5 -13.5
c-16.667 0 -30 6.66699 -40 20s-15 33.333 -15 60zM185 590c0 68 33.333 108 100 120v-30c-40 -10 -60 -31.667 -60 -65c0 -4 0.666992 -8.66699 2 -14l3 -6l6 2c8 2 12.667 3 14 3c10 0 19.167 -4.16699 27.5 -12.5s12.5 -17.5 12.5 -27.5
c0 -15.333 -4.5 -27.5 -13.5 -36.5s-21.167 -13.5 -36.5 -13.5c-16.667 0 -30 6.66699 -40 20s-15 33.333 -15 60z" />
    <glyph glyph-name="quotedblright" unicode="&#x201d;" horiz-adv-x="335" 
d="M45 660c0 15.333 4.50098 27.5 13.501 36.5s21.167 13.5 36.5 13.5c16.667 0 30 -6.66699 40 -20s15 -33.333 15 -60c0 -68 -33.333 -108 -100 -120v30c40 10 60 31.667 60 65c0 1.33301 -1 6 -3 14l-2 6l-6 -3c-6.66699 -1.33301 -11.334 -2 -14.001 -2
c-10 0 -19.167 4.16699 -27.5 12.5s-12.5 17.5 -12.5 27.5zM185.001 660c0 15.333 4.50098 27.5 13.501 36.5s21.167 13.5 36.5 13.5c16.667 0 30 -6.66699 40 -20s15 -33.333 15 -60c0 -68 -33.333 -108 -100 -120v30c40 10 60 31.667 60 65c0 1.33301 -1 6 -3 14l-2 6
l-6 -3c-6.66699 -1.33301 -11.334 -2 -14.001 -2c-10 0 -19.167 4.16699 -27.5 12.5s-12.5 17.5 -12.5 27.5z" />
    <glyph glyph-name="quotedblbase" unicode="&#x201e;" horiz-adv-x="335" 
d="M45 30c0 15.333 4.50098 27.5 13.501 36.5s21.167 13.5 36.5 13.5c16.667 0 30 -6.66699 40 -20s15 -33.333 15 -60c0 -68 -33.333 -108 -100 -120v30c40 10 60 31.667 60 65c0 1.33301 -1 6 -3 14l-2 6l-6 -3c-6.66699 -1.33301 -11.334 -2 -14.001 -2
c-10 0 -19.167 4.16699 -27.5 12.5s-12.5 17.5 -12.5 27.5zM185.001 30c0 15.333 4.50098 27.5 13.501 36.5s21.167 13.5 36.5 13.5c16.667 0 30 -6.66699 40 -20s15 -33.333 15 -60c0 -68 -33.333 -108 -100 -120v30c40 10 60 31.667 60 65c0 1.33301 -1 6 -3 14l-2 6
l-6 -3c-6.66699 -1.33301 -11.334 -2 -14.001 -2c-10 0 -19.167 4.16699 -27.5 12.5s-12.5 17.5 -12.5 27.5z" />
    <glyph glyph-name="dagger" unicode="&#x2020;" horiz-adv-x="460" 
d="M50 440v60h150v200h60v-200h150v-60h-150v-440h-60v440h-150z" />
    <glyph glyph-name="daggerdbl" unicode="&#x2021;" horiz-adv-x="460" 
d="M50 160v60h150v260h-150v60h150v160h60v-160h150v-60h-150v-260h150v-60h-150v-160h-60v160h-150z" />
    <glyph glyph-name="bullet" unicode="&#x2022;" horiz-adv-x="370" 
d="M120 280c0 17.333 6.5 32.5 19.5 45.5s28.167 19.5 45.5 19.5s32.5 -6.5 45.5 -19.5s19.5 -28.167 19.5 -45.5s-6.5 -32.5 -19.5 -45.5s-28.167 -19.5 -45.5 -19.5s-32.5 6.5 -45.5 19.5s-19.5 28.167 -19.5 45.5z" />
    <glyph glyph-name="ellipsis" unicode="&#x2026;" horiz-adv-x="620" 
d="M45 35c0 15.333 4.5 27.5 13.5 36.5s21.167 13.5 36.5 13.5s27.5 -4.5 36.5 -13.5s13.5 -21.167 13.5 -36.5s-4.5 -27.5 -13.5 -36.5s-21.167 -13.5 -36.5 -13.5s-27.5 4.66699 -36.5 14s-13.5 21.333 -13.5 36zM260 35c0 15.333 4.5 27.5 13.5 36.5
s21.167 13.5 36.5 13.5s27.5 -4.5 36.5 -13.5s13.5 -21.167 13.5 -36.5s-4.5 -27.5 -13.5 -36.5s-21.167 -13.5 -36.5 -13.5s-27.5 4.66699 -36.5 14s-13.5 21.333 -13.5 36zM475 35c0 15.333 4.5 27.5 13.5 36.5s21.167 13.5 36.5 13.5s27.5 -4.5 36.5 -13.5
s13.5 -21.167 13.5 -36.5s-4.5 -27.5 -13.5 -36.5s-21.167 -13.5 -36.5 -13.5s-27.5 4.66699 -36.5 14s-13.5 21.333 -13.5 36z" />
    <glyph glyph-name="perthousand" unicode="&#x2030;" horiz-adv-x="1130" 
d="M40 545c0 45.333 16.167 84.166 48.5 116.499s71.166 48.5 116.499 48.5s84.166 -16.167 116.499 -48.5s48.5 -71.166 48.5 -116.499s-16.167 -84.166 -48.5 -116.499s-71.166 -48.5 -116.499 -48.5s-84.166 16.167 -116.499 48.5s-48.5 71.166 -48.5 116.499zM140 0
l420 700h65l-420 -700h-65zM100 545c0 -32 10 -58.333 30 -79s45 -31 75 -31s55 10.333 75 31s30 47 30 79s-10 58.333 -30 79s-45 31 -75 31s-55 -10.333 -75 -31s-30 -47 -30 -79zM760 155c0 45.333 16.167 84.166 48.5 116.499s71.166 48.5 116.499 48.5
s84.166 -16.167 116.499 -48.5s48.5 -71.166 48.5 -116.499s-16.167 -84.166 -48.5 -116.499s-71.166 -48.5 -116.499 -48.5s-84.166 16.167 -116.499 48.5s-48.5 71.166 -48.5 116.499zM390 155c0 45.333 16.167 84.166 48.5 116.499s71.166 48.5 116.499 48.5
s84.166 -16.167 116.499 -48.5s48.5 -71.166 48.5 -116.499s-16.167 -84.166 -48.5 -116.499s-71.166 -48.5 -116.499 -48.5s-84.166 16.167 -116.499 48.5s-48.5 71.166 -48.5 116.499zM820 155c0 -32 10 -58.333 30 -79s45 -31 75 -31s55 10.333 75 31s30 47 30 79
s-10 58.333 -30 79s-45 31 -75 31s-55 -10.333 -75 -31s-30 -47 -30 -79zM450 155c0 -32 10 -58.333 30 -79s45 -31 75 -31s55 10.333 75 31s30 47 30 79s-10 58.333 -30 79s-45 31 -75 31s-55 -10.333 -75 -31s-30 -47 -30 -79z" />
    <glyph glyph-name="guilsinglleft" unicode="&#x2039;" horiz-adv-x="355" 
d="M40 250l230 235l40 -40l-190 -195l190 -195l-40 -40z" />
    <glyph glyph-name="guilsinglright" unicode="&#x203a;" horiz-adv-x="355" 
d="M45 55l190 195l-190 195l40 40l230 -235l-230 -235z" />
    <glyph glyph-name="fraction" unicode="&#x2044;" horiz-adv-x="140" 
d="M-175 0l430 700h60l-430 -700h-60z" />
    <glyph glyph-name="zerosuperior" unicode="&#x2070;" horiz-adv-x="370" 
d="M30 630c0 53.333 15 96.666 45 129.999s66.667 50 110 50s80 -16.667 110 -50s45 -76.666 45 -129.999s-15 -96.666 -45 -129.999s-66.667 -50 -110 -50s-80 16.667 -110 50s-45 76.666 -45 129.999zM90 630c0 -39.333 8.66699 -70 26 -92s40.333 -33 69 -33
s51.667 11 69 33s26 52.667 26 92s-8.66699 70 -26 92s-40.333 33 -69 33s-51.667 -11 -69 -33s-26 -52.667 -26 -92z" />
    <glyph glyph-name="foursuperior" unicode="&#x2074;" horiz-adv-x="320" 
d="M20 535v55l135 210h65l-135 -210h110v70h60v-70h50v-55h-50v-75h-60v75h-175z" />
    <glyph glyph-name="fivesuperior" unicode="&#x2075;" horiz-adv-x="345" 
d="M40 555l64.9971 -0.000976562c3.33301 -10 8.33301 -18.333 15 -25c14 -16.667 34 -25 60 -25c53.333 0 80 21.667 80 65c0 16.667 -7.16699 30.834 -21.5 42.501s-33.833 17.5 -58.5 17.5c-17.333 0 -34.666 -5 -51.999 -15c-6.66699 -4.66699 -12.667 -9.66699 -18 -15
l-55 10l10 190h225v-55h-170l-6 -85h1c4.66699 4.66699 11 8.66699 19 12c14.667 8.66699 33.334 13 56.001 13c39.333 0 70.833 -10.833 94.5 -32.5s35.5 -49.167 35.5 -82.5c0 -36 -12 -65 -36 -87s-57.333 -33 -100 -33c-53.333 0 -93 17.333 -119 52
c-11.333 14 -19.666 31.667 -24.999 53z" />
    <glyph glyph-name="sixsuperior" unicode="&#x2076;" horiz-adv-x="330" 
d="M25 570c0 38.667 16.667 78.665 50 119.998l90 110h70l-75 -91l-30 -24v-5c2.66699 0.666992 6.66699 2.33398 12 5.00098c8 3.33301 15.667 5 23 5c41.333 0 75 -11.667 101 -35s39 -51.666 39 -84.999s-13 -61.666 -39 -84.999s-59.667 -35 -101 -35
s-75 11.667 -101 35s-39 51.666 -39 84.999zM85 569.998c0 -18 7.16699 -33.333 21.5 -46s33.833 -19 58.5 -19s44.167 6.33301 58.5 19s21.5 28 21.5 46s-7.16699 33.333 -21.5 46s-33.833 19 -58.5 19s-44.167 -6.33301 -58.5 -19s-21.5 -28 -21.5 -46z" />
    <glyph glyph-name="sevensuperior" unicode="&#x2077;" horiz-adv-x="285" 
d="M20 745v55h255v-55l-150 -285h-65l150 284v1h-190z" />
    <glyph glyph-name="eightsuperior" unicode="&#x2078;" horiz-adv-x="370" 
d="M35 550c0 28.667 11.6631 51 34.9961 67c9.33301 6.66699 21 12.667 35 18v5c-10 3.33301 -19.333 9 -28 17c-18 14.667 -27 34 -27 58c0 26.667 11.833 49.167 35.5 67.5s56.834 27.5 99.501 27.5s75.834 -9.16699 99.501 -27.5s35.5 -40.833 35.5 -67.5
c0 -24 -9.33301 -43.333 -28 -58c-8.66699 -7.33301 -17.667 -13 -27 -17v-5c11.333 -4.66699 23 -10.667 35 -18c23.333 -18 35 -40.333 35 -67c0 -27.333 -13.167 -50.833 -39.5 -70.5s-63.166 -29.5 -110.499 -29.5s-84.166 9.83301 -110.499 29.5
s-39.5 43.167 -39.5 70.5zM114.996 711c0 -30.667 23.333 -46 70 -46s70 15.333 70 46c0 29.333 -23.333 44 -70 44s-70 -14.667 -70 -44zM94.9961 555c0 -14 7.5 -25.833 22.5 -35.5s37.5 -14.5 67.5 -14.5s52.5 4.83301 67.5 14.5s22.5 21.5 22.5 35.5
s-7.5 25.833 -22.5 35.5s-37.5 14.5 -67.5 14.5s-52.5 -4.83301 -67.5 -14.5s-22.5 -21.5 -22.5 -35.5z" />
    <glyph glyph-name="ninesuperior" unicode="&#x2079;" horiz-adv-x="330" 
d="M25 690c0 33.333 13.001 61.668 39.001 85.001s59.667 35 101 35s75 -11.667 101 -35s39 -51.666 39 -84.999c0 -38.667 -16.667 -78.667 -50 -120l-90 -110h-70l75 91l30 24v5c-5.33301 -2.66699 -9.33301 -4.33398 -12 -5.00098
c-8.66699 -3.33301 -16.334 -5 -23.001 -5c-41.333 0 -75 11.667 -101 35s-39 51.666 -39 84.999zM85.001 690.002c0 -18 7.16699 -33.333 21.5 -46s33.833 -19 58.5 -19s44.167 6.33301 58.5 19s21.5 28 21.5 46s-7.16699 33.333 -21.5 46s-33.833 19 -58.5 19
s-44.167 -6.33301 -58.5 -19s-21.5 -28 -21.5 -46z" />
    <glyph glyph-name="zeroinferior" unicode="&#x2080;" horiz-adv-x="370" 
d="M30 70c0 53.333 15 96.666 45 129.999s66.667 50 110 50s80 -16.667 110 -50s45 -76.666 45 -129.999s-15 -96.666 -45 -129.999s-66.667 -50 -110 -50s-80 16.667 -110 50s-45 76.666 -45 129.999zM90 70c0 -39.333 8.66699 -70 26 -92s40.333 -33 69 -33
s51.667 11 69 33s26 52.667 26 92s-8.66699 70 -26 92s-40.333 33 -69 33s-51.667 -11 -69 -33s-26 -52.667 -26 -92z" />
    <glyph glyph-name="oneinferior" unicode="&#x2081;" horiz-adv-x="340" 
d="M55 -100v55h100v220l-90 -55v65l95 55h55v-285h95v-55h-255z" />
    <glyph glyph-name="twoinferior" unicode="&#x2082;" horiz-adv-x="350" 
d="M35 -100l0.00292969 55l85 50c47.333 28 80.833 51.667 100.5 71s29.5 39 29.5 59c0 18 -6.33301 32.5 -19 43.5s-31.334 16.5 -56.001 16.5c-26.667 0 -48 -10 -64 -30c-8 -10 -13.333 -20 -16 -30h-60c5.33301 22 13.666 41 24.999 57c26.667 38.667 65 58 115 58
c41.333 0 74.166 -10.833 98.499 -32.5s36.5 -49.167 36.5 -82.5c0 -64.667 -56.667 -123 -170 -175l-5 -3l-5 -2v-1l10 1h175v-55h-280z" />
    <glyph glyph-name="threeinferior" unicode="&#x2083;" horiz-adv-x="345" 
d="M30 -5h65.002c3.33301 -8.66699 8.66602 -17 15.999 -25c15.333 -16.667 36.666 -25 63.999 -25c24.667 0 43.334 5.5 56.001 16.5s19 25.5 19 43.5c0 16.667 -6.66699 30 -20 40s-33 15 -59 15h-71v50l105 75v1l-10 -1h-145v55h240v-55l-95 -68l-10 -6v-1h5
c34 0 62.5 -10.833 85.5 -32.5s34.5 -47.5 34.5 -77.5c0 -31.333 -12.167 -57.5 -36.5 -78.5s-57.166 -31.5 -98.499 -31.5c-52.667 0 -92.334 17.333 -119.001 52c-12.667 15.333 -21.334 33 -26.001 53z" />
    <glyph glyph-name="fourinferior" unicode="&#x2084;" horiz-adv-x="320" 
d="M20 -25v55l135 210h65l-135 -210h110v70h60v-70h50v-55h-50v-75h-60v75h-175z" />
    <glyph glyph-name="fiveinferior" unicode="&#x2085;" horiz-adv-x="345" 
d="M40 -5l64.9971 -0.000976562c3.33301 -10 8.33301 -18.333 15 -25c14 -16.667 34 -25 60 -25c53.333 0 80 21.667 80 65c0 16.667 -7.16699 30.834 -21.5 42.501s-33.833 17.5 -58.5 17.5c-17.333 0 -34.666 -5 -51.999 -15c-6.66699 -4.66699 -12.667 -9.66699 -18 -15
l-55 10l10 190h225v-55h-170l-6 -85h1c4.66699 4.66699 11 8.66699 19 12c14.667 8.66699 33.334 13 56.001 13c39.333 0 70.833 -10.833 94.5 -32.5s35.5 -49.167 35.5 -82.5c0 -36 -12 -65 -36 -87s-57.333 -33 -100 -33c-53.333 0 -93 17.333 -119 52
c-11.333 14 -19.666 31.667 -24.999 53z" />
    <glyph glyph-name="sixinferior" unicode="&#x2086;" horiz-adv-x="330" 
d="M25 10c0 38.667 16.667 78.665 50 119.998l90 110h70l-75 -91l-30 -24v-5c2.66699 0.666992 6.66699 2.33398 12 5.00098c8 3.33301 15.667 5 23 5c41.333 0 75 -11.667 101 -35s39 -51.666 39 -84.999s-13 -61.666 -39 -84.999s-59.667 -35 -101 -35s-75 11.667 -101 35
s-39 51.666 -39 84.999zM85 9.99805c0 -18 7.16699 -33.333 21.5 -46s33.833 -19 58.5 -19s44.167 6.33301 58.5 19s21.5 28 21.5 46s-7.16699 33.333 -21.5 46s-33.833 19 -58.5 19s-44.167 -6.33301 -58.5 -19s-21.5 -28 -21.5 -46z" />
    <glyph glyph-name="seveninferior" unicode="&#x2087;" horiz-adv-x="285" 
d="M20 185v55h255v-55l-150 -285h-65l150 284v1h-190z" />
    <glyph glyph-name="eightinferior" unicode="&#x2088;" horiz-adv-x="370" 
d="M35 -10c0 28.667 11.6631 51 34.9961 67c9.33301 6.66699 21 12.667 35 18v5c-10 3.33301 -19.333 9 -28 17c-18 14.667 -27 34 -27 58c0 26.667 11.833 49.167 35.5 67.5s56.834 27.5 99.501 27.5s75.834 -9.16699 99.501 -27.5s35.5 -40.833 35.5 -67.5
c0 -24 -9.33301 -43.333 -28 -58c-8.66699 -7.33301 -17.667 -13 -27 -17v-5c11.333 -4.66699 23 -10.667 35 -18c23.333 -18 35 -40.333 35 -67c0 -27.333 -13.167 -50.833 -39.5 -70.5s-63.166 -29.5 -110.499 -29.5s-84.166 9.83301 -110.499 29.5
s-39.5 43.167 -39.5 70.5zM114.996 151c0 -30.667 23.333 -46 70 -46s70 15.333 70 46c0 29.333 -23.333 44 -70 44s-70 -14.667 -70 -44zM94.9961 -5c0 -14 7.5 -25.833 22.5 -35.5s37.5 -14.5 67.5 -14.5s52.5 4.83301 67.5 14.5s22.5 21.5 22.5 35.5
s-7.5 25.833 -22.5 35.5s-37.5 14.5 -67.5 14.5s-52.5 -4.83301 -67.5 -14.5s-22.5 -21.5 -22.5 -35.5z" />
    <glyph glyph-name="nineinferior" unicode="&#x2089;" horiz-adv-x="330" 
d="M25 130c0 33.333 13.001 61.668 39.001 85.001s59.667 35 101 35s75 -11.667 101 -35s39 -51.666 39 -84.999c0 -38.667 -16.667 -78.667 -50 -120l-90 -110h-70l75 91l30 24v5c-5.33301 -2.66699 -9.33301 -4.33398 -12 -5.00098
c-8.66699 -3.33301 -16.334 -5 -23.001 -5c-41.333 0 -75 11.667 -101 35s-39 51.666 -39 84.999zM85.001 130.002c0 -18 7.16699 -33.333 21.5 -46s33.833 -19 58.5 -19s44.167 6.33301 58.5 19s21.5 28 21.5 46s-7.16699 33.333 -21.5 46s-33.833 19 -58.5 19
s-44.167 -6.33301 -58.5 -19s-21.5 -28 -21.5 -46z" />
    <glyph glyph-name="Euro" unicode="&#x20ac;" horiz-adv-x="830" 
d="M20 250l0.00292969 55.0039h62c-1.33301 20 -2 35 -2 45s0.666992 25 2 45h-62v55h72c20 81.333 61.667 146.666 125 195.999s137.666 74 222.999 74c112 0 203 -41.667 273 -125c30 -36.667 52.333 -78.334 67 -125.001h-65c-13.333 35.333 -32.333 67 -57 95
c-56.667 63.333 -129.334 95 -218.001 95c-68 0 -127.333 -19 -178 -57s-85.334 -89 -104.001 -153h282v-55h-293c-1.33301 -20 -2 -35 -2 -45s0.666992 -25 2 -45h293v-55h-282c19.333 -64.667 54.166 -115.834 104.499 -153.501s109.5 -56.5 177.5 -56.5
c90.667 0 164.667 34 222 102c24.667 29.333 44 63.666 58 102.999h65c-14.667 -49.333 -37.667 -93.666 -69 -132.999c-69.333 -88 -161.333 -132 -276 -132c-85.333 0 -159.666 24.667 -222.999 74s-105 114.666 -125 195.999h-72z" />
    <glyph glyph-name="uni20B4" unicode="&#x20b4;" horiz-adv-x="640" 
d="M55 390l-0.00195312 59.998h395c8 6 15.333 13.333 22 22c15.333 20.667 23 43.334 23 68.001c0 34.667 -14.833 63.334 -44.5 86.001s-73.167 34 -130.5 34c-64.667 0 -115.667 -19.333 -153 -58c-16.667 -16.667 -29 -35.667 -37 -57h-65
c8.66699 31.333 24.334 60.333 47.001 87c52 58.667 121.333 88 208 88c74.667 0 133.334 -17.5 176.001 -52.5s64 -77.5 64 -127.5c0 -36.667 -11.667 -66.667 -35 -90h60v-60h-530zM54.998 249.998l0.00292969 60.002h530v-60h-395
c-8.66699 -6.66699 -16.334 -14.334 -23.001 -23.001c-14.667 -20 -22 -42.333 -22 -67c0 -34.667 14.833 -63.334 44.5 -86.001s73.167 -34 130.5 -34c65.333 0 116.333 19 153 57c16 16 28.333 35.333 37 58h65c-8.66699 -32 -24.334 -61.333 -47.001 -88
c-48.667 -58 -118 -87 -208 -87c-74.667 0 -133.334 17.5 -176.001 52.5s-64 77.5 -64 127.5c0 37.333 11.333 67.333 34 90h-59z" />
    <glyph glyph-name="uni20BD" unicode="&#x20bd;" horiz-adv-x="665" 
d="M35 110v60h85v90h-85v60h85v380h255c76 0 136.667 -20.833 182 -62.5s68 -94.167 68 -157.5s-22.667 -115.833 -68 -157.5s-106 -62.5 -182 -62.5h-190v-90h255v-60h-255v-110h-65v110h-85zM185 320h190c59.333 0 105 14.333 137 43s48 67.667 48 117s-16 88.333 -48 117
s-77.667 43 -137 43h-190v-320z" />
    <glyph glyph-name="afii61352" unicode="&#x2116;" horiz-adv-x="1060" 
d="M710 550c0 45.333 15.333 83.333 46 114s68.667 46 114 46s83.333 -15.333 114 -46s46 -68.667 46 -114s-15.333 -83.333 -46 -114s-68.667 -46 -114 -46s-83.333 15.333 -114 46s-46 68.667 -46 114zM90 0v700h100l360 -620l5 -10h1l-1 10v620h65v-700h-100l-360 620
l-5 10h-1l1 -10v-620h-65zM770 550c0 -30 9.66699 -55 29 -75s43 -30 71 -30s51.667 10 71 30s29 45 29 75s-9.66699 55 -29 75s-43 30 -71 30s-51.667 -10 -71 -30s-29 -45 -29 -75zM735 245v60h270v-60h-270z" />
    <glyph glyph-name="trademark" unicode="&#x2122;" horiz-adv-x="745" 
d="M330 380v320h85l85 -180h20l85 180h85v-320h-55v255l1 10h-1l-85 -180h-80l-85 180h-1l1 -10v-255h-55zM10 645v55h285v-55h-115v-265h-55v265h-115z" />
    <glyph glyph-name="arrowleft" unicode="&#x2190;" horiz-adv-x="900" 
d="M90 335v10l175 170h15v-150h530v-50h-530v-150h-15z" />
    <glyph glyph-name="arrowup" unicode="&#x2191;" horiz-adv-x="900" 
d="M275 525v15l170 175h10l170 -175v-15h-150v-525h-50v525h-150z" />
    <glyph glyph-name="arrowright" unicode="&#x2192;" horiz-adv-x="900" 
d="M90 315v50h530v150h15l175 -170v-10l-175 -170h-15v150h-530z" />
    <glyph glyph-name="arrowdown" unicode="&#x2193;" horiz-adv-x="900" 
d="M275 160v15h150v525h50v-525h150v-15l-170 -175h-10z" />
    <glyph glyph-name="uni2196" unicode="&#x2196;" horiz-adv-x="900" 
d="M185 360v250l10 10h250v-15l-105 -105l380 -380l-35 -35l-380 380l-105 -105h-15z" />
    <glyph glyph-name="uni2197" unicode="&#x2197;" horiz-adv-x="900" 
d="M185 120l380 380l-105 105v15h250l10 -10v-250h-15l-105 105l-380 -380z" />
    <glyph glyph-name="uni2198" unicode="&#x2198;" horiz-adv-x="900" 
d="M185 585l35 35l380 -380l105 105h15v-250l-10 -10h-250v15l105 105z" />
    <glyph glyph-name="uni2199" unicode="&#x2199;" horiz-adv-x="900" 
d="M185 95v250h15l105 -105l380 380l35 -35l-380 -380l105 -105v-15h-250z" />
    <glyph glyph-name="minus" unicode="&#x2212;" horiz-adv-x="500" 
d="M60 255v60h380v-60h-380z" />
    <glyph glyph-name="approxequal" unicode="&#x2248;" horiz-adv-x="500" 
d="M55 290l-0.00195312 15c0 32.667 10.333 59.167 31 79.5s48.667 30.5 84 30.5c28.667 0 58.667 -12.333 90 -37c8.66699 -8 14.5 -13.167 17.5 -15.5s8 -5.83301 15 -10.5s13.333 -7.83398 19 -9.50098s11.834 -2.5 18.501 -2.5c36.667 0 55 18.333 55 55v15h60v-15
c0 -32.667 -10.333 -59.167 -31 -79.5s-48.667 -30.5 -84 -30.5c-30 0 -59.667 12.667 -89 38c-1.33301 0.666992 -4.66602 3.16699 -9.99902 7.5s-8.66602 7 -9.99902 8l-9 6.5c-4.66699 3.33301 -8.16699 5.5 -10.5 6.5l-9 4
c-3.66699 1.66699 -7.33398 2.83398 -11.001 3.50098s-7.5 1 -11.5 1c-36.667 0 -55 -18.333 -55 -55v-15h-60zM54.998 125l-0.00195312 15c0 32.667 10.333 59.167 31 79.5s48.667 30.5 84 30.5c28.667 0 58.667 -12.333 90 -37c8.66699 -8 14.5 -13.167 17.5 -15.5
s8 -5.83301 15 -10.5s13.333 -7.83398 19 -9.50098s11.834 -2.5 18.501 -2.5c36.667 0 55 18.333 55 55v15h60v-15c0 -32.667 -10.333 -59.167 -31 -79.5s-48.667 -30.5 -84 -30.5c-30 0 -59.667 12.667 -89 38c-1.33301 0.666992 -4.66602 3.16699 -9.99902 7.5
s-8.66602 7 -9.99902 8l-9 6.5c-4.66699 3.33301 -8.16699 5.5 -10.5 6.5l-9 4c-3.66699 1.66699 -7.33398 2.83398 -11.001 3.50098s-7.5 1 -11.5 1c-36.667 0 -55 -18.333 -55 -55v-15h-60z" />
    <glyph glyph-name="notequal" unicode="&#x2260;" horiz-adv-x="500" 
d="M65 145v55h120l70 130h-190v55h220l80 145h60l-80 -145h90v-55h-120l-70 -130h190v-55h-220l-80 -145h-60l80 145h-90z" />
    <glyph glyph-name="lessequal" unicode="&#x2264;" horiz-adv-x="500" 
d="M55 280v65l380 175v-60l-320 -145v-5l320 -145v-60zM55 165v55l380 -175v-55z" />
    <glyph glyph-name="greaterequal" unicode="&#x2265;" horiz-adv-x="500" 
d="M65 105v60l320 145v5l-320 145v60l380 -175v-65zM65 -10v55l380 175v-55z" />
    <glyph glyph-name="commaaccent" unicode="&#xf6c3;" horiz-adv-x="160" 
d="M30 -140c0 10 4.5 19.168 13.5 27.501s19.5 12.5 31.5 12.5c16 0 29.167 -6.33301 39.5 -19s15.5 -31.334 15.5 -56.001c0 -29.333 -8.66699 -53.5 -26 -72.5s-40.333 -29.833 -69 -32.5v30c36.667 4.66699 55 23 55 55c0 1.33301 -1 6 -3 14l-2 6l-4 -3
c-5.33301 -1.33301 -9 -2 -11 -2c-26.667 0 -40 13.333 -40 40z" />
    <glyph glyph-name="cyrBreve" unicode="&#xf6d1;" horiz-adv-x="360" 
d="M30 905h55c0 -26 8.5 -46.667 25.5 -62s40.167 -23 69.5 -23s52.5 7.66699 69.5 23s25.5 36 25.5 62h55c0 -38 -14 -70 -42 -96s-64 -39 -108 -39s-80 13 -108 39s-42 58 -42 96z" />
    <glyph glyph-name="cyrbreve" unicode="&#xf6d4;" horiz-adv-x="340" 
d="M30 680h55c0 -20.667 7.33301 -37.5 22 -50.5s35.667 -19.5 63 -19.5s48.333 6.5 63 19.5s22 29.833 22 50.5h55c0 -33.333 -13 -61.666 -39 -84.999s-59.667 -35 -101 -35s-75 11.667 -101 35s-39 51.666 -39 84.999z" />
    <glyph glyph-name="zero.oldstyle" unicode="&#xf730;" 
d="M45 250c0 74.667 24.333 136.667 73 186s109.334 74 182.001 74s133.334 -24.667 182.001 -74s73 -111.333 73 -186s-24.333 -136.667 -73 -186s-109.334 -74 -182.001 -74s-133.334 24.667 -182.001 74s-73 111.333 -73 186zM105 250c0 -59.333 18.667 -108.333 56 -147
s83.666 -58 138.999 -58s101.666 19.333 138.999 58s56 87.667 56 147s-18.667 108.333 -56 147s-83.666 58 -138.999 58s-101.666 -19.333 -138.999 -58s-56 -87.667 -56 -147z" />
    <glyph glyph-name="one.oldstyle" unicode="&#xf731;" horiz-adv-x="285" 
d="M35 325v70l115 105h55v-500h-60v425z" />
    <glyph glyph-name="two.oldstyle" unicode="&#xf732;" horiz-adv-x="495" 
d="M69 430c41.333 53.333 100 80.001 176 80.001c63.333 0 113.333 -16 150 -48s55 -72.667 55 -122c0 -43.333 -13 -80.5 -39 -111.5s-64.667 -60.5 -116 -88.5l-145 -80l-10 -5v-1l10 1h315v-55h-430v55l205 115c52 29.333 90 57.166 114 83.499s36 55.166 36 86.499
c0 34 -12.5 61.667 -37.5 83s-60.833 32 -107.5 32c-51.333 0 -92 -17.667 -122 -53c-12 -14 -21.333 -31.333 -28 -52h-65c8 30.667 21 57.334 39 80.001z" />
    <glyph glyph-name="three.oldstyle" unicode="&#xf733;" horiz-adv-x="515" 
d="M10 -10l65.002 -0.00195312c7.33301 -25.333 18.333 -48 33 -68c34.667 -44.667 82 -67 142 -67c51.333 0 91.666 13.333 120.999 40s44 61.667 44 105c0 41.333 -14.833 75 -44.5 101s-71.5 39 -125.5 39h-85v55h85c47.333 0 84.166 12 110.499 36s39.5 55.333 39.5 94
c0 36 -13.333 66.667 -40 92s-61.667 38 -105 38c-53.333 0 -95.666 -17.667 -126.999 -53c-13.333 -14.667 -24.333 -32 -33 -52h-60c9.33301 30.667 23.333 57.334 42 80.001c42.667 53.333 102 80 178 80c60.667 0 110 -18.333 148 -55s57 -80 57 -130
s-17.667 -90 -53 -120c-14.667 -12.667 -32 -22.667 -52 -30v-5c22 -6.66699 42.667 -18 62 -34c42 -36.667 63 -82 63 -136c0 -58.667 -20.333 -106.667 -61 -144s-95.334 -56 -164.001 -56c-84 0 -149 31.667 -195 95c-20.667 26.667 -35.667 58.334 -45 95.001z" />
    <glyph glyph-name="four.oldstyle" unicode="&#xf734;" horiz-adv-x="510" 
d="M10 0v55l250 445h70l-250 -445h260v200h60v-200h105v-55h-105v-190h-60v190h-330z" />
    <glyph glyph-name="five.oldstyle" unicode="&#xf735;" horiz-adv-x="530" 
d="M45 -5l65.001 -0.000976562c7.33301 -26 17.666 -49.333 30.999 -70c32 -46.667 78.333 -70 139 -70c50 0 90.833 15.833 122.5 47.5s47.5 72.5 47.5 122.5s-16.333 91.667 -49 125s-73 50 -121 50c-44.667 0 -83.334 -14.333 -116.001 -43
c-13.333 -11.333 -24.666 -25.333 -33.999 -42h-60l25 385h370v-55h-315l-16 -250h1c8.66699 11.333 20.667 21.333 36 30c33.333 20 73 30 119 30c60.667 0 112.5 -22.167 155.5 -66.5s64.5 -98.833 64.5 -163.5c0 -65.333 -21.5 -119.166 -64.5 -161.499
s-98.167 -63.5 -165.5 -63.5c-86 0 -150.667 32.333 -194 97c-20 30 -33.667 62.667 -41 98z" />
    <glyph glyph-name="six.oldstyle" unicode="&#xf736;" horiz-adv-x="580" 
d="M45 225c0 44.667 7.83301 83.166 23.5 115.499s42.834 73.833 81.501 124.5l180 235h70l-180 -230l-25 -30v-5c6 4.66699 14.667 9.66699 26 15c24 10 48.667 15 74 15c67.333 0 124.166 -23.167 170.499 -69.5s69.5 -103.166 69.5 -170.499
c0 -65.333 -23.5 -120.833 -70.5 -166.5s-105.167 -68.5 -174.5 -68.5s-127.5 22.833 -174.5 68.5s-70.5 101.167 -70.5 166.5zM105 224.999c0 -50 17.833 -92.5 53.5 -127.5s79.5 -52.5 131.5 -52.5s95.833 17.5 131.5 52.5s53.5 77.5 53.5 127.5
c0 52.667 -17.667 96.667 -53 132s-79.333 53 -132 53s-96.667 -17.5 -132 -52.5s-53 -79.167 -53 -132.5z" />
    <glyph glyph-name="seven.oldstyle" unicode="&#xf737;" horiz-adv-x="440" 
d="M5 445v55h430v-55l-275 -635h-65l275 634v1h-365z" />
    <glyph glyph-name="eight.oldstyle" unicode="&#xf738;" 
d="M45 190c0 60 23.999 108.001 71.999 144.001c20.667 16 45 28 73 36v5c-21.333 7.33301 -40.666 18 -57.999 32c-38 31.333 -57 72.333 -57 123c0 49.333 20.667 91.666 62 126.999s95.666 53 162.999 53s121.666 -17.667 162.999 -53s62 -77.666 62 -126.999
c0 -50 -19.333 -91 -58 -123c-18 -14.667 -37 -25.334 -57 -32.001v-5c26.667 -8 50.667 -20 72 -36c48.667 -36.667 73 -84.667 73 -144c0 -54.667 -23.167 -101.667 -69.5 -141s-108.166 -59 -185.499 -59s-139.166 19.667 -185.499 59s-69.5 86.333 -69.5 141z
M134.999 530.001c0 -35.333 14.6709 -65.833 44.0039 -91.5s69.666 -38.5 120.999 -38.5s91.666 12.833 120.999 38.5s44 56.167 44 91.5c0 34 -14.833 63.333 -44.5 88s-69.834 37 -120.501 37s-90.834 -12.333 -120.501 -37s-44.5 -54 -44.5 -88zM105.003 190.001
c0 -40 17.5 -74.167 52.5 -102.5s82.5 -42.5 142.5 -42.5s107.5 14.167 142.5 42.5s52.5 62.5 52.5 102.5c0 42 -18 78.333 -54 109s-83 46 -141 46s-105 -15.333 -141 -46s-54 -67 -54 -109z" />
    <glyph glyph-name="nine.oldstyle" unicode="&#xf739;" horiz-adv-x="580" 
d="M45 275c0 65.333 23.501 120.834 70.501 166.501s105.167 68.5 174.5 68.5s127.5 -22.833 174.5 -68.5s70.5 -101.167 70.5 -166.5c0 -44.667 -7.83301 -83.167 -23.5 -115.5s-42.834 -73.833 -81.501 -124.5l-175 -225h-70l175 220l25 30v5
c-6.66699 -6 -15.334 -11 -26.001 -15c-21.333 -10 -46 -15 -74 -15c-67.333 0 -124.166 23.167 -170.499 69.5s-69.5 103.166 -69.5 170.499zM105.001 275.001c0 -52.667 17.667 -96.667 53 -132s79.333 -53 132 -53s96.667 17.5 132 52.5s53 79.167 53 132.5
c0 50 -17.833 92.5 -53.5 127.5s-79.5 52.5 -131.5 52.5s-95.833 -17.5 -131.5 -52.5s-53.5 -77.5 -53.5 -127.5z" />
    <glyph glyph-name="nonmarkingreturn" horiz-adv-x="333" 
 />
    <glyph glyph-name="acircumflex.sc" horiz-adv-x="615" 
d="M25 0l165 600h235l165 -600h-65l-50 190h-335l-50 -190h-65zM155 250h305l-80 290h-145zM165 690v1l110 144h65l110 -144v-1h-60l-75 100h-15l-75 -100h-60z" />
    <glyph glyph-name="ecircumflex.sc" horiz-adv-x="560" 
d="M90 0v600h425v-60h-360v-205h300v-60h-300v-215h360v-60h-425zM160 690v1l110 144h65l110 -144v-1h-60l-75 100h-15l-75 -100h-60z" />
    <glyph glyph-name="Imacron.alt" horiz-adv-x="485" 
d="M50 0v60h160v580h-160v60h385v-60h-160v-580h160v-60h-385zM115 820v55h255v-55h-255z" />
    <glyph glyph-name="Idotaccent.alt" horiz-adv-x="485" 
d="M50 0v60h160v580h-160v60h385v-60h-160v-580h160v-60h-385zM200 850c0 12.667 4.33301 23.334 13 32.001s19.334 13 32.001 13s23.334 -4.33301 32.001 -13s13 -19.334 13 -32.001s-4.33301 -23.334 -13 -32.001s-19.334 -13 -32.001 -13s-23.334 4.33301 -32.001 13
s-13 19.334 -13 32.001z" />
    <glyph glyph-name="Idieresis.alt" horiz-adv-x="485" 
d="M50 0v60h160v580h-160v60h385v-60h-160v-580h160v-60h-385zM285 850c0 12.667 4.33301 23.334 13 32.001s19.334 13 32.001 13s23.334 -4.33301 32.001 -13s13 -19.334 13 -32.001s-4.33301 -23.334 -13 -32.001s-19.334 -13 -32.001 -13s-23.334 4.33301 -32.001 13
s-13 19.334 -13 32.001zM115 850c0 12.667 4.33301 23.334 13 32.001s19.334 13 32.001 13s23.334 -4.33301 32.001 -13s13 -19.334 13 -32.001s-4.33301 -23.334 -13 -32.001s-19.334 -13 -32.001 -13s-23.334 4.33301 -32.001 13s-13 19.334 -13 32.001z" />
    <glyph glyph-name="Icircumflex.alt" horiz-adv-x="485" 
d="M50 0v60h160v580h-160v60h385v-60h-160v-580h160v-60h-385zM100 790v1l110 144h65l110 -144v-1h-60l-75 100h-15l-75 -100h-60z" />
    <glyph glyph-name="Iacute.alt" horiz-adv-x="485" 
d="M50 0v60h160v580h-160v60h385v-60h-160v-580h160v-60h-385zM210 790l90 145h75v-1l-115 -144h-50z" />
    <glyph glyph-name="Igrave.alt" horiz-adv-x="485" 
d="M50 0v60h160v580h-160v60h385v-60h-160v-580h160v-60h-385zM105 934v1h75l90 -145h-50z" />
    <glyph glyph-name="lcommaaccent.alt" horiz-adv-x="220" 
d="M80 0v700h60v-700h-60zM60 -140c0 10 4.5 19.168 13.5 27.501s19.5 12.5 31.5 12.5c16 0 29.167 -6.33301 39.5 -19s15.5 -31.334 15.5 -56.001c0 -29.333 -8.66699 -53.5 -26 -72.5s-40.333 -29.833 -69 -32.5v30c36.667 4.66699 55 23 55 55c0 1.33301 -1 6 -3 14l-2 6
l-4 -3c-5.33301 -1.33301 -9 -2 -11 -2c-26.667 0 -40 13.333 -40 40z" />
    <glyph glyph-name="lcaron.alt" horiz-adv-x="270" 
d="M80 0v700h60v-700h-60zM195 665c0 10 4.5 19.168 13.5 27.501s19.5 12.5 31.5 12.5c16 0 29.167 -6.33301 39.5 -19s15.5 -31.334 15.5 -56.001c0 -29.333 -8.66699 -53.5 -26 -72.5s-40.333 -29.833 -69 -32.5v30c36.667 4.66699 55 23 55 55c0 1.33301 -1 6 -3 14l-2 6
l-4 -3c-5.33301 -1.33301 -9 -2 -11 -2c-26.667 0 -40 13.333 -40 40z" />
    <glyph glyph-name="lacute.alt" horiz-adv-x="220" 
d="M80 0v700h60v-700h-60zM85 790l90 145h75v-1l-115 -144h-50z" />
    </font>
</defs>
</svg>
