<svg width="229" height="87" viewBox="0 0 229 87" fill="none" xmlns="http://www.w3.org/2000/svg">
<g opacity="0.4" clip-path="url(#clip0_342_6855)">
<path d="M103.232 23.9437V0.989746H109.149V19.2679H118.024V23.9437H103.232Z" fill="white"/>
<path d="M135.354 16.1219V16.7595C135.352 16.9727 135.338 17.1856 135.312 17.3972H123.647C123.69 17.8358 123.834 18.2581 124.07 18.6299C124.301 19.0098 124.602 19.3417 124.957 19.6075C125.702 20.1654 126.607 20.4638 127.535 20.4577C128.267 20.4796 128.993 20.3189 129.648 19.9901C130.214 19.6935 130.705 19.2721 131.085 18.7574L134.762 21.0953C134.007 22.2005 132.971 23.0814 131.762 23.6457C130.409 24.2651 128.936 24.5704 127.451 24.5384C126.287 24.5499 125.129 24.3629 124.027 23.9858C122.984 23.6273 122.021 23.0638 121.196 22.328C120.377 21.5837 119.728 20.6702 119.294 19.65C118.817 18.4924 118.587 17.2471 118.618 15.9944C118.596 14.7563 118.826 13.5268 119.294 12.3813C119.722 11.356 120.355 10.43 121.153 9.66084C121.944 8.90148 122.878 8.30893 123.901 7.91804C124.992 7.49257 126.153 7.27631 127.324 7.28043C128.436 7.26677 129.541 7.46882 130.578 7.87554C131.54 8.26344 132.405 8.85828 133.114 9.61833C133.843 10.4179 134.404 11.3578 134.762 12.3813C135.181 13.5825 135.381 14.8495 135.354 16.1219ZM130.494 14.0816C130.505 13.2833 130.219 12.5097 129.691 11.9137C129.384 11.6007 129.014 11.3587 128.605 11.2045C128.196 11.0503 127.759 10.9877 127.324 11.0211C126.833 11.0171 126.346 11.1035 125.887 11.2761C125.469 11.4314 125.082 11.6618 124.746 11.9562C124.433 12.231 124.175 12.5627 123.985 12.9339C123.788 13.3014 123.673 13.7075 123.647 14.1241H130.451L130.494 14.0816Z" fill="white"/>
<path d="M143.423 11.6159V17.992C143.438 18.6144 143.662 19.2136 144.057 19.6923C144.339 20.0607 144.86 20.2449 145.621 20.2449L146.466 20.1599L147.185 19.9473L147.269 23.858L145.875 24.1981C145.316 24.2894 144.75 24.3321 144.184 24.3256C143.265 24.3432 142.349 24.1995 141.479 23.9005C140.795 23.6647 140.184 23.2546 139.704 22.7103C139.246 22.1836 138.913 21.5584 138.732 20.8825C138.497 20.0377 138.369 19.1665 138.352 18.2896V11.6159H135.816V7.79028H138.352V3.53955H143.423V7.79028H147.227V11.6159H143.423Z" fill="white"/>
<path d="M166.671 12.5934C166.22 12.1761 165.706 11.8319 165.15 11.5732C164.57 11.2894 163.934 11.144 163.29 11.1481C162.809 11.1424 162.333 11.244 161.895 11.4457C161.696 11.5262 161.527 11.6684 161.413 11.8518C161.299 12.0351 161.246 12.2502 161.261 12.4659C161.258 12.6795 161.321 12.8888 161.443 13.0642C161.564 13.2396 161.737 13.3723 161.938 13.4435C162.667 13.7138 163.416 13.9269 164.178 14.0811C164.797 14.2175 165.404 14.4022 165.995 14.6337C166.587 14.8625 167.142 15.1776 167.643 15.5689C168.134 15.962 168.537 16.4544 168.826 17.0141C169.143 17.6313 169.303 18.3176 169.291 19.012C169.33 19.8584 169.148 20.7002 168.762 21.4535C168.376 22.2069 167.801 22.8453 167.094 23.3052C166.421 23.7432 165.677 24.0596 164.896 24.2404C164.093 24.4351 163.271 24.5351 162.445 24.5379C161.137 24.5353 159.838 24.3199 158.599 23.9003C157.414 23.5289 156.33 22.889 155.429 22.03L158.387 18.8844C158.879 19.4275 159.467 19.8743 160.12 20.2022C160.803 20.5432 161.556 20.7179 162.318 20.7123C162.758 20.7119 163.191 20.6101 163.586 20.4147C163.792 20.319 163.964 20.1613 164.077 19.9634C164.191 19.7655 164.241 19.5371 164.22 19.3095C164.225 19.0683 164.154 18.8316 164.017 18.6332C163.881 18.4348 163.685 18.2847 163.459 18.2043C162.681 17.8765 161.874 17.6204 161.05 17.4392C160.475 17.3094 159.91 17.139 159.359 16.9291C158.807 16.7186 158.292 16.4169 157.838 16.0365C157.384 15.6622 157.011 15.1995 156.739 14.6762C156.442 14.0687 156.297 13.3975 156.317 12.7209C156.291 11.8418 156.511 10.9732 156.951 10.213C157.344 9.55117 157.878 8.98506 158.514 8.55519C159.173 8.10971 159.902 7.77919 160.67 7.57752C161.429 7.38015 162.21 7.28017 162.994 7.27997C164.199 7.27305 165.398 7.45959 166.544 7.83257C167.63 8.1742 168.626 8.75505 169.46 9.53286L166.671 12.5934Z" fill="white"/>
<path d="M138.734 73.5079C138.752 74.7499 138.508 75.9816 138.016 77.121C137.564 78.1545 136.902 79.0812 136.072 79.8415C135.245 80.5963 134.285 81.1875 133.24 81.5843C131.016 82.4034 128.575 82.4034 126.351 81.5843C125.305 81.1924 124.343 80.6005 123.52 79.8415C122.692 79.0796 122.03 78.1533 121.576 77.121C121.084 75.9816 120.839 74.7499 120.857 73.5079C120.841 72.2798 121.086 71.0625 121.576 69.9373C122.031 68.9183 122.693 68.0062 123.52 67.2593C124.342 66.5092 125.305 65.9313 126.351 65.559C128.583 64.7818 131.009 64.7818 133.24 65.559C134.285 65.9363 135.246 66.5136 136.072 67.2593C136.9 68.0046 137.562 68.9171 138.016 69.9373C138.505 71.0625 138.75 72.2798 138.734 73.5079ZM133.621 73.5079C133.622 72.9871 133.536 72.4697 133.367 71.9776C133.199 71.4939 132.941 71.0465 132.606 70.6599C132.278 70.2721 131.875 69.9541 131.423 69.7247C130.905 69.4901 130.343 69.3687 129.775 69.3687C129.206 69.3687 128.644 69.4901 128.126 69.7247C127.671 69.949 127.267 70.2676 126.943 70.6599C126.622 71.0489 126.378 71.4963 126.225 71.9776C125.899 72.9715 125.899 74.0443 126.225 75.0381C126.378 75.5324 126.622 75.9938 126.943 76.3984C127.262 76.8071 127.666 77.1406 128.126 77.376C128.644 77.6106 129.206 77.7321 129.775 77.7321C130.343 77.7321 130.905 77.6106 131.423 77.376C131.883 77.1406 132.287 76.8071 132.606 76.3984C132.928 75.9938 133.171 75.5324 133.325 75.0381C133.519 74.5497 133.633 74.033 133.663 73.5079H133.621Z" fill="white"/>
<path d="M152.722 7.79091C154.589 7.79091 156.103 6.26842 156.103 4.39033C156.103 2.51224 154.589 0.989746 152.722 0.989746C150.854 0.989746 149.341 2.51224 149.341 4.39033C149.341 6.26842 150.854 7.79091 152.722 7.79091Z" fill="white"/>
<path d="M103.232 53.2742V30.3203H118.869V34.9961H108.726V39.6719H118.447V43.9226H108.726V48.5984H119.715V53.2742H103.232Z" fill="white"/>
<path d="M160.159 39.3747C161.104 38.4695 162.227 37.7744 163.456 37.3344C164.69 36.8862 165.991 36.6561 167.302 36.6542C168.464 36.6291 169.621 36.8016 170.725 37.1643C171.615 37.4678 172.405 38.0119 173.008 38.7371C173.625 39.5229 174.058 40.438 174.276 41.4151C174.571 42.6682 174.713 43.9529 174.698 45.2407L174.656 53.2746H170.007V51.5743H169.796C169.354 52.2809 168.704 52.8311 167.936 53.1471C167.083 53.5211 166.162 53.7094 165.231 53.6997C164.561 53.6958 163.894 53.6102 163.245 53.4446C162.566 53.2774 161.921 52.9894 161.343 52.5945C160.763 52.186 160.286 51.6476 159.948 51.0217C159.557 50.2766 159.367 49.4408 159.399 48.5988C159.35 47.5596 159.698 46.5408 160.371 45.7508C161.045 45.0094 161.885 44.4408 162.822 44.093C163.897 43.6912 165.019 43.434 166.161 43.3279C167.354 43.1939 168.553 43.123 169.753 43.1154V42.9453C169.778 42.5996 169.714 42.2531 169.566 41.9401C169.418 41.6272 169.191 41.3582 168.908 41.16C168.289 40.7708 167.567 40.5781 166.837 40.6074C166.079 40.5989 165.329 40.7586 164.639 41.075C163.991 41.3778 163.392 41.7792 162.864 42.2652L160.159 39.3747ZM169.204 46.3034L167.429 46.3884C166.898 46.4297 166.374 46.5295 165.865 46.686C165.438 46.8216 165.047 47.0542 164.724 47.3661C164.571 47.5142 164.451 47.6928 164.371 47.8905C164.291 48.0881 164.253 48.3004 164.259 48.5138C164.255 48.784 164.328 49.0496 164.47 49.2789C164.612 49.489 164.8 49.6635 165.02 49.789C165.253 49.9341 165.511 50.0351 165.781 50.0865L166.584 50.1716C167.038 50.2041 167.494 50.1416 167.923 49.988C168.352 49.8343 168.745 49.5929 169.077 49.2789C169.667 48.6158 169.971 47.7444 169.922 46.856V46.3034H169.204Z" fill="white"/>
<path d="M188.604 44.4327C188.602 43.9904 188.56 43.5493 188.478 43.115C188.411 42.7281 188.283 42.3549 188.097 42.0098C187.932 41.6934 187.683 41.4288 187.379 41.2446C187.013 41.056 186.605 40.9679 186.195 40.9896C185.773 40.977 185.353 41.0645 184.97 41.2446C184.619 41.4266 184.315 41.6887 184.082 42.0098C183.829 42.3229 183.642 42.6844 183.533 43.0725C183.406 43.4975 183.11 43.8801 183.11 44.3477V53.2742H178.039V37.0789H183.195V39.3318H183.279C183.491 38.9624 183.747 38.6199 184.04 38.3116C184.361 37.9736 184.732 37.687 185.139 37.4615C185.58 37.2119 186.048 37.0123 186.533 36.8664C187.042 36.719 187.568 36.6474 188.097 36.6539C189.047 36.6292 189.989 36.8332 190.844 37.249C191.558 37.6127 192.18 38.1361 192.662 38.7792C193.137 39.4126 193.482 40.1352 193.676 40.9046C193.887 41.7122 193.718 42.3073 193.718 43.115V53.3167H188.604V44.4327Z" fill="white"/>
<path d="M208.087 42.3915C207.759 41.9845 207.34 41.6637 206.862 41.4564C206.37 41.2315 205.838 41.1155 205.297 41.1163C204.771 41.1074 204.249 41.2238 203.775 41.4564C203.326 41.6701 202.923 41.974 202.593 42.349C202.263 42.7391 202.005 43.1854 201.832 43.6668C201.641 44.1694 201.541 44.7017 201.536 45.2395C201.533 45.7743 201.619 46.3059 201.79 46.8123C201.954 47.2979 202.212 47.7458 202.551 48.13C202.878 48.5069 203.281 48.8109 203.735 49.0227C204.224 49.2502 204.757 49.3662 205.297 49.3627C205.846 49.3654 206.39 49.2644 206.902 49.0652C207.394 48.8808 207.832 48.5735 208.172 48.1725L211.129 51.7856C210.392 52.4785 209.512 53.0007 208.552 53.3159C207.463 53.6908 206.322 53.8776 205.17 53.8685C203.961 53.8742 202.761 53.673 201.62 53.2734C200.558 52.9084 199.58 52.3299 198.747 51.5731C197.931 50.8096 197.283 49.8829 196.845 48.8526C195.912 46.55 195.912 43.9716 196.845 41.6689C197.283 40.6386 197.931 39.712 198.747 38.9485C199.58 38.1811 200.557 37.5886 201.62 37.2057C202.747 36.8045 203.933 36.6031 205.129 36.6106C205.71 36.6126 206.289 36.6695 206.862 36.7806C207.421 36.8818 207.971 37.0239 208.51 37.2057C209.012 37.3807 209.493 37.6087 209.947 37.8858C210.36 38.137 210.744 38.4365 211.088 38.7784L208.087 42.3915Z" fill="white"/>
<path d="M228.417 45.4525V46.0901C228.415 46.3033 228.4 46.5162 228.374 46.7277H216.711C216.753 47.1664 216.897 47.5886 217.132 47.9604C217.363 48.3404 217.664 48.6723 218.021 48.9381C218.765 49.496 219.67 49.7943 220.597 49.7882C221.33 49.8101 222.057 49.6496 222.711 49.3207C223.277 49.0241 223.767 48.6027 224.148 48.0879L227.826 50.4258C227.071 51.531 226.034 52.412 224.824 52.9763C223.472 53.5957 222 53.9009 220.514 53.8689C219.35 53.8805 218.193 53.6934 217.089 53.3163C216.047 52.9579 215.083 52.3943 214.26 51.6586C213.44 50.9143 212.792 50.0008 212.357 48.9806C211.879 47.823 211.651 46.5777 211.681 45.325C211.659 44.0868 211.889 42.8573 212.357 41.7119C212.784 40.6864 213.418 39.7606 214.217 38.9914C215.007 38.2321 215.942 37.6395 216.964 37.2486C218.055 36.8231 219.217 36.6069 220.387 36.611C221.5 36.5974 222.605 36.7994 223.642 37.2061C224.603 37.5939 225.467 38.1888 226.178 38.9489C226.907 39.7484 227.467 40.6884 227.826 41.7119C228.245 42.913 228.445 44.1801 228.417 45.4525ZM223.557 43.4122C223.569 42.6138 223.281 41.8402 222.753 41.2443C222.447 40.9313 222.077 40.6893 221.668 40.535C221.259 40.381 220.822 40.3182 220.387 40.3516C219.897 40.3476 219.409 40.434 218.95 40.6067C218.533 40.7619 218.146 40.9925 217.808 41.2868C217.496 41.5617 217.237 41.8932 217.049 42.2645C216.851 42.632 216.735 43.0381 216.711 43.4547H223.514L223.557 43.4122Z" fill="white"/>
<path d="M118.025 65.6006H112.953V81.7533H118.025V65.6006Z" fill="white"/>
<path d="M106.823 81.5399C108.69 81.5399 110.203 80.0174 110.203 78.1393C110.203 76.2613 108.69 74.7388 106.823 74.7388C104.955 74.7388 103.441 76.2613 103.441 78.1393C103.441 80.0174 104.955 81.5399 106.823 81.5399Z" fill="white"/>
<path d="M115.488 63.6884C117.356 63.6884 118.869 62.1658 118.869 60.2878C118.869 58.4098 117.356 56.8872 115.488 56.8872C113.621 56.8872 112.107 58.4098 112.107 60.2878C112.107 62.1658 113.621 63.6884 115.488 63.6884Z" fill="white"/>
<path d="M132.818 44.3472C132.816 43.905 132.773 43.4639 132.691 43.0295C132.624 42.6427 132.496 42.2694 132.31 41.9243C132.145 41.6079 131.896 41.3434 131.592 41.1592C131.231 40.9558 130.822 40.8531 130.408 40.8616C129.982 40.8622 129.562 40.9643 129.183 41.1592C128.832 41.3412 128.528 41.6033 128.295 41.9243C128.047 42.2565 127.861 42.6308 127.746 43.0295C127.629 43.4588 127.572 43.9023 127.577 44.3472V53.1462H122.252V36.9935H127.408V39.2464H127.492C127.705 38.877 127.96 38.5345 128.253 38.2262C128.574 37.8882 128.945 37.6015 129.352 37.376C129.794 37.1265 130.261 36.9269 130.747 36.7809C131.255 36.6336 131.782 36.5619 132.31 36.5684C133.26 36.5437 134.202 36.7477 135.058 37.1635C135.771 37.5273 136.393 38.0507 136.875 38.6938C137.35 39.3271 137.695 40.0498 137.889 40.8191C138.089 41.611 138.189 42.4251 138.185 43.242V53.2738H132.818V44.3472Z" fill="white"/>
<path d="M151.961 44.4328C151.967 43.992 151.939 43.5513 151.876 43.1151C151.82 42.7258 151.691 42.3508 151.496 42.0099C151.324 41.6984 151.077 41.4352 150.778 41.2448C150.418 41.0373 150.008 40.9345 149.594 40.9472C149.189 40.9252 148.785 41.0027 148.417 41.1731C148.049 41.3433 147.728 41.6014 147.481 41.9249C146.96 42.638 146.692 43.506 146.72 44.3903V53.1468H141.691V28.6201H146.72V39.0769H146.805C147.231 38.3612 147.826 37.7624 148.538 37.3341C149.402 36.8054 150.4 36.5396 151.412 36.569C152.361 36.5427 153.304 36.7467 154.158 37.1641C154.872 37.5292 155.493 38.0525 155.976 38.6943C156.451 39.3277 156.796 40.0503 156.99 40.8197C157.19 41.6115 157.29 42.4257 157.286 43.2426V53.2743H151.961V44.4328Z" fill="white"/>
<path d="M44.3765 81.7535C66.551 81.7535 84.5269 63.674 84.5269 41.3716C84.5269 19.0693 66.551 0.989746 44.3765 0.989746C22.2021 0.989746 4.22632 19.0693 4.22632 41.3716C4.22632 63.674 22.2021 81.7535 44.3765 81.7535Z" fill="url(#paint0_linear_342_6855)"/>
<path d="M19.0185 86.0036C29.5221 86.0036 38.0371 77.4396 38.0371 66.8753C38.0371 56.3111 29.5221 47.7471 19.0185 47.7471C8.51489 47.7471 0 56.3111 0 66.8753C0 77.4396 8.51489 86.0036 19.0185 86.0036Z" fill="url(#paint1_linear_342_6855)"/>
</g>
<defs>
<linearGradient id="paint0_linear_342_6855" x1="4.22632" y1="41.3716" x2="84.5269" y2="41.3716" gradientUnits="userSpaceOnUse">
<stop stop-color="#D2D2D2"/>
<stop offset="1" stop-color="white"/>
</linearGradient>
<linearGradient id="paint1_linear_342_6855" x1="0" y1="66.8753" x2="38.0371" y2="66.8753" gradientUnits="userSpaceOnUse">
<stop stop-color="#D2D2D2"/>
<stop offset="1" stop-color="white"/>
</linearGradient>
<clipPath id="clip0_342_6855">
<rect width="228.729" height="85.0145" fill="white" transform="translate(0 0.989746)"/>
</clipPath>
</defs>
</svg>
