<svg width="269" height="73" viewBox="0 0 269 73" fill="none" xmlns="http://www.w3.org/2000/svg">
<g opacity="0.4" clip-path="url(#clip0_342_6839)">
<path d="M48.1383 2.17639C39.6074 -0.980874 30.1828 -0.695257 21.8587 2.97281C13.4942 6.67224 6.87056 13.4438 3.35684 21.8881C2.23943 24.5613 1.4501 27.36 1.0061 30.2231C15.8542 2.16423 43.7266 14.3698 43.7266 14.3698C46.1276 15.2608 48.358 16.5569 50.3208 18.2019L58.4835 8.18698C55.4032 5.60702 51.9034 3.57406 48.1363 2.17639H48.1383Z" fill="white"/>
<path d="M1.00406 30.2229C-0.219273 38.0494 1.15446 46.0612 4.91519 53.0331C7.74942 58.2944 11.8582 62.7607 16.8654 66.0229C6.79375 49.2618 13.3961 34.977 13.4163 34.9264C13.5606 31.3339 14.5418 27.8247 16.2818 24.6784C18.0124 21.5464 20.457 18.8666 23.4171 16.8561C26.3594 14.8536 29.7379 13.5835 33.2708 13.1516C36.8036 12.7198 40.3885 13.1388 43.7266 14.3737C43.7266 14.3737 15.8583 2.16405 1.00608 30.2229H1.00406Z" fill="white"/>
<path d="M65.7382 28.2231H44.7742V41.2089H52.9126V50.9361C52.9126 50.9361 62.4837 46.8345 65.7382 28.2231Z" fill="white"/>
<path d="M52.9127 50.9381C51.0553 53.0723 48.8172 54.8425 46.3125 56.1584C42.8774 57.952 39.0348 58.8214 35.1621 58.681C31.2895 58.5407 27.5199 57.3955 24.2237 55.3579C20.9093 53.3088 18.1774 50.4421 16.29 47.0331C14.2416 43.3362 13.2476 39.1478 13.4164 34.9248C13.3961 34.9754 6.79381 49.2602 16.8655 66.0213C22.0816 69.4061 28.1026 71.3459 34.3136 71.6428C40.5229 71.9356 46.6984 70.5726 52.2075 67.6932C57.0607 65.1387 61.2622 61.5036 64.4881 57.0683L65.7384 55.3518V28.2231C59.89 45.4342 52.9127 50.9381 52.9127 50.9381Z" fill="white"/>
<path d="M105.577 34.7236V39.4433H112.309C111.458 41.5326 109.022 42.9248 106.159 42.9248C102.057 42.9248 99.3865 39.9864 99.3865 35.6902C99.3865 31.3555 102.096 28.4151 106.159 28.4151C108.905 28.4151 111.343 29.8863 112.309 32.1681H120.164C119.003 25.9002 113.201 21.452 106.08 21.452C97.7612 21.452 91.7263 27.4505 91.7263 35.6902C91.7263 43.9319 97.8788 49.8898 106.159 49.8898C114.632 49.8898 120.436 43.5834 120.436 34.7236H105.577ZM135.401 28.2226C132.925 28.2226 131.146 28.9197 129.674 30.6219L128.554 28.2996H123.717V49.1927H130.913V38.5921C130.913 35.9232 131.997 34.8006 134.512 34.8006H137.337V28.2226H135.401ZM156.57 28.2996L155.834 29.9248C154.132 28.4941 151.927 27.6815 149.451 27.6815C143.068 27.6815 138.5 32.2857 138.5 38.7461C138.5 45.2471 143.066 49.8898 149.449 49.8898C151.887 49.8898 154.055 49.1157 155.757 47.7215L156.376 49.1927H161.948V28.2996H156.57ZM150.418 43.5449C147.708 43.5449 145.736 41.4941 145.736 38.7461C145.736 36.0387 147.708 34.0244 150.418 34.0244C153.125 34.0244 155.099 36.0387 155.099 38.7461C155.099 41.4941 153.125 43.5449 150.418 43.5449ZM181.423 20.7549V29.0737C179.954 28.1456 178.175 27.643 176.239 27.643C169.856 27.643 165.29 32.2837 165.29 38.7482C165.29 45.2471 169.856 49.9283 176.239 49.9283C178.546 49.9429 180.782 49.1338 182.546 47.6465L183.243 49.1927H188.544V20.7549H181.425H181.423ZM177.21 43.5449C174.539 43.5449 172.529 41.4941 172.529 38.7847C172.529 36.0388 174.539 33.9879 177.21 33.9879C179.917 33.9879 181.891 36.0388 181.891 38.7847C181.891 41.4941 179.917 43.5449 177.21 43.5449ZM193.092 25.7077H200.213V19.5938H193.092V25.7077ZM193.055 49.1947H200.249V28.3016H193.055V49.1947ZM226.279 38.5536C226.279 32.4397 221.637 27.643 214.905 27.643C208.327 27.643 203.569 32.3627 203.569 38.7482C203.569 45.1316 208.365 49.8898 214.905 49.8898C220.127 49.8898 224.385 46.9109 225.854 42.1507H218.658C217.999 43.3888 216.568 44.1245 214.905 44.1245C212.621 44.1245 211.113 42.8883 210.649 40.4869H226.164C226.241 39.8303 226.279 39.2102 226.279 38.5536ZM214.905 33.2908C217.071 33.2908 218.581 34.4135 219.199 36.5028H210.765C211.344 34.4135 212.815 33.2908 214.905 33.2908ZM242.167 27.718C239.46 27.718 237.137 28.7251 235.589 30.4659L234.622 28.2996H229.554V49.1927H236.75V38.0531C236.75 35.3822 238.027 33.8359 240.272 33.8359C242.09 33.8359 243.018 35.0336 243.018 37.4715V49.1947H250.216V36.4663C250.216 31.165 247.004 27.722 242.167 27.722V27.718ZM265.679 42.9248C264.169 42.9248 263.241 41.9966 263.241 40.5254V33.8724H268.309V28.2996H263.085V22.2262H261.577L252.21 32.1681V33.8704H256.041V41.7251C256.041 46.3698 258.865 49.1927 263.47 49.1927H268.422V42.9248H265.676H265.679Z" fill="white"/>
</g>
<defs>
<clipPath id="clip0_342_6839">
<rect width="267.497" height="72.9538" fill="white" transform="translate(0.572266)"/>
</clipPath>
</defs>
</svg>
