<svg width="32" height="32" viewBox="0 0 32 32" fill="none" xmlns="http://www.w3.org/2000/svg">
<path d="M24.9471 12.305C24.937 11.5476 24.7952 10.7978 24.5281 10.089C24.2964 9.49117 23.9426 8.94822 23.4892 8.49485C23.0359 8.04148 22.4929 7.68767 21.8951 7.45602C21.1954 7.19338 20.4562 7.05136 19.7091 7.03602C18.7471 6.99302 18.4421 6.98102 16.0001 6.98102C13.5581 6.98102 13.2451 6.98102 12.2901 7.03602C11.5432 7.05147 10.8044 7.19349 10.1051 7.45602C9.50713 7.68751 8.96409 8.04126 8.5107 8.49465C8.05732 8.94804 7.70356 9.49108 7.47207 10.089C7.2089 10.7882 7.06719 11.5271 7.05307 12.274C7.01007 13.237 6.99707 13.542 6.99707 15.984C6.99707 18.426 6.99707 18.738 7.05307 19.694C7.06807 20.442 7.20907 21.18 7.47207 21.881C7.70395 22.4788 8.05797 23.0216 8.51151 23.4748C8.96505 23.928 9.50813 24.2816 10.1061 24.513C10.8035 24.7862 11.5424 24.9384 12.2911 24.963C13.2541 25.006 13.5591 25.019 16.0011 25.019C18.4431 25.019 18.7561 25.019 19.7111 24.963C20.4582 24.9483 21.1974 24.8066 21.8971 24.544C22.4948 24.3121 23.0376 23.9582 23.4909 23.5049C23.9442 23.0515 24.2982 22.5087 24.5301 21.911C24.7931 21.211 24.9341 20.473 24.9491 19.724C24.9921 18.762 25.0051 18.457 25.0051 16.014C25.0031 13.572 25.0031 13.262 24.9471 12.305ZM15.9941 20.602C13.4401 20.602 11.3711 18.533 11.3711 15.979C11.3711 13.425 13.4401 11.356 15.9941 11.356C17.2202 11.356 18.396 11.8431 19.263 12.7101C20.13 13.577 20.6171 14.7529 20.6171 15.979C20.6171 17.2051 20.13 18.381 19.263 19.248C18.396 20.115 17.2202 20.602 15.9941 20.602ZM20.8011 12.263C20.6595 12.2631 20.5192 12.2354 20.3884 12.1812C20.2575 12.1271 20.1386 12.0477 20.0385 11.9476C19.9384 11.8474 19.859 11.7286 19.8049 11.5977C19.7507 11.4669 19.7229 11.3266 19.7231 11.185C19.7231 11.0435 19.7509 10.9034 19.8051 10.7727C19.8592 10.6419 19.9386 10.5232 20.0387 10.4231C20.1387 10.3231 20.2575 10.2437 20.3882 10.1895C20.519 10.1354 20.6591 10.1075 20.8006 10.1075C20.9421 10.1075 21.0822 10.1354 21.2129 10.1895C21.3436 10.2437 21.4624 10.3231 21.5625 10.4231C21.6625 10.5232 21.7419 10.6419 21.7961 10.7727C21.8502 10.9034 21.8781 11.0435 21.8781 11.185C21.8781 11.781 21.3961 12.263 20.8011 12.263Z" fill="#080318"/>
<path d="M15.9942 18.982C17.6527 18.982 18.9972 17.6375 18.9972 15.979C18.9972 14.3205 17.6527 12.976 15.9942 12.976C14.3357 12.976 12.9912 14.3205 12.9912 15.979C12.9912 17.6375 14.3357 18.982 15.9942 18.982Z" fill="#080318"/>
</svg>
