<svg width="157" height="69" viewBox="0 0 157 69" fill="none" xmlns="http://www.w3.org/2000/svg">
<g opacity="0.4" clip-path="url(#clip0_342_6832)">
<path fill-rule="evenodd" clip-rule="evenodd" d="M68.9884 34.6778C68.9884 53.529 53.6714 68.7858 34.8121 68.7858C15.9236 68.7858 0.635742 53.529 0.635742 34.6778C0.635742 15.8256 15.9236 0.554688 34.8121 0.554688C53.6714 0.554688 68.9884 15.8256 68.9884 34.6778ZM33.4369 49.6381V19.7031H36.1825V46.9464H42.9629V49.6381H33.4369ZM23.8993 27.8705C26.1656 27.8705 27.9925 26.0295 27.9925 23.7814C27.9925 21.5314 26.1656 19.6834 23.8993 19.6834C21.6329 19.6834 19.8061 21.5314 19.8061 23.7814C19.8061 26.0313 21.6329 27.8705 23.8993 27.8705ZM34.8206 6.08363C35.1451 6.08363 35.8242 6.10571 36.1815 6.12338V8.78323C35.8464 8.76556 35.1196 8.76556 34.8206 8.76556H34.8206C27.8828 8.76556 21.3773 11.4607 16.4812 16.3458C11.5692 21.2353 8.8625 27.7626 8.8625 34.6626C8.8625 41.6025 11.5692 48.0962 16.4812 52.9706C21.3773 57.8654 27.8828 60.5606 34.8206 60.5606C48.5265 60.5606 59.783 49.8965 60.6832 36.432C60.6956 36.3596 60.6956 36.0805 60.6956 36.023H42.9893V33.3923H62.2634H63.4209V34.6635C63.4209 42.3136 60.4312 49.4839 55.0284 54.8761C49.6265 60.2558 42.4473 63.2284 34.8206 63.2284C27.1647 63.2284 19.9837 60.2558 14.5721 54.8761C9.18259 49.4839 6.20709 42.3136 6.20709 34.6635C6.20709 18.9138 19.0455 6.08363 34.8206 6.08363Z" fill="white"/>
<path d="M94.6908 12.0405H84.4211V56.4549H115.964V47.8093H94.6908V12.0405ZM138.556 39.5294H146.92V47.2952C145.378 47.8818 142.371 48.4666 139.509 48.4666C130.266 48.4666 127.187 43.7767 127.187 34.2513C127.187 25.1675 130.119 19.8116 139.362 19.8116C144.499 19.8116 147.433 21.4246 149.85 24.5032L156.236 18.6385C152.347 13.0732 145.523 11.3877 139.143 11.3877C124.762 11.3877 117.207 19.2285 117.207 34.1771C117.207 49.0531 124.029 57.1139 139.071 57.1139C145.965 57.1139 152.715 55.356 156.381 52.7916V31.246H138.556V39.5294Z" fill="white"/>
</g>
<defs>
<clipPath id="clip0_342_6832">
<rect width="155.745" height="68.2311" fill="white" transform="translate(0.635742 0.554688)"/>
</clipPath>
</defs>
</svg>
