<svg width="32" height="32" viewBox="0 0 32 32" fill="none" xmlns="http://www.w3.org/2000/svg">
<path d="M23.501 7.20001H8.49942C8.15484 7.20001 7.82438 7.33689 7.58073 7.58055C7.33708 7.8242 7.2002 8.15466 7.2002 8.49923V23.5008C7.2002 23.8454 7.33708 24.1758 7.58073 24.4195C7.82438 24.6631 8.15484 24.8 8.49942 24.8H23.501C23.8455 24.8 24.176 24.6631 24.4197 24.4195C24.6633 24.1758 24.8002 23.8454 24.8002 23.5008V8.49923C24.8002 8.15466 24.6633 7.8242 24.4197 7.58055C24.176 7.33689 23.8455 7.20001 23.501 7.20001ZM12.446 22.193H9.79986V13.7878H12.446V22.193ZM11.1211 12.623C10.8209 12.6213 10.528 12.5308 10.2793 12.3627C10.0305 12.1947 9.83714 11.9568 9.72351 11.679C9.60987 11.4012 9.58107 11.0959 9.64075 10.8017C9.70043 10.5076 9.84592 10.2377 10.0588 10.0261C10.2718 9.81456 10.5426 9.67081 10.8371 9.61302C11.1317 9.55523 11.4367 9.58598 11.7138 9.7014C11.9909 9.81682 12.2276 10.0117 12.394 10.2615C12.5604 10.5113 12.6491 10.8049 12.6489 11.105C12.6517 11.306 12.614 11.5054 12.5381 11.6915C12.4622 11.8776 12.3496 12.0465 12.2071 12.1882C12.0645 12.3298 11.8949 12.4414 11.7083 12.5161C11.5217 12.5908 11.322 12.6271 11.1211 12.623ZM22.1993 22.2003H19.5544V17.6085C19.5544 16.2542 18.9788 15.8362 18.2356 15.8362C17.451 15.8362 16.681 16.4278 16.681 17.6427V22.2003H14.0349V13.7939H16.5795V14.9587H16.6138C16.8692 14.4417 17.7639 13.558 19.1291 13.558C20.6055 13.558 22.2005 14.4343 22.2005 17.001L22.1993 22.2003Z" fill="#080318"/>
</svg>
