<svg width="308" height="80" viewBox="0 0 308 80" fill="none" xmlns="http://www.w3.org/2000/svg">
<path d="M23.0849 16.063C27.2377 16.063 31.0546 17.0982 34.5357 19.1685C38.0778 21.178 40.8565 23.979 42.8719 27.5717C44.9483 31.1034 45.9865 35.031 45.9865 39.3543C45.9865 43.6777 44.9483 47.6357 42.8719 51.2283C40.8565 54.7601 38.0778 57.5612 34.5357 59.6315C31.0546 61.641 27.2377 62.6457 23.0849 62.6457C19.3595 62.6457 15.909 61.7932 12.7333 60.0882C9.55762 58.3832 7.0537 56.0997 5.22157 53.2378V80H0V16.9764H5.22157V25.4709C7.0537 22.6089 9.55762 20.3255 12.7333 18.6205C15.909 16.9155 19.3595 16.063 23.0849 16.063ZM22.81 57.7134C26.0468 57.7134 29.0087 56.9218 31.6959 55.3386C34.4441 53.7554 36.6121 51.5633 38.1999 48.7622C39.7878 45.9612 40.5817 42.8252 40.5817 39.3543C40.5817 35.8835 39.7878 32.7475 38.1999 29.9465C36.6121 27.1454 34.4441 24.9533 31.6959 23.3701C29.0087 21.7869 26.0468 20.9953 22.81 20.9953C19.5122 20.9953 16.4892 21.7869 13.741 23.3701C11.0539 24.9533 8.91637 27.1454 7.32852 29.9465C5.74068 32.7475 4.94675 35.8835 4.94675 39.3543C4.94675 42.8252 5.74068 45.9612 7.32852 48.7622C8.91637 51.5633 11.0539 53.7554 13.741 55.3386C16.4892 56.9218 19.5122 57.7134 22.81 57.7134Z" fill="#221F2C"/>
<path d="M61.9389 61.7323H56.7173V16.9764H61.9389V61.7323ZM62.4886 7.65985H56.0761V0.809449H62.4886V7.65985Z" fill="#221F2C"/>
<path d="M95.0948 16.063C99.2476 16.063 103.003 17.0677 106.362 19.0772C109.782 21.0257 112.439 23.705 114.332 27.115C116.286 30.464 117.264 34.1785 117.264 38.2583C117.264 38.9281 117.202 39.8719 117.08 41.0898H78.1476C78.4529 46.022 80.1629 50.0409 83.2775 53.1465C86.4532 56.1911 90.3618 57.7134 95.0032 57.7134C98.6064 57.7134 101.721 56.8913 104.347 55.2472C106.973 53.5423 108.988 51.2892 110.393 48.4882H115.981C114.149 53.0551 111.401 56.5564 107.736 58.9921C104.133 61.4278 99.8583 62.6457 94.9116 62.6457C90.8198 62.6457 87.0639 61.641 83.6439 59.6315C80.285 57.5612 77.5979 54.7601 75.5826 51.2283C73.6283 47.6357 72.6512 43.6777 72.6512 39.3543C72.6512 35.031 73.6283 31.1034 75.5826 27.5717C77.5979 23.979 80.3156 21.178 83.7356 19.1685C87.1555 17.0982 90.9419 16.063 95.0948 16.063ZM95.0948 20.9953C90.6366 20.9953 86.8502 22.3958 83.7356 25.1969C80.682 27.937 78.8499 31.621 78.2392 36.2488H111.767C111.523 33.4478 110.668 30.8903 109.202 28.5764C107.736 26.2625 105.782 24.4357 103.339 23.0961C100.897 21.6955 98.1483 20.9953 95.0948 20.9953Z" fill="#221F2C"/>
<path d="M129.362 56.1764C125.353 51.8257 123.348 46.1816 123.348 39.2441C123.348 32.3066 125.353 26.6919 129.362 22.4C133.431 18.0493 138.502 15.874 144.575 15.874C148.408 15.874 151.917 16.9911 155.101 19.2252C156.457 20.1659 157.666 21.2535 158.727 22.4882H159.169V0H168.456V61.7323H159.169V56H158.727C157.725 57.2347 156.516 58.3517 155.101 59.3512C151.976 61.5265 148.467 62.6142 144.575 62.6142C138.502 62.6142 133.431 60.4682 129.362 56.1764ZM136.615 28.1323C134.256 30.7192 133.077 34.4231 133.077 39.2441C133.077 44.0651 134.256 47.769 136.615 50.3559C138.974 52.9428 142.217 54.2362 146.344 54.2362C150.236 54.2362 153.332 52.9428 155.631 50.3559C157.99 47.7102 159.169 44.0063 159.169 39.2441C159.169 34.4819 157.99 30.8073 155.631 28.2205C153.332 25.5748 150.236 24.252 146.344 24.252C142.217 24.252 138.974 25.5454 136.615 28.1323Z" fill="#221F2C"/>
<path d="M182.396 56.1764C178.387 51.8257 176.382 46.1816 176.382 39.2441C176.382 32.3066 178.387 26.6919 182.396 22.4C186.465 18.0493 191.536 15.874 197.609 15.874C201.442 15.874 204.951 16.9911 208.135 19.2252C209.491 20.1659 210.7 21.2535 211.761 22.4882H212.203V16.7559H221.49V61.7323H212.203V55.5591H211.761C210.877 56.7937 209.668 57.9696 208.135 59.0866C204.951 61.4383 201.442 62.6142 197.609 62.6142C191.536 62.6142 186.465 60.4682 182.396 56.1764ZM189.649 28.1323C187.291 30.7192 186.111 34.4231 186.111 39.2441C186.111 44.0651 187.291 47.769 189.649 50.3559C192.008 52.9428 195.251 54.2362 199.378 54.2362C203.27 54.2362 206.366 52.9428 208.665 50.3559C211.024 47.7102 212.203 44.0063 212.203 39.2441C212.203 34.4819 211.024 30.8073 208.665 28.2205C206.366 25.5748 203.27 24.252 199.378 24.252C195.251 24.252 192.008 25.5454 189.649 28.1323Z" fill="#221F2C"/>
<path d="M228.532 25.1339V16.7559H233.838V7.05512H243.125V16.7559H256.835V25.1339H243.125V53.3543H257.277V61.7323H233.838V25.1339H228.532Z" fill="#221F2C"/>
<path d="M268.598 56.1764C264.589 51.8257 262.584 46.1816 262.584 39.2441C262.584 32.3066 264.589 26.6919 268.598 22.4C272.667 18.0493 277.738 15.874 283.811 15.874C287.644 15.874 291.153 16.9911 294.337 19.2252C295.693 20.1659 296.902 21.2535 297.963 22.4882H298.405V16.7559H307.692V61.7323H298.405V55.5591H297.963C297.079 56.7937 295.87 57.9696 294.337 59.0866C291.153 61.4383 287.644 62.6142 283.811 62.6142C277.738 62.6142 272.667 60.4682 268.598 56.1764ZM275.851 28.1323C273.493 30.7192 272.313 34.4231 272.313 39.2441C272.313 44.0651 273.493 47.769 275.851 50.3559C278.21 52.9428 281.453 54.2362 285.58 54.2362C289.472 54.2362 292.568 52.9428 294.867 50.3559C297.226 47.7102 298.405 44.0063 298.405 39.2441C298.405 34.4819 297.226 30.8073 294.867 28.2205C292.568 25.5748 289.472 24.252 285.58 24.252C281.453 24.252 278.21 25.5454 275.851 28.1323Z" fill="#221F2C"/>
</svg>
