<svg width="100" height="26" viewBox="0 0 100 26" fill="none" xmlns="http://www.w3.org/2000/svg">
<path d="M7.50258 5.22047C8.85225 5.22047 10.0928 5.5569 11.2241 6.22976C12.3753 6.88284 13.2784 7.79318 13.9334 8.96079C14.6082 10.1086 14.9456 11.3851 14.9456 12.7902C14.9456 14.1953 14.6082 15.4816 13.9334 16.6492C13.2784 17.797 12.3753 18.7074 11.2241 19.3802C10.0928 20.0333 8.85225 20.3598 7.50258 20.3598C6.29184 20.3598 5.17043 20.0828 4.13833 19.5287C3.10623 18.9745 2.29245 18.2324 1.69701 17.3023V26H0V5.51732H1.69701V8.27803C2.29245 7.3479 3.10623 6.60577 4.13833 6.05165C5.17043 5.49753 6.29184 5.22047 7.50258 5.22047ZM7.41326 18.7569C8.46521 18.7569 9.42784 18.4996 10.3012 17.985C11.1943 17.4705 11.8989 16.7581 12.415 15.8477C12.931 14.9374 13.1891 13.9182 13.1891 12.7902C13.1891 11.6621 12.931 10.6429 12.415 9.7326C11.8989 8.82226 11.1943 8.10982 10.3012 7.59528C9.42784 7.08074 8.46521 6.82347 7.41326 6.82347C6.34146 6.82347 5.35898 7.08074 4.46582 7.59528C3.5925 8.10982 2.89782 8.82226 2.38177 9.7326C1.86572 10.6429 1.60769 11.6621 1.60769 12.7902C1.60769 13.9182 1.86572 14.9374 2.38177 15.8477C2.89782 16.7581 3.5925 17.4705 4.46582 17.985C5.35898 18.4996 6.34146 18.7569 7.41326 18.7569Z" fill="white"/>
<path d="M20.1301 20.063H18.4331V5.51732H20.1301V20.063ZM20.3088 2.48945H18.2247V0.263071H20.3088V2.48945Z" fill="white"/>
<path d="M30.9058 5.22047C32.2555 5.22047 33.4761 5.54701 34.5678 6.20008C35.6793 6.83336 36.5427 7.70412 37.1579 8.81236C37.7931 9.90081 38.1106 11.108 38.1106 12.4339C38.1106 12.6516 38.0908 12.9584 38.0511 13.3542H25.398C25.4972 14.9572 26.0529 16.2633 27.0652 17.2726C28.0973 18.2621 29.3676 18.7569 30.876 18.7569C32.0471 18.7569 33.0593 18.4897 33.9128 17.9554C34.7662 17.4012 35.4212 16.669 35.8777 15.7587H37.6938C37.0984 17.2429 36.2052 18.3808 35.0144 19.1724C33.8433 19.964 32.4539 20.3598 30.8463 20.3598C29.5164 20.3598 28.2958 20.0333 27.1843 19.3802C26.0926 18.7074 25.2193 17.797 24.5643 16.6492C23.9292 15.4816 23.6116 14.1953 23.6116 12.7902C23.6116 11.3851 23.9292 10.1086 24.5643 8.96079C25.2193 7.79318 26.1026 6.88284 27.2141 6.22976C28.3255 5.5569 29.5561 5.22047 30.9058 5.22047ZM30.9058 6.82347C29.4569 6.82347 28.2263 7.27864 27.2141 8.18898C26.2216 9.07953 25.6262 10.2768 25.4277 11.7809H36.3243C36.2449 10.8705 35.9671 10.0393 35.4907 9.28732C35.0143 8.5353 34.3792 7.9416 33.5853 7.50622C32.7914 7.05105 31.8982 6.82347 30.9058 6.82347Z" fill="white"/>
<path d="M42.0428 18.2573C40.7396 16.8434 40.0881 15.009 40.0881 12.7543C40.0881 10.4996 40.7396 8.67486 42.0428 7.28C43.3651 5.86604 45.0131 5.15906 46.987 5.15906C48.2326 5.15906 49.3729 5.5221 50.4077 6.24819C50.8485 6.55391 51.2413 6.9074 51.5863 7.30866H51.73V0H54.7483V20.063H51.73V18.2H51.5863C51.2605 18.6013 50.8676 18.9643 50.4077 19.2891C49.392 19.9961 48.2518 20.3496 46.987 20.3496C45.0131 20.3496 43.3651 19.6522 42.0428 18.2573ZM44.3999 9.14299C43.6334 9.98373 43.2501 11.1875 43.2501 12.7543C43.2501 14.3212 43.6334 15.5249 44.3999 16.3657C45.1664 17.2064 46.2204 17.6268 47.5619 17.6268C48.8267 17.6268 49.8328 17.2064 50.5802 16.3657C51.3467 15.5058 51.73 14.302 51.73 12.7543C51.73 11.2066 51.3467 10.0124 50.5802 9.17165C49.8328 8.31181 48.8267 7.88189 47.5619 7.88189C46.2204 7.88189 45.1664 8.30226 44.3999 9.14299Z" fill="white"/>
<path d="M59.2788 18.2573C57.9757 16.8434 57.3242 15.009 57.3242 12.7543C57.3242 10.4996 57.9757 8.67486 59.2788 7.28C60.6011 5.86604 62.2492 5.15906 64.2231 5.15906C65.4687 5.15906 66.6089 5.5221 67.6438 6.24819C68.0845 6.55391 68.4774 6.9074 68.8223 7.30866H68.9661V5.44567H71.9844V20.063H68.9661V18.0567H68.8223C68.5349 18.458 68.142 18.8401 67.6438 19.2032C66.6089 19.9675 65.4687 20.3496 64.2231 20.3496C62.2492 20.3496 60.6011 19.6522 59.2788 18.2573ZM61.636 9.14299C60.8694 9.98373 60.4862 11.1875 60.4862 12.7543C60.4862 14.3212 60.8694 15.5249 61.636 16.3657C62.4025 17.2064 63.4565 17.6268 64.798 17.6268C66.0628 17.6268 67.0689 17.2064 67.8163 16.3657C68.5828 15.5058 68.9661 14.302 68.9661 12.7543C68.9661 11.2066 68.5828 10.0124 67.8163 9.17165C67.0689 8.31181 66.0628 7.88189 64.798 7.88189C63.4565 7.88189 62.4025 8.30226 61.636 9.14299Z" fill="white"/>
<path d="M74.2728 8.1685V5.44567H75.9975V2.29291H79.0158V5.44567H83.4713V8.1685H79.0158V17.3402H83.6151V20.063H75.9975V8.1685H74.2728Z" fill="white"/>
<path d="M87.2945 18.2573C85.9914 16.8434 85.3398 15.009 85.3398 12.7543C85.3398 10.4996 85.9914 8.67486 87.2945 7.28C88.6168 5.86604 90.2648 5.15906 92.2387 5.15906C93.4843 5.15906 94.6246 5.5221 95.6594 6.24819C96.1002 6.55391 96.493 6.9074 96.838 7.30866H96.9817V5.44567H100V20.063H96.9817V18.0567H96.838C96.5505 18.458 96.1577 18.8401 95.6594 19.2032C94.6246 19.9675 93.4843 20.3496 92.2387 20.3496C90.2648 20.3496 88.6168 19.6522 87.2945 18.2573ZM89.6516 9.14299C88.8851 9.98373 88.5018 11.1875 88.5018 12.7543C88.5018 14.3212 88.8851 15.5249 89.6516 16.3657C90.4182 17.2064 91.4722 17.6268 92.8136 17.6268C94.0784 17.6268 95.0845 17.2064 95.8319 16.3657C96.5984 15.5058 96.9817 14.302 96.9817 12.7543C96.9817 11.2066 96.5984 10.0124 95.8319 9.17165C95.0845 8.31181 94.0784 7.88189 92.8136 7.88189C91.4722 7.88189 90.4182 8.30226 89.6516 9.14299Z" fill="white"/>
</svg>
