<svg width="225" height="52" viewBox="0 0 225 52" fill="none" xmlns="http://www.w3.org/2000/svg">
<g opacity="0.4" clip-path="url(#clip0_342_6846)">
<path d="M116.265 33.1224C114.071 31.5618 110.95 30.508 106.444 29.7977C100.855 28.8373 97.824 27.82 97.824 25.1856C97.824 23.1282 99.7408 20.9271 105.12 20.9271C107.779 20.9271 109.816 21.7709 111.174 23.4349C111.82 24.2219 112.308 25.1957 112.629 26.3228C112.756 26.7697 113.164 27.0831 113.626 27.0831L118.476 27.0797C118.781 27.0797 119.072 26.9464 119.266 26.713C119.463 26.4763 119.547 26.1693 119.493 25.866C118.647 21.0739 115.763 18.4394 114.901 17.7457C112.382 15.7215 109.09 14.6978 105.12 14.6978C100.978 14.6978 97.4059 15.7082 94.7934 17.6224C92.1375 19.5699 90.7327 22.2578 90.7327 25.3991C90.7327 32.8623 97.5965 35.0199 105.016 36.2405C112.04 37.281 112.987 39.1884 112.987 40.9191C112.987 43.7171 109.973 45.4579 105.12 45.4579C104.273 45.4579 103.471 45.3878 102.731 45.2511C102.711 45.241 102.691 45.2311 102.668 45.2276C99.4665 44.5875 97.3257 42.5967 96.1214 39.1518C95.9776 38.7382 95.5862 38.4581 95.1446 38.4581H90.0235C89.7156 38.4581 89.428 38.5948 89.2307 38.8283C89.0333 39.065 88.9532 39.3752 89.0067 39.6753C89.3612 41.6095 90.2877 43.2768 90.3279 43.3469L90.3313 43.3536C92.539 48.1056 96.7803 50.9436 102.604 51.5638C102.614 51.5638 102.621 51.5672 102.631 51.5638C103.447 51.6504 104.283 51.6938 105.12 51.6938C109.328 51.6938 113.134 50.6166 115.837 48.6626C118.57 46.6849 120.078 43.8871 120.078 40.7791C120.078 37.451 118.831 34.9466 116.265 33.1224Z" fill="white"/>
<path d="M47.7622 14.9282H41.5873C41.2259 14.9282 40.9351 15.2183 40.9351 15.5785V50.8239C40.9351 51.184 41.2259 51.4742 41.5873 51.4742H47.7622C48.1235 51.4742 48.4144 51.184 48.4144 50.8239V15.5785C48.4112 15.2183 48.1201 14.9282 47.7622 14.9282Z" fill="white"/>
<path d="M223.964 41.316C223.686 40.9691 223.276 40.7724 222.831 40.7724H217.994C217.394 40.7724 216.863 41.1391 216.64 41.7094C215.855 43.6802 214.05 44.7207 211.397 44.7207H211.371C207.651 44.7175 205.687 42.7299 205.687 38.975V21.8675C205.687 21.7242 205.804 21.6107 205.945 21.6107H220.449C221.249 21.6107 221.898 20.9638 221.898 20.1668V16.3718C221.898 15.5748 221.249 14.9278 220.449 14.9278H205.945C205.801 14.9278 205.687 14.8111 205.687 14.6711V6.921C205.687 6.12399 205.038 5.47705 204.239 5.47705H199.643C198.843 5.47705 198.195 6.12399 198.195 6.921V39.265C198.195 46.8151 203.342 51.6905 211.307 51.6905L211.381 51.6871H211.414C211.437 51.6871 211.458 51.6905 211.481 51.6905C218.177 51.6905 222.951 48.2623 224.243 42.5231C224.342 42.0996 224.239 41.6561 223.964 41.316Z" fill="white"/>
<path d="M190.334 19.3802C187.391 16.4355 183.47 14.7715 179.289 14.7014C175.041 14.6314 171.017 16.2154 167.956 19.1767C164.828 22.2013 163.106 26.2465 163.106 30.565C163.106 30.565 163.106 32.0023 163.106 34.1298V50.8306C163.106 51.1906 163.397 51.4808 163.758 51.4808H169.933C170.294 51.4808 170.585 51.1906 170.585 50.8306V30.355C170.585 28.1107 171.485 26.0064 173.121 24.4324C174.756 22.8584 176.914 22.0179 179.195 22.0712C183.577 22.168 187.421 25.8796 187.421 30.0115L187.417 30.3816C187.414 30.5583 187.484 30.7251 187.611 30.8518C187.739 30.9786 187.906 31.0452 188.086 31.0485C189.485 31.0519 192.773 31.0519 194.231 31.0485C194.599 31.0485 194.9 30.7518 194.9 30.3883V30.3483C194.9 26.2231 193.278 22.3281 190.334 19.3802Z" fill="white"/>
<path d="M85.2965 38.4651H79.8241C79.5932 38.4651 79.3791 38.5651 79.2321 38.7354C79.1685 38.8052 79.1184 38.882 79.0814 38.972C77.593 42.7804 74.4218 44.9679 70.3744 44.9679C67.3606 44.9679 64.6376 43.7907 62.7076 41.6565C60.7809 39.5256 59.7204 36.5343 59.7204 33.2296C59.7204 29.8948 60.7809 26.8801 62.7076 24.7393C64.6344 22.5982 67.3571 21.4211 70.3744 21.4211C74.4788 21.4211 77.6766 23.6288 79.1517 27.4771C79.2721 27.7905 79.5632 27.9907 79.891 27.9907H85.3634C85.6143 27.9907 85.8451 27.8772 86.0023 27.6738C86.1261 27.5104 86.1764 27.3036 86.1628 27.1003C86.1261 26.58 86.0324 26.0364 85.8853 25.493C85.8619 25.3928 85.8084 25.226 85.8084 25.226C85.0523 22.7117 83.4233 20.7675 83.353 20.6841C83.3498 20.6808 83.3464 20.6774 83.3431 20.6741C80.3525 16.8158 75.7499 14.6948 70.3744 14.6948C65.2298 14.6948 60.5835 16.659 57.2954 20.2272C54.1511 23.6387 52.4182 28.2574 52.4182 33.2262C52.4182 38.1584 54.1309 42.7436 57.2451 46.1386C60.5734 49.77 65.1127 51.6875 70.3778 51.6875C72.6189 51.6875 74.666 51.3573 76.4923 50.7038C80.7272 49.0265 84.0755 46.2151 85.8185 40.9562C85.9655 40.4127 86.0627 39.8691 86.096 39.3489C86.1093 39.1455 86.0627 38.9387 85.9354 38.7753C85.7783 38.5786 85.5474 38.4651 85.2965 38.4651Z" fill="white"/>
<path d="M44.7143 0.101562C41.6603 0.101562 39.1716 2.57931 39.1716 5.62729C39.1716 8.67528 41.6569 11.153 44.7143 11.153C47.7247 11.153 50.1766 8.67528 50.1766 5.62729C50.1766 2.57931 47.7247 0.101562 44.7143 0.101562Z" fill="white"/>
<path d="M18.8611 0.101562H18.8344C14.1045 0.101562 9.62886 1.94903 6.2303 5.30716C5.90918 5.62396 5.31376 6.28758 5.31376 6.28758C5.10972 6.52101 4.91236 6.7578 4.7217 7.00123C4.69827 7.03124 4.64477 7.10127 4.64477 7.10127C2.25641 10.1559 0.874917 13.8842 0.714355 17.8359V50.8202C0.714355 50.9537 0.754496 51.0803 0.824741 51.1837C0.941816 51.3572 1.14252 51.4705 1.36664 51.4705H7.53487C7.89612 51.4705 8.18714 51.1805 8.18714 50.8202V34.033C8.18714 33.9163 8.26743 33.863 8.30088 33.8462C8.37446 33.8095 8.45808 33.8161 8.52498 33.863C11.5623 36.0105 15.1281 37.1277 18.831 37.1277C21.6576 37.1277 24.2833 36.474 26.7086 35.2869C32.7999 32.3055 37.0079 25.9627 37.0079 18.6063C37.0079 8.37517 28.8827 0.101562 18.8611 0.101562ZM18.8344 30.0546C12.7531 30.0546 7.80581 24.9257 7.80581 18.6229C7.80581 12.3202 12.7531 7.1913 18.8344 7.1913C24.9155 7.1913 29.863 12.3202 29.863 18.6229C29.863 24.9257 24.9155 30.0546 18.8344 30.0546Z" fill="white"/>
<path d="M158.877 32.9762C158.76 22.8751 150.678 14.6948 140.754 14.6948C130.758 14.6948 122.627 22.995 122.627 33.1963C122.627 41.3831 127.868 48.3429 135.104 50.7705C135.134 50.7806 135.167 50.7905 135.197 50.8038C135.281 50.8305 135.365 50.8606 135.452 50.8872C137.047 51.4074 138.813 51.691 140.673 51.691C145.189 51.691 149.484 49.9968 151.752 47.429C151.856 47.3123 152.053 47.3856 152.053 47.5423C152.053 48.8764 152.053 50.3636 152.053 50.6404V50.8139C152.053 51.1774 152.351 51.4741 152.715 51.4741H158.218C158.582 51.4741 158.88 51.1774 158.88 50.8139V32.9762H158.877ZM140.754 44.5878C134.602 44.5878 129.598 39.4757 129.598 33.1963C129.598 26.9169 134.602 21.8046 140.754 21.8046C146.905 21.8046 151.909 26.9169 151.909 33.1963C151.909 39.4757 146.905 44.5878 140.754 44.5878Z" fill="white"/>
</g>
<defs>
<clipPath id="clip0_342_6846">
<rect width="223.566" height="51.5921" fill="white" transform="translate(0.714355 0.101562)"/>
</clipPath>
</defs>
</svg>
