<svg width="364" height="55" viewBox="0 0 364 55" fill="none" xmlns="http://www.w3.org/2000/svg">
<g opacity="0.4">
<path fill-rule="evenodd" clip-rule="evenodd" d="M47.0087 28.588L36.7839 11.1801C31.7578 2.62295 23.6047 2.62027 18.577 11.1801L8.35228 28.588C3.32614 37.145 7.53646 44.0868 17.7598 44.0868H37.6011C47.8284 44.0868 52.0364 37.1477 47.0087 28.588ZM24.97 18.8514C26.5114 16.3647 28.9449 16.4079 30.4554 18.9799L36.7401 29.6821L36.8111 29.8064C38.2352 32.365 36.9475 34.4189 33.8761 34.4189H21.4717L21.3246 34.4172C18.3138 34.3513 17.0961 32.2563 18.6077 29.6821L24.8924 18.9799L24.97 18.8514Z" fill="white"/>
<path d="M75.2773 34.4976H79.1706V26.8685H84.9121C90.4176 26.8685 94.0355 23.9584 94.0355 18.8068C94.0355 13.8911 90.5356 10.9023 84.9907 10.9023H75.2773V34.4976ZM90.0243 18.8461C90.0243 22.0315 87.9401 23.4472 84.8334 23.4472H79.1706V14.363H84.7941C87.9401 14.363 90.0243 15.818 90.0243 18.8461Z" fill="white"/>
<path d="M103.34 10.9023V34.4976H107.233V26.7112H112.857L118.48 34.4976H122.767V33.9471L117.104 26.2786V26.082C120.132 24.9416 122.098 22.4641 122.098 18.8068C122.098 13.8911 118.598 10.9023 113.053 10.9023H103.34ZM118.048 18.8461C118.048 21.8349 115.963 23.2506 113.093 23.2506H107.233V14.363H112.857C116.003 14.363 118.048 15.818 118.048 18.8461Z" fill="white"/>
<path d="M136.133 10.9023H132.24V34.4976H136.133V10.9023Z" fill="white"/>
<path d="M145.825 32.0988C145.825 32.0988 148.695 35.0482 154.752 35.0482C160.65 35.0482 163.521 31.9021 163.521 27.891C163.521 24.2337 161.24 22.1495 155.538 20.5371C151.566 19.3574 150.308 18.5709 150.308 16.9584C150.308 15.0708 151.999 14.009 154.673 14.009C158.527 14.009 160.768 15.9753 160.768 15.9753L162.892 12.79C162.892 12.79 160.532 10.3911 154.673 10.3911C149.089 10.3911 146.021 13.0652 146.021 17.1157C146.021 20.8124 148.577 22.582 153.847 24.1551C158.094 25.4528 159.195 26.3573 159.195 28.1662C159.195 30.0932 157.819 31.4302 154.634 31.4302C150.701 31.4302 147.948 29.1494 147.948 29.1494L145.825 32.0988Z" fill="white"/>
<path d="M191.954 34.4976H195.808L195.768 10.9023H192.858L184.443 21.9135L176.066 10.9023H173.077V34.4976H176.971V18.1775L183.735 26.9472H185.15L191.954 18.0596V34.4976Z" fill="white"/>
<path d="M217.749 10.9023H213.817L204.143 34.4976H208.272L210.159 29.6606H221.406L223.333 34.4976H227.423L217.749 10.9023ZM215.783 15.4248L220.109 26.3573H211.457L215.783 15.4248Z" fill="white"/>
<path d="M271.314 34.4976V31.037H259.713V10.9023H255.82V34.4976H271.314Z" fill="white"/>
<path d="M291.386 10.9023H287.454L277.78 34.4976H281.909L283.797 29.6606H295.044L296.971 34.4976H301.06L291.386 10.9023ZM289.42 15.4248L293.746 26.3573H285.094L289.42 15.4248Z" fill="white"/>
<path d="M328.591 27.773C328.591 25.0595 326.978 23.1719 324.579 22.5034V22.3461C326.585 21.4809 327.883 19.672 327.883 17.3124C327.883 13.1832 324.973 10.9023 319.742 10.9023H309.4V34.4976H320.096C325.287 34.4976 328.591 32.2167 328.591 27.773ZM320.49 24.1944C322.731 24.3124 324.501 25.5708 324.501 27.5764C324.501 29.7786 322.613 31.037 320.175 31.037H313.293V24.1944H320.49ZM323.793 17.7056C323.793 19.6326 322.181 20.9697 319.624 20.9697H313.293V14.363H319.703C322.22 14.363 323.793 15.4641 323.793 17.7056Z" fill="white"/>
<path d="M336.886 32.0988C336.886 32.0988 339.757 35.0482 345.813 35.0482C351.712 35.0482 354.583 31.9021 354.583 27.891C354.583 24.2337 352.302 22.1495 346.6 20.5371C342.628 19.3574 341.37 18.5709 341.37 16.9584C341.37 15.0708 343.061 14.009 345.735 14.009C349.589 14.009 351.83 15.9753 351.83 15.9753L353.954 12.79C353.954 12.79 351.594 10.3911 345.735 10.3911C340.15 10.3911 337.083 13.0652 337.083 17.1157C337.083 20.8124 339.639 22.582 344.909 24.1551C349.156 25.4528 350.257 26.3573 350.257 28.1662C350.257 30.0932 348.881 31.4302 345.695 31.4302C341.763 31.4302 339.01 29.1494 339.01 29.1494L336.886 32.0988Z" fill="white"/>
</g>
</svg>
