<svg width="252" height="63" viewBox="0 0 252 63" fill="none" xmlns="http://www.w3.org/2000/svg">
<g opacity="0.4" clip-path="url(#clip0_342_6875)">
<path fill-rule="evenodd" clip-rule="evenodd" d="M0.968237 45.2737C0.928765 41.3152 0.587609 36.7392 0.240814 33.2402C0.203297 32.8711 0.309093 32.5016 0.536321 32.2082C0.763549 31.9149 1.09483 31.7201 1.46164 31.6641L1.51803 31.6557C1.87483 31.6006 2.2394 31.6795 2.54139 31.8774C2.84337 32.0753 3.06138 32.3779 3.15333 32.7271C3.57877 34.4893 4.28516 36.1715 5.24537 37.7091C6.11377 39.0737 9.15316 43.785 15.5364 43.785C20.1886 43.785 23.6001 40.4975 23.6001 36.3416C23.6001 32.5015 20.4987 30.9508 14.4227 28.6558C12.6267 27.9114 10.7659 27.2319 8.96707 26.4256C6.48594 25.2442 0.655276 22.5178 0.655276 14.9503C0.655276 6.52292 7.41636 1.56066 16.0355 1.56066C18.1275 1.56066 21.1049 1.85388 24.0879 3.22415C24.7476 3.52583 25.5258 3.29181 25.9149 2.68281L26.4083 1.90463C26.5357 1.70272 26.7109 1.53533 26.9185 1.4173C27.126 1.29927 27.3595 1.23424 27.5981 1.22796C27.9732 1.21896 28.3374 1.35437 28.6155 1.60624C28.8936 1.8581 29.0644 2.20716 29.0924 2.58131C29.3664 6.11132 29.7595 9.63109 30.271 13.1346C30.3501 13.3277 30.3869 13.5356 30.3789 13.7442C30.371 13.9528 30.3184 14.1572 30.2247 14.3437C30.131 14.5303 29.9984 14.6946 29.8359 14.8255C29.6734 14.9565 29.4846 15.0511 29.2825 15.103C29.0803 15.1549 28.8693 15.1628 28.6638 15.1262C28.4583 15.0897 28.263 15.0095 28.0911 14.8911C27.9192 14.7727 27.7747 14.6188 27.6672 14.4398C27.5598 14.2609 27.492 14.0609 27.4684 13.8535C26.6903 11.7982 26.2504 10.8367 25.3961 9.55667C23.352 6.76822 20.6228 4.84816 17.214 4.84816C12.81 4.84816 10.2076 8.44016 10.2076 11.3555C10.2076 14.7022 13.1822 16.1289 14.4848 16.7491C17.152 18.0517 19.9404 18.9201 22.7317 20.0366C27.1949 21.7734 33.3329 24.4407 33.3329 32.6256C33.3329 40.6836 26.8848 47.4419 16.6558 47.4419C11.5723 47.4419 8.25938 45.8348 6.33651 44.614C6.17339 44.5114 5.99146 44.4423 5.80135 44.4109C5.61124 44.3795 5.41677 44.3863 5.22932 44.4309C5.04186 44.4756 4.8652 44.5571 4.70965 44.6708C4.5541 44.7846 4.42279 44.9282 4.32341 45.0933L3.77361 46.0011C3.653 46.1981 3.48738 46.3637 3.29034 46.4843C3.09331 46.6049 2.87049 46.677 2.64018 46.6947L2.53586 46.7032C2.33748 46.7195 2.13788 46.6947 1.94949 46.6304C1.7611 46.5662 1.58798 46.4638 1.4409 46.3297C1.29382 46.1956 1.17595 46.0326 1.09463 45.8509C1.01331 45.6692 0.970282 45.4727 0.968237 45.2737M34.6947 44.9185C34.6947 44.301 35.1374 43.7766 35.7407 43.6751C36.6768 43.52 37.8102 43.1168 37.9822 41.927C38.1683 40.4975 38.1683 36.7787 38.1683 35.8482C38.1683 33.6772 38.1063 30.1444 38.1063 27.9734C38.1063 24.8608 37.0631 24.0065 35.597 23.592C35.3357 23.5155 35.1064 23.3562 34.9437 23.138C34.7809 22.9198 34.6936 22.6546 34.6947 22.3824V22.2358C34.6947 21.6184 35.1402 21.0996 35.7464 20.9953C38.8337 20.4539 43.5027 19.1344 45.9529 18.2886C46.1107 18.2339 46.2778 18.2112 46.4445 18.2218C46.6112 18.2324 46.7742 18.2762 46.9238 18.3504C47.0734 18.4247 47.2067 18.5281 47.3159 18.6544C47.4252 18.7808 47.5081 18.9277 47.56 19.0865C47.6107 19.25 47.6586 19.4051 47.7009 19.5658C47.7542 19.7517 47.8495 19.9228 47.9795 20.0659C48.1095 20.2091 48.2707 20.3204 48.4506 20.3913C48.6305 20.4621 48.8243 20.4907 49.0169 20.4746C49.2096 20.4586 49.3961 20.3985 49.5618 20.2989C51.9019 18.9399 54.1209 17.9305 57.3886 17.9305C59.7457 17.9305 62.1028 18.5508 64.0257 19.9126C67.0453 22.0103 67.55 25.2132 67.8037 28.605V34.0494C67.8037 34.9798 67.6825 39.8152 67.6825 40.8725C67.6825 42.4401 68.1083 43.3959 70.158 43.7766C70.442 43.8349 70.6967 43.9904 70.8784 44.2164C71.06 44.4423 71.1572 44.7245 71.1533 45.0143C71.1536 45.1866 71.1186 45.3571 71.0504 45.5152C70.9821 45.6734 70.8821 45.8158 70.7565 45.9337C70.631 46.0516 70.4825 46.1425 70.3204 46.2006C70.1583 46.2588 69.9859 46.283 69.814 46.2718C68.0575 46.1534 65.4044 46.0773 61.0455 46.0773C58.5869 46.0773 57.2307 46.1449 55.9704 46.2549C55.7962 46.2705 55.6206 46.2497 55.4548 46.1938C55.289 46.1379 55.1367 46.048 55.0075 45.93C54.8784 45.812 54.7752 45.6684 54.7046 45.5083C54.6339 45.3482 54.5974 45.1752 54.5974 45.0002V44.7352C54.5974 44.1685 54.978 43.6666 55.5278 43.5228C57.3407 43.0322 57.5663 42.1667 57.5127 38.3914L57.3886 28.7178C57.3266 25.7432 57.2025 22.3317 53.1707 22.3317C51.4931 22.3317 50.1933 22.9463 48.9415 23.8909C48.7766 24.0119 48.6433 24.171 48.553 24.3546C48.4627 24.5381 48.418 24.7408 48.4227 24.9453C48.5214 28.0524 48.5214 36.8717 48.5214 39.6291C48.5214 42.474 49.0148 43.2606 50.5289 43.661C51.0702 43.802 51.4367 44.3095 51.4367 44.8705V45.0341C51.4371 45.2064 51.402 45.377 51.3338 45.5353C51.2656 45.6936 51.1657 45.8362 51.0401 45.9543C50.9146 46.0725 50.7662 46.1636 50.6041 46.2221C50.4419 46.2806 50.2695 46.3052 50.0975 46.2944C47.9913 46.1618 45.2847 46.0773 40.2124 46.0773C38.2614 46.0773 37.1279 46.1393 36.0706 46.2408C35.8958 46.2573 35.7195 46.2371 35.553 46.1813C35.3865 46.1256 35.2335 46.0356 35.1039 45.9171C34.9742 45.7987 34.8709 45.6544 34.8004 45.4935C34.7299 45.3327 34.6939 45.1589 34.6947 44.9833V44.9185V44.9185ZM88.7045 34.5936C88.7034 34.4015 88.6585 34.2122 88.5731 34.0402C88.4877 33.8682 88.3641 33.7179 88.2117 33.6009C88.0594 33.484 87.8824 33.4034 87.6941 33.3653C87.5059 33.3272 87.3114 33.3326 87.1256 33.3812C85.0335 33.9113 82.2563 35.1321 82.2563 38.3914C82.2563 40.0662 83.1247 41.9242 85.4818 41.9242C86.6829 41.9242 87.3991 41.5605 88.1519 41.0642C88.3227 40.9492 88.4625 40.7938 88.5589 40.6119C88.6553 40.4299 88.7053 40.227 88.7045 40.021V34.5936ZM103.033 41.7663C103.17 41.8761 103.282 42.0134 103.363 42.1692C103.444 42.325 103.491 42.496 103.502 42.6712C103.513 42.8463 103.487 43.0219 103.426 43.1865C103.365 43.3511 103.271 43.5012 103.149 43.6271C100.168 46.644 97.2136 47.2586 95.5868 47.2586C93.9134 47.2385 92.288 46.6964 90.9375 45.7079C90.5069 45.3619 90.1205 44.9642 89.7871 44.5237C89.597 44.2717 89.3179 44.1016 89.0067 44.0482C88.6956 43.9947 88.3757 44.062 88.1124 44.2361C86.4066 45.3442 82.8851 47.3178 78.9717 47.3178C73.2651 47.3178 71.9033 43.4749 71.9033 41.1827C71.9033 34.0973 82.8061 31.1341 87.743 30.2488C88.0308 30.1961 88.291 30.0442 88.4784 29.8197C88.6659 29.5951 88.7688 29.312 88.7693 29.0195C88.775 27.1022 88.7778 24.8467 88.5184 24.0685C87.774 21.8975 85.2957 21.8975 84.9856 21.8975C82.9387 21.8975 81.8221 23.1381 81.45 24.5027C81.2639 25.3091 81.2639 26.1774 81.0778 26.9838C80.5816 29.09 78.8448 29.8963 77.2969 29.8963C75.374 29.8963 73.5752 28.6558 73.5752 26.3635C73.5752 21.7734 82.0703 18.0517 89.759 18.0517C95.0906 18.0517 98.9955 19.7885 98.9955 24.9369L98.8743 38.7636C98.8123 39.818 98.7474 42.2315 100.36 42.2315C100.761 42.2315 101.138 42.0229 101.494 41.7466C101.716 41.5774 101.988 41.4875 102.267 41.491C102.546 41.4946 102.815 41.5915 103.033 41.7663V41.7663Z" fill="white"/>
<path fill-rule="evenodd" clip-rule="evenodd" d="M120.485 43.0404C125.073 43.0404 126.745 36.6543 126.745 32.4392C126.745 27.9731 124.884 22.0212 120.299 22.0212C116.143 22.0212 116.143 26.3012 116.143 27.601C116.143 29.0276 116.208 35.972 116.208 37.5227C116.208 39.5076 116.208 43.0404 120.485 43.0404V43.0404ZM105.914 28.3453C106.027 23.6086 105.35 22.4921 103.236 21.9084C102.986 21.8343 102.767 21.6808 102.613 21.4712C102.458 21.2616 102.376 21.0073 102.379 20.7468V20.4367C102.378 20.1452 102.484 19.8635 102.677 19.6455C102.871 19.4276 103.138 19.2886 103.428 19.2553C107.614 18.807 112.044 17.6651 114.223 17.0731C114.379 17.03 114.542 17.0195 114.702 17.0422C114.862 17.0649 115.015 17.1203 115.153 17.205C115.29 17.2896 115.409 17.4017 115.501 17.5342C115.594 17.6668 115.658 17.8169 115.689 17.9753C115.754 18.2629 115.819 18.6153 115.898 19.058C115.931 19.2496 116.01 19.4303 116.128 19.5843C116.247 19.7382 116.402 19.8607 116.579 19.9408C116.756 20.021 116.95 20.0565 117.144 20.0441C117.338 20.0318 117.526 19.972 117.691 19.87C120.124 18.3108 122.524 17.496 125.569 17.496C133.071 17.496 137.721 23.9441 137.721 30.7644C137.721 40.125 131.087 46.638 123.339 46.638C120.962 46.638 119.231 46.0318 118.032 45.3862C117.852 45.287 117.648 45.2365 117.442 45.2396C117.236 45.2427 117.034 45.2994 116.856 45.404C116.679 45.5086 116.531 45.6576 116.428 45.8364C116.326 46.0151 116.271 46.2175 116.27 46.4237V53.5796C116.27 55.9789 116.417 57.8285 118.983 58.2627C119.252 58.3161 119.494 58.4621 119.666 58.6754C119.839 58.8886 119.931 59.1556 119.927 59.43C119.927 59.5886 119.895 59.7457 119.834 59.8919C119.772 60.0381 119.682 60.1705 119.569 60.2814C119.455 60.3923 119.321 60.4793 119.173 60.5374C119.025 60.5955 118.868 60.6235 118.709 60.6198C115.644 60.5349 112.578 60.4832 109.512 60.4647C107.18 60.4647 105.672 60.507 103.687 60.5916C103.527 60.5992 103.366 60.5742 103.216 60.5182C103.065 60.4622 102.927 60.3763 102.811 60.2656C102.695 60.155 102.602 60.0219 102.538 59.8744C102.474 59.7269 102.441 59.568 102.441 59.4074V59.2523C102.441 58.6772 102.841 58.1612 103.411 58.0653C105.717 57.6706 105.914 56.4018 105.914 54.634C105.976 53.4555 105.976 49.7986 105.976 48.434L105.914 28.3453V28.3453ZM170.17 46.2658C167.652 46.0798 166.006 46.0798 159.411 46.0798C155.802 46.0798 154.361 46.1221 152.25 46.2715C151.89 46.2887 151.537 46.1681 151.263 45.9343C150.989 45.7005 150.815 45.3711 150.775 45.0131C150.736 44.6551 150.834 44.2956 151.05 44.0076C151.267 43.7197 151.585 43.525 151.939 43.4633C155.416 42.9755 155.565 41.7209 155.565 33.863V14.1464C155.503 9.43512 155.444 8.00846 155.007 7.14007C154.539 6.04047 153.803 5.78108 151.908 5.4653C151.579 5.41058 151.28 5.24086 151.064 4.98634C150.848 4.73182 150.73 4.409 150.73 4.0753C150.73 3.20691 151.384 2.57253 152.179 2.59508C155.664 2.68812 159.152 2.73605 162.634 2.73605C166.13 2.73605 168.371 2.65993 170.294 2.59508C170.667 2.56442 171.037 2.6831 171.322 2.925C171.607 3.16691 171.785 3.51223 171.815 3.88499C171.846 4.25775 171.727 4.62743 171.485 4.91269C171.243 5.19795 170.898 5.37543 170.525 5.40609C166.852 5.86567 166.852 6.97936 166.852 15.2009L166.914 34.4213C167.038 40.9342 167.1 41.3064 167.844 42.296C168.374 42.922 169.206 43.2518 170.48 43.4238C170.815 43.4726 171.122 43.6405 171.344 43.8968C171.565 44.1531 171.687 44.4806 171.687 44.8195C171.691 45.0165 171.654 45.2123 171.578 45.3943C171.502 45.5763 171.389 45.7405 171.247 45.8765C171.104 46.0125 170.935 46.1174 170.749 46.1844C170.564 46.2515 170.367 46.2792 170.17 46.2658V46.2658ZM172.138 44.9181C172.138 44.3007 172.581 43.7763 173.184 43.6748C174.12 43.5197 175.254 43.1165 175.426 41.9267C175.612 40.4972 175.612 36.7783 175.612 35.8479C175.612 33.6769 175.55 30.1441 175.55 27.9731C175.55 24.8604 174.506 24.0061 173.04 23.5917C172.779 23.5152 172.55 23.3559 172.387 23.1377C172.224 22.9195 172.137 22.6543 172.138 22.3821V22.2355C172.138 21.618 172.581 21.0993 173.19 20.9949C176.277 20.4536 180.943 19.1341 183.396 18.2883C183.554 18.2336 183.721 18.2109 183.888 18.2215C184.055 18.2321 184.217 18.2758 184.367 18.3501C184.517 18.4244 184.65 18.5277 184.759 18.6541C184.868 18.7805 184.951 18.9274 185.003 19.0862C185.054 19.2497 185.102 19.4048 185.144 19.5655C185.198 19.7509 185.293 19.9217 185.423 20.0645C185.552 20.2073 185.713 20.3184 185.893 20.3893C186.072 20.4601 186.266 20.4888 186.458 20.473C186.65 20.4573 186.837 20.3976 187.002 20.2985C189.342 18.9395 191.561 17.9302 194.832 17.9302C197.186 17.9302 199.543 18.5505 201.466 19.9123C204.489 22.0099 204.996 25.2129 205.244 28.6047C205.25 28.6385 205.25 28.6724 205.25 28.7062V34.0491C205.25 34.9795 205.126 39.8149 205.126 40.8722C205.126 42.4398 205.549 43.3956 207.601 43.7763C207.885 43.8346 208.14 43.9901 208.322 44.216C208.503 44.442 208.601 44.7241 208.597 45.014C208.597 45.1865 208.562 45.3572 208.493 45.5156C208.425 45.6739 208.325 45.8165 208.199 45.9345C208.073 46.0524 207.924 46.1432 207.762 46.2012C207.599 46.2592 207.427 46.2831 207.255 46.2715C205.501 46.1531 202.845 46.0769 198.489 46.0769C196.027 46.0769 194.674 46.1446 193.414 46.2546C193.239 46.2702 193.064 46.2494 192.898 46.1935C192.732 46.1376 192.58 46.0477 192.451 45.9297C192.322 45.8117 192.219 45.6681 192.148 45.508C192.077 45.3479 192.041 45.1749 192.041 44.9999V44.7349C192.041 44.1682 192.421 43.6663 192.971 43.5225C194.784 43.0319 195.01 42.1663 194.956 38.3911L194.832 28.7175C194.767 25.7429 194.646 22.3314 190.614 22.3314C188.936 22.3314 187.634 22.946 186.382 23.8905C186.218 24.0119 186.085 24.1711 185.995 24.3547C185.905 24.5382 185.861 24.7407 185.866 24.945C185.965 28.0521 185.965 36.8714 185.965 39.6288C185.965 42.4737 186.455 43.2603 187.972 43.6607C188.514 43.8016 188.88 44.3091 188.88 44.8702V45.0337C188.88 45.2061 188.845 45.3767 188.777 45.535C188.709 45.6933 188.609 45.8359 188.483 45.954C188.358 46.0721 188.21 46.1633 188.047 46.2218C187.885 46.2802 187.713 46.3048 187.541 46.294C185.435 46.1615 182.728 46.0769 177.656 46.0769C175.705 46.0769 174.571 46.139 173.514 46.2405C173.339 46.257 173.163 46.2368 172.996 46.181C172.83 46.1253 172.677 46.0353 172.547 45.9168C172.418 45.7983 172.314 45.6541 172.244 45.4932C172.173 45.3324 172.137 45.1586 172.138 44.983V44.9181V44.9181ZM236.639 39.5217C237.417 40.0856 237.524 41.2246 236.842 41.9013C233.423 45.2963 228.812 47.219 223.994 47.2583C215.126 47.2583 208.616 41.1175 208.616 32.6845C208.616 23.8201 216.181 18.1163 225.42 18.1163C231.496 18.1163 237.262 20.7807 237.262 25.2467C237.262 27.3528 235.466 29.1517 233.357 29.1517C232.427 29.1517 231.31 28.7175 230.628 28.0352C230.07 27.5389 229.946 27.2288 228.767 24.5644C228.209 23.3859 226.968 21.2769 225.048 21.2769C221.451 21.2769 220.458 27.4149 220.458 30.4543C220.458 37.4606 224.428 42.172 228.767 42.172C231.073 42.172 232.982 41.1119 234.677 39.6232C234.944 39.3861 235.283 39.2468 235.64 39.2284C235.997 39.2099 236.349 39.3134 236.639 39.5217M245.202 36.096C248.241 36.096 250.841 38.5151 250.841 41.7378C250.841 44.9012 248.241 47.3203 245.264 47.3203C243.8 47.3354 242.39 46.7691 241.344 45.7457C240.297 44.7223 239.699 43.3255 239.681 41.8618C239.681 38.0189 242.659 36.096 245.202 36.096Z" fill="white"/>
</g>
<defs>
<clipPath id="clip0_342_6875">
<rect width="250.933" height="62.0283" fill="white" transform="translate(0.233398 0.742676)"/>
</clipPath>
</defs>
</svg>
